<?xml version="1.0" encoding="utf-8"?>
<!-- Generator: Adobe Illustrator 21.1.0, SVG Export Plug-In . SVG Version: 6.00 Build 0)  -->
<svg version="1.1" id="レイヤー_1" xmlns="http://www.w3.org/2000/svg" xmlns:xlink="http://www.w3.org/1999/xlink" x="0px"
	 y="0px" width="96px" height="100px" viewBox="0 0 96 100" style="enable-background:new 0 0 96 100;" xml:space="preserve">
<style type="text/css">
	.st0{fill:#59498E;}
</style>
<g>
	<g>
		<path class="st0" d="M33.4,73.7c0,2-0.4,3.9-1.1,5.7c-0.8,1.8-1.8,3.4-3.1,4.8c-1.3,1.4-2.9,2.5-4.7,3.3c-1.8,0.8-3.7,1.2-5.8,1.2
			c-1.8,0-3.5-0.2-5.4-0.7c-1.8-0.5-3.5-1.3-4.9-2.5c-1.5-1.2-2.7-2.7-3.6-4.7c-0.9-1.9-1.4-4.4-1.4-7.4V37.8c0-2.1,0.4-4.1,1.1-5.9
			c0.7-1.8,1.8-3.4,3.1-4.7c1.3-1.3,2.9-2.4,4.8-3.1c1.8-0.8,3.9-1.1,6.1-1.1c2.1,0,4.1,0.4,5.9,1.1c1.8,0.8,3.4,1.8,4.7,3.2
			c1.3,1.4,2.4,3,3.1,4.9c0.8,1.9,1.1,4,1.1,6.2V42h-9.3v-3.1c0-1.8-0.5-3.4-1.5-4.7c-1-1.3-2.4-2-4.2-2c-2.3,0-3.8,0.7-4.6,2.1
			c-0.8,1.4-1.1,3.2-1.1,5.4v33.1c0,1.9,0.4,3.5,1.2,4.7c0.8,1.3,2.3,1.9,4.4,1.9c0.6,0,1.3-0.1,2-0.3c0.7-0.2,1.3-0.6,1.9-1
			c0.6-0.5,1-1.2,1.4-2c0.4-0.8,0.5-1.9,0.5-3.2v-3.2h9.3V73.7z"/>
		<path class="st0" d="M68.6,73.7c0,2-0.4,3.9-1.1,5.7c-0.8,1.8-1.8,3.4-3.1,4.8c-1.3,1.4-2.9,2.5-4.7,3.3c-1.8,0.8-3.7,1.2-5.8,1.2
			c-1.8,0-3.5-0.2-5.4-0.7c-1.8-0.5-3.5-1.3-4.9-2.5c-1.5-1.2-2.7-2.7-3.6-4.7c-0.9-1.9-1.4-4.4-1.4-7.4V37.8c0-2.1,0.4-4.1,1.1-5.9
			c0.7-1.8,1.8-3.4,3.1-4.7c1.3-1.3,2.9-2.4,4.8-3.1c1.8-0.8,3.9-1.1,6.1-1.1c2.1,0,4.1,0.4,5.9,1.1c1.8,0.8,3.4,1.8,4.7,3.2
			c1.3,1.4,2.4,3,3.1,4.9c0.8,1.9,1.1,4,1.1,6.2V42h-9.3v-3.1c0-1.8-0.5-3.4-1.5-4.7c-1-1.3-2.4-2-4.2-2c-2.3,0-3.8,0.7-4.6,2.1
			c-0.8,1.4-1.1,3.2-1.1,5.4v33.1c0,1.9,0.4,3.5,1.2,4.7c0.8,1.3,2.3,1.9,4.4,1.9c0.6,0,1.3-0.1,2-0.3c0.7-0.2,1.3-0.6,1.9-1
			c0.6-0.5,1-1.2,1.4-2c0.4-0.8,0.5-1.9,0.5-3.2v-3.2h9.3V73.7z"/>
	</g>
	<g>
		<path class="st0" d="M65.1,65.5h-2.4l-3.9-18.3h2.9L63.9,60h0.1l2.2-12.8h2.9L65.1,65.5z"/>
		<path class="st0" d="M70.7,47.2h8.2v2.5h-5.5V55h4.8v2.5h-4.8v5.4h5.5v2.6h-8.2V47.2z"/>
		<path class="st0" d="M80.8,47.2h2.8v18.3h-2.8V47.2z"/>
		<path class="st0" d="M86.3,47.2H89v15.7h6.2v2.6h-9V47.2z"/>
	</g>
	<g>
		<g>
			<path class="st0" d="M7.5,93.5c0,0.1-0.2,0.4-0.5,0.7c-0.3,0.4-0.8,0.8-1.4,1.2c0.3,0.2,0.5,0.4,0.5,0.5c0,0.7,0,1.4-0.1,2
				c0,0.4,0,0.8,0,1c0,0,0,0.1,0,0.1c0,0.1,0,0.1-0.1,0.2c-0.1,0.1-0.1,0.1-0.2,0.1c-0.2,0-0.3-0.1-0.3-0.3c0-0.4,0-0.8,0-1.1l0-2
				c0-0.1-0.1-0.2-0.2-0.4c-0.9,0.7-1.8,1.2-2.7,1.6c-0.1,0-0.2,0-0.2-0.1c0-0.1,0-0.1,0.1-0.2c0.7-0.4,1.4-0.9,2.3-1.5
				c0.8-0.6,1.4-1.1,1.7-1.5c0.2-0.2,0.3-0.3,0.3-0.4c0,0,0-0.1-0.1-0.2c-0.1-0.1-0.1-0.1-0.1-0.2c0-0.1,0.1-0.1,0.2-0.1
				c0.2,0.1,0.3,0.1,0.4,0.2C7.4,93.3,7.5,93.4,7.5,93.5z"/>
			<path class="st0" d="M5.8,99.5c-0.2,0-0.3-0.1-0.4-0.3c0-0.4,0-0.8,0-1.1l0-2c0-0.1-0.1-0.2-0.2-0.3c-0.9,0.7-1.8,1.2-2.7,1.5
				c0,0-0.1,0-0.1,0c-0.1,0-0.2,0-0.2-0.2c-0.1-0.1,0-0.2,0.1-0.3c0.7-0.4,1.4-0.9,2.3-1.5c0.8-0.6,1.4-1.1,1.7-1.5
				c0.2-0.2,0.3-0.3,0.3-0.4c0,0,0,0-0.1-0.1c-0.2-0.1-0.1-0.2-0.1-0.3C6.7,93,6.8,93,6.8,93c0,0,0.1,0,0.1,0
				c0.2,0.1,0.3,0.1,0.4,0.2c0.2,0.1,0.3,0.2,0.3,0.4c0,0.1-0.1,0.3-0.5,0.8c-0.3,0.3-0.7,0.7-1.3,1.1C6,95.6,6.2,95.8,6.2,96
				c0,0.7,0,1.4-0.1,2c0,0.4,0,0.8,0,1c0,0,0,0.1,0,0.1c0,0.1,0,0.2-0.1,0.2C6,99.4,5.9,99.5,5.8,99.5z M5.3,95.5L5.3,95.5
				c0.2,0.2,0.3,0.4,0.3,0.5l0,2c0,0.3,0,0.7,0,1.1c0,0.1,0.1,0.2,0.2,0.2c0,0,0.1,0,0.1-0.1c0,0,0.1-0.1,0.1-0.1c0,0,0,0,0-0.1l0,0
				c0-0.2,0-0.6,0-1c0-0.7,0-1.3,0.1-2c0-0.1-0.1-0.2-0.4-0.4l-0.1-0.1l0.1-0.1c0.6-0.4,1-0.8,1.4-1.2c0.4-0.4,0.5-0.6,0.5-0.7
				c0-0.1-0.1-0.1-0.2-0.2c-0.1,0-0.2-0.1-0.3-0.2c0,0,0,0,0,0c0,0,0,0,0,0c0,0,0,0,0.1,0.1C7,93.4,7,93.5,6.9,93.5
				c-0.1,0.1-0.2,0.3-0.3,0.5c-0.3,0.4-0.9,0.9-1.7,1.5c-0.9,0.7-1.7,1.2-2.3,1.5c0,0,0,0,0,0.1c0,0,0,0,0,0c0,0,0,0,0,0
				C3.4,96.8,4.3,96.3,5.3,95.5L5.3,95.5z"/>
		</g>
		<g>
			<path class="st0" d="M13.6,94.9c0,0,0,0.3-0.1,0.7c-0.1,0.8-0.3,1.3-0.6,1.8c-0.3,0.5-0.8,1-1.4,1.3c-0.1,0-0.1,0-0.2-0.1
				c-0.1-0.1,0-0.1,0-0.2c0.9-0.6,1.5-1.6,1.7-2.9c0.1-0.4,0.1-0.6,0.1-0.7c0-0.1-0.1-0.2-0.2-0.3c-0.1-0.1-0.1-0.1,0-0.2
				c0.1-0.1,0.1-0.1,0.2,0C13.4,94.5,13.6,94.7,13.6,94.9z M17.9,96.2c-0.5,0.6-1.1,1.2-1.8,1.6c-0.5,0.3-0.9,0.4-1.2,0.5
				c-0.1,0-0.3,0-0.3-0.1c-0.1-0.1-0.1-0.1-0.1-0.2c0.1-0.2,0.1-0.4,0.1-0.5l0-2.8c0-0.2-0.1-0.3-0.2-0.4c-0.1-0.1-0.1-0.1,0-0.2
				c0,0,0.1-0.1,0.1-0.1c0.1,0,0.2,0.1,0.4,0.2c0.2,0.1,0.2,0.2,0.2,0.3c0,0,0,0.1,0,0.2c0,0.1,0,0.3-0.1,0.4c0,0.7,0,1.3,0,1.9
				c0,0.1,0,0.2,0,0.3c0,0,0,0.2,0,0.3c0.3-0.1,0.7-0.3,1.1-0.5c0.6-0.3,1.1-0.8,1.6-1.2c0.1-0.1,0.1-0.1,0.2,0
				C17.9,96,17.9,96.1,17.9,96.2z"/>
			<path class="st0" d="M11.4,98.8c-0.1,0-0.1,0-0.2-0.1c0-0.1-0.1-0.1,0-0.2c0-0.1,0.1-0.1,0.1-0.1c0.9-0.6,1.4-1.5,1.7-2.9
				c0.1-0.4,0.1-0.6,0.1-0.7c0-0.1,0-0.2-0.1-0.2c-0.1-0.1-0.1-0.2,0-0.3c0.1-0.1,0.1-0.1,0.2-0.1c0,0,0.1,0,0.1,0
				c0.4,0.2,0.5,0.5,0.5,0.7c0,0,0,0.1-0.1,0.7c-0.1,0.8-0.3,1.4-0.6,1.8c-0.3,0.6-0.8,1-1.5,1.4C11.5,98.8,11.4,98.8,11.4,98.8z
				 M13,94.4C13,94.4,13,94.4,13,94.4c-0.1,0.1-0.1,0.1,0,0.1c0.1,0.1,0.2,0.2,0.2,0.4c0,0.1,0,0.3-0.1,0.7c-0.2,1.4-0.8,2.4-1.7,3
				c0,0,0,0,0,0c0,0,0,0,0,0c0,0,0,0,0,0c0,0,0,0,0,0c0.6-0.3,1.1-0.8,1.4-1.3c0.2-0.4,0.4-1,0.6-1.7c0.1-0.5,0.1-0.7,0.1-0.7
				C13.5,94.8,13.3,94.6,13,94.4C13,94.4,13,94.4,13,94.4z M14.8,98.3c-0.1,0-0.2,0-0.3-0.1c-0.1-0.1-0.1-0.2-0.1-0.3
				c0-0.2,0.1-0.4,0.1-0.5l0-2.8c0-0.1,0-0.2-0.1-0.3c-0.1-0.1-0.1-0.2-0.1-0.3c0.1-0.1,0.1-0.1,0.2-0.1l0,0c0.1,0,0.3,0.1,0.4,0.2
				c0.2,0.2,0.3,0.3,0.3,0.4c0,0,0,0.1,0,0.2c0,0.1,0,0.3-0.1,0.4c0,0.7,0,1.3,0,1.9v0.3c0,0,0,0.1,0,0.2c0.3-0.1,0.6-0.2,0.9-0.4
				c0.6-0.3,1.1-0.7,1.5-1.2c0.1-0.1,0.2-0.1,0.3,0C18,95.9,18,96,18,96c0,0.1,0,0.1-0.1,0.2c-0.5,0.7-1.1,1.2-1.8,1.6
				C15.6,98.1,15.2,98.2,14.8,98.3C14.9,98.3,14.8,98.3,14.8,98.3z M14.5,94C14.5,94,14.5,94,14.5,94C14.4,94.1,14.4,94.1,14.5,94
				c0.1,0.2,0.2,0.3,0.2,0.5l0,2.8c0,0.1,0,0.3-0.1,0.5c0,0,0,0.1,0,0.1c0,0.1,0.1,0.1,0.3,0.1c0.3,0,0.7-0.2,1.2-0.5
				c0.6-0.4,1.2-0.9,1.8-1.5c0,0,0,0,0,0c0,0,0,0,0,0c0,0,0,0,0,0c0,0,0,0,0,0c-0.5,0.5-1,0.9-1.6,1.3c-0.4,0.2-0.8,0.4-1.1,0.5
				l-0.1,0l0-0.1c0-0.2,0-0.3,0-0.3v-0.3c0-0.6,0-1.2,0-1.9c0-0.2,0-0.3,0.1-0.5c0-0.1,0-0.2,0-0.2c0,0,0-0.1-0.2-0.3
				C14.7,94.1,14.6,94,14.5,94C14.5,94,14.5,94,14.5,94z"/>
		</g>
		<g>
			<path class="st0" d="M24.7,96.2c0,0.1,0,0.2,0,0.2c0,0.1-0.1,0.1-0.3,0.1c-0.2,0-0.4,0.1-0.5,0.2c-0.1,0-0.1,0-0.2-0.1
				c0-0.1,0-0.2,0.1-0.2c0.1,0,0.2-0.1,0.3-0.1c-0.2-0.2-0.6-0.5-1.2-0.7c-0.1,0-0.1-0.1-0.1-0.1c0-0.1,0.1-0.1,0.2-0.1
				c0.2,0,0.5,0.1,1,0.3C24.4,95.9,24.7,96.1,24.7,96.2z M25.4,98.9c0,0.1,0,0.1-0.1,0.2c-0.1,0.1-0.1,0.1-0.2,0.1
				c-0.1,0-0.2-0.1-0.3-0.2c-0.2-0.1-0.5-0.3-0.9-0.5c-0.4-0.2-0.7-0.3-0.9-0.5c-0.2-0.1-0.3-0.3-0.3-0.5c0-0.1,0-0.1,0-0.2
				c0-0.1,0.1-0.1,0.2-0.1c0.1,0,0.1,0.1,0.1,0.2c0,0.1,0,0.2,0.1,0.2c0.1,0.1,0.4,0.2,0.7,0.4c0.6,0.2,1,0.5,1.3,0.7
				C25.3,98.7,25.4,98.8,25.4,98.9z M25.1,94.4c0,0.1,0,0.1-0.1,0.2c-0.1,0.1-0.1,0.1-0.2,0.1c-0.1,0-0.2-0.1-0.2-0.2
				c-0.3-0.3-0.8-0.5-1.4-0.7c-0.1,0-0.1-0.1-0.1-0.1c0-0.1,0-0.1,0.1-0.1c0.3,0,0.7,0.1,1,0.2c0.3,0.1,0.6,0.3,0.8,0.5
				C25.1,94.3,25.1,94.4,25.1,94.4z"/>
			<path class="st0" d="M25.1,99.2c-0.2,0-0.3-0.1-0.3-0.2c-0.2-0.1-0.5-0.2-0.9-0.4c-0.4-0.2-0.7-0.3-0.9-0.5
				c-0.2-0.1-0.3-0.3-0.3-0.6c0-0.1,0-0.1,0-0.2c0-0.1,0.1-0.2,0.3-0.2c0.1,0,0.2,0.1,0.2,0.3c0,0.1,0,0.1,0,0.1
				c0.1,0.1,0.3,0.2,0.7,0.3c0.6,0.3,1.1,0.5,1.3,0.7c0.1,0.1,0.2,0.2,0.2,0.3c0,0.1,0,0.2-0.1,0.3C25.3,99.2,25.2,99.2,25.1,99.2z
				 M22.9,97.3C22.9,97.3,22.9,97.3,22.9,97.3c-0.1,0.1-0.1,0.2-0.1,0.2c0,0.2,0.1,0.3,0.2,0.4c0.2,0.1,0.5,0.3,0.9,0.5
				c0.4,0.2,0.7,0.4,0.9,0.5l0,0l0,0c0,0.1,0.1,0.1,0.2,0.1c0,0,0.1,0,0.1-0.1c0,0,0.1-0.1,0.1-0.1c0-0.1,0-0.1-0.1-0.1
				c-0.3-0.2-0.7-0.4-1.3-0.7c-0.4-0.2-0.6-0.3-0.8-0.4C23,97.6,23,97.5,22.9,97.3C23,97.3,23,97.3,22.9,97.3
				C22.9,97.3,22.9,97.3,22.9,97.3z M23.8,96.9c-0.1,0-0.1,0-0.2-0.1c0-0.1-0.1-0.2,0.1-0.3l0.2-0.1c-0.2-0.2-0.6-0.4-1.1-0.6
				c-0.1,0-0.2-0.1-0.2-0.2c0-0.1,0.1-0.2,0.3-0.2c0.2,0,0.6,0.1,1,0.3c0.6,0.2,0.9,0.4,0.9,0.7c0,0.1,0,0.2-0.1,0.3
				c-0.1,0.1-0.2,0.1-0.3,0.2c-0.2,0-0.3,0.1-0.5,0.1C23.9,96.8,23.8,96.9,23.8,96.9z M22.9,95.5C22.8,95.5,22.8,95.5,22.9,95.5
				c-0.1,0.1,0,0.1,0,0.1c0.6,0.2,1,0.4,1.2,0.7l0.1,0.1l-0.4,0.2c-0.1,0.1-0.1,0.1-0.1,0.1c0,0,0,0,0.1,0c0.2-0.1,0.4-0.1,0.6-0.2
				c0.1,0,0.2-0.1,0.2-0.1c0,0,0-0.1,0-0.2c0-0.1-0.1-0.3-0.8-0.5C23.4,95.6,23.1,95.5,22.9,95.5C22.9,95.5,22.9,95.5,22.9,95.5z
				 M24.9,94.8c-0.2,0-0.3-0.1-0.3-0.2c-0.3-0.3-0.8-0.5-1.3-0.7c-0.1,0-0.2-0.1-0.2-0.2c0-0.1,0.1-0.2,0.2-0.2c0.3,0,0.7,0.1,1,0.2
				c0.4,0.1,0.6,0.3,0.8,0.5c0.1,0.1,0.1,0.2,0.1,0.3c0,0.1,0,0.2-0.1,0.2C25.1,94.7,25,94.8,24.9,94.8z M23.3,93.6
				C23.2,93.6,23.2,93.6,23.3,93.6c-0.1,0.1-0.1,0.1,0,0.1c0.6,0.2,1.1,0.4,1.4,0.7l0,0l0,0c0,0.1,0.1,0.1,0.2,0.1
				c0.1,0,0.1,0,0.1-0.1c0,0,0.1-0.1,0.1-0.1c0,0,0-0.1-0.1-0.1c-0.2-0.2-0.4-0.3-0.8-0.5C23.9,93.7,23.6,93.6,23.3,93.6z"/>
		</g>
		<g>
			<path class="st0" d="M36.5,95.4c0,0.1,0,0.1-0.1,0.2c-0.1,0-0.1,0.1-0.2,0.1c-0.6,0-1.3,0-2.2,0c-0.1,1-0.2,1.7-0.5,2.2
				c-0.3,0.5-0.9,1-1.9,1.3c-0.1,0-0.2,0-0.2-0.1c0-0.1,0-0.1,0.1-0.2c0.7-0.4,1.2-0.8,1.5-1.2c0.3-0.4,0.4-1.1,0.5-2
				c-0.6,0-1.1,0.1-1.5,0.1c-0.2,0-0.3,0-0.5,0c-0.3,0-0.5-0.1-0.8-0.2c-0.1,0-0.1-0.1-0.1-0.2c0-0.1,0.1-0.1,0.1-0.1
				c0.2,0,0.7,0,1.3,0c0.5,0,1-0.1,1.4-0.1c0-0.3,0-0.6,0-1c0-0.2,0-0.3,0-0.3c0-0.1-0.1-0.1-0.3-0.2c-0.1,0-0.1-0.1-0.1-0.2
				c0-0.1,0.1-0.1,0.2-0.1c0.3,0.1,0.5,0.2,0.6,0.3c0.1,0.1,0.1,0.2,0.1,0.4c0,0.3,0,0.6,0,1.1c1,0,1.7-0.1,2.1,0c0,0,0.1,0,0.1,0
				C36.4,95.2,36.5,95.3,36.5,95.4z"/>
			<path class="st0" d="M31.6,99.3c-0.1,0-0.1,0-0.2-0.2c-0.1-0.1,0-0.2,0.1-0.3c0.7-0.4,1.2-0.8,1.5-1.2c0.3-0.4,0.4-1,0.5-1.9
				c-0.5,0-1,0.1-1.4,0.1c-0.2,0-0.3,0-0.5,0c-0.3,0-0.6-0.1-0.9-0.2c-0.1-0.1-0.2-0.2-0.1-0.3c0.1-0.1,0.1-0.1,0.2-0.1
				c0.2,0,0.6,0,1.3,0c0.5,0,0.9-0.1,1.3-0.1c0-0.3,0-0.6,0-1c0-0.2,0-0.3,0-0.3c0,0-0.1-0.1-0.2-0.2c-0.1-0.1-0.1-0.2-0.1-0.3
				c0-0.1,0.2-0.2,0.2-0.2c0,0,0.1,0,0.1,0c0.3,0.1,0.5,0.2,0.6,0.4c0.1,0.1,0.1,0.3,0.1,0.5c0,0.2,0,0.6,0,1c1,0,1.6,0,2,0
				c0,0,0.1,0,0.1,0c0.2,0,0.3,0.1,0.3,0.3c0,0.1,0,0.2-0.1,0.3c-0.1,0.1-0.2,0.1-0.3,0.1c-0.6,0-1.3,0-2.1,0
				c-0.1,1-0.2,1.7-0.5,2.2c-0.3,0.5-1,1-1.9,1.4C31.6,99.3,31.6,99.3,31.6,99.3z M33.6,95.6l0,0.1c-0.1,0.9-0.2,1.6-0.5,2.1
				c-0.3,0.5-0.8,0.9-1.6,1.2c0,0,0,0,0,0.1c0,0,0,0,0,0c0,0,0,0,0,0c0.9-0.4,1.5-0.8,1.8-1.3c0.3-0.5,0.5-1.2,0.5-2.2l0-0.1l0.1,0
				c0.8,0,1.6,0,2.2,0c0.1,0,0.1,0,0.1,0c0,0,0.1-0.1,0.1-0.1c0-0.1,0-0.2-0.2-0.2c0,0,0,0-0.1,0l0,0l0,0c-0.4,0-1.1,0-2.1,0l-0.1,0
				v-0.1c0-0.5,0-0.9,0-1.1c0-0.2,0-0.3-0.1-0.3c-0.1-0.1-0.2-0.2-0.6-0.3c0,0,0,0-0.1,0c0,0,0,0,0,0.1c0.2,0.1,0.3,0.2,0.3,0.3
				c0,0.1,0.1,0.2,0.1,0.4c0,0.4,0,0.8,0,1l0,0.1l-0.1,0c-0.4,0-0.8,0-1.4,0.1c-0.7,0.1-1.1,0.1-1.4,0c0,0,0,0-0.1,0c0,0,0,0,0,0.1
				c0.3,0.1,0.5,0.2,0.8,0.2c0.1,0,0.3,0,0.4,0c0.4-0.1,0.9-0.1,1.5-0.1L33.6,95.6z"/>
		</g>
		<g>
			<path class="st0" d="M45.3,97.2c-0.1,0.4-0.4,0.8-0.8,1c-0.4,0.3-0.8,0.4-1.2,0.4c-0.1,0-0.2,0-0.3,0c-0.5-0.1-1-0.4-1.3-0.8
				c-0.3-0.5-0.5-1-0.5-1.7c0-0.7,0.1-1.3,0.4-1.8c0.3-0.5,0.7-0.8,1.3-0.9c0.2,0,0.3-0.1,0.5-0.1c0.4,0,0.8,0.1,1.1,0.3
				c0,0,0,0,0,0c0.1,0,0.1,0,0.1-0.1c0-0.1,0-0.1,0.1-0.2c0.1,0,0.1,0,0.2,0.1l0.4,1c0,0.1,0,0.2-0.1,0.2c-0.1,0-0.1,0-0.2-0.1
				c-0.2-0.3-0.4-0.5-0.7-0.7c-0.3-0.2-0.6-0.3-1-0.3c-0.1,0-0.1,0-0.2,0c-0.4,0-0.7,0.3-1,0.7c-0.3,0.4-0.4,0.9-0.4,1.6
				c0,0.1,0,0.3,0,0.4c0.1,0.6,0.2,1,0.5,1.4c0.3,0.4,0.7,0.7,1.2,0.7c0.3,0,0.7-0.1,0.9-0.3c0.3-0.2,0.5-0.5,0.6-0.8
				c0-0.1,0.1-0.1,0.2-0.1C45.3,97.1,45.3,97.2,45.3,97.2z"/>
			<path class="st0" d="M43.2,98.7c-0.1,0-0.2,0-0.4,0c-0.6-0.1-1-0.4-1.4-0.9c-0.3-0.5-0.5-1.1-0.5-1.8c0-0.7,0.1-1.4,0.5-1.9
				c0.3-0.5,0.8-0.8,1.3-1c0.2,0,0.3-0.1,0.5-0.1c0.4,0,0.8,0.1,1.2,0.3c0-0.1,0-0.2,0.2-0.2c0,0,0.1,0,0.1,0c0.1,0,0.2,0,0.2,0.2
				l0.4,1c0.1,0.1,0,0.3-0.1,0.3c0,0-0.1,0-0.1,0c-0.1,0-0.1,0-0.2-0.1c-0.2-0.3-0.4-0.5-0.6-0.7c-0.3-0.2-0.7-0.3-1.1-0.3
				c-0.4,0-0.7,0.3-0.9,0.7c-0.2,0.4-0.4,0.9-0.4,1.5c0,0.1,0,0.3,0,0.4c0.1,0.5,0.2,1,0.5,1.3c0.3,0.4,0.7,0.6,1.2,0.6
				c0.3,0,0.6-0.1,0.9-0.3c0.3-0.2,0.5-0.5,0.6-0.8C45,97,45.1,97,45.1,97c0,0,0.1,0,0.1,0c0.1,0.1,0.2,0.2,0.1,0.3
				c-0.2,0.4-0.4,0.8-0.8,1C44.1,98.6,43.7,98.7,43.2,98.7z M43.3,93.4c-0.2,0-0.3,0-0.5,0.1c-0.5,0.1-0.9,0.4-1.2,0.9
				c-0.3,0.5-0.4,1.1-0.4,1.8c0,0.7,0.2,1.3,0.5,1.7c0.3,0.4,0.7,0.7,1.2,0.8c0.1,0,0.2,0,0.3,0c0.4,0,0.8-0.1,1.2-0.4
				c0.4-0.2,0.6-0.6,0.8-1c0-0.1,0-0.1,0-0.1c0,0,0,0,0,0c0,0,0,0,0,0c-0.1,0.3-0.4,0.6-0.7,0.9c-0.3,0.2-0.6,0.3-1,0.3
				c-0.5,0-1-0.2-1.3-0.7c-0.3-0.4-0.4-0.8-0.5-1.4c0-0.1,0-0.3,0-0.4c0-0.6,0.1-1.2,0.4-1.6c0.3-0.4,0.6-0.7,1.1-0.7
				c0.1,0,0.1,0,0.2,0c0.4,0,0.7,0.1,1,0.3c0.3,0.2,0.5,0.4,0.7,0.7c0,0,0,0,0,0c0,0,0,0,0,0c0,0,0,0,0-0.1l-0.4-1c0,0,0,0,0,0
				c0,0,0,0,0,0c-0.1,0,0,0,0,0c0,0.1,0,0.1,0,0.2c0,0-0.1,0.1-0.1,0.1c0,0-0.1,0-0.1,0C44,93.5,43.7,93.4,43.3,93.4z"/>
		</g>
		<g>
			<path class="st0" d="M52.8,97.2c-0.1,0.4-0.4,0.8-0.8,1c-0.4,0.3-0.8,0.4-1.2,0.4c-0.1,0-0.2,0-0.3,0c-0.5-0.1-1-0.4-1.3-0.8
				c-0.3-0.5-0.5-1-0.5-1.7c0-0.7,0.1-1.3,0.4-1.8c0.3-0.5,0.7-0.8,1.3-0.9c0.2,0,0.3-0.1,0.5-0.1c0.4,0,0.8,0.1,1.1,0.3
				c0,0,0,0,0,0c0.1,0,0.1,0,0.1-0.1c0-0.1,0-0.1,0.1-0.2c0.1,0,0.2,0,0.2,0.1l0.4,1c0,0.1,0,0.2-0.1,0.2c-0.1,0-0.1,0-0.2-0.1
				c-0.2-0.3-0.4-0.5-0.7-0.7c-0.3-0.2-0.6-0.3-1-0.3c-0.1,0-0.1,0-0.2,0c-0.4,0-0.7,0.3-1,0.7c-0.3,0.4-0.4,0.9-0.4,1.6
				c0,0.1,0,0.3,0,0.4c0.1,0.6,0.2,1,0.5,1.4c0.3,0.4,0.7,0.7,1.2,0.7c0.3,0,0.7-0.1,0.9-0.3c0.3-0.2,0.5-0.5,0.6-0.8
				c0-0.1,0.1-0.1,0.2-0.1C52.8,97.1,52.8,97.2,52.8,97.2z"/>
			<path class="st0" d="M50.8,98.7c-0.1,0-0.2,0-0.4,0c-0.6-0.1-1-0.4-1.4-0.9c-0.3-0.5-0.5-1.1-0.5-1.8c0-0.7,0.1-1.4,0.5-1.9
				c0.3-0.5,0.8-0.8,1.3-1c0.2,0,0.3-0.1,0.5-0.1c0.4,0,0.8,0.1,1.2,0.3c0-0.1,0-0.2,0.2-0.2c0,0,0.1,0,0.1,0c0.1,0,0.2,0,0.2,0.2
				l0.4,1c0.1,0.1,0,0.3-0.1,0.3c0,0-0.1,0-0.1,0c-0.1,0-0.1,0-0.2-0.1c-0.2-0.3-0.4-0.5-0.6-0.7c-0.3-0.2-0.7-0.3-1.1-0.3
				c-0.4,0-0.7,0.3-0.9,0.7c-0.2,0.4-0.4,0.9-0.4,1.5c0,0.1,0,0.3,0,0.4c0.1,0.5,0.2,1,0.5,1.3c0.3,0.4,0.7,0.6,1.2,0.6
				c0.3,0,0.6-0.1,0.9-0.3c0.3-0.2,0.5-0.5,0.6-0.8c0.1-0.1,0.2-0.2,0.2-0.2c0,0,0.1,0,0.1,0c0.1,0.1,0.2,0.2,0.1,0.3
				c-0.2,0.4-0.4,0.8-0.8,1C51.7,98.6,51.2,98.7,50.8,98.7z M50.8,93.4c-0.2,0-0.3,0-0.5,0.1c-0.5,0.1-0.9,0.4-1.2,0.9
				c-0.3,0.5-0.4,1.1-0.4,1.8c0,0.7,0.2,1.3,0.5,1.7c0.3,0.4,0.7,0.7,1.2,0.8c0.1,0,0.2,0,0.3,0c0.4,0,0.8-0.1,1.2-0.4
				c0.4-0.2,0.6-0.6,0.8-1c0-0.1,0-0.1,0-0.1c0,0,0,0,0,0c0,0,0,0,0,0c-0.1,0.3-0.4,0.6-0.7,0.9c-0.3,0.2-0.6,0.3-1,0.3
				c-0.5,0-1-0.2-1.3-0.7c-0.3-0.4-0.4-0.8-0.5-1.4c0-0.1,0-0.3,0-0.4c0-0.6,0.1-1.2,0.4-1.6c0.3-0.4,0.6-0.7,1.1-0.7
				c0.1,0,0.1,0,0.2,0c0.4,0,0.7,0.1,1,0.3c0.3,0.2,0.5,0.4,0.7,0.7c0,0,0,0,0,0c0,0,0,0,0,0c0,0,0,0,0-0.1l-0.4-1c0,0,0,0,0,0
				c0,0,0,0,0,0c-0.1,0,0,0,0,0c0,0.1,0,0.1,0,0.2c0,0-0.1,0.1-0.1,0.1c0,0-0.1,0-0.1,0C51.6,93.5,51.2,93.4,50.8,93.4z"/>
		</g>
		<g>
			<path class="st0" d="M62,94.8c0,0.1,0,0.2-0.1,0.3c-0.1,0.1-0.1,0.2-0.1,0.2c-0.3,1-0.7,1.9-1.2,2.5c-0.5,0.6-1.1,1.1-2,1.5
				c-0.1,0-0.2,0-0.2-0.1c0-0.1,0-0.1,0.1-0.2c1.4-0.8,2.3-2.1,2.8-3.9c0-0.1,0-0.1-0.1-0.1l-0.2,0c-0.2,0-0.3,0-0.3,0
				c-0.4,0-0.8,0-1.3,0.1c-0.8,0.1-1.3,0.1-1.3,0.1c-0.2,0-0.3,0-0.4,0c0,0,0,0.1,0,0.1l0,0.4c0,0.2,0,0.5,0,0.8c0,0,0,0,0,0.1
				c0,0.1,0,0.1-0.1,0.2c0,0-0.1,0.1-0.2,0.1c-0.2,0-0.2-0.1-0.3-0.3c0-0.1,0-0.4,0-0.8c0-0.1,0-0.3,0-0.5c0-0.2,0-0.3-0.1-0.3
				c-0.1,0-0.1-0.1-0.1-0.2c0-0.1,0.1-0.1,0.2-0.1c0.1,0,0.1,0.1,0.2,0.1c0.2,0,0.5,0,0.9-0.1c0.5-0.1,0.8-0.1,0.9-0.1
				c0-0.4,0-0.7,0-0.8c0-0.2,0-0.3-0.1-0.4c-0.1,0-0.1-0.1-0.1-0.2c0-0.1,0.1-0.1,0.2-0.1c0.3,0.1,0.5,0.3,0.5,0.5
				c0,0.1,0,0.1,0,0.2c0,0.1-0.1,0.3-0.1,0.8c0.4,0,0.8,0,1.3,0c0.1,0,0.3,0,0.4-0.1c0.2,0,0.3,0,0.5,0C61.9,94.7,62,94.8,62,94.8z
				 M61.9,93.8c0,0,0,0.1,0,0.1c0,0.2-0.1,0.2-0.2,0.2c-0.2,0-0.2-0.1-0.2-0.2c-0.1-0.2-0.3-0.4-0.5-0.5c0,0-0.1-0.1,0-0.1
				c0-0.1,0.1-0.1,0.2-0.1C61.5,93.3,61.8,93.5,61.9,93.8z M62.9,93.4C62.9,93.4,62.9,93.5,62.9,93.4c0,0.2,0,0.2-0.1,0.3
				c-0.1,0.1-0.1,0.1-0.2,0.1c-0.2,0-0.2-0.1-0.2-0.3c-0.1-0.2-0.3-0.4-0.6-0.6c-0.1,0-0.1-0.1,0-0.1c0-0.1,0.1-0.1,0.2-0.1
				C62.4,92.9,62.7,93.1,62.9,93.4z"/>
			<path class="st0" d="M58.6,99.4c-0.1,0-0.1,0-0.2-0.1c-0.1-0.1,0-0.2,0.1-0.3c1.4-0.8,2.3-2.1,2.7-3.8c0,0,0,0,0,0l-0.4,0
				c-0.1,0-0.1,0-0.1,0c-0.3,0-0.8,0-1.3,0.1c-0.8,0.1-1.2,0.1-1.3,0.1c-0.1,0-0.2,0-0.3,0c0,0,0,0,0,0l0,0.5c0,0.2,0,0.5,0,0.8
				c0,0,0,0.1,0,0.1c0,0.1,0,0.2-0.1,0.2C57.6,97,57.6,97,57.5,97c-0.2,0-0.3-0.1-0.3-0.3c0-0.1,0-0.4,0-0.8c0-0.1,0-0.3,0-0.5
				c0-0.2-0.1-0.3-0.1-0.3c-0.1-0.1-0.1-0.2-0.1-0.3c0-0.1,0.1-0.2,0.3-0.2c0.1,0,0.1,0.1,0.2,0.1c0.2,0,0.5,0,0.8-0.1
				c0.4,0,0.7-0.1,0.8-0.1c0-0.4,0-0.6,0-0.8c0-0.2,0-0.3-0.1-0.3c-0.1-0.1-0.1-0.2-0.1-0.3c0.1-0.1,0.1-0.1,0.2-0.1
				c0,0,0.1,0,0.1,0c0.3,0.2,0.5,0.3,0.6,0.5c0,0.1,0,0.2-0.1,0.3c0,0,0,0.1-0.1,0.6c0.4,0,0.8,0,1.2,0c0.1,0,0.3,0,0.4-0.1
				c0.2-0.1,0.4,0,0.6,0.1c0.1,0.1,0.2,0.2,0.2,0.3c0,0.1,0,0.2-0.1,0.3c-0.1,0.2-0.1,0.2-0.1,0.2c-0.3,1.1-0.7,1.9-1.2,2.5
				c-0.5,0.6-1.2,1.1-2,1.5C58.7,99.4,58.6,99.4,58.6,99.4z M61.3,95c0.1,0,0.1,0,0.1,0.1c0.1,0.1,0,0.2,0,0.2
				c-0.5,1.7-1.4,3.1-2.8,3.9c0,0,0,0,0,0.1c0,0,0,0,0,0c0,0,0,0,0,0c0.8-0.4,1.5-0.9,1.9-1.5c0.5-0.6,0.9-1.4,1.2-2.5
				c0,0,0,0,0.1-0.3c0-0.1,0.1-0.1,0-0.2c0-0.1-0.1-0.1-0.2-0.2c-0.1-0.1-0.3-0.1-0.4,0c-0.1,0-0.3,0.1-0.5,0.1c-0.4,0-0.8,0-1.3,0
				l-0.1,0l0-0.1c0-0.6,0.1-0.8,0.1-0.8c0-0.1,0-0.1,0-0.1c0-0.1-0.2-0.3-0.5-0.4c0,0,0,0,0,0c0,0,0,0,0,0c0,0,0,0,0,0.1
				c0.1,0.1,0.2,0.2,0.2,0.5c0,0.1,0,0.4,0,0.8l0,0.1l-0.1,0c-0.1,0-0.4,0-0.9,0.1c-0.4,0-0.7,0.1-0.9,0.1h0l0,0
				c-0.1,0-0.1-0.1-0.2-0.1c0,0-0.1,0-0.1,0c0,0,0,0.1,0,0.1c0.1,0.1,0.2,0.2,0.2,0.4c0,0.2,0,0.4,0,0.5c0,0.5,0,0.8,0,0.8
				c0,0.1,0.1,0.2,0.2,0.2c0,0,0.1,0,0.1,0c0,0,0-0.1,0-0.1c0,0,0,0,0,0l0,0c0-0.3,0-0.6,0-0.8l0-0.4c0,0,0-0.1,0-0.1l0-0.1l0.1,0
				c0.1,0,0.2,0,0.4,0c0.1,0,0.5,0,1.3-0.1c0.5-0.1,1-0.1,1.3-0.1c0,0,0.1,0,0.2,0L61.3,95L61.3,95z M61.8,94.3L61.8,94.3
				c-0.1,0-0.2,0-0.3-0.1c0-0.1-0.1-0.1-0.1-0.2c-0.1-0.2-0.3-0.3-0.5-0.5c-0.1-0.1-0.1-0.1-0.1-0.2c0-0.1,0.1-0.1,0.2-0.1
				c0,0,0.1,0,0.1,0c0.4,0.2,0.7,0.4,0.9,0.7c0,0.1,0.1,0.1,0.1,0.2C62.1,94.1,62,94.3,61.8,94.3z M61.1,93.2
				C61.1,93.2,61.1,93.3,61.1,93.2C61,93.3,61,93.3,61.1,93.2c0.2,0.2,0.4,0.4,0.5,0.6l0,0l0,0c0,0.1,0,0.1,0,0.1c0,0,0.1,0,0.1,0
				l0,0.1v-0.1c0.1,0,0.1,0,0.1-0.1c0,0,0-0.1,0-0.1C61.7,93.6,61.4,93.4,61.1,93.2C61.1,93.3,61.1,93.2,61.1,93.2L61.1,93.2z
				 M62.6,93.8L62.6,93.8c-0.2,0-0.3-0.1-0.3-0.3c-0.1-0.2-0.3-0.4-0.5-0.5c-0.1-0.1-0.1-0.2-0.1-0.3c0-0.1,0.1-0.1,0.2-0.1
				c0,0,0.1,0,0.1,0c0.5,0.2,0.8,0.4,1,0.7c0,0,0,0.1,0,0.1c0,0.1,0,0.2-0.1,0.2C62.8,93.8,62.7,93.8,62.6,93.8z M61.8,92.8
				L61.8,92.8C61.9,92.8,61.9,92.8,61.8,92.8c0.4,0.3,0.6,0.5,0.7,0.7l0,0l0,0c0,0.1,0,0.2,0.1,0.2c0,0,0.1,0,0.1,0c0,0,0-0.1,0-0.1
				c0,0,0,0,0-0.1c-0.1-0.3-0.4-0.5-0.9-0.6C61.9,92.8,61.9,92.8,61.8,92.8L61.8,92.8z"/>
		</g>
		<g>
			<path class="st0" d="M70.4,98.2c0,0.1-0.1,0.2-0.2,0.2c0,0-0.1,0-0.1,0c-0.1,0-0.3,0-0.7,0h-0.1c-0.3,0-0.8,0-1.4,0
				c-0.7,0-1.1,0.1-1.4,0.1c-0.1,0-0.1,0-0.2,0c-0.2,0-0.4-0.1-0.6-0.2c0,0,0-0.1,0-0.1c0-0.1,0.1-0.1,0.1,0c0.1,0.1,0.3,0.1,0.5,0
				c0.3,0,0.8-0.1,1.5-0.1c0-0.4,0-0.9,0-1.5v0c0-0.2,0-0.3,0-0.4c-0.4,0-0.7,0.1-0.9,0.1c-0.1,0-0.2,0-0.2,0
				c-0.2,0-0.3-0.1-0.5-0.2c-0.1,0-0.1-0.1,0-0.2c0,0,0.1-0.1,0.1,0c0.1,0,0.3,0,0.6,0l0.2,0c0.5-0.1,1.2-0.1,2-0.1c0,0,0.1,0,0.1,0
				c0.1,0,0.3,0,0.4,0c0.1,0,0.1,0.1,0.1,0.2c0,0.1-0.1,0.2-0.2,0.2c0,0-0.1,0-0.1,0c-0.1,0-0.1,0-0.2,0c-0.2,0-0.6,0-1.2,0.1
				c0.1,0.1,0.1,0.3,0.1,0.4l0,0.1c0,0.6-0.1,1.1-0.1,1.5c0.4,0,0.8,0,1,0c0.1,0,0.2,0,0.4,0c0.2,0,0.4,0,0.6,0.1
				C70.4,98.1,70.4,98.1,70.4,98.2z"/>
			<path class="st0" d="M66.4,98.5c-0.2,0-0.5-0.1-0.6-0.3c-0.1-0.1-0.1-0.2,0-0.2c0.1-0.1,0.1-0.1,0.2-0.1c0,0,0.1,0,0.1,0
				c0.1,0,0.3,0.1,0.5,0c0.3,0,0.8-0.1,1.4-0.1c0-0.4,0-0.8,0-1.4v0c0-0.1,0-0.2,0-0.3c-0.3,0-0.6,0-0.8,0.1c-0.1,0-0.2,0-0.2,0
				c-0.2,0-0.4-0.1-0.5-0.2c-0.1,0-0.1-0.1-0.1-0.1c0-0.1,0-0.1,0-0.2c0-0.1,0.1-0.1,0.2-0.1c0,0,0.1,0,0.1,0c0,0,0,0,0.1,0
				c0.1,0,0.2,0,0.5,0l0.2,0c0.5-0.1,1.2-0.1,2-0.1c0,0,0.1,0,0.1,0c0.1,0,0.3,0,0.4,0c0.1,0,0.2,0.1,0.2,0.2c0,0.2-0.1,0.3-0.3,0.3
				c0,0-0.1,0-0.1,0c-0.1,0-0.1,0-0.2,0l-0.1,0c-0.2,0-0.5,0-0.9,0c0,0.1,0.1,0.2,0.1,0.3l0,0.1c0,0.6-0.1,1-0.1,1.4
				c0.4,0,0.7,0,0.9,0c0.1,0,0.2,0,0.4,0c0.2,0,0.4,0,0.7,0.1c0.1,0,0.2,0.1,0.2,0.3c0,0.2-0.1,0.3-0.3,0.3c0,0-0.1,0-0.1,0
				c-0.1,0-0.3,0-0.7,0h-0.1c-0.3,0-0.8,0-1.4,0c-0.6,0-1.1,0.1-1.4,0.1C66.5,98.5,66.5,98.5,66.4,98.5z M65.9,98.1
				C65.9,98.1,65.9,98.1,65.9,98.1c0.2,0.2,0.4,0.3,0.6,0.2c0.3,0,0.7-0.1,1.4-0.1c0.6,0,1.1,0,1.4,0h0.1c0.4,0,0.6,0,0.7,0l0,0
				c0,0,0,0,0,0c0.1,0,0.1,0,0.1-0.1c0,0,0-0.1-0.1-0.1C70.1,98,69.9,98,69.7,98c-0.2,0-0.3,0-0.4,0c-0.2,0-0.5,0-1,0l-0.1,0l0-0.1
				c0-0.3,0-0.8,0.1-1.5l0-0.1c0-0.1,0-0.2-0.1-0.3L68.1,96l0.2,0c0.5,0,0.9-0.1,1.1-0.1l0.1,0h0c0.1,0,0.2,0,0.2,0l0,0c0,0,0,0,0,0
				c0.1,0,0.1,0,0.1-0.1c0,0,0-0.1-0.1-0.1c-0.1,0-0.2,0-0.3,0c-0.1,0-0.1,0-0.2,0c-0.8,0-1.5,0.1-2,0.1l-0.2,0
				c-0.4,0-0.6,0.1-0.6,0l0,0l0,0l0,0l0,0c0.2,0.1,0.4,0.2,0.7,0.1c0.2,0,0.5,0,0.9-0.1l0.1,0l0,0.1c0,0.1,0,0.2,0,0.4v0
				c0,0.6-0.1,1.2,0,1.5l0,0.1l-0.1,0c-0.7,0-1.2,0.1-1.5,0.1C66.3,98.2,66.1,98.2,65.9,98.1L65.9,98.1z"/>
		</g>
		<g>
			<path class="st0" d="M79.7,95.9c0,0.1,0,0.1-0.1,0.2c-0.1,0.1-0.1,0.1-0.2,0.1c0,0-0.1,0-0.1,0c-0.4,0-0.8,0-1.3,0
				c-1.1,0-2,0-2.8,0.1c-0.2,0-0.4,0-0.5,0c-0.2,0-0.3,0-0.4-0.1c-0.1-0.1-0.2-0.3-0.3-0.6c0,0,0,0,0-0.1c0-0.1,0-0.1,0.1-0.1
				c0,0,0.1,0,0.1,0c0.2,0.2,0.6,0.4,1.2,0.4c0.2,0,0.6,0,1.2-0.1c0.6,0,1.5-0.1,2.9-0.1C79.6,95.7,79.7,95.8,79.7,95.9z"/>
			<path class="st0" d="M74.8,96.4c-0.2,0-0.4-0.1-0.5-0.2c-0.1-0.1-0.2-0.3-0.4-0.6c0,0,0-0.1,0-0.1c0-0.1,0.1-0.2,0.2-0.2
				c0,0,0.1,0,0.2,0.1c0.2,0.2,0.5,0.3,1.1,0.3c0.2,0,0.6,0,1.1-0.1c0.6,0,1.5-0.1,2.9-0.1c0.2,0,0.3,0.1,0.4,0.3
				c0,0.1,0,0.2-0.1,0.3c-0.1,0.1-0.3,0.1-0.4,0.1c-0.4,0-0.8,0-1.2,0c-1.1,0-2,0-2.8,0.1C75.1,96.4,74.9,96.4,74.8,96.4z
				 M74.2,95.5C74.2,95.5,74.1,95.5,74.2,95.5L74.2,95.5c0.1,0.4,0.2,0.5,0.3,0.6c0.1,0.1,0.2,0.1,0.4,0.1c0.1,0,0.2,0,0.5,0
				c0.8-0.1,1.7-0.2,2.8-0.2c0.4,0,0.8,0,1.3,0l0,0c0.1,0,0.2,0,0.2,0c0,0,0-0.1,0-0.1c0-0.1-0.1-0.2-0.2-0.2
				c-1.4,0-2.3,0.1-2.9,0.1c-0.6,0-0.9,0.1-1.2,0.1C74.8,95.9,74.4,95.8,74.2,95.5C74.2,95.5,74.2,95.5,74.2,95.5z"/>
		</g>
		<g>
			<path class="st0" d="M85.4,94.9c0,0,0,0.3-0.1,0.7c-0.1,0.8-0.3,1.3-0.6,1.8c-0.3,0.5-0.8,1-1.4,1.3c-0.1,0-0.1,0-0.2-0.1
				c-0.1-0.1,0-0.1,0-0.2c0.9-0.6,1.5-1.6,1.7-2.9c0.1-0.4,0.1-0.6,0.1-0.7c0-0.1-0.1-0.2-0.2-0.3c-0.1-0.1-0.1-0.1,0-0.2
				c0.1-0.1,0.1-0.1,0.2,0C85.2,94.5,85.4,94.7,85.4,94.9z M89.6,96.2c-0.5,0.6-1.1,1.2-1.8,1.6c-0.5,0.3-0.9,0.4-1.2,0.5
				c-0.1,0-0.3,0-0.3-0.1c0-0.1-0.1-0.1-0.1-0.2c0.1-0.2,0.1-0.4,0.1-0.5l0-2.8c0-0.2-0.1-0.3-0.2-0.4c-0.1-0.1-0.1-0.1,0-0.2
				c0,0,0.1-0.1,0.1-0.1c0.1,0,0.2,0.1,0.4,0.2c0.2,0.1,0.2,0.2,0.2,0.3c0,0,0,0.1,0,0.2c0,0.1,0,0.3-0.1,0.4c0,0.7,0,1.3,0,1.9
				c0,0.1,0,0.2,0,0.3c0,0,0,0.2,0,0.3c0.3-0.1,0.7-0.3,1.1-0.5c0.6-0.3,1.1-0.8,1.6-1.2c0.1-0.1,0.1-0.1,0.2,0
				C89.7,96,89.7,96.1,89.6,96.2z"/>
			<path class="st0" d="M83.1,98.8c-0.1,0-0.1,0-0.2-0.1c0-0.1-0.1-0.1,0-0.2c0-0.1,0.1-0.1,0.1-0.1c0.9-0.6,1.4-1.5,1.7-2.9
				c0.1-0.4,0.1-0.6,0.1-0.7c0-0.1,0-0.2-0.1-0.2c-0.1-0.1-0.1-0.2,0-0.3c0.1-0.1,0.1-0.1,0.2-0.1c0,0,0.1,0,0.1,0
				c0.4,0.2,0.5,0.5,0.5,0.7c0,0,0,0.1-0.1,0.7c-0.1,0.8-0.3,1.4-0.6,1.8c-0.3,0.6-0.8,1-1.5,1.4C83.2,98.8,83.2,98.8,83.1,98.8z
				 M84.8,94.4C84.8,94.4,84.8,94.4,84.8,94.4c-0.1,0.1-0.1,0.1,0,0.1c0.1,0.1,0.2,0.2,0.2,0.4c0,0.1,0,0.3-0.1,0.7
				c-0.2,1.4-0.8,2.4-1.7,3c0,0,0,0,0,0c0,0,0,0,0,0c0,0,0,0,0,0c0,0,0,0,0,0c0.6-0.3,1.1-0.8,1.4-1.3c0.2-0.4,0.4-1,0.6-1.7
				c0.1-0.5,0.1-0.7,0.1-0.7C85.3,94.8,85.1,94.6,84.8,94.4C84.8,94.4,84.8,94.4,84.8,94.4z M86.6,98.3c-0.1,0-0.2,0-0.3-0.1
				c-0.1-0.1-0.1-0.2-0.1-0.3c0-0.2,0.1-0.4,0.1-0.5l0-2.8c0-0.1,0-0.2-0.1-0.3c-0.1-0.1-0.1-0.2-0.1-0.3c0.1-0.1,0.1-0.1,0.2-0.1
				l0,0c0.1,0,0.3,0.1,0.4,0.2c0.2,0.2,0.3,0.3,0.3,0.4c0,0,0,0.1,0,0.2c0,0.1,0,0.3-0.1,0.4c0,0.7,0,1.3,0,1.9v0.3c0,0,0,0.1,0,0.2
				c0.3-0.1,0.6-0.2,0.9-0.4c0.6-0.3,1.1-0.7,1.5-1.2c0.1-0.1,0.2-0.1,0.3,0c0.1,0,0.1,0.1,0.1,0.2c0,0.1,0,0.1-0.1,0.2
				c-0.5,0.7-1.1,1.2-1.8,1.6C87.4,98.1,87,98.2,86.6,98.3C86.6,98.3,86.6,98.3,86.6,98.3z M86.3,94C86.3,94,86.2,94,86.3,94
				C86.2,94.1,86.2,94.1,86.3,94c0.1,0.2,0.2,0.3,0.2,0.5l0,2.8c0,0.1,0,0.3-0.1,0.5c0,0,0,0.1,0,0.1c0,0.1,0.1,0.1,0.3,0.1
				c0.3,0,0.7-0.2,1.2-0.5c0.7-0.4,1.2-0.9,1.8-1.5c0,0,0,0,0,0c0,0,0,0,0,0c0,0,0,0,0,0c0,0,0,0,0,0c-0.5,0.5-1,0.9-1.6,1.3
				c-0.4,0.2-0.8,0.4-1.1,0.5l-0.1,0l0-0.1c0-0.2,0-0.3,0-0.3l0-0.3c0-0.6,0-1.2,0-1.9c0-0.2,0-0.3,0.1-0.5c0-0.1,0-0.2,0-0.2
				c0,0,0-0.1-0.2-0.3C86.5,94.1,86.4,94,86.3,94L86.3,94z"/>
		</g>
	</g>
	<rect x="0.8" y="0.5" class="st0" width="1.5" height="17.8"/>
	<polygon class="st0" points="6.2,18.3 6.2,0.5 7.7,0.5 7.7,16.8 15.6,16.8 15.5,18.3 	"/>
	<polygon class="st0" points="18,18.3 18,0.5 19.5,0.5 19.5,16.8 27.3,16.8 27.2,18.3 	"/>
	<path class="st0" d="M29.2,12.2V0.5h1.5v11.7c0,3.5,1.3,4.9,4.3,4.9c2.9,0,4.2-1.5,4.2-4.9V0.5h1.5v11.7c0,4.2-1.9,6.4-5.8,6.4
		C31.2,18.6,29.2,16.4,29.2,12.2"/>
	<polygon class="st0" points="44.7,18.3 44.7,0.5 46.4,0.5 51.8,15.8 52,15.2 57.2,0.5 58.8,0.5 58.8,18.3 57.4,18.3 57.4,4.3 
		52.4,18.3 51.2,18.3 46.2,4.4 46.2,18.3 	"/>
	<rect x="63.4" y="0.5" class="st0" width="1.5" height="17.8"/>
	<polygon class="st0" points="69.6,18.3 69.6,0.5 71.1,0.5 79.4,15.2 79.4,15 79.4,0.5 80.8,0.5 80.8,18.3 79.6,18.3 71,3.3 71,3.6 
		71,18.3 	"/>
	<polygon class="st0" points="83.5,13.3 84,11.9 91,11.9 88.1,3.5 87.5,1.5 87.8,0.5 88.6,0.5 94.7,18.3 93.1,18.3 91.4,13.3 	"/>
</g>
</svg>
