<svg enable-background="new 0 0 96 100" height="100" viewBox="0 0 96 100" width="96" xmlns="http://www.w3.org/2000/svg"><g fill="#59498e"><path d="m33.4 73.7c0 2-.4 3.9-1.1 5.7-.8 1.8-1.8 3.4-3.1 4.8s-2.9 2.5-4.7 3.3-3.7 1.2-5.8 1.2c-1.8 0-3.5-.2-5.4-.7-1.8-.5-3.5-1.3-4.9-2.5-1.5-1.2-2.7-2.7-3.6-4.7-.9-1.9-1.4-4.4-1.4-7.4v-35.6c0-2.1.4-4.1 1.1-5.9s1.8-3.4 3.1-4.7 2.9-2.4 4.8-3.1c1.8-.8 3.9-1.1 6.1-1.1 2.1 0 4.1.4 5.9 1.1 1.8.8 3.4 1.8 4.7 3.2s2.4 3 3.1 4.9c.8 1.9 1.1 4 1.1 6.2v3.6h-9.3v-3.1c0-1.8-.5-3.4-1.5-4.7s-2.4-2-4.2-2c-2.3 0-3.8.7-4.6 2.1s-1.1 3.2-1.1 5.4v33.1c0 1.9.4 3.5 1.2 4.7.8 1.3 2.3 1.9 4.4 1.9.6 0 1.3-.1 2-.3s1.3-.6 1.9-1c.6-.5 1-1.2 1.4-2s.5-1.9.5-3.2v-3.2h9.3v4z"/><path d="m68.6 73.7c0 2-.4 3.9-1.1 5.7-.8 1.8-1.8 3.4-3.1 4.8s-2.9 2.5-4.7 3.3-3.7 1.2-5.8 1.2c-1.8 0-3.5-.2-5.4-.7-1.8-.5-3.5-1.3-4.9-2.5-1.5-1.2-2.7-2.7-3.6-4.7-.9-1.9-1.4-4.4-1.4-7.4v-35.6c0-2.1.4-4.1 1.1-5.9s1.8-3.4 3.1-4.7 2.9-2.4 4.8-3.1c1.8-.8 3.9-1.1 6.1-1.1 2.1 0 4.1.4 5.9 1.1 1.8.8 3.4 1.8 4.7 3.2s2.4 3 3.1 4.9c.8 1.9 1.1 4 1.1 6.2v3.6h-9.3v-3.1c0-1.8-.5-3.4-1.5-4.7s-2.4-2-4.2-2c-2.3 0-3.8.7-4.6 2.1s-1.1 3.2-1.1 5.4v33.1c0 1.9.4 3.5 1.2 4.7.8 1.3 2.3 1.9 4.4 1.9.6 0 1.3-.1 2-.3s1.3-.6 1.9-1c.6-.5 1-1.2 1.4-2s.5-1.9.5-3.2v-3.2h9.3v4z"/><path d="m65.1 65.5h-2.4l-3.9-18.3h2.9l2.2 12.8h.1l2.2-12.8h2.9z"/><path d="m70.7 47.2h8.2v2.5h-5.5v5.3h4.8v2.5h-4.8v5.4h5.5v2.6h-8.2z"/><path d="m80.8 47.2h2.8v18.3h-2.8z"/><path d="m86.3 47.2h2.7v15.7h6.2v2.6h-9v-18.3z"/><path d="m7.5 93.5c0 .1-.2.4-.5.7-.3.4-.8.8-1.4 1.2.3.2.5.4.5.5 0 .7 0 1.4-.1 2v1 .1c0 .1 0 .1-.1.2s-.1.1-.2.1c-.2 0-.3-.1-.3-.3 0-.4 0-.8 0-1.1v-2c0-.1-.1-.2-.2-.4-.9.7-1.8 1.2-2.7 1.6-.1 0-.2 0-.2-.1s0-.1.1-.2c.7-.4 1.4-.9 2.3-1.5.8-.6 1.4-1.1 1.7-1.5.2-.2.3-.3.3-.4 0 0 0-.1-.1-.2s-.1-.1-.1-.2.1-.1.2-.1c.2.1.3.1.4.2.3.2.4.3.4.4z"/><path d="m5.8 99.5c-.2 0-.3-.1-.4-.3 0-.4 0-.8 0-1.1v-2c0-.1-.1-.2-.2-.3-.9.7-1.8 1.2-2.7 1.5h-.1c-.1 0-.2 0-.2-.2-.1-.1 0-.2.1-.3.7-.4 1.4-.9 2.3-1.5.8-.6 1.4-1.1 1.7-1.5.2-.2.3-.3.3-.4 0 0 0 0-.1-.1-.2-.1-.1-.2-.1-.3h.4.1c.2.1.3.1.4.2.2.1.3.2.3.4 0 .1-.1.3-.5.8-.3.3-.7.7-1.3 1.1.2.1.4.3.4.5 0 .7 0 1.4-.1 2v1 .1c0 .1 0 .2-.1.2 0 .1-.1.2-.2.2zm-.5-4c.2.2.3.4.3.5v2 1.1c0 .1.1.2.2.2 0 0 .1 0 .1-.1 0 0 .1-.1.1-.1s0 0 0-.1c0-.2 0-.6 0-1 0-.7 0-1.3.1-2 0-.1-.1-.2-.4-.4l-.1-.1.1-.1c.6-.4 1-.8 1.4-1.2s.5-.6.5-.7-.1-.1-.2-.2c-.1 0-.2-.1-.3-.2s0 0 .1.1c-.2.2-.2.3-.3.3-.1.1-.2.3-.3.5-.3.4-.9.9-1.7 1.5-.9.7-1.7 1.2-2.3 1.5v.1c.8-.3 1.7-.8 2.7-1.6z"/><path d="m13.6 94.9s0 .3-.1.7c-.1.8-.3 1.3-.6 1.8s-.8 1-1.4 1.3c-.1 0-.1 0-.2-.1s0-.1 0-.2c.9-.6 1.5-1.6 1.7-2.9.1-.4.1-.6.1-.7s-.1-.2-.2-.3-.1-.1 0-.2.1-.1.2 0c.3.2.5.4.5.6zm4.3 1.3c-.5.6-1.1 1.2-1.8 1.6-.5.3-.9.4-1.2.5-.1 0-.3 0-.3-.1-.1-.1-.1-.1-.1-.2.1-.2.1-.4.1-.5v-2.8c0-.2-.1-.3-.2-.4s-.1-.1 0-.2c0 0 .1-.1.1-.1.1 0 .2.1.4.2s.2.2.2.3v.2c0 .1 0 .3-.1.4v1.9.3.3c.3-.1.7-.3 1.1-.5.6-.3 1.1-.8 1.6-1.2.1-.1.1-.1.2 0z"/><path d="m11.4 98.8c-.1 0-.1 0-.2-.1 0-.1-.1-.1 0-.2 0-.1.1-.1.1-.1.9-.6 1.4-1.5 1.7-2.9.1-.4.1-.6.1-.7s0-.2-.1-.2c-.1-.1-.1-.2 0-.3s.1-.1.2-.1h.1c.4.2.5.5.5.7 0 0 0 .1-.1.7-.1.8-.3 1.4-.6 1.8-.3.6-.8 1-1.5 1.4-.1 0-.2 0-.2 0zm1.6-4.4c-.1.1-.1.1 0 .1.1.1.2.2.2.4 0 .1 0 .3-.1.7-.2 1.4-.8 2.4-1.7 3 .6-.3 1.1-.8 1.4-1.3.2-.4.4-1 .6-1.7.1-.5.1-.7.1-.7 0-.1-.2-.3-.5-.5zm1.8 3.9c-.1 0-.2 0-.3-.1s-.1-.2-.1-.3c0-.2.1-.4.1-.5v-2.8c0-.1 0-.2-.1-.3s-.1-.2-.1-.3c.1-.1.1-.1.2-.1.1 0 .3.1.4.2.2.2.3.3.3.4v.2c0 .1 0 .3-.1.4v1.9.3.2c.3-.1.6-.2.9-.4.6-.3 1.1-.7 1.5-1.2.1-.1.2-.1.3 0 .2 0 .2.1.2.1 0 .1 0 .1-.1.2-.5.7-1.1 1.2-1.8 1.6-.5.3-.9.4-1.3.5zm-.3-4.3c-.1.1-.1.1 0 0 .1.2.2.3.2.5v2.8c0 .1 0 .3-.1.5v.1c0 .1.1.1.3.1.3 0 .7-.2 1.2-.5.6-.4 1.2-.9 1.8-1.5-.5.5-1 .9-1.6 1.3-.4.2-.8.4-1.1.5h-.1v-.1c0-.2 0-.3 0-.3v-.3c0-.6 0-1.2 0-1.9 0-.2 0-.3.1-.5 0-.1 0-.2 0-.2s0-.1-.2-.3c-.3-.1-.4-.2-.5-.2z"/><path d="m24.7 96.2v.2c0 .1-.1.1-.3.1s-.4.1-.5.2c-.1 0-.1 0-.2-.1 0-.1 0-.2.1-.2s.2-.1.3-.1c-.2-.2-.6-.5-1.2-.7-.1 0-.1-.1-.1-.1 0-.1.1-.1.2-.1.2 0 .5.1 1 .3.4.2.7.4.7.5zm.7 2.7c0 .1 0 .1-.1.2s-.1.1-.2.1-.2-.1-.3-.2c-.2-.1-.5-.3-.9-.5s-.7-.3-.9-.5c-.2-.1-.3-.3-.3-.5 0-.1 0-.1 0-.2s.1-.1.2-.1.1.1.1.2 0 .2.1.2c.1.1.4.2.7.4.6.2 1 .5 1.3.7.2 0 .3.1.3.2zm-.3-4.5c0 .1 0 .1-.1.2s-.1.1-.2.1-.2-.1-.2-.2c-.3-.3-.8-.5-1.4-.7-.1 0-.1-.1-.1-.1 0-.1 0-.1.1-.1.3 0 .7.1 1 .2s.6.3.8.5c.1 0 .1.1.1.1z"/><path d="m25.1 99.2c-.2 0-.3-.1-.3-.2-.2-.1-.5-.2-.9-.4s-.7-.3-.9-.5c-.2-.1-.3-.3-.3-.6 0-.1 0-.1 0-.2s.1-.2.3-.2c.1 0 .2.1.2.3v.1c.1.1.3.2.7.3.6.3 1.1.5 1.3.7.1.1.2.2.2.3s0 .2-.1.3c0 .1-.1.1-.2.1zm-2.2-1.9c-.1.1-.1.2-.1.2 0 .2.1.3.2.4.2.1.5.3.9.5s.7.4.9.5c0 .1.1.1.2.1 0 0 .1 0 .1-.1 0 0 .1-.1.1-.1 0-.1 0-.1-.1-.1-.3-.2-.7-.4-1.3-.7-.4-.2-.6-.3-.8-.4 0 0 0-.1-.1-.3.1 0 .1 0 0 0zm.9-.4c-.1 0-.1 0-.2-.1 0-.1-.1-.2.1-.3l.2-.1c-.2-.2-.6-.4-1.1-.6-.1 0-.2-.1-.2-.2s.1-.2.3-.2.6.1 1 .3c.6.2.9.4.9.7 0 .1 0 .2-.1.3s-.2.1-.3.2c-.2 0-.3.1-.5.1 0-.2-.1-.1-.1-.1zm-.9-1.4c-.1 0-.1 0 0 0-.1.1 0 .1 0 .1.6.2 1 .4 1.2.7l.1.1-.4.2c-.1.1-.1.1-.1.1h.1c.2-.1.4-.1.6-.2.1 0 .2-.1.2-.1s0-.1 0-.2-.1-.3-.8-.5c-.4-.1-.7-.2-.9-.2zm2-.7c-.2 0-.3-.1-.3-.2-.3-.3-.8-.5-1.3-.7-.1 0-.2-.1-.2-.2s.1-.2.2-.2c.3 0 .7.1 1 .2.4.1.6.3.8.5.1.1.1.2.1.3s0 .2-.1.2c0 0-.1.1-.2.1zm-1.6-1.2c-.1 0-.1 0 0 0-.1.1-.1.1 0 .1.6.2 1.1.4 1.4.7 0 .1.1.1.2.1s.1 0 .1-.1c0 0 .1-.1.1-.1s0-.1-.1-.1c-.2-.2-.4-.3-.8-.5-.3 0-.6-.1-.9-.1z"/><path d="m36.5 95.4c0 .1 0 .1-.1.2-.1 0-.1.1-.2.1-.6 0-1.3 0-2.2 0-.1 1-.2 1.7-.5 2.2s-.9 1-1.9 1.3c-.1 0-.2 0-.2-.1s0-.1.1-.2c.7-.4 1.2-.8 1.5-1.2s.4-1.1.5-2c-.6 0-1.1.1-1.5.1-.2 0-.3 0-.5 0-.3 0-.5-.1-.8-.2-.1 0-.1-.1-.1-.2s.1-.1.1-.1h1.3c.5 0 1-.1 1.4-.1 0-.3 0-.6 0-1 0-.2 0-.3 0-.3 0-.1-.1-.1-.3-.2-.1 0-.1-.1-.1-.2s.1-.1.2-.1c.3.1.5.2.6.3s.1.2.1.4v1.1c1 0 1.7-.1 2.1 0h.1c.3 0 .4.1.4.2z"/><path d="m31.6 99.3c-.1 0-.1 0-.2-.2-.1-.1 0-.2.1-.3.7-.4 1.2-.8 1.5-1.2s.4-1 .5-1.9c-.5 0-1 .1-1.4.1-.2 0-.3 0-.5 0-.3 0-.6-.1-.9-.2-.1-.1-.2-.2-.1-.3s.1-.1.2-.1h1.3c.5 0 .9-.1 1.3-.1 0-.3 0-.6 0-1 0-.2 0-.3 0-.3s-.1-.1-.2-.2-.1-.2-.1-.3.2-.2.2-.2h.1c.3.1.5.2.6.4.1.1.1.3.1.5v1h2 .1c.2 0 .3.1.3.3 0 .1 0 .2-.1.3s-.2.1-.3.1c-.6 0-1.3 0-2.1 0-.1 1-.2 1.7-.5 2.2s-1 1-1.9 1.4zm2-3.7v.1c-.1.9-.2 1.6-.5 2.1s-.8.9-1.6 1.2v.1c.9-.4 1.5-.8 1.8-1.3s.5-1.2.5-2.2v-.1h.1 2.2.1s.1-.1.1-.1c0-.1 0-.2-.2-.2 0 0 0 0-.1 0-.4 0-1.1 0-2.1 0h-.1v-.1c0-.5 0-.9 0-1.1s0-.3-.1-.3c-.1-.1-.2-.2-.6-.3 0 0 0 0-.1 0v.1c.2.1.3.2.3.3s.1.2.1.4v1 .1h-.1c-.4 0-.8 0-1.4.1-.7.1-1.1.1-1.4 0 0 0 0 0-.1 0v.1c.3.1.5.2.8.2h.4c.4-.1.9-.1 1.5-.1z"/><path d="m45.3 97.2c-.1.4-.4.8-.8 1-.4.3-.8.4-1.2.4-.1 0-.2 0-.3 0-.5-.1-1-.4-1.3-.8-.3-.5-.5-1-.5-1.7s.1-1.3.4-1.8.7-.8 1.3-.9c.2 0 .3-.1.5-.1.4 0 .8.1 1.1.3.1 0 .1 0 .1-.1s0-.1.1-.2c.1 0 .1 0 .2.1l.4 1c0 .1 0 .2-.1.2s-.1 0-.2-.1c-.2-.3-.4-.5-.7-.7s-.6-.3-1-.3c-.1 0-.1 0-.2 0-.4 0-.7.3-1 .7s-.4.9-.4 1.6v.4c.1.6.2 1 .5 1.4s.7.7 1.2.7c.3 0 .7-.1.9-.3.3-.2.5-.5.6-.8 0-.1.1-.1.2-.1.2 0 .2.1.2.1z"/><path d="m43.2 98.7c-.1 0-.2 0-.4 0-.6-.1-1-.4-1.4-.9-.3-.5-.5-1.1-.5-1.8s.1-1.4.5-1.9c.3-.5.8-.8 1.3-1 .2 0 .3-.1.5-.1.4 0 .8.1 1.2.3 0-.1 0-.2.2-.2h.1c.1 0 .2 0 .2.2l.4 1c.1.1 0 .3-.1.3h-.1c-.1 0-.1 0-.2-.1-.2-.3-.4-.5-.6-.7-.3-.2-.7-.3-1.1-.3s-.7.3-.9.7-.4.9-.4 1.5v.4c.1.5.2 1 .5 1.3.3.4.7.6 1.2.6.3 0 .6-.1.9-.3s.5-.5.6-.8c-.1.1 0 .1 0 .1h.1c.1.1.2.2.1.3-.2.4-.4.8-.8 1-.4.3-.8.4-1.3.4zm.1-5.3c-.2 0-.3 0-.5.1-.5.1-.9.4-1.2.9s-.4 1.1-.4 1.8.2 1.3.5 1.7.7.7 1.2.8h.3c.4 0 .8-.1 1.2-.4.4-.2.6-.6.8-1 0-.1 0-.1 0-.1-.1.3-.4.6-.7.9-.3.2-.6.3-1 .3-.5 0-1-.2-1.3-.7-.3-.4-.4-.8-.5-1.4 0-.1 0-.3 0-.4 0-.6.1-1.2.4-1.6s.6-.7 1.1-.7h.2c.4 0 .7.1 1 .3s.5.4.7.7 0 0 0-.1l-.4-1c-.1 0 0 0 0 0v.2s-.1.1-.1.1h-.1c-.5-.3-.8-.4-1.2-.4z"/><path d="m52.8 97.2c-.1.4-.4.8-.8 1-.4.3-.8.4-1.2.4-.1 0-.2 0-.3 0-.5-.1-1-.4-1.3-.8-.3-.5-.5-1-.5-1.7s.1-1.3.4-1.8.7-.8 1.3-.9c.2 0 .3-.1.5-.1.4 0 .8.1 1.1.3.1 0 .1 0 .1-.1s0-.1.1-.2c.1 0 .2 0 .2.1l.4 1c0 .1 0 .2-.1.2s-.1 0-.2-.1c-.2-.3-.4-.5-.7-.7s-.6-.3-1-.3c-.1 0-.1 0-.2 0-.4 0-.7.3-1 .7s-.4.9-.4 1.6v.4c.1.6.2 1 .5 1.4s.7.7 1.2.7c.3 0 .7-.1.9-.3.3-.2.5-.5.6-.8 0-.1.1-.1.2-.1.2 0 .2.1.2.1z"/><path d="m50.8 98.7c-.1 0-.2 0-.4 0-.6-.1-1-.4-1.4-.9-.3-.5-.5-1.1-.5-1.8s.1-1.4.5-1.9c.3-.5.8-.8 1.3-1 .2 0 .3-.1.5-.1.4 0 .8.1 1.2.3 0-.1 0-.2.2-.2h.1c.1 0 .2 0 .2.2l.4 1c.1.1 0 .3-.1.3h-.1c-.1 0-.1 0-.2-.1-.2-.3-.4-.5-.6-.7-.3-.2-.7-.3-1.1-.3s-.7.3-.9.7-.4.9-.4 1.5v.4c.1.5.2 1 .5 1.3.3.4.7.6 1.2.6.3 0 .6-.1.9-.3s.5-.5.6-.8c.1-.1.2-.2.2-.2h.1c.1.1.2.2.1.3-.2.4-.4.8-.8 1-.6.6-1.1.7-1.5.7zm0-5.3c-.2 0-.3 0-.5.1-.5.1-.9.4-1.2.9s-.4 1.1-.4 1.8.2 1.3.5 1.7.7.7 1.2.8h.3c.4 0 .8-.1 1.2-.4.4-.2.6-.6.8-1 0-.1 0-.1 0-.1-.1.3-.4.6-.7.9-.3.2-.6.3-1 .3-.5 0-1-.2-1.3-.7-.3-.4-.4-.8-.5-1.4 0-.1 0-.3 0-.4 0-.6.1-1.2.4-1.6s.6-.7 1.1-.7h.2c.4 0 .7.1 1 .3s.5.4.7.7 0 0 0-.1l-.4-1c-.1 0 0 0 0 0v.2s-.1.1-.1.1h-.1c-.4-.3-.8-.4-1.2-.4z"/><path d="m62 94.8c0 .1 0 .2-.1.3s-.1.2-.1.2c-.3 1-.7 1.9-1.2 2.5s-1.1 1.1-2 1.5c-.1 0-.2 0-.2-.1s0-.1.1-.2c1.4-.8 2.3-2.1 2.8-3.9 0-.1 0-.1-.1-.1h-.2c-.2 0-.3 0-.3 0-.4 0-.8 0-1.3.1-.8.1-1.3.1-1.3.1-.2 0-.3 0-.4 0v.1.4.8.1c0 .1 0 .1-.1.2 0 0-.1.1-.2.1-.2 0-.2-.1-.3-.3 0-.1 0-.4 0-.8 0-.1 0-.3 0-.5s0-.3-.1-.3-.1-.1-.1-.2.1-.1.2-.1.1.1.2.1c.2 0 .5 0 .9-.1.5-.1.8-.1.9-.1 0-.4 0-.7 0-.8 0-.2 0-.3-.1-.4-.1 0-.1-.1-.1-.2s.1-.1.2-.1c.3.1.5.3.5.5v.2c0 .1-.1.3-.1.8h1.3c.1 0 .3 0 .4-.1h.5c.2.2.3.3.3.3zm-.1-1v.1c0 .2-.1.2-.2.2-.2 0-.2-.1-.2-.2-.1-.2-.3-.4-.5-.5 0 0-.1-.1 0-.1 0-.1.1-.1.2-.1.3.1.6.3.7.6zm1-.4s0 .1 0 0c0 .2 0 .2-.1.3s-.1.1-.2.1c-.2 0-.2-.1-.2-.3-.1-.2-.3-.4-.6-.6-.1 0-.1-.1 0-.1 0-.1.1-.1.2-.1.4.2.7.4.9.7z"/><path d="m58.6 99.4c-.1 0-.1 0-.2-.1s0-.2.1-.3c1.4-.8 2.3-2.1 2.7-3.8h-.4c-.1 0-.1 0-.1 0-.3 0-.8 0-1.3.1-.8.1-1.2.1-1.3.1s-.2 0-.3 0v.5.8.1c0 .1 0 .2-.1.2s-.1 0-.2 0c-.2 0-.3-.1-.3-.3 0-.1 0-.4 0-.8 0-.1 0-.3 0-.5s-.1-.3-.1-.3c-.1-.1-.1-.2-.1-.3s.1-.2.3-.2c.1 0 .1.1.2.1.2 0 .5 0 .8-.1.4 0 .7-.1.8-.1 0-.4 0-.6 0-.8s0-.3-.1-.3c-.1-.1-.1-.2-.1-.3.1-.1.1-.1.2-.1h.1c.3.2.5.3.6.5 0 .1 0 .2-.1.3 0 0 0 .1-.1.6h1.2c.1 0 .3 0 .4-.1.2-.1.4 0 .6.1.1.1.2.2.2.3s0 .2-.1.3c-.1.2-.1.2-.1.2-.3 1.1-.7 1.9-1.2 2.5s-1.2 1.1-2 1.5c.1.2 0 .2 0 .2zm2.7-4.4c.1 0 .1 0 .1.1.1.1 0 .2 0 .2-.5 1.7-1.4 3.1-2.8 3.9v.1c.8-.4 1.5-.9 1.9-1.5.5-.6.9-1.4 1.2-2.5 0 0 0 0 .1-.3 0-.1.1-.1 0-.2 0-.1-.1-.1-.2-.2s-.3-.1-.4 0c-.1 0-.3.1-.5.1-.4 0-.8 0-1.3 0h-.1v-.1c0-.6.1-.8.1-.8 0-.1 0-.1 0-.1 0-.1-.2-.3-.5-.4v.1c.1.1.2.2.2.5v.8.1h-.1c-.1 0-.4 0-.9.1-.4 0-.7.1-.9.1-.1 0-.1-.1-.2-.1h-.1v.1c.1.1.2.2.2.4v.5.8c0 .1.1.2.2.2h.1v-.1c0-.3 0-.6 0-.8v-.4-.1-.1h.1.4c.1 0 .5 0 1.3-.1.5-.1 1-.1 1.3-.1h.2zm.5-.7c-.1 0-.2 0-.3-.1 0-.1-.1-.1-.1-.2-.1-.2-.3-.3-.5-.5-.1-.1-.1-.1-.1-.2s.1-.1.2-.1h.1c.4.2.7.4.9.7 0 .1.1.1.1.2 0 0-.1.2-.3.2zm-.7-1.1s0 .1 0 0c-.1.1-.1.1 0 0 .2.2.4.4.5.6v.1h.1v.1-.1c.1 0 .1 0 .1-.1v-.1c-.1-.1-.4-.3-.7-.5zm1.5.6c-.2 0-.3-.1-.3-.3-.1-.2-.3-.4-.5-.5-.1-.1-.1-.2-.1-.3s.1-.1.2-.1h.1c.5.2.8.4 1 .7v.1c0 .1 0 .2-.1.2-.1.2-.2.2-.3.2zm-.8-1c.1 0 .1 0 0 0 .4.3.6.5.7.7 0 .1 0 .2.1.2h.1v-.1s0 0 0-.1c-.1-.3-.4-.5-.9-.6.1-.1.1-.1 0-.1z"/><path d="m70.4 98.2c0 .1-.1.2-.2.2h-.1c-.1 0-.3 0-.7 0h-.1c-.3 0-.8 0-1.4 0-.7 0-1.1.1-1.4.1-.1 0-.1 0-.2 0-.2 0-.4-.1-.6-.2v-.1c0-.1.1-.1.1 0 .1.1.3.1.5 0 .3 0 .8-.1 1.5-.1 0-.4 0-.9 0-1.5 0-.2 0-.3 0-.4-.4 0-.7.1-.9.1-.1 0-.2 0-.2 0-.2 0-.3-.1-.5-.2-.1 0-.1-.1 0-.2 0 0 .1-.1.1 0h.6.2c.5-.1 1.2-.1 2-.1h.1.4c.1 0 .1.1.1.2s-.1.2-.2.2h-.1c-.1 0-.1 0-.2 0-.2 0-.6 0-1.2.1.1.1.1.3.1.4v.1c0 .6-.1 1.1-.1 1.5h1 .4c.2 0 .4 0 .6.1.4-.3.4-.3.4-.2z"/><path d="m66.4 98.5c-.2 0-.5-.1-.6-.3-.1-.1-.1-.2 0-.2.1-.1.1-.1.2-.1h.1c.1 0 .3.1.5 0 .3 0 .8-.1 1.4-.1 0-.4 0-.8 0-1.4 0-.1 0-.2 0-.3-.3 0-.6 0-.8.1-.1 0-.2 0-.2 0-.2 0-.4-.1-.5-.2-.1 0-.1-.1-.1-.1 0-.1 0-.1 0-.2s.1-.1.2-.1h.1.1.5.2c.5-.1 1.2-.1 2-.1h.1.4c.1 0 .2.1.2.2 0 .2-.1.3-.3.3h-.1c-.1 0-.1 0-.2 0h-.1c-.2 0-.5 0-.9 0 0 .1.1.2.1.3v.1c0 .6-.1 1-.1 1.4h.9.4c.2 0 .4 0 .7.1.1 0 .2.1.2.3s-.1.3-.3.3h-.1c-.1 0-.3 0-.7 0h-.1c-.3 0-.8 0-1.4 0s-1.1.1-1.4.1c-.3-.1-.3-.1-.4-.1zm-.5-.4c.2.2.4.3.6.2.3 0 .7-.1 1.4-.1h1.4.1.7c.1 0 .1 0 .1-.1 0 0 0-.1-.1-.1 0 0-.2 0-.4 0s-.3 0-.4 0c-.2 0-.5 0-1 0h-.1v-.1c0-.3 0-.8.1-1.5v-.1c0-.1 0-.2-.1-.3h-.1.2c.5 0 .9-.1 1.1-.1h.1.2c.1 0 .1 0 .1-.1 0 0 0-.1-.1-.1s-.2 0-.3 0-.1 0-.2 0c-.8 0-1.5.1-2 .1h-.2c-.4 0-.6.1-.6 0 .2.1.4.2.7.1.2 0 .5 0 .9-.1h.1v.1.4c0 .6-.1 1.2 0 1.5v.1h-.1c-.7 0-1.2.1-1.5.1-.2.2-.4.2-.6.1z"/><path d="m79.7 95.9c0 .1 0 .1-.1.2s-.1.1-.2.1h-.1c-.4 0-.8 0-1.3 0-1.1 0-2 0-2.8.1-.2 0-.4 0-.5 0-.2 0-.3 0-.4-.1s-.2-.3-.3-.6c0 0 0 0 0-.1s0-.1.1-.1h.1c.2.2.6.4 1.2.4.2 0 .6 0 1.2-.1.6 0 1.5-.1 2.9-.1.1.1.2.2.2.3z"/><path d="m74.8 96.4c-.2 0-.4-.1-.5-.2s-.2-.3-.4-.6v-.1c0-.1.1-.2.2-.2 0 0 .1 0 .2.1.2.2.5.3 1.1.3.2 0 .6 0 1.1-.1.6 0 1.5-.1 2.9-.1.2 0 .3.1.4.3 0 .1 0 .2-.1.3s-.3.1-.4.1c-.4 0-.8 0-1.2 0-1.1 0-2 0-2.8.1-.2.1-.4.1-.5.1zm-.6-.9c.1.4.2.5.3.6s.2.1.4.1h.5c.8-.1 1.7-.2 2.8-.2h1.3.2v-.1c0-.1-.1-.2-.2-.2-1.4 0-2.3.1-2.9.1s-.9.1-1.2.1c-.6 0-1-.1-1.2-.4z"/><path d="m85.4 94.9s0 .3-.1.7c-.1.8-.3 1.3-.6 1.8s-.8 1-1.4 1.3c-.1 0-.1 0-.2-.1s0-.1 0-.2c.9-.6 1.5-1.6 1.7-2.9.1-.4.1-.6.1-.7s-.1-.2-.2-.3-.1-.1 0-.2.1-.1.2 0c.3.2.5.4.5.6zm4.2 1.3c-.5.6-1.1 1.2-1.8 1.6-.5.3-.9.4-1.2.5-.1 0-.3 0-.3-.1s-.1-.1-.1-.2c.1-.2.1-.4.1-.5v-2.8c0-.2-.1-.3-.2-.4s-.1-.1 0-.2c0 0 .1-.1.1-.1.1 0 .2.1.4.2s.2.2.2.3v.2c0 .1 0 .3-.1.4v1.9.3.3c.3-.1.7-.3 1.1-.5.6-.3 1.1-.8 1.6-1.2.1-.1.1-.1.2 0s.1.2 0 .3z"/><path d="m83.1 98.8c-.1 0-.1 0-.2-.1 0-.1-.1-.1 0-.2 0-.1.1-.1.1-.1.9-.6 1.4-1.5 1.7-2.9.1-.4.1-.6.1-.7s0-.2-.1-.2c-.1-.1-.1-.2 0-.3s.1-.1.2-.1h.1c.4.2.5.5.5.7 0 0 0 .1-.1.7-.1.8-.3 1.4-.6 1.8-.3.6-.8 1-1.5 1.4-.1 0-.1 0-.2 0zm1.7-4.4c-.1.1-.1.1 0 .1.1.1.2.2.2.4 0 .1 0 .3-.1.7-.2 1.4-.8 2.4-1.7 3 .6-.3 1.1-.8 1.4-1.3.2-.4.4-1 .6-1.7.1-.5.1-.7.1-.7 0-.1-.2-.3-.5-.5zm1.8 3.9c-.1 0-.2 0-.3-.1s-.1-.2-.1-.3c0-.2.1-.4.1-.5v-2.8c0-.1 0-.2-.1-.3s-.1-.2-.1-.3c.1-.1.1-.1.2-.1.1 0 .3.1.4.2.2.2.3.3.3.4v.2c0 .1 0 .3-.1.4v1.9.3.2c.3-.1.6-.2.9-.4.6-.3 1.1-.7 1.5-1.2.1-.1.2-.1.3 0 .1 0 .1.1.1.2s0 .1-.1.2c-.5.7-1.1 1.2-1.8 1.6-.4.2-.8.3-1.2.4zm-.3-4.3c-.1.1-.1.1 0 0 .1.2.2.3.2.5v2.8c0 .1 0 .3-.1.5v.1c0 .1.1.1.3.1.3 0 .7-.2 1.2-.5.7-.4 1.2-.9 1.8-1.5-.5.5-1 .9-1.6 1.3-.4.2-.8.4-1.1.5h-.1v-.1c0-.2 0-.3 0-.3v-.3c0-.6 0-1.2 0-1.9 0-.2 0-.3.1-.5 0-.1 0-.2 0-.2s0-.1-.2-.3c-.3-.1-.4-.2-.5-.2z"/><path d="m.8.5h1.5v17.8h-1.5z"/><path d="m6.2 18.3v-17.8h1.5v16.3h7.9l-.1 1.5z"/><path d="m18 18.3v-17.8h1.5v16.3h7.8l-.1 1.5z"/><path d="m29.2 12.2v-11.7h1.5v11.7c0 3.5 1.3 4.9 4.3 4.9 2.9 0 4.2-1.5 4.2-4.9v-11.7h1.5v11.7c0 4.2-1.9 6.4-5.8 6.4-3.7 0-5.7-2.2-5.7-6.4"/><path d="m44.7 18.3v-17.8h1.7l5.4 15.3.2-.6 5.2-14.7h1.6v17.8h-1.4v-14l-5 14h-1.2l-5-13.9v13.9z"/><path d="m63.4.5h1.5v17.8h-1.5z"/><path d="m69.6 18.3v-17.8h1.5l8.3 14.7v-.2-14.5h1.4v17.8h-1.2l-8.6-15v.3 14.7z"/><path d="m83.5 13.3.5-1.4h7l-2.9-8.4-.6-2 .3-1h.8l6.1 17.8h-1.6l-1.7-5z"/></g></svg>