<svg height="142" viewBox="0 0 560 142" width="560" xmlns="http://www.w3.org/2000/svg" xmlns:xlink="http://www.w3.org/1999/xlink"><mask id="a" fill="#fff"><path d="m0 142h560v-142h-560z" fill="#fff" fill-rule="evenodd"/></mask><g fill="#fff" fill-rule="evenodd"><path d="m124.473727 51.6166073c.315725 0 12.279524 5.745751 12.279524 12.7112623 0 3.3684483-2.32609 4.5954432-3.804861 4.5954432-2.097006 0-2.561049-1.3789223-3.340818-6.126293-.070487-.6134975-1.007385-5.4346615-5.047204-10.1096858-.242301-.2315085-.547747-.6916316-.472854-.8392182.083704-.2315085.230553-.2315085.386213-.2315085zm-17.407496.3024079c1.170388 0 11.112074 5.2089407 11.112074 12.1006587 0 3.9052586-2.794539 4.219242-3.257114 4.219242-1.948688 0-2.801881-1.9924198-3.113202-3.3771299-1.235001-4.8240579-2.406857-9.8767304-4.662459-11.9487313-.079299-.0708994-.540405-.5281287-.540405-.6858438.076361-.1504805.152723-.3081957.461106-.3081957zm1.794496-44.40766653c-2.334901 0-2.334901.68584386-2.334901 6.27532663 0 1.9953137 1.710793 1.9953137 2.252666 1.9953137h12.903633c2.330496 0 2.330496-1.225548 2.330496-3.6795379 0-3.51748187 0-4.59110243-2.330496-4.59110243zm12.583502 18.91713633c2.18071 0 2.494967-.6901846 2.494967-5.1351473 0-2.3744089 0-3.5218227-2.420074-3.5218227h-12.74063c-2.406857 0-2.406857.9216931-2.406857 4.5158622 0 3.2917611 0 4.1411078 2.406857 4.1411078zm-32.5535145 25.3386028c1.9295975 0 10.6348138 4.9788792 10.6348138 12.0210776 0 3.2165209-2.3216847 4.058633-3.4157107 4.058633-1.8620469 0-2.5639858-1.7551236-2.8679635-3.5999568-1.0161959-5.967131-1.4009407-8.1910593-3.2644561-10.6349206-.161534-.2372962-1.4846447-1.226995-1.4846447-1.5351906 0-.2286146.2393641-.3096426.3979612-.3096426zm9.5495988-35.9850988c2.3304957 0 2.3304957-.9940395 2.3304957-4.6735774 0-2.37151494 0-3.59706293-2.3304957-3.59706293h-12.7391619c-2.3363697 0-2.3363697.91735233-2.3363697 4.75026453 0 2.2210345 0 3.5203758 2.3363697 3.5203758zm.2408325 10.646496c2.1630882 0 2.1630882-1.004168 2.1630882-4.2134542 0-3.296102 0-4.4435158-2.2438552-4.4435158h-13.0578245c-2.2570711 0-2.2570711.9216931-2.2570711 5.0541194 0 2.370068 0 3.6028506 2.1792411 3.6028506zm-29.3771681 22.8195012c-.2290846-.3110895-.3039777-.3906706-.3039777-.542598 0-.1490336.0748931-.1490336.2232107-.1490336.3950241 0 2.0191755.1490336 2.4112627.1490336 6.9841445.3024079 8.3145976.3863298 10.6421563.3863298h15.925788c2.5008403 0 2.5008403-.6916316 2.5008403-6.4330418 0-2.3744088-.547747-2.7592917-2.3349008-2.7592917h-11.8903739c-6.8372955 0-8.8638134.0766872-9.6347713.1533744-.2364271 0-1.6329624.2315085-1.8708579.2315085-.2305532 0-.3832763-.2315085-.6990019-.5339165l-1.4773022-1.766699c-.3083832-.302408-.3083832-.3790952-.3083832-.4601231 0-.1475867.0734246-.2315085.2305531-.2315085.5477473 0 2.9546045.3125364 3.4230532.3125364 3.8077979.1504806 7.2235086.2300616 10.7199864.2300616h11.5070977c2.4024518 0 2.4758768-.8348775 2.4758768-5.3666559 0-3.2078393 0-3.9732642-2.2438552-3.9732642h-13.1356545c-.9310235 0-1.6285568 0-2.1792411 1.3774754-.5374678 1.2950006-1.3142997 3.1325991-4.2703726 3.1325991-1.7886224 0-2.0221125-.9896987-2.0221125-1.9866321 0-.6091567.2334901-3.0645935.2334901-3.5218227.3876817-7.5052154.4684487-11.6463233.4684487-12.4030666 0-2.6768168-.080767-7.28238854-.4684487-9.64522193-.0763616-.46446388-.6931279-2.53067703-.6931279-2.91411295 0-.45722924.3098517-.53391642.6931279-.53391642.7709579 0 3.8092664 1.29210668 6.9151254 2.59868265 1.4773023.61494439 3.2615192.9260339 5.0560155.9260339h31.4756419c1.552196 0 2.164556-.07668718 3.414243-.76976568.472854-.22861462 2.333432-1.83759853 2.803349-1.83759853 1.634431 0 5.583204 3.29031422 5.583204 4.520203 0 .53391642-.458169.99114566-1.706387 1.75512364-.766552.53681028-.766552.7654249-.923681 2.83453192-.163002 2.5292301-.163002 7.2708131-.163002 8.7322103 0 1.4556096.163002 7.5790088.085172 8.881244-.085172 1.3774754-.550684 2.9821185-3.888565 2.9821185-2.171898 0-2.408325-.6872908-2.561048-2.2137998-.158597-1.6118778-.700471-1.9142857-2.412732-1.9142857h-12.200225c-2.411263 0-2.411263 1.2197603-2.411263 3.8256776 0 4.9716445 0 5.5142425 2.486156 5.5142425h11.965267c3.653606 0 4.045693 0 4.976717-1.2298888 1.709324-2.4438613 1.938408-2.6768167 2.644753-2.6768167 1.171856 0 6.680167 4.0557391 6.680167 4.8978512 0 1.0736205-1.555133 1.0736205-4.194012 1.0736205h-22.147785c-.782706 0-2.331964 0-2.331964 1.9924198 0 6.7397906 0 7.1999137 2.561049 7.1999137h15.15483c3.497946 0 3.72703-.1548213 4.354076-.6916316.537468-.5368103 2.644753-3.6057445 3.262988-3.6057445.847319 0 6.295422 4.7560522 6.295422 5.443343 0 .6916316-.70047.8507937-4.201354.8507937h-51.9111665c-2.4097942 0-2.6418158 0-2.6418158.5281287 0 .079581.3950241 1.2964474.4699172 1.4527157.3083832.8450059.5404048 2.3758557.5404048 3.5999568 0 4.8240579-2.7211144 12.3307202-7.7683189 12.3307202-1.5492583 0-2.5625173-1.0750675-2.5625173-2.3744088 0-1.3036821.5404048-1.9866321 2.7167089-4.1309794 2.6462213-2.6059173 5.5141848-6.6674441 5.5141848-9.9563114 0-1.3760285-.4611063-1.3760285-1.1630451-1.3760285-.768021 0-4.8166515.3038549-5.5215273.3038549-.2290846 0-.4596377-.2344024-.6960648-.4601231z"/><path d="m217.267766 11.9685159c.539863 0 5.216219 3.0220897 5.216219 3.7097245 0 .6160975-.228008.6160975-2.099139.932906-.235362 0-17.515373 6.7172147-21.016388 6.7172147-.157398 0-.316268 0-.316268-.1532945 0-.1576742.860544-.6175574 1.322442-.848229 6.306241-3.0162498 14.793996-7.2646947 16.426822-10.1159705.157399-.2423512.319211-.2423512.466312-.2423512zm-3.734906-9.9685159c.079434 0 4.669001 3.71848419 4.669001 4.10245017 0 .6160975-.536921.69347467-1.704907.84676908-.473666 0-7.322711 3.01624984-8.723117 3.55643015-4.049704 1.4628665-10.277981 3.2440015-10.894336 3.2440015-.160341 0-.31921 0-.31921-.1591342 0-.2248318 3.202399-2.0074267 3.814341-2.3154754 10.126466-5.4032627 11.601894-7.48952651 12.462438-8.80493847.23242-.30512886.385405-.47010283.69579-.47010283zm8.795197 20.3268376c.548689.4598832 4.212986 3.3169989 4.212986 3.5476705 0 .4715627-.709029.54748-1.326855.6248571-1.325384.1518345-6.694588 2.8541958-7.787552 3.3199188-10.663387 4.4761965-20.866345 6.4150057-21.253222 6.4150057-.155928 0-.39129-.083217-.39129-.3109686 0-.2306716 1.097377-.5387204 1.476899-.6978546 1.250362-.3854259 20.405917-8.4983496 22.58449-12.6679573.080906-.1562143.386877-1.2365748.470725-1.3110321.311855-.2335915.539862-.0788371 2.013819 1.0803605zm-36.822442 29.1259363c-.691377 0-1.479841 0-1.479841.6131776 0 .9329059 7.715472 6.8004316 9.426263 6.8004316 1.635768 0 7.316827-5.4835597 7.316827-6.8004316 0-.6131776-.463369-.6131776-1.006174-.6131776zm1.244478-26.7330837c.85466 0 1.484254 0 2.112377-.4584232.460428-.3883458 2.640472-2.7826584 3.030291-2.7826584s5.214747 3.0921671 5.214747 4.1652279c0 1.0832804-.620768 1.1635775-4.748435 1.1635775h-19.151142c-.073551 0-.308913 0-.308913.0802971 0 .1503745 1.244478 1.2336549 1.244478 1.5387838 0 .3883458-.157398.4657229-1.63871 1.0102831-.622239.2306715-3.190631 3.7009648-3.190631 4.4017392 0 .5431002.625181.5431002 1.095906.5431002 1.320971 0 10.657502-1.5490035 12.612481-1.7825949.313326-.0744573.932623-.0744573.932623-.6190174 0-.6160975-1.794638-1.6964581-3.498073-2.7038213-.239775-.1562143-1.649008-.6204773-1.649008-.9226863 0-.5387203.791406-.5387203 1.175341-.5387203 2.569863 0 10.970829 2.2351784 10.970829 6.4120858 0 1.4657865-.929682 2.4687699-2.091784 2.4687699-.78405 0-1.023826-.2306716-2.505138-2.2410182-.533978-.6978545-1.076783-.6978545-1.39158-.6978545-1.010587 0-19.848402 5.1769709-20.163199 5.3375651-.313327.1562142-1.634298 1.3854894-2.024117 1.3854894-.550159 0-.85613-.7752317-1.013529-1.0832805-.236833-.6219373-2.10208-3.5447505-2.10208-4.325822 0-.4584233.236833-.6160975.625181-.6160975.23242 0 4.201218.2350514 4.979385.2350514 1.403348 0 1.946153-.4628031 2.256537-1.477466.707558-2.0015869 1.091493-4.3199823 1.091493-4.9419195 0-1.0015235-.383935-1.4628666-1.401877-1.4628666-1.318029 0-5.207393.0802971-6.463639.2306716-.151515 0-.850247.1576742-1.006174.1576742-.310384 0-.467783-.2365114-.7105-.5445601l-1.551921-1.7738352c-.235362-.3065888-.310384-.3912657-.310384-.54748 0-.1518345.157398-.1518345.310384-.1518345 1.17387 0 7.240335.465723 8.576016.465723 1.466602 0 1.466602-.3138885 1.466602-4.7944649 0-2.1607211-.150044-12.73949472-.150044-15.21994413 0-.69055478.079435-.92706614.305971-.92706614.464841 0 2.182986 1.15919766 2.574276 1.39424908 1.160631.62193728 1.865247.62193728 3.187689.62193728h8.328886c2.571334 0 2.883189 0 3.271537-.23651136.547218-.38542592 2.959682-2.47314967 3.271537-2.47314967.233891 0 5.138255 2.86295544 5.138255 3.78710168 0 1.00444332-.859073 1.00444332-2.806697 1.00444332h-16.738677c-1.085609 0-1.863776.07299733-1.863776 1.85559223 0 1.77383521.461899 2.00742671 1.943211 2.00742671h5.917892c2.256537 0 2.491899 0 2.959682-.3883458.39129-.3868859 2.10208-2.47460966 2.641943-2.47460966.397174 0 4.518957 3.01916976 4.518957 3.86009906 0 1.0161228-.929681 1.0161228-2.419819 1.0161228h-14.004061c-1.401877 0-1.63871.6934747-1.63871 2.1548813 0 1.2409547.080905 2.0877238 1.709319 2.0877238h5.69724c.925268 0 2.244769 0 2.636059-.1503745.548688-.2335915 2.412464-2.7067412 3.037645-2.7067412.310384 0 4.520429 3.0907072 4.520429 3.8644789 0 1.0029834-1.015001 1.0029834-2.496313 1.0029834h-13.312683c-.698732 0-1.710791 0-1.710791 1.5490034 0 2.6206043 0 3.2410816 1.710791 3.2410816zm12.850785 24.725657c.704617 0 1.017943 0 1.788754-.3080487.39129-.1620541 2.178573-1.7052178 2.72432-1.7052178 1.092964 0 5.607508 4.2542847 5.607508 5.175511 0 .3109687-.158869.6248572-.467782.7752317-.467783.1562143-2.649298.5387203-3.112668.7781516-.39129.2262917-4.518957 3.8586391-5.372146 4.5550336-.622239.4613432-2.181515 1.6964581-2.181515 2.1607211 0 1.4701663 11.134111 3.55935 18.371504 3.55935 1.560747 0 4.513073-.1547543 6.304769-.2350514.313327 0 1.950566-.3080487 2.26095-.3080487.229478 0 .466312.0773771.466312.3080487 0 .382506-.700203.5387203-.938508.6160975-2.409522.5416402-4.738138 2.246858-5.835515 3.5564301-1.551921 1.9329694-1.790225 2.1607211-2.571334 2.1607211-3.88495 0-12.218249-1.7767551-16.578337-3.6265075-.938507-.3825061-5.217689-2.6264441-6.157668-2.6264441-.767869 0-1.395993.383966-2.090312.7635521-9.033502 5.0309763-18.998156 5.9551225-20.00433 5.9551225-.166225 0-.789935 0-.789935-.3124286 0-.3810461.241247-.3810461 1.640182-.7693919 2.956739-.7723118 7.705175-2.8541957 13.077321-5.7171512 3.423052-1.8541323 3.820226-2.0906436 3.820226-3.0074902 0-.4701028-.31774-.6993144-.467783-.9329059-.628124-.5387203-3.505428-3.2469214-4.129139-3.8571791-2.569863-2.8644154-2.805225-3.1710042-3.352442-3.1710042-.775225 0-5.832574 4.8674622-6.918183 5.7930684-5.923777 4.7170878-15.261778 9.5787102-16.668069 9.5787102-.233891 0-.470724-.0773772-.470724-.2306716 0-.3883458 1.173869-1.3095721 2.106493-1.8482925 2.412464-1.4803859 4.746965-3.1023867 7.942009-5.7259109 10.503045-8.6487241 13.542162-14.6783039 13.542162-15.141107 0-.6920147-.776696-.6920147-1.547508-.6920147h-9.579248c-2.259479 0-6.075291 0-9.183545.2262917-.238305 0-2.106494.1547544-2.265363.1547544-.310384 0-.464841-.1547544-.698732-.4613432l-1.481312-1.7767551c-.305971-.3854259-.39129-.3854259-.39129-.5445601 0-.1503745.160341-.1503745.313326-.1503745.469254 0 2.881718.2277517 3.430407.2277517 2.26242.1562143 6.235631.3109686 10.666328.3109686h10.047031c.923797 0 2.40658 0 3.03029-1.1548178.233892-.4715628.929682-2.0935635.929682-3.095087 0-.2306715-.154457-1.3081122-.154457-1.6278405 0-.2248318 0-.5358004.551631-.5358004.466311 0 2.566921 1.0832804 3.109725 1.2409546 3.264182 1.0832805 3.578979 1.1533579 3.578979 1.7782151 0 .3051289-1.47837.9986035-1.71079 1.2380348-.469254.3795861-.856131 1.0015234-.856131 1.5373238 0 .6190174.229479.6190174 1.557805.6190174h21.170845c1.788754 0 3.18916 0 3.739319-.2292116.776696-.3898058 3.425994-3.9491558 4.352733-3.9491558.473667 0 7.243277 4.1009903 7.243277 5.1813508 0 1.0102831-1.55045 1.0102831-4.123254 1.0102831h-32.775681c-1.006174 0-1.943211 0-2.719906.6102577-.548689.3927257-2.10061 2.4746096-2.10061 3.1695443 0 .6993144.461899.6993144 1.31803.6993144z"/><path d="m292.57436 48.7529936c3.39435 0 3.695909 0 4.546681-.7749681.767735-.7764331 3.544401-5.199172 4.552509-5.199172.693438 0 9.32645 5.199172 9.32645 6.9805733 0 1.0020382-1.612681 1.0020382-4.080504 1.0020382h-25.521726c-2.236192 0-2.236192 1.0870063-2.236192 5.0409554 0 .9361146.303015 10.5536306.303015 11.7094904 0 3.0266242-2.848049 3.4880892-3.773118 3.4880892-2.316317 0-2.316317-1.242293-2.316317-2.0919745 0-1.7066879.308843-9.2278344.308843-10.6957325 0-7.450828 0-7.450828-2.384786-7.450828h-15.417343c-6.785786 0-9.023435.1596815-9.794084.2343949-.225804 0-1.386876.1582165-1.619964.1582165-.237459 0-.384596-.1582165-.699266-.4643949l-1.459716-1.7843312c-.308842-.3896815-.308842-.3896815-.308842-.5391083 0-.1611465.075754-.1611465.231632-.1611465.544844 0 2.928173.23293 3.392893.23293 3.78186.1582165 6.937294.3149681 10.561819.3149681h15.032746c.696352 0 2.311946 0 2.311946-2.0978344 0-.780828-.228718-5.5038853-1.149417-5.5038853-.466177 0-3.091335 1.7081529-3.711933 1.7081529-.07284 0-.225805 0-.225805-.1494268 0-.0864331 5.473208-5.6650318 6.010768-6.2143949 7.094629-8.0573248 12.339118-16.976051 12.339118-18.6007006 0-1.245223-1.53984-1.245223-2.387699-1.245223h-15.185711c-.93381 0-.99791 0-.99791.2343949 0 .3149682 1.920066 2.1740128 1.920066 2.6354777 0 .5405733-.151507.6182166-1.545667.9331848-1.156702.3091082-3.003927 3.4104458-3.003927 4.1077707 0 .8526114.767735 1.1617197 1.617051 1.470828 2.237648.9317197 6.092348 3.1819108 6.092348 5.5859235 0 1.7770064-1.772929 3.1819109-3.159805 3.1819109-1.392703 0-1.855966-1.0884714-2.619331-3.0280892-1.545667-3.725414-2.393527-4.9589172-3.324423-4.9589172-.610401 0-.761908.3061783-2.457626 2.3205096-7.253421 8.9934394-13.498734 11.8633121-14.882696 11.8633121-.240373 0-.539017-.0776434-.539017-.3120383 0-.0747133 2.309032-1.9366879 2.699455-2.3205095 8.790347-8.5261147 13.178237-18.9156688 13.178237-20.1579618 0-1.5557962-1.153788-1.5557962-1.698632-1.5557962h-1.228085c-6.787243 0-9.024892.1626115-9.79117.2343949-.227261 0-1.388333.1596816-1.615594.1596816-.234546 0-.384596-.1596816-.697809-.4746497l-1.461173-1.7740765c-.311756-.3882165-.311756-.3882165-.311756-.5405732 0-.1582166.074297-.1582166.231632-.1582166.541931 0 2.923803.231465 3.39435.231465 3.778946.1523567 6.934381.3105733 10.560362.3105733h11.017799c1.39416 0 2.622244 0 2.622244-2.0861147 0-.0835032 0-4.65859872-.608943-7.28968152-.150051-.46732484-.927983-2.5622293-.927983-3.03394905 0-.22853503.233088-.22853503.466177-.22853503.311755 0 9.249239 1.08700637 9.249239 3.0266242 0 .3867516-1.309665 1.62611465-1.541297 1.93815287-.544844.8555414-.544844 3.33426753-.544844 4.49452233 0 2.4772611.078667 3.1789809 2.628072 3.1789809h9.789714c2.53775 0 3.239929 0 4.239295-.7691083.92507-.6211465 4.159172-4.5780255 5.092982-4.5780255 1.382506 0 7.388903 5.656242 7.388903 6.2759236 0 1.0826114-1.531099 1.0826114-4.159171 1.0826114h-11.102293c-.614771 0-.766278 0-.766278.3178981 0 .231465 2.003103 2.0905096 2.003103 2.6325478 0 .46-.540473.6167516-1.462629.7764331-1.314036.3105733-3.161262 3.7210191-3.161262 4.0228026 0 .5552229.304472.7046496 2.539207 2.020191 2.546491 1.5514013 8.171206 4.967707 8.171206 8.9992994 0 2.944586-2.230365 4.0257325-3.086965 4.0257325-1.536927 0-1.924436-1.1661147-3.304028-5.1889172-2.008931-5.9726752-4.552509-7.9064331-5.627629-7.9064331-.700722 0-.927983.2314649-2.620788 2.1681528-2.24639 2.7131211-6.865911 7.4464332-9.869838 9.846051-.775019.6152866-.8566.6152866-.8566.9331847 0 .3061783.696352.5347134 1.703003.7661783 4.395173 1.245223 4.851152 1.3961147 4.851152 2.4069427 0 .4658599-.151507.6182166-1.697175 2.0978344-.613314.5405733-.760451 2.0114013-.760451 2.4772612 0 1.470828.917786 1.7081528 1.847226 1.7081528z"/><path d="m354.204823 18.8183429c-.152452 0-.618606 0-.618606.3833014 0 .2340772 1.316371 1.164534 1.628607 1.3196102 3.724833 2.7123694 4.730436 4.8029713 4.730436 6.4971049 0 .7783066-.149521 1.0065319-.543846 2.0203787-.074761.1521502-.155385.3833014-.155385.6173786 0 .3833014.54971.3833014.856081.3833014h8.609189c2.250146 0 2.723629-.6173786 3.570916-3.1688199 1.316371-3.9515156 1.474688-6.663885 1.474688-7.0530383 0-.7739177-.315167-.999217-1.627141-.999217zm19.55208 30.6567967c-1.093556 0-1.939377 0-1.939377.7739177 0 .7036945.312236.8543817 2.783731 2.7109064 9.006446 6.7355711 19.090323 9.2899384 26.305448 10.2247842 1.861684.2282253 2.093295.2282253 2.093295.6949166 0 .4652285-.392859.5369146-1.624209.8456039-2.100625.6203045-3.56945 2.5543673-4.196852 3.8739774-.234543.5427665-.775457 1.4746863-.998273 1.4746863-.62447 0-3.032932-1.0109208-3.805458-1.3196101-11.483805-4.7268962-17.301933-10.5290845-21.336071-15.48128-1.783991-2.169603-1.860218-2.3202902-2.256009-2.3202902-.609811 0-.696299.6890648-.696299.920216 0 .3130782.086488 2.6348313.086488 3.0971338 0 1.4717603.07476 8.6008737.07476 10.2233212 0 2.7869815 0 3.405823-.778389 4.2602048-1.080363 1.1542931-2.480291 1.5463724-3.493223 1.5463724-.924978 0-1.703367-.2340772-1.703367-1.9369887 0-.1580021.391393-5.9631164.463222-7.1174095.083556-2.0145268.083556-4.495745.083556-6.5073458 0-.3116153 0-1.0109209-.621539-1.0109209-.318098 0-1.55238.9289938-1.864615 1.165997-15.047391 11.068925-28.552662 14.2494488-29.789876 14.2494488-.15685 0-.543846-.080464-.543846-.3891533 0-.2340772 1.555312-.9246049 1.634471-1.0050689 13.342557-5.8870413 25.595955-16.647277 25.595955-18.1995014 0-.7739177-.769593-.7739177-1.322235-.7739177h-10.233398c-2.562381 0-7.377839 0-9.39051.1565391-.231611 0-1.78106.2326142-2.093295.2326142-.237475 0-.388462-.160928-.697765-.5369145l-1.474688-1.7863016c-.306372-.3891533-.306372-.3891533-.306372-.4637654 0-.1536131.152453-.2370031.228679-.2370031.540915 0 2.868753.3116152 3.409667.3116152 2.254543.0746121 7.452599.2311512 10.702484.2311512h15.211571c1.627141 0 1.627141-.6934536 1.627141-4.3348169 0-.8514558-.071829-1.7819126-1.937911-1.7819126h-5.586518c-2.871684 0-7.599188 0-9.314283.1565391-.225747 0-1.857286.2399292-2.087431.2399292-.309304 0-.38553-.1594651-.697765-.4681544l-1.558245-1.8609137c-.303439-.3818384-.303439-.3818384-.303439-.4652284 0-.1506872.161248-.2252993.303439-.2252993.473484 0 2.874616.3086893 3.424326.3086893 2.168056.0672972 7.134501.2311513 10.624792.2311513h4.887287c2.245748 0 2.245748-.9289939 2.245748-3.7979024 0-1.6224475 0-3.2536729-2.008274-3.2536729h-9.393441c-1.86315 0-7.137433 0-9.849335.2282252-.234542 0-1.396995.1565391-1.640334.1565391-.225747 0-.379666-.1565391-.691901-.5398405l-1.471757-1.7775236c-.309303-.3774495-.309303-.3774495-.309303-.4637654 0-.1580021.155385-.2326142.228679-.2326142.466154 0 2.871684.3189301 3.415531.3189301 2.253077.0629083 6.284283.2179844 10.627723.2179844h2.871684c.39286 0 .85315 0 .85315-.6173786 0-1.160145-2.169521-6.1884156-3.178056-7.8942531-1.553846-2.5529044-2.568244-2.7094435-4.040001-2.7094435h-1.943774c-3.094499 0-8.296953.0746121-9.76871.2252993-.309303 0-1.394064.1580021-1.709231.1580021-.225747 0-.381132-.1580021-.615675-.4608395l-1.546517-1.7819125c-.316633-.3862274-.316633-.3862274-.316633-.5413035 0-.1594651.156851-.1594651.234543-.1594651.546778 0 2.865821.2340772 3.412599.2340772 2.244282.080464 6.281351.3116152 10.708347.3116152 1.165385 0 1.625676 0 1.625676-.9319198 0-1.079681-2.024399-4.8000453-3.100364-6.27180564-.464688-.54276648-3.178056-3.16589396-3.178056-3.16589396 0-.23407719.30344-.54569244.769594-.54569244 1.943774 0 10.321352 2.23982609 10.321352 7.27541154 0 .4652285-.08209 1.0109209-.54971 1.9355258-.381132.6188416-.381132.7724547-.381132 1.0869959 0 .6173786.618607.6173786.848752.6173786h2.326372c1.712163 0 1.712163-1.3912963 1.712163-2.0891389 0-1.3942222-.079158-6.89503615-.153919-8.98563803-.074761-.68906472-.540914-3.94420061-.540914-4.72104428 0-.92314191.303439-.92314191.769593-.92314191.158317 0 6.439668.46083946 6.439668 2.16375101 0 .30576332-.464688.92753085-.778389 1.23768313-.539449.62176753-.693368 1.247924-.693368 2.94790958 0 10.3696194.153919 10.3696194 2.321975 10.3696194h2.802787c2.244282 0 2.244282-.6173786 2.244282-6.660959 0-2.08767588-.165646-5.96019035-.231611-7.3544126-.080624-.23407719-.243338-1.47468628-.243338-1.69998558 0-.61884156.243338-1.08845892.779855-1.08845892.466154 0 1.012932.15653912 5.35344 1.39422225.47495.15946508 1.241612.6993056 1.241612 1.39422225 0 .31454122-.156851.46815437-.850218 1.39422225-.859013 1.01092085-.859013 1.47176032-.859013 2.71236941 0 4.40796604.077692 4.79711934.155384 8.74278294 0 .5486184.08209 1.165997.787185 1.165997 1.3882 0 6.974718-8.05225524 8.219261-10.91531184.850218-2.0145268.924979-2.17106592 1.32077-2.17106592.150987 0 5.891423 3.10298572 5.891423 4.57182007 0 .53691455-.153919.53691455-1.783991 1.1572191-.156851 0-2.796924 1.70876349-3.178056 2.01745279-.778389.4652284-6.68154 4.1738888-6.68154 4.8717314 0 .3906163.62447.4681544.944035.4681544h3.787867c2.952308 0 3.730698-.0775381 4.507621-.6978426.540914-.3876903 2.788128-3.331211 3.488825-3.331211.864877 0 6.671278 4.1841298 6.671278 4.9609734 0 1.082607-1.550914 1.082607-4.185124 1.082607h-17.771019c-.30344 0-.847286 0-.847286.3833014 0 .3116153.150987.3876904 1.700435 1.3196102 2.565313 1.4717603 2.871685 1.6224475 2.871685 2.3978281 0 .5398406-.306372.7709918-1.386735 1.3196102-1.788389 1.00068-5.20392 4.1036657-5.20392 5.1028827 0 .6978426.929376.6978426 1.473223.6978426h6.980581c3.180988 0 3.565052 0 4.186591-.5369145.546778-.4637655 2.716299-3.4862872 3.494688-3.4862872.312235 0 5.895821 3.8681256 5.895821 5.1087347 0 1.0065319-.392859 1.0065319-3.959376 1.0065319h-21.639511c-2.324906 0-2.324906.9304568-2.324906 3.9515155 0 2.0116008 0 3.1000598 2.165124 3.1000598h6.438201c3.416996 0 3.802526 0 4.896082-1.2464611 2.247214-2.6289794 2.474428-2.9332797 3.334907-2.9332797 1.314906 0 5.970581 3.7847355 5.970581 5.0253446 0 1.2376831-1.402859 1.2376831-3.88315 1.2376831h-16.986767c-1.934978 0-1.934978.6232305-1.934978 4.1826668 0 .9348457 0 1.9340627 1.85582 1.9340627h15.749553c1.857287 0 3.180988 0 3.796663-.2311512.703629-.3116152 3.337838-3.8710515 4.271612-3.8710515.772525 0 6.672744 3.7964394 6.672744 5.1058087 0 1.0884589-1.550914 1.0884589-4.116227 1.0884589z"/><path d="m463.733572 2.83960016c1.097831 0 11.842153 2.62065839 11.842153 7.08785508 0 3.16341546-2.56504 3.16341546-3.187536 3.16341546-.868258 0-1.018364-.2299078-2.650394-2.5493578-1.330347-1.84799342-4.601766-6.00525106-6.004223-6.84630634-.222215-.15715219-.543029-.46418102-.460618-.61696788 0-.15860731.313456-.23863852.460618-.23863852zm-23.282551 36.19593414c-.543029 0-1.864547.0800312-2.17506 1.3066914-.155992.7799405-.470919 8.8587275-.470919 13.5601974 0 4.6941943 0 5.4654041 1.327404 5.4654041 1.161111 0 18.763197-3.9288049 18.917717-3.9288049.075053 0 .394395 0 .394395.2284528 0 .7712098-11.143131 5.3169826-20.867618 8.3916362-11.378591 3.5475653-13.324077 4.1587128-14.255614 4.780046-.469448.2342732-2.104422 2.1608427-2.572398 2.1608427-.850598 0-3.034487-8.091883-3.034487-8.3276113 0-.3041186.233988-.3841498 2.645979-.6111474 1.322989-.1498767 10.046772-1.0767836 10.750208-1.5395095.462089-.3012084.621025-.6940889.700492-1.0782387.07211-.6155128.153049-10.0853877.153049-11.0122946 0-.6140577-.080939-7.1620659-.080939-7.4720049-.07211-1.8436281-1.476038-1.8436281-2.253055-1.8436281-2.72839 0-5.533304 0-7.090281.2328181-.158936 0-.931538.1440561-1.08753.1440561-.316399 0-.473862-.2269976-.703436-.5311162l-1.480453-1.7708724c-.307569-.3113942-.385565-.3914254-.385565-.5398469 0-.0713005.155992-.1586073.304626-.1586073.551859 0 2.963849.2357283 3.428882.3070288 3.581931.1615175 7.088809.2415488 10.669269.2415488h6.154328c2.183889 0 3.196366 0 3.742338-.2415488.853542-.3783294 3.18165-4.0786815 3.971912-4.0786815 1.16111 0 5.677522 4.3202303 5.677522 5.3169826 0 .9982075-1.552562.9982075-4.200013.9982075zm10.511805-20.2493515c1.32446 0 1.637916-.2299079 1.637916-.9239968 0-.6140576-1.252351-8.77869626-1.474566-10.00681157-.16335-.85269618-1.091945-4.77713575-1.091945-5.6269217 0-.22845273.304626-.22845273.545972-.22845273.768188 0 3.033016.31139417 5.452365.83960016 2.017595.39142538 3.035958.69845421 3.035958 1.69666168 0 .46272591-.080939.53693667-.781431 1.31251186-.856485.84978595-.856485 1.22811531-.856485 4.7756806.079467 8.1617285.694606 8.1617285 2.648922 8.1617285h9.037238c3.581931 0 3.968968 0 4.984388-1.3066915 2.416406-3.2405365 2.648922-3.5475653 3.420053-3.5475653 1.172883 0 7.478789 4.4671967 7.478789 5.7782535 0 1.1539045-1.39657 1.1539045-4.127903 1.1539045h-20.64246c-1.317103 0-1.785079.1527869-1.785079 1.2324807 0 .8468757 1.552563 8.7001202 3.112483 13.6344081 4.823981 14.8625235 13.319663 24.5652165 15.659544 24.5652165 1.083114 0 2.409047-2.2394188 3.422995-4.0888673.388509-.6940889 1.866019-4.0786816 2.258942-4.0786816.23546 0 .23546.3899703.23546.5369367 0 .2299078-1.008062 8.5516987-1.008062 10.166874 0 1.3125119.223687 2.0022354.847655 3.15614.629855 1.1626352.781432 1.5438748.781432 2.1550222 0 1.6195407-1.091945 1.9236593-2.024954 1.9236593-6.853349 0-23.135389-16.3976676-28.116834-45.8928067-.456203-2.847656-.623968-3.3103819-2.572397-3.3103819h-21.028025c-1.785079 0-7.077037 0-9.806898.1527869-.307569.0800312-1.398042.2269976-1.715912.2269976-.231045 0-.388509-.2269976-.626912-.5340265l-1.558449-1.7708724c-.304626-.3055737-.304626-.3826947-.304626-.4627259 0-.1527869.080939-.2299078.304626-.2299078.551859 0 2.963849.2299078 3.434769.309939 3.581931.1498766 6.996097.2299079 10.667797.2299079z"/><path d="m300 112.200028c0-18.3741842 5.361829-26.200028 17.899481-26.200028 3.556272 0 7.790331 1.0813727 10.040246 2.5638752l.755128.4956927-1.051835 4.1195876-1.288076-.7656546c-1.798526-1.1012004-4.947001-2.2420562-8.455463-2.2420562-8.265626 0-13.749794 3.7306595-13.749794 22.0285833 0 19.630956 5.308394 23.575145 13.874946 23.575145 3.034573 0 5.814624-.797684 8.514522-2.440333l1.191049-.7321 1.269796 3.820647-.794501.533822c-2.830675 1.847028-6.858023 3.042791-10.306018 3.042791-12.537652 0-17.899481-8.312385-17.899481-27.799972"/><path d="m364.624077 112.932889c0-19.3615411-4.375923-22.7628517-13.56476-22.7628517-9.239895 0-13.627832 3.4013106-13.627832 22.7628517 0 19.29748 4.590665 22.84369 13.627832 22.84369 8.998123 0 13.56476-3.54621 13.56476-22.84369m-31.624077 0c0-19.6345611 4.880491-26.932889 18.059317-26.932889 13.238893 0 17.940683 7.0390351 17.940683 26.932889 0 19.74743-4.854962 27.067111-17.940683 27.067111-13.178826 0-18.059317-7.319681-18.059317-27.067111"/><path d="m381 137v-51h4.020989v46.81072h20.979011l-.274786 4.18928z"/><path d="m439.639458 112.932889c0-19.3615411-4.378561-22.7628517-13.559124-22.7628517-9.252638 0-13.65072 3.4013106-13.65072 22.7628517 0 19.29748 4.603796 22.84369 13.65072 22.84369 8.992867 0 13.559124-3.54621 13.559124-22.84369m-31.639458 0c0-19.6345611 4.904108-26.932889 18.080334-26.932889 13.230281 0 17.919666 7.0390351 17.919666 26.932889 0 19.74743-4.839541 27.067111-17.919666 27.067111-13.176226 0-18.080334-7.319681-18.080334-27.067111"/><path d="m457.517269 90.0496683v19.4440467h9.811112c6.729279 0 9.350977-2.773481 9.350977-9.9141934 0-6.8513442-2.522333-9.5298533-9.011609-9.5298533zm-4.517269 46.9503317v-51h14.667749c9.065113 0 13.466202 4.4236208 13.466202 13.5127444 0 7.8366796-3.251517 12.3701116-9.676587 13.4993886l13.542636 23.987867h-5.397793l-12.949506-23.508554h-9.135432v23.508554z"/><path d="m10 137h4v-51h-4z" mask="url(#a)"/><path d="m26 137v-51h4.0143062v46.812735h20.9856938l-.2996575 4.187265z" mask="url(#a)"/><path d="m58 137v-51h4.0212108v46.812735h20.9787892l-.2678966 4.187265z" mask="url(#a)"/><path d="m91 120.842651v-34.842651h4.449183v34.924619c0 10.324894 3.7623451 14.718696 12.593554 14.718696 8.66942 0 12.514185-4.542272 12.514185-14.718696v-34.924619h4.443078v34.842651c0 12.705064-5.717544 19.157349-16.957263 19.157349-11.312983 0-17.042737-6.452285-17.042737-19.157349" mask="url(#a)"/><path d="m134 137v-51h4.45862l15.099555 43.843043.564509-1.762512 14.555155-42.080531h4.322161v51h-3.967368v-40.1338982l-13.857058 40.1338982h-3.39424l-13.796729-39.7626867v39.7626867z" mask="url(#a)"/><path d="m189 137h4v-51h-4z" mask="url(#a)"/><path d="m205 137v-51h4.293292l23.710012 42.196349-.001469-.599878-.079288-41.596471h4.077453v51h-3.426998l-24.369276-42.9877719v.7023321 42.2854398z" mask="url(#a)"/><path d="m244 122.752904 1.397987-4.056599h19.817123l-8.101228-24.2163504-1.765956-5.7656564.871895-2.7142982h2.404359l17.37582 51h-4.686063l-4.759952-14.247096z" mask="url(#a)"/><path d="m21.9696666 23.5311091-4.0534116 19.4627944h15.8499537l4.0548781-19.4627944zm21.0707008 0-3.8700988 19.4627944h12.8773541v5.6630825h-14.2265359l-4.1428682 20.343014h-5.4040599l4.2323248-20.343014h-15.8514202l-4.1355357 20.343014h-5.40552637l4.31884837-20.343014h-11.4328496v-5.6630825h12.5195276l4.1355357-19.4627944h-11.52377278v-5.6616419h12.78496448l3.7806422-17.8694672h5.1371565l-3.6031954 17.8694672h15.8499537l3.7821087-17.8694672h5.2222136l-3.7821087 17.8694672h12.6969744v5.6616419z" mask="url(#a)"/><path d="m558 139.885835c0 .436671-.071739 2.114165-1.06263 2.114165-3.755824 0-9.212453-4.665001-11.123992-6.342495-19.911991-17.202383-21.753286-18.735345-28.484773-18.735345-6.307033 0-9.989622 4.738805-9.989622 9.695945 0 4.374399 2.903925 8.16452 5.951328 8.16452.212227 0 1.132874 0 2.125261-.72881 1.345101-.947146 2.12526-1.531424 3.400118-1.531424 2.055017 0 3.827562 1.751297 3.827562 3.936191 0 2.480107-2.126755 4.156063-4.818454 4.156063-6.023067 0-12.824798-6.41476-12.824798-15.672496 0-7.872382 4.958942-14.579281 13.320991-14.579281 7.297925 0 11.33622 4.592735 16.3669 10.787622 8.928487 11.009033 15.517991 14.943686 16.864588 14.943686 1.061136 0 1.061136-2.330962 1.061136-2.623102v-7.509513c0-7.361907-1.983278-11.590237-6.659749-13.630598-2.619959-1.167019-2.691698-1.167019-2.691698-1.60369 0-.727273.850403-.727273.992386-.727273.566437 0 9.707151 2.330963 11.194236 2.695368 2.55121.656544 2.55121 3.20738 2.55121 4.374399z" mask="url(#a)"/><path d="m509.27957 89c0 9.4587044 20.730385 9.5997 24.254682 9.5997 2.831972 0 24.253224 0 24.184885-9.5997 0-9.4572045-20.593542-9.5997-24.184885-9.5997-2.903391 0-24.254682 0-24.254682 9.5997m50.72043 0c0 11.236149-13.753211 16-26.465748 16-12.853918 0-26.534252-4.835849-26.534252-16 .067046-11.51964 14.372659-16 26.534252-16 12.228639 0 26.465748 4.5508578 26.465748 16" mask="url(#a)"/><path d="m558 68.8858351c0 .4366711-.071739 2.1141649-1.06263 2.1141649-3.755824 0-9.212453-4.665001-11.123992-6.3424947-19.911991-17.2023833-21.753286-18.735345-28.484773-18.735345-6.307033 0-9.989622 4.7388045-9.989622 9.6959446 0 4.3743994 2.903925 8.1645205 5.951328 8.1645205.212227 0 1.132874 0 2.125261-.7288103 1.345101-.9471459 2.12526-1.5314242 3.400118-1.5314242 2.055017 0 3.827562 1.7512974 3.827562 3.9361907 0 2.4801076-2.126755 4.1560638-4.818454 4.1560638-6.023067 0-12.824798-6.4147607-12.824798-15.6724966 0-7.8723814 4.958942-14.5792812 13.320991-14.5792812 7.297925 0 11.33622 4.5927349 16.3669 10.7876225 8.928487 11.0090333 15.517991 14.9436863 16.864588 14.9436863 1.061136 0 1.061136-2.3309629 1.061136-2.623102v-7.5095138c0-7.3619066-1.983278-11.5902364-6.659749-13.6305977-2.619959-1.167019-2.691698-1.167019-2.691698-1.6036902 0-.7272727.850403-.7272727.992386-.7272727.566437 0 9.707151 2.3309629 11.194236 2.6953681 2.55121.6565443 2.55121 3.2073803 2.55121 4.3743993z" mask="url(#a)"/><path d="m509.27957 18c0 9.4587044 20.730385 9.5997 24.254682 9.5997 2.831972 0 24.253224 0 24.184885-9.5997 0-9.45720446-20.593542-9.59970001-24.184885-9.59970001-2.903391 0-24.254682 0-24.254682 9.59970001m50.72043 0c0 11.2361489-13.753211 16-26.465748 16-12.853918 0-26.534252-4.8358489-26.534252-16 .067046-11.51964001 14.372659-16 26.534252-16 12.228639 0 26.465748 4.55085779 26.465748 16" mask="url(#a)"/></g></svg>