<?xml version="1.0" encoding="UTF-8"?>
<svg width="110px" height="110px" viewBox="0 0 110 110" version="1.1" xmlns="http://www.w3.org/2000/svg" xmlns:xlink="http://www.w3.org/1999/xlink">
    <!-- Generator: Sketch 61 (89581) - https://sketch.com -->
    <title>Play Movie Copy</title>
    <desc>Created with Sketch.</desc>
    <g id="Page-1" stroke="none" stroke-width="1" fill="none" fill-rule="evenodd">
        <g id="2-PC-Kurokami-LP" transform="translate(-609.000000, -435.000000)">
            <g id="Butoon-play-movie" transform="translate(610.000000, 436.000000)">
                <g id="Play-Movie-Copy">
                    <g id="Group-2">
                        <g id="Play-button">
                            <g id="Group-Copy-2">
                                <path d="M100.759726,26.8939786 C95.9307417,18.6211058 89.3805332,12.0709272 81.1073764,7.24221155 C72.832742,2.41374215 63.799823,0 54.0017239,0 C44.2046099,0 35.1699671,2.41374215 26.8958252,7.24221155 C18.6221758,12.0701884 12.0719674,18.6203669 7.24298341,26.8939786 C2.41375316,35.1680827 0,44.2036695 0,54 C0,63.7963305 2.41449199,72.8309322 7.24224458,81.1055289 C12.0709823,89.3766777 18.6211907,95.9285802 26.8948401,100.757788 C35.168982,105.586012 44.2038711,108 54.0007388,108 C63.7976066,108 72.8334808,105.586012 81.1071302,100.757788 C89.380287,95.9303041 95.9302491,89.3784017 100.758741,81.1055289 C105.586493,72.8309322 108,63.7955917 108,54 C108.000246,44.2036695 105.586493,35.1668514 100.759726,26.8939786 Z" id="Path" stroke="#FFFFFF" stroke-width="0.9" fill-rule="nonzero"></path>
                                <polygon id="Rectangle" fill="#FFFFFF" transform="translate(51.230769, 54.000000) rotate(-45.000000) translate(-51.230769, -54.000000) " points="60.5928527 37.3846154 67.8461538 70.6153846 34.6153846 63.3620834"></polygon>
                            </g>
                        </g>
                    </g>
                </g>
            </g>
        </g>
    </g>
</svg>