<?xml version="1.0" encoding="UTF-8"?>
<svg width="107px" height="68px" viewBox="0 0 107 68" version="1.1" xmlns="http://www.w3.org/2000/svg" xmlns:xlink="http://www.w3.org/1999/xlink">
    <!-- Generator: Sketch 61 (89581) - https://sketch.com -->
    <title>Group 33</title>
    <desc>Created with Sketch.</desc>
    <defs>
        <polygon id="path-1" points="0.332672727 0.73224 8.19949091 0.73224 8.19949091 8 0.332672727 8"></polygon>
        <polygon id="path-3" points="0.698425 0.72328 6.970425 0.72328 6.970425 8 0.698425 8"></polygon>
        <polygon id="path-5" points="0.5497625 0.72328 6.8182625 0.72328 6.8182625 8 0.5497625 8"></polygon>
        <polygon id="path-7" points="0.648148148 68 108.648148 68 108.648148 0 0.648148148 0"></polygon>
    </defs>
    <g id="Page-1" stroke="none" stroke-width="1" fill="none" fill-rule="evenodd">
        <g id="3-PC-MyNavi" transform="translate(-667.000000, -364.000000)">
            <g id="Group-33" transform="translate(665.351852, 364.000000)">
                <path d="M6.78943973,60.6944794 L4.41370588,60.6944794 L4.41370588,63.7356269 L6.78943973,63.7356269 C8.14286439,63.7356269 8.86536928,63.2779746 8.86536928,62.2130529 C8.86536928,61.1601326 8.15930275,60.6944794 6.78943973,60.6944794 M6.78943973,64.3965025 L4.41370588,64.3965025 L4.41370588,67 L3.64814815,67 L3.64814815,60 L6.78943973,60 C8.80822643,60 9.64814815,60.8608984 9.64814815,62.2130529 C9.64814815,63.5124014 8.79726752,64.3965025 6.78943973,64.3965025" id="Fill-1" fill="#FEFEFE"></path>
                <path d="M15.1828695,60.6944794 L12.4874623,60.6944794 L12.4874623,63.4171905 L15.0705609,63.4171905 C16.5245719,63.4171905 17.1409834,62.8947308 17.1409834,62.0090296 C17.1409834,61.1849354 16.5700098,60.6944794 15.1828695,60.6944794 M15.9184482,63.8924449 L18.6481481,67 L17.5962192,67 L15.1434329,64.0548634 L12.4874623,64.0548634 L12.4874623,67 L11.6481481,67 L11.6481481,60 L15.2008732,60 C17.1409834,60 18.0034451,60.7776889 18.0034451,61.9714253 C18.0034451,63.0083438 17.3073031,63.7748314 15.9184482,63.8924449" id="Fill-3" fill="#FEFEFE"></path>
                <g id="Group-7" transform="translate(19.648148, 60.000000)">
                    <mask id="mask-2" fill="white">
                        <use xlink:href="#path-1"></use>
                    </mask>
                    <g id="Clip-6"></g>
                    <path d="M4.27549091,1.45944 C2.04921818,1.45944 1.17130909,2.36664 1.17130909,4.35064 C1.17130909,6.31944 2.04921818,7.25704 4.27549091,7.25704 C6.50176364,7.25704 7.36249091,6.31944 7.36249091,4.35064 C7.36249091,2.36664 6.51321818,1.45944 4.27549091,1.45944 M4.27549091,8.00024 C1.42167273,8.00024 0.332672727,6.66664 0.332672727,4.35064 C0.332672727,2.03544 1.42167273,0.73224 4.27549091,0.73224 C7.13094545,0.73224 8.19949091,2.03544 8.19949091,4.35064 C8.19949091,6.65624 7.13094545,8.00024 4.27549091,8.00024" id="Fill-5" fill="#FEFEFE" mask="url(#mask-2)"></path>
                </g>
                <polygon id="Fill-8" fill="#FEFEFE" points="31.4641281 60.7712881 31.4641281 63.1099554 35.8405201 63.1099554 35.8405201 63.8108355 31.4641281 63.8108355 31.4641281 67 30.6481481 67 30.6481481 60 36.6322796 60 36.6481481 60.7712881"></polygon>
                <polygon id="Fill-10" fill="#FEFEFE" points="44.6481481 66.2759172 44.6209227 67 38.6481481 67 38.6481481 60 44.398315 60 44.4215366 60.7408847 39.4256738 60.7408847 39.4256738 63.0371471 43.7457059 63.0371471 43.7457059 63.6724197 39.4256738 63.6724197 39.4256738 66.2759172"></polygon>
                <g id="Group-14" transform="translate(45.648148, 60.000000)">
                    <mask id="mask-4" fill="white">
                        <use xlink:href="#path-3"></use>
                    </mask>
                    <g id="Clip-13"></g>
                    <path d="M3.675175,8.00008 C2.486925,8.00008 1.51305,7.73928 0.698425,7.33928 L0.8323,6.60488 C1.685425,7.04088 2.58055,7.28568 3.69355,7.28568 C5.311425,7.28568 6.15055,6.63848 6.15055,5.86488 C6.15055,4.03448 0.7938,5.25608 0.7938,2.73128 C0.7938,1.75928 1.676675,0.72328 3.9438,0.72328 C4.9588,0.72328 5.920425,0.88808 6.66155,1.18728 L6.5268,1.88968 C5.663175,1.60088 4.8853,1.44008 3.948175,1.44008 C2.231425,1.44008 1.6093,2.14248 1.6093,2.68248 C1.6093,4.43608 6.970425,3.17688 6.970425,5.80728 C6.970425,7.01208 5.85305,8.00008 3.675175,8.00008" id="Fill-12" fill="#FEFEFE" mask="url(#mask-4)"></path>
                </g>
                <g id="Group-17" transform="translate(52.648148, 60.000000)">
                    <mask id="mask-6" fill="white">
                        <use xlink:href="#path-5"></use>
                    </mask>
                    <g id="Clip-16"></g>
                    <path d="M3.5256375,8.00008 C2.3382625,8.00008 1.3643875,7.73928 0.5497625,7.33928 L0.6792625,6.60488 C1.5376375,7.04088 2.4318875,7.28568 3.5475125,7.28568 C5.1601375,7.28568 6.0001375,6.63848 6.0001375,5.86488 C6.0001375,4.03448 0.6433875,5.25608 0.6433875,2.73128 C0.6433875,1.75928 1.5271375,0.72328 3.7925125,0.72328 C4.8092625,0.72328 5.7752625,0.88808 6.5128875,1.18728 L6.3798875,1.88968 C5.5145125,1.60088 4.7357625,1.44008 3.8021375,1.44008 C2.0801375,1.44008 1.4623875,2.14248 1.4623875,2.68248 C1.4623875,4.43608 6.8182625,3.17688 6.8182625,5.80728 C6.8182625,7.01208 5.7061375,8.00008 3.5256375,8.00008" id="Fill-15" fill="#FEFEFE" mask="url(#mask-6)"></path>
                </g>
                <mask id="mask-8" fill="white">
                    <use xlink:href="#path-7"></use>
                </mask>
                <g id="Clip-19"></g>
                <polygon id="Fill-18" fill="#FEFEFE" mask="url(#mask-8)" points="61.6541481 67 62.6421481 67 62.6421481 60 61.6541481 60"></polygon>
                <path d="M69.6589657,60.8004403 C67.3964319,60.8004403 66.4994067,61.7990094 66.4994067,63.9828288 C66.4994067,66.1499174 67.3964319,67.1819483 69.6589657,67.1819483 C71.9173389,67.1819483 72.7968896,66.1499174 72.7968896,63.9828288 C72.7968896,61.7990094 71.9264922,60.8004403 69.6589657,60.8004403 M69.6589657,68 C66.7523712,68 65.6481481,66.5320859 65.6481481,63.9828288 C65.6481481,61.4344524 66.7523712,60 69.6589657,60 C72.5613997,60 73.6481481,61.4344524 73.6481481,63.9828288 C73.6481481,66.5206384 72.5613997,68 69.6589657,68" id="Fill-20" fill="#FEFEFE" mask="url(#mask-8)"></path>
                <polygon id="Fill-21" fill="#FEFEFE" mask="url(#mask-8)" points="82.1317151 67 76.8748776 61.5681792 76.3841858 61.0297177 76.3576402 61.0401189 76.3761417 61.7954052 76.3761417 67 75.6481481 67 75.6481481 60 76.3986653 60 81.4471599 65.2758029 81.9491134 65.8166648 81.9668105 65.7982627 81.9491134 65.0509773 81.9418737 60.0104012 82.6481481 60.0104012 82.6481481 67"></polygon>
                <path d="M88.7839072,61.2345411 L86.9267915,64.5509201 L91.3344487,64.5509201 L89.511534,61.2345411 L89.1678137,60.5656646 L89.1413079,60.5656646 L88.7839072,61.2345411 Z M91.7166452,65.2405989 L86.5454501,65.2405989 L85.5621706,67 L84.6481481,67 L88.6727539,60 L89.6115721,60 L93.6481481,67 L92.6888094,67 L91.7166452,65.2405989 Z" id="Fill-22" fill="#FEFEFE" mask="url(#mask-8)"></path>
                <polygon id="Fill-23" fill="#FEFEFE" mask="url(#mask-8)" points="101.648148 66.2375129 101.620949 67 95.6481481 67 95.6481481 60 96.4717776 60 96.4717776 66.2375129"></polygon>
                <path d="M105.498797,68 C104.36088,68 103.432976,67.7132806 102.648148,67.2735268 L102.779511,66.466139 C103.597806,66.9454705 104.454591,67.2145998 105.515531,67.2145998 C107.062595,67.2145998 107.864157,66.5030783 107.864157,65.6525945 C107.864157,63.6402814 102.744369,64.9832894 102.744369,62.2075638 C102.744369,61.1389622 103.587766,60 105.753991,60 C106.728751,60 107.644104,60.1811785 108.358649,60.5101143 L108.228123,61.2823219 C107.402297,60.9648197 106.651774,60.7880387 105.763195,60.7880387 C104.114889,60.7880387 103.52836,61.5602463 103.52836,62.1539138 C103.52836,64.0817942 108.648148,62.6974494 108.648148,65.58927 C108.648148,66.9138083 107.580515,68 105.498797,68" id="Fill-24" fill="#FEFEFE" mask="url(#mask-8)"></path>
                <path d="M21.9453702,51.7151681 C21.6468451,50.8690179 19.3307875,44.1889292 18.1101513,40.71861 C18.1366869,40.7720779 17.7801152,39.3029846 16.8339564,39.2860107 C16.548699,39.2316941 14.7417926,39.248668 14.7417926,39.248668 C14.7417926,39.248668 13.7218317,39.0925079 13.1355615,40.7432222 C11.9016576,44.2092979 9.5623814,50.8478005 9.25971007,51.6964968 C8.86996891,50.4497619 5.30259345,39 5.30259345,39 L1.64814815,39 L7.34500297,57 L10.7556527,57 C10.7556527,57 15.153094,45.1785091 15.5743461,44.0463482 C15.9823305,45.1869961 20.205632,57 20.205632,57 L23.7754952,57 L29.6481481,39 L26.0484325,39 C26.0484325,39 22.3425745,50.4811637 21.9453702,51.7151681" id="Fill-25" fill="#FEFEFE" mask="url(#mask-8)"></path>
                <path d="M34.2414821,52.7433984 L34.2414821,49.3430488 L44.3740793,49.3430488 L44.3740793,46.1875856 L34.2414821,46.1875856 L34.2414821,43.1307572 C34.2414821,43.1307572 34.2356578,42.1503614 35.3073268,42.1503614 C37.3907578,42.1503614 44.1103222,42.1529123 47.0915257,42.1529123 C48.3662128,42.1529123 48.5434375,39 48.5434375,39 L34.605084,39 C30.5081134,39 30.6487283,42.6222779 30.6487283,42.6222779 L30.6487283,53.2722849 C30.6487283,53.2722849 30.7044751,57 34.6866241,57 L48.6457786,57 C48.6457786,57 48.774745,53.924465 47.1297996,53.8470877 C44.1394437,53.8487883 37.5771351,53.8572913 35.3073268,53.8572913 C34.11834,53.8572913 34.2414821,52.7433984 34.2414821,52.7433984" id="Fill-26" fill="#FEFEFE" mask="url(#mask-8)"></path>
                <path d="M91.3871382,50.8238454 C91.3871382,50.8238454 93.8204333,45.2482564 95.0370809,42.8824694 C95.212773,42.5406221 95.5451859,42.0834119 96.1390748,42.0723845 C96.8393689,42.0859566 97.0653767,42.5083883 97.2526167,42.8722903 C98.480812,45.2287465 100.917407,50.8204524 100.917407,50.8204524 L91.3871382,50.8238454 Z M100.118131,40.7804901 C100.118131,40.7804901 99.4095884,39 97.5701823,39 L94.7310631,39.0008483 C92.9089787,39.0008483 92.1781654,40.7830349 92.1781654,40.7830349 L84.6481481,57 L88.7253609,57 L90.3065903,53.5492931 L101.997954,53.5467484 L103.575884,56.9974552 L107.648148,56.9974552 L100.118131,40.7804901 Z" id="Fill-27" fill="#FEFEFE" mask="url(#mask-8)"></path>
                <path d="M55.0837992,52.8560113 C55.0837992,49.5131542 55.086265,39 55.086265,39 L51.649815,39 L51.649815,53.3414427 C51.649815,53.3414427 51.4624171,57 55.0616074,57 L66.6432903,57 C66.6432903,57 66.8109621,53.8820368 65.1761621,53.8820368 C62.7983458,53.8820368 58.170111,53.8820368 56.1038027,53.8803395 C55.5350336,53.8803395 55.0837992,53.4390382 55.0837992,52.8560113" id="Fill-28" fill="#FEFEFE" mask="url(#mask-8)"></path>
                <path d="M72.1405214,52.8600594 C72.1405214,49.5144986 72.1421941,39 72.1421941,39 L68.6497632,39 L68.6497632,53.3438163 C68.6497632,53.3438163 68.4624297,57 72.1229589,57 L82.1603525,57 C82.1603525,57 82.8084928,55.7498703 83.6481481,53.8835872 L73.1850727,53.8835872 C72.6055098,53.8835872 72.1405214,53.4388703 72.1405214,52.8600594" id="Fill-29" fill="#FEFEFE" mask="url(#mask-8)"></path>
                <path d="M87.639687,22.2877239 C82.5591031,21.7797984 75.1386989,25.3540887 73.4403878,26.0255972 C69.8327427,27.4536775 66.6927241,28.773793 62.722964,29.1974731 C52.6040008,30.2738498 47.4010237,23.8384915 44.1048483,21.1524573 C42.8716313,20.1488751 41.6468552,19.1133942 40.1367764,18.5081368 C39.3602126,18.1956931 38.4840461,17.9462289 37.6340465,18.0100263 C37.3630932,18.0312921 36.6582772,18.1130837 36.6481481,18.4459753 C36.6481481,18.767416 37.4449701,18.6430929 38.5701434,19.4503754 C39.614284,20.1995859 40.6229728,21.0158654 41.5278384,21.9139365 C42.8513731,23.2397774 44.4256029,24.9148681 45.7879658,26.2039028 C52.5373176,32.5967295 56.7088155,32.7194168 58.5472457,32.891997 C67.164571,33.7017332 73.869186,29.7724677 79.9846255,27.3089065 C87.0142155,24.4748296 90.9805993,25.1504278 93.0030414,28.5096063 C93.3119787,29.0208034 93.7390887,28.7631601 93.6310451,27.8806294 C93.3026937,25.1471561 91.3680371,22.663147 87.639687,22.2877239" id="Fill-30" fill="#FEFEFE" mask="url(#mask-8)"></path>
                <path d="M30.3815712,31.7677909 C29.2183735,30.4257439 27.5766556,29.8770335 25.8695708,29.6009795 C23.990688,29.296046 22.0824738,29.3937267 20.1859922,29.4999013 C19.3337069,29.5423711 18.3682863,29.7419794 17.5243813,29.5797446 C16.5304674,29.3903291 16.543038,28.4177697 16.8296472,27.6295294 C16.9679236,27.254096 17.3198998,26.8438373 17.3349845,26.442922 C17.3416889,26.2458619 17.2679414,26.0513501 17.1573203,25.8899647 C17.0978196,25.7973804 17.0223961,25.7081937 16.9369162,25.6342962 C16.781041,25.4882 16.7450053,25.4932963 16.8103723,25.2750013 C16.8707111,25.0609533 16.9779801,24.8435077 17.128827,24.6753272 C17.2779979,24.5054478 17.5310856,24.4740201 17.5755017,24.2217492 C17.6215938,23.9414483 17.4070559,23.8267797 17.1983842,23.7358942 C16.9436205,23.6254727 16.305035,23.0835575 16.6142712,22.8024071 C16.9905506,22.4643472 17.2453144,21.971697 17.2595611,21.4595107 C17.2679414,21.0348123 17.0911153,20.6194572 16.7357869,20.3782285 C16.3184436,20.0945299 15.7980215,19.6910664 15.7125416,19.1542476 C15.6689636,18.8985792 16.5111925,18.4517964 16.7190261,18.3099472 C17.1950321,17.9761342 20.0091661,15.9239914 20.5538912,14.9293477 C21.0852078,13.966981 20.9720725,12.7387532 21.1891246,11.6829529 C21.738878,9.02264196 24.7147534,7.39859518 24.9954964,7.18794476 C25.3843464,6.90339682 25.6064266,6.46595744 25.89555,6.08967463 C27.4367032,4.1284173 29.8779099,3.52279734 32.2906234,3.57970693 C35.940282,3.66719481 39.0427013,5.98010244 41.894547,8.02460066 C45.0422204,10.2772011 48.1924079,12.5357473 51.4875761,14.585342 C60.7428757,20.336608 66.4105315,16.9211833 73.2472513,13.8973305 C81.5731659,10.2117976 83.9624142,11.184357 86.1974635,13.6713909 C86.5997221,14.1173243 86.7966612,13.5940958 86.5175943,12.6300304 C85.9468899,10.6704719 83.8408986,8.23270289 79.8811657,8.36181121 C76.0245116,8.48837134 69.9336462,11.5122241 69.8716314,11.541953 C66.3661154,13.1286263 62.0753572,15.9163468 53.7058646,11.5462 C50.748426,10.0053941 48.0843009,7.9056851 45.3707316,5.96906028 C42.6152603,4.00865234 39.879902,2.02531069 36.677756,0.855691223 C33.5778508,-0.279102972 30.1863082,-0.367440245 27.1685308,1.09012475 C25.6810121,1.81211208 24.2739451,3.00296647 23.7007266,4.60747712 C23.6118945,4.8571998 23.5708306,5.14259714 23.4149554,5.36683791 C23.3588068,5.44668121 23.2892496,5.51463296 23.2138261,5.57494014 C23.0713595,5.65987982 21.6290949,6.43452975 20.6192583,7.4750409 C19.4585746,8.67014227 18.9389906,10.3052312 18.5761199,11.8995491 C18.4587945,12.4091872 18.361582,12.9247711 18.275264,13.4463008 C18.1746993,14.0340834 17.9894928,14.4188602 17.562093,14.8418598 C16.7709845,15.638594 14.0046187,17.4520563 13.5747048,17.7425501 C13.3367018,17.9030861 12.9620985,18.0738148 12.8045473,18.3226881 C12.3461401,19.056567 12.993106,19.9883553 13.4900629,20.4801561 C13.7699679,20.7528125 14.2325652,21.008481 14.2769813,21.4306312 C14.313855,21.7831309 14.0892606,22.1126969 13.8479055,22.3479798 C13.728904,22.4694435 13.4900629,22.5832627 13.4640837,22.7675818 C13.4339143,22.9748347 13.4288861,23.1905815 13.4749782,23.3961355 C13.5763809,23.8743459 13.945956,24.1792794 14.3322918,24.4357973 C13.7020867,24.7110018 12.6503481,25.8126696 13.4716261,26.4565124 C13.9585266,26.8336446 13.9199768,27.1309335 13.7800243,27.6762462 C13.642586,28.2139145 13.534479,28.7719682 13.5227464,29.3342689 C13.5043096,30.2626597 13.81606,31.1655685 14.6842681,31.6072549 C15.6027585,32.0693268 16.7709845,31.9869353 17.7699266,31.9376703 C21.6693208,31.7652427 26.0757283,30.7383219 29.3859812,33.4657352 C30.7000259,34.550415 31.5632058,36.534606 31.7752296,36.8471841 C31.935295,37.0858646 32.3241449,37.0535875 32.2847571,36.6891963 C32.08698,34.9343424 31.5632058,33.1251271 30.3815712,31.7677909" id="Fill-31" fill="#FEFEFE" mask="url(#mask-8)"></path>
                <path d="M51.2649917,22.5541686 C56.0979486,24.9489037 61.0246593,27.1122356 74.1822622,21.2036303 L74.1831068,21.2052773 C74.1831068,21.2052773 74.2050671,21.1896308 74.250677,21.1690433 C82.7864797,17.3389494 87.2706057,16.6472102 90.1490953,20.7679993 C90.3619413,21.0685764 90.8070599,20.9590511 90.5899907,19.8975608 C89.9328707,16.7205017 87.7283936,15.0800916 84.4985391,14.801749 C80.6478836,14.4657614 74.7819475,17.0927232 74.7819475,17.0927232 C64.4977664,21.6022038 62.1927787,21.4935019 58.3032703,20.8964651 C51.8984621,19.9074428 44.333136,13.5632065 41.856689,11.6123373 C39.3650387,9.65735067 36.3987079,7.65377758 33.020199,8.0507041 C32.2372295,8.139642 31.4694634,8.36281023 30.7878492,8.74491377 C30.5353057,8.88984959 29.5031712,9.4638284 29.6653396,9.82452097 C29.7818982,10.0822762 30.1830961,10.0023968 30.3976314,9.9636923 C30.8334591,9.88957739 31.2692867,9.81628598 31.7068036,9.77099353 C33.6055256,9.57253027 36.3260699,10.1185101 39.579574,12.8854668 C43.6050673,16.3062817 47.2724388,20.5769475 51.2649917,22.5541686" id="Fill-32" fill="#FEFEFE" mask="url(#mask-8)"></path>
            </g>
        </g>
    </g>
</svg>