<?xml version="1.0" encoding="UTF-8"?>
<svg width="560px" height="142px" viewBox="0 0 560 142" version="1.1" xmlns="http://www.w3.org/2000/svg" xmlns:xlink="http://www.w3.org/1999/xlink">
    <!-- Generator: Sketch 61 (89581) - https://sketch.com -->
    <title>Kurokami 2020 Logo</title>
    <desc>Created with Sketch.</desc>
    <defs>
        <polygon id="path-1" points="0 142 560 142 560 0 0 0"></polygon>
    </defs>
    <g id="Page-1" stroke="none" stroke-width="1" fill="none" fill-rule="evenodd">
        <g id="3-PC-MyNavi" transform="translate(-440.000000, -510.000000)">
            <g id="Kurokami-Hero-Banner" transform="translate(0.000000, 244.000000)">
                <g id="Kurokami-2020-Logo" transform="translate(440.000000, 266.000000)">
                    <path d="M124.473727,51.6166073 C124.789452,51.6166073 136.753251,57.3623583 136.753251,64.3278696 C136.753251,67.6963179 134.427161,68.9233128 132.94839,68.9233128 C130.851384,68.9233128 130.387341,67.5443905 129.607572,62.7970198 C129.537085,62.1835223 128.600187,57.3623583 124.560368,52.687334 C124.318067,52.4558255 124.012621,51.9957024 124.087514,51.8481158 C124.171218,51.6166073 124.318067,51.6166073 124.473727,51.6166073 L124.473727,51.6166073 Z M107.066231,51.9190152 C108.236619,51.9190152 118.178305,57.1279559 118.178305,64.0196739 C118.178305,67.9249325 115.383766,68.2389159 114.921191,68.2389159 C112.972503,68.2389159 112.11931,66.2464961 111.807989,64.861786 C110.572988,60.0377281 109.401132,54.9850556 107.14553,52.9130547 C107.066231,52.8421553 106.605125,52.384926 106.605125,52.2272109 C106.681486,52.0767304 106.757848,51.9190152 107.066231,51.9190152 L107.066231,51.9190152 Z M108.860727,7.51134867 C106.525826,7.51134867 106.525826,8.19719253 106.525826,13.7866753 C106.525826,15.781989 108.236619,15.781989 108.778492,15.781989 L121.682125,15.781989 C124.012621,15.781989 124.012621,14.556441 124.012621,12.1024511 C124.012621,8.58496923 124.012621,7.51134867 121.682125,7.51134867 L108.860727,7.51134867 Z M121.444229,26.428485 C123.624939,26.428485 123.939196,25.7383004 123.939196,21.2933377 C123.939196,18.9189288 123.939196,17.771515 121.519122,17.771515 L108.778492,17.771515 C106.371635,17.771515 106.371635,18.6932081 106.371635,22.2873772 C106.371635,25.5791383 106.371635,26.428485 108.778492,26.428485 L121.444229,26.428485 Z M88.8907145,51.7670878 C90.820312,51.7670878 99.5255283,56.745967 99.5255283,63.7881654 C99.5255283,67.0046863 97.2038436,67.8467984 96.1098176,67.8467984 C94.2477707,67.8467984 93.5458318,66.0916748 93.2418541,64.2468416 C92.2256582,58.2797106 91.8409134,56.0557823 89.977398,53.611921 C89.815864,53.3746248 88.4927533,52.384926 88.4927533,52.0767304 C88.4927533,51.8481158 88.7321174,51.7670878 88.8907145,51.7670878 L88.8907145,51.7670878 Z M98.4403133,15.781989 C100.770809,15.781989 100.770809,14.7879495 100.770809,11.1084116 C100.770809,8.73689666 100.770809,7.51134867 98.4403133,7.51134867 L85.7011514,7.51134867 C83.3647817,7.51134867 83.3647817,8.428701 83.3647817,12.2616132 C83.3647817,14.4826477 83.3647817,15.781989 85.7011514,15.781989 L98.4403133,15.781989 Z M98.6811458,26.428485 C100.844234,26.428485 100.844234,25.424317 100.844234,22.2150308 C100.844234,18.9189288 100.844234,17.771515 98.6003788,17.771515 L85.5425543,17.771515 C83.2854832,17.771515 83.2854832,18.6932081 83.2854832,22.8256344 C83.2854832,25.1957024 83.2854832,26.428485 85.4647243,26.428485 L98.6811458,26.428485 Z M69.3039777,49.2479862 C69.0748931,48.9368967 69,48.8573156 69,48.7053882 C69,48.5563546 69.0748931,48.5563546 69.2232107,48.5563546 C69.6182348,48.5563546 71.2423862,48.7053882 71.6344734,48.7053882 C78.6186179,49.0077961 79.949071,49.091718 82.2766297,49.091718 L98.2024177,49.091718 C100.703258,49.091718 100.703258,48.4000864 100.703258,42.6586762 C100.703258,40.2842674 100.155511,39.8993845 98.3683572,39.8993845 L86.4779833,39.8993845 C79.6406878,39.8993845 77.6141699,39.9760717 76.843212,40.0527589 C76.6067849,40.0527589 75.2102496,40.2842674 74.9723541,40.2842674 C74.7418009,40.2842674 74.5890778,40.0527589 74.2733522,39.7503509 L72.79605,37.9836519 C72.4876668,37.6812439 72.4876668,37.6045567 72.4876668,37.5235288 C72.4876668,37.3759421 72.5610914,37.2920203 72.7182199,37.2920203 C73.2659672,37.2920203 75.6728244,37.6045567 76.1412731,37.6045567 C79.949071,37.7550373 83.3647817,37.8346183 86.8612595,37.8346183 L98.3683572,37.8346183 C100.770809,37.8346183 100.844234,36.9997408 100.844234,32.4679624 C100.844234,29.2601231 100.844234,28.4946982 98.6003788,28.4946982 L85.4647243,28.4946982 C84.5337008,28.4946982 83.8361675,28.4946982 83.2854832,29.8721736 C82.7480154,31.1671742 81.9711835,33.0047727 79.0151106,33.0047727 C77.2264882,33.0047727 76.9929981,32.015074 76.9929981,31.0181406 C76.9929981,30.4089839 77.2264882,27.9535471 77.2264882,27.4963179 C77.6141699,19.9911025 77.6949369,15.8499946 77.6949369,15.0932513 C77.6949369,12.4164345 77.6141699,7.81086276 77.2264882,5.44802937 C77.1501266,4.98356549 76.5333603,2.91735234 76.5333603,2.53391642 C76.5333603,2.07668718 76.843212,2 77.2264882,2 C77.9974461,2 81.0357546,3.29210668 84.1416136,4.59868265 C85.6189159,5.21362704 87.4031328,5.52471655 89.1976291,5.52471655 L120.673271,5.52471655 C122.225467,5.52471655 122.837827,5.44802937 124.087514,4.75495087 C124.560368,4.52633625 126.420946,2.91735234 126.890863,2.91735234 C128.525294,2.91735234 132.474067,6.20766656 132.474067,7.43755534 C132.474067,7.97147176 132.015898,8.428701 130.76768,9.19267898 C130.001128,9.72948926 130.001128,9.95810388 129.843999,12.0272109 C129.680997,14.556441 129.680997,19.298024 129.680997,20.7594212 C129.680997,22.2150308 129.843999,28.33843 129.766169,29.6406652 C129.680997,31.0181406 129.215485,32.6227837 125.877604,32.6227837 C123.705706,32.6227837 123.469279,31.9354929 123.316556,30.4089839 C123.157959,28.7971061 122.616085,28.4946982 120.903824,28.4946982 L108.703599,28.4946982 C106.292336,28.4946982 106.292336,29.7144585 106.292336,32.3203758 C106.292336,37.2920203 106.292336,37.8346183 108.778492,37.8346183 L120.743759,37.8346183 C124.397365,37.8346183 124.789452,37.8346183 125.720476,36.6047295 C127.4298,34.1608682 127.658884,33.9279128 128.365229,33.9279128 C129.537085,33.9279128 135.045396,37.9836519 135.045396,38.825764 C135.045396,39.8993845 133.490263,39.8993845 130.851384,39.8993845 L108.703599,39.8993845 C107.920893,39.8993845 106.371635,39.8993845 106.371635,41.8918043 C106.371635,48.6315949 106.371635,49.091718 108.932684,49.091718 L124.087514,49.091718 C127.58546,49.091718 127.814544,48.9368967 128.44159,48.4000864 C128.979058,47.8632761 131.086343,44.7943419 131.704578,44.7943419 C132.551897,44.7943419 138,49.5503941 138,50.2376849 C138,50.9293165 137.29953,51.0884786 133.798646,51.0884786 L81.8874795,51.0884786 C79.4776853,51.0884786 79.2456637,51.0884786 79.2456637,51.6166073 C79.2456637,51.6961883 79.6406878,52.9130547 79.7155809,53.069323 C80.0239641,53.9143289 80.2559857,55.4451787 80.2559857,56.6692798 C80.2559857,61.4933377 77.5348713,69 72.4876668,69 C70.9384085,69 69.9251495,67.9249325 69.9251495,66.6255912 C69.9251495,65.3219091 70.4655543,64.6389591 72.6418584,62.4946118 C75.2880797,59.8886945 78.1560432,55.8271677 78.1560432,52.5383004 C78.1560432,51.1622719 77.6949369,51.1622719 76.9929981,51.1622719 C76.2249771,51.1622719 72.1763466,51.4661268 71.4714708,51.4661268 C71.2423862,51.4661268 71.0118331,51.2317244 70.775406,51.0060037 L69.3039777,49.2479862 Z" id="Fill-1" fill="#FFFFFF"></path>
                    <path d="M217.267766,11.9685159 C217.807629,11.9685159 222.483985,14.9906056 222.483985,15.6782404 C222.483985,16.2943379 222.255977,16.2943379 220.384846,16.6111464 C220.149484,16.6111464 202.869473,23.3283611 199.368458,23.3283611 C199.21106,23.3283611 199.05219,23.3283611 199.05219,23.1750666 C199.05219,23.0173924 199.912734,22.5575092 200.374632,22.3268376 C206.680873,19.3105878 215.168628,15.0621429 216.801454,12.2108671 C216.958853,11.9685159 217.120665,11.9685159 217.267766,11.9685159 L217.267766,11.9685159 Z M213.53286,2 C213.612294,2 218.201861,5.71848419 218.201861,6.10245017 C218.201861,6.71854767 217.66494,6.79592484 216.496954,6.94921925 C216.023288,6.94921925 209.174243,9.96546909 207.773837,10.5056494 C203.724133,11.9685159 197.495856,13.7496509 196.879501,13.7496509 C196.71916,13.7496509 196.560291,13.7496509 196.560291,13.5905167 C196.560291,13.3656849 199.76269,11.58309 200.374632,11.2750413 C210.501098,5.8717786 211.976526,3.78551479 212.83707,2.47010283 C213.06949,2.16497397 213.222475,2 213.53286,2 L213.53286,2 Z M222.328057,22.3268376 C222.876746,22.7867208 226.541043,25.6438365 226.541043,25.8745081 C226.541043,26.3460708 225.832014,26.4219881 225.214188,26.4993652 C223.888804,26.6511997 218.5196,29.353561 217.426636,29.819284 C206.763249,34.2954805 196.560291,36.2342897 196.173414,36.2342897 C196.017486,36.2342897 195.782124,36.1510727 195.782124,35.9233211 C195.782124,35.6926495 196.879501,35.3846007 197.259023,35.2254665 C198.509385,34.8400406 217.66494,26.7271169 219.843513,22.5575092 C219.924419,22.4012949 220.23039,21.3209344 220.314238,21.2464771 C220.626093,21.0128856 220.8541,21.16764 222.328057,22.3268376 L222.328057,22.3268376 Z M185.505615,51.4527739 C184.814238,51.4527739 184.025774,51.4527739 184.025774,52.0659515 C184.025774,52.9988574 191.741246,58.8663831 193.452037,58.8663831 C195.087805,58.8663831 200.768864,53.3828234 200.768864,52.0659515 C200.768864,51.4527739 200.305495,51.4527739 199.76269,51.4527739 L185.505615,51.4527739 Z M186.750093,24.7196902 C187.604753,24.7196902 188.234347,24.7196902 188.86247,24.261267 C189.322898,23.8729212 191.502942,21.4786086 191.892761,21.4786086 C192.28258,21.4786086 197.107508,24.5707757 197.107508,25.6438365 C197.107508,26.7271169 196.48674,26.807414 192.359073,26.807414 L173.207931,26.807414 C173.13438,26.807414 172.899018,26.807414 172.899018,26.8877111 C172.899018,27.0380856 174.143496,28.121366 174.143496,28.4264949 C174.143496,28.8148407 173.986098,28.8922178 172.504786,29.436778 C171.882547,29.6674495 169.314155,33.1377428 169.314155,33.8385172 C169.314155,34.3816174 169.939336,34.3816174 170.410061,34.3816174 C171.731032,34.3816174 181.067563,32.8326139 183.022542,32.5990225 C183.335868,32.5245652 183.955165,32.5245652 183.955165,31.9800051 C183.955165,31.3639076 182.160527,30.283547 180.457092,29.2761838 C180.217317,29.1199695 178.808084,28.6557065 178.808084,28.3534975 C178.808084,27.8147772 179.59949,27.8147772 179.983425,27.8147772 C182.553288,27.8147772 190.954254,30.0499556 190.954254,34.226863 C190.954254,35.6926495 190.024572,36.6956329 188.86247,36.6956329 C188.07842,36.6956329 187.838644,36.4649613 186.357332,34.4546147 C185.823354,33.7567602 185.280549,33.7567602 184.965752,33.7567602 C183.955165,33.7567602 165.11735,38.9337311 164.802553,39.0943253 C164.489226,39.2505395 163.168255,40.4798147 162.778436,40.4798147 C162.228277,40.4798147 161.922306,39.704583 161.764907,39.3965342 C161.528074,38.7745969 159.662827,35.8517837 159.662827,35.0707122 C159.662827,34.6122889 159.89966,34.4546147 160.288008,34.4546147 C160.520428,34.4546147 164.489226,34.6896661 165.267393,34.6896661 C166.670741,34.6896661 167.213546,34.226863 167.52393,33.2122001 C168.231488,31.2106132 168.615423,28.8922178 168.615423,28.2702806 C168.615423,27.2687571 168.231488,26.807414 167.213546,26.807414 C165.895517,26.807414 162.006153,26.8877111 160.749907,27.0380856 C160.598392,27.0380856 159.89966,27.1957598 159.743733,27.1957598 C159.433349,27.1957598 159.27595,26.9592484 159.033233,26.6511997 L157.481312,24.8773645 C157.24595,24.5707757 157.170928,24.4860988 157.170928,24.3298845 C157.170928,24.17805 157.328326,24.17805 157.481312,24.17805 C158.655182,24.17805 164.721647,24.643773 166.057328,24.643773 C167.52393,24.643773 167.52393,24.3298845 167.52393,19.8493081 C167.52393,17.688587 167.373886,7.10981338 167.373886,4.62936397 C167.373886,3.93880919 167.453321,3.70229783 167.679857,3.70229783 C168.144698,3.70229783 169.862843,4.86149549 170.254133,5.09654691 C171.414764,5.71848419 172.11938,5.71848419 173.441822,5.71848419 L181.770708,5.71848419 C184.342042,5.71848419 184.653897,5.71848419 185.042245,5.48197283 C185.589463,5.09654691 188.001927,3.00882316 188.313782,3.00882316 C188.547673,3.00882316 193.452037,5.8717786 193.452037,6.79592484 C193.452037,7.80036816 192.592964,7.80036816 190.64534,7.80036816 L173.906663,7.80036816 C172.821054,7.80036816 172.042887,7.87336549 172.042887,9.65596039 C172.042887,11.4297956 172.504786,11.6633871 173.986098,11.6633871 L179.90399,11.6633871 C182.160527,11.6633871 182.395889,11.6633871 182.863672,11.2750413 C183.254962,10.8881554 184.965752,8.80043164 185.505615,8.80043164 C185.902789,8.80043164 190.024572,11.8196014 190.024572,12.6605307 C190.024572,13.6766535 189.094891,13.6766535 187.604753,13.6766535 L173.600692,13.6766535 C172.198815,13.6766535 171.961982,14.3701282 171.961982,15.8315348 C171.961982,17.0724895 172.042887,17.9192586 173.671301,17.9192586 L179.368541,17.9192586 C180.293809,17.9192586 181.61331,17.9192586 182.0046,17.7688841 C182.553288,17.5352926 184.417064,15.0621429 185.042245,15.0621429 C185.352629,15.0621429 189.562674,18.1528501 189.562674,18.9266218 C189.562674,19.9296052 188.547673,19.9296052 187.066361,19.9296052 L173.753678,19.9296052 C173.054946,19.9296052 172.042887,19.9296052 172.042887,21.4786086 C172.042887,24.0992129 172.042887,24.7196902 173.753678,24.7196902 L186.750093,24.7196902 Z M199.600878,49.4453472 C200.305495,49.4453472 200.618821,49.4453472 201.389632,49.1372985 C201.780922,48.9752444 203.568205,47.4320807 204.113952,47.4320807 C205.206916,47.4320807 209.72146,51.6863654 209.72146,52.6075917 C209.72146,52.9185604 209.562591,53.2324489 209.253678,53.3828234 C208.785895,53.5390377 206.60438,53.9215437 206.14101,54.160975 C205.74972,54.3872667 201.622053,58.0196141 200.768864,58.7160086 C200.146625,59.1773518 198.587349,60.4124667 198.587349,60.8767297 C198.587349,62.346896 209.72146,64.4360797 216.958853,64.4360797 C218.5196,64.4360797 221.471926,64.2813254 223.263622,64.2010283 C223.576949,64.2010283 225.214188,63.8929796 225.524572,63.8929796 C225.75405,63.8929796 225.990884,63.9703567 225.990884,64.2010283 C225.990884,64.5835343 225.290681,64.7397486 225.052376,64.8171258 C222.642854,65.358766 220.314238,67.0639838 219.216861,68.3735559 C217.66494,70.3065253 217.426636,70.534277 216.645527,70.534277 C212.760577,70.534277 204.427278,68.7575219 200.06719,66.9077695 C199.128683,66.5252634 194.849501,64.2813254 193.909522,64.2813254 C193.141653,64.2813254 192.513529,64.6652914 191.81921,65.0448775 C182.785708,70.0758538 172.821054,71 171.81488,71 C171.648655,71 171.024945,71 171.024945,70.6875714 C171.024945,70.3065253 171.266192,70.3065253 172.665127,69.9181795 C175.621866,69.1458677 180.370302,67.0639838 185.742448,64.2010283 C189.1655,62.346896 189.562674,62.1103847 189.562674,61.1935381 C189.562674,60.7234353 189.244934,60.4942237 189.094891,60.2606322 C188.466767,59.7219119 185.589463,57.0137108 184.965752,56.4034531 C182.395889,53.5390377 182.160527,53.2324489 181.61331,53.2324489 C180.838085,53.2324489 175.780736,58.0999111 174.695127,59.0255173 C168.77135,63.7426051 159.433349,68.6042275 158.027058,68.6042275 C157.793167,68.6042275 157.556334,68.5268503 157.556334,68.3735559 C157.556334,67.9852101 158.730203,67.0639838 159.662827,66.5252634 C162.075291,65.0448775 164.409792,63.4228767 167.604836,60.7993525 C178.107881,52.1506284 181.146998,46.1210486 181.146998,45.6582455 C181.146998,44.9662308 180.370302,44.9662308 179.59949,44.9662308 L170.020242,44.9662308 C167.760763,44.9662308 163.944951,44.9662308 160.836697,45.1925225 C160.598392,45.1925225 158.730203,45.3472769 158.571334,45.3472769 C158.26095,45.3472769 158.106493,45.1925225 157.872602,44.8859337 L156.39129,43.1091786 C156.085319,42.7237527 156,42.7237527 156,42.5646185 C156,42.414244 156.160341,42.414244 156.313326,42.414244 C156.78258,42.414244 159.195044,42.6419957 159.743733,42.6419957 C162.006153,42.79821 165.979364,42.9529643 170.410061,42.9529643 L180.457092,42.9529643 C181.380889,42.9529643 182.863672,42.9529643 183.487382,41.7981465 C183.721274,41.3265837 184.417064,39.704583 184.417064,38.7030595 C184.417064,38.472388 184.262607,37.3949473 184.262607,37.075219 C184.262607,36.8503872 184.262607,36.5394186 184.814238,36.5394186 C185.280549,36.5394186 187.381159,37.622699 187.923963,37.7803732 C191.188145,38.8636537 191.502942,38.9337311 191.502942,39.5585883 C191.502942,39.8637172 190.024572,40.5571918 189.792152,40.7966231 C189.322898,41.1762092 188.936021,41.7981465 188.936021,42.3339469 C188.936021,42.9529643 189.1655,42.9529643 190.493826,42.9529643 L211.664671,42.9529643 C213.453425,42.9529643 214.853831,42.9529643 215.40399,42.7237527 C216.180686,42.3339469 218.829984,38.7745969 219.756723,38.7745969 C220.23039,38.7745969 227,42.8755872 227,43.9559477 C227,44.9662308 225.44955,44.9662308 222.876746,44.9662308 L190.101065,44.9662308 C189.094891,44.9662308 188.157854,44.9662308 187.381159,45.5764885 C186.83247,45.9692142 185.280549,48.0510981 185.280549,48.7460328 C185.280549,49.4453472 185.742448,49.4453472 186.598579,49.4453472 L199.600878,49.4453472 Z" id="Fill-3" fill="#FFFFFF"></path>
                    <path d="M292.57436,48.7529936 C295.96871,48.7529936 296.270269,48.7529936 297.121041,47.9780255 C297.888776,47.2015924 300.665442,42.7788535 301.67355,42.7788535 C302.366988,42.7788535 311,47.9780255 311,49.7594268 C311,50.761465 309.387319,50.761465 306.919496,50.761465 L281.39777,50.761465 C279.161578,50.761465 279.161578,51.8484713 279.161578,55.8024204 C279.161578,56.738535 279.464593,66.356051 279.464593,67.5119108 C279.464593,70.538535 276.616544,71 275.691475,71 C273.375158,71 273.375158,69.757707 273.375158,68.9080255 C273.375158,67.2013376 273.684001,59.6801911 273.684001,58.212293 C273.684001,50.761465 273.684001,50.761465 271.299215,50.761465 L255.881872,50.761465 C249.096086,50.761465 246.858437,50.9211465 246.087788,50.9958599 C245.861984,50.9958599 244.700912,51.1540764 244.467824,51.1540764 C244.230365,51.1540764 244.083228,50.9958599 243.768558,50.6896815 L242.308842,48.9053503 C242,48.5156688 242,48.5156688 242,48.366242 C242,48.2050955 242.075754,48.2050955 242.231632,48.2050955 C242.776476,48.2050955 245.159805,48.4380255 245.624525,48.4380255 C249.406385,48.596242 252.561819,48.7529936 256.186344,48.7529936 L271.21909,48.7529936 C271.915442,48.7529936 273.531036,48.7529936 273.531036,46.6551592 C273.531036,45.8743312 273.302318,41.1512739 272.381619,41.1512739 C271.915442,41.1512739 269.290284,42.8594268 268.669686,42.8594268 C268.596846,42.8594268 268.443881,42.8594268 268.443881,42.71 C268.443881,42.6235669 273.917089,37.0449682 274.454649,36.4956051 C281.549278,28.4382803 286.793767,19.5195541 286.793767,17.8949045 C286.793767,16.6496815 285.253927,16.6496815 284.406068,16.6496815 L269.220357,16.6496815 C268.286547,16.6496815 268.222447,16.6496815 268.222447,16.8840764 C268.222447,17.1990446 270.142513,19.0580892 270.142513,19.5195541 C270.142513,20.0601274 269.991006,20.1377707 268.596846,20.4527389 C267.440144,20.7618471 265.592919,23.8631847 265.592919,24.5605096 C265.592919,25.413121 266.360654,25.7222293 267.20997,26.0313376 C269.447618,26.9630573 273.302318,29.2132484 273.302318,31.6172611 C273.302318,33.3942675 271.529389,34.799172 270.142513,34.799172 C268.74981,34.799172 268.286547,33.7107006 267.523182,31.7710828 C265.977515,28.0456688 265.129655,26.8121656 264.198759,26.8121656 C263.588358,26.8121656 263.436851,27.1183439 261.741133,29.1326752 C254.487712,38.1261146 248.242399,40.9959873 246.858437,40.9959873 C246.618064,40.9959873 246.31942,40.9183439 246.31942,40.683949 C246.31942,40.6092357 248.628452,38.7472611 249.018875,38.3634395 C257.809222,29.8373248 262.197112,19.4477707 262.197112,18.2054777 C262.197112,16.6496815 261.043324,16.6496815 260.49848,16.6496815 L259.270395,16.6496815 C252.483152,16.6496815 250.245503,16.812293 249.479225,16.8840764 C249.251964,16.8840764 248.090892,17.043758 247.863631,17.043758 C247.629085,17.043758 247.479035,16.8840764 247.165822,16.5691083 L245.704649,14.7950318 C245.392893,14.4068153 245.392893,14.4068153 245.392893,14.2544586 C245.392893,14.096242 245.46719,14.096242 245.624525,14.096242 C246.166456,14.096242 248.548328,14.327707 249.018875,14.327707 C252.797821,14.4800637 255.953256,14.6382803 259.579237,14.6382803 L270.597036,14.6382803 C271.991196,14.6382803 273.21928,14.6382803 273.21928,12.5521656 C273.21928,12.4686624 273.21928,7.89356688 272.610337,5.26248408 C272.460286,4.79515924 271.682354,2.70025478 271.682354,2.22853503 C271.682354,2 271.915442,2 272.148531,2 C272.460286,2 281.39777,3.08700637 281.39777,5.0266242 C281.39777,5.4133758 280.088105,6.65273885 279.856473,6.96477707 C279.311629,7.82031847 279.311629,10.2990446 279.311629,11.4592994 C279.311629,13.9365605 279.390296,14.6382803 281.939701,14.6382803 L291.729415,14.6382803 C294.267165,14.6382803 294.969344,14.6382803 295.96871,13.869172 C296.89378,13.2480255 300.127882,9.2911465 301.061692,9.2911465 C302.444198,9.2911465 308.450595,14.9473885 308.450595,15.5670701 C308.450595,16.6496815 306.919496,16.6496815 304.291424,16.6496815 L293.189131,16.6496815 C292.57436,16.6496815 292.422853,16.6496815 292.422853,16.9675796 C292.422853,17.1990446 294.425956,19.0580892 294.425956,19.6001274 C294.425956,20.0601274 293.885483,20.216879 292.963327,20.3765605 C291.649291,20.6871338 289.802065,24.0975796 289.802065,24.3993631 C289.802065,24.954586 290.106537,25.1040127 292.341272,26.4195541 C294.887763,27.9709554 300.512478,31.3872611 300.512478,35.4188535 C300.512478,38.3634395 298.282113,39.444586 297.425513,39.444586 C295.888586,39.444586 295.501077,38.2784713 294.121485,34.2556688 C292.112554,28.2829936 289.568976,26.3492357 288.493856,26.3492357 C287.793134,26.3492357 287.565873,26.5807006 285.873068,28.5173885 C283.626678,31.2305096 279.007157,35.9638217 276.00323,38.3634395 C275.228211,38.9787261 275.14663,38.9787261 275.14663,39.2966242 C275.14663,39.6028025 275.842982,39.8313376 276.849633,40.0628025 C281.244806,41.3080255 281.700785,41.4589172 281.700785,42.4697452 C281.700785,42.9356051 281.549278,43.0879618 280.00361,44.5675796 C279.390296,45.1081529 279.243159,46.5789809 279.243159,47.0448408 C279.243159,48.5156688 280.160945,48.7529936 281.090385,48.7529936 L292.57436,48.7529936 Z" id="Fill-5" fill="#FFFFFF"></path>
                    <path d="M354.204823,18.8183429 C354.052371,18.8183429 353.586217,18.8183429 353.586217,19.2016443 C353.586217,19.4357215 354.902588,20.3661783 355.214824,20.5212545 C358.939657,23.2336239 359.94526,25.3242258 359.94526,27.0183594 C359.94526,27.796666 359.795739,28.0248913 359.401414,29.0387381 C359.326653,29.1908883 359.246029,29.4220395 359.246029,29.6561167 C359.246029,30.0394181 359.795739,30.0394181 360.10211,30.0394181 L368.711299,30.0394181 C370.961445,30.0394181 371.434928,29.4220395 372.282215,26.8705982 C373.598586,22.9190826 373.756903,20.2067132 373.756903,19.8175599 C373.756903,19.0436422 373.441736,18.8183429 372.129762,18.8183429 L354.204823,18.8183429 Z M373.756903,49.4751396 C372.663347,49.4751396 371.817526,49.4751396 371.817526,50.2490573 C371.817526,50.9527518 372.129762,51.103439 374.601257,52.9599637 C383.607703,59.6955348 393.69158,62.2499021 400.906705,63.1847479 C402.768389,63.4129732 403,63.4129732 403,63.8796645 C403,64.344893 402.607141,64.4165791 401.375791,64.7252684 C399.275166,65.3455729 397.806341,67.2796357 397.178939,68.5992458 C396.944396,69.1420123 396.403482,70.0739321 396.180666,70.0739321 C395.556196,70.0739321 393.147734,69.0630113 392.375208,68.754322 C380.891403,64.0274258 375.073275,58.2252375 371.039137,53.273042 C369.255146,51.103439 369.178919,50.9527518 368.783128,50.9527518 C368.173317,50.9527518 368.086829,51.6418166 368.086829,51.8729678 C368.086829,52.186046 368.173317,54.5077991 368.173317,54.9701016 C368.173317,56.4418619 368.248077,63.5709753 368.248077,65.1934228 C368.248077,67.9804043 368.248077,68.5992458 367.469688,69.4536276 C366.389325,70.6079207 364.989397,71 363.976465,71 C363.051487,71 362.273098,70.7659228 362.273098,69.0630113 C362.273098,68.9050092 362.664491,63.0998949 362.73632,61.9456018 C362.819876,59.931075 362.819876,57.4498568 362.819876,55.438256 C362.819876,55.1266407 362.819876,54.4273351 362.198337,54.4273351 C361.880239,54.4273351 360.645957,55.3563289 360.333722,55.5933321 C345.286331,66.6622571 331.78106,69.8427809 330.543846,69.8427809 C330.386996,69.8427809 330,69.7623169 330,69.4536276 C330,69.2195504 331.555312,68.5290227 331.634471,68.4485587 C344.977028,62.5615174 357.230426,51.8012817 357.230426,50.2490573 C357.230426,49.4751396 356.460833,49.4751396 355.908191,49.4751396 L345.674793,49.4751396 C343.112412,49.4751396 338.296954,49.4751396 336.284283,49.6316787 C336.052672,49.6316787 334.503223,49.8642929 334.190988,49.8642929 C333.953513,49.8642929 333.802526,49.7033649 333.493223,49.3273784 L332.018535,47.5410768 C331.712163,47.1519235 331.712163,47.1519235 331.712163,47.0773114 C331.712163,46.9236983 331.864616,46.8403083 331.940842,46.8403083 C332.481757,46.8403083 334.809595,47.1519235 335.350509,47.1519235 C337.605052,47.2265356 342.803108,47.3830747 346.052993,47.3830747 L361.264564,47.3830747 C362.891705,47.3830747 362.891705,46.6896211 362.891705,43.0482578 C362.891705,42.196802 362.819876,41.2663452 360.953794,41.2663452 L355.367276,41.2663452 C352.495592,41.2663452 347.768088,41.2663452 346.052993,41.4228843 C345.827246,41.4228843 344.195707,41.6628135 343.965562,41.6628135 C343.656258,41.6628135 343.580032,41.5033484 343.267797,41.1946591 L341.709552,39.3337454 C341.406113,38.951907 341.406113,38.951907 341.406113,38.868517 C341.406113,38.7178298 341.567361,38.6432177 341.709552,38.6432177 C342.183036,38.6432177 344.584168,38.951907 345.133878,38.951907 C347.301934,39.0192042 352.268379,39.1830583 355.75867,39.1830583 L360.645957,39.1830583 C362.891705,39.1830583 362.891705,38.2540644 362.891705,35.3851559 C362.891705,33.7627084 362.891705,32.131483 360.883431,32.131483 L351.48999,32.131483 C349.62684,32.131483 344.352557,32.131483 341.640655,32.3597082 C341.406113,32.3597082 340.24366,32.5162473 340.000321,32.5162473 C339.774574,32.5162473 339.620655,32.3597082 339.30842,31.9764068 L337.836663,30.1988832 C337.52736,29.8214337 337.52736,29.8214337 337.52736,29.7351178 C337.52736,29.5771157 337.682745,29.5025036 337.756039,29.5025036 C338.222193,29.5025036 340.627723,29.8214337 341.17157,29.8214337 C343.424647,29.884342 347.455853,30.0394181 351.799293,30.0394181 L354.670977,30.0394181 C355.063837,30.0394181 355.524127,30.0394181 355.524127,29.4220395 C355.524127,28.2618945 353.354606,23.2336239 352.346071,21.5277864 C350.792225,18.974882 349.777827,18.8183429 348.30607,18.8183429 L346.362296,18.8183429 C343.267797,18.8183429 338.065343,18.892955 336.593586,19.0436422 C336.284283,19.0436422 335.199522,19.2016443 334.884355,19.2016443 C334.658608,19.2016443 334.503223,19.0436422 334.26868,18.7408048 L332.722163,16.9588923 C332.40553,16.5726649 332.40553,16.5726649 332.40553,16.4175888 C332.40553,16.2581237 332.562381,16.2581237 332.640073,16.2581237 C333.186851,16.2581237 335.505894,16.4922009 336.052672,16.4922009 C338.296954,16.5726649 342.334023,16.8038161 346.761019,16.8038161 C347.926404,16.8038161 348.386695,16.8038161 348.386695,15.8718963 C348.386695,14.7922153 346.362296,11.071851 345.286331,9.60009066 C344.821643,9.05732418 342.108275,6.4341967 342.108275,6.4341967 C342.108275,6.20011951 342.411715,5.88850426 342.877869,5.88850426 C344.821643,5.88850426 353.199221,8.12833035 353.199221,13.1639158 C353.199221,13.6291443 353.117131,14.1748367 352.649511,15.0994416 C352.268379,15.7182832 352.268379,15.8718963 352.268379,16.1864375 C352.268379,16.8038161 352.886986,16.8038161 353.117131,16.8038161 L355.443503,16.8038161 C357.155666,16.8038161 357.155666,15.4125198 357.155666,14.7146772 C357.155666,13.320455 357.076508,7.81964105 357.001747,5.72903917 C356.926986,5.03997445 356.460833,1.78483856 356.460833,1.00799489 C356.460833,0.0848529806 356.764272,0.0848529806 357.230426,0.0848529806 C357.388743,0.0848529806 363.670094,0.545692444 363.670094,2.24860399 C363.670094,2.55436731 363.205406,3.17613484 362.891705,3.48628712 C362.352256,4.10805465 362.198337,4.73421112 362.198337,6.4341967 C362.198337,16.8038161 362.352256,16.8038161 364.520312,16.8038161 L367.323099,16.8038161 C369.567381,16.8038161 369.567381,16.1864375 369.567381,10.1428571 C369.567381,8.05518122 369.401735,4.18266675 369.33577,2.7884445 C369.255146,2.55436731 369.092432,1.31375822 369.092432,1.08845892 C369.092432,0.469617358 369.33577,0 369.872287,0 C370.338441,0 370.885219,0.156539119 375.225727,1.39422225 C375.700677,1.55368733 376.467339,2.09352785 376.467339,2.7884445 C376.467339,3.10298572 376.310488,3.25659887 375.617121,4.18266675 C374.758108,5.1935876 374.758108,5.65442707 374.758108,6.89503616 C374.758108,11.3030022 374.8358,11.6921555 374.913492,15.6378191 C374.913492,16.1864375 374.995582,16.8038161 375.700677,16.8038161 C377.088877,16.8038161 382.675395,8.75156086 383.919938,5.88850426 C384.770156,3.87397746 384.844917,3.71743834 385.240708,3.71743834 C385.391695,3.71743834 391.132131,6.82042406 391.132131,8.28925841 C391.132131,8.82617296 390.978212,8.82617296 389.34814,9.44647751 C389.191289,9.44647751 386.551216,11.155241 386.170084,11.4639303 C385.391695,11.9291587 379.488544,15.6378191 379.488544,16.3356617 C379.488544,16.726278 380.113014,16.8038161 380.432579,16.8038161 L384.220446,16.8038161 C387.172754,16.8038161 387.951144,16.726278 388.728067,16.1059735 C389.268981,15.7182832 391.516195,12.7747625 392.216892,12.7747625 C393.081769,12.7747625 398.88817,16.9588923 398.88817,17.7357359 C398.88817,18.8183429 397.337256,18.8183429 394.703046,18.8183429 L376.932027,18.8183429 C376.628587,18.8183429 376.084741,18.8183429 376.084741,19.2016443 C376.084741,19.5132596 376.235728,19.5893347 377.785176,20.5212545 C380.350489,21.9930148 380.656861,22.143702 380.656861,22.9190826 C380.656861,23.4589232 380.350489,23.6900744 379.270126,24.2386928 C377.481737,25.2393728 374.066206,28.3423585 374.066206,29.3415755 C374.066206,30.0394181 374.995582,30.0394181 375.539429,30.0394181 L382.52001,30.0394181 C385.700998,30.0394181 386.085062,30.0394181 386.706601,29.5025036 C387.253379,29.0387381 389.4229,26.0162164 390.201289,26.0162164 C390.513524,26.0162164 396.09711,29.884342 396.09711,31.1249511 C396.09711,32.131483 395.704251,32.131483 392.137734,32.131483 L370.498223,32.131483 C368.173317,32.131483 368.173317,33.0619398 368.173317,36.0829985 C368.173317,38.0945993 368.173317,39.1830583 370.338441,39.1830583 L376.776642,39.1830583 C380.193638,39.1830583 380.579168,39.1830583 381.672724,37.9365972 C383.919938,35.3076178 384.147152,35.0033175 385.007631,35.0033175 C386.322537,35.0033175 390.978212,38.788053 390.978212,40.0286621 C390.978212,41.2663452 389.575353,41.2663452 387.095062,41.2663452 L370.108295,41.2663452 C368.173317,41.2663452 368.173317,41.8895757 368.173317,45.449012 C368.173317,46.3838577 368.173317,47.3830747 370.029137,47.3830747 L385.77869,47.3830747 C387.635977,47.3830747 388.959678,47.3830747 389.575353,47.1519235 C390.278982,46.8403083 392.913191,43.280872 393.846965,43.280872 C394.61949,43.280872 400.519709,47.0773114 400.519709,48.3866807 C400.519709,49.4751396 398.968795,49.4751396 396.403482,49.4751396 L373.756903,49.4751396 Z" id="Fill-7" fill="#FFFFFF"></path>
                    <path d="M463.733572,2.83960016 C464.831403,2.83960016 475.575725,5.46025855 475.575725,9.92745524 C475.575725,13.0908707 473.010685,13.0908707 472.388189,13.0908707 C471.519931,13.0908707 471.369825,12.8609629 469.737795,10.5415129 C468.407448,8.69351948 465.136029,4.53626184 463.733572,3.69520656 C463.511357,3.53805437 463.190543,3.23102554 463.272954,3.07823868 C463.272954,2.91963137 463.58641,2.83960016 463.733572,2.83960016 L463.733572,2.83960016 Z M440.451021,39.0355343 C439.907992,39.0355343 438.586474,39.1155655 438.275961,40.3422257 C438.119969,41.1221662 437.805042,49.2009532 437.805042,53.9024231 C437.805042,58.5966174 437.805042,59.3678272 439.132446,59.3678272 C440.293557,59.3678272 457.895643,55.4390223 458.050163,55.4390223 C458.125216,55.4390223 458.444558,55.4390223 458.444558,55.6674751 C458.444558,56.4386849 447.301427,60.9844577 437.57694,64.0591113 C426.198349,67.6066766 424.252863,68.2178241 423.321326,68.8391573 C422.851878,69.0734305 421.216904,71 420.748928,71 C419.89833,71 417.714441,62.908117 417.714441,62.6723887 C417.714441,62.3682701 417.948429,62.2882389 420.36042,62.0612413 C421.683409,61.9113646 430.407192,60.9844577 431.110628,60.5217318 C431.572717,60.2205234 431.731653,59.8276429 431.81112,59.4434931 C431.88323,58.8279803 431.964169,49.3581054 431.964169,48.4311985 C431.964169,47.8171408 431.88323,41.2691326 431.88323,40.9591936 C431.81112,39.1155655 430.407192,39.1155655 429.630175,39.1155655 C426.901785,39.1155655 424.096871,39.1155655 422.539894,39.3483836 C422.380958,39.3483836 421.608356,39.4924397 421.452364,39.4924397 C421.135965,39.4924397 420.978502,39.2654421 420.748928,38.9613235 L419.268475,37.1904511 C418.960906,36.8790569 418.88291,36.7990257 418.88291,36.6506042 C418.88291,36.5793037 419.038902,36.4919969 419.187536,36.4919969 C419.739395,36.4919969 422.151385,36.7277252 422.616418,36.7990257 C426.198349,36.9605432 429.705227,37.0405745 433.285687,37.0405745 L439.440015,37.0405745 C441.623904,37.0405745 442.636381,37.0405745 443.182353,36.7990257 C444.035895,36.4206963 446.364003,32.7203442 447.154265,32.7203442 C448.315375,32.7203442 452.831787,37.0405745 452.831787,38.0373268 C452.831787,39.0355343 451.279225,39.0355343 448.631774,39.0355343 L440.451021,39.0355343 Z M450.962826,18.7861828 C452.287286,18.7861828 452.600742,18.5562749 452.600742,17.862186 C452.600742,17.2481284 451.348391,9.08348974 451.126176,7.85537443 C450.962826,7.00267825 450.034231,3.07823868 450.034231,2.22845273 C450.034231,2 450.338857,2 450.580203,2 C451.348391,2 453.613219,2.31139417 456.032568,2.83960016 C458.050163,3.23102554 459.068526,3.53805437 459.068526,4.53626184 C459.068526,4.99898775 458.987587,5.07319851 458.287095,5.8487737 C457.43061,6.69855965 457.43061,7.07688901 457.43061,10.6244543 C457.510077,18.7861828 458.125216,18.7861828 460.079532,18.7861828 L469.11677,18.7861828 C472.698701,18.7861828 473.085738,18.7861828 474.101158,17.4794913 C476.517564,14.2389548 476.75008,13.931926 477.521211,13.931926 C478.694094,13.931926 485,18.3991227 485,19.7101795 C485,20.864084 483.60343,20.864084 480.872097,20.864084 L460.229637,20.864084 C458.912534,20.864084 458.444558,21.0168709 458.444558,22.0965647 C458.444558,22.9434404 459.997121,30.7966849 461.557041,35.7309728 C466.381022,50.5934963 474.876704,60.2961893 477.216585,60.2961893 C478.299699,60.2961893 479.625632,58.0567705 480.63958,56.207322 C481.028089,55.5132331 482.505599,52.1286404 482.898522,52.1286404 C483.133982,52.1286404 483.133982,52.5186107 483.133982,52.6655771 C483.133982,52.8954849 482.12592,61.2172758 482.12592,62.8324511 C482.12592,64.144963 482.349607,64.8346865 482.973575,65.9885911 C483.60343,67.1512263 483.755007,67.5324659 483.755007,68.1436133 C483.755007,69.763154 482.663062,70.0672726 481.730053,70.0672726 C474.876704,70.0672726 458.594664,53.669605 453.613219,24.1744659 C453.157016,21.3268099 452.989251,20.864084 451.040822,20.864084 L430.012797,20.864084 C428.227718,20.864084 422.93576,20.864084 420.205899,21.0168709 C419.89833,21.0969021 418.807857,21.2438685 418.489987,21.2438685 C418.258942,21.2438685 418.101478,21.0168709 417.863075,20.709842 L416.304626,18.9389696 C416,18.6333959 416,18.5562749 416,18.4762437 C416,18.3234568 416.080939,18.2463359 416.304626,18.2463359 C416.856485,18.2463359 419.268475,18.4762437 419.739395,18.5562749 C423.321326,18.7061515 426.735492,18.7861828 430.407192,18.7861828 L450.962826,18.7861828 Z" id="Fill-9" fill="#FFFFFF"></path>
                    <path d="M300,112.200028 C300,93.8258438 305.361829,86 317.899481,86 C321.455753,86 325.689812,87.0813727 327.939727,88.5638752 L328.694855,89.0595679 L327.64302,93.1791555 L326.354944,92.4135009 C324.556418,91.3123005 321.407943,90.1714447 317.899481,90.1714447 C309.633855,90.1714447 304.149687,93.9021042 304.149687,112.200028 C304.149687,131.830984 309.458081,135.775173 318.024633,135.775173 C321.059206,135.775173 323.839257,134.977489 326.539155,133.33484 L327.730204,132.60274 L329,136.423387 L328.205499,136.957209 C325.374824,138.804237 321.347476,140 317.899481,140 C305.361829,140 300,131.687615 300,112.200028" id="Fill-11" fill="#FFFFFF"></path>
                    <path d="M364.624077,112.932889 C364.624077,93.5713479 360.248154,90.1700373 351.059317,90.1700373 C341.819422,90.1700373 337.431485,93.5713479 337.431485,112.932889 C337.431485,132.230369 342.02215,135.776579 351.059317,135.776579 C360.05744,135.776579 364.624077,132.230369 364.624077,112.932889 M333,112.932889 C333,93.2983279 337.880491,86 351.059317,86 C364.29821,86 369,93.0390351 369,112.932889 C369,132.680319 364.145038,140 351.059317,140 C337.880491,140 333,132.680319 333,112.932889" id="Fill-13" fill="#FFFFFF"></path>
                    <polygon id="Fill-15" fill="#FFFFFF" points="381 137 381 86 385.020989 86 385.020989 132.81072 406 132.81072 405.725214 137"></polygon>
                    <path d="M439.639458,112.932889 C439.639458,93.5713479 435.260897,90.1700373 426.080334,90.1700373 C416.827696,90.1700373 412.429614,93.5713479 412.429614,112.932889 C412.429614,132.230369 417.03341,135.776579 426.080334,135.776579 C435.073201,135.776579 439.639458,132.230369 439.639458,112.932889 M408,112.932889 C408,93.2983279 412.904108,86 426.080334,86 C439.310615,86 444,93.0390351 444,112.932889 C444,132.680319 439.160459,140 426.080334,140 C412.904108,140 408,132.680319 408,112.932889" id="Fill-17" fill="#FFFFFF"></path>
                    <path d="M457.517269,90.0496683 L457.517269,109.493715 L467.328381,109.493715 C474.05766,109.493715 476.679358,106.720234 476.679358,99.5795216 C476.679358,92.7281774 474.157025,90.0496683 467.667749,90.0496683 L457.517269,90.0496683 Z M453,137 L453,86 L467.667749,86 C476.732862,86 481.133951,90.4236208 481.133951,99.5127444 C481.133951,107.349424 477.882434,111.882856 471.457364,113.012133 L485,137 L479.602207,137 L466.652701,113.491446 L457.517269,113.491446 L457.517269,137 L453,137 Z" id="Fill-19" fill="#FFFFFF"></path>
                    <mask id="mask-2" fill="white">
                        <use xlink:href="#path-1"></use>
                    </mask>
                    <g id="Clip-22"></g>
                    <polygon id="Fill-21" fill="#FFFFFF" mask="url(#mask-2)" points="10 137 14 137 14 86 10 86"></polygon>
                    <polygon id="Fill-23" fill="#FFFFFF" mask="url(#mask-2)" points="26 137 26 86 30.0143062 86 30.0143062 132.812735 51 132.812735 50.7003425 137"></polygon>
                    <polygon id="Fill-24" fill="#FFFFFF" mask="url(#mask-2)" points="58 137 58 86 62.0212108 86 62.0212108 132.812735 83 132.812735 82.7321034 137"></polygon>
                    <path d="M91,120.842651 L91,86 L95.449183,86 L95.449183,120.924619 C95.449183,131.249513 99.2115281,135.643315 108.042737,135.643315 C116.712157,135.643315 120.556922,131.101043 120.556922,120.924619 L120.556922,86 L125,86 L125,120.842651 C125,133.547715 119.282456,140 108.042737,140 C96.729754,140 91,133.547715 91,120.842651" id="Fill-25" fill="#FFFFFF" mask="url(#mask-2)"></path>
                    <polygon id="Fill-26" fill="#FFFFFF" mask="url(#mask-2)" points="134 137 134 86 138.45862 86 153.558175 129.843043 154.122684 128.080531 168.677839 86 173 86 173 137 169.032632 137 169.032632 96.8661018 155.175574 137 151.781334 137 137.984605 97.2373133 137.984605 137"></polygon>
                    <polygon id="Fill-27" fill="#FFFFFF" mask="url(#mask-2)" points="189 137 193 137 193 86 189 86"></polygon>
                    <polygon id="Fill-28" fill="#FFFFFF" mask="url(#mask-2)" points="205 137 205 86 209.293292 86 233.003304 128.196349 233.001835 127.596471 232.922547 86 237 86 237 137 233.573002 137 209.203726 94.0122281 209.203726 94.7145602 209.203726 137"></polygon>
                    <polygon id="Fill-29" fill="#FFFFFF" mask="url(#mask-2)" points="244 122.752904 245.397987 118.696305 265.21511 118.696305 257.113882 94.4799546 255.347926 88.7142982 256.219821 86 258.62418 86 276 137 271.313937 137 266.553985 122.752904"></polygon>
                    <path d="M21.9696666,23.5311091 L17.916255,42.9939035 L33.7662087,42.9939035 L37.8210868,23.5311091 L21.9696666,23.5311091 Z M43.0403674,23.5311091 L39.1702686,42.9939035 L52.0476227,42.9939035 L52.0476227,48.656986 L37.8210868,48.656986 L33.6782186,69 L28.2741587,69 L32.5064835,48.656986 L16.6550633,48.656986 L12.5195276,69 L7.11400123,69 L11.4328496,48.656986 L0,48.656986 L0,42.9939035 L12.5195276,42.9939035 L16.6550633,23.5311091 L5.13129052,23.5311091 L5.13129052,17.8694672 L17.916255,17.8694672 L21.6968972,0 L26.8340537,0 L23.2308583,17.8694672 L39.080812,17.8694672 L42.8629207,0 L48.0851343,0 L44.3030256,17.8694672 L57,17.8694672 L57,23.5311091 L43.0403674,23.5311091 Z" id="Fill-30" fill="#FFFFFF" mask="url(#mask-2)"></path>
                    <path d="M558,139.885835 C558,140.322506 557.928261,142 556.93737,142 C553.181546,142 547.724917,137.334999 545.813378,135.657505 C525.901387,118.455122 524.060092,116.92216 517.328605,116.92216 C511.021572,116.92216 507.338983,121.660965 507.338983,126.618105 C507.338983,130.992504 510.242908,134.782625 513.290311,134.782625 C513.502538,134.782625 514.423185,134.782625 515.415572,134.053815 C516.760673,133.106669 517.540832,132.522391 518.81569,132.522391 C520.870707,132.522391 522.643252,134.273688 522.643252,136.458582 C522.643252,138.938689 520.516497,140.614645 517.824798,140.614645 C511.801731,140.614645 505,134.199885 505,124.942149 C505,117.069767 509.958942,110.362868 518.320991,110.362868 C525.618916,110.362868 529.657211,114.955603 534.687891,121.15049 C543.616378,132.159523 550.205882,136.094176 551.552479,136.094176 C552.613615,136.094176 552.613615,133.763214 552.613615,133.471074 L552.613615,125.961561 C552.613615,118.599654 550.630337,114.371324 545.953866,112.330963 C543.333907,111.163944 543.262168,111.163944 543.262168,110.727273 C543.262168,110 544.112571,110 544.254554,110 C544.820991,110 553.961705,112.330963 555.44879,112.695368 C558,113.351912 558,115.902748 558,117.069767 L558,139.885835 Z" id="Fill-31" fill="#FFFFFF" mask="url(#mask-2)"></path>
                    <path d="M509.27957,89 C509.27957,98.4587044 530.009955,98.5997 533.534252,98.5997 C536.366224,98.5997 557.787476,98.5997 557.719137,89 C557.719137,79.5427955 537.125595,79.4003 533.534252,79.4003 C530.630861,79.4003 509.27957,79.4003 509.27957,89 M560,89 C560,100.236149 546.246789,105 533.534252,105 C520.680334,105 507,100.164151 507,89 C507.067046,77.48036 521.372659,73 533.534252,73 C545.762891,73 560,77.5508578 560,89" id="Fill-32" fill="#FFFFFF" mask="url(#mask-2)"></path>
                    <path d="M558,68.8858351 C558,69.3225062 557.928261,71 556.93737,71 C553.181546,71 547.724917,66.334999 545.813378,64.6575053 C525.901387,47.455122 524.060092,45.9221603 517.328605,45.9221603 C511.021572,45.9221603 507.338983,50.6609648 507.338983,55.6181049 C507.338983,59.9925043 510.242908,63.7826254 513.290311,63.7826254 C513.502538,63.7826254 514.423185,63.7826254 515.415572,63.0538151 C516.760673,62.1066692 517.540832,61.5223909 518.81569,61.5223909 C520.870707,61.5223909 522.643252,63.2736883 522.643252,65.4585816 C522.643252,67.9386892 520.516497,69.6146454 517.824798,69.6146454 C511.801731,69.6146454 505,63.1998847 505,53.9421488 C505,46.0697674 509.958942,39.3628676 518.320991,39.3628676 C525.618916,39.3628676 529.657211,43.9556025 534.687891,50.1504901 C543.616378,61.1595234 550.205882,65.0941764 551.552479,65.0941764 C552.613615,65.0941764 552.613615,62.7632135 552.613615,62.4710744 L552.613615,54.9615606 C552.613615,47.599654 550.630337,43.3713242 545.953866,41.3309629 C543.333907,40.1639439 543.262168,40.1639439 543.262168,39.7272727 C543.262168,39 544.112571,39 544.254554,39 C544.820991,39 553.961705,41.3309629 555.44879,41.6953681 C558,42.3519124 558,44.9027484 558,46.0697674 L558,68.8858351 Z" id="Fill-33" fill="#FFFFFF" mask="url(#mask-2)"></path>
                    <path d="M509.27957,18 C509.27957,27.4587044 530.009955,27.5997 533.534252,27.5997 C536.366224,27.5997 557.787476,27.5997 557.719137,18 C557.719137,8.54279554 537.125595,8.40029999 533.534252,8.40029999 C530.630861,8.40029999 509.27957,8.40029999 509.27957,18 M560,18 C560,29.2361489 546.246789,34 533.534252,34 C520.680334,34 507,29.1641511 507,18 C507.067046,6.48035999 521.372659,2 533.534252,2 C545.762891,2 560,6.55085779 560,18" id="Fill-34" fill="#FFFFFF" mask="url(#mask-2)"></path>
                </g>
            </g>
        </g>
    </g>
</svg>