<?xml version="1.0" encoding="UTF-8"?>
<svg width="60px" height="64px" viewBox="0 0 60 64" version="1.1" xmlns="http://www.w3.org/2000/svg" xmlns:xlink="http://www.w3.org/1999/xlink">
    <!-- Generator: Sketch 61 (89581) - https://sketch.com -->
    <title>Combined Shape</title>
    <desc>Created with Sketch.</desc>
    <defs>
        <linearGradient x1="0%" y1="50%" x2="100%" y2="50%" id="linearGradient-1">
            <stop stop-color="#FFC79B" offset="0%"></stop>
            <stop stop-color="#FFA1A2" offset="22.6561137%"></stop>
            <stop stop-color="#FFA1CF" offset="37.1701174%"></stop>
            <stop stop-color="#EDB4FB" offset="60.0308926%"></stop>
            <stop stop-color="#85E0FF" offset="100%"></stop>
        </linearGradient>
    </defs>
    <g id="Page-1" stroke="none" stroke-width="1" fill="none" fill-rule="evenodd">
        <g id="3-PC-MyNavi" transform="translate(-688.000000, -1432.000000)" fill="url(#linearGradient-1)">
            <path d="M712.843676,1480.94118 C713.19065,1480.94118 713.471744,1481.23127 713.471744,1481.58902 C713.471744,1483.35032 713.861701,1484.80477 714.570124,1485.86536 L714.570124,1485.86536 L715.06407,1486.4873 C715.880322,1487.34966 716.982838,1487.82275 718.309432,1487.82275 C718.656406,1487.82275 718.9375,1488.11284 718.9375,1488.47059 C718.9375,1488.82833 718.656406,1489.11843 718.309432,1489.11843 C716.982838,1489.11843 715.880322,1489.59151 715.06407,1490.45388 L715.06407,1490.45388 L714.570124,1491.07582 C713.861701,1492.13641 713.471744,1493.59086 713.471744,1495.35216 C713.471744,1495.7099 713.19065,1496 712.843676,1496 C712.496703,1496 712.215608,1495.7099 712.215608,1495.35216 C712.215608,1493.5907 711.825503,1492.13611 711.117228,1491.07552 L711.117228,1491.07552 L710.623577,1490.45403 C709.807178,1489.59167 708.704809,1489.11843 707.378068,1489.11843 C707.031094,1489.11843 706.75,1488.82833 706.75,1488.47059 C706.75,1488.11284 707.031094,1487.82275 707.378068,1487.82275 C708.704809,1487.82275 709.807326,1487.34951 710.623577,1486.48714 L710.623577,1486.48714 L711.117228,1485.86566 C711.825503,1484.80507 712.215608,1483.35047 712.215608,1481.58902 C712.215608,1481.23127 712.496703,1480.94118 712.843676,1480.94118 Z M737.218619,1456.47059 C737.832496,1456.47059 738.329816,1456.92386 738.329816,1457.48284 C738.329816,1460.23488 739.019741,1462.50745 740.273104,1464.16462 L740.273104,1464.16462 L741.147009,1465.1364 C742.591147,1466.48385 744.541752,1467.22304 746.888803,1467.22304 C747.502679,1467.22304 748,1467.67632 748,1468.23529 C748,1468.79427 747.502679,1469.24755 746.888803,1469.24755 C744.541752,1469.24755 742.591147,1469.98674 741.147009,1471.33419 L741.147009,1471.33419 L740.273104,1472.30597 C739.019741,1473.96314 738.329816,1476.23571 738.329816,1478.98775 C738.329816,1479.54672 737.832496,1480 737.218619,1480 C736.604743,1480 736.107422,1479.54672 736.107422,1478.98775 C736.107422,1476.23548 735.417236,1473.96267 734.164134,1472.30549 L734.164134,1472.30549 L733.290752,1471.33443 C731.846353,1469.98698 729.896009,1469.24755 727.548697,1469.24755 C726.934821,1469.24755 726.4375,1468.79427 726.4375,1468.23529 C726.4375,1467.67632 726.934821,1467.22304 727.548697,1467.22304 C729.896009,1467.22304 731.846614,1466.48361 733.290752,1465.13616 L733.290752,1465.13616 L734.164134,1464.16509 C735.417236,1462.50792 736.107422,1460.23511 736.107422,1457.48284 C736.107422,1456.92386 736.604743,1456.47059 737.218619,1456.47059 Z M704.406051,1432 C705.340211,1432 706.097003,1432.72524 706.097003,1433.61961 C706.097003,1438.02286 707.146889,1441.65897 709.05418,1444.31045 L709.05418,1444.31045 L710.384035,1445.8653 C712.581637,1448.02122 715.549949,1449.20392 719.121548,1449.20392 C720.055708,1449.20392 720.8125,1449.92917 720.8125,1450.82353 C720.8125,1451.71789 720.055708,1452.44313 719.121548,1452.44313 C715.549949,1452.44313 712.581637,1453.62584 710.384035,1455.78176 L710.384035,1455.78176 L709.05418,1457.33661 C707.146889,1459.98809 706.097003,1463.6242 706.097003,1468.02745 C706.097003,1468.92182 705.340211,1469.64706 704.406051,1469.64706 C703.471892,1469.64706 702.715099,1468.92182 702.715099,1468.02745 C702.715099,1463.62382 701.664816,1459.98733 699.757922,1457.33585 L699.757922,1457.33585 L698.428862,1455.78214 C696.230863,1453.62622 693.262949,1452.44313 689.690952,1452.44313 C688.756792,1452.44313 688,1451.71789 688,1450.82353 C688,1449.92917 688.756792,1449.20392 689.690952,1449.20392 C693.262949,1449.20392 696.231261,1448.02084 698.428862,1445.86492 L698.428862,1445.86492 L699.757922,1444.31121 C701.664816,1441.65973 702.715099,1438.02324 702.715099,1433.61961 C702.715099,1432.72524 703.471892,1432 704.406051,1432 Z" id="Combined-Shape"></path>
        </g>
    </g>
</svg>