<svg xmlns="http://www.w3.org/2000/svg" viewBox="0 0 644 322" width="644" height="322">
<path fill="none" stroke="#5a498e" stroke-width="2px" d="M597.59,188.7,608,198.2l-10.45,9.49"/>
<path fill="#5a498e" d="M544.79,115.71H535a.18.18,0,0,0-.2.2v31.15a.44.44,0,0,1-.5.5h-2.55a.44.44,0,0,1-.5-.5V115.91a.18.18,0,0,0-.2-.2h-9.4a.44.44,0,0,1-.5-.5v-2.15a.44.44,0,0,1,.5-.5h23.15a.44.44,0,0,1,.5.5v2.15A.44.44,0,0,1,544.79,115.71Zm-42.1,20.8,2.55.15c.33,0,.5.15.5.45a11,11,0,0,1-1.48,5.72,10,10,0,0,1-4.12,3.83A13.39,13.39,0,0,1,494,148a13.09,13.09,0,0,1-6.15-1.38,9.9,9.9,0,0,1-4.13-3.9,11.34,11.34,0,0,1-1.47-5.82V123.16a11.13,11.13,0,0,1,1.47-5.75,10,10,0,0,1,4.13-3.88,13.21,13.21,0,0,1,6.15-1.37,13.39,13.39,0,0,1,6.15,1.35,10,10,0,0,1,4.12,3.8,10.77,10.77,0,0,1,1.48,5.65.54.54,0,0,1-.15.4.49.49,0,0,1-.35.15l-2.55.15c-.34,0-.5-.15-.5-.45v-.15a7.45,7.45,0,0,0-2.25-5.68,8.35,8.35,0,0,0-5.95-2.12,8.26,8.26,0,0,0-5.95,2.15,7.46,7.46,0,0,0-2.25,5.65v14a7.46,7.46,0,0,0,2.25,5.65,9.34,9.34,0,0,0,11.9,0,7.41,7.41,0,0,0,2.25-5.67V137C502.19,136.66,502.35,136.51,502.69,136.51Zm-44,10.05a13.45,13.45,0,0,1-6.25,1.4,13.3,13.3,0,0,1-6.2-1.4,10.22,10.22,0,0,1-4.2-3.93,11.27,11.27,0,0,1-1.5-5.87v-23.7a.44.44,0,0,1,.5-.5h2.55a.44.44,0,0,1,.5.5v23.8a7.63,7.63,0,0,0,2.3,5.77,9.32,9.32,0,0,0,12.1,0,7.67,7.67,0,0,0,2.3-5.77v-23.8a.44.44,0,0,1,.5-.5h2.55a.44.44,0,0,1,.5.5v23.7a11.45,11.45,0,0,1-1.48,5.87A10,10,0,0,1,458.69,146.56Zm-46.35,1h-11.8a.44.44,0,0,1-.5-.5v-34a.44.44,0,0,1,.5-.5h11.8a11.42,11.42,0,0,1,7.87,2.6,9,9,0,0,1,2.93,7v15.7a9,9,0,0,1-2.93,7.05A11.42,11.42,0,0,1,412.34,147.56Zm7.25-24.85a6.56,6.56,0,0,0-7.1-7h-8.7a.18.18,0,0,0-.2.2v28.4a.18.18,0,0,0,.2.2h8.7a7,7,0,0,0,5.17-1.9,6.87,6.87,0,0,0,1.93-5.1ZM376,146.51a13.13,13.13,0,0,1-6.27,1.45,13,13,0,0,1-6.25-1.45,10.27,10.27,0,0,1-4.18-4.08,12.2,12.2,0,0,1-1.47-6.07v-12.6a12.24,12.24,0,0,1,1.47-6.08,10.24,10.24,0,0,1,4.18-4.07,13,13,0,0,1,6.25-1.45,13.13,13.13,0,0,1,6.27,1.45,10.17,10.17,0,0,1,4.2,4.07,12.25,12.25,0,0,1,1.48,6.08v12.6a12.21,12.21,0,0,1-1.48,6.07A10.2,10.2,0,0,1,376,146.51Zm2.13-22.8a8.36,8.36,0,0,0-2.3-6.13,8.21,8.21,0,0,0-6.1-2.32,8.12,8.12,0,0,0-6.05,2.32,8.32,8.32,0,0,0-2.3,6.13v12.8a8.38,8.38,0,1,0,16.75,0Zm-36.75,23.85h-2.65a.59.59,0,0,1-.6-.35l-7.35-15.5a.2.2,0,0,0-.2-.15h-8.5a.18.18,0,0,0-.2.2v15.3a.44.44,0,0,1-.5.5h-2.55a.44.44,0,0,1-.5-.5v-34a.44.44,0,0,1,.5-.5h13a9.38,9.38,0,0,1,6.95,2.67,10.4,10.4,0,0,1,.75,12.93,8.63,8.63,0,0,1-5.15,3.15c-.14.07-.17.15-.1.25l7.5,15.4a.62.62,0,0,1,.05.25C341.79,147.44,341.65,147.56,341.39,147.56Zm-5.3-20.65a6.36,6.36,0,0,0,1.8-4.7,6.46,6.46,0,0,0-1.8-4.73,6.34,6.34,0,0,0-4.7-1.82h-9.3a.18.18,0,0,0-.2.2v12.65a.18.18,0,0,0,.2.2h9.3A6.36,6.36,0,0,0,336.09,126.91ZM291.89,132h-9.75a.18.18,0,0,0-.2.2v14.9a.44.44,0,0,1-.5.5h-2.55a.44.44,0,0,1-.5-.5V113a.44.44,0,0,1,.5-.5H292a9.5,9.5,0,0,1,7.07,2.7,9.67,9.67,0,0,1,2.68,7.1,9.32,9.32,0,0,1-2.73,7A9.84,9.84,0,0,1,291.89,132Zm4.55-14.5a6.53,6.53,0,0,0-4.8-1.85h-9.5a.18.18,0,0,0-.2.2v13a.18.18,0,0,0,.2.2h9.5a6.55,6.55,0,0,0,4.8-1.83,6.46,6.46,0,0,0,1.85-4.82A6.64,6.64,0,0,0,296.44,117.46Z"/>
<path fill="#5a498e" d="M568.79,192a27,27,0,0,1-3.67-1.52L566,189a28.55,28.55,0,0,0,8.13,2.66l-.67,1.68A38.36,38.36,0,0,1,568.79,192Zm-5.09,8a3.5,3.5,0,0,1-.09.55l0,0a8,8,0,0,1,.75-.72,11.92,11.92,0,0,1,6.94-2.06c3.91,0,6.43,1.82,6.43,4.63a5.14,5.14,0,0,1-2.16,4.13,10,10,0,0,1-6,1.58,19.81,19.81,0,0,1-4.2-.43l-1.92-.48c0-.22,0-.36,0-.45a5.65,5.65,0,0,0-.16-1.49,17.1,17.1,0,0,0,6.12,1.2c4,0,6.48-1.59,6.48-4,0-2-1.73-3.13-4.66-3.13a11.62,11.62,0,0,0-6.72,2.09,4.34,4.34,0,0,0-1,1l-1.87,0c.07-.43.09-.65.19-1.42.24-1.82.67-4.61,1-6.62a9,9,0,0,0,.17-1.27l1.82.12a21.8,21.8,0,0,0-.55,2.64C563.82,199.33,563.77,199.5,563.7,200.05Zm-16.84-1.64c3.79,0,6.21,1.73,6.21,4.42,0,3.26-3.19,5.4-8,5.4a17.93,17.93,0,0,1-5.93-.94,2.06,2.06,0,0,0,0-.38v-.14c0-.12,0-.55-.12-1.32a14.72,14.72,0,0,0,6,1.2c3.79,0,6.29-1.51,6.29-3.82,0-1.82-1.73-2.93-4.61-2.93a13,13,0,0,0-5.57,1.3,5.21,5.21,0,0,0-2,1.53l-1.73-.69a35.34,35.34,0,0,0,3.22-7.83c-1.54,0-2.59-.07-4-.16a6.63,6.63,0,0,0-.68,0h-.19l0-1.7a21.82,21.82,0,0,0,5.19.41,18.7,18.7,0,0,0,.76-4.3l1.92.19a11.74,11.74,0,0,0-.38,1.54c-.34,1.39-.41,1.68-.65,2.54,4.71-.17,7.9-.5,9.46-1l.12,1.73c-.41,0-.55,0-1.06.12a80.72,80.72,0,0,1-8.9.69,32.3,32.3,0,0,1-2.4,6.17l0,.05A12.31,12.31,0,0,1,546.86,198.41Zm-26,9.08a16.83,16.83,0,0,1-5.52-.75,3.81,3.81,0,0,1-2.73-3.62c0-1.56.91-3.07,2.76-4.63l1.22.91c-1.56,1.29-2.28,2.4-2.28,3.53s.7,1.89,2,2.35a15.36,15.36,0,0,0,4.39.48,22.82,22.82,0,0,0,7.2-.91l.22,2a6.24,6.24,0,0,0-.82.11A39,39,0,0,1,520.86,207.49ZM519.38,195a36.68,36.68,0,0,1,3.19-2c.26-.15.31-.17.6-.32a4.26,4.26,0,0,0,.45-.24,18.94,18.94,0,0,1-3.62.32,45.11,45.11,0,0,1-5.28-.32,7.08,7.08,0,0,0-.79-.07l.14-1.7a27.4,27.4,0,0,0,6.39.57,26.1,26.1,0,0,0,6.07-.5l.12,1.58a34.7,34.7,0,0,0-6,3.65Zm-17.67,9.26a1.14,1.14,0,0,1-.24-.14l-.21-.15a4.91,4.91,0,0,1-.24,2.26c-.58,1.27-2,2-4,2-2.79,0-4.54-1.32-4.54-3.41s1.9-3.41,4.56-3.41a6.78,6.78,0,0,1,2.67.48c-.08-.5-.17-2.76-.24-6.26-1.08,0-1.83.07-2.74.07s-1.87,0-2.71-.07a6.05,6.05,0,0,0-.77-.05,2.9,2.9,0,0,0-.41,0l-.24,0h-.09l0-1.68a16.59,16.59,0,0,0,4.32.38c.94,0,1.59,0,2.57-.07,0-2.25,0-2.25,0-4.08a6.1,6.1,0,0,0-.07-1h1.8a24.44,24.44,0,0,0-.17,3.77c0,.26,0,.64,0,1.17a15.78,15.78,0,0,0,4.15-.89l.08,1.64-1.68.33a22.93,22.93,0,0,1-2.55.39c0,2.37.07,3.6.27,6.79a17.06,17.06,0,0,1,4,2.35l.6.41-.74,1.68A12.94,12.94,0,0,0,501.71,204.22Zm-2-.89a6.25,6.25,0,0,0-2.57-.5c-1.87,0-3.09.79-3.09,2s1.1,2,2.78,2a3.35,3.35,0,0,0,2.45-.84,2.84,2.84,0,0,0,.45-1.88C499.74,203.89,499.72,203.33,499.72,203.33Zm-11.33,1.32v.46l.1,0a21.4,21.4,0,0,1,1.41-4.23,2.36,2.36,0,0,0,.19-.48l1.18.55a20.63,20.63,0,0,0-2.06,6.82,3.16,3.16,0,0,0,0,.48l-1.7.17c0-.22-.05-.34-.14-.89a37.49,37.49,0,0,1-.68-7.13,41,41,0,0,1,1.25-9.86,11.91,11.91,0,0,0,.27-1.52l1.87.32a34.24,34.24,0,0,0-1.85,11.25c0,.84.05,2.26.1,3.36C488.37,204.18,488.37,204.22,488.39,204.65Zm-7.22,4.85h-1.59V208h-8.35v1.56h-1.58a22.14,22.14,0,0,0,.14-2.64v-15c0-1.13,0-1.94-.09-2.66a19.94,19.94,0,0,0,2.37.09h6.63a19,19,0,0,0,2.42-.09A26.89,26.89,0,0,0,481,192v14.88A19.94,19.94,0,0,0,481.17,209.5Zm-6.6-18.81h-3.36v7h3.36Zm0,8.32h-3.36v7.61h3.36Zm5-8.32H476v7h3.65Zm0,8.35H476v7.58h3.65Zm-12-3.58a29.2,29.2,0,0,1,1.83,4.68l-1.23.58c-.16-.77-.24-1-.38-1.51-1,.14-1.18.16-2.19.26v7.8a15.51,15.51,0,0,0,.15,2.4h-1.71a16,16,0,0,0,.15-2.4v-7.66c-.94.08-1.63.12-2.43.17a8.36,8.36,0,0,0-1.34.15l-.22-1.54a5.61,5.61,0,0,0,.94.07l1,0c.79-1,1.1-1.44,1.68-2.28a33.24,33.24,0,0,0-3.48-3.79l.86-1.13c.58.57.65.65,1.08,1.1a15.94,15.94,0,0,0,2.14-4.49l1.51.6a10.71,10.71,0,0,0-.6,1.08,41.9,41.9,0,0,1-2.16,3.77c.72.82.75.87,1.44,1.71a21.07,21.07,0,0,0,2.38-4.18l1.42.77a11.49,11.49,0,0,0-.7,1c-1.3,2-2.88,4.3-4,5.74,1.68-.12,2.4-.19,3.72-.36-.31-.79-.46-1.08-.91-2Zm-4.73,5.91c-.38,3.77-.57,4.72-1.34,6.79l-1.32-.65a16.47,16.47,0,0,0,1.3-6.38Zm-7.75,2.35h-3.91V207a20.7,20.7,0,0,0,.15,2.62h-1.76a18.59,18.59,0,0,0,.15-2.62v-3.31h-3.07a11.93,11.93,0,0,0-2.21.12v-1.63a15.64,15.64,0,0,0,2.23.12h3.05v-3.72h-2.4a9.85,9.85,0,0,0-2,.12v-1.56a12.12,12.12,0,0,0,2,.12h2.4V194h-2.91a13.26,13.26,0,0,0-2.13.12v-1.61a11.27,11.27,0,0,0,2,.12h5a21.39,21.39,0,0,0,2-4.51l1.56.6a28,28,0,0,1-2.11,3.91h1.48a11.91,11.91,0,0,0,2.14-.12v1.61a13.36,13.36,0,0,0-2.21-.12h-3.48v3.27h2.91a12.57,12.57,0,0,0,2.18-.12v1.56a12,12,0,0,0-2.16-.12h-2.93v3.72h3.87a22.14,22.14,0,0,0,2.28-.12v1.65A15.94,15.94,0,0,0,455.1,203.72Zm-9.36-14.93,1.32-.62a24.84,24.84,0,0,1,2,3.52l-1.34.68A14.19,14.19,0,0,0,445.74,188.79Zm-3.33,4.85H437.8a14.49,14.49,0,0,0-1.92.09v-1.56a9.92,9.92,0,0,0,1.92.12h4.44a9.5,9.5,0,0,0,1.92-.12v1.56A10.93,10.93,0,0,0,442.41,193.64Zm-.77-3.39h-3.12a13.88,13.88,0,0,0-1.83.1v-1.51a10.33,10.33,0,0,0,1.83.12h3.12a10.28,10.28,0,0,0,1.82-.12v1.51A13.13,13.13,0,0,0,441.64,190.25Zm-19.27,17.81a3.93,3.93,0,0,0-.84-1.61,14.13,14.13,0,0,0,4-1.12,7.24,7.24,0,0,0,4.24-6.72,6.33,6.33,0,0,0-3.81-6,7,7,0,0,0-2.79-.6,36,36,0,0,1-2.35,9.53c-1.39,3.17-2.81,4.61-4.54,4.61-2.28,0-4-2.5-4-5.86a9.74,9.74,0,0,1,10.27-9.81,9.31,9.31,0,0,1,6.6,2.37,8,8,0,0,1,2.33,5.86A8.74,8.74,0,0,1,426,207,19.17,19.17,0,0,1,422.37,208.06Zm-4.49-14.93a8.3,8.3,0,0,0-3.91,7.16c0,2.3,1,4.08,2.3,4.08,1,0,2-1.13,3-3.48a33.09,33.09,0,0,0,2.19-8.88A7.6,7.6,0,0,0,417.88,193.13Zm-14.74-4.08,1.18-.64a20,20,0,0,1,2.47,3.74l-1.2.7A17.23,17.23,0,0,0,403.14,189.05Zm-.26,5.12a17.51,17.51,0,0,0-2.47-3.82l1.2-.62a17.94,17.94,0,0,1,2.47,3.72Zm-8.54,1.58A63,63,0,0,1,405,200.82l-1,1.77a49.63,49.63,0,0,0-9-4.75,3.15,3.15,0,0,1-.74-.41l-.05,0a8.29,8.29,0,0,1,.1,1.42v7.22a14.46,14.46,0,0,0,.12,2.55h-2.07a15.93,15.93,0,0,0,.15-2.52V191.21a13.89,13.89,0,0,0-.15-2.44h2.07a13.18,13.18,0,0,0-.12,2.49ZM366,207.44a12.11,12.11,0,0,0-1.44.38l-.53-2a21.23,21.23,0,0,0,7-1.85,18.17,18.17,0,0,0,9.79-10.68,4.75,4.75,0,0,0,1.46,1.41,21,21,0,0,1-7.32,9.17A24.12,24.12,0,0,1,366,207.44Zm-1.61-15.22,1.18-1.29a30.89,30.89,0,0,1,5.78,4.51l-1.25,1.49A26,26,0,0,0,364.43,192.22Zm-19.7,16.35a5.37,5.37,0,0,0-1-1.66,16.41,16.41,0,0,0,7.12-3.65,14.65,14.65,0,0,0,3.89-6.29H342.18a23.18,23.18,0,0,0-2.78.12v-1.8a17.13,17.13,0,0,0,2.81.15h12.31a4.12,4.12,0,0,0,1.56-.17l.89,1a6.55,6.55,0,0,0-.67,1.52C354.26,203.41,350.94,206.48,344.73,208.57ZM352,191.45H344a16.89,16.89,0,0,0-2.5.12v-1.84a11.41,11.41,0,0,0,2.52.16h8a11.41,11.41,0,0,0,2.52-.16v1.84A16.8,16.8,0,0,0,352,191.45Zm-20.73-3.86,1.17-.65a21.16,21.16,0,0,1,2.52,3.7l-1.22.72A17.64,17.64,0,0,0,331.29,187.59Zm-.22,4.56.65.86a4.67,4.67,0,0,0-.5,1.49,20,20,0,0,1-5.88,10A22.21,22.21,0,0,1,317.8,209a4.67,4.67,0,0,0-1.18-1.66,18,18,0,0,0,13-14H317.39a17.37,17.37,0,0,0-2.69.14v-1.92a17.15,17.15,0,0,0,2.71.14H329c.5,0,.81,0,1.41,0a16.66,16.66,0,0,0-2.25-3.26l1.2-.63a17.9,17.9,0,0,1,2.59,3.84Zm-25.25,4.35H300.4c-.19,3.36-.62,5.15-1.78,7a13.85,13.85,0,0,1-5.95,5,5.26,5.26,0,0,0-1.22-1.54,11,11,0,0,0,5.95-5c.77-1.44,1-2.66,1.22-5.51H292a23.63,23.63,0,0,0-2.78.11v-1.87a14.29,14.29,0,0,0,2.81.17h6.7c0-.89,0-1.37,0-2.11v-1.73a11.21,11.21,0,0,0-.12-2h2a10.86,10.86,0,0,0-.12,2l0,1.73v2.11h5.33a14.18,14.18,0,0,0,2.81-.17v1.87A23.71,23.71,0,0,0,305.82,196.5Zm-32.66,9.09a71.53,71.53,0,0,0-7.25-1.46l.72-1.61a72.54,72.54,0,0,1,15.34,4l-.67,1.75A40.63,40.63,0,0,0,273.16,205.59Zm7.18-7-.63,1.73a55.86,55.86,0,0,0-11.9-2.93l.69-1.61A77.76,77.76,0,0,1,280.34,198.58Zm-12.1-7.75.69-1.61a75.66,75.66,0,0,1,12.1,2.64l-.62,1.75A62,62,0,0,0,268.24,190.83Zm-16.06,17-.76.29a4.29,4.29,0,0,0-.56.26l-1-1.1a4,4,0,0,0,.17-1.64l.15-14a9.15,9.15,0,0,0-.1-2.13l2,0a9.25,9.25,0,0,0-.15,2.11l-.14,14.5a11,11,0,0,0,4.46-2.78,12,12,0,0,0,2.84-4.8,6.53,6.53,0,0,0,1.34,1.39,13.71,13.71,0,0,1-4.82,6.17A15.8,15.8,0,0,1,252.18,207.8Zm-7.48-5.3a14.68,14.68,0,0,1-4.16,5.92,4.4,4.4,0,0,0-1.44-1.29,11.86,11.86,0,0,0,4.06-5.52c.74-2.09,1.08-5.24,1.08-10.3a10.79,10.79,0,0,0-.1-1.7l2,.12a11.47,11.47,0,0,0-.15,2.06C245.8,198.29,245.61,200.07,244.7,202.5Zm-17.84-6.65v10.22a16.81,16.81,0,0,0,.12,2.55H224.9a12.68,12.68,0,0,0,.14-2.5V197a37.5,37.5,0,0,1-9.27,4.2,5.4,5.4,0,0,0-.93-1.61,33.9,33.9,0,0,0,12.46-6.22,19.91,19.91,0,0,0,4.58-4.53l1.66,1.17a5.41,5.41,0,0,0-1.06,1A41.55,41.55,0,0,1,226.86,195.85Zm209.93,8.42a12.25,12.25,0,0,0-.12-2,14.66,14.66,0,0,0,1.92.1h3.15a10.2,10.2,0,0,0,1.75-.07,18.56,18.56,0,0,0-.07,1.9v3.38a12.18,12.18,0,0,0,.12,1.94h-1.49v-1h-3.87v1.3h-1.53a17.13,17.13,0,0,0,.14-2.33Zm1.37,3h3.89V203.6h-3.89Zm3.7-10.34h-3.32a10.51,10.51,0,0,0-1.73.1v-1.49a11.28,11.28,0,0,0,1.73.09h3.32a10.61,10.61,0,0,0,1.7-.09v1.49A10.57,10.57,0,0,0,441.86,197Zm1.7,3.46a10.42,10.42,0,0,0-1.7-.1h-3.32a10.51,10.51,0,0,0-1.73.1v-1.49a11.28,11.28,0,0,0,1.73.09h3.32a11.25,11.25,0,0,0,1.7-.09Zm25.49,6.31-1.32.36a24.18,24.18,0,0,0-1.18-5.74l1.23-.38A34.13,34.13,0,0,1,469.05,206.72Z"/>
</svg>
