<svg xmlns="http://www.w3.org/2000/svg" viewBox="0 0 540 270" width="540" height="270">
<path fill="none" stroke="#5a498e" d="M407.59,153.82l7.2,6.75-7.2,6.75"/>
<path fill="#5a498e" d="M392.15,157.06a14.42,14.42,0,0,1-1.71-.72l-.37-.16.44-.66a17.11,17.11,0,0,0,4.63,1.54l-.33.78A25.26,25.26,0,0,1,392.15,157.06ZM389,162.3h0a2.07,2.07,0,0,1,.43-.42,7.22,7.22,0,0,1,4.25-1.26c2.13,0,3.57,1.05,3.57,2.61a2.89,2.89,0,0,1-1.25,2.31,5.65,5.65,0,0,1-3.47.94,10.7,10.7,0,0,1-2.79-.37l-.71-.19c0-.16,0-.16,0-.3A2.87,2.87,0,0,0,389,165a9.32,9.32,0,0,0,3.6.72c2.29,0,3.84-1,3.84-2.48,0-1.19-1.06-1.91-2.83-1.91a6.9,6.9,0,0,0-4.05,1.28,2.62,2.62,0,0,0-.53.56l-.92,0c0-.24,0-.35.11-.81.14-1,.35-2.31.6-3.81.06-.37.07-.49.1-.74l.88.07a37.85,37.85,0,0,0-.71,3.93A3.22,3.22,0,0,1,389,162.3Zm-10.78-1.38c2.16,0,3.55,1,3.55,2.5a2.62,2.62,0,0,1-1.12,2.14,5.78,5.78,0,0,1-3.49.94,9.89,9.89,0,0,1-3.39-.56v-.25s0-.2,0-.4V165a8,8,0,0,0,3.46.72c2.24,0,3.74-.93,3.74-2.33,0-1.12-1.05-1.81-2.79-1.81a7.59,7.59,0,0,0-3.48.89,2.49,2.49,0,0,0-1,.8l-.83-.35a21.16,21.16,0,0,0,1.88-4.63c-.9,0-1.43,0-2.39-.09l-.39,0h-.09l0-.81a13.48,13.48,0,0,0,2.76.22h.27a12.38,12.38,0,0,0,.46-2.55l.94.1c-.06.2-.06.2-.23.93s-.23,1-.37,1.51a23.75,23.75,0,0,0,5.53-.6l.07.82-.56.07a45.63,45.63,0,0,1-5.22.42,19.59,19.59,0,0,1-1.49,3.8v0A7.18,7.18,0,0,1,378.2,160.92ZM362.07,166a9.44,9.44,0,0,1-3.17-.42,2.17,2.17,0,0,1-1.57-2.06,3.55,3.55,0,0,1,1.55-2.6l.59.43c-.93.77-1.35,1.43-1.35,2.1a1.53,1.53,0,0,0,1.24,1.46,9,9,0,0,0,2.64.29,12.5,12.5,0,0,0,4.12-.53l.11.94a3.13,3.13,0,0,0-.43.07A22,22,0,0,1,362.07,166Zm-.78-7.2a17.51,17.51,0,0,1,2.58-1.53l0,0a10.66,10.66,0,0,1-2.32.19,28.84,28.84,0,0,1-3-.18,3.93,3.93,0,0,0-.45,0l.1-.83a16.09,16.09,0,0,0,3.63.32,15.18,15.18,0,0,0,3.46-.28l.07.76a20.24,20.24,0,0,0-3.48,2.09ZM349.8,164.1a1.68,1.68,0,0,1-.27-.16,1.53,1.53,0,0,1,0,.3,2.74,2.74,0,0,1-.17,1.07,2.39,2.39,0,0,1-2.35,1.18c-1.5,0-2.51-.76-2.51-1.9s1.07-1.93,2.61-1.93a3.78,3.78,0,0,1,1.62.31c-.05-.34-.08-1.33-.15-3.84-.59,0-1,.06-1.64.06s-1.11,0-1.58-.06l-.45,0h-.42v-.8a9.2,9.2,0,0,0,2.52.22c.61,0,1,0,1.56-.05,0-1.53,0-1.53,0-2.46a2.83,2.83,0,0,0,0-.54h.9a11.63,11.63,0,0,0-.09,1.78v1.16a10.37,10.37,0,0,0,2.44-.52l0,.77-.17,0a19,19,0,0,1-2.3.38v.34c0,.84,0,.94.1,2.67l.06,1.1a10.9,10.9,0,0,1,2.35,1.4,3,3,0,0,0,.35.22l-.39.81A7.56,7.56,0,0,0,349.8,164.1Zm-1-.43a3.68,3.68,0,0,0-1.56-.31c-1.18,0-1.92.49-1.92,1.25s.68,1.19,1.72,1.19a2.07,2.07,0,0,0,1.5-.52,1.67,1.67,0,0,0,.29-1.13A2.72,2.72,0,0,0,348.77,163.67Zm-6.27,2.86-.81.1a2.29,2.29,0,0,0-.09-.51,21.21,21.21,0,0,1-.39-4.07,24.46,24.46,0,0,1,.83-6.14,2,2,0,0,0,.07-.46l.94.18a18.93,18.93,0,0,0-1.08,6.49c0,.14,0,1.1.1,2.88h0a11.51,11.51,0,0,1,.87-2.66c0-.12.07-.16.09-.23l.58.28a12,12,0,0,0-1.18,3.86A1.32,1.32,0,0,0,342.5,166.53Zm-15.78-.41-.52.16-.25-1a11.86,11.86,0,0,0,4.06-1.07,10.71,10.71,0,0,0,5.73-6.24,2.24,2.24,0,0,0,.7.68,11.94,11.94,0,0,1-5.08,5.85A14.71,14.71,0,0,1,326.72,166.12Zm-.52-8.91.56-.6a17.41,17.41,0,0,1,3.32,2.63l-.59.69A15.78,15.78,0,0,0,326.2,157.21Zm-6,8.95h-.88v-1h-7.7v1h-.89a9.15,9.15,0,0,0,.05-1v-7.49a6,6,0,0,0-.05-1.07,9.21,9.21,0,0,0,1.07,0h7.34a7,7,0,0,0,1.06,0,7.61,7.61,0,0,0,0,1.08v7.47C320.2,165.5,320.22,165.88,320.24,166.16Zm-.88-8.79h-7.7v7.07h7.7ZM304.45,159h-1.33a23.56,23.56,0,0,1-.1,2.7,5.26,5.26,0,0,1-1.94,3.74,7.64,7.64,0,0,1-2.48,1.32,2,2,0,0,0-.52-.73,5.72,5.72,0,0,0,2.67-1.39,4.59,4.59,0,0,0,1.49-3.51c0-.42.05-1,.07-2.13H297.9v2.39a6.69,6.69,0,0,0,.05,1.13H297a8.08,8.08,0,0,0,.06-1.17V159h-1.28a14.06,14.06,0,0,0-1.57.06v-.89a9.56,9.56,0,0,0,1.59.09h1.26v-1.67a8.24,8.24,0,0,0-.06-1.18H298a6.62,6.62,0,0,0-.05,1.12v1.73h4.42v-1.52a8.35,8.35,0,0,0,0-1.31h.91a8.68,8.68,0,0,0,0,1.3c0,.32,0,.32,0,1.53h1.3a9.5,9.5,0,0,0,1.58-.09v.89A13.85,13.85,0,0,0,304.45,159Zm-15.55,2.44h-8.38a12.51,12.51,0,0,0-1.54,0v-.94a8.62,8.62,0,0,0,1.54.07h8.38a8.41,8.41,0,0,0,1.53-.07v.94A13,13,0,0,0,288.9,161.46Zm-18.34,3.71a11.8,11.8,0,0,1-3.25,1.53,2.5,2.5,0,0,0-.48-.77,9.61,9.61,0,0,0,2.4-.92,7.89,7.89,0,0,0,3.15-2.95,10.73,10.73,0,0,0,.95-2.13h-7.45a13.85,13.85,0,0,0-1.57.06v-.87a9.77,9.77,0,0,0,1.58.08h7.34a1.43,1.43,0,0,0,.73-.1l.45.54c-.14.18-.15.22-.39.88A9.15,9.15,0,0,1,270.56,165.17Zm1-8.43h-4.65a8.53,8.53,0,0,0-1.42.07v-.91a6.52,6.52,0,0,0,1.43.09h4.63a6.37,6.37,0,0,0,1.42-.09v.91A8.39,8.39,0,0,0,271.58,156.74Zm-13.73,8.74a1.44,1.44,0,0,1-1.55.88,7.92,7.92,0,0,1-1.72-.25v-.2a2.58,2.58,0,0,0-.1-.66,6,6,0,0,0,1.8.37c.7,0,.94-.35,1.2-1.77a30,30,0,0,0,.37-5.11l-4.11,0a10.19,10.19,0,0,1-1.12,4.16A9.85,9.85,0,0,1,249,166.6a2.37,2.37,0,0,0-.56-.66,8.26,8.26,0,0,0,3.64-3.71,9.48,9.48,0,0,0,.88-3.46h-2.6a8.34,8.34,0,0,0-1.47.07l0-.9a6.25,6.25,0,0,0,1.51.1H253c.06-.73.09-1.5.09-2.12a4.07,4.07,0,0,0,0-.75l.92,0a10.48,10.48,0,0,0-.11,1.82c0,.43,0,.61-.06,1l3.6,0a2.51,2.51,0,0,0,.88-.08l.45.38a2.12,2.12,0,0,0-.09.81Q258.5,164.07,257.85,165.48Zm-15.28-5.8h-3.25a8,8,0,0,1-1,4.1,8.12,8.12,0,0,1-3.46,2.87,2,2,0,0,0-.58-.72,6.53,6.53,0,0,0,3.5-2.92,7.2,7.2,0,0,0,.73-3.33h-4c-.69,0-1.11,0-1.57,0v-.89a9.77,9.77,0,0,0,1.58.08h4c0-.33,0-.52,0-1.26V156.6a5.93,5.93,0,0,0-.07-1.15h1a7.18,7.18,0,0,0-.07,1.13v2.34h3.21a9.77,9.77,0,0,0,1.58-.08v.89C243.68,159.69,243.26,159.68,242.57,159.68ZM222.49,165a40,40,0,0,0-4.18-.88l.36-.77a41.86,41.86,0,0,1,8.85,2.38l-.33.84A23.48,23.48,0,0,0,222.49,165Zm4.07-3.93-.31.82a32.7,32.7,0,0,0-6.85-1.69l.35-.77A44.66,44.66,0,0,1,226.56,161Zm-6.9-4.7.35-.77a45,45,0,0,1,6.92,1.56l-.3.84A35,35,0,0,0,219.66,156.34Zm-10.51,9.91c-.16.07-.32.12-.44.18a1.29,1.29,0,0,0-.31.14l-.47-.56a2.32,2.32,0,0,0,.09-.81l.07-8.28a7.68,7.68,0,0,0,0-1.22H209a5.1,5.1,0,0,0-.08,1.21l-.09,8.58a6.4,6.4,0,0,0,2.72-1.62,6.92,6.92,0,0,0,1.73-2.87,3,3,0,0,0,.65.68,7.93,7.93,0,0,1-2.76,3.53A8.49,8.49,0,0,1,209.15,166.25Zm-4.41-3a8.28,8.28,0,0,1-2.44,3.41,2,2,0,0,0-.68-.61,6.84,6.84,0,0,0,2.39-3.2,18.3,18.3,0,0,0,.66-6,5.05,5.05,0,0,0-.06-1l1,.06a7.2,7.2,0,0,0-.08,1.16C205.4,160.74,205.27,161.82,204.74,163.22Zm-11.52-3.85v5.92a9.59,9.59,0,0,0,.07,1.48h-1a9.19,9.19,0,0,0,.08-1.45v-5.4a21.61,21.61,0,0,1-5.52,2.49,2.51,2.51,0,0,0-.45-.77,19.77,19.77,0,0,0,7.26-3.63,12.22,12.22,0,0,0,2.69-2.66l.78.6a3.7,3.7,0,0,0-.6.58A26.64,26.64,0,0,1,193.22,159.37Zm-16,7.06a1.76,1.76,0,0,0-.41-.78,8,8,0,0,0,2.58-.82A4.27,4.27,0,0,0,181.6,161a3.77,3.77,0,0,0-2.34-3.62,4.25,4.25,0,0,0-1.68-.34,20.76,20.76,0,0,1-1.36,5.52c-.79,1.86-1.61,2.7-2.59,2.7-1.26,0-2.21-1.41-2.21-3.29a5.63,5.63,0,0,1,5.91-5.64,5.24,5.24,0,0,1,3.74,1.34,4.56,4.56,0,0,1,1.36,3.35,5,5,0,0,1-2.93,4.65A9.83,9.83,0,0,1,177.19,166.43Zm-2.59-8.74a4.92,4.92,0,0,0-2.4,4.29c0,1.38.62,2.46,1.42,2.46.62,0,1.2-.67,1.83-2.09a19.94,19.94,0,0,0,1.31-5.31A4.81,4.81,0,0,0,174.6,157.69Zm-12.54,7.39a44.06,44.06,0,0,0-3.53-2.92c-.76-.59-1-.89-1-1.32A1.29,1.29,0,0,1,158,160c.16-.14.16-.14,1.18-.93a22.14,22.14,0,0,0,4.06-3.83l.81.6c-.12.1-.16.14-1.72,1.64-.69.65-1.43,1.26-3.21,2.64-.53.41-.63.52-.63.73s.14.39,1.25,1.24c1.27,1,2.44,1.93,3,2.43l1.54,1.45.39.36-.73.7A14.44,14.44,0,0,0,162.06,165.08ZM147.53,167c-2.13,0-3.07-.18-4-.78a3.61,3.61,0,0,1-1-1.1,14.79,14.79,0,0,1-1.85,1.63,4.57,4.57,0,0,0-.51.42l-.41-.77a8.64,8.64,0,0,0,2.46-1.85v-3.33H141a5.09,5.09,0,0,0-1,.07v-.79a5.07,5.07,0,0,0,1.06.07H142a8.57,8.57,0,0,0,1.06-.07,11.71,11.71,0,0,0-.07,1.47v2.55a2.36,2.36,0,0,0,.94,1.15c.69.46,1.63.63,3.56.63a38.77,38.77,0,0,0,5.35-.25,3.17,3.17,0,0,0-.29.85C151.11,166.92,149.23,167,147.53,167Zm3.55-7.41h-1.22v4.61a7.81,7.81,0,0,0,.09,1.39h-.9a7.36,7.36,0,0,0,.09-1.39v-4.61H146c-.1,2.94-.45,4.29-1.43,5.65a2.79,2.79,0,0,0-.59-.54,4.4,4.4,0,0,0,1-2.07,21.49,21.49,0,0,0,.33-4.34c0-.95,0-1.47-.06-1.88a14.72,14.72,0,0,0,3.73-.64,6.92,6.92,0,0,0,2.14-.87l.67.64c-.78.33-1.32.52-1.6.62A23.54,23.54,0,0,1,146,157v1.43c0,.25,0,.31,0,.47h5.11a6.76,6.76,0,0,0,1.22-.07v.8A8.21,8.21,0,0,0,151.08,159.55Zm-10.64-3.82.54-.46a16,16,0,0,1,2.22,2.52l-.58.5A12.68,12.68,0,0,0,140.44,155.73Zm-7.36,1.13.59-.45A11.72,11.72,0,0,1,136.5,159l-.58.52A11.52,11.52,0,0,0,133.08,156.86Zm.07,9.53a2,2,0,0,1-2-1.25,5.08,5.08,0,0,1-.26-1.71v-.17a1.86,1.86,0,0,0,.76-.29c0,.27,0,.38,0,.56,0,1.48.46,2.12,1.54,2.12a2,2,0,0,0,2-2.09c0-1.42-1.19-2.3-3.11-2.3a8.92,8.92,0,0,0-3,.59v3.53c0,.73-.3,1.05-1,1.05a3.59,3.59,0,0,1-2.23-.87,1.61,1.61,0,0,1-.6-1.27c0-1,1.1-2.08,3-2.92V158.6l-.53,0a7.33,7.33,0,0,1-.86,0c-.22,0-.67,0-.82,0h-.55v-.76a7.67,7.67,0,0,0,1.43.1l1.33,0v-1.51a8.1,8.1,0,0,0-.07-1.26h.9a7,7,0,0,0-.07,1.23v1.47a12.89,12.89,0,0,0,2.88-.62l0,.77-.41.09a23.36,23.36,0,0,1-2.52.43v2.58a9.85,9.85,0,0,1,3.11-.53c2.31,0,3.84,1.17,3.84,3A2.77,2.77,0,0,1,133.15,166.39Zm-4.9-4.26c-1.48.7-2.3,1.5-2.3,2.2,0,.36.29.73.85,1a2.74,2.74,0,0,0,1.12.31.26.26,0,0,0,.28-.17c0-.07.05-.11.05-.55Z"/>
<path fill="#5a498e" d="M361.83,104.81H356a.11.11,0,0,0-.12.12v18.69a.27.27,0,0,1-.3.3H354a.27.27,0,0,1-.3-.3V104.93a.11.11,0,0,0-.12-.12h-5.64a.27.27,0,0,1-.3-.3v-1.29a.27.27,0,0,1,.3-.3h13.89a.27.27,0,0,1,.3.3v1.29A.27.27,0,0,1,361.83,104.81ZM329,110.94c.69.35,1.75.81,3.19,1.37a29.2,29.2,0,0,1,3.53,1.68,7,7,0,0,1,2.16,1.9,4.53,4.53,0,0,1,.82,2.75,4.9,4.9,0,0,1-1.86,4,8,8,0,0,1-5.16,1.5,8.49,8.49,0,0,1-5.35-1.53,4.91,4.91,0,0,1-2-4.08v-.93a.27.27,0,0,1,.3-.3h1.47a.27.27,0,0,1,.3.3v.81a3.32,3.32,0,0,0,1.44,2.8,6.59,6.59,0,0,0,4,1.07,5.46,5.46,0,0,0,3.51-1,3.17,3.17,0,0,0,1.2-2.59,2.94,2.94,0,0,0-.55-1.8,5.46,5.46,0,0,0-1.71-1.41,30.17,30.17,0,0,0-3.26-1.53,34.45,34.45,0,0,1-3.49-1.58,5.88,5.88,0,0,1-2-1.74,4.47,4.47,0,0,1-.77-2.68,4.73,4.73,0,0,1,1.76-3.92,7.52,7.52,0,0,1,4.81-1.39,8.09,8.09,0,0,1,5.25,1.56,5.07,5.07,0,0,1,1.92,4.14V109a.27.27,0,0,1-.3.3h-1.5a.27.27,0,0,1-.3-.3v-.54a3.5,3.5,0,0,0-1.36-2.85,5.87,5.87,0,0,0-3.8-1.11,5.31,5.31,0,0,0-3.27.87,3,3,0,0,0-1.14,2.52,2.79,2.79,0,0,0,.56,1.78A4.67,4.67,0,0,0,329,110.94Zm-16.85,13a.27.27,0,0,1-.3-.3v-20.4a.27.27,0,0,1,.3-.3h1.53a.27.27,0,0,1,.3.3v20.4a.27.27,0,0,1-.3.3Zm-23,0a.27.27,0,0,1-.3-.3v-20.4a.27.27,0,0,1,.3-.3h1.53a.27.27,0,0,1,.3.3v18.72a.11.11,0,0,0,.12.12h10.59a.27.27,0,0,1,.3.3v1.26a.27.27,0,0,1-.3.3ZM261,114.56h-5.85a.11.11,0,0,0-.12.12v8.94a.27.27,0,0,1-.3.3h-1.53a.27.27,0,0,1-.3-.3V103.19a.27.27,0,0,1,.3-.3h7.89a5.72,5.72,0,0,1,4.25,1.62,5.79,5.79,0,0,1,1.6,4.26,5.59,5.59,0,0,1-1.63,4.2A5.92,5.92,0,0,1,261,114.56Zm2.73-8.7a3.9,3.9,0,0,0-2.88-1.11h-5.7a.11.11,0,0,0-.12.12v7.8a.11.11,0,0,0,.12.12h5.7a3.93,3.93,0,0,0,2.88-1.1,3.87,3.87,0,0,0,1.11-2.89A4,4,0,0,0,263.7,105.86Zm-25,17.43a7.91,7.91,0,0,1-3.77.87,7.81,7.81,0,0,1-3.75-.87,6.15,6.15,0,0,1-2.5-2.45,7.3,7.3,0,0,1-.89-3.64v-7.56a7.34,7.34,0,0,1,.89-3.65,6.12,6.12,0,0,1,2.5-2.44,7.81,7.81,0,0,1,3.75-.87,7.91,7.91,0,0,1,3.77.87,6.11,6.11,0,0,1,2.52,2.44,7.33,7.33,0,0,1,.88,3.65v7.56a7.29,7.29,0,0,1-.88,3.64A6.13,6.13,0,0,1,238.67,123.29Zm1.27-13.68a5,5,0,0,0-1.38-3.68,5.47,5.47,0,0,0-7.29,0,5,5,0,0,0-1.38,3.68v7.68a5,5,0,1,0,10.05,0ZM215,123.92a.27.27,0,0,1-.3-.3v-9.21a.11.11,0,0,0-.12-.12h-9.57a.11.11,0,0,0-.12.12v9.21a.27.27,0,0,1-.3.3H203.1a.27.27,0,0,1-.3-.3v-20.4a.27.27,0,0,1,.3-.3h1.53a.27.27,0,0,1,.3.3v9.09a.11.11,0,0,0,.12.12h9.57a.11.11,0,0,0,.12-.12v-9.09a.27.27,0,0,1,.3-.3h1.53a.27.27,0,0,1,.3.3v20.4a.27.27,0,0,1-.3.3Zm-32.38-13c.69.35,1.75.81,3.19,1.37a29.2,29.2,0,0,1,3.53,1.68,7,7,0,0,1,2.16,1.9,4.53,4.53,0,0,1,.82,2.75,4.9,4.9,0,0,1-1.86,4,8,8,0,0,1-5.16,1.5,8.49,8.49,0,0,1-5.35-1.53,4.91,4.91,0,0,1-2-4.08v-.93a.27.27,0,0,1,.3-.3h1.47a.27.27,0,0,1,.3.3v.81a3.32,3.32,0,0,0,1.44,2.8,6.59,6.59,0,0,0,4,1.07,5.46,5.46,0,0,0,3.51-1,3.17,3.17,0,0,0,1.2-2.59,2.94,2.94,0,0,0-.55-1.8,5.46,5.46,0,0,0-1.71-1.41,30.17,30.17,0,0,0-3.26-1.53,34.45,34.45,0,0,1-3.49-1.58,5.88,5.88,0,0,1-2-1.74,4.47,4.47,0,0,1-.77-2.68,4.73,4.73,0,0,1,1.76-3.92,7.52,7.52,0,0,1,4.81-1.39,8.09,8.09,0,0,1,5.25,1.56,5.07,5.07,0,0,1,1.92,4.14V109a.27.27,0,0,1-.3.3h-1.5a.27.27,0,0,1-.3-.3v-.54a3.5,3.5,0,0,0-1.36-2.85,5.87,5.87,0,0,0-3.8-1.11,5.31,5.31,0,0,0-3.27.87,3,3,0,0,0-1.14,2.52,2.79,2.79,0,0,0,.56,1.78A4.67,4.67,0,0,0,182.66,110.94Z"/>
</svg>
