<svg xmlns="http://www.w3.org/2000/svg" viewBox="0 0 644 322" width="644" height="322">
<path fill="none" stroke="#5a498e" stroke-width="2px" d="M544.79,194l10.45,9.49L544.79,213"/>
<path fill="#5a498e" d="M515.89,196.29a25.45,25.45,0,0,1-3.67-1.51l.89-1.46a29.19,29.19,0,0,0,8.13,2.66l-.67,1.68A36.12,36.12,0,0,1,515.89,196.29Zm-5.09,8a2.62,2.62,0,0,1-.09.56l.05,0a8,8,0,0,1,.74-.72,11.92,11.92,0,0,1,6.94-2.06c3.91,0,6.43,1.82,6.43,4.63a5.14,5.14,0,0,1-2.16,4.13,10,10,0,0,1-6,1.58,19.81,19.81,0,0,1-4.2-.43l-1.92-.48a3.08,3.08,0,0,0,0-.46,5.66,5.66,0,0,0-.17-1.48,17.1,17.1,0,0,0,6.12,1.2c4,0,6.48-1.59,6.48-4,0-2-1.73-3.12-4.66-3.12a11.62,11.62,0,0,0-6.72,2.09,4.48,4.48,0,0,0-1,1l-1.87,0c.07-.43.1-.65.19-1.42.24-1.82.67-4.61,1-6.62a8.89,8.89,0,0,0,.17-1.28l1.82.12a22.24,22.24,0,0,0-.55,2.64C510.92,203.62,510.88,203.78,510.8,204.33ZM494,202.7c3.79,0,6.21,1.73,6.21,4.42,0,3.26-3.19,5.4-8,5.4a17.93,17.93,0,0,1-5.93-.94,2.11,2.11,0,0,0,0-.38v-.15c0-.11-.05-.55-.12-1.32a14.56,14.56,0,0,0,6,1.21c3.79,0,6.29-1.52,6.29-3.82,0-1.82-1.73-2.93-4.61-2.93a13,13,0,0,0-5.57,1.3,5.21,5.21,0,0,0-2,1.53l-1.72-.69a36.28,36.28,0,0,0,3.21-7.83c-1.53,0-2.59-.07-4-.17-.31,0-.53,0-.67,0h-.2l.05-1.7a22.57,22.57,0,0,0,5.19.4,18.55,18.55,0,0,0,.76-4.29l1.92.19a11.74,11.74,0,0,0-.38,1.54c-.34,1.39-.41,1.68-.65,2.54,4.71-.17,7.9-.5,9.46-1l.12,1.73c-.41,0-.55,0-1.06.12a80.72,80.72,0,0,1-8.9.69,32.3,32.3,0,0,1-2.4,6.17l0,.05A12.31,12.31,0,0,1,494,202.7Zm-26,9.07a16.87,16.87,0,0,1-5.52-.74,3.81,3.81,0,0,1-2.73-3.62c0-1.56.91-3.08,2.76-4.64l1.22.92c-1.56,1.29-2.28,2.4-2.28,3.53s.7,1.89,2,2.35a15.36,15.36,0,0,0,4.39.48,22.94,22.94,0,0,0,7.21-.91l.21,2c-.31,0-.41.05-.81.12A39.21,39.21,0,0,1,468,211.77Zm-1.48-12.52a34.82,34.82,0,0,1,3.19-2l.6-.31a4.26,4.26,0,0,0,.45-.24,18.91,18.91,0,0,1-3.62.31,47.43,47.43,0,0,1-5.28-.31,5.28,5.28,0,0,0-.79-.07l.14-1.7a28,28,0,0,0,6.39.57,26.67,26.67,0,0,0,6.07-.5l.12,1.58a34.7,34.7,0,0,0-6.05,3.65Zm-17.67,9.26-.24-.14-.21-.15a3.34,3.34,0,0,1,.05.63,4.17,4.17,0,0,1-.29,1.63c-.58,1.27-2,2-4,2-2.79,0-4.54-1.32-4.54-3.41s1.9-3.41,4.56-3.41a6.78,6.78,0,0,1,2.67.48c-.08-.51-.17-2.76-.24-6.27-1.08.05-1.83.08-2.74.08s-1.87,0-2.71-.08a7.55,7.55,0,0,0-.77,0,2.9,2.9,0,0,0-.41,0l-.24,0h-.09l0-1.68a16.59,16.59,0,0,0,4.32.38c.94,0,1.59,0,2.57-.07,0-2.26,0-2.26,0-4.08a6.1,6.1,0,0,0-.07-1h1.8a24.28,24.28,0,0,0-.17,3.76c0,.27,0,.65,0,1.18a16.39,16.39,0,0,0,4.16-.89l.07,1.63c-.05,0-.05,0-1.68.34a23.49,23.49,0,0,1-2.55.38c0,2.38.08,3.6.27,6.8a17.33,17.33,0,0,1,4,2.35c.28.19.33.24.6.41l-.75,1.68A12.94,12.94,0,0,0,448.81,208.51Zm-2-.89a6.25,6.25,0,0,0-2.57-.5c-1.87,0-3.09.79-3.09,2s1.1,1.94,2.78,1.94a3.34,3.34,0,0,0,2.45-.83,2.84,2.84,0,0,0,.45-1.88C446.84,208.18,446.82,207.62,446.82,207.62Zm-11.33,1.32v.46l.1,0A21.54,21.54,0,0,1,437,205.2a3.32,3.32,0,0,0,.2-.48l1.17.55a20.63,20.63,0,0,0-2.06,6.82,2.54,2.54,0,0,0,.05.48l-1.71.17c0-.22,0-.34-.14-.89a38.41,38.41,0,0,1-.67-7.13,41,41,0,0,1,1.24-9.87,11.91,11.91,0,0,0,.27-1.51l1.87.31a34.25,34.25,0,0,0-1.85,11.26c0,.84.05,2.26.1,3.36C435.47,208.46,435.47,208.51,435.49,208.94Zm-23.95,2.79a12.11,12.11,0,0,0-1.44.38l-.53-2a21,21,0,0,0,7-1.84,18.16,18.16,0,0,0,9.79-10.68,4.75,4.75,0,0,0,1.46,1.41,21,21,0,0,1-7.32,9.17A24.12,24.12,0,0,1,411.54,211.73Zm-1.61-15.22,1.18-1.3a31.32,31.32,0,0,1,5.78,4.52l-1.25,1.49A26,26,0,0,0,409.93,196.51Zm-8.08,15.41H400v-1.7H387.16v1.7h-1.85a12.93,12.93,0,0,0,.09-1.8v-13a12.86,12.86,0,0,0-.09-1.88,16.22,16.22,0,0,0,1.87.08H400a11.36,11.36,0,0,0,1.88-.08,11.82,11.82,0,0,0-.08,1.88v13C401.77,210.79,401.8,211.41,401.85,211.92Zm-1.83-15H387.16v11.78H400Zm-23.59,2.76h-2.11c-.05,4.87-.29,6.41-1.18,8.14a10.17,10.17,0,0,1-3.91,4,18.55,18.55,0,0,1-2.79,1.22,4.18,4.18,0,0,0-1.08-1.51,10.59,10.59,0,0,0,4.59-2.35c1.68-1.51,2.35-3.1,2.57-6,0-.77.07-1.51.09-3.46h-7.29v4a13.63,13.63,0,0,0,.09,1.94h-1.94a14.14,14.14,0,0,0,.09-2v-3.94h-2a21.51,21.51,0,0,0-2.79.12v-1.82a17.65,17.65,0,0,0,2.81.14h2v-2.76a14.57,14.57,0,0,0-.09-2h1.94a11.1,11.1,0,0,0-.09,2v2.83h7.32v-2.33a14.35,14.35,0,0,0-.08-2.42h1.88a17.55,17.55,0,0,0-.1,2.23v2.52h2.07a17.44,17.44,0,0,0,2.8-.14v1.82A21.25,21.25,0,0,0,376.43,199.63Zm-25.06,4.23H337.45a27.16,27.16,0,0,0-3,.09v-2a16.68,16.68,0,0,0,3,.15H351.4a19.73,19.73,0,0,0,2.9-.12V204A28.56,28.56,0,0,0,351.37,203.86Zm-34.94,9a5.37,5.37,0,0,0-1-1.66,16.41,16.41,0,0,0,7.12-3.65,14.65,14.65,0,0,0,3.89-6.29H313.88a23.29,23.29,0,0,0-2.78.12v-1.8a17.13,17.13,0,0,0,2.81.15h12.31a4.12,4.12,0,0,0,1.56-.17l.89,1a7.12,7.12,0,0,0-.67,1.51C326,207.69,322.64,210.77,316.43,212.86Zm7.29-17.12h-8.06a16.89,16.89,0,0,0-2.5.12V194a10.69,10.69,0,0,0,2.52.17h8a10.59,10.59,0,0,0,2.52-.17v1.85A16.8,16.8,0,0,0,323.72,195.74Zm-21,12.36c-.6,3.29-1.32,4.16-3.48,4.16a13.49,13.49,0,0,1-3-.41v-.29a3.87,3.87,0,0,0-.27-1.51,10.22,10.22,0,0,0,3.1.62c1.18,0,1.56-.58,2-2.95a53.61,53.61,0,0,0,.6-8.52l-6.73,0a17.93,17.93,0,0,1-1.92,7.08,17.29,17.29,0,0,1-6.28,6.36,5.07,5.07,0,0,0-1.23-1.41,14.09,14.09,0,0,0,6.24-6.31,15.53,15.53,0,0,0,1.49-5.72l-4.37,0a14.43,14.43,0,0,0-2.54.12l0-1.83a12.86,12.86,0,0,0,2.6.17l4.48,0c.1-1.23.15-2.55.15-3.6a6.52,6.52,0,0,0-.1-1.25l2,0a19.15,19.15,0,0,0-.2,3.09c0,.75,0,1-.12,1.71l6,0a3.7,3.7,0,0,0,1.58-.17l.89.77a3.44,3.44,0,0,0-.19,1.44A65.13,65.13,0,0,1,302.77,208.1Zm-25.24-7.32H272.1c-.19,3.36-.62,5.16-1.78,7a13.77,13.77,0,0,1-5.95,5,5.22,5.22,0,0,0-1.22-1.53,11.08,11.08,0,0,0,6-4.95c.77-1.44,1-2.66,1.22-5.52h-6.64a23.37,23.37,0,0,0-2.79.12V199a15.18,15.18,0,0,0,2.81.17h6.7c0-.89,0-1.37,0-2.11v-1.73a11.14,11.14,0,0,0-.12-2h2a10.79,10.79,0,0,0-.12,2l0,1.73v2.11h5.33a15,15,0,0,0,2.81-.17v1.87A23.29,23.29,0,0,0,277.53,200.78Zm-32.67,9.1a71.78,71.78,0,0,0-7.25-1.47l.72-1.6a72.54,72.54,0,0,1,15.34,4l-.67,1.75A40.63,40.63,0,0,0,244.86,209.88Zm7.18-7-.63,1.73a55.86,55.86,0,0,0-11.9-2.93l.69-1.61A77.76,77.76,0,0,1,252,202.87Zm-12.1-7.75.7-1.61a75.79,75.79,0,0,1,12.09,2.64l-.62,1.75A62,62,0,0,0,239.94,195.12Zm-16.06,17-.76.29a4.29,4.29,0,0,0-.56.26l-1-1.1a4,4,0,0,0,.17-1.64l.15-14a9.15,9.15,0,0,0-.1-2.13l2,0a9.25,9.25,0,0,0-.15,2.11l-.14,14.5a11.12,11.12,0,0,0,4.47-2.78,12,12,0,0,0,2.83-4.81,6.58,6.58,0,0,0,1.34,1.4,13.56,13.56,0,0,1-4.82,6.16A15.81,15.81,0,0,1,223.88,212.09Zm-7.48-5.31a14.71,14.71,0,0,1-4.16,5.93,4.54,4.54,0,0,0-1.44-1.3,11.79,11.79,0,0,0,4.06-5.51c.74-2.09,1.08-5.24,1.08-10.3a9.83,9.83,0,0,0-.1-1.71l2,.12a11.52,11.52,0,0,0-.15,2.07C217.5,202.58,217.31,204.36,216.4,206.78Zm-17.84-6.65v10.23a16.57,16.57,0,0,0,.12,2.54H196.6a12.5,12.5,0,0,0,.14-2.49v-9.12a37.59,37.59,0,0,1-9.26,4.2,5.64,5.64,0,0,0-.94-1.61A33.9,33.9,0,0,0,199,197.66a20.32,20.32,0,0,0,4.58-4.53l1.66,1.17a5.38,5.38,0,0,0-1.06,1A41.51,41.51,0,0,1,198.56,200.13Zm-25.89,12.22a3.93,3.93,0,0,0-.84-1.61,14.82,14.82,0,0,0,4-1.12,7.26,7.26,0,0,0,4.25-6.72,6.34,6.34,0,0,0-3.82-6,7,7,0,0,0-2.79-.6,36,36,0,0,1-2.35,9.53c-1.39,3.17-2.81,4.61-4.53,4.61-2.28,0-4-2.5-4-5.86a9.76,9.76,0,0,1,10.27-9.82,9.3,9.3,0,0,1,6.61,2.38,8,8,0,0,1,2.32,5.86,8.74,8.74,0,0,1-5.49,8.28A19.17,19.17,0,0,1,172.67,212.35Zm-4.49-14.93a8.32,8.32,0,0,0-3.91,7.16c0,2.3,1,4.07,2.3,4.07,1,0,2-1.12,3-3.47a33.07,33.07,0,0,0,2.19-8.89A7.6,7.6,0,0,0,168.18,197.42Zm-19.7,12.65c-1.61-1.49-2.57-2.28-6.08-5-1.34-1.05-1.72-1.58-1.72-2.4a2.34,2.34,0,0,1,.69-1.6,18.92,18.92,0,0,1,2-1.64c3.19-2.44,6.19-5.25,7-6.57l1.68,1.25c-.26.21-.45.38-3,2.78a68.54,68.54,0,0,1-5.52,4.54c-.89.67-1.05.86-1.05,1.2s.19.6,2.13,2.11a71.15,71.15,0,0,1,7.68,6.55,5.94,5.94,0,0,0,.68.6l-1.52,1.49A22.5,22.5,0,0,0,148.48,210.07Zm-22.92,3.19c-3.72,0-5.31-.28-6.89-1.27a6.32,6.32,0,0,1-1.83-1.85,26.1,26.1,0,0,1-3.12,2.72c-.43.33-.5.38-.86.69l-.79-1.63a4,4,0,0,0,.93-.46,19.88,19.88,0,0,0,3.17-2.56v-5.55h-2a9.28,9.28,0,0,0-1.77.12v-1.63a9.66,9.66,0,0,0,1.87.12h1.7a10.41,10.41,0,0,0,1.83-.12,17.84,17.84,0,0,0-.12,2.54v4.47a4.22,4.22,0,0,0,1.7,1.94c1.1.75,2.66,1,6.12,1a63.67,63.67,0,0,0,9-.46,6.15,6.15,0,0,0-.56,1.76C131.39,213.19,128.27,213.26,125.56,213.26Zm5.95-12.62h-1.94v7.58a12.27,12.27,0,0,0,.16,2.4h-1.82a14.67,14.67,0,0,0,.14-2.4v-7.58h-5.16c-.17,4.75-.81,7.27-2.49,9.5a4.74,4.74,0,0,0-1.25-1.13c1.75-2.15,2.25-4.58,2.25-11.06,0-1.66,0-2.45-.09-3.14h.31a30.87,30.87,0,0,0,6.89-1.25,9.2,9.2,0,0,0,3-1.23l1.32,1.37-.89.34a36.88,36.88,0,0,1-9,2.09v3.09h8.57a12.57,12.57,0,0,0,2.16-.12v1.66A13.3,13.3,0,0,0,131.51,200.64ZM113.1,194l1.15-1a27.1,27.1,0,0,1,3.89,4.34l-1.2,1.08A22.52,22.52,0,0,0,113.1,194Zm-10.73,1.87,1.25-.94a20.1,20.1,0,0,1,4.85,4.56l-1.25,1.08A19.55,19.55,0,0,0,102.37,195.84Zm5.09,11.54a4.86,4.86,0,0,1-4.9,5,3.53,3.53,0,0,1-3.69-2.71,8.73,8.73,0,0,1-.29-2.71,5.33,5.33,0,0,0,1.58-.63,8.57,8.57,0,0,0,0,.94c0,2.49.72,3.53,2.47,3.53a3.19,3.19,0,0,0,3.22-3.39c0-2.35-2-3.81-5.14-3.81a16.41,16.41,0,0,0-5.09.93v6c0,1.3-.58,1.92-1.75,1.92a6.34,6.34,0,0,1-4-1.53,2.88,2.88,0,0,1-1.11-2.26,4.34,4.34,0,0,1,1.9-3.19,12.76,12.76,0,0,1,3.38-2v-4.54c-.21,0-.21,0-1,.08-.43,0-.84,0-1.53,0-.36,0-1,0-1.27,0h-1v-1.59a13.62,13.62,0,0,0,2.45.17c.65,0,1.58,0,2.3-.07v-2.38a15.38,15.38,0,0,0-.12-2.28H95.7a13.27,13.27,0,0,0-.12,2.23v2.31a25.24,25.24,0,0,0,4.9-1l.07,1.6c-.29.05-.39.08-.72.15a41.57,41.57,0,0,1-4.25.72V203a17.11,17.11,0,0,1,5.16-.86,8.06,8.06,0,0,1,4.25,1A4.82,4.82,0,0,1,107.46,207.38ZM94,205.05c-2.37,1.16-3.72,2.45-3.72,3.6,0,.51.34,1,1,1.44a4.43,4.43,0,0,0,2.13.7c.48,0,.55-.14.55-1.17Z"/>
<path fill="#5a498e" d="M475.09,112h-9.8c-.14,0-.2.06-.2.2v31.15a.44.44,0,0,1-.5.5H462a.44.44,0,0,1-.5-.5V112.2a.18.18,0,0,0-.2-.2h-9.4a.44.44,0,0,1-.5-.5v-2.15a.44.44,0,0,1,.5-.5h23.15a.44.44,0,0,1,.5.5v2.15A.44.44,0,0,1,475.09,112Zm-54.68,10.22q1.72.89,5.33,2.28a47.86,47.86,0,0,1,5.87,2.8,11.82,11.82,0,0,1,3.6,3.17,7.52,7.52,0,0,1,1.38,4.58,8.19,8.19,0,0,1-3.1,6.7c-2.07,1.66-4.94,2.5-8.6,2.5s-6.75-.85-8.93-2.55a8.19,8.19,0,0,1-3.27-6.8v-1.55a.44.44,0,0,1,.5-.5h2.45a.44.44,0,0,1,.5.5v1.35a5.53,5.53,0,0,0,2.4,4.67,10.92,10.92,0,0,0,6.65,1.78,9.08,9.08,0,0,0,5.85-1.63,5.29,5.29,0,0,0,2-4.32,4.87,4.87,0,0,0-.93-3,9,9,0,0,0-2.85-2.35,47.46,47.46,0,0,0-5.42-2.55,57.63,57.63,0,0,1-5.83-2.63,9.75,9.75,0,0,1-3.35-2.9,7.45,7.45,0,0,1-1.27-4.47,7.87,7.87,0,0,1,2.92-6.53q2.93-2.33,8-2.32c3.7,0,6.61.87,8.75,2.6a8.45,8.45,0,0,1,3.2,6.9v1.1a.44.44,0,0,1-.5.5h-2.5a.44.44,0,0,1-.5-.5v-.9a5.83,5.83,0,0,0-2.28-4.75,9.77,9.77,0,0,0-6.32-1.85,8.8,8.8,0,0,0-5.45,1.45,5,5,0,0,0-1.9,4.2,4.62,4.62,0,0,0,.92,3A7.69,7.69,0,0,0,420.41,122.22Zm-28.07,21.63a.44.44,0,0,1-.5-.5v-34a.44.44,0,0,1,.5-.5h2.55a.44.44,0,0,1,.5.5v34a.44.44,0,0,1-.5.5Zm-38.4,0a.44.44,0,0,1-.5-.5v-34a.44.44,0,0,1,.5-.5h2.55a.44.44,0,0,1,.5.5v31.2a.18.18,0,0,0,.2.2h17.65a.44.44,0,0,1,.5.5v2.1a.44.44,0,0,1-.5.5ZM307,128.25h-9.75a.18.18,0,0,0-.2.2v14.9a.44.44,0,0,1-.5.5H294a.44.44,0,0,1-.5-.5v-34a.44.44,0,0,1,.5-.5h13.15a9.5,9.5,0,0,1,7.07,2.7,9.62,9.62,0,0,1,2.68,7.1,9.32,9.32,0,0,1-2.73,7A9.87,9.87,0,0,1,307,128.25Zm4.55-14.5a6.53,6.53,0,0,0-4.8-1.85h-9.5c-.14,0-.2.06-.2.2v13a.18.18,0,0,0,.2.2h9.5a6.55,6.55,0,0,0,4.8-1.83,6.46,6.46,0,0,0,1.85-4.82A6.64,6.64,0,0,0,311.54,113.75ZM269.81,142.8a13.1,13.1,0,0,1-6.27,1.45,13,13,0,0,1-6.25-1.45,10.33,10.33,0,0,1-4.18-4.08,12.2,12.2,0,0,1-1.47-6.07v-12.6a12.24,12.24,0,0,1,1.47-6.08,10.31,10.31,0,0,1,4.18-4.07,13,13,0,0,1,6.25-1.45,13.1,13.1,0,0,1,6.27,1.45A10.17,10.17,0,0,1,274,114a12.14,12.14,0,0,1,1.48,6.08v12.6a12.1,12.1,0,0,1-1.48,6.07A10.2,10.2,0,0,1,269.81,142.8Zm2.13-22.8a8.35,8.35,0,0,0-2.3-6.13,8.21,8.21,0,0,0-6.1-2.32,8.12,8.12,0,0,0-6.05,2.32,8.31,8.31,0,0,0-2.3,6.13v12.8a8.38,8.38,0,1,0,16.75,0Zm-41.5,23.85a.44.44,0,0,1-.5-.5V128a.18.18,0,0,0-.2-.2h-16c-.14,0-.2.06-.2.2v15.35a.44.44,0,0,1-.5.5h-2.55a.44.44,0,0,1-.5-.5v-34a.44.44,0,0,1,.5-.5h2.55a.44.44,0,0,1,.5.5V124.5a.18.18,0,0,0,.2.2h16a.18.18,0,0,0,.2-.2V109.35a.44.44,0,0,1,.5-.5H233a.44.44,0,0,1,.5.5v34a.44.44,0,0,1-.5.5Zm-54-21.63q1.72.89,5.33,2.28a47.86,47.86,0,0,1,5.87,2.8,11.59,11.59,0,0,1,3.6,3.17,7.52,7.52,0,0,1,1.38,4.58,8.19,8.19,0,0,1-3.1,6.7c-2.07,1.66-4.94,2.5-8.6,2.5s-6.74-.85-8.93-2.55a8.19,8.19,0,0,1-3.27-6.8v-1.55a.44.44,0,0,1,.5-.5h2.45a.44.44,0,0,1,.5.5v1.35a5.53,5.53,0,0,0,2.4,4.67,10.92,10.92,0,0,0,6.65,1.78,9.08,9.08,0,0,0,5.85-1.63,5.29,5.29,0,0,0,2-4.32,4.87,4.87,0,0,0-.93-3,8.81,8.81,0,0,0-2.85-2.35,47.46,47.46,0,0,0-5.42-2.55,58.68,58.68,0,0,1-5.83-2.63,9.75,9.75,0,0,1-3.35-2.9,7.45,7.45,0,0,1-1.27-4.47,7.87,7.87,0,0,1,2.92-6.53q2.92-2.33,8-2.32c3.7,0,6.61.87,8.75,2.6a8.45,8.45,0,0,1,3.2,6.9v1.1a.44.44,0,0,1-.5.5h-2.5a.44.44,0,0,1-.5-.5v-.9a5.83,5.83,0,0,0-2.28-4.75,9.75,9.75,0,0,0-6.32-1.85,8.8,8.8,0,0,0-5.45,1.45,5,5,0,0,0-1.9,4.2,4.68,4.68,0,0,0,.92,3A7.69,7.69,0,0,0,176.46,122.22Z"/>
</svg>
