<svg xmlns="http://www.w3.org/2000/svg" viewBox="0 0 540 270" width="540" height="270">
<path fill="none" stroke="#5a498e" d="M462,153.82l7.21,6.75L462,167.32"/>
<path fill="#5a498e" d="M446.18,156.25a13.27,13.27,0,0,1-1.7-.71l-.37-.17.44-.66a16.49,16.49,0,0,0,4.63,1.54l-.33.79C448,156.82,447.06,156.56,446.18,156.25ZM443,161.49h0a1.91,1.91,0,0,1,.43-.42,7.17,7.17,0,0,1,4.25-1.26c2.12,0,3.57,1,3.57,2.6a2.85,2.85,0,0,1-1.25,2.31,5.55,5.55,0,0,1-3.47.94,11,11,0,0,1-2.79-.36l-.71-.2v-.29a3.18,3.18,0,0,0-.06-.62,9.43,9.43,0,0,0,3.6.71c2.29,0,3.84-1,3.84-2.47,0-1.2-1.06-1.91-2.83-1.91a6.9,6.9,0,0,0-4.05,1.27,2.4,2.4,0,0,0-.53.57h-.92a7.54,7.54,0,0,1,.11-.82c.14-.95.35-2.31.6-3.81.06-.36.07-.49.1-.74l.88.07a37.79,37.79,0,0,0-.7,3.94A2.76,2.76,0,0,1,443,161.49Zm-10.78-1.37c2.16,0,3.55,1,3.55,2.49a2.61,2.61,0,0,1-1.13,2.15,5.72,5.72,0,0,1-3.48.93,9.58,9.58,0,0,1-3.39-.56v-.89a8.1,8.1,0,0,0,3.46.71c2.24,0,3.74-.92,3.74-2.32,0-1.12-1.05-1.81-2.79-1.81a7.59,7.59,0,0,0-3.49.88,2.6,2.6,0,0,0-1,.8l-.83-.35a21.85,21.85,0,0,0,1.88-4.62,19.59,19.59,0,0,1-2.39-.1h-.49v-.82a13.42,13.42,0,0,0,2.76.23h.27a13,13,0,0,0,.46-2.55l.94.1c-.06.19-.06.19-.23.92s-.23,1-.37,1.51a22.38,22.38,0,0,0,5.53-.6l.07.83-.56.07a45.7,45.7,0,0,1-5.23.42,19.86,19.86,0,0,1-1.48,3.79h0a7.2,7.2,0,0,1,4.2-1.21Zm-16.15,5.06a9.77,9.77,0,0,1-3.18-.42,2.17,2.17,0,0,1-1.57-2.06,3.6,3.6,0,0,1,1.56-2.61l.59.44c-.93.77-1.35,1.42-1.35,2.1s.42,1.17,1.24,1.45a8.41,8.41,0,0,0,2.64.3,12.49,12.49,0,0,0,4.12-.53l.11.93-.43.07A21.2,21.2,0,0,1,416.09,165.18Zm-.78-7.2a18.06,18.06,0,0,1,2.58-1.53h0a10,10,0,0,1-2.32.2q-1.5,0-3-.18l-.45-.05.1-.82a16.35,16.35,0,0,0,3.63.32,16.06,16.06,0,0,0,3.46-.28l.07.76a19.77,19.77,0,0,0-3.48,2.08Zm-11.49,5.32a1,1,0,0,1-.27-.17v.31a2.57,2.57,0,0,1-.17,1.06,2.37,2.37,0,0,1-2.35,1.18c-1.5,0-2.51-.76-2.51-1.89s1.06-1.93,2.61-1.93a3.74,3.74,0,0,1,1.62.3c-.06-.33-.08-1.33-.15-3.83h-4.09v-.8a9.29,9.29,0,0,0,2.52.23,13.22,13.22,0,0,0,1.56-.06v-2.45a2.53,2.53,0,0,0,0-.55h.9a10.62,10.62,0,0,0-.09,1.78v1.16a11.27,11.27,0,0,0,2.44-.51v.77h-.17a20,20,0,0,1-2.3.38v.33c0,.84,0,.94.1,2.68l.06,1.09a11.4,11.4,0,0,1,2.35,1.4,1.63,1.63,0,0,0,.35.23l-.39.81a7.62,7.62,0,0,0-2-1.52Zm-1-.43a3.63,3.63,0,0,0-1.56-.31c-1.18,0-1.92.49-1.92,1.24s.67,1.2,1.75,1.2a2.05,2.05,0,0,0,1.5-.51,1.78,1.78,0,0,0,.29-1.14,2.65,2.65,0,0,0-.07-.48Zm-6.27,2.85-.81.1a2.1,2.1,0,0,0-.09-.5,21.45,21.45,0,0,1-.39-4.08,24,24,0,0,1,.83-6.13,1.84,1.84,0,0,0,.07-.47l.94.18a19.1,19.1,0,0,0-1.08,6.49c0,.14,0,1.11.09,2.89h.05a10.91,10.91,0,0,1,.87-2.66c0-.13.07-.17.09-.24l.58.28a11.9,11.9,0,0,0-1.18,3.87,1.23,1.23,0,0,0,0,.27Zm-5.79.79H390v-.94h-5.12v1h-.78a13.08,13.08,0,0,0,.09-1.53v-8.71a11.21,11.21,0,0,0-.06-1.54,9.5,9.5,0,0,0,1.31.06h4a9.87,9.87,0,0,0,1.33-.06,13.74,13.74,0,0,0-.06,1.57V165a10.89,10.89,0,0,0,.05,1.51Zm-3.76-11h-2.13v4.24H387Zm0,4.87h-2.13V165H387Zm3-4.87h-2.31v4.24H390Zm0,4.87h-2.31V165H390Zm-7.19-1.93a15.41,15.41,0,0,1,1.09,2.7l-.58.31a7.9,7.9,0,0,0-.27-1c-.62.09-.7.09-1.36.16v4.61a8,8,0,0,0,.09,1.38h-.86a9.26,9.26,0,0,0,.08-1.39v-4.53c-.61.06-1.1.09-1.45.1a6.82,6.82,0,0,0-.79.1l-.12-.76a3.05,3.05,0,0,0,.52,0h.57c.66-.84.66-.84,1.06-1.41a21.18,21.18,0,0,0-2.08-2.26l.45-.5c.32.33.43.45.67.68a9.62,9.62,0,0,0,1.29-2.73l.75.32c-.09.16-.16.27-.33.59a24.13,24.13,0,0,1-1.29,2.27c.33.38.6.69.91,1.08a11.93,11.93,0,0,0,1.41-2.48l.72.39c-.11.16-.2.27-.38.55a37.82,37.82,0,0,1-2.44,3.46c1-.07,1.59-.13,2.37-.22a8.38,8.38,0,0,0-.59-1.25Zm-2.72,3.34a11.8,11.8,0,0,1-.85,3.88l-.65-.33a9.33,9.33,0,0,0,.83-3.71Zm-5.52,1.26h-2.41v2.06a14.68,14.68,0,0,0,.08,1.48h-.85a12.23,12.23,0,0,0,.08-1.48v-2.06h-1.88a5.92,5.92,0,0,0-1.26.07v-.8a7.79,7.79,0,0,0,1.28.07h1.87v-2.33H370a6.68,6.68,0,0,0-1.18.07v-.77a6.4,6.4,0,0,0,1.16.07h1.47v-2H369.7a7.08,7.08,0,0,0-1.22.07v-.79a6.91,6.91,0,0,0,1.2.07h3a10.92,10.92,0,0,0,1.19-2.6l.74.29a12.8,12.8,0,0,1-1.23,2.31h.94a6.35,6.35,0,0,0,1.23-.07v.79a6.66,6.66,0,0,0-1.26-.07h-2.14v2h1.78a6.77,6.77,0,0,0,1.27-.07v.77a7.37,7.37,0,0,0-1.24-.07h-1.81v2.33h2.38a11.15,11.15,0,0,0,1.29-.07v.81a10.32,10.32,0,0,0-1.24-.08Zm-5.48-8.59.63-.31a15.08,15.08,0,0,1,1.19,2.06l-.63.32A8.7,8.7,0,0,0,369.09,154.46Zm-2,2.73h-2.65a10.51,10.51,0,0,0-1.12.06v-.77a6,6,0,0,0,1.12.07h2.65a6,6,0,0,0,1.12-.07v.77a6,6,0,0,0-1-.06Zm-.48-1.94h-1.76a8.37,8.37,0,0,0-1,.05v-.76a4.81,4.81,0,0,0,1,.07h1.76a4.81,4.81,0,0,0,1-.07v.76c-.31,0-.61-.05-.92-.05Zm-12.26,10.37a1.78,1.78,0,0,0-.41-.78,8.08,8.08,0,0,0,2.58-.81,4.26,4.26,0,0,0,2.24-3.84,3.78,3.78,0,0,0-2.34-3.63,4.38,4.38,0,0,0-1.68-.33,20.59,20.59,0,0,1-1.36,5.51c-.8,1.87-1.61,2.71-2.59,2.71-1.26,0-2.21-1.42-2.21-3.29a5.64,5.64,0,0,1,5.6-5.66h.31a5.24,5.24,0,0,1,3.74,1.35,4.56,4.56,0,0,1,1.36,3.34,5,5,0,0,1-2.93,4.65,9.35,9.35,0,0,1-2.23.77Zm-2.59-8.74a4.92,4.92,0,0,0-2.4,4.29c0,1.39.62,2.47,1.42,2.47.61,0,1.2-.68,1.83-2.09a19.47,19.47,0,0,0,1.3-5.31,5,5,0,0,0-2.07.64Zm-9.67-2.24.56-.33a12.15,12.15,0,0,1,1.42,2.13l-.62.36A10.76,10.76,0,0,0,342.09,154.64Zm-.1,2.94a11.42,11.42,0,0,0-1.41-2.22l.57-.32a12.38,12.38,0,0,1,1.46,2.18Zm-5.18,1a33.78,33.78,0,0,1,6.19,2.95l-.49.88a25.71,25.71,0,0,0-5.29-2.79,2.35,2.35,0,0,1-.45-.22,3.31,3.31,0,0,1,0,.63v4.51a8,8,0,0,0,.07,1.47h-1a9.93,9.93,0,0,0,.08-1.44V155.9a9.72,9.72,0,0,0-.08-1.43h1a7.72,7.72,0,0,0-.07,1.44Zm-17.67,6.76a4.44,4.44,0,0,0-.52.15l-.25-1a11.92,11.92,0,0,0,4.06-1.08,10.66,10.66,0,0,0,5.73-6.23,2.24,2.24,0,0,0,.7.67,12,12,0,0,1-5.08,5.86,14.85,14.85,0,0,1-4.62,1.61Zm-.52-8.91.56-.6a17.24,17.24,0,0,1,3.32,2.63l-.59.69a15.61,15.61,0,0,0-3.27-2.74Zm-9.44,8a11.13,11.13,0,0,1-3.25,1.53,2.93,2.93,0,0,0-.48-.77,9.36,9.36,0,0,0,2.39-.91,7.8,7.8,0,0,0,3.16-3,10.33,10.33,0,0,0,.95-2.12H304.5a14.2,14.2,0,0,0-1.57.05v-.87a10.39,10.39,0,0,0,1.58.09h7.34a1.51,1.51,0,0,0,.73-.1l.45.53a2.4,2.4,0,0,0-.39.88,9,9,0,0,1-3.44,4.62Zm1-8.43h-4.65a9.65,9.65,0,0,0-1.42.07v-.91a5.71,5.71,0,0,0,1.43.1h4.62a5.71,5.71,0,0,0,1.43-.1V156a8.92,8.92,0,0,0-1.37-.07Zm-13.41-2.3.56-.33a12.1,12.1,0,0,1,1.41,2.13l-.61.36a10.91,10.91,0,0,0-1.32-2.23Zm-.1,2.75.46.57c-.1.14-.08.14-.26.77a12,12,0,0,1-3.48,5.85,12.23,12.23,0,0,1-4.37,2.57,2.51,2.51,0,0,0-.55-.78,10.53,10.53,0,0,0,3.2-1.5c2.32-1.57,3.63-3.57,4.45-6.84h-7.25a9.62,9.62,0,0,0-1.52.09v-.94a9.81,9.81,0,0,0,1.53.08h7.61a11.59,11.59,0,0,0-1.33-2l.57-.32a12.38,12.38,0,0,1,1.46,2.18Zm-15.5,2.49h-3.25a7,7,0,0,1-4.5,7,2.13,2.13,0,0,0-.57-.73,6.52,6.52,0,0,0,3.5-2.91,7.4,7.4,0,0,0,.73-3.34h-4a11.76,11.76,0,0,0-1.56.06v-1a10.39,10.39,0,0,0,1.58.09h4v-2.33a6.35,6.35,0,0,0-.07-1.15h1a7.27,7.27,0,0,0-.07,1.14v2.34h3.21a10.39,10.39,0,0,0,1.58-.09v.9c-.43,0-.85,0-1.54,0Zm-20.08,5.23a37.57,37.57,0,0,0-4.19-.88l.37-.77a42.24,42.24,0,0,1,8.85,2.38l-.33.84A23,23,0,0,0,261.09,164.17Zm4.06-3.94-.3.83a33,33,0,0,0-6.85-1.7l.35-.77a46,46,0,0,1,6.84,1.64Zm-6.89-4.69.35-.77a44.35,44.35,0,0,1,6.92,1.55l-.31.84a35.69,35.69,0,0,0-6.92-1.62Zm-10.51,9.9-.45.18a1,1,0,0,0-.3.14l-.47-.56a2.22,2.22,0,0,0,.09-.81l.07-8.28a8.28,8.28,0,0,0,0-1.22h1a4.82,4.82,0,0,0-.09,1.2l-.08,8.59a6.63,6.63,0,0,0,2.72-1.62,7,7,0,0,0,1.73-2.88,3,3,0,0,0,.65.69,7.92,7.92,0,0,1-2.76,3.53,8.55,8.55,0,0,1-2.07,1Zm-4.41-3a8.29,8.29,0,0,1-2.44,3.4,2,2,0,0,0-.68-.6,6.87,6.87,0,0,0,2.39-3.21,18.42,18.42,0,0,0,.66-6,5.6,5.6,0,0,0-.06-1l1,.05a5.12,5.12,0,0,0-.08,1.17c0,3.69-.22,4.75-.75,6.17Zm-11.52-3.86v5.93a8,8,0,0,0,.07,1.47h-1a8.69,8.69,0,0,0,.08-1.44v-5.41a21.12,21.12,0,0,1-5.52,2.49,2.6,2.6,0,0,0-.45-.77,19.68,19.68,0,0,0,7.26-3.62,12,12,0,0,0,2.69-2.67l.78.61a4,4,0,0,0-.6.57,25.85,25.85,0,0,1-3.27,2.82Zm132.09,4.95a9.34,9.34,0,0,0-.07-1.18,7.07,7.07,0,0,0,1.13.06h1.68a5.57,5.57,0,0,0,1,0,10.09,10.09,0,0,0,0,1.1v1.91a11.28,11.28,0,0,0,.07,1.16h-.63V166h-2.42v.77h-.76a7.71,7.71,0,0,0,.09-1.36Zm.65,1.82h2.53V163h-2.44Zm2.18-6.22h-1.8a8.39,8.39,0,0,0-1,.06v-.73a6.7,6.7,0,0,0,1,0h1.8a6.7,6.7,0,0,0,1,0v.73a7.77,7.77,0,0,0-1-.08Zm1,2a8.39,8.39,0,0,0-1-.06h-1.8a8.39,8.39,0,0,0-1,.06v-.73a5.6,5.6,0,0,0,1,.06h1.8a6.71,6.71,0,0,0,1-.06Zm15.9,3.78-.66.2a12.42,12.42,0,0,0-.75-3.35l.6-.21a19.19,19.19,0,0,1,.87,3.33Z"/>
<path fill="#5a498e" d="M426.73,104.81h-5.88a.11.11,0,0,0-.12.1v18.71a.27.27,0,0,1-.24.3H418.9a.27.27,0,0,1-.3-.24V104.93a.11.11,0,0,0-.1-.12h-5.66a.27.27,0,0,1-.3-.24v-1.35a.27.27,0,0,1,.24-.3h14a.27.27,0,0,1,.3.24v1.35a.27.27,0,0,1-.24.3Zm-25.26,12.48,1.53.09q.3,0,.3.27a6.55,6.55,0,0,1-.88,3.43,6,6,0,0,1-2.48,2.3,8,8,0,0,1-3.69.81,7.86,7.86,0,0,1-3.69-.83,6,6,0,0,1-2.47-2.36,6.77,6.77,0,0,1-.89-3.49v-8.25a6.73,6.73,0,0,1,.89-3.45,6,6,0,0,1,2.47-2.33,7.87,7.87,0,0,1,3.69-.82,8,8,0,0,1,3.69.81,6,6,0,0,1,2.48,2.28,6.41,6.41,0,0,1,.88,3.39.34.34,0,0,1-.09.24.27.27,0,0,1-.21.09l-1.53.09q-.3,0-.3-.27v-.09a4.45,4.45,0,0,0-1.35-3.41,5.61,5.61,0,0,0-7.14,0,4.49,4.49,0,0,0-1.35,3.39v8.4a4.49,4.49,0,0,0,1.35,3.39,5.61,5.61,0,0,0,7.14,0,4.44,4.44,0,0,0,1.35-3.4v-.06C401.17,117.36,401.27,117.29,401.47,117.29Zm-26.4,6a8.72,8.72,0,0,1-7.47,0,6.22,6.22,0,0,1-2.51-2.29,6.7,6.7,0,0,1-.9-3.52V103.22a.27.27,0,0,1,.24-.3H366a.27.27,0,0,1,.3.24V117.5a4.59,4.59,0,0,0,1.37,3.5,5.58,5.58,0,0,0,7.26,0,4.58,4.58,0,0,0,1.38-3.46V103.22a.27.27,0,0,1,.24-.3h1.59a.27.27,0,0,1,.3.24v14.28a6.87,6.87,0,0,1-.88,3.52,6.09,6.09,0,0,1-2.49,2.36Zm-27.81.6h-7.08a.27.27,0,0,1-.3-.24V103.19a.27.27,0,0,1,.24-.3h7.14a6.89,6.89,0,0,1,4.73,1.56,5.35,5.35,0,0,1,1.75,4.23v9.42a5.35,5.35,0,0,1-1.75,4.23,6.9,6.9,0,0,1-4.73,1.59ZM351.61,109a3.93,3.93,0,0,0-3.62-4.23,3.42,3.42,0,0,0-.64,0h-5.26a.11.11,0,0,0-.12.1v17a.11.11,0,0,0,.1.12h5.24a4.21,4.21,0,0,0,3.11-1.14,4.09,4.09,0,0,0,1.15-3.06Zm-26.14,14.28a8.56,8.56,0,0,1-7.52,0,6.21,6.21,0,0,1-2.5-2.45,7.24,7.24,0,0,1-.89-3.64v-7.56a7.28,7.28,0,0,1,.89-3.65,6.12,6.12,0,0,1,2.5-2.44,8.56,8.56,0,0,1,7.52,0A6.09,6.09,0,0,1,328,106a7.27,7.27,0,0,1,.88,3.65v7.56a7.23,7.23,0,0,1-.88,3.64,6.11,6.11,0,0,1-2.52,2.44Zm1.27-13.68a5,5,0,0,0-1.38-3.68,5.46,5.46,0,0,0-7.29,0,5,5,0,0,0-1.38,3.68v7.68a5,5,0,1,0,10.05,0Zm-22.05,14.32h-1.6a.35.35,0,0,1-.36-.21l-4.41-9.3a.12.12,0,0,0-.12-.09h-5.11a.11.11,0,0,0-.12.1v9.2a.27.27,0,0,1-.24.3h-1.59a.27.27,0,0,1-.3-.24V103.22a.27.27,0,0,1,.24-.3h7.83a5.59,5.59,0,0,1,4.17,1.6,6.23,6.23,0,0,1,.45,7.76,5.14,5.14,0,0,1-3.09,1.89q-.12.06-.06.15l4.5,9.24a.38.38,0,0,1,0,.15C304.91,123.85,304.85,123.92,304.69,123.92Zm-3.18-12.39a3.83,3.83,0,0,0,1.08-2.82,3.89,3.89,0,0,0-1.08-2.84,3.8,3.8,0,0,0-2.82-1.09h-5.6a.11.11,0,0,0-.12.1v7.61a.11.11,0,0,0,.1.12h5.6a3.8,3.8,0,0,0,2.84-1.08Zm-26.52,3h-5.85a.11.11,0,0,0-.12.1v9a.27.27,0,0,1-.24.3h-1.59a.27.27,0,0,1-.3-.24V103.19a.27.27,0,0,1,.24-.3h8a5.74,5.74,0,0,1,4.25,1.62,5.8,5.8,0,0,1,1.6,4.26,5.58,5.58,0,0,1-1.63,4.2,5.94,5.94,0,0,1-4.32,1.59Zm2.73-8.7a3.92,3.92,0,0,0-2.88-1.11h-5.7a.11.11,0,0,0-.12.1v7.82a.11.11,0,0,0,.1.12h5.72a4,4,0,0,0,2.88-1.1,3.85,3.85,0,0,0,1.11-2.89,4,4,0,0,0-1.11-2.91Z"/>
</svg>
