<svg xmlns="http://www.w3.org/2000/svg" viewBox="0 0 178 136" width="178" height="136" fill="#fff">
<path d="M159,13.2a7,7,0,0,1-2.21,2.69c-2.5,2-6.4,5.28-8.91,7.65-.43.39-.7.42-1-.2a1.8,1.8,0,0,1,0-1.52,4.85,4.85,0,0,1,1-1.49,66.4,66.4,0,0,1,10.09-8.68c.6-.41,1.07-.31,1.14.43A2.46,2.46,0,0,1,159,13.2ZM145.74,26a1.45,1.45,0,0,1-1.87-1.1,2.07,2.07,0,0,1,0-1.06,1.55,1.55,0,0,1,1.75-1,1.69,1.69,0,0,1,1,1.4A2.1,2.1,0,0,1,145.74,26Zm-9.83-7.22A3.94,3.94,0,0,1,134,17.62a5.5,5.5,0,0,0-.71,1.53c-.34,1.19-.06,2.16.81,2.38,2.19.57,4.7-.93,6.35-2.3.44-.35.84-.31.91.29a2.29,2.29,0,0,1-.9,1.65,8.12,8.12,0,0,1-6.61,1.46c-2.69-.66-3.7-2.69-3.09-4.85a6.83,6.83,0,0,1,1.78-2.88c2.31-2.47,5.05-3.3,6.73-2.87a2,2,0,0,1,.95.47,5.19,5.19,0,0,1,1.39,1.87,1.85,1.85,0,0,1,0,1.07C141.19,17.06,138.45,19.4,135.91,18.75Zm3.88-4.94c-.34-.44-2.95.66-5.07,2.89a1.16,1.16,0,0,0,.58.35,3.92,3.92,0,0,0,2.63-1C139.07,15.24,140,14.13,139.79,13.81Zm-17,6.16c-.29.52-.56.48-1,0a2,2,0,0,1-.42-1.68,5.51,5.51,0,0,1,.49-1.54v0a52.6,52.6,0,0,1,4.37-6.48A86.39,86.39,0,0,0,117.51,19c-.42.51-.69.47-1.08.1a2.89,2.89,0,0,1-.89-2.69,5.17,5.17,0,0,1,.24-1,68.49,68.49,0,0,1,3.27-7.09,81.53,81.53,0,0,0-8.27,9.74c-.24.36-.69.37-1-.05a1.89,1.89,0,0,1-.31-1.46,4.75,4.75,0,0,1,.7-1.68A95.24,95.24,0,0,1,121.36,2.4a.93.93,0,0,1,1.42,0,2.79,2.79,0,0,1,.84,2.43,7.17,7.17,0,0,1-.73,1.92c-1.32,2.35-2.19,4-3.85,7.49,3.81-3.92,7.41-6.15,11.48-10.52.48-.52.87-.49,1.35.09a2.67,2.67,0,0,1,.54,2A5.4,5.4,0,0,1,131.34,8,107.71,107.71,0,0,0,122.83,20Zm-20.75-7.69c-1.94,3.14-4,5.27-6.07,5.3a2.07,2.07,0,0,1-2.16-1.68,4.61,4.61,0,0,1-3.25,1.62,2,2,0,0,1-2.09-2.18,5.63,5.63,0,0,1,.34-1.91,19.43,19.43,0,0,1,.75-1.92,5.46,5.46,0,0,1-1.75.3c-.71,2.62-3,5.85-5.76,5.89a3.77,3.77,0,0,1-2.87-1.36,4,4,0,0,1-.94-2.43A8.27,8.27,0,0,1,79.43,10c1.06-1.83,3-3.54,4.83-3.68a2.28,2.28,0,0,1,2.33,1,3.05,3.05,0,0,0,.43.45,3.44,3.44,0,0,1,1,3,6.2,6.2,0,0,0,3.63-2.8c.28-.45.68-1.08,1-1.5a.74.74,0,0,1,1.25,0,2.11,2.11,0,0,1,.49,1.28,4.81,4.81,0,0,1-.92,2.56,31.81,31.81,0,0,0-2.19,4.12A4.07,4.07,0,0,0,91,15.89c0,.34.1.5.37.5.66,0,1.66-1.54,2.92-3.63s1.88-3.2,2.42-4.16A17.3,17.3,0,0,1,98,6.34c.43-.59.84-.71,1.25-.21a2.21,2.21,0,0,1,.51,1.39,3.69,3.69,0,0,1-.45,1.86c-.54,1.1-1.75,2.83-2.62,4.77a4.39,4.39,0,0,0-.5,1.69c0,.36.14.59.35.58.92,0,2.49-1.82,3.91-4.34.5-4.69,2.47-6.17,3.33-6.18.51,0,.82.4.69,1.16C104.33,8.13,103.94,9.34,102.08,12.28ZM83.47,9a10.14,10.14,0,0,0-1.65,2.18,8.42,8.42,0,0,0-1.14,3.94c0,.84.3,1.14.68,1.14.78,0,2-1,3-3a13.22,13.22,0,0,0,1-2.11A3.47,3.47,0,0,1,83.47,9Zm2.24-1c-.18,0-.44.23-.43.68a2.72,2.72,0,0,0,.52,1.58,4.42,4.42,0,0,0,.38-1.68C86.16,8.17,85.92,8,85.71,8ZM71,13.21A10.16,10.16,0,0,0,70.58,17c.11.67.36,1.12.75,1.06,1.36-.18,2.76-2.27,3.55-4.42.27-.75.92-.84,1.24-.15a2.55,2.55,0,0,1,0,1.85c-.31.89-2.11,3.46-4.59,3.8a2.74,2.74,0,0,1-3.4-2.48A6,6,0,0,1,68.08,15a29.4,29.4,0,0,1,5.28-13.6c.47-.6,1-.84,1.62-.42a2.76,2.76,0,0,1,1.31,1.89,3.35,3.35,0,0,1,0,1.19C75.94,7.51,73.27,11.22,71,13.21Zm3.81-9.4a10.81,10.81,0,0,0-1.45,2.92c-.56,1.33-1.52,3.58-1.64,4.08A17.19,17.19,0,0,0,74,6.89C74.77,5.17,75,3.9,74.76,3.81Zm-13,16.93a2.77,2.77,0,0,1-3.63-2.12,6.18,6.18,0,0,1-.23-1.57,6.84,6.84,0,0,1,0-.89,5.2,5.2,0,0,1-1,.21c-.13,2.27-1.24,5-3,6.13a3.81,3.81,0,0,1-4.23-.23,4.29,4.29,0,0,1-1.48-2.17A7.66,7.66,0,0,1,48.27,16c.72-2.44,2.19-4.33,4-4.77a2.4,2.4,0,0,1,2.16.53c1.28.82,1.94,1.18,2.24,2.67.06.34.1.59.14.93a2.85,2.85,0,0,0,1.06-.26,28.33,28.33,0,0,1,3.71-12,1.17,1.17,0,0,1,1.64-.54,2.88,2.88,0,0,1,1.42,1.75,4.07,4.07,0,0,1,.14,1.15,15.63,15.63,0,0,1-1.38,5.35,11.68,11.68,0,0,1-2.93,4,10.3,10.3,0,0,0,.1,3.92c.18.65.49,1.07.86,1,1.19-.28,2.58-2.53,3.07-4.74.15-.76.74-1,1.12-.27a2.65,2.65,0,0,1,.27,1.8A6.3,6.3,0,0,1,61.74,20.74Zm-9.85-6.53a7.89,7.89,0,0,0-1.1,2.43,8.53,8.53,0,0,0-.1,4.09c.28,1,.69,1.11,1.06,1,.78-.22,1.6-1.55,2.14-3.56a13.28,13.28,0,0,0,.35-2.12A4.15,4.15,0,0,1,51.89,14.21Zm2.53-1.08c-.11-.41-.39-.51-.59-.47s-.37.33-.25.76a2.82,2.82,0,0,0,.9,1.44A4.44,4.44,0,0,0,54.42,13.13ZM61,12.5a15.05,15.05,0,0,0,1.26-2.62C63,8,63.5,5.23,63.18,5.31a9.79,9.79,0,0,0-1.25,3.2,16.48,16.48,0,0,0-1,3.77C61,12.45,61,12.51,61,12.5ZM41.88,10.76c-.33,1.77-.67,4-1.06,6.68a13.79,13.79,0,0,1,1.28-.6c1.55-.67,2.53-.38,3.12.37.27.33.31.58-.28.85a35.75,35.75,0,0,0-4.51,2.4c-.26,2.25-.4,4.16-.57,6.47,0,.4-.39.62-.87.52a1.89,1.89,0,0,1-1.23-1.19,6,6,0,0,1-.32-1.72,73.63,73.63,0,0,1,1.61-13,2.35,2.35,0,0,1-1.6-1c-.23-.31-.12-.53.41-.71a25.81,25.81,0,0,0,4-1.83,18.65,18.65,0,0,1,2.46-1.17,2.73,2.73,0,0,1,3.09.54c.25.24.23.57-.35.78A32.09,32.09,0,0,0,41.88,10.76Z"/>
<path d="M23.14,35.58a1.42,1.42,0,0,1-.79-.23l-1.27-.79a1.51,1.51,0,0,1,.1-2.61,1.51,1.51,0,0,1,2-.31l1.27.8A1.5,1.5,0,0,1,24.3,35,1.51,1.51,0,0,1,23.14,35.58Zm-6.35-4a1.57,1.57,0,0,1-.8-.23l-1.27-.8A1.51,1.51,0,0,1,14.83,28a1.52,1.52,0,0,1,2-.31l1.27.8a1.5,1.5,0,0,1,.47,2.07,1.55,1.55,0,0,1-.58.53A1.51,1.51,0,0,1,16.79,31.6Zm-6.35-4a1.57,1.57,0,0,1-.8-.23l-1.27-.8a1.5,1.5,0,0,1-.47-2.07A1.47,1.47,0,0,1,8.48,24a1.5,1.5,0,0,1,1.95-.32l1.27.8a1.5,1.5,0,0,1,.48,2.07,1.55,1.55,0,0,1-.58.53A1.48,1.48,0,0,1,10.44,27.61Zm-6.35-4a1.54,1.54,0,0,1-.8-.23L2.68,23a1.5,1.5,0,0,1-.49-2l.28-.49a1.54,1.54,0,0,1,.94-.7A1.46,1.46,0,0,1,4.56,20l.79.49a1.51,1.51,0,0,1,.48,2.07,1.46,1.46,0,0,1-.59.54A1.5,1.5,0,0,1,4.09,23.62Z"/>
<path d="M150.52,40.65a1.48,1.48,0,0,1-1.39-.93l-.22-.53a1.53,1.53,0,0,1,0-1.17,1.49,1.49,0,0,1,.85-.8l.87-.33a1.51,1.51,0,0,1,1.93.89,1.43,1.43,0,0,1,.07.79,1.49,1.49,0,0,1-.94,1.74l-.67.25A1.58,1.58,0,0,1,150.52,40.65Zm6.3-2.33a1.51,1.51,0,0,1-1.41-1,1.43,1.43,0,0,1-.07-.79,1.49,1.49,0,0,1,.94-1.74l1.41-.52a1.49,1.49,0,0,1,1.92.88,1.44,1.44,0,0,1,.07.79,1.49,1.49,0,0,1-.94,1.74l-1.4.52A1.37,1.37,0,0,1,156.82,38.32Zm7-2.61a1.5,1.5,0,0,1-1.48-1.77,1.5,1.5,0,0,1,.94-1.74l1.41-.52a1.5,1.5,0,0,1,1.93.88,1.66,1.66,0,0,1,.07.79,1.5,1.5,0,0,1-.94,1.74l-1.41.52A1.37,1.37,0,0,1,163.85,35.71Zm7-2.61a1.5,1.5,0,0,1-1.41-1,1.64,1.64,0,0,1-.07-.79,1.51,1.51,0,0,1,.94-1.74l1.41-.52a1.51,1.51,0,0,1,1.93.89,1.61,1.61,0,0,1,.07.78,1.49,1.49,0,0,1-.94,1.74L171.4,33A1.58,1.58,0,0,1,170.88,33.1Z"/>
<path d="M133.8,72.31A40.9,40.9,0,0,0,132,62.26,23.6,23.6,0,0,0,117.74,48a37.34,37.34,0,0,0-9.95-1.71Q102,46,89,46t-18.8.3A37.34,37.34,0,0,0,60.26,48,23.6,23.6,0,0,0,46,62.26,37.34,37.34,0,0,0,44.3,72.2Q44,77.94,44,91t.3,18.79A37.34,37.34,0,0,0,46,119.74a23,23,0,0,0,5.49,8.76,21,21,0,0,0,8.71,5.34,32.79,32.79,0,0,0,9.95,1.85Q75.95,136,89,136t18.79-.3a37.34,37.34,0,0,0,9.95-1.71A23.6,23.6,0,0,0,132,119.74a37.34,37.34,0,0,0,1.71-9.95q.3-5.72.3-18.79T133.8,72.31ZM126,94.21c0,5.35,0,9.52-.2,12.45a42.45,42.45,0,0,1-1.6,10.87,15.36,15.36,0,0,1-8.57,8.57,40.7,40.7,0,0,1-10.86,1.6c-2.82.2-7,.2-12.45.2H85.85q-8,0-12.45-.2a43.4,43.4,0,0,1-10.86-1.6A15.4,15.4,0,0,1,54,117.53a43.89,43.89,0,0,1-1.61-10.87c-.19-2.93-.19-7.1-.19-12.45V87.79c0-5.35,0-9.52.19-12.45A42.91,42.91,0,0,1,54,64.47a14.55,14.55,0,0,1,8.58-8.57A43.4,43.4,0,0,1,73.4,54.3c3-.2,7.09-.2,12.45-.2h6.44q8,0,12.45.2a40.69,40.69,0,0,1,10.85,1.6,14.52,14.52,0,0,1,8.57,8.56,40.91,40.91,0,0,1,1.6,10.88c.2,2.81.2,7,.2,12.45Z"/>
<path d="M100.55,71A23.07,23.07,0,1,0,109,79.45,23.09,23.09,0,0,0,100.55,71Zm-.84,30.7-.21.23a15,15,0,0,1-21.21-.23l-.23-.21a15,15,0,0,1,.23-21.21l.21-.22a15,15,0,0,1,21.21.22l.23.21A15,15,0,0,1,99.71,101.71Z"/>
<path d="M109.19,63.17A5.41,5.41,0,0,0,113,72.39a4.84,4.84,0,0,0,3.81-1.69,6,6,0,0,0,1.71-3.81,5.21,5.21,0,0,0-1.71-3.75A5.44,5.44,0,0,0,109.19,63.17Z"/>
</svg>
