<svg xmlns="http://www.w3.org/2000/svg" viewBox="0 0 240 171" width="240" height="171" fill="#fff">
<path d="M199.08,19.53a9.38,9.38,0,0,1-3.28,3.13c-3.52,2.24-9.05,5.88-12.65,8.58-.62.43-1,.43-1.25-.39a2.31,2.31,0,0,1,.23-2,6.71,6.71,0,0,1,1.55-1.76A89.36,89.36,0,0,1,198,17.41c.84-.44,1.43-.25,1.39.7A3.25,3.25,0,0,1,199.08,19.53ZM177.84,32.4a2.57,2.57,0,0,1,.21-1.35,2,2,0,0,1,2.41-1,2.08,2.08,0,0,1,1.07,1.92,2.75,2.75,0,0,1-1.48,2.12A1.81,1.81,0,0,1,177.84,32.4Zm-9.42-8.67a5,5,0,0,1-2.29-1.6A7.43,7.43,0,0,0,165.05,24c-.57,1.49-.32,2.76.76,3.12,2.75.92,6.13-.78,8.42-2.38.6-.41,1.1-.32,1.13.46a3.09,3.09,0,0,1-1.35,2,10.56,10.56,0,0,1-8.64,1.27C162,27.43,160.93,24.74,162,22a8.87,8.87,0,0,1,2.61-3.52c3.25-3,6.87-3.78,9-3.08a2.51,2.51,0,0,1,1.17.7,6.53,6.53,0,0,1,1.57,2.51,2.47,2.47,0,0,1-.12,1.38C175.39,22.05,171.6,24.8,168.42,23.73Zm5.55-6c-.39-.58-3.86.59-6.84,3.26a1.61,1.61,0,0,0,.71.5c.87.29,2.41-.34,3.49-1C172.88,19.53,174.25,18.19,174,17.75Zm-10.9-8.44a141.79,141.79,0,0,0-11.66,15c-.41.66-.75.6-1.25,0a2.46,2.46,0,0,1-.44-2.17,7.21,7.21,0,0,1,.72-2v0a69.19,69.19,0,0,1,6-8.14,113.79,113.79,0,0,0-11.85,10.84c-.56.63-.9.57-1.38.08a3.67,3.67,0,0,1-1-3.49,7.88,7.88,0,0,1,.37-1.22,89.26,89.26,0,0,1,4.64-9A106.61,106.61,0,0,0,136,21.45a.76.76,0,0,1-1.31-.1,2.33,2.33,0,0,1-.31-1.89,5.92,5.92,0,0,1,1-2.13c2.29-3.24,10.16-11.4,15.16-15.65a1.2,1.2,0,0,1,1.83.08,3.56,3.56,0,0,1,.94,3.15,9,9,0,0,1-1.06,2.44c-1.84,3-3.05,5-5.4,9.46,5.14-4.88,9.9-7.59,15.4-13,.64-.65,1.14-.59,1.72.18a3.36,3.36,0,0,1,.58,2.64A6.91,6.91,0,0,1,163.07,9.31Zm-38.28,4.51c-2.47,4.08-5.1,6.87-7.75,7a2.64,2.64,0,0,1-2.81-2.11,6,6,0,0,1-4.15,2.16,2.53,2.53,0,0,1-2.71-2.76,6.9,6.9,0,0,1,.41-2.47,24.82,24.82,0,0,1,.94-2.48,7.35,7.35,0,0,1-2.25.44c-.88,3.38-3.8,7.58-7.33,7.69a4.79,4.79,0,0,1-3.72-1.68,5.13,5.13,0,0,1-1.23-3.1,10.67,10.67,0,0,1,1.43-5.09C97,9,99.45,6.75,101.79,6.53a2.92,2.92,0,0,1,3,1.23,4.16,4.16,0,0,0,.55.56,4.38,4.38,0,0,1,1.38,3.81,8,8,0,0,0,4.63-3.68c.36-.59.87-1.39,1.27-1.95a1,1,0,0,1,1.61-.09,2.7,2.7,0,0,1,.64,1.64,6.28,6.28,0,0,1-1.15,3.32A41.69,41.69,0,0,0,111,16.72a5.29,5.29,0,0,0-.43,2c0,.43.14.65.49.63.84,0,2.12-2,3.71-4.73,1.52-2.53,2.38-4.15,3.07-5.39a21.44,21.44,0,0,1,1.7-2.94c.55-.77,1.08-.94,1.6-.3a2.77,2.77,0,0,1,.68,1.78,4.7,4.7,0,0,1-.56,2.39c-.68,1.43-2.21,3.68-3.31,6.2a5.53,5.53,0,0,0-.61,2.18c0,.47.18.75.45.74,1.19,0,3.18-2.41,5-5.67.58-6,3.09-8,4.2-8,.66,0,1.06.51.9,1.49C127.63,8.43,127.14,10,124.79,13.82Zm-24-3.77a12.78,12.78,0,0,0-2.08,2.85A10.68,10.68,0,0,0,97.29,18c0,1.08.4,1.46.9,1.44,1,0,2.56-1.38,3.82-3.87a17.89,17.89,0,0,0,1.28-2.74A4.45,4.45,0,0,1,100.8,10.05Zm2.88-1.35c-.23,0-.57.31-.55.88a3.47,3.47,0,0,0,.69,2,5.53,5.53,0,0,0,.46-2.17C104.26,8.9,103.94,8.69,103.68,8.7Zm-18,15a3.52,3.52,0,0,1-4.52-3A8.34,8.34,0,0,1,81,18.68c.22-6.14,3.08-13.47,6-17.8C87.55.07,88.18-.27,89,.24a3.53,3.53,0,0,1,1.8,2.34,4.61,4.61,0,0,1,.09,1.52c-.27,4.43-3.49,9.36-6.36,12.07A13.48,13.48,0,0,0,84.31,21c.18.84.54,1.4,1,1.31,1.73-.33,3.41-3.1,4.3-5.91.3-1,1.13-1.13,1.59-.26a3.27,3.27,0,0,1,.11,2.36C91,19.7,88.83,23.12,85.67,23.71ZM88.15,7.86c.85-2.26,1-3.9.75-4s-.85,1.52-1.68,3.84c-.65,1.74-1.74,4.7-1.87,5.35A22.31,22.31,0,0,0,88.15,7.86ZM73.21,26.52a3.54,3.54,0,0,1-4.85-2.34,7.66,7.66,0,0,1-.45-2,7.07,7.07,0,0,1-.14-1.14,7,7,0,0,1-1.25.37c.06,2.91-1.09,6.49-3.28,8.15a4.55,4.55,0,0,1-1.38.68,4.74,4.74,0,0,1-4.07-.55,5.56,5.56,0,0,1-2.11-2.63,10,10,0,0,1-.2-5.27c.69-3.19,2.38-5.76,4.67-6.51a3.1,3.1,0,0,1,2.81.46c1.73.93,2.61,1.33,3.14,3.21a11.67,11.67,0,0,1,.27,1.17,3.7,3.7,0,0,0,1.35-.43A36.16,36.16,0,0,1,71.27,3.91a1.49,1.49,0,0,1,2-.85,3.66,3.66,0,0,1,2,2.09,5.31,5.31,0,0,1,.3,1.47,20.4,20.4,0,0,1-1.24,7A15,15,0,0,1,71,19a13.37,13.37,0,0,0,.52,5c.3.82.73,1.32,1.2,1.17,1.49-.48,3.06-3.51,3.46-6.38.12-1,.86-1.31,1.42-.46a3.39,3.39,0,0,1,.51,2.27A8,8,0,0,1,73.21,26.52ZM59.94,19.13a10.06,10.06,0,0,0-1.16,3.24,10.93,10.93,0,0,0,.27,5.25c.46,1.22,1,1.35,1.47,1.2,1-.35,1.89-2.14,2.38-4.78a16.29,16.29,0,0,0,.24-2.74A5.39,5.39,0,0,1,59.94,19.13Zm3.14-1.62c-.19-.52-.55-.62-.81-.54s-.44.45-.24,1a3.65,3.65,0,0,0,1.3,1.75A5.56,5.56,0,0,0,63.08,17.51Zm8.37-1.46a19.32,19.32,0,0,0,1.35-3.49c.71-2.48,1.13-6.09.73-6s-.79,1.82-1.28,4.23a21.26,21.26,0,0,0-.86,4.93C71.39,16,71.41,16.06,71.45,16.05Zm-25.2,0c-.17,2.31-.3,5.16-.4,8.69.6-.41,1.06-.67,1.55-1,1.88-1.06,3.18-.83,4,.05.38.38.47.7-.25,1.13a46,46,0,0,0-5.41,3.68c0,2.91.08,5.38.19,8.35,0,.52-.4.84-1,.78a2.44,2.44,0,0,1-1.73-1.35,7.35,7.35,0,0,1-.65-2.15c-.5-3.2-.36-10.95.19-16.91a3,3,0,0,1-2.19-1c-.33-.37-.23-.66.42-1a33,33,0,0,0,4.86-2.89,24.44,24.44,0,0,1,3-1.83,3.53,3.53,0,0,1,4,.26c.37.27.39.71-.33,1A42.24,42.24,0,0,0,46.25,16.09Z"/>
<path d="M35.56,60.45a2,2,0,0,1-1-.28l-1.72-1a2,2,0,1,1,2.06-3.43l1.71,1a2,2,0,0,1-1,3.72Zm-5.5-4.25a2,2,0,0,1-1-.28l-1.27-.76A2,2,0,0,1,26,55l-1.72-1a2,2,0,1,1,2.05-3.43l1.28.76a2,2,0,0,1,1.8.13l1.72,1a2,2,0,0,1-1,3.71Zm-8.58-5.13a2,2,0,0,1-1-.28L19.18,50a2,2,0,0,1-1.8-.12l-1.72-1a2,2,0,1,1,2.05-3.43L19,46.2a2,2,0,0,1,1.8.13l1.72,1a2,2,0,0,1-1,3.72ZM12.9,45.93a2,2,0,0,1-1-.28l-1.27-.76a2,2,0,0,1-1.81-.13l-1.71-1A2,2,0,0,1,9.13,40.3l1.28.76a2,2,0,0,1,1.8.13l1.72,1a2,2,0,0,1-1,3.71Zm-10-5a2,2,0,0,1-1-.3,2,2,0,0,1-.65-2.75l.43-.7a2,2,0,0,1,2.73-.66l1,.6A2,2,0,0,1,6,39.83a2,2,0,0,1-2.32.87A2,2,0,0,1,2.87,40.89Z"/>
<path d="M202.81,55.33a2,2,0,0,1,1-2.64h0a2,2,0,0,1,2.64,1h0a2,2,0,0,1-1,2.65h0a2.1,2.1,0,0,1-.81.17h0A2,2,0,0,1,202.81,55.33Zm5-1.33a2,2,0,0,1,1-2.64h0a2,2,0,0,1,2.64,1h0a2,2,0,0,1-1,2.65h0a1.93,1.93,0,0,1-.81.17h0A2,2,0,0,1,207.8,54Zm6-3.55a2,2,0,0,1,1-2.63h0a2,2,0,0,1,2.64,1h0a2,2,0,0,1-1,2.64h0a2,2,0,0,1-.81.18h0A2,2,0,0,1,213.77,50.45Zm5-1.33a2,2,0,0,1,1-2.63h0a2,2,0,0,1,2.64,1h0a2,2,0,0,1-1,2.65h0a2.15,2.15,0,0,1-.82.17h0A2,2,0,0,1,218.76,49.12Zm6-3.55a2,2,0,0,1,1-2.63h0a2,2,0,0,1,2.64,1h0a2,2,0,0,1-1,2.63h0a2,2,0,0,1-.81.19h0A2,2,0,0,1,224.74,45.57Zm5-1.33a2,2,0,0,1,1-2.63h0a2,2,0,0,1,2.64,1h0a2,2,0,0,1-1,2.64h0a1.93,1.93,0,0,1-.81.17h0A2,2,0,0,1,229.73,44.24Zm5.58-2.45a2,2,0,0,1,1-2.65h0a2,2,0,0,1,2.65,1h0a2,2,0,0,1-1,2.66h0a1.89,1.89,0,0,1-.83.18h0A2,2,0,0,1,235.31,41.79Z"/>
<path d="M176.72,86.09a54.51,54.51,0,0,0-2.4-13.4,31.45,31.45,0,0,0-19-19A49.83,49.83,0,0,0,142,51.4Q134.33,51,117,51t-25.06.4a50.08,50.08,0,0,0-13.25,2.27,31.45,31.45,0,0,0-19,19A49.74,49.74,0,0,0,57.4,85.94Q57,93.59,57,111t.4,25a49.42,49.42,0,0,0,2.27,13.26A30.59,30.59,0,0,0,67,161a28,28,0,0,0,11.61,7.12,43.81,43.81,0,0,0,13.26,2.47Q99.6,171,117,171t25-.4a49.83,49.83,0,0,0,13.27-2.28,31.46,31.46,0,0,0,19-19,49.83,49.83,0,0,0,2.28-13.26q.41-7.63.4-25T176.72,86.09Zm-10.4,29.2c0,7.13,0,12.69-.27,16.59a56.43,56.43,0,0,1-2.13,14.5A20.47,20.47,0,0,1,152.5,157.8,54.19,54.19,0,0,1,138,159.93c-3.76.27-9.33.27-16.6.27h-8.63q-10.67,0-16.59-.27a57.61,57.61,0,0,1-14.48-2.13,20.51,20.51,0,0,1-11.39-11.42,58.3,58.3,0,0,1-2.14-14.5c-.26-3.9-.26-9.46-.26-16.59v-8.56c0-7.14,0-12.69.26-16.6a57.31,57.31,0,0,1,2.14-14.49A19.42,19.42,0,0,1,81.77,64.21,58.2,58.2,0,0,1,96.2,62.08c4-.27,9.45-.27,16.59-.27h8.59q10.67,0,16.6.27a54,54,0,0,1,14.46,2.13,19.4,19.4,0,0,1,11.43,11.41A54.41,54.41,0,0,1,166,90.13c.27,3.75.27,9.33.27,16.6Z"/>
<path d="M132.39,84.34a30.76,30.76,0,1,0,11.27,11.27A30.76,30.76,0,0,0,132.39,84.34Zm-1.12,40.93-.28.31a20,20,0,0,1-28.28-.31l-.3-.28a20,20,0,0,1,.3-28.28l.28-.29a20,20,0,0,1,28.28.29l.31.28a20,20,0,0,1-.3,28.28v0Z"/>
<path d="M143.91,73.9A7.22,7.22,0,0,0,149,86.2a6.47,6.47,0,0,0,5.08-2.26,8,8,0,0,0,2.28-5.08,7,7,0,0,0-2.28-5A7.27,7.27,0,0,0,143.91,73.9Z"/>
</svg>
