<svg xmlns="http://www.w3.org/2000/svg" viewBox="0 0 132 70" width="132" height="70" fill="#5a498e">
<path d="M115.25,5.57a4.79,4.79,0,0,1-1.32,2.08c-1.58,1.64-4,4.26-5.59,6.15-.27.3-.46.35-.73-.06a1.3,1.3,0,0,1-.16-1.08,3.75,3.75,0,0,1,.59-1.14,46,46,0,0,1,6.34-7c.39-.34.73-.31.85.21A1.78,1.78,0,0,1,115.25,5.57Zm-8.18,10.11a1,1,0,0,1-1.43-.62,1.45,1.45,0,0,1-.08-.75,1.08,1.08,0,0,1,1.15-.85,1.2,1.2,0,0,1,.85.9A1.44,1.44,0,0,1,107.07,15.68Zm-8.7-1.52a2.7,2.7,0,0,1-2.54-3.25,4.75,4.75,0,0,1,1-2.16c1.47-1.9,3.36-2.66,4.58-2.46a1.52,1.52,0,0,1,.71.28,3.74,3.74,0,0,1,1.12,1.24,1.29,1.29,0,0,1,.08.76,3.79,3.79,0,0,1-3.84,2.7,2.91,2.91,0,0,1-1.42-.67,4.05,4.05,0,0,0-.39,1.12c-.16.87.12,1.54.75,1.64,1.6.27,3.27-.95,4.35-2,.28-.28.56-.27.66.15a1.66,1.66,0,0,1-.52,1.23A5.77,5.77,0,0,1,98.37,14.16ZM99,10.11a2.75,2.75,0,0,0,1.8-.85c.75-.67,1.35-1.52,1.15-1.74s-2,.66-3.39,2.38A.89.89,0,0,0,99,10.11Zm-8.66,2.76c-.19.38-.38.36-.69.05a1.35,1.35,0,0,1-.38-1.17,4,4,0,0,1,.27-1.12v0a37.62,37.62,0,0,1,2.82-4.78,61,61,0,0,0-5.86,6.56c-.27.38-.46.36-.76.11A2.06,2.06,0,0,1,85,10.66a5.16,5.16,0,0,1,.14-.68,46.65,46.65,0,0,1,2-5.18,56.65,56.65,0,0,0-5.43,7.26.43.43,0,0,1-.73,0,1.3,1.3,0,0,1-.29-1,3.23,3.23,0,0,1,.42-1.22A67.85,67.85,0,0,1,88.44.44a.67.67,0,0,1,1,0,2,2,0,0,1,.71,1.69,4.67,4.67,0,0,1-.43,1.4c-.83,1.73-1.37,2.9-2.39,5.49,2.53-3,5-4.68,7.69-8,.31-.39.59-.38,1,0a1.9,1.9,0,0,1,.48,1.43A3.72,3.72,0,0,1,95.82,4,75.84,75.84,0,0,0,90.32,12.87ZM75.38,8.15C74,10.4,72.56,11.93,71.09,12a1.5,1.5,0,0,1-1.57-1.18A3.25,3.25,0,0,1,67.22,12a1.42,1.42,0,0,1-1.51-1.54,4.07,4.07,0,0,1,.22-1.36c.16-.46.31-.89.53-1.37a4,4,0,0,1-1.25.23c-.49,1.87-2.1,4.18-4.07,4.23a2.63,2.63,0,0,1-2.06-1,2.83,2.83,0,0,1-.69-1.72,5.83,5.83,0,0,1,.79-2.81A5,5,0,0,1,62.6,4a1.62,1.62,0,0,1,1.67.7,3,3,0,0,0,.31.31,2.46,2.46,0,0,1,.77,2.12,4.49,4.49,0,0,0,2.57-2c.2-.33.48-.77.7-1.08a.54.54,0,0,1,.9,0,1.52,1.52,0,0,1,.35.91,3.42,3.42,0,0,1-.63,1.83,22.82,22.82,0,0,0-1.53,3,2.73,2.73,0,0,0-.23,1.1c0,.24.07.36.27.35.46,0,1.17-1.1,2-2.6s1.32-2.29,1.7-3A12.34,12.34,0,0,1,72.44,4c.3-.43.6-.52.89-.16a1.59,1.59,0,0,1,.38,1A2.48,2.48,0,0,1,73.4,6.1c-.38.79-1.22,2-1.83,3.42a3.06,3.06,0,0,0-.34,1.21c0,.26.1.41.25.41.66,0,1.76-1.32,2.76-3.12C74.56,4.68,76,3.6,76.57,3.59c.36,0,.59.28.5.82A9.8,9.8,0,0,1,75.38,8.15ZM62.06,6A7.11,7.11,0,0,0,60.9,7.53a5.88,5.88,0,0,0-.79,2.81c0,.6.23.81.5.81.56,0,1.43-.76,2.12-2.13a9,9,0,0,0,.71-1.52A2.44,2.44,0,0,1,62.06,6Zm1.59-.74c-.13,0-.31.17-.3.49a1.94,1.94,0,0,0,.38,1.13A3.13,3.13,0,0,0,64,5.63C64,5.33,63.8,5.22,63.65,5.22ZM53.26,8.78a7.28,7.28,0,0,0-.34,2.67c.07.48.24.8.51.77,1-.11,2-1.57,2.63-3.09.2-.53.67-.58.89-.08a1.79,1.79,0,0,1,0,1.31A4.84,4.84,0,0,1,53.56,13a2,2,0,0,1-2.38-1.83,4.78,4.78,0,0,1,0-1.14,21.11,21.11,0,0,1,4-9.59c.35-.42.71-.58,1.16-.27a2,2,0,0,1,.9,1.37,2.44,2.44,0,0,1,0,.85C56.94,4.81,55,7.4,53.26,8.78Zm2.91-6.62a7.53,7.53,0,0,0-1.09,2.05c-.43.93-1.16,2.52-1.26,2.88a12.53,12.53,0,0,0,1.77-2.76C56.15,3.13,56.3,2.22,56.17,2.16ZM46.54,13.9a2,2,0,0,1-2.49-1.64A4.39,4.39,0,0,1,44,11.14a3.38,3.38,0,0,1,0-.64,3.41,3.41,0,0,1-.72.11,5.86,5.86,0,0,1-2.44,4.24,2.48,2.48,0,0,1-.81.27,2.62,2.62,0,0,1-2.19-.59,3,3,0,0,1-1-1.6A5.51,5.51,0,0,1,37.14,10c.63-1.7,1.76-3,3.08-3.23a1.71,1.71,0,0,1,1.51.46c.88.63,1.33.91,1.48,2,0,.24,0,.42.06.66A2,2,0,0,0,44,9.76a20.26,20.26,0,0,1,3.18-8.41A.84.84,0,0,1,48.41,1a2,2,0,0,1,.94,1.3,3.07,3.07,0,0,1,0,.82A11.28,11.28,0,0,1,48.18,6.9a8.38,8.38,0,0,1-2.27,2.74,7.29,7.29,0,0,0-.1,2.79c.1.47.3.78.57.73.86-.16,1.95-1.7,2.4-3.25.14-.54.57-.65.81-.15a1.91,1.91,0,0,1,.11,1.29A4.51,4.51,0,0,1,46.54,13.9Zm-6.73-5a5.4,5.4,0,0,0-.89,1.69,5.9,5.9,0,0,0-.26,2.9c.16.71.44.82.71.77.56-.12,1.21-1,1.68-2.45a9.16,9.16,0,0,0,.35-1.49A2.89,2.89,0,0,1,39.81,8.88Zm1.85-.66c-.06-.3-.26-.38-.4-.36s-.28.22-.21.53a2,2,0,0,0,.58,1.06A3,3,0,0,0,41.66,8.22ZM46.38,8a11.1,11.1,0,0,0,1-1.82C48,4.9,48.49,3,48.26,3a6.76,6.76,0,0,0-1,2.22,12.4,12.4,0,0,0-.85,2.64C46.35,8,46.36,8,46.38,8ZM33.15,5.88c-.36,1.23-.76,2.76-1.23,4.66.37-.15.66-.25,1-.34,1.15-.38,1.82-.12,2.19.45.17.25.18.44-.26.59a26.2,26.2,0,0,0-3.38,1.42c-.34,1.58-.58,2.93-.86,4.55-.05.29-.32.42-.66.32a1.32,1.32,0,0,1-.78-.92A3.93,3.93,0,0,1,29,15.37a51.2,51.2,0,0,1,2.06-9.15A1.61,1.61,0,0,1,30,5.43c-.14-.23-.05-.38.34-.48a17.81,17.81,0,0,0,3-1.05,11.74,11.74,0,0,1,1.83-.67,2,2,0,0,1,2.16.57c.17.18.13.42-.3.53A23.72,23.72,0,0,0,33.15,5.88Z"/>
<path d="M21.24,30a1.42,1.42,0,0,1-.79-.23L19.17,29a1.49,1.49,0,0,1-.47-2.06,1.46,1.46,0,0,1,.69-.59,1.49,1.49,0,0,1,1.88-.24l1.27.8A1.49,1.49,0,0,1,23,29a1.46,1.46,0,0,1-.69.59A1.51,1.51,0,0,1,21.24,30Zm-6.36-4a1.45,1.45,0,0,1-.79-.23L12.82,25a1.48,1.48,0,0,1-.48-2.06,1.52,1.52,0,0,1,.69-.59,1.5,1.5,0,0,1,1.89-.24l1.27.8A1.49,1.49,0,0,1,16.66,25a1.54,1.54,0,0,1-.68.59A1.5,1.5,0,0,1,14.88,26Zm-6.35-4a1.46,1.46,0,0,1-.8-.23L6.46,21a1.5,1.5,0,0,1,.21-2.65,1.5,1.5,0,0,1,1.89-.24l1.27.8A1.5,1.5,0,0,1,10.31,21a1.56,1.56,0,0,1-.69.59A1.53,1.53,0,0,1,8.53,22.05Zm-6.36-4a1.57,1.57,0,0,1-.8-.23L.8,17.48a1.49,1.49,0,0,1-.49-2L.59,15a1.52,1.52,0,0,1,2.09-.51l.79.5A1.49,1.49,0,0,1,4,17a1.45,1.45,0,0,1-.69.59A1.49,1.49,0,0,1,2.17,18.07Z"/>
<path d="M108.63,32.08a1.5,1.5,0,0,1-1.39-.93l-.21-.53a1.53,1.53,0,0,1,0-1.17,1.49,1.49,0,0,1,.85-.8l.88-.32a1.49,1.49,0,0,1,1.92.89,1.43,1.43,0,0,1,.06.84,1.49,1.49,0,0,1-1,1.69l-.66.24A1.33,1.33,0,0,1,108.63,32.08Zm6.29-2.32a1.49,1.49,0,0,1-1.41-1,1.43,1.43,0,0,1-.06-.84,1.5,1.5,0,0,1,1-1.69l1.41-.52a1.5,1.5,0,0,1,1.93.88,1.56,1.56,0,0,1,.06.85,1.51,1.51,0,0,1-1,1.69l-1.4.52A1.63,1.63,0,0,1,114.92,29.76Zm7-2.6a1.5,1.5,0,0,1-1.41-1,1.43,1.43,0,0,1-.05-.84,1.49,1.49,0,0,1,1-1.69l1.41-.52a1.49,1.49,0,0,1,1.92.88,1.46,1.46,0,0,1,.06.85,1.5,1.5,0,0,1-1,1.69l-1.41.52A1.58,1.58,0,0,1,122,27.16Zm7-2.6a1.5,1.5,0,0,1-1.4-1,1.46,1.46,0,0,1-.06-.85,1.5,1.5,0,0,1,1-1.68l1.41-.52a1.5,1.5,0,0,1,1.93.88,1.46,1.46,0,0,1,.05.85,1.49,1.49,0,0,1-1,1.69l-1.41.52A1.54,1.54,0,0,1,129,24.56Z"/>
<path d="M85.91,41.69a18.33,18.33,0,0,0-.8-4.46,10.48,10.48,0,0,0-6.34-6.34,17,17,0,0,0-4.42-.76C72.65,30,69.86,30,66,30s-6.65,0-8.35.13a17,17,0,0,0-4.42.76,10.48,10.48,0,0,0-6.34,6.34,17,17,0,0,0-.76,4.42Q46,44.2,46,50t.13,8.35a17,17,0,0,0,.76,4.42,10.38,10.38,0,0,0,2.44,3.9A9.44,9.44,0,0,0,53.21,69a14.46,14.46,0,0,0,4.42.82Q60.2,70,66,70t8.35-.13a17,17,0,0,0,4.42-.76,10.48,10.48,0,0,0,6.34-6.34,17,17,0,0,0,.76-4.42C86,56.66,86,53.87,86,50S86,43.36,85.91,41.69Zm-3.48,9.74c0,2.38,0,4.23-.09,5.53a19.18,19.18,0,0,1-.71,4.83,6.83,6.83,0,0,1-3.81,3.81,18.32,18.32,0,0,1-4.83.71c-1.25.09-3.1.09-5.53.09H64.6c-2.38,0-4.22,0-5.53-.09a19.18,19.18,0,0,1-4.83-.71,6.8,6.8,0,0,1-3.81-3.81A19.73,19.73,0,0,1,49.71,57c-.08-1.3-.08-3.15-.08-5.53V48.57c0-2.38,0-4.23.08-5.53a18.75,18.75,0,0,1,.72-4.83,6.46,6.46,0,0,1,3.81-3.81,19.18,19.18,0,0,1,4.83-.71c1.33-.09,3.15-.09,5.53-.09h2.86c2.38,0,4.23,0,5.53.09a18.32,18.32,0,0,1,4.83.71,6.49,6.49,0,0,1,3.81,3.81A18.32,18.32,0,0,1,82.34,43c.09,1.25.09,3.09.09,5.53Z"/>
<path d="M71.13,41.11a10.26,10.26,0,1,0,3.76,3.76A10.26,10.26,0,0,0,71.13,41.11Zm-.37,13.65-.09.1a6.67,6.67,0,0,1-9.43-.1l-.1-.09a6.67,6.67,0,0,1,.1-9.43l.09-.1a6.67,6.67,0,0,1,9.43.1l.1.09A6.67,6.67,0,0,1,70.76,54.76Z"/>
<path d="M75,37.63A2.41,2.41,0,0,0,75,41a2.46,2.46,0,0,0,1.69.7A2.16,2.16,0,0,0,78.36,41a2.77,2.77,0,0,0,.76-1.69,2.31,2.31,0,0,0-.76-1.67A2.42,2.42,0,0,0,75,37.63Z"/>
</svg>
