<svg xmlns="http://www.w3.org/2000/svg" viewBox="0 0 493 240" width="493" height="240" fill="#5a498e">
<path d="M104.39,34.92H56.74c-2.5-1.4-7-3.68-8.64-4.07l-.74-.17.14.75a60.41,60.41,0,0,1,1,11.56V54.53c0,1.55-.11,3.19-.21,4.77,0,.78-.1,1.55-.14,2.31-.09,1.59-.24,2.64-.31,3.09a2.43,2.43,0,0,0,0,.31v.47c0,1.9,1.13,3,3.18,3,3.66,0,4.57-2,4.69-3.65,0-.22,0-.54-.05-.89s0-.47,0-.71h49.91c0,.62-.06,1.2-.08,1.58s0,.41,0,.49c0,2.59,2.57,2.59,3.41,2.59,4.13,0,4.34-2.64,4.34-3.18,0-.12,0-.39,0-.74,0-.64-.08-1.57-.08-2.4,0-.57-.08-2-.17-3.57s-.18-3.4-.18-4.12V40.09c2.51-.86,3.73-1.93,3.73-3.28,0-2.92-7-6.32-7.38-6.32S107.74,30.83,104.39,34.92Zm1.25,16.26v3.93c0,.72,0,1.54-.06,2.33,0,.52,0,1,0,1.48H55.59c0-.77,0-1.51-.07-2.11,0-.43,0-.78,0-1l.11-4.64Zm-50-4.73V39.18h50v7.27ZM31.79,132.17c2,0,2.32-2.93,2.36-4.55,2-.55,4.42-1.21,7.18-2,8.78-2.37,20.71-5.58,28.75-8.43-.35,12.6-.5,16-.54,17.12,0,.33,0,.47,0,.57v.47c0,1.62,1.14,2.59,3.06,2.59a4,4,0,0,0,.74-.07,3.29,3.29,0,0,1,.42,0,3.28,3.28,0,0,0,3.53-3.1S77,131.6,77,127.71c0-1.49,0-3.74-.09-6.39-.06-3.77-.14-8.45-.14-12.84L77,75.77h55.33c2,0,2.94-1.29,2.94-2.48,0-2.11-8.66-8.54-10.05-8.54-1.54,0-5.28,5.52-6.1,6.76H63.26c-7.9,0-30.9-.57-36.89-1.17l-.55,0V71c0,1.36,1.12,5.27,2.47,5.61l.1,0h.09c2.38-.34,8.35-.46,14.23-.57v42.54c-13.54,2.37-14.13,2.37-15.69,2.37H25.54l.18.63C27.08,126.39,29.24,132.17,31.79,132.17ZM49.54,85.26V75.87c4.93-.1,9.43-.1,11.15-.1h9.64v9.49Zm0,32.06V103.38H70.33v5.1c0,.74,0,1.47,0,2.23s-.06,1.35-.06,2.05C64.59,114.26,57.11,115.91,49.54,117.32Zm0-18.08V89.4H70.45c0,1.68,0,3.4-.06,5.09s0,3.23-.06,4.75ZM105.2,120.4c10.46,11.37,21.41,14.8,22.26,14.8a1.83,1.83,0,0,0,1.19-.58,2.67,2.67,0,0,1,.29-.23c2.24-1.77,3.74-2.47,5.61-2.58a2,2,0,0,0,1.34-2.12c0-.83-.37-1.66-1-1.66h0A50.29,50.29,0,0,1,109,116.12,92,92,0,0,0,122.57,93c3.68-.5,4.46-1.91,4.46-3,0-2.37-6-6.49-6.77-7l-.37-.18h-.35a1.39,1.39,0,0,0-.94.38l-1.35,1.36A7.3,7.3,0,0,0,116,85.84H99.62c-.16,0-15.4-.12-20.09-.81l-.64-.09.07.63a12.49,12.49,0,0,0,2.5,5.34l.18.15.23,0a64.63,64.63,0,0,1,7-.56c1.81,8.18,6.48,17.63,12.58,25.46a65.64,65.64,0,0,1-22.31,17.39,1.15,1.15,0,0,0-.62,1c0,1.13,1.07,2.71,2.13,2.71C81.37,137.06,93.19,133.05,105.2,120.4Zm10.3-30.18a73.17,73.17,0,0,1-10.91,21.55C99,105.42,94.68,97.49,93,90.31c3.42-.09,6.34-.09,6.37-.09Zm95.49-13H197.06c-.23,17.38-3.9,30.5-11.21,40.12-6.64,8.74-16.33,14.83-30.5,19.17l-.15,0-.12,0a.73.73,0,0,1-.34.09,2.52,2.52,0,0,1-2.37-2.48,1.46,1.46,0,0,1,.86-1.38c22-8.85,35.71-21.24,36.08-55.57h-3.93c-5.25,0-24.08.24-29.43.81l-.25,0-.17-.2a12.23,12.23,0,0,1-2.11-6v-.56l.56.07c5.83.7,26.32,1.28,34.32,1.28h12.55V42.06A53.06,53.06,0,0,0,200,31.88l-.09-.59h.6c7.74.23,11.67.83,11.67,3.53,0,.91-.56,2.57-4.2,3.64l-.11,34.09H241.3l.19-.26c3.92-5.34,5.08-6.39,5.77-6.39,1.07,0,10.17,6.23,10.17,8.54a2.71,2.71,0,0,1-3,2.72h-36v40.05c0,6,.49,7.43,13.25,7.43,14.18,0,14.8-2.18,15.72-5.47,1-3.94,2.08-11.36,2.78-19.83,0-.87.87-1.51,2.13-1.51s2.36.64,2.36,1.55v.12c-.3,4.08-1.28,17.46-1.28,19.81,0,1.44.11,1.65,2,2.2,2.13.66,3.16,1.77,3.16,3.39,0,1.3-.69,3.65-5.28,4.8-3.76.91-12.47,1.88-21.21,1.88-11.73,0-21,0-21-13.21ZM181.07,64.83h0a53.53,53.53,0,0,0-15.58-22.62,1.1,1.1,0,0,1-.41-.85c0-1,1.54-2.13,2.59-2.13,2.73,0,21,15.51,21,23.34,0,3.89-2,6.91-3.76,6.91C183.43,69.48,182.13,67.91,181.07,64.83ZM215.42,70a1.37,1.37,0,0,1,.37-1.06C222.7,59.79,230.32,45.9,231,38.63l.06-.57.55.13c.11,0,11.11,3,11.11,6.78,0,2.83-3.53,2.83-4.69,2.83H236.7C224.47,67,219,72,217.78,72A2.26,2.26,0,0,1,215.42,70ZM377.33,122.1c-2.16-.6-2.55-1.13-2.55-2.32,0-1.92,2.89-16.86,3.14-18v-.23c0-1-1.31-1.78-2.48-1.78a1.75,1.75,0,0,0-1.77,1.33c-3.57,17.14-5,22.61-12.05,23.61C353,125.91,340.17,126,331.28,126c-9.47,0-25-.58-27.27-1.15-4.34-1-6.37-3.64-6.37-8.26l-.11-22h61v3.12c0,1.48,1.1,2.36,3,2.36,3.88,0,4.46-1.84,4.46-2.94v-.44c-.07-.41-.11-2.12-.11-4.59l-.11-3.48c-.11-3.67-.24-7.83-.24-9.9V68.9c3.16-.82,3.84-2.18,3.84-3.19A3.6,3.6,0,0,0,368,63.25c-3.7-3.47-5.56-3.74-6.05-3.74s-2,1.07-3.62,3.14H331.8c4.47-4.46,9.72-10.49,12.65-13.92,5,0,5.74-1.64,5.74-2.59,0-1.91-6.41-7.38-7.49-7.38a8.78,8.78,0,0,0-4,2.92H313.62c.87-1.22,1.76-2.54,2.75-4.08a9.58,9.58,0,0,0,1.28.06c3.12,0,4.23-1.27,4.23-2.36s-.81-2.46-10.46-6.06l-.53-.2-.13.55c-2.94,11.85-20.62,34.4-34.41,43.87a1.36,1.36,0,0,0-.68,1.23,2.73,2.73,0,0,0,2.59,2.36,1.87,1.87,0,0,0,1.2-.31A76,76,0,0,0,290.58,68c-.11,16.18-.11,47.47-.11,47.79,0,12.48,7.86,15.3,12.56,15.88,6,.7,11.21.93,30.47.93,42.82,0,46.41-3.7,46.41-7.49A3.69,3.69,0,0,0,377.33,122.1ZM324.61,67.38V89.92H297.52V67.38Zm-26.15-4.73c-.47-.31-.95-.63-1.43-.91a185.69,185.69,0,0,0,13.29-15.57h26.89a99.42,99.42,0,0,1-10.93,16.48Zm33.09,27.27V67.38h27.09V89.92ZM126.77,167.3c-4.58,0-8.17-2.15-8.17-4.89,0-1,.6-4.46,8.32-4.46a30.93,30.93,0,0,1,3.42.19,30.89,30.89,0,0,0-4.1-4.7c-3.13,1.11-4.31,1.46-5.35,1.46-2.33,0-3.88-1.72-3.88-2.87a.89.89,0,0,1,.85-.95,1,1,0,0,1,.64.24,4.92,4.92,0,0,0,3,.9,10.71,10.71,0,0,0,3-.59,4.69,4.69,0,0,1-1.68-3,1.85,1.85,0,0,1,1.81-2,1.59,1.59,0,0,1,1,.28,1.14,1.14,0,0,1,.28.25l.18.17.16.18.14.15.07.08a1.45,1.45,0,0,1,.4.85.78.78,0,0,1-.11.38.89.89,0,0,1-.88.37,7.39,7.39,0,0,0,1,1.51l1-.4-.06,0a1.17,1.17,0,0,1-.6-.88c0-.34.27-.7.88-.7a1.52,1.52,0,0,1,.53.08,6,6,0,0,0,1.58.2c.7,0,2.14,0,2.14,1.38,0,.36-.16,1-1.23,1.41l-.75.22-.7.21c-.38.11-.75.24-1.12.37.36.38.73.76,1.1,1.13l1.2,1.24c2,2.15,2.87,3.52,2.87,4.61l0,.57a1.52,1.52,0,0,1-1.56,1.67c-.46,0-.72-.15-1.55-.68a11.42,11.42,0,0,0-5.26-1.06c-3.59,0-4.37,1.46-4.37,2,0,1.49,2.91,2.31,4.92,2.31a5.63,5.63,0,0,0,1.58-.15,1.51,1.51,0,0,0,.3-.13A3.05,3.05,0,0,1,129,164c1.39,0,2.29.61,2.29,1.56C131.31,167,128.84,167.3,126.77,167.3Zm26.59-10c-1.36,3.82-1.53,4.35-1.53,5a1.39,1.39,0,0,0,0,.32,2.54,2.54,0,0,0,.09.31,2.78,2.78,0,0,1,.17.83c0,1.11-1.17,1.48-1.71,1.48a6.33,6.33,0,0,1-4.63-3.36c-1-1.91-1.37-3.28-1.47-8.15a3.61,3.61,0,0,0-.81-2.51,1.32,1.32,0,0,1-.43-.81c0-.74,1.09-.78,1.31-.78.81,0,2.9,1.33,2.9,3a6.09,6.09,0,0,1-.09.88l0,.3a16.73,16.73,0,0,0-.18,2.48c0,4.89,2.17,5.19,2.29,5.2l0-.08c.26-.51.56-1.13.87-1.78.51-1.08,1-2.2,1.52-3a1.18,1.18,0,0,1,1-.71.82.82,0,0,1,.8.87A1.53,1.53,0,0,1,153.36,157.29Zm3.62-5a1.05,1.05,0,0,1-.42-.8.9.9,0,0,1,.95-.87c1.13,0,5.55,3.05,6.52,7.17a5.4,5.4,0,0,1,.16,1.1c0,1.12-.71,2.36-1.65,2.36a1.25,1.25,0,0,1-1.09-.75h0a3.77,3.77,0,0,1-.26-1.12,3,3,0,0,0-.07-.4A12.06,12.06,0,0,0,157,152.3Zm24.66-.69.08-.08h-.53c-.55,0-1.05,0-1.51,0l-.57,0h-.75c-2.37,0-3.48-1.2-3.48-2s.73-1.13,1.56-.66a2.32,2.32,0,0,0,1.29.31,10.8,10.8,0,0,0,1.2-.09l.26,0a27.88,27.88,0,0,1,3.18-.21c2.38,0,5.22.35,5.22,2,0,.55-.41,1.17-1.56,1.28a5.09,5.09,0,0,0-3.55,1.3c-1.29,1-1.75,1.28-2.2,1.28a.77.77,0,0,1-.83-.75c0-.4.26-.77,1.71-2C181.33,151.92,181.48,151.77,181.64,151.61Zm7.77,12.76c0,.34-.14,1.16-1.43,1.52h0a18.17,18.17,0,0,1-4.7.57c-6.13,0-9.33-2.63-9.33-5.24,0-1.05.59-2.19,1.56-2.19a.71.71,0,0,1,.72.78,1.7,1.7,0,0,1-.14.6,1.42,1.42,0,0,0-.13.53c0,.92,1.88,2.63,6.41,2.63a12.75,12.75,0,0,0,2.34-.22,1.82,1.82,0,0,0,.5-.19,2.81,2.81,0,0,1,.82-.29,8.24,8.24,0,0,1,1-.05C188.6,162.82,189.41,163.34,189.41,164.37Zm14.36-8.13c-1.25,0-3.12-1.13-3.12-2.69a1,1,0,0,1,.9-1.13.76.76,0,0,1,.56.25,1.21,1.21,0,0,0,1,.48,6.14,6.14,0,0,0,2.37-.94A8,8,0,0,1,209.1,151c3.32,0,5.12,3.27,5.12,6.35,0,8.31-10.12,10.93-11.05,10.93a.92.92,0,0,1-1-.83c0-.25.13-.72,1-1,3.71-1.29,8.06-4.48,8.06-9.27,0-2-.68-4.07-2.2-4.07-1.28,0-2.54,1.28-3.76,2.52A1.91,1.91,0,0,1,203.77,156.24Zm2-7.43c-1.48-.65-2.34-1.7-2.34-2.53a.81.81,0,0,1,.8-.88l.22,0,.11,0a1.57,1.57,0,0,1,.35.25l.1.1a5.17,5.17,0,0,0,3.27,1.06,3,3,0,0,0,.57-.07,4.91,4.91,0,0,1,.78-.08c.63,0,2.37.41,2.37,1.71,0,.44-.25,1.21-1.86,1.38l-.58,0a8,8,0,0,0-1.18.12,12.24,12.24,0,0,0-2.6.88,2,2,0,0,1-.74.2.78.78,0,0,1-.83-.75C204.21,149.81,204.45,149.56,205.77,148.81Zm38.43,11.35c0,1.08-4.59,6.93-10.44,6.93s-5.73-5.46-5.73-7.26c0-.86.05-1.87.13-3.09.36-5.69.38-6,.38-6.12a1.66,1.66,0,0,0-1.15-1.8.91.91,0,0,1-.72-.85c0-.57.55-1,1.28-1,1.89,0,3.91,1.92,3.91,3.27a5,5,0,0,1-.23,1.26c-.08.31-.18.68-.26,1.11a48.27,48.27,0,0,0-.77,7.83c0,3.38.87,3.71,3,3.71,4.33,0,8.25-3.78,8.68-4.22a1.71,1.71,0,0,1,1.11-.52A.74.74,0,0,1,244.2,160.16Zm7.78,4.27c0,2.07,2.64,3,4,3a4,4,0,0,0,4.08-2.77,10.8,10.8,0,0,1,3,2.29,1.32,1.32,0,0,0,.94.43,1.22,1.22,0,0,0,1.15-1.38,2.38,2.38,0,0,0-.77-1.69,13.43,13.43,0,0,0-4.15-2.12c0-.26,0-.53,0-.82,0-.5,0-1-.06-1.6s0-1.25-.06-1.94a6.53,6.53,0,0,0,1.13.08,12.94,12.94,0,0,0,2.76-.34,1.24,1.24,0,0,0,1.12-1.24c0-.41-.18-1.36-1.89-1.36a3,3,0,0,0-1,.16l-.34.17a.71.71,0,0,1-.17.09,6.06,6.06,0,0,1-1.62.26v-.13a11.54,11.54,0,0,1,.14-1.68l0-.15a2.76,2.76,0,0,0,.11-.67c0-1.43-2.61-1.78-3-1.78a1.33,1.33,0,0,0-1.5,1.15c0,.16.06.69.86.82s.81.11.85,1c.08,2.24.13,4.33.16,5.94,0,.38,0,.78,0,1.16,0,.16,0,.32,0,.47-.34,0-.69,0-1,0C252.61,161.71,252,163.41,252,164.43Zm5.6-.46a1.76,1.76,0,0,1-1.74,1,2.73,2.73,0,0,1-1.87-.61c0-.27.72-.56,2-.56A8.4,8.4,0,0,1,257.58,164Zm29.7,2c0,1.24-.66,2.19-1.53,2.19s-1.21-1-1.33-1.37a13.37,13.37,0,0,0-2.73-4.5l-.34-.38c-1.08-1.19-2-2.22-3.1-3.29a3,3,0,0,1-1.05-2.14c0-1.12.28-2.1,4-5.38,2-1.78,2.2-2.42,2.2-2.57a1.27,1.27,0,0,0-.54-.9,1.28,1.28,0,0,1-.52-.92c0-.47.41-.8,1-.8,1.43,0,3.4,1.87,3.4,3.22,0,.7-.29,1.35-4,4-3,2.09-3.3,2.9-3.3,3.15a1.19,1.19,0,0,0,.51.81C285,161.61,287.28,164,287.28,166ZM25.56,14.45a1.15,1.15,0,0,1,.7-1C33.59,9.33,36.9,4.71,37.06,4c0,0-.06,0-.19-.09-.58-.21-1-.36-1-.91,0-.15.06-.89,1.19-.89,1.29,0,3.2,1.16,3.2,2.21a1.43,1.43,0,0,1-.9,1.21s-.17.16-.21.21a22.59,22.59,0,0,1-2.93,3.18,1.75,1.75,0,0,1,.56,1.23,2.64,2.64,0,0,1-.2.92,32.42,32.42,0,0,0-.17,4.05c0,1.25,0,2.17.09,2.74a3.86,3.86,0,0,1,0,.51c0,1.38-.5,2.2-1.34,2.2-1.24,0-1.51-2.06-1.51-2.79a3.55,3.55,0,0,1,.17-1,.55.55,0,0,0,0-.12c.13-1.26.22-3.18.22-4.67,0-.54,0-.91,0-1.18-3.35,2.66-7,4.38-7.67,4.38A.78.78,0,0,1,25.56,14.45ZM47.1,18.54a1.2,1.2,0,0,1,.61-.93C51.56,14.82,53,9,53,8.14c0,0-.09-.1-.58-.18-.73-.12-.78-.64-.78-.79,0-.48.38-1,1.45-1C54.38,6.17,56,7.05,56,8a1.71,1.71,0,0,1-.3.87,1.79,1.79,0,0,0-.19.4c-2.07,7.38-6.71,10-7.55,10A.76.76,0,0,1,47.1,18.54Zm8-13.19c0-.47.34-1,1.3-1s3.2.76,3.2,1.9a.89.89,0,0,1-.05.32l0,.1a2,2,0,0,1-.13.29,1.56,1.56,0,0,0-.11.26,2.71,2.71,0,0,0-.05.27c-.09,2.31-.15,5-.2,6.84a18.12,18.12,0,0,0,6-6.17,1.13,1.13,0,0,1,1-.72.87.87,0,0,1,.82,1,1.6,1.6,0,0,1-.15.63,18.86,18.86,0,0,1-7.27,8.17l-.07.1a1.6,1.6,0,0,1-.16.19.91.91,0,0,1-.73.32,2.48,2.48,0,0,1-2.08-2.1,1,1,0,0,1,.07-.37,46.25,46.25,0,0,0,.34-6.59,12.1,12.1,0,0,0-.1-2.2,1.83,1.83,0,0,0-.83-.4A.85.85,0,0,1,55.1,5.35Zm19.39,8.41a.92.92,0,0,1,1-.84c1.16,0,7.57,1.83,9.13,3.43a2.61,2.61,0,0,1,.81,1.78,1.27,1.27,0,0,1-1.28,1.38A1.78,1.78,0,0,1,83,18.87l-.22-.22a19,19,0,0,0-7.49-4A.94.94,0,0,1,74.49,13.76Zm1.06-9.21c0-.45.4-.91,1.17-.91,0,0,4.78.08,6.93,1.37A2.23,2.23,0,0,1,84.76,6.8,1.12,1.12,0,0,1,83.61,8c-.35,0-.61-.12-1.42-.67a15.35,15.35,0,0,0-5.76-1.93h0C75.78,5.28,75.55,4.88,75.55,4.55Zm-.22,4.17a.88.88,0,0,1,1-.82s4.62.38,6.4,1.77a2.33,2.33,0,0,1,.86,1.73,1.06,1.06,0,0,1-1.12,1.15A2.29,2.29,0,0,1,81.14,12a13.19,13.19,0,0,0-5-2.38A1,1,0,0,1,75.33,8.72Zm19.56-.41a.88.88,0,0,1,.84-1,1,1,0,0,1,.45.12,3.82,3.82,0,0,0,2.39.72h.23c.18,0,.46,0,.64,0l.94-.13c.8-.11,1.7-.24,2.63-.35v0c0-.17,0-.34,0-.5,0-1.68-.06-2.11-.07-2.23,0-.47-.11-.56-.55-.63s-1.11-.17-1.11-.84.46-1.08,1.49-1.08c0,0,3.14.07,3.14,1.64a2.59,2.59,0,0,1-.18.81,3.14,3.14,0,0,0-.08.79c0,.16,0,.48,0,.79s0,.61,0,.77a1.62,1.62,0,0,0,0,.22c1-.09,1.76-.14,2.45-.16a1,1,0,0,0,.32-.1.53.53,0,0,0,.15-.08,1.57,1.57,0,0,1,.83-.25c.35,0,3,.39,3,1.79,0,.76-.49,1.19-1.36,1.19a5.08,5.08,0,0,1-1-.09,14.05,14.05,0,0,0-2.45-.19c-.6,0-1.26,0-2.06.08,0,.19,0,.38-.06.58v.08a11.56,11.56,0,0,1-8.6,9.9c-.64,0-.93-.39-.93-.76a1,1,0,0,1,.67-.88,10.53,10.53,0,0,0,6.27-8.64,27.74,27.74,0,0,0-3.24.64l-.38.11a3.05,3.05,0,0,1-1,.21C97.48,10.82,94.89,9.66,94.89,8.31ZM119.25,20.2a1.57,1.57,0,0,0,.68-.19,17.71,17.71,0,0,0,4.88-4.17,1.21,1.21,0,0,0,.23.22l.15.11c1.62,1.23,1.62,1.25,1.67,1.8,0,.26.18,1.13,1.51,1.13a3.92,3.92,0,0,0,2.79-1.37c1.62-1.74,2.36-5.07,2.84-7.26,0-.12.06-.28.1-.46s.09-.44.14-.63l0-.11c.08-.36.09-.38.16-.45a1.4,1.4,0,0,0,.49-1c0-1.13-2-1.88-2.42-1.88a1.54,1.54,0,0,0-.87.35s-.1.06,0,.06l-2.38.28s0-.06,0-.08l0-.19c.06-.23.25-.94.29-1,.53-.9.57-1.1.57-1.34,0-1.27-2.22-1.92-3.16-1.92-1.14,0-1.54.56-1.54,1a.84.84,0,0,0,.82.81c.8.12.8.28.8.41a12.16,12.16,0,0,1-.51,2.6l-2.23.25-.67.07-.2,0a2.74,2.74,0,0,1-1.69-.78,1,1,0,0,0-.73-.39,1,1,0,0,0-.86,1c0,1.34,2,2.66,3.24,2.66a3.44,3.44,0,0,0,1-.21l.12,0q.66-.19,1.2-.3A20.51,20.51,0,0,1,119,18.51a1.11,1.11,0,0,0-.59.91A.8.8,0,0,0,119.25,20.2ZM132.33,8.08h0ZM128.55,9l0-.09c1.2-.2,2.55-.39,3.24-.45-.12,1.93-1.61,7.7-3,7.7,0,0-.58-.06-2.75-1.52a.8.8,0,0,0-.23-.11A23.16,23.16,0,0,0,128.55,9Zm16.31-5.16c0-.62.38-.84.71-.84a1.78,1.78,0,0,1,.78.27l.24.11a3.84,3.84,0,0,0,1.71.36A10,10,0,0,0,152,2.91a1.67,1.67,0,0,1,1-.31c1.89,0,2.17.86,2.17,1.37,0,.27-.11.94-1.13,1.19a48,48,0,0,1-6,1C146.29,6.13,144.86,5,144.86,3.79ZM142.93,8a.85.85,0,0,1,.83-.91.93.93,0,0,1,.47.15l.19.12a1.53,1.53,0,0,0,.34.21,3.69,3.69,0,0,0,1.47.26l.33,0c3.2-.47,5.65-.79,7.14-1A3,3,0,0,0,154,6.7l.3-.15a1.53,1.53,0,0,1,.64-.18c.71,0,2.46,1,2.46,1.9a1.39,1.39,0,0,1-.66,1,1.11,1.11,0,0,0-.26.29,20.13,20.13,0,0,1-11.18,10.64h0a1.69,1.69,0,0,1-.53.09.86.86,0,0,1-.95-.8c0-.33.23-.63.67-.87a20.11,20.11,0,0,0,9.23-9.75,52.62,52.62,0,0,0-5.94,1.24,5.25,5.25,0,0,1-1.6.35C145.38,10.5,142.93,9.49,142.93,8Zm21.7,1.43a.87.87,0,0,1,.78-1,.94.94,0,0,1,.69.38,3.91,3.91,0,0,0,.59.55l.14.12c.21.17.42.27,2.19.27,2,0,5.82-.11,8.32-.18l2,0h0c1.65,0,3.32.14,3.32,1.21,0,.7-.85,1.21-2.15,1.29l-.3,0c-.32,0-.81.06-1.18.06l-2.05,0c-1.14,0-2.48,0-3.89.05-2.51,0-4.46.1-4.64.12l-.16.05a2.68,2.68,0,0,1-.74.13C166.29,12.53,164.63,10.56,164.63,9.44Zm26.43,11.93a17.39,17.39,0,0,0,7.78-3.46c2.42,1.73,5.62,2.71,10.27,3.16h.11a.79.79,0,0,0,.63-.32,2.63,2.63,0,0,1,1.17-.81.94.94,0,0,0,.58-.88.75.75,0,0,0-.74-.8h0c-3.13-.08-7.35-.18-10.57-1.92a10.7,10.7,0,0,0,1.92-4.87h4.27v.13a1.05,1.05,0,0,0,1.19,1c.88,0,1.45-.44,1.45-1.13l-.05-.81c0-.28-.06-1.76-.06-2.11,0,0,0-1.25,0-1.92a1,1,0,0,0,.68-.93c0-.86-1.61-1.84-2-1.84-.24,0-.5.12-1,.69h-4.28c0-.59,0-1.17,0-1.73.77-.32.83-.84.83-1,0-1.06-1.56-1.1-3.07-1.15l-.63,0,.12.62a10.49,10.49,0,0,1,.14,1.93V4.59h-4.55a8.56,8.56,0,0,0-1.85-.8l-.76-.19.15.76A14,14,0,0,1,193,7V8.7c0,.35,0,.87-.05,1.37,0,.3,0,.6,0,.83s0,.38,0,.52a1.94,1.94,0,0,0,0,.29v.1a1,1,0,0,0,1.16,1,3,3,0,0,0,.45,0,.6.6,0,0,0-.06.27l.06.26A1.23,1.23,0,0,0,195,14c.32.17.44.28.48.36a12,12,0,0,0,1.62,2.07,15.91,15.91,0,0,1-6.37,3.24.74.74,0,0,0-.55.74A1,1,0,0,0,191.06,21.37Zm4.39-11.72V9.14s0-1.63,0-2.73h4.33c0,1.08,0,2.1,0,2.94,0,.1,0,.2,0,.3Zm0,1.82h4.16A8.85,8.85,0,0,1,198.37,15a9.29,9.29,0,0,1-1.58-2,1.57,1.57,0,0,0-1.23-.81h-.18a1.44,1.44,0,0,0,.12-.48S195.49,11.57,195.49,11.47Zm6.86-1.82V9.6c0-1,0-2.12,0-3.19h4.15V8.9c0,.24,0,.5,0,.75Zm14,10.35a2.84,2.84,0,0,1-.63-1.66v-.57l.57.08c1.39.19,6.17.28,7.43.28h.49V4.72A28.45,28.45,0,0,0,224,1.43l-.09-.59h.59c1.46,0,3.28.07,3.28,1.19,0,.22-.09.7-.85,1,0,.85,0,2.9,0,5.26h3.66c.87-1.18,1.21-1.53,1.62-1.53a.65.65,0,0,1,.33.09c.1,0,2.33,1.4,2.33,2.35a.94.94,0,0,1-1,.93h-6.94v8h5c1.19-1.6,1.51-1.6,1.68-1.6.43,0,2.77,1.58,2.77,2.44a1,1,0,0,1-1,1H222.73c-1,0-5.06.08-6,.19l-.25,0Zm24.76-4.16a1,1,0,0,1,1-.87c1,0,4.86,1.88,5.64,3.18a3,3,0,0,1,.41,1.51c0,1.07-.58,1.84-1.38,1.84-.56,0-1.08-.41-1.55-1.22a10.42,10.42,0,0,0-3.67-3.73A.84.84,0,0,1,241.07,15.84Zm19,1.38h-1l.14.61c0,.1.61,2.67,1.76,2.67.35,0,.76-.25.85-.93,1.33-.36,3.74-1,5.56-1.65,0,.74,0,1.84-.1,2.53v.12c0,.47.32,1,1.23,1a1.66,1.66,0,0,0,1-.31.73.73,0,0,0,.42.14l.16,0a13.37,13.37,0,0,0,4.32-2.68A8.38,8.38,0,0,0,278.32,21a.76.76,0,0,0,.61-.3,1.78,1.78,0,0,1,1-.47.88.88,0,0,0,.69-.9.71.71,0,0,0-.58-.75,9.5,9.5,0,0,1-4-1.71,16.63,16.63,0,0,0,2.07-3.8c.71-.17,1-.61,1-1,0-.88-1.67-1.93-2.07-1.93s-.79.41-1,.67h-2.52s-2.53,0-3.6-.15V10h9.69a.93.93,0,0,0,1-.93c0-.79-2-2.3-2.51-2.3s-.67.3-1.49,1.45h-.47a1.12,1.12,0,0,0,.45-.95c0-.06,0-.19,0-.35s0-.46,0-.64l0-.4c0-.31,0-.55,0-.75V3.3a1.07,1.07,0,0,0,.73-.95c0-1-1.75-1.76-2.08-1.76s-.63.2-1.13.78h-8.25a8.78,8.78,0,0,0-2-.81L263,.39l.15.76a12.5,12.5,0,0,1,.23,2.28V5.22c0,.84-.1,2-.12,2.13v.18a1,1,0,0,0,.18.61c-1.43,0-3-.09-3.65-.17l-.55,0v.56c0,.36.21,1.31.74,1.55l.13.06.14,0c.38,0,1.11-.08,2.06-.11v7A19.52,19.52,0,0,1,260.05,17.22Zm14.28-2a9.17,9.17,0,0,1-1.47-2.62h2.68A13.2,13.2,0,0,1,274.33,15.26ZM273.05,17a11.66,11.66,0,0,1-3.2,2.53c0-.13,0-.27,0-.41V17.85c0-.73,0-1.57,0-2.16v-3l0,0,.17.14.22,0,.81-.08A13.82,13.82,0,0,0,273.05,17Zm-8.26-6.25V10h2.59v.79Zm0,2.6v-.86h2.59v.86Zm0,3.17V15.08h2.59V16C266.64,16.19,265.76,16.36,264.79,16.52Zm1.1-13V3.13h8v.43Zm0,1.9V5.35h8v.09c0,.13,0,.27,0,.41h-8Zm0,2.14h7.91a.91.91,0,0,0,.31.58H265.6A1,1,0,0,0,265.92,7.6Zm20-2.66.23,0c.35,0,2.1-.09,3.63-.12l.05.26A7.19,7.19,0,0,1,290,6.78V7.86c0,.35,0,.73,0,1s0,.37-.06.52,0,.27,0,.32v.11a.93.93,0,0,0,.24.64h-1.22a8,8,0,0,0-1.87-.8l-.75-.21.13.78a15.65,15.65,0,0,1,.17,2.94v4c0,.54-.06,1.58-.15,3v.11a1,1,0,0,0,1.12,1c1,0,1.56-.46,1.56-1.17V20a6.88,6.88,0,0,1,0-.83c0-.3,0-.7,0-1.06s0-.59,0-.77l0-5.06h1.4l.1.47a9.51,9.51,0,0,1,.19,2.06v1c0,.21,0,.57-.05.88l0,.27c0,.3,0,.62,0,.78a1,1,0,0,0,1.1,1c1.33,0,1.43-.83,1.43-1.08v-.15h4.07v.15a.86.86,0,0,0,.75.87,1,1,0,0,0-.18.6.78.78,0,0,0,.63.84c1.59.26,1.67.41,1.76.59a.91.91,0,0,0,.87.62,3.16,3.16,0,0,0,3.07-2.88c0-.4-.08-2.21-.08-2.72V12.49a1.1,1.1,0,0,0,.73-1c0-.75-1.47-1.79-2-1.79s-.61.22-1.08.73H300a1.06,1.06,0,0,0,.44-.9l0-.48c0-.42-.07-.84-.07-1.26,0,0,0-.37,0-.68a1,1,0,0,0,.67-.91c0-.53-.74-1.15-1.33-1.47h4.77a.89.89,0,0,0,.95-.89c0-.83-1.95-2.18-2.53-2.18s-1.2.86-1.5,1.29h-5c0-.13,0-.26,0-.37a1.16,1.16,0,0,0,.77-1c0-1-1.29-1.08-2.93-1.12l-.59,0,.09.59a10.17,10.17,0,0,1,.14,1.74V3h-1.53c-1,0-5.84-.11-6.59-.21h-.57v.57a2.28,2.28,0,0,0,.56,1.43Zm12.36,5.53h-6.16a1.06,1.06,0,0,0,.35-.73h5.46A.9.9,0,0,0,298.25,10.47ZM297.94,7V8h-5.53V7Zm.13-1.77h-5.9a8.13,8.13,0,0,0-.85-.4h7.2A2.6,2.6,0,0,0,298.07,5.18Zm-.82,9.4v1.15H293.1V14.58Zm.13-1.77h-4.54a7.91,7.91,0,0,0-1.28-.54H298A2.83,2.83,0,0,0,297.38,12.81ZM301.53,18c0,.11,0,.43-.63.43-.29,0-.94-.07-1.64-.14a1,1,0,0,0,.43-.83l0-.89c0-.27,0-.7,0-.93v-.88a1,1,0,0,0,.63-.87c0-.83-1.57-1.59-1.57-1.59h2.87Zm12.68-.15a2.84,2.84,0,0,0,1.91-.9c1.44-1.4,4.32-6.69,4.32-10a4.25,4.25,0,0,0-.2-1.29c3.17.05,5.3,2.11,5.3,5.12,0,3.37-2.79,6.18-7.12,7.17-.9.21-1,.66-1,.91,0,.48.47.85,1.1.85l.23,0c5.72-.68,9.57-4.09,9.57-8.47s-3.5-7.41-8.13-7.41c-4.81,0-9.52,4.34-9.52,8.77C310.64,15,312.29,17.83,314.21,17.83Zm.05-2.73a3.69,3.69,0,0,1-1.19-2.77A7.64,7.64,0,0,1,318.23,6C318.2,9.07,315.12,14.86,314.26,15.1Zm19.62,5.3a.86.86,0,0,1,.61-.79c4.25-1.75,6-4.42,6.14-9.42h-.33c-.95,0-4.33.05-5.22.15l-.24,0-.17-.17a2.53,2.53,0,0,1-.58-1.56V8.07l.56.07c.79.1,3.08.18,4.79.22a2.28,2.28,0,0,1-.4-.76,9.3,9.3,0,0,0-2.58-4,.7.7,0,0,1-.23-.52.94.94,0,0,1,.91-.87c.68,0,4.54,2.79,4.54,4.8a2.2,2.2,0,0,1-.44,1.39h1.54V3.53a14.75,14.75,0,0,0-.17-2.25l-.08-.59h.59c1.76,0,3,.07,3,1.17a1.19,1.19,0,0,1-.79,1c0,1.06,0,4,0,5.49h.28a.78.78,0,0,1,.23-.51,19.86,19.86,0,0,0,2.33-4.42,5.51,5.51,0,0,0,.23-1.11l.08-.56.54.15c1.27.34,2.77.94,2.77,1.84,0,.17-.07.93-1.3,1a32.68,32.68,0,0,1-2.71,3.58h2.47c.33-.49,1.1-1.54,1.6-1.54s2.6,1.58,2.6,2.4a1,1,0,0,1-1,.95h-6.12l0,7c0,.79,0,.79,1.56.79a9.36,9.36,0,0,0,2.37-.23c.34-.12.61-.83.94-4A.79.79,0,0,1,353,13a.87.87,0,0,1,.95.78c-.09.92-.21,3.38-.22,3.51h0a1.26,1.26,0,0,1,.95,1.21c0,1.74-3.12,1.94-5.47,1.94-2.12,0-4.52,0-4.52-3l0-7.29h-1.41c-.24,6.14-2.66,9.35-8.27,11l-.23.05A1,1,0,0,1,333.88,20.4Zm45.27-3s-.14,0-.12-.06.2-1.34.31-2c.08-.48.15-.88.16-1v-.09a.93.93,0,0,0-1-.82.75.75,0,0,0-.77.61c-.74,3.55-1.28,3.86-2,3.93a50.12,50.12,0,0,1-9.41.07c-1.06-.1-1.37-.32-1.38-1V13.46h9.94v.06c0,.61.46,1,1.17,1s1.45-.44,1.45-1.08V13.3c0-.14,0-.63,0-.79,0-.62,0-1.74,0-2.25V8.56a1,1,0,0,0,.71-.92c0-.93-1.59-1.81-2.05-1.81-.3,0-.56.17-1,.71h-3.25c.55-.53,1.06-1.08,1.45-1.5.86,0,1.38-.44,1.38-1,0-.91-1.74-1.95-2.18-1.95a1.76,1.76,0,0,0-1,.61h-2.38a.82.82,0,0,0,.28-.6C369.35,1,367.11.4,366.66.3l-.49-.11-.1.5c-.56,2.68-4,6.45-6.16,8.07a.77.77,0,0,0-.25.55,1,1,0,0,0,.95.93,4.87,4.87,0,0,0,1.83-1.09v.46c0,3-.06,6.84-.06,7.37v.11c0,2.6,1.83,3.15,3.63,3.35,1.39.14,2.92.22,4.55.22a45.74,45.74,0,0,0,8.06-.61c.95-.3,1.43-.8,1.43-1.47A1.23,1.23,0,0,0,379.15,17.4Zm-10.5-9v3.22h-3.71l0-3.22Zm.62-1.86h-4c.63-.68,1.23-1.37,1.78-2.07h3.57A18.29,18.29,0,0,1,369.27,6.54Zm1.91,5.08V8.4h3.74v3.22ZM330.8,231.24l1.72,4.72-1.22.75a23.57,23.57,0,0,1-11.36,3.1c-13.88,0-19.81-8.42-19.81-28.15,0-18.61,5.93-26.55,19.81-26.55,3.9,0,8.57,1.11,11.1,2.63l1.12.69-1.41,5.06-1.94-1.07a19.12,19.12,0,0,0-8.87-2.17c-8.61,0-14.34,3.64-14.34,21.41,0,19.11,5.54,22.94,14.48,22.94a17.85,17.85,0,0,0,8.93-2.35Zm24-46.13c-13.66,0-18.74,7.39-18.74,27.28s5.08,27.42,18.74,27.42,18.62-7.43,18.62-27.42S368.53,185.11,354.78,185.11ZM368,212.39c0,18.78-4.45,22.21-13.21,22.21s-13.27-3.43-13.27-22.21,4.28-22.14,13.27-22.14C363.92,190.25,368,193.45,368,212.39Zm19.83,21.28H410.9l-.38,5.28H382.41V185.84h5.41Zm44.49-48.56c-13.67,0-18.75,7.39-18.75,27.28s5.08,27.42,18.75,27.42,18.61-7.43,18.61-27.42S446.05,185.11,432.31,185.11Zm13.21,27.28c0,18.78-4.45,22.21-13.21,22.21S419,231.17,419,212.39s4.28-22.14,13.28-22.14S445.52,193.56,445.52,212.39Zm34,1.9c6.19-1.39,9.32-6.15,9.32-14.14,0-9.63-4.53-14.31-13.85-14.31h-15V239h5.47v-24h8.26l12.84,24H493Zm3.91-14.07c0,7-2.37,9.63-8.77,9.63H465.4V191H475C481.12,191,483.41,193.48,483.41,200.22ZM0,185.85H5.41v53.09H0Zm21.4,47.82H44.49l-.41,5.27H16V185.85h5.4Zm34.45,0H78.93l-.37,5.27H50.44V185.85h5.41Zm57-47.82h5.4v34.68c0,12.79-5.83,19.27-17.35,19.27s-17.43-6.48-17.43-19.27V185.85h5.41V220.6c0,9.9,3.49,13.93,12,13.93,8.38,0,12-4.16,12-13.93Zm52.82,0h5.42v53.09h-5.21V200.33l-13.75,38.61h-4.32l-.11-.33L134.07,200.7v38.24h-5.2V185.85h5.55L150,229.59l.13-.41Zm18,0H189v53.09h-5.41Zm46.76,0h5.21v53.09h-4.34l-24.36-42.51v42.51h-5.34V185.85h5.2l23.7,41.68Zm28.06.34,18.08,52.75h-5.87l-4.9-14.55h-23.5l1.82-5.14h20L256,195.16l-1.86-6,1-3.27h3.18Z"/>
</svg>
