<svg xmlns="http://www.w3.org/2000/svg" viewBox="0 0 60 60" fill="#5a498e" width="60" height="60">
<path d="M59.87,17.54a27.35,27.35,0,0,0-1.21-6.7,15.73,15.73,0,0,0-9.5-9.5A24.91,24.91,0,0,0,42.53.2Q38.69,0,30,0T17.47.2a24.91,24.91,0,0,0-6.63,1.14,15.73,15.73,0,0,0-9.5,9.5A24.91,24.91,0,0,0,.2,17.47Q0,21.3,0,30T.2,42.53a24.91,24.91,0,0,0,1.14,6.63A15.36,15.36,0,0,0,5,55a14,14,0,0,0,5.81,3.56,21.77,21.77,0,0,0,6.63,1.23Q21.3,60,30,60t12.53-.2a24.91,24.91,0,0,0,6.63-1.14,15.73,15.73,0,0,0,9.5-9.5,24.91,24.91,0,0,0,1.14-6.63Q60,38.71,60,30T59.87,17.54Zm-5.23,14.6c0,3.57,0,6.35-.13,8.3a28.25,28.25,0,0,1-1.07,7.25,10.24,10.24,0,0,1-5.71,5.71,27.33,27.33,0,0,1-7.24,1.07c-1.88.13-4.65.13-8.3.13H27.9q-5.35,0-8.3-.13a29.07,29.07,0,0,1-7.24-1.07,10.25,10.25,0,0,1-5.72-5.71,29.15,29.15,0,0,1-1.07-7.25c-.13-1.95-.13-4.73-.13-8.3V27.86c0-3.57,0-6.35.13-8.3a28.25,28.25,0,0,1,1.07-7.25A9.72,9.72,0,0,1,12.36,6.6,29.07,29.07,0,0,1,19.6,5.53c2-.13,4.73-.13,8.3-.13h4.29q5.36,0,8.3.13A27.33,27.33,0,0,1,47.73,6.6a9.7,9.7,0,0,1,5.71,5.71,27.41,27.41,0,0,1,1.07,7.25c.13,1.87.13,4.64.13,8.3Z"/>
<path d="M37.7,16.67a15.39,15.39,0,1,0,5.63,5.63A15.36,15.36,0,0,0,37.7,16.67Zm-.56,20.47-.14.15a10,10,0,0,1-14.14-.15L22.71,37a10,10,0,0,1,.15-14.14l.14-.15a10,10,0,0,1,14.14.15l.15.14A10,10,0,0,1,37.14,37.14Z"/>
<path d="M43.46,11.45A3.6,3.6,0,0,0,46,17.59a3.22,3.22,0,0,0,2.54-1.12,4.07,4.07,0,0,0,1.14-2.54,3.45,3.45,0,0,0-1.14-2.5A3.62,3.62,0,0,0,43.46,11.45Z"/>
</svg>
