<?xml version="1.0" encoding="UTF-8"?>
<svg width="76px" height="76px" viewBox="0 0 76 76" version="1.1" xmlns="http://www.w3.org/2000/svg" xmlns:xlink="http://www.w3.org/1999/xlink">
    <!-- Generator: Sketch 61 (89581) - https://sketch.com -->
    <title>instagram</title>
    <desc>Created with Sketch.</desc>
    <g id="Page-1" stroke="none" stroke-width="1" fill="none" fill-rule="evenodd">
        <g id="1-Mobile-Top-Page" transform="translate(-170.000000, -2816.000000)">
            <g id="Product/Shop-List" transform="translate(-1.000000, 2295.000000)">
                <g id="instagram" transform="translate(171.000000, 521.000000)">
                    <circle id="Oval-Copy" fill="#A197BE" cx="38" cy="38" r="38"></circle>
                    <g id="footer__share--ins" transform="translate(24.648649, 25.675676)" fill="#FFFFFF" fill-rule="nonzero">
                        <path d="M12.6868045,2.26550079 C16.0397456,2.26550079 16.4928458,2.26550079 17.7615262,2.35612083 C19.0302067,2.44674086 19.6645469,2.62798092 20.1176471,2.80922099 C20.7519873,3.08108108 21.1144674,3.35294118 21.5675676,3.7154213 C22.0206677,4.16852146 22.2925278,4.62162162 22.4737679,5.16534181 C22.6550079,5.61844197 22.836248,6.25278219 22.926868,7.52146264 C23.0174881,8.88076312 23.0174881,9.24324324 23.0174881,12.5961844 C23.0174881,15.9491256 23.0174881,16.4022258 22.926868,17.6709062 C22.836248,18.9395866 22.6550079,19.5739269 22.4737679,20.027027 C22.2019078,20.6613672 21.9300477,21.0238474 21.5675676,21.4769475 C21.1144674,21.9300477 20.6613672,22.2019078 20.1176471,22.3831479 C19.6645469,22.5643879 19.0302067,22.745628 17.7615262,22.836248 C16.4022258,22.926868 16.0397456,22.926868 12.6868045,22.926868 C9.33386328,22.926868 8.88076312,22.926868 7.61208267,22.836248 C6.34340223,22.745628 5.709062,22.5643879 5.25596184,22.3831479 C4.62162162,22.1112878 4.25914149,21.8394277 3.80604134,21.4769475 C3.35294118,21.0238474 3.08108108,20.5707472 2.89984102,20.027027 C2.71860095,19.5739269 2.53736089,18.9395866 2.44674086,17.6709062 C2.35612083,16.3116057 2.35612083,15.9491256 2.35612083,12.5961844 C2.35612083,9.24324324 2.35612083,8.79014308 2.44674086,7.52146264 C2.44674086,6.34340223 2.62798092,5.61844197 2.80922099,5.25596184 C3.08108108,4.62162162 3.35294118,4.25914149 3.7154213,3.80604134 C4.16852146,3.35294118 4.62162162,3.08108108 5.16534181,2.89984102 C5.61844197,2.62798092 6.34340223,2.44674086 7.61208267,2.35612083 C8.88076312,2.35612083 9.33386328,2.26550079 12.6868045,2.26550079 M12.6868045,0 C9.24324324,0 8.79014308,0 7.43084261,0.0906200318 C6.07154213,0.181240064 5.16534181,0.362480127 4.34976153,0.724960254 C3.53418124,0.99682035 2.80922099,1.44992051 2.17488076,2.17488076 C1.44992051,2.80922099 0.99682035,3.53418124 0.724960254,4.34976153 C0.362480127,5.16534181 0.181240064,6.07154213 0.0906200318,7.43084261 C0,8.79014308 0,9.24324324 0,12.6868045 C0,16.1303657 0,16.5834658 0.0906200318,17.9427663 C0.181240064,19.3020668 0.362480127,20.2082671 0.634340223,21.0238474 C0.99682035,21.8394277 1.35930048,22.5643879 2.08426073,23.2893482 C2.80922099,24.0143084 3.53418124,24.4674086 4.34976153,24.7392687 C5.16534181,25.0111288 6.07154213,25.2829889 7.43084261,25.2829889 C8.79014308,25.3736089 9.24324324,25.3736089 12.6868045,25.3736089 C16.1303657,25.3736089 16.5834658,25.3736089 17.9427663,25.2829889 C19.3020668,25.1923688 20.2082671,25.0111288 21.0238474,24.7392687 C21.8394277,24.3767886 22.5643879,24.0143084 23.2893482,23.2893482 C24.0143084,22.5643879 24.4674086,21.8394277 24.7392687,21.0238474 C25.0111288,20.2082671 25.2829889,19.3020668 25.2829889,17.9427663 C25.3736089,16.5834658 25.3736089,16.1303657 25.3736089,12.6868045 C25.3736089,9.24324324 25.3736089,8.79014308 25.2829889,7.43084261 C25.1923688,6.07154213 25.0111288,5.16534181 24.7392687,4.34976153 C24.3767886,3.53418124 24.0143084,2.80922099 23.2893482,2.08426073 C22.5643879,1.35930048 21.8394277,0.906200318 21.0238474,0.634340223 C20.2082671,0.362480127 19.3020668,0.0906200318 17.9427663,0.0906200318 C16.5834658,0 16.1303657,0 12.6868045,0 Z" id="Shape"></path>
                        <path d="M12.6868045,6.16216216 C9.06200318,6.16216216 6.16216216,9.06200318 6.16216216,12.6868045 C6.16216216,16.3116057 9.06200318,19.2114467 12.6868045,19.2114467 C16.3116057,19.2114467 19.2114467,16.3116057 19.2114467,12.6868045 C19.2114467,9.06200318 16.3116057,6.16216216 12.6868045,6.16216216 Z M12.6868045,16.9459459 C10.3306836,16.9459459 8.42766296,15.0429253 8.42766296,12.6868045 C8.42766296,10.3306836 10.3306836,8.42766296 12.6868045,8.42766296 C15.0429253,8.42766296 16.9459459,10.3306836 16.9459459,12.6868045 C16.9459459,15.0429253 15.0429253,16.9459459 12.6868045,16.9459459 Z" id="Shape"></path>
                        <circle id="Oval" cx="19.4833068" cy="5.89030207" r="1.54054054"></circle>
                    </g>
                </g>
            </g>
        </g>
    </g>
</svg>