<svg xmlns="http://www.w3.org/2000/svg" viewBox="0 0 680 211" width="680" height="211">
<path fill="#47408f" d="M388.59,23.32C388.59,7,393.76,0,405.87,0a21.16,21.16,0,0,1,9.69,2.29l.72.44-1,3.66-1.2-.7a17.8,17.8,0,0,0-8.15-2c-8,0-13.22,3.33-13.22,19.61,0,17.47,5.13,21,13.4,21a16.22,16.22,0,0,0,8.21-2.17l1.2-.64,1.2,3.39-.78.48a20.47,20.47,0,0,1-10.05,2.7C393.76,48.05,388.59,40.65,388.59,23.32Zm48.47,24.73c11.8,0,16.2-6.52,16.2-24S449,0,437.06,0s-16.34,6.5-16.34,24S425.15,48.05,437.06,48.05Zm0-3.76c-8.19,0-12.33-3.14-12.33-20.32s4-20.26,12.33-20.26,12.26,3,12.26,20.32S445.19,44.29,437.06,44.29Zm49.45,3,.28-3.83H466.16V.65h-4V47.28Zm19.92.77c11.81,0,16.21-6.52,16.21-24S518.4,0,506.43,0s-16.34,6.5-16.34,24,4.44,24,16.34,24Zm0-3.76c-8.18,0-12.34-3.14-12.34-20.32s4-20.26,12.34-20.26S518.7,6.74,518.7,24s-4.13,20.26-12.27,20.26Zm29.17,3V25.79h8.11l11.48,21.49H560L548,25.35c5.69-1,8.57-5.17,8.57-12.34,0-8.31-3.9-12.36-11.94-12.36h-13V47.28Zm9.07-42.92c5.76,0,8,2.4,8,8.71,0,6.52-2.33,9.07-8.3,9.07h-8.71V4.36ZM124,47.28V.66h-4V47.28Zm34.64,0,.3-3.83H138.26V.66h-3.94V47.28Zm30.85,0,.27-3.83H169.09V.66h-4V47.28Zm20.42.77c10,0,15.09-5.65,15.09-16.81V.66H221V31.31c0,8.94-3.44,12.92-11.14,12.92s-11.2-3.86-11.2-12.92V.66h-3.95V31.24c-.05,11.16,5,16.81,15.1,16.81Zm29.28-.77V10.93l13,36.35h3.23l13-36.68V47.28h3.78V.66H268L254.27,39.1l-.53,1.61L239.53.66h-4.2V47.28Zm49.18,0V.66h-3.94V47.28Zm16,0V8l22.52,39.28H330V.66h-3.77l.06,38v.55L304.32.66h-3.95V47.28Zm53.44-13,4.33,13h4.31L350.4.66h-2.19l-.8,2.49L349,8.41l7.44,22.15H338.28L337,34.26Z"/>
<polygon fill="#564788" points="369 132.28 342.23 105.51 369 78.74 366.76 76.5 339.99 103.27 313.24 76.5 311 78.74 337.77 105.51 311 132.28 313.22 134.5 339.99 107.73 366.78 134.5 369 132.28"/>
<path fill="#333" d="M253,210.36V211s-5-.19-12.06-.19-13,.19-13,.19v-.64c3,0,5.09-2.07,4.58-8.33l-2.32-28.65L220.58,211h-8.13l-13-39-2.26,27.36c-.64,7.55,2,11,6.38,11V211s-3.61-.19-7.28-.19c-2.71,0-5.75.19-5.75.19v-.64c2.9,0,5-1.69,5.65-8.85l2.46-29.3c.38-4.46-1.55-5.75-4.83-5.75v-.64s9,.19,21,.19a24.11,24.11,0,0,0,1.13,7.68l7.16,24,6.2-24.4c1.23-4.78.58-7.3.58-7.3,9.69,0,20.2-.19,20.2-.19v.64c-3.28,0-5,1.13-4.84,5.75l2.91,32.4C248.59,209.19,249.76,210.36,253,210.36Zm39.55-44.54v.64c3.3,0,4.84,1.13,4.84,5.75v30.08c0,5-1.54,8.07-4.84,8.07V211s5.65-.19,12.42-.19,12.43.19,12.43.19v-.64c-3.3,0-4.85-1.13-4.85-5.75V174.53c0-5,1.55-8.07,4.85-8.07v-.64s-5.65.19-12.43.19S292.59,165.82,292.59,165.82Zm100.09,0v.64c4.77,0,8.44,2.52,8.44,9.37v21.1L384.8,172.27c-1.56-2.26-2.78-4.52-3-6.26-12,0-21.88-.19-21.88-.19v.64c3.29,0,4.84,1.13,4.84,5.75V201c0,6.85-1.93,9.37-4.84,9.37V211s4.07-.19,5.48-.19c2.26,0,9.23.19,9.23.19v-.64c-6.19,0-9.23-2.52-9.23-9.37V171.31L391.14,211h10.7V175.83c0-6.85,2.71-9.37,5.64-9.37v-.64s-4.38.19-5.8.19C399.39,166,392.68,165.82,392.68,165.82Zm96.07,27.49c-1.93,10.72-9,17.05-15.81,17.05-3.29,0-4.83-1.13-4.83-5.75V187.44h2.19c6.52,0,9.35,5.65,9.35,10.84h.66V177.63h-.66c0,6.14-3.81,9-8.19,9h-3.39V167a14.88,14.88,0,0,1,3.39-.39c7.82,0,13.69,4.58,14.69,13h.64V165.82c-11,.07-20.48.19-26.24.19-6.71,0-12.42-.19-12.42-.19v.64c3.28,0,4.83,1.13,4.83,5.75v30.08c0,5-1.55,8.07-4.83,8.07V211s5.64-.19,12.42-.19c6,0,14.27.12,26,.19l3-17.69Z"/>
</svg>
