<svg xmlns="http://www.w3.org/2000/svg" viewBox="0 0 1180 40" width="1180" height="40" fill-rule="evenodd">
<path fill="#47408f" d="M459.08,19.41C459.08,5.8,463.38,0,473.46,0a17.54,17.54,0,0,1,8.07,1.91l.6.36-.85,3.05-1-.58a14.74,14.74,0,0,0-6.79-1.65c-6.63,0-11,2.77-11,16.32,0,14.54,4.27,17.46,11.15,17.46a13.6,13.6,0,0,0,6.84-1.81l1-.53,1,2.82-.65.4A17.12,17.12,0,0,1,473.46,40C463.38,40,459.08,33.84,459.08,19.41ZM499.42,40c9.83,0,13.49-5.43,13.49-20S509.38,0,499.42,0s-13.6,5.41-13.6,20S489.51,40,499.42,40Zm0-3.13c-6.81,0-10.26-2.62-10.26-16.92s3.3-16.86,10.26-16.86S509.63,5.61,509.63,20,506.19,36.87,499.42,36.87Zm41.17,2.49.23-3.19H523.65V.54h-3.29V39.36Zm16.58.64c9.83,0,13.49-5.43,13.49-20S567.13,0,557.17,0s-13.6,5.41-13.6,20S547.26,40,557.17,40Zm0-3.13c-6.81,0-10.27-2.62-10.27-16.92s3.32-16.86,10.27-16.86S567.38,5.61,567.38,20,563.94,36.87,557.17,36.87Zm24.28,2.49V21.47h6.75l9.56,17.89h4l-10-18.26c4.74-.85,7.14-4.3,7.14-10.27,0-6.92-3.25-10.29-9.94-10.29H578.11V39.36ZM589,3.63c4.79,0,6.66,2,6.66,7.25,0,5.43-1.94,7.55-6.91,7.55h-7.25V3.63ZM238.79,39.36V.55H235.5V39.36Zm28.83,0,.25-3.19H250.7V.55h-3.28V39.36Zm25.68,0,.23-3.19H276.36V.55h-3.29V39.36Zm17,.64c8.33,0,12.56-4.71,12.56-14V.55h-3.29V26.06c0,7.44-2.86,10.76-9.27,10.76s-9.32-3.22-9.32-10.76V.55h-3.29V26C297.65,35.29,301.89,40,310.26,40Zm24.37-.64V9.1l10.84,30.26h2.69L359,8.82V39.36h3.14V.55h-3.41l-11.46,32-.44,1.34L335,.55h-3.5V39.36Zm40.94,0V.55h-3.28V39.36Zm13.3,0V6.66l18.75,32.7h2.65V.55h-3.14l.05,31.64v.46L388.93.55h-3.29V39.36Zm44.49-10.85L437,39.36h3.59L427.29.55h-1.83l-.66,2.07L426.15,7l6.19,18.44H417.2l-1.09,3.08Z"/>
<polygon fill="#564788" points="659.17 36.97 642.2 20 659.17 3.03 657.75 1.61 640.78 18.58 623.82 1.61 622.4 3.03 639.37 20 622.4 36.97 623.81 38.38 640.78 21.41 657.76 38.38 659.17 36.97"/>
<path fill="#333" d="M735.19,39.43V40s-4.46-.17-10.68-.17S713,40,713,40v-.57c2.63,0,4.51-1.83,4.06-7.37L715,6.69,706.45,40h-7.2L687.71,5.49l-2,24.22c-.57,6.69,1.77,9.72,5.65,9.72V40s-3.2-.17-6.45-.17c-2.4,0-5.09.17-5.09.17v-.57c2.57,0,4.4-1.49,5-7.83L687,5.66c.34-3.95-1.37-5.09-4.28-5.09V0s8,.17,18.62.17a21.6,21.6,0,0,0,1,6.8l6.34,21.26,5.49-21.6c1.09-4.23.51-6.46.51-6.46,8.58,0,17.89-.17,17.89-.17V.57c-2.91,0-4.4,1-4.29,5.09l2.58,28.68C731.25,38.4,732.28,39.43,735.19,39.43ZM770.2,0V.57c2.92,0,4.29,1,4.29,5.09V32.29c0,4.45-1.37,7.14-4.29,7.14V40s5-.17,11-.17,11,.17,11,.17v-.57c-2.92,0-4.29-1-4.29-5.09V7.71c0-4.45,1.37-7.14,4.29-7.14V0s-5,.17-11,.17S770.2,0,770.2,0Zm88.61,0V.57c4.23,0,7.48,2.23,7.48,8.29V27.54L851.84,5.71c-1.38-2-2.46-4-2.63-5.54C838.58.17,829.84,0,829.84,0V.57c2.91,0,4.28,1,4.28,5.09V31.14c0,6.06-1.71,8.29-4.28,8.29V40s3.6-.17,4.85-.17c2,0,8.17.17,8.17.17v-.57c-5.48,0-8.17-2.23-8.17-8.29V4.86L857.45,40h9.47V8.86c0-6.06,2.4-8.29,5-8.29V0s-3.88.17-5.14.17C864.75.17,858.81,0,858.81,0Zm85.06,24.34c-1.71,9.49-8,15.09-14,15.09-2.91,0-4.28-1-4.28-5.09V19.14h1.94c5.77,0,8.28,5,8.28,9.6h.58V10.46h-.58c0,5.43-3.37,8-7.25,8h-3V1a13.3,13.3,0,0,1,3-.34c6.92,0,12.12,4.05,13,11.54h.57V0C932.44.06,924,.17,918.9.17c-5.94,0-11-.17-11-.17V.57c2.91,0,4.28,1,4.28,5.09V32.29c0,4.45-1.37,7.14-4.28,7.14V40s5-.17,11-.17c5.31,0,12.63.11,23,.17l2.63-15.66Z"/>
</svg>
