<?xml version="1.0" encoding="UTF-8"?>
<svg width="260px" height="260px" viewBox="0 0 260 260" version="1.1" xmlns="http://www.w3.org/2000/svg" xmlns:xlink="http://www.w3.org/1999/xlink">
    <!-- Generator: Sketch 63.1 (92452) - https://sketch.com -->
    <title>Group 4</title>
    <desc>Created with Sketch.</desc>
    <defs>
        <linearGradient x1="-1.11022302e-14%" y1="50%" x2="100%" y2="50%" id="linearGradient-1">
            <stop stop-color="#FFC79B" offset="0%"></stop>
            <stop stop-color="#FFA1A2" offset="27.805449%"></stop>
            <stop stop-color="#FFA1CF" offset="51.8258407%"></stop>
            <stop stop-color="#EDB4FB" offset="74.9225228%"></stop>
            <stop stop-color="#85E0FF" offset="100%"></stop>
        </linearGradient>
        <circle id="path-2" cx="120" cy="120" r="120"></circle>
        <filter x="-6.7%" y="-5.0%" width="113.3%" height="113.3%" filterUnits="objectBoundingBox" id="filter-3">
            <feMorphology radius="2" operator="dilate" in="SourceAlpha" result="shadowSpreadOuter1"></feMorphology>
            <feOffset dx="0" dy="4" in="shadowSpreadOuter1" result="shadowOffsetOuter1"></feOffset>
            <feGaussianBlur stdDeviation="4" in="shadowOffsetOuter1" result="shadowBlurOuter1"></feGaussianBlur>
            <feComposite in="shadowBlurOuter1" in2="SourceAlpha" operator="out" result="shadowBlurOuter1"></feComposite>
            <feColorMatrix values="0 0 0 0 0.660112023   0 0 0 0 0.59149313   0 0 0 0 0.856476367  0 0 0 0.589024257 0" type="matrix" in="shadowBlurOuter1"></feColorMatrix>
        </filter>
        <linearGradient x1="50%" y1="0%" x2="50%" y2="100%" id="linearGradient-4">
            <stop stop-color="#8F7CBB" offset="0%"></stop>
            <stop stop-color="#564685" offset="100%"></stop>
        </linearGradient>
        <linearGradient x1="-1.11022302e-14%" y1="50%" x2="100%" y2="50%" id="linearGradient-5">
            <stop stop-color="#FFC79B" offset="0%"></stop>
            <stop stop-color="#FFA1A2" offset="27.805449%"></stop>
            <stop stop-color="#FFA1CF" offset="51.8258407%"></stop>
            <stop stop-color="#EDB4FB" offset="74.9225228%"></stop>
            <stop stop-color="#85E0FF" offset="100%"></stop>
        </linearGradient>
    </defs>
    <g id="Page-1" stroke="none" stroke-width="1" fill="none" fill-rule="evenodd">
        <g id="3-PC-MyNavi" transform="translate(-305.000000, -2876.000000)">
            <g id="Campaign-Info" transform="translate(165.000000, 2425.000000)">
                <g id="Campaign-Steps-" transform="translate(150.000000, 456.000000)">
                    <g id="Step-1" transform="translate(0.000000, 1.000000)">
                        <g id="Group-4" transform="translate(0.000000, 0.000000)">
                            <g id="Oval">
                                <use fill="black" fill-opacity="1" filter="url(#filter-3)" xlink:href="#path-2"></use>
                                <circle stroke="url(#linearGradient-1)" stroke-width="2" fill="#FFFFFF" fill-rule="evenodd" cx="120" cy="120" r="121"></circle>
                            </g>
                            <g id="Step-1-Icons" transform="translate(105.909091, 141.909091)" fill="url(#linearGradient-4)" fill-rule="nonzero">
                                <path d="M24.1718251,0.216919474 C24.6198476,0.216919474 24.9830416,0.58011349 24.9830416,1.02813601 C24.9830416,1.44169526 24.6735745,1.78297461 24.2735824,1.83303202 L24.1718251,1.83935255 L6.03847336,1.83935255 C3.7905494,1.83935255 1.95485622,3.61128122 1.84566629,5.83909126 L1.84052796,6.04924388 L1.84009488,6.70691947 L16.2481573,6.70718162 C16.6961799,6.70718162 17.0593739,7.07037563 17.0593739,7.51839815 C17.0593739,7.93195741 16.7499068,8.27323675 16.3499146,8.32329416 L16.2481573,8.32961469 L1.84009488,8.32891947 L1.84009488,42.9179195 L28.3690949,42.9179195 L28.3697705,29.1440681 C28.3697705,28.6960456 28.7329645,28.3328516 29.180987,28.3328516 C29.5945463,28.3328516 29.9358256,28.6423187 29.985883,29.0423108 L29.9922036,29.1440681 L29.9922036,45.1977748 C29.9922036,48.3423647 27.5058578,50.9072573 24.3950617,51.024854 L24.1718251,51.0290665 L6.03847336,51.0290665 C2.89831282,51.0290665 0.339608332,48.5376195 0.222297123,45.4213993 L0.218094885,45.1977748 L0.218094885,6.04924388 C0.218094885,2.9035031 2.7035957,0.33872254 5.81517783,0.22113174 L6.03847336,0.216919474 L24.1718251,0.216919474 Z M28.3690949,44.5399195 L1.84009488,44.5399195 L1.84052796,45.1977748 C1.84052796,47.4519207 3.60822774,49.2920308 5.82898972,49.4014827 L6.03847336,49.4066334 L24.1718251,49.4066334 C26.4189905,49.4066334 28.2553962,47.6344711 28.3646301,45.4078151 L28.3697705,45.1977748 L28.3690949,44.5399195 Z M16.6391213,46.162535 C17.0871439,46.162535 17.4503379,46.5257291 17.4503379,46.9737516 C17.4503379,47.3873108 17.1408708,47.7285902 16.7408786,47.7786476 L16.6391213,47.7849681 L13.4209332,47.7849681 C12.9729106,47.7849681 12.6097166,47.4217741 12.6097166,46.9737516 C12.6097166,46.5601923 12.9191837,46.218913 13.3191759,46.1688556 L13.4209332,46.162535 L16.6391213,46.162535 Z M35.741227,4.42795803 C38.4750586,4.42795803 40.6908501,6.64819507 40.6908501,9.38556455 L40.6908501,9.38556455 L40.6908501,20.1114441 C40.6908501,22.8488136 38.4750586,25.0690506 35.741227,25.0690506 L35.741227,25.0690506 L29.315,25.069 L24.7483327,29.6464219 C24.2630896,30.1327222 23.4494333,29.8305625 23.3692808,29.1791266 L23.3692808,29.1791266 L23.3628756,29.0734297 L23.362,25.003 L23.3196724,24.9972341 C21.0566029,24.6077062 19.3189915,22.6789756 19.2187367,20.3264468 L19.2187367,20.3264468 L19.2141642,20.1114441 L19.2141642,9.38556455 C19.2141642,6.64819507 21.4299558,4.42795803 24.1637873,4.42795803 L24.1637873,4.42795803 Z M35.741227,6.05039111 L24.1637873,6.05039111 C22.3267296,6.05039111 20.8365973,7.54351299 20.8365973,9.38556455 L20.8365973,9.38556455 L20.8365973,20.1114441 C20.8365973,21.9534957 22.3267296,23.4466175 24.1637873,23.4466175 L24.1637873,23.4466175 L24.2758494,23.4529381 C24.6758416,23.5029955 24.9853087,23.8442748 24.9853087,24.2578341 L24.9853087,24.2578341 L24.985,27.111 L28.4049785,23.6848419 C28.5317977,23.5577464 28.696409,23.4770431 28.8724406,23.4536725 L28.8724406,23.4536725 L28.9792191,23.4466175 L35.741227,23.4466175 C37.5782848,23.4466175 39.0684171,21.9534957 39.0684171,20.1114441 L39.0684171,20.1114441 L39.0684171,9.38556455 C39.0684171,7.54351299 37.5782848,6.05039111 35.741227,6.05039111 L35.741227,6.05039111 Z M30.0988353,18.9723487 C30.6655992,18.9723487 31.1241626,19.4319112 31.1241626,19.9999098 C31.1241626,20.5679085 30.6655992,21.0285037 30.0988353,21.0285037 C29.531041,21.0285037 29.0724775,20.5679085 29.0724775,19.9999098 C29.0724775,19.4319112 29.531041,18.9723487 30.0988353,18.9723487 Z M30.0983201,8.71346053 C32.0765764,8.71346053 33.6790081,10.3185036 33.6790081,12.2987779 C33.6790081,13.8957732 32.6368439,15.2487317 31.1958552,15.7126325 L31.0791741,15.7459574 L31.0801382,16.7198727 C31.0801382,17.2233842 30.701117,17.6383706 30.2128208,17.6950854 L30.0983201,17.7016908 C29.5948085,17.7016908 29.1798221,17.3226696 29.1231073,16.8343734 L29.1165019,16.7198727 L29.1165019,14.902277 C29.1165019,14.3987655 29.4955232,13.9837791 29.9838193,13.9270643 L30.0983201,13.9204589 C30.9913736,13.9204589 31.7153717,13.1952808 31.7153717,12.2987779 C31.7153717,11.4022749 30.9913736,10.6770969 30.0983201,10.6770969 C29.2548806,10.6770969 28.5622344,11.3239378 28.4878769,12.151042 L28.4812684,12.2987779 C28.4812684,12.8410211 28.0416934,13.2805961 27.4994502,13.2805961 C26.957207,13.2805961 26.517632,12.8410211 26.517632,12.2987779 C26.517632,10.3185036 28.1200637,8.71346053 30.0983201,8.71346053 Z M9.98624119,3.71828079 C10.3901892,3.71828079 10.7168513,4.04565454 10.7168513,4.44944993 C10.7168513,4.85427804 10.3901892,5.1816518 9.98624119,5.1816518 C9.58229314,5.1816518 9.25563106,4.85427804 9.25563106,4.44944993 C9.25563106,4.04565454 9.58229314,3.71828079 9.98624119,3.71828079 Z" id="Combined-Shape"></path>
                            </g>
                            <path d="M122.574399,220.422028 C123.152214,220.411021 123.629549,220.87051 123.640556,221.448325 C123.651563,222.02614 123.192074,222.503474 122.61426,222.514481 L122.61426,222.514481 L121.604183,222.528785 C121.026289,222.534147 120.553466,222.070016 120.548105,221.492122 C120.542743,220.914227 121.006873,220.441404 121.584768,220.436043 L121.584768,220.436043 Z M116.48027,220.354854 C116.810737,220.368463 117.141435,220.380452 117.472355,220.390818 C118.049991,220.408912 118.50359,220.891847 118.485496,221.469483 C118.467402,222.04712 117.984467,222.500718 117.40683,222.482624 C117.069046,222.472043 116.731485,222.459806 116.394156,222.445914 C115.816726,222.422134 115.367903,221.934757 115.391683,221.357327 C115.415463,220.779897 115.90284,220.331074 116.48027,220.354854 Z M127.686325,220.194823 C128.262835,220.154478 128.762894,220.589126 128.803238,221.165636 C128.843583,221.742146 128.408935,222.242205 127.832425,222.282549 L127.832425,222.282549 L126.824127,222.348113 C126.247247,222.382768 125.7515,221.943208 125.716845,221.366328 C125.68219,220.789448 126.12175,220.293701 126.69863,220.259046 C127.028117,220.239253 127.357351,220.217844 127.686325,220.194823 Z M111.239204,220.007771 L111.353302,220.012176 L112.337582,220.09847 C112.913536,220.146099 113.341828,220.651613 113.294199,221.227566 C113.24657,221.80352 112.741056,222.231812 112.165102,222.184183 L112.165102,222.184183 L111.160219,222.096082 C110.584764,222.042764 110.161489,221.533042 110.214807,220.957587 C110.268126,220.382132 110.777848,219.958857 111.353302,220.012176 Z M132.82508,219.701627 C133.398735,219.631547 133.920585,220.039776 133.990664,220.613431 C134.060743,221.187086 133.652514,221.708936 133.078859,221.779015 C132.7447,221.819837 132.410218,221.859013 132.075422,221.896541 C131.5011,221.960917 130.983331,221.547524 130.918955,220.973201 C130.854578,220.398878 131.267971,219.88111 131.842294,219.816733 C132.170202,219.779978 132.4978,219.741608 132.82508,219.701627 Z M106.123158,219.394091 L106.236876,219.404391 C106.563512,219.4518 106.890493,219.497595 107.217809,219.541775 C107.790535,219.619079 108.192154,220.146033 108.114849,220.718759 C108.037545,221.291486 107.510591,221.693104 106.937865,221.6158 L106.937865,221.6158 L105.936269,221.475522 C105.364342,221.392512 104.967997,220.86158 105.051007,220.289653 C105.134018,219.717726 105.664949,219.321381 106.236876,219.404391 Z M137.922283,218.944318 C138.491529,218.844568 139.033858,219.225169 139.133608,219.794415 C139.233358,220.363661 138.852757,220.90599 138.283511,221.00574 L138.283511,221.00574 L137.287788,221.175104 C136.717574,221.269168 136.179072,220.883172 136.085008,220.312958 C135.990945,219.742745 136.376941,219.204242 136.947155,219.110179 L136.947155,219.110179 Z M99.9291476,219.354628 C100.041772,218.787789 100.592586,218.419575 101.159426,218.532199 L101.159426,218.532199 L102.131817,218.720347 C102.699756,218.827292 103.073465,219.374392 102.966521,219.942331 C102.859577,220.510269 102.312476,220.883979 101.744538,220.777034 C101.413143,220.714632 101.082153,220.650588 100.751576,220.584906 C100.184737,220.472282 99.8165231,219.921468 99.9291476,219.354628 Z M142.978683,217.921739 C143.541953,217.79244 144.103391,218.144243 144.23269,218.707513 C144.361989,219.270783 144.010186,219.832221 143.446916,219.96152 C143.118558,220.036894 142.78975,220.11064 142.460502,220.182754 C141.895965,220.306402 141.33808,219.94899 141.214433,219.384452 C141.090785,218.819915 141.448197,218.262031 142.012734,218.138383 C142.335152,218.067766 142.657138,217.99555 142.978683,217.921739 Z M94.8865732,218.1603 C95.0284592,217.600069 95.597638,217.260933 96.1578697,217.402819 L96.1578697,217.402819 L97.1168965,217.640603 C97.6785205,217.776873 98.0233375,218.342629 97.8870668,218.904253 C97.7507962,219.465877 97.1850409,219.810694 96.6234169,219.674423 C96.2964931,219.595099 95.970036,219.514156 95.6440551,219.431597 C95.0838234,219.289711 94.7446872,218.720532 94.8865732,218.1603 Z M147.975509,216.636362 C148.531251,216.477801 149.110308,216.79978 149.268869,217.355522 C149.427431,217.911265 149.105452,218.490322 148.549709,218.648883 C148.225646,218.741343 147.901066,218.832191 147.57598,218.921424 C147.018674,219.074399 146.442878,218.746624 146.289903,218.189318 C146.136929,217.632012 146.464704,217.056216 147.02201,216.903241 L147.02201,216.903241 Z M89.8871904,216.697399 C90.0581451,216.145343 90.6442609,215.8364 91.1963168,216.007354 L91.1963168,216.007354 L92.1443257,216.295712 C92.6980714,216.461111 93.0128884,217.044093 92.8474892,217.597839 C92.68209,218.151585 92.0991078,218.466402 91.5453622,218.301003 L91.5453622,218.301003 L90.5772353,218.006526 C90.0251794,217.835571 89.7162358,217.249455 89.8871904,216.697399 Z M152.894362,215.092827 C153.44106,214.905442 154.036151,215.196723 154.223535,215.743421 C154.410919,216.290119 154.119638,216.88521 153.57294,217.072594 C153.254186,217.181849 152.934848,217.289517 152.614935,217.395593 C152.066384,217.577481 151.474247,217.280241 151.292359,216.73169 C151.110472,216.18314 151.407711,215.591002 151.956262,215.409115 C152.269527,215.305243 152.582231,215.199812 152.894362,215.092827 Z M84.9768393,214.977526 C85.1763638,214.435141 85.7777999,214.157198 86.3201847,214.356723 L86.3201847,214.356723 L87.2515595,214.694044 C87.7959201,214.888113 88.0798877,215.486729 87.8858189,216.031089 C87.6917502,216.57545 87.0931348,216.859417 86.5487742,216.665349 C86.231123,216.552103 85.9140758,216.437276 85.5976428,216.320871 C85.0552581,216.121347 84.7773149,215.519911 84.9768393,214.977526 Z M157.726146,213.294307 C158.262312,213.078626 158.871803,213.33843 159.087484,213.874595 C159.303164,214.41076 159.04336,215.020252 158.507195,215.235932 L158.507195,215.235932 L157.567532,215.608465 C157.029231,215.818759 156.422375,215.552858 156.212081,215.014557 C156.001786,214.476257 156.267688,213.869401 156.805988,213.659106 L156.805988,213.659106 Z M80.173225,213.008536 C80.400688,212.477262 81.0157656,212.230975 81.5470393,212.458438 L81.5470393,212.458438 L82.4564634,212.84244 C82.9899834,213.064583 83.2424043,213.677169 83.0202613,214.210689 C82.7981182,214.744209 82.1855322,214.99663 81.6520122,214.774487 L81.6520122,214.774487 L80.7233232,214.38235 C80.1920494,214.154887 79.9457621,213.53981 80.173225,213.008536 Z M162.452935,211.248169 C162.977135,211.004847 163.599334,211.232544 163.842656,211.756744 C164.085978,212.280944 163.858281,212.903144 163.33408,213.146465 C163.028614,213.288256 162.722426,213.428525 162.415527,213.567266 C161.888919,213.805331 161.269028,213.571421 161.030963,213.044813 C160.792897,212.518205 161.026807,211.898315 161.553415,211.660249 L161.553415,211.660249 Z M75.4871601,210.79709 C75.7418485,210.278317 76.3688625,210.064235 76.8876351,210.318923 C77.183107,210.463984 77.4793106,210.607574 77.7762358,210.74969 C78.2975233,210.99919 78.5178502,211.624038 78.2683496,212.145325 C78.0188491,212.666613 77.3940019,212.886939 76.8727144,212.637439 L76.8727144,212.637439 L75.9653267,212.197565 C75.4465541,211.942877 75.2324716,211.315862 75.4871601,210.79709 Z M167.065821,208.959309 C167.576664,208.689067 168.209858,208.884113 168.4801,209.394956 C168.750342,209.905799 168.555297,210.538993 168.044454,210.809235 L168.044454,210.809235 L167.149297,211.277082 C166.635783,211.542213 166.004567,211.340858 165.739436,210.827344 C165.474306,210.313829 165.67566,209.682613 166.189175,209.417482 L166.189175,209.417482 Z M70.9034044,208.33563 C71.1846842,207.83078 71.8219678,207.649542 72.3268171,207.930821 L72.3268171,207.930821 L73.1942612,208.408466 C73.7018927,208.684694 73.8894831,209.320136 73.613256,209.827768 C73.3370289,210.3354 72.701586,210.52299 72.1939544,210.246763 C71.8978927,210.085661 71.602642,209.923085 71.3082127,209.759042 C70.8033634,209.477763 70.6221245,208.840479 70.9034044,208.33563 Z M171.555711,206.432784 C172.051844,206.1364 172.694305,206.298329 172.990689,206.794462 C173.287073,207.290594 173.125145,207.933056 172.629012,208.22944 L172.629012,208.22944 L171.758947,208.743345 C171.259887,209.034772 170.61907,208.866452 170.327643,208.367392 C170.036215,207.868331 170.204535,207.227515 170.703595,206.936087 L170.703595,206.936087 Z M66.4546758,205.640691 C66.7617219,205.151085 67.4075358,205.003091 67.8971417,205.310137 L67.8971417,205.310137 L68.7371279,205.831119 C69.2297613,206.133284 69.3841666,206.777595 69.0820019,207.270228 C68.7798372,207.762862 68.1355261,207.917267 67.6428927,207.615103 L67.6428927,207.615103 L66.7852297,207.083157 C66.2956238,206.776111 66.1476298,206.130297 66.4546758,205.640691 Z M175.913323,203.673815 C176.39343,203.352118 177.04342,203.480535 177.365117,203.960641 C177.686813,204.440748 177.558397,205.090738 177.07829,205.412435 C176.798014,205.600235 176.516805,205.786639 176.234674,205.971639 C175.751389,206.28854 175.102709,206.15366 174.785808,205.670374 C174.468906,205.187089 174.603787,204.53841 175.087072,204.221508 L175.087072,204.221508 Z M62.1451316,202.714968 C62.4771002,202.241906 63.1297067,202.127527 63.6027691,202.459496 C63.8722951,202.648634 64.142755,202.836434 64.4141389,203.02289 C64.8904681,203.350153 65.0113095,204.001594 64.6840457,204.477924 C64.3567818,204.954253 63.7053409,205.075094 63.2290117,204.74783 C62.9519287,204.557459 62.6757895,204.365715 62.4006045,204.172606 C61.9275421,203.840637 61.813163,203.188031 62.1451316,202.714968 Z M180.114238,200.698971 C180.577101,200.352924 181.232853,200.447621 181.5789,200.910484 C181.924948,201.373347 181.83025,202.029099 181.367387,202.375147 L181.367387,202.375147 L180.556582,202.975091 C180.090315,203.316538 179.435533,203.215353 179.094085,202.749086 C178.752637,202.28282 178.853823,201.628038 179.32009,201.28659 L179.32009,201.28659 Z M57.9924149,199.570392 C58.3483713,199.115105 59.006014,199.034581 59.4613009,199.390538 L59.4613009,199.390538 L60.2421911,199.994863 C60.7009759,200.346299 60.7879988,201.003114 60.4365622,201.461899 C60.0851257,201.920683 59.4283114,202.007706 58.9695266,201.65627 L58.9695266,201.65627 L58.1722687,201.039278 C57.7169817,200.683321 57.6364584,200.025679 57.9924149,199.570392 Z M184.157816,197.510082 C184.602227,197.140635 185.261988,197.201406 185.631434,197.645816 C186.000881,198.090226 185.940111,198.749987 185.4957,199.119434 L185.4957,199.119434 L184.714754,199.76213 C184.266703,200.127153 183.607577,200.059845 183.242554,199.611794 C182.877531,199.163743 182.944839,198.504617 183.39289,198.139594 L183.39289,198.139594 Z M54.0020864,196.211015 C54.381078,195.774716 55.0420014,195.72826 55.4783,196.107252 L55.4783,196.107252 L56.2300239,196.753726 C56.6700596,197.128372 56.7230682,197.788803 56.348422,198.228838 C55.9737757,198.668874 55.3133456,198.721883 54.8733099,198.347236 L54.8733099,198.347236 L54.1058497,197.687229 C53.6695511,197.308237 53.6230947,196.647314 54.0020864,196.211015 Z M188.028434,194.120192 C188.453251,193.728373 189.115265,193.755124 189.507083,194.179942 C189.898901,194.604759 189.87215,195.266773 189.447333,195.658591 L189.447333,195.658591 L188.700395,196.340692 C188.271718,196.728283 187.610001,196.694975 187.222411,196.266298 C186.83482,195.83762 186.868127,195.175904 187.296805,194.788313 L187.296805,194.788313 Z M50.191756,192.651509 C50.5927446,192.235337 51.2551844,192.223028 51.6713565,192.624017 L51.6713565,192.624017 L52.3864674,193.306258 C52.8065808,193.703115 52.8254334,194.365401 52.4285759,194.785515 C52.0317184,195.205628 51.3694326,195.224481 50.9493192,194.827623 L50.9493192,194.827623 L50.2192483,194.13111 C49.8030761,193.730121 49.7907674,193.067681 50.191756,192.651509 Z M191.672606,190.583761 C192.076994,190.170891 192.739512,190.164015 193.152382,190.568403 C193.565252,190.972791 193.572128,191.63531 193.16774,192.04818 L193.16774,192.04818 L192.457417,192.766264 C192.048966,193.175115 191.386412,193.175439 190.977561,192.766988 C190.56871,192.358537 190.568386,191.695983 190.976837,191.287132 L190.976837,191.287132 Z M46.6387556,188.975158 C47.0602716,188.579791 47.7224865,188.600988 48.117854,189.022504 L48.117854,189.022504 L48.7976959,189.74017 C49.1972093,190.157758 49.1825565,190.82015 48.764968,191.219664 C48.3473795,191.619177 47.6849874,191.604524 47.285474,191.186936 L47.285474,191.186936 L46.5914095,190.454257 C46.196042,190.032741 46.2172396,189.370526 46.6387556,188.975158 Z M195.176172,186.817716 C195.558801,186.384604 196.22009,186.343679 196.653202,186.726309 C197.086314,187.108938 197.127239,187.770227 196.74461,188.203339 C196.521564,188.455813 196.297268,188.707183 196.071731,188.957439 C195.684833,189.386743 195.023172,189.421119 194.593868,189.034222 C194.164565,188.647324 194.130189,187.985662 194.517086,187.556359 L194.517086,187.556359 Z M43.2161048,185.051311 C43.6574261,184.67818 44.3176701,184.733459 44.690801,185.174781 C44.9033632,185.426189 45.1171678,185.676547 45.3322062,185.925847 C45.7096792,186.36346 45.6609257,187.024218 45.2233125,187.401691 C44.7856992,187.779164 44.1249413,187.73041 43.7474684,187.292797 L43.7474684,187.292797 L43.0926353,186.526007 C42.7195044,186.084686 42.7747836,185.424442 43.2161048,185.051311 Z M198.489122,182.866825 C198.848906,182.414557 199.507204,182.339583 199.959472,182.699367 C200.411741,183.059151 200.486715,183.717449 200.126931,184.169718 L200.126931,184.169718 L199.49487,184.956236 C199.130629,185.404923 198.471621,185.473381 198.022934,185.10914 C197.574247,184.7449 197.50579,184.085892 197.87003,183.637205 L197.87003,183.637205 Z M40.0023049,180.959015 C40.462267,180.60912 41.1187854,180.698348 41.4686796,181.15831 L41.4686796,181.15831 L42.0713855,181.94252 C42.4258193,182.398993 42.3430999,183.056363 41.8866266,183.410797 C41.4301533,183.765231 40.7727833,183.682511 40.4183495,183.226038 C40.2119141,182.960171 40.006798,182.693285 39.8030093,182.425389 C39.4531151,181.965427 39.5423427,181.308909 40.0023049,180.959015 Z M201.591617,178.753246 C201.927581,178.283013 202.581133,178.174166 203.051366,178.51013 C203.521599,178.846094 203.630446,179.499646 203.294482,179.969879 L203.294482,179.969879 L202.702285,180.790105 C202.361665,181.256978 201.707064,181.359326 201.240192,181.018707 C200.77332,180.678088 200.670971,180.023486 201.01159,179.556614 L201.01159,179.556614 Z M37.0058714,176.709354 C37.4832679,176.383649 38.1343103,176.506619 38.4600152,176.984016 C38.6459845,177.256597 38.833308,177.528255 39.0219781,177.798979 C39.3524092,178.273116 39.2359121,178.925348 38.7617746,179.255779 C38.287637,179.58621 37.6354052,179.469713 37.304974,178.995576 L37.304974,178.995576 L36.7312093,178.163498 C36.4055044,177.686101 36.5284748,177.035059 37.0058714,176.709354 Z M204.481991,174.477847 C204.793151,173.990845 205.440189,173.848297 205.92719,174.159457 C206.414192,174.470617 206.55674,175.117655 206.24558,175.604657 C206.064591,175.887925 205.882198,176.170294 205.698407,176.451752 C205.38243,176.935642 204.734009,177.071762 204.250119,176.755785 C203.766229,176.439807 203.630109,175.791387 203.946087,175.307497 C204.126093,175.031834 204.30473,174.755281 204.481991,174.477847 Z M34.2283117,172.302833 C34.7219306,172.002281 35.3657334,172.158793 35.6662855,172.652412 C35.8380181,172.934461 36.0111547,173.215652 36.1856882,173.495976 C36.4911432,173.986576 36.3410534,174.631906 35.8504533,174.937361 C35.3598532,175.242816 34.7145231,175.092726 34.4090681,174.602126 C34.2308615,174.315903 34.0540808,174.028793 33.8787333,173.740807 C33.5781812,173.247188 33.7346928,172.603385 34.2283117,172.302833 Z M207.143146,170.064795 C207.428646,169.56232 208.067426,169.386427 208.569901,169.671927 C209.072375,169.957427 209.248268,170.596206 208.962769,171.098681 L208.962769,171.098681 L208.45839,171.976153 C208.167888,172.475753 207.527385,172.645261 207.027785,172.354759 C206.528185,172.064258 206.358677,171.423754 206.649178,170.924154 L206.649178,170.924154 Z M31.6863786,167.764649 C32.1949085,167.490079 32.8297361,167.679741 33.1043058,168.188271 C33.2612195,168.478891 33.4195816,168.76872 33.5793852,169.057749 C33.8590203,169.563512 33.675708,170.200202 33.1699458,170.479837 C32.6641836,170.759472 32.0274933,170.57616 31.7478582,170.070398 L31.7478582,170.070398 L31.262756,169.182576 C30.9881864,168.674046 31.1778487,168.039218 31.6863786,167.764649 Z M209.569771,165.52347 C209.828802,165.006853 210.45759,164.798038 210.974208,165.05707 C211.490826,165.316102 211.69964,165.94489 211.440608,166.461507 L211.440608,166.461507 L210.982917,167.363062 C210.718734,167.877065 210.087891,168.079584 209.573888,167.815402 C209.059885,167.55122 208.857365,166.920376 209.121548,166.406373 L209.121548,166.406373 Z M29.3820453,163.097677 C29.9041576,162.849908 30.5282704,163.072306 30.7760402,163.594418 L30.7760402,163.594418 L31.2041994,164.485146 C31.4571702,165.004758 31.2410146,165.631061 30.7214023,165.884032 C30.2017901,166.137003 29.5754877,165.920847 29.3225168,165.401235 C29.1752722,165.098788 29.0295326,164.795597 28.8853041,164.491672 C28.6375343,163.96956 28.8599329,163.345447 29.3820453,163.097677 Z M211.752928,160.871724 C211.984788,160.342354 212.601886,160.101174 213.131256,160.333034 C213.660626,160.564894 213.901805,161.181992 213.669946,161.711362 L213.669946,161.711362 L213.2591,162.636726 C213.021943,163.163744 212.402457,163.398722 211.875439,163.161565 C211.348422,162.924408 211.113443,162.304922 211.3506,161.777904 L211.3506,161.777904 Z M27.3223276,158.313556 C27.8566434,158.093334 28.4683173,158.347957 28.6885393,158.882273 L28.6885393,158.882273 L29.0702065,159.795288 C29.2957701,160.327371 29.0472871,160.941565 28.5152042,161.167128 C27.9831212,161.392692 27.3689274,161.144209 27.1433638,160.612126 L27.1433638,160.612126 L26.7536105,159.679768 C26.5333885,159.145452 26.7880118,158.533778 27.3223276,158.313556 Z M213.682253,156.137 C213.886405,155.596341 214.490194,155.323547 215.030854,155.527699 C215.571514,155.731852 215.844307,156.335641 215.640155,156.876301 L215.640155,156.876301 L215.278759,157.819077 C215.069201,158.357664 214.462709,158.624395 213.924122,158.414838 C213.385534,158.20528 213.118803,157.598788 213.32836,157.0602 L213.32836,157.0602 Z M25.5145628,153.427089 C26.0596483,153.235066 26.6571931,153.521279 26.8492164,154.066365 C26.9587239,154.377217 27.0697768,154.687486 27.1823701,154.99716 C27.3798461,155.540294 27.0996349,156.140677 26.556501,156.338153 C26.0133671,156.535629 25.4129842,156.255418 25.2155083,155.712284 L25.2155083,155.712284 L24.8752871,154.761743 C24.6832638,154.216657 24.9694773,153.619113 25.5145628,153.427089 Z M215.377322,151.266341 C215.552939,150.71575 216.141647,150.411774 216.692237,150.587391 C217.242828,150.763008 217.546804,151.351716 217.371187,151.902306 L217.371187,151.902306 L217.059075,152.864126 C216.877939,153.412925 216.286209,153.710975 215.73741,153.529839 C215.18861,153.348703 214.89056,152.756973 215.071696,152.208174 L215.071696,152.208174 Z M23.9645555,148.452838 C24.5189301,148.289559 25.1007033,148.606605 25.2639823,149.160979 C25.3571796,149.477408 25.4519494,149.793318 25.5482871,150.108699 C25.7171199,150.661408 25.4059271,151.246333 24.8532186,151.415165 C24.3005101,151.583998 23.7155854,151.272805 23.5467526,150.720097 L23.5467526,150.720097 L23.2564146,149.752265 C23.0931355,149.197891 23.410181,148.616117 23.9645555,148.452838 Z M216.813426,146.321569 C216.96007,145.762564 217.532111,145.428279 218.091116,145.574922 C218.650121,145.721566 218.984406,146.293608 218.837763,146.852613 C218.752371,147.178123 218.665366,147.503143 218.57675,147.827663 C218.424513,148.385171 217.849152,148.713708 217.291644,148.561471 C216.734136,148.409234 216.405599,147.833872 216.557836,147.276365 L216.557836,147.276365 Z M22.6762404,143.403094 C23.2383884,143.269001 23.8028028,143.616009 23.9368954,144.178157 L23.9368954,144.178157 L24.1712078,145.139095 C24.3109262,145.699871 23.9695915,146.267735 23.4088153,146.407453 C22.8480391,146.547171 22.280176,146.205837 22.1404576,145.64506 C22.059076,145.318426 21.9793146,144.991319 21.9011774,144.663749 C21.7670849,144.101601 22.1140924,143.537187 22.6762404,143.403094 Z M217.990854,141.302756 C218.108126,140.73686 218.661943,140.373178 219.227839,140.490449 C219.793735,140.607721 220.157417,141.161538 220.040146,141.727434 C219.971612,142.058143 219.901437,142.388425 219.829623,142.718269 C219.706678,143.28296 219.149238,143.641065 218.584548,143.51812 C218.019857,143.395175 217.661751,142.837736 217.784697,142.273045 L217.784697,142.273045 Z M21.6534938,138.294664 C22.2218681,138.190061 22.7674243,138.566021 22.8720277,139.134395 C22.9317526,139.458917 22.9930831,139.783048 23.0560157,140.106778 C23.1662978,140.674078 22.7958118,141.223367 22.228512,141.333649 C21.6612122,141.443931 21.1119236,141.073445 21.0016415,140.506145 L21.0016415,140.506145 L20.8137624,139.513198 C20.709159,138.944824 21.0851195,138.399267 21.6534938,138.294664 Z M219.980491,135.370642 L220.094118,135.3819 C220.665326,135.469725 221.057185,136.003976 220.96936,136.575184 C220.917992,136.909276 220.864969,137.243003 220.810294,137.576357 C220.716756,138.146657 220.178609,138.533148 219.60831,138.43961 C219.03801,138.346072 218.651518,137.807925 218.745056,137.237626 C218.798601,136.911162 218.850528,136.584332 218.900835,136.257142 C218.98866,135.685935 219.522911,135.294075 220.094118,135.3819 Z M20.8964308,133.128292 C21.4694804,133.053423 21.9947221,133.457278 22.069591,134.030328 C22.1123522,134.357624 22.1567275,134.684589 22.2027141,135.011216 C22.2832863,135.583491 21.8846819,136.112729 21.3124064,136.193301 C20.7401308,136.273873 20.2108932,135.875269 20.130321,135.302993 L20.130321,135.302993 L19.9943949,134.301452 C19.919526,133.728402 20.3233813,133.203161 20.8964308,133.128292 Z M220.583886,130.204822 L220.697944,130.210183 C221.272932,130.268318 221.691924,130.781566 221.633788,131.356555 C221.599836,131.692357 221.564229,132.027856 221.52697,132.363045 C221.463122,132.937427 220.945734,133.351297 220.371352,133.287449 C219.79697,133.223601 219.383101,132.706213 219.446949,132.131831 C219.483442,131.803534 219.518318,131.47493 219.551572,131.146027 C219.609707,130.571039 220.122956,130.152047 220.697944,130.210183 Z M20.4092607,127.942598 C20.9854123,127.897426 21.4890947,128.32787 21.5342668,128.904021 L21.5342668,128.904021 L21.6164979,129.890236 C21.6673673,130.465912 21.2419269,130.973828 20.6662504,131.024697 C20.0905738,131.075567 19.5826581,130.650126 19.5317888,130.07445 L19.5317888,130.07445 L19.4478374,129.067604 C19.4026652,128.491453 19.8331091,127.98777 20.4092607,127.942598 Z M221.034092,125.023264 C221.611307,125.051808 222.056092,125.542872 222.027548,126.120086 C222.010948,126.455779 221.992707,126.791231 221.972828,127.126432 C221.938616,127.703339 221.443207,128.143279 220.866301,128.109066 C220.289394,128.074854 219.849454,127.579445 219.883667,127.002538 L219.883667,127.002538 L219.93727,126.016719 C219.965814,125.439505 220.456878,124.99472 221.034092,125.023264 Z M20.1897944,122.776337 C20.7674981,122.760538 21.2486275,123.216051 21.2644271,123.793755 L21.2644271,123.793755 L21.2963375,124.783056 C21.3178022,125.360577 20.8670295,125.846151 20.2895085,125.867615 C19.7119876,125.88908 19.2264138,125.438307 19.2049492,124.860786 L19.2049492,124.860786 L19.172377,123.85097 C19.1565774,123.273266 19.6120907,122.792137 20.1897944,122.776337 Z M221.105178,119.824587 C221.683097,119.823729 222.152291,120.291527 222.153152,120.869446 L222.153152,120.869446 L222.149731,121.880128 C222.144956,122.458028 221.672605,122.922637 221.094705,122.917862 C220.516805,122.913087 220.052195,122.440735 220.056971,121.862835 L220.056971,121.862835 L220.060322,120.872565 C220.059461,120.294646 220.527259,119.825452 221.105178,119.824587 Z M20.2315867,117.6144 C20.8093524,117.627738 21.2669112,118.106923 21.2535728,118.684689 L21.2535728,118.684689 L21.2355507,119.675687 C21.227871,120.253556 20.7531903,120.715786 20.1753217,120.708106 C19.597453,120.700426 19.1352235,120.225746 19.1429031,119.647877 C19.1473867,119.310507 19.1535189,118.973341 19.1612979,118.636386 C19.1746363,118.05862 19.6538209,117.601062 20.2315867,117.6144 Z M220.916105,114.694706 C221.49325,114.664797 221.985365,115.10842 222.015274,115.685565 C222.032694,116.021726 222.048469,116.358128 222.062597,116.694765 C222.086828,117.272177 221.638388,117.759905 221.060976,117.784137 C220.483565,117.808368 219.995837,117.359928 219.971605,116.782516 L219.971605,116.782516 L219.925246,115.793875 C219.895337,115.21673 220.33896,114.724615 220.916105,114.694706 Z M20.4230536,112.427403 L20.5372137,112.429728 C21.1135445,112.472554 21.5460359,112.974479 21.5032103,113.55081 C21.4787497,113.879991 21.4559054,114.209437 21.4346798,114.539141 C21.3975515,115.115867 20.8999243,115.553297 20.3231985,115.516169 C19.7464727,115.47904 19.3090426,114.981413 19.3461709,114.404687 C19.3678395,114.068104 19.3911606,113.73178 19.416132,113.395725 C19.4589576,112.819394 19.960883,112.386903 20.5372137,112.429728 Z M220.461379,109.524854 C221.036232,109.465393 221.550445,109.8832 221.609906,110.458053 C221.644538,110.792863 221.677523,111.127974 221.70886,111.463376 C221.76262,112.03879 221.339737,112.548837 220.764323,112.602597 C220.188909,112.656358 219.678863,112.233475 219.625102,111.658061 L219.625102,111.658061 L219.52818,110.673381 C219.468719,110.098528 219.886527,109.584315 220.461379,109.524854 Z M20.9962778,107.248928 L21.110166,107.257139 C21.6835207,107.329634 22.0895476,107.853199 22.0170525,108.426554 L22.0170525,108.426554 L21.8976556,109.410167 C21.8308709,109.984215 21.3113735,110.395433 20.7373256,110.328648 C20.1632777,110.261863 19.7520596,109.742366 19.8188443,109.168318 L19.8188443,109.168318 L19.9407514,108.164026 C20.0132465,107.590671 20.5368113,107.184644 21.110166,107.257139 Z M219.737081,104.362408 C220.308077,104.273223 220.84326,104.663809 220.932445,105.234806 L220.932445,105.234806 L221.083371,106.233732 C221.166859,106.80559 220.770957,107.336852 220.1991,107.42034 C219.627242,107.503828 219.09598,107.107926 219.012492,106.536069 L219.012492,106.536069 L218.864683,105.557772 C218.775498,104.986776 219.166084,104.451593 219.737081,104.362408 Z M20.7349436,102.968602 C20.8370697,102.399777 21.3809827,102.021443 21.9498073,102.123569 C22.5186319,102.225695 22.8969658,102.769608 22.7948398,103.338433 L22.7948398,103.338433 L22.6248078,104.313466 C22.5283702,104.883283 21.9882645,105.267033 21.4184479,105.170595 C20.8486313,105.074157 20.4648817,104.534052 20.5613193,103.964235 C20.6175523,103.631973 20.6754282,103.300093 20.7349436,102.968602 Z M218.744847,99.2429809 C219.310422,99.1241687 219.865227,99.4863414 219.984039,100.051916 L219.984039,100.051916 L220.186851,101.041957 C220.299996,101.608693 219.932288,102.159845 219.365553,102.27299 C218.798817,102.386135 218.247665,102.018427 218.13452,101.451691 C218.069918,101.128106 218.003714,100.804931 217.935911,100.482173 C217.817099,99.9165982 218.179272,99.361793 218.744847,99.2429809 Z M21.794299,97.8372092 C21.925798,97.2744489 22.4886065,96.9248426 23.0513668,97.0563416 C23.6141271,97.1878407 23.9637334,97.7506491 23.8322343,98.3134094 C23.7571894,98.6345702 23.6837372,98.9561765 23.6118815,99.2782192 C23.486028,99.842269 22.926751,100.197497 22.3627013,100.071644 C21.7986516,99.9457903 21.4434233,99.3865133 21.5692767,98.8224636 C21.6426549,98.4935974 21.7176636,98.1651761 21.794299,97.8372092 Z M217.489076,94.1908991 C218.047685,94.0427538 218.620622,94.3755005 218.768768,94.9341096 C218.855128,95.2597486 218.939871,95.5858799 219.022993,95.9124937 C219.165527,96.4725609 218.827049,97.0421316 218.266982,97.1846654 C217.706914,97.3271993 217.137344,96.9887216 216.99481,96.4286544 C216.913415,96.1088239 216.830432,95.7894664 216.745865,95.4705912 C216.59772,94.911982 216.930466,94.3390444 217.489076,94.1908991 Z M23.1244041,92.7481594 C23.2850901,92.1930277 23.865375,91.8732663 24.4205067,92.0339523 C24.9756383,92.1946383 25.2953997,92.7749232 25.1347137,93.3300549 L25.1347137,93.3300549 L24.8640795,94.2829209 C24.7089767,94.8396383 24.1319323,95.1652112 23.5752149,95.0101084 C23.0184975,94.8550055 22.6929246,94.2779612 22.8480274,93.7212437 L22.8480274,93.7212437 Z M215.970981,89.2102467 C216.521092,89.0331343 217.110624,89.3355095 217.287736,89.8856208 C217.391042,90.2064874 217.492749,90.5279141 217.592855,90.8498911 C217.764434,91.4017532 217.456154,91.9882181 216.904292,92.1597972 C216.35243,92.3313763 215.765965,92.023096 215.594386,91.4712338 C215.49636,91.1559478 215.396766,90.8412005 215.295607,90.5270016 C215.118495,89.9768903 215.42087,89.3873591 215.970981,89.2102467 Z M24.7200306,87.7306308 C24.9095076,87.1846549 25.5057099,86.8956554 26.0516857,87.0851324 C26.5976616,87.2746093 26.8866611,87.8708116 26.6971841,88.4167875 L26.6971841,88.4167875 L26.3777088,89.3524667 C26.1937142,89.9003144 25.6004387,90.1952757 25.052591,90.0112811 C24.5047432,89.8272865 24.209782,89.234011 24.3937766,88.6861633 C24.5009436,88.3670714 24.6096965,88.0485573 24.7200306,87.7306308 Z M214.194738,84.3152639 C214.734851,84.1096709 215.339366,84.3808534 215.544959,84.920967 C215.664764,85.2357086 215.783003,85.5510777 215.899669,85.8670642 C216.099836,86.4092119 215.822606,87.0109772 215.280458,87.2111446 C214.738311,87.411312 214.136545,87.1340821 213.936378,86.5919343 L213.936378,86.5919343 L213.589034,85.6654851 C213.383441,85.1253715 213.654624,84.5208568 214.194738,84.3152639 Z M26.5771039,82.7996815 C26.7948565,82.2643545 27.4053482,82.0069097 27.9406751,82.2246623 C28.4760021,82.442415 28.7334469,83.0529067 28.5156943,83.5882336 L28.5156943,83.5882336 L28.1476593,84.506161 C27.9352792,85.0436421 27.3273967,85.3071885 26.7899156,85.0948085 C26.2524346,84.8824285 25.9888881,84.2745459 26.2012682,83.7370649 L26.2012682,83.7370649 Z M212.167795,79.5246011 C212.696465,79.2911498 213.314286,79.5304717 213.547737,80.0591414 L213.547737,80.0591414 L213.951051,80.9849877 C214.179201,81.5159669 213.933709,82.1313624 213.40273,82.359512 C212.871751,82.5876617 212.256355,82.3421698 212.028206,81.8111906 L212.028206,81.8111906 L211.633255,80.9045432 C211.399803,80.3758734 211.639125,79.7580523 212.167795,79.5246011 Z M28.6650586,78.0239108 C28.9101566,77.5005389 29.5331245,77.2749533 30.0564964,77.5200514 C30.5798683,77.7651494 30.8054538,78.3881173 30.5603558,78.9114892 C30.4206256,79.2098633 30.2823806,79.5089463 30.1456268,79.8087284 C29.905771,80.3345234 29.2850884,80.5663229 28.7592935,80.3264671 C28.2334985,80.0866114 28.0016989,79.4659288 28.2415547,78.9401338 L28.2415547,78.9401338 Z M209.913517,74.8829018 C210.429441,74.6224907 211.058785,74.8296245 211.319196,75.3455482 L211.319196,75.3455482 L211.76977,76.2494118 C212.025016,76.7679104 211.811607,77.3951541 211.293109,77.6503998 C210.77461,77.9056455 210.147366,77.6922369 209.892121,77.1737383 L209.892121,77.1737383 L209.450871,76.2885803 C209.19046,75.7726566 209.397594,75.1433129 209.913517,74.8829018 Z M31.0161229,73.3254412 C31.2880696,72.8155038 31.9219119,72.6225742 32.4318493,72.8945209 C32.9417867,73.1664676 33.1347163,73.8003099 32.8627696,74.3102473 L32.8627696,74.3102473 L32.4019855,75.1847529 C32.1351369,75.6973765 31.5032498,75.8966166 30.9906262,75.629768 C30.4780025,75.3629194 30.2787625,74.7310323 30.5456111,74.2184087 C30.7009669,73.9199658 30.8578063,73.6223065 31.0161229,73.3254412 Z M207.396627,70.3181414 C207.898313,70.0312582 208.537575,70.2053906 208.824459,70.7070769 L208.824459,70.7070769 L209.321051,71.5856113 C209.602925,72.090129 209.422437,72.7276256 208.917919,73.0094997 C208.413401,73.2913737 207.775904,73.1108853 207.49403,72.6063676 L207.49403,72.6063676 L207.007692,71.745973 C206.720808,71.2442866 206.894941,70.6050247 207.396627,70.3181414 Z M33.6095402,68.7522707 C33.9075602,68.257119 34.5505529,68.0973121 35.0457047,68.395332 C35.5408565,68.693352 35.7006634,69.3363447 35.4026434,69.8314965 L35.4026434,69.8314965 L34.8969696,70.6811985 C34.6038915,71.1792912 33.9625208,71.3454884 33.464428,71.0524102 C32.9663353,70.7593321 32.8001381,70.1179614 33.0932163,69.6198686 L33.0932163,69.6198686 Z M204.648677,65.8939741 C205.134821,65.5814757 205.782249,65.7222433 206.094747,66.2083873 L206.094747,66.2083873 L206.636791,67.0609161 C206.944439,67.5501435 206.79724,68.1961392 206.308013,68.5037878 C205.818785,68.8114364 205.17279,68.6642377 204.865141,68.1750102 L204.865141,68.1750102 L204.334264,67.3400439 C204.021766,66.8538999 204.162533,66.2064724 204.648677,65.8939741 Z M36.4405038,64.313335 C36.7637741,63.8342865 37.414182,63.7080033 37.8932306,64.0312735 C38.3722791,64.3545438 38.4985623,65.0049518 38.175292,65.4840003 L38.175292,65.4840003 L37.6255693,66.3074215 C37.3070772,66.7896599 36.6579567,66.9224024 36.1757183,66.6039103 C35.6934799,66.2854181 35.5607373,65.6362977 35.8792295,65.1540592 C36.0649263,64.8728903 36.2520203,64.5926454 36.4405038,64.313335 Z M201.679235,61.6230454 C202.14859,61.285855 202.802424,61.3929952 203.139614,61.8623499 L203.139614,61.8623499 L203.726105,62.6873434 C204.058612,63.1600275 203.944976,63.8127639 203.472292,64.1452709 C202.999608,64.477778 202.346871,64.3641421 202.014364,63.891458 C201.824228,63.6211652 201.632748,63.3518173 201.439931,63.0834245 C201.102741,62.6140698 201.209881,61.9602359 201.679235,61.6230454 Z M39.4958674,60.0288584 C39.8434593,59.5671539 40.4995236,59.4746473 40.9612281,59.8222392 C41.4229327,60.1698311 41.5154392,60.8258954 41.1678474,61.2875999 L41.1678474,61.2875999 L40.5766545,62.0810342 C40.2336577,62.5461625 39.5785428,62.6451697 39.1134145,62.3021729 C38.6482861,61.9591762 38.5492789,61.3040613 38.8922757,60.838933 L38.8922757,60.838933 Z M198.501895,57.5213083 C198.95329,57.160429 199.611768,57.2338064 199.972648,57.6852013 L199.972648,57.6852013 L200.600352,58.4783791 C200.956736,58.9333314 200.87683,59.5910495 200.421878,59.9474335 C199.966925,60.3038175 199.309207,60.223912 198.952823,59.7689597 L198.952823,59.7689597 L198.338002,58.9920607 C197.977123,58.5406659 198.0505,57.8821876 198.501895,57.5213083 Z M42.7701002,55.9057481 C43.141059,55.4625993 43.8010235,55.4040778 44.2441722,55.7750365 C44.6873209,56.1459953 44.7458424,56.8059598 44.3748837,57.2491085 L44.3748837,57.2491085 L43.7436531,58.0108066 C43.3770991,58.4576056 42.7177462,58.522657 42.2709472,58.156103 C41.8241482,57.789549 41.7590968,57.1301962 42.1256508,56.6833972 C42.3391815,56.4231209 42.5540009,56.1639011 42.7701002,55.9057481 Z M195.105083,53.5739025 C195.537277,53.1902372 196.198663,53.2295778 196.582328,53.6617723 L196.582328,53.6617723 L197.250023,54.4214696 C197.629388,54.8574439 197.583497,55.5184068 197.147522,55.8977715 C196.711548,56.2771362 196.050585,56.231245 195.67122,55.7952707 L195.67122,55.7952707 L195.017213,55.0511474 C194.633548,54.6189529 194.672888,53.9575679 195.105083,53.5739025 Z M46.2567609,51.9525973 C46.6500984,51.5291864 47.3122038,51.5048071 47.7356147,51.8981445 C48.1590256,52.291482 48.1834049,52.9535874 47.7900674,53.3769983 L47.7900674,53.3769983 L47.1198962,54.1056062 C46.7307684,54.5328892 46.0689367,54.56382 45.6416538,54.1746922 C45.2143708,53.7855644 45.18344,53.1237327 45.5725678,52.6964497 L45.5725678,52.6964497 Z M168.105796,27.3968447 L176.202118,28.2759602 L176.299451,28.3056217 L176.584027,28.4550241 L164.856935,49.9836937 L167.862239,51.6205877 L167.145523,52.9363732 L157.576443,47.7248828 L158.293338,46.410317 L161.183935,47.9826937 L171.440935,29.1496937 L167.366957,28.7561809 L168.105796,27.3968447 Z M77.5573578,22.0661344 L81.3581535,29.7381693 L79.9972759,30.4124642 L79.0945086,28.5906517 C77.5047001,25.6726487 74.7969328,24.6361715 72.116449,25.9639481 C69.7016558,27.1612063 69.0862273,29.3192802 70.3397077,32.1405899 C71.268341,34.2813616 73.1065027,34.9148592 76.8112977,34.5172298 L77.4959996,34.4617325 C82.7504185,34.0827357 85.4656404,35.0348576 87.3454738,38.8273122 C89.4291743,43.1386266 87.7998264,46.7620625 82.7271973,49.2755457 C80.2434544,50.5058648 77.9296157,50.7235367 75.9864724,49.9942548 C75.8304354,49.9320621 75.6769715,49.8658246 75.5270226,49.7959636 L75.3048535,49.6885072 L75.2019347,49.6336937 L76.2678993,51.783886 L74.9058903,52.4579807 L70.4356458,43.43735 L71.798885,42.7634063 L72.6856234,44.5551194 C74.6960612,48.6137432 77.390549,50.2241701 81.6158585,48.1301762 C84.3045778,46.7983201 85.2625247,44.3216262 84.1459143,41.7791312 C83.1717467,39.55234 80.9501978,38.6968598 77.2278211,38.9736984 L76.2086421,39.0588119 C71.3559561,39.423036 68.8851308,38.6108849 67.2404139,35.2928914 C65.2072058,31.1895687 66.4867429,27.0575169 71.0847684,24.7792415 C73.0333206,23.8141331 75.1668626,23.7853791 76.8699945,24.6144389 L77.0995142,24.7328022 L77.2149347,24.7996937 L76.1954801,22.7416994 L77.5573578,22.0661344 Z M191.518607,49.8158303 C191.93052,49.4104678 192.593053,49.4157781 192.998415,49.8276913 L192.998415,49.8276913 L193.702976,50.5507508 C194.104247,50.9666505 194.092388,51.6290984 193.676489,52.0303697 C193.260589,52.431641 192.598141,52.4197824 192.19687,52.0038828 L192.19687,52.0038828 L191.506746,51.2956387 C191.101383,50.8837256 191.106694,50.2211928 191.518607,49.8158303 Z M49.9037906,48.2224763 C50.3182342,47.8197012 50.9807207,47.8291604 51.3834957,48.2436039 C51.7862708,48.6580474 51.7768116,49.320534 51.3623681,49.723309 L51.3623681,49.723309 L50.6560322,50.4165846 C50.2455934,50.8234398 49.5830457,50.8205346 49.1761905,50.4100958 C48.7693354,49.9996569 48.7722405,49.3371092 49.1826794,48.9302541 L49.1826794,48.9302541 Z M173.147935,29.3306937 L162.575935,48.7416937 L163.464935,49.2266937 L174.225935,29.4676937 L173.147935,29.3306937 Z M187.742264,46.2455504 C188.132801,45.8195554 188.794731,45.7908113 189.220726,46.1813487 C189.468412,46.4084182 189.714976,46.6367099 189.96041,46.8662147 C190.382529,47.260938 190.404738,47.9231197 190.010015,48.345239 C189.615291,48.7673583 188.95311,48.7895671 188.53099,48.3948438 L188.53099,48.3948438 L187.806465,47.724013 C187.38047,47.3334756 187.351726,46.6715453 187.742264,46.2455504 Z M68.2509347,29.3696937 L68.1644108,29.6252852 C67.6750901,31.1555133 67.7934508,32.7192071 68.548445,34.309486 C69.7914765,37.0632417 72.2695107,37.8709948 76.5130447,37.4462819 L76.8517382,37.4102044 C81.4217823,36.868709 84.2089569,37.8978492 85.6022258,41.0993695 C86.1786834,42.5974984 86.1453243,44.1915639 85.5158531,45.5919771 L85.4829347,45.6596937 L85.5851445,45.5153857 C86.8190478,43.7047276 86.9271401,41.9982269 86.0133558,39.7979356 L85.8988033,39.5314922 C84.4961473,36.4501123 81.8047997,35.6255186 76.9714537,36.0914035 C72.3706663,36.458133 70.1960075,35.7522056 68.8848328,32.8240683 C68.371649,31.557761 68.1352697,30.4665016 68.2363212,29.4827133 L68.2509347,29.3696937 Z M102.016315,14.9339543 L105.209949,20.1382732 L103.797962,20.4856155 L101.285935,16.5866937 L96.2329347,17.8306937 L101.778935,40.3586937 L103.672301,39.8947715 L104.015898,41.2834762 L96.0864493,43.2349834 L95.7429122,41.8449305 L97.6359347,41.3796937 L92.0909347,18.8496937 L87.2109347,20.0506937 L86.7965135,24.6705825 L85.384468,25.0195549 L85.7983479,18.9254178 L102.016315,14.9339543 Z M139.55565,14.929477 L148.040127,16.9876223 C153.640597,18.2975594 156.080613,21.2793372 154.986203,25.7891448 C153.85741,30.4477208 150.390919,32.4607705 145.201973,31.3065236 L144.906424,31.2378027 L142.157935,30.5706937 L139.790935,40.3286937 L141.944174,40.8523042 L141.606918,42.2426897 L133.414626,40.255659 L133.750205,38.864042 L135.644935,39.3236937 L141.100935,16.8226937 L139.207381,16.3631585 L139.55565,14.929477 Z M94.6719347,18.2146937 L93.6519347,18.4656937 L99.1979347,40.9946937 L100.216935,40.7426937 L94.6719347,18.2146937 Z M142.664935,17.2016937 L137.207935,39.7026937 L138.226935,39.9506937 L143.683935,17.4486937 L142.664935,17.2016937 Z M127.112527,13.5588007 L128.67445,19.3962045 L127.186988,19.4197901 L125.873935,15.0096937 L116.828935,15.1576937 L116.991935,25.0666937 L123.577935,24.9586937 L123.534024,22.2125683 L125.009646,22.1891457 L125.121845,29.1134344 L123.646182,29.1368577 L123.600935,26.3896937 L117.013935,26.4976937 L117.207935,38.3546937 L126.808935,38.1986937 L127.578518,33.7560513 L129.194658,33.7291157 L128.216695,39.6077451 L111.016486,39.8885856 L110.99264,38.4562155 L112.942935,38.4236937 L112.563935,15.2266937 L110.61584,15.2588764 L110.591985,13.8275676 L127.112527,13.5588007 Z M115.220935,15.1826937 L114.171935,15.2006937 L114.549935,38.3976937 L115.599935,38.3806937 L115.220935,15.1826937 Z M151.099935,19.3996937 L151.139165,19.4541571 C152.232144,21.0463873 152.507487,23.2282415 151.974945,25.4238558 C151.388532,27.8470804 149.871994,29.7775858 147.868165,30.4679157 L147.781935,30.4946937 L147.817526,30.4946937 C150.489052,30.3486152 152.520842,28.7335085 153.352258,25.6825255 L153.422489,25.4095956 C154.014809,22.9682184 153.071977,20.8144704 151.183894,19.4579906 L151.099935,19.3996937 Z M145.248935,17.8216937 L142.505935,29.1356937 L144.221822,29.5530031 C147.06944,30.2434139 149.48627,28.45661 150.350322,25.2848456 L150.412197,25.0443836 C151.216883,21.7276943 149.994543,19.0547368 147.197661,18.2601335 L146.979419,18.2027359 L145.248935,17.8216937 Z" id="Combined-Shape" fill="url(#linearGradient-5)" fill-rule="nonzero"></path>
                        </g>
                    </g>
                </g>
            </g>
        </g>
    </g>
</svg>