<svg xmlns="http://www.w3.org/2000/svg" viewBox="0 0 88 88"><defs><style>.cls-1{fill:#5a498e;}.cls-2{isolation:isolate;}.cls-3{fill:#fff;}</style></defs><title>Q3</title><g id="Layer_2" data-name="Layer 2"><g id="Layer_1-2" data-name="Layer 1"><g id="Page-1"><g id="FAQ"><g id="Question-1"><g id="Question"><g id="Group"><circle id="Oval" class="cls-1" cx="44" cy="44" r="44"/><g id="Q1" class="cls-2"><g class="cls-2"><path class="cls-3" d="M44.7,42.53c0,7.21-3.35,12.58-8.82,13.81a17.42,17.42,0,0,1,5.57,4c1.88,1.89,3.25,4.57,5.47,4.57a6.88,6.88,0,0,0,2.31-.51l.33.56A6.6,6.6,0,0,1,46,66a9.31,9.31,0,0,1-7.73-3.54c-2.12-2.26-3.58-5.8-4.9-5.8h-.19c-7.36,0-11.6-5.8-11.6-14.14s4.24-14.15,11.6-14.15C40.31,28.38,44.7,34.23,44.7,42.53ZM28.9,55.35l.15-.19C26.4,53,24.76,48.51,24.76,42.53s1.64-10.66,4.43-12.69L29,29.7c-3.87,1.89-6.32,7-6.32,12.83C22.68,48.56,24.8,53.46,28.9,55.35ZM40.36,42.53c0-7.64-2.69-13.16-7.21-13.16-4.72,0-7.26,5.52-7.26,13.16s2.54,13.15,7.26,13.15C37.67,55.68,40.36,50.26,40.36,42.53ZM35.46,57l-.05,0c1,1.27,2.26,3.49,3.49,4.71a11,11,0,0,0,6,3.44l0,0c-1.75-.8-2.88-2.88-4.25-4.25C39,59.36,37.34,57.71,35.46,57ZM37.2,29.7l-.19.14c2.79,2,4.44,6.6,4.44,12.69S39.8,53,37.16,55.16l.14.19c4-1.89,6.22-6.79,6.22-12.82C43.52,36.73,41.07,31.59,37.2,29.7Z"/><path class="cls-3" d="M49.55,53.09a7.74,7.74,0,0,0,5.66,2.59c3.25,0,5.8-3.35,5.8-6.79,0-4-3.25-5.56-5.52-6.32v-1c2.88-1.46,4.29-3.39,4.29-6.64,0-1.23.19-5.28-4.33-5.28-2.64,0-3.82,1.08-4.53,2.73v3.39H50l0-3.86a5.92,5.92,0,0,1,5.56-3.3c6.79,0,8.4,2.73,8.4,6a6.78,6.78,0,0,1-3.59,6,7.51,7.51,0,0,1,4.72,7.17c0,5.89-3.4,8.86-9.62,8.86a8.84,8.84,0,0,1-6.74-2.88Zm9.05,2.35,0,.1C62,54.6,64,52,64,48a8.08,8.08,0,0,0-5-7v-.19A7.22,7.22,0,0,0,62.9,34.7c0-2.45-.9-4.43-4.15-5.19l0,0c1.84,1.13,2.21,3.72,2.21,5.42a7.87,7.87,0,0,1-4.19,7c2.73,1,5.42,3,5.42,6.93A7.72,7.72,0,0,1,58.6,55.44Z"/></g></g></g></g></g></g></g></g></g></svg>