<?xml version="1.0" encoding="utf-8"?>
<!-- Generator: Adobe Illustrator 16.0.0, SVG Export Plug-In . SVG Version: 6.00 Build 0)  -->
<!DOCTYPE svg PUBLIC "-//W3C//DTD SVG 1.1//EN" "http://www.w3.org/Graphics/SVG/1.1/DTD/svg11.dtd">
<svg version="1.1" id="Layer_1" xmlns="http://www.w3.org/2000/svg" xmlns:xlink="http://www.w3.org/1999/xlink" x="0px" y="0px" viewBox="0 0 50 50" enable-background="new 0 0 50 50" xml:space="preserve">
<g>
	<path fill-rule="evenodd" clip-rule="evenodd" fill="none" stroke="#006dfe" stroke-width="2" stroke-miterlimit="10" d="
		M7.9,37.26c-1.496-0.992-2.991-1.983-4.488-2.974c-0.985-0.653-1.443-1.438-1.411-2.633c0.061-2.169,0.018-4.341,0.019-6.511
		c0-2.17,0.031-4.342-0.014-6.512c-0.021-1.083,0.41-1.813,1.294-2.401c6.789-4.506,13.572-9.022,20.336-13.563
		c1.056-0.708,1.979-0.756,3.052-0.035c1.832,1.23,3.666,2.458,5.502,3.686 M41.249,12.357c1.924,1.28,3.851,2.558,5.777,3.835
		c0.938,0.621,1.356,1.382,1.345,2.519c-0.039,4.341-0.039,8.682,0,13.023c0.012,1.137-0.413,1.895-1.351,2.514
		c-6.752,4.476-13.493,8.964-20.216,13.483c-1.105,0.744-2.052,0.793-3.176,0.036c-2.27-1.525-4.542-3.05-6.816-4.57 M27.189,7.771
		c0,3.093-0.025,5.838,0.031,8.582c0.007,0.388,0.324,0.9,0.656,1.129c2.375,1.646,4.781,3.249,7.204,4.825
		c0.305,0.199,0.889,0.36,1.132,0.206c2.17-1.378,4.292-2.832,6.564-4.354C37.525,14.66,32.489,11.303,27.189,7.771z M7.598,32.276
		c5.275,3.514,10.327,6.879,15.586,10.383c0-3.093,0.027-5.838-0.029-8.581c-0.008-0.387-0.328-0.897-0.658-1.126
		c-2.374-1.646-4.776-3.254-7.205-4.818c-0.321-0.207-0.963-0.297-1.252-0.114C11.927,29.349,9.866,30.763,7.598,32.276z
		 M42.768,32.28c-1.019-0.685-1.884-1.282-2.764-1.857c-1.368-0.895-2.751-2.483-4.113-2.469c-1.43,0.017-2.862,1.546-4.257,2.467
		c-1.482,0.979-3.49,1.724-4.229,3.119c-0.739,1.4-0.2,3.48-0.214,5.261c-0.01,1.207-0.002,2.413-0.002,3.868
		C32.536,39.104,37.575,35.743,42.768,32.28z M23.18,7.777c-5.337,3.559-10.374,6.917-15.568,10.38
		c2.247,1.51,4.341,2.953,6.49,4.31c0.274,0.173,0.917,0.019,1.251-0.197c2.386-1.542,4.746-3.126,7.089-4.734
		c0.316-0.217,0.7-0.632,0.707-0.961C23.205,13.747,23.18,10.917,23.18,7.777z M18.155,25.217c2.272,1.522,4.298,2.906,6.36,4.235
		c0.292,0.188,0.869,0.291,1.121,0.13c2.174-1.381,4.302-2.831,6.591-4.362c-2.307-1.543-4.409-2.972-6.545-4.349
		c-0.24-0.155-0.759-0.147-1.002,0.01C22.547,22.256,20.447,23.684,18.155,25.217z M10.983,25.214
		c-1.68-1.115-3.221-2.139-4.821-3.2c0,2.247,0,4.263,0,6.43C7.803,27.345,9.274,26.358,10.983,25.214z M39.417,25.224
		c1.69,1.132,3.205,2.149,4.817,3.228c0-2.253,0-4.27,0-6.467C42.572,23.102,41.082,24.104,39.417,25.224z"/>
</g>
</svg>
