<?xml version="1.0" encoding="utf-8"?>
<!-- Generator: Adobe Illustrator 25.2.1, SVG Export Plug-In . SVG Version: 6.00 Build 0)  -->
<svg version="1.1" id="Layer_1" xmlns="http://www.w3.org/2000/svg" xmlns:xlink="http://www.w3.org/1999/xlink" x="0px" y="0px"
	 viewBox="0 0 50 50" style="enable-background:new 0 0 50 50;" xml:space="preserve">
<style type="text/css">
	.st0{fill:#006DFE;}
</style>
<g>
	<path class="st0" d="M25.2,49.3c-0.7,0-1.4-0.2-2.1-0.7c-2.3-1.5-4.5-3-6.8-4.6l1.1-1.7c2.3,1.5,4.5,3,6.8,4.6
		c0.8,0.5,1.3,0.5,2.1,0c6.1-4.1,12.5-8.4,20.2-13.5c0.7-0.4,0.9-0.9,0.9-1.7c0-4.3,0-8.7,0-13c0-0.8-0.2-1.2-0.9-1.7
		c-1.9-1.3-3.9-2.6-5.8-3.8l1.1-1.7c1.9,1.3,3.8,2.6,5.8,3.8c1.2,0.8,1.8,1.9,1.8,3.4c0,4.3,0,8.7,0,13c0,1.5-0.6,2.5-1.8,3.4
		c-7.7,5.1-14.1,9.4-20.2,13.5C26.6,49.1,25.9,49.3,25.2,49.3z M26.2,44.5l0-3.2c0-0.9,0-1.7,0-2.5c0-0.5,0-1-0.1-1.6
		c-0.1-1.4-0.2-2.9,0.4-4.1c0.7-1.3,2-2,3.3-2.7c0.4-0.2,0.9-0.5,1.3-0.7c0.4-0.2,0.7-0.5,1.1-0.8c1.1-0.9,2.3-1.8,3.7-1.8
		c0,0,0,0,0,0c1.3,0,2.4,0.9,3.5,1.8c0.4,0.3,0.8,0.6,1.2,0.9c0.6,0.4,1.2,0.8,1.8,1.2l2.2,1.5L26.2,44.5z M35.9,29
		C35.9,29,35.9,29,35.9,29c-0.7,0-1.6,0.7-2.5,1.4c-0.4,0.3-0.8,0.6-1.2,0.9c-0.4,0.3-0.9,0.6-1.4,0.8c-1,0.6-2.1,1.2-2.5,1.9
		c-0.4,0.7-0.3,1.9-0.2,3c0,0.6,0.1,1.2,0.1,1.8c0,0.7,0,1.3,0,2L41,32.3c-0.5-0.4-1-0.7-1.5-1c-0.5-0.3-0.9-0.6-1.3-1
		C37.4,29.7,36.5,29,35.9,29z M24.2,44.5L5.8,32.3l2.9-1.9c1.7-1.1,3.2-2.2,4.8-3.2c0.7-0.4,1.7-0.3,2.3,0.1
		c2.4,1.5,4.8,3.2,7.2,4.8c0.5,0.4,1.1,1.1,1.1,1.9c0,2.1,0,4.1,0,6.3L24.2,44.5z M9.4,32.3l12.8,8.5l0-0.4c0-2.2,0-4.3,0-6.3
		c0-0.1-0.1-0.3-0.2-0.3c-2.4-1.6-4.8-3.3-7.2-4.8c0,0-0.2-0.1-0.3-0.1c-1.5,1-3.1,2-4.7,3.1L9.4,32.3z M14.6,28.9
		C14.6,28.9,14.6,28.9,14.6,28.9z M7.3,38.1l-4.5-3c-1.3-0.9-1.9-2-1.9-3.5c0-1.5,0-3.1,0-4.5c0-0.6,0-1.3,0-1.9l0-1.9
		c0-1.5,0-3.1,0-4.6c0-1.4,0.5-2.5,1.7-3.3c6.8-4.5,13.6-9,20.3-13.6c1.4-1,2.8-1,4.2,0c1.8,1.2,3.7,2.5,5.5,3.7l-1.1,1.7
		c-1.8-1.2-3.7-2.5-5.5-3.7c-0.7-0.5-1.2-0.5-1.9,0C17.4,8,10.6,12.6,3.9,17.1C3.2,17.5,3,17.9,3,18.6c0,1.5,0,3.1,0,4.7l0,1.9
		c0,0.6,0,1.3,0,1.9c0,1.5,0,3.1,0,4.6c0,0.8,0.2,1.3,1,1.8l4.5,3L7.3,38.1z M25.3,30.7c-0.5,0-1-0.2-1.3-0.4c-1.5-1-3.1-2-4.7-3.1
		l-2.9-2l2.9-1.9c1.7-1.1,3.3-2.2,4.9-3.2c0.6-0.4,1.5-0.4,2.1,0c1.6,1.1,3.3,2.1,5,3.3l2.8,1.9L31.4,27c-1.8,1.2-3.5,2.3-5.2,3.4
		C25.9,30.6,25.6,30.7,25.3,30.7z M25.1,28.7C25.1,28.7,25.1,28.7,25.1,28.7C25.1,28.7,25.1,28.7,25.1,28.7z M19.9,25.2l0.4,0.3
		c1.6,1.1,3.1,2.1,4.7,3.1c0,0,0.1,0,0.2,0c1.7-1.1,3.3-2.2,5-3.3l0.2-0.1L30.1,25c-1.7-1.1-3.3-2.2-4.9-3.2c0,0-0.1,0-0.1,0
		c-1.5,1-3.1,2.1-4.8,3.2L19.9,25.2z M25.2,21.8L25.2,21.8L25.2,21.8z M25.1,21.7C25.1,21.7,25.1,21.7,25.1,21.7
		C25.1,21.7,25.1,21.7,25.1,21.7z M45.2,30.3l-7.6-5.1l7.6-5.1V30.3z M41.2,25.2l2,1.4v-2.7L41.2,25.2z M5.2,30.3V20.2l7.6,5.1
		L5.2,30.3z M7.2,23.9v2.7l2-1.4L7.2,23.9z M35.9,23.6c-0.5,0-1.1-0.2-1.4-0.4c-2.7-1.7-5-3.3-7.2-4.8c-0.5-0.4-1.1-1.1-1.1-1.9
		c0-2.1,0-4.2,0-6.4l0-4.1l18.4,12.3L41.8,20c-1.7,1.2-3.3,2.2-5,3.3C36.5,23.5,36.2,23.6,35.9,23.6z M28.2,9.6V10
		c0,2.2,0,4.3,0,6.4c0,0.1,0.1,0.3,0.2,0.3c2.2,1.5,4.5,3.1,7.2,4.8c0.1,0,0.1,0.1,0.2,0.1c1.6-1,3.1-2.1,4.8-3.2l0.3-0.2L28.2,9.6z
		 M14.4,23.5c-0.3,0-0.6-0.1-0.9-0.2c-1.7-1.1-3.3-2.1-5-3.3l-2.8-1.9L24.2,5.9l0,4.1c0,2.3,0,4.5,0,6.6c0,0.9-1,1.6-1.1,1.8
		c-2.6,1.8-4.9,3.3-7.1,4.8C15.6,23.3,15,23.5,14.4,23.5z M9.4,18.2l0.3,0.2c1.7,1.1,3.2,2.2,4.8,3.2c0.1,0,0.2-0.1,0.3-0.1
		c2.2-1.4,4.5-3,7.1-4.7c0.1-0.1,0.2-0.2,0.3-0.3c0-2.1,0-4.2,0-6.5l0-0.3L9.4,18.2z"/>
</g>
</svg>
