<?xml version="1.0" encoding="utf-8"?>
<!-- Generator: Adobe Illustrator 16.0.0, SVG Export Plug-In . SVG Version: 6.00 Build 0)  -->
<!DOCTYPE svg PUBLIC "-//W3C//DTD SVG 1.1//EN" "http://www.w3.org/Graphics/SVG/1.1/DTD/svg11.dtd">
<svg version="1.1" id="Layer_1" xmlns="http://www.w3.org/2000/svg" xmlns:xlink="http://www.w3.org/1999/xlink" x="0px" y="0px" viewBox="0 0 50 50" enable-background="new 0 0 50 50" xml:space="preserve">
<g>
	<path fill="none" stroke="#006dfe" stroke-width="2" stroke-miterlimit="10" d="M5.333,37.419
		c-0.175-0.274-0.345-0.555-0.511-0.838C2.753,33.033,1.72,29.159,1.72,24.962c0-4.196,1.034-8.068,3.102-11.617
		c2.067-3.549,4.876-6.356,8.424-8.423c3.547-2.068,7.419-3.102,11.617-3.102c3.87,0,7.462,0.877,10.78,2.636
		c0.281,0.149,0.56,0.305,0.838,0.466 M44.509,12.688c0.135,0.216,0.267,0.436,0.396,0.657c2.068,3.549,3.102,7.421,3.102,11.617
		c0,4.197-1.033,8.071-3.102,11.619c-2.068,3.549-4.877,6.356-8.424,8.424c-3.55,2.068-7.422,3.101-11.618,3.101
		c-3.732,0-7.207-0.816-10.425-2.451c-0.402-0.203-0.799-0.419-1.192-0.649 M5.607,24.038c0,0.123-0.006,0.277-0.023,0.463
		c-0.015,0.186-0.024,0.338-0.024,0.462c0,4.814,1.622,9.057,4.861,12.73c1.482-2.901,3.827-5.663,7.037-8.287
		c3.208-2.622,6.341-4.272,9.396-4.951c-0.463-1.08-0.911-2.052-1.343-2.917c-4.539,1.452-9.392,2.283-14.562,2.493 M6.164,20.196
		c0.68,0.061,1.681,0.093,3.009,0.093c5.153,0,10.043-0.694,14.672-2.083c-2.345-4.166-4.922-7.638-7.729-10.415
		c-2.438,1.234-4.527,2.947-6.272,5.138C8.099,15.12,6.873,17.542,6.164,20.196z M13.061,40.191
		c3.486,2.715,7.42,4.073,11.803,4.073c2.282,0,4.552-0.433,6.803-1.297c-0.617-5.275-1.819-10.383-3.609-15.32
		c-2.839,0.618-5.701,2.176-8.586,4.676C16.585,34.822,14.449,37.445,13.061,40.191z M20.142,6.31
		c2.716,2.808,5.23,6.31,7.544,10.506c4.197-1.759,7.36-3.996,9.489-6.711c-3.578-2.962-7.684-4.444-12.312-4.444
		C23.289,5.662,21.716,5.877,20.142,6.31z M29.353,20.103c0.464,0.988,0.988,2.237,1.575,3.749c2.283-0.216,4.767-0.324,7.451-0.324
		c1.912,0,3.811,0.046,5.692,0.139c-0.246-4.196-1.758-7.931-4.535-11.201C37.531,15.459,34.136,18.004,29.353,20.103z
		 M32.083,27.094c1.574,4.565,2.64,9.255,3.194,14.069c2.438-1.573,4.428-3.597,5.972-6.063c1.542-2.469,2.469-5.137,2.777-8.006
		c-2.253-0.155-4.304-0.232-6.157-0.232C36.173,26.861,34.243,26.938,32.083,27.094z"/>
</g>
</svg>
