<?xml version="1.0" encoding="utf-8"?>
<!-- Generator: Adobe Illustrator 25.2.1, SVG Export Plug-In . SVG Version: 6.00 Build 0)  -->
<svg version="1.1" id="Layer_1" xmlns="http://www.w3.org/2000/svg" xmlns:xlink="http://www.w3.org/1999/xlink" x="0px" y="0px"
	 viewBox="0 0 50 50" style="enable-background:new 0 0 50 50;" xml:space="preserve">
<style type="text/css">
	.st0{fill:#006DFE;}
</style>
<g>
	<path class="st0" d="M24.9,49.1c-3.9,0-7.5-0.9-10.9-2.6c-0.4-0.2-0.8-0.4-1.2-0.7l1-1.7c0.4,0.2,0.8,0.4,1.1,0.6
		c3.1,1.6,6.4,2.3,10,2.3c4,0,7.7-1,11.1-3c3.4-2,6.1-4.7,8.1-8.1c2-3.4,3-7.1,3-11.1c0-4-1-7.7-3-11.1c-0.1-0.2-0.3-0.4-0.4-0.6
		l1.7-1.1c0.1,0.2,0.3,0.5,0.4,0.7C47.9,16.5,49,20.6,49,25c0,4.4-1.1,8.4-3.2,12.1c-2.1,3.7-5.1,6.6-8.8,8.8
		C33.3,48,29.2,49.1,24.9,49.1z M24.9,45.3c-4.6,0-8.8-1.4-12.4-4.3l-0.6-0.5l0.4-0.7c1.4-2.9,3.7-5.6,6.6-8.2c3-2.6,6-4.2,9-4.9
		l0.9-0.2l0.3,0.8c1.8,5,3,10.2,3.7,15.5l0.1,0.8L32,43.9C29.7,44.8,27.3,45.3,24.9,45.3z M14.3,39.9c3.1,2.2,6.7,3.4,10.5,3.4
		c1.9,0,3.8-0.3,5.7-1c-0.6-4.6-1.7-9.1-3.2-13.5c-2.4,0.7-4.8,2.1-7.3,4.2C17.6,35.3,15.7,37.5,14.3,39.9z M34.5,42.9l-0.2-1.6
		c-0.5-4.7-1.6-9.4-3.1-13.9l-0.4-1.2l1.3-0.1c2.2-0.2,4.2-0.2,5.9-0.2c1.9,0,4,0.1,6.2,0.2l1,0.1l-0.1,1c-0.3,3-1.3,5.8-2.9,8.4
		c-1.6,2.6-3.7,4.7-6.3,6.4L34.5,42.9z M33.4,28c1.2,3.7,2.1,7.5,2.6,11.4c1.7-1.3,3.2-2.9,4.3-4.8c1.3-2,2.1-4.2,2.5-6.5
		c-1.8-0.1-3.5-0.2-5-0.2C36.6,27.9,35.1,27.9,33.4,28z M10.6,39.5l-1-1.1C6.3,34.5,4.6,30,4.6,25c0-0.1,0-0.3,0-0.5
		c0-0.2,0-0.3,0-0.4h2c0,0.1,0,0.3,0,0.6c0,0.1,0,0.3,0,0.4c0,4.1,1.2,7.7,3.7,11c1.5-2.5,3.7-5,6.6-7.3c2.9-2.4,5.8-4,8.6-4.8
		c-0.2-0.4-0.3-0.7-0.5-1c-4.4,1.3-9.1,2.1-14,2.3l-0.1-2c5.1-0.2,9.9-1,14.3-2.4l0.8-0.3l0.4,0.8c0.4,0.9,0.9,1.9,1.4,3l0.5,1.1
		l-1.2,0.3c-2.9,0.6-5.9,2.2-9,4.7c-3.1,2.5-5.4,5.2-6.8,8L10.6,39.5z M4.5,38c-0.2-0.3-0.4-0.6-0.5-0.9C1.8,33.4,0.7,29.3,0.7,25
		c0-4.4,1.1-8.4,3.2-12.1c2.1-3.7,5.1-6.6,8.8-8.8c3.7-2.1,7.8-3.2,12.1-3.2c4,0,7.8,0.9,11.2,2.8c0.3,0.2,0.6,0.3,0.9,0.5l-1,1.7
		c-0.3-0.2-0.5-0.3-0.8-0.4C32,3.7,28.6,2.8,24.9,2.8c-4,0-7.7,1-11.1,3c-3.4,2-6.1,4.7-8.1,8.1c-2,3.4-3,7.1-3,11.1
		c0,4,1,7.7,3,11.1c0.2,0.3,0.3,0.5,0.5,0.8L4.5,38z M30.3,24.9L30,24.2c-0.6-1.5-1.1-2.7-1.5-3.7L28,19.6l0.9-0.4
		c4.6-2,7.9-4.5,9.8-7.3l0.7-1.1l0.9,1c2.9,3.4,4.5,7.4,4.8,11.8l0.1,1.1L44,24.7c-1.9-0.1-3.8-0.1-5.6-0.1c-2.6,0-5.1,0.1-7.4,0.3
		L30.3,24.9z M30.7,20.6c0.3,0.6,0.6,1.4,0.9,2.2c3.4-0.3,7.5-0.3,11.4-0.2c-0.4-3.1-1.5-6-3.4-8.5C37.6,16.6,34.6,18.8,30.7,20.6z
		 M9.2,21.3c-1.3,0-2.4,0-3.1-0.1l-1.2-0.1l0.3-1.1c0.7-2.8,2-5.3,3.9-7.6c1.8-2.3,4-4.1,6.6-5.4l0.6-0.3l0.5,0.5
		c2.9,2.8,5.5,6.4,7.9,10.6l0.6,1.1l-1.2,0.4C19.4,20.6,14.4,21.3,9.2,21.3z M7.5,19.3c0.5,0,1,0,1.7,0c4.6,0,9-0.6,13.2-1.7
		c-2-3.3-4.1-6.2-6.4-8.6c-2,1.1-3.8,2.7-5.3,4.5C9.2,15.3,8.2,17.2,7.5,19.3z M27.2,18.1l-0.4-0.8c-2.3-4.1-4.7-7.6-7.4-10.3
		l-1.2-1.2l1.6-0.4c1.6-0.5,3.3-0.7,5-0.7c4.8,0,9.2,1.6,13,4.7l0.8,0.6L38,10.7c-2.2,2.8-5.6,5.2-9.9,7L27.2,18.1z M22.1,6.9
		c2.1,2.4,4.2,5.3,6.1,8.6c3.2-1.5,5.8-3.2,7.6-5.3c-3.2-2.4-6.9-3.6-10.9-3.6C23.9,6.7,23,6.7,22.1,6.9z"/>
</g>
</svg>
