<?xml version="1.0" encoding="utf-8"?>
<!-- Generator: Adobe Illustrator 16.0.0, SVG Export Plug-In . SVG Version: 6.00 Build 0)  -->
<!DOCTYPE svg PUBLIC "-//W3C//DTD SVG 1.1//EN" "http://www.w3.org/Graphics/SVG/1.1/DTD/svg11.dtd">
<svg version="1.1" id="Layer_1" xmlns="http://www.w3.org/2000/svg" xmlns:xlink="http://www.w3.org/1999/xlink" x="0px" y="0px" viewBox="0 0 50 50" enable-background="new 0 0 50 50" xml:space="preserve">
<g>
	<path fill-rule="evenodd" clip-rule="evenodd" fill="none" stroke="#006dfe" stroke-width="2" stroke-miterlimit="10" d="
		M21.205,47.744c-0.796,0-1.594,0-2.399,0c0-7.628,0-15.246,0-22.961c-1.625,0-3.175,0-4.796,0c0-2.655,0-5.212,0-7.851
		c1.559,0,3.112,0,4.772,0c0-0.912-0.002-1.744,0-2.575c0.007-1.537-0.032-3.077,0.034-4.611c0.18-4.199,2.49-7.009,6.65-7.548
		c3.143-0.407,6.351-0.319,9.64-0.455c0,2.831,0,5.401,0,8.128c-0.502,0-0.979-0.005-1.459,0c-1.332,0.017-2.669-0.011-3.998,0.07
		c-1.109,0.068-1.571,0.548-1.604,1.659c-0.048,1.735-0.013,3.473-0.013,5.307c2.368,0,4.702,0,7.098,0
		c-0.231,2.603-0.453,5.103-0.684,7.706c-2.146,0-4.245,0-6.422,0c0,7.755,0,15.402,0,23.131"/>
</g>
</svg>
