<?xml version="1.0" encoding="utf-8"?>
<!-- Generator: Adobe Illustrator 25.2.1, SVG Export Plug-In . SVG Version: 6.00 Build 0)  -->
<svg version="1.1" id="Layer_1" xmlns="http://www.w3.org/2000/svg" xmlns:xlink="http://www.w3.org/1999/xlink" x="0px" y="0px"
	 viewBox="0 0 50 50" style="enable-background:new 0 0 50 50;" xml:space="preserve">
<style type="text/css">
	.st0{fill:#006DFE;}
</style>
<g>
	<path class="st0" d="M21.2,48.7h-3.4v-23H13v-9.9h4.8l0-1.6c0-0.5,0-0.9,0-1.4c0-1.1,0-2.2,0-3.3c0.2-4.8,2.9-7.9,7.5-8.5
		c2.2-0.3,4.5-0.3,6.7-0.4c1,0,2,0,3-0.1l1,0v10.2l-1.5,0c-0.3,0-0.6,0-0.9,0c-0.4,0-0.8,0-1.2,0c-0.9,0-1.9,0-2.8,0.1
		c-0.6,0-0.6,0.1-0.7,0.7c0,1.2,0,2.4,0,3.6l0,0.6h7.2l-0.9,9.7H29v22.1h-2V23.6h6.5l0.5-5.7h-7l0-2.6c0-1.3,0-2.5,0-3.7
		c0-1.6,0.9-2.5,2.5-2.6c1-0.1,1.9-0.1,2.9-0.1c0.4,0,0.8,0,1.2,0c0.2,0,0.3,0,0.5,0V2.8c-0.7,0-1.3,0-2,0c-2.3,0-4.4,0.1-6.5,0.4
		C22,3.7,20,6,19.8,9.8c0,1,0,2.1,0,3.2c0,0.5,0,0.9,0,1.4l0,1.7l0,1.9H15v5.9h4.8v23h1.4V48.7z"/>
</g>
</svg>
