<?xml version="1.0" encoding="utf-8"?>
<!-- Generator: Adobe Illustrator 16.0.0, SVG Export Plug-In . SVG Version: 6.00 Build 0)  -->
<!DOCTYPE svg PUBLIC "-//W3C//DTD SVG 1.1//EN" "http://www.w3.org/Graphics/SVG/1.1/DTD/svg11.dtd">
<svg version="1.1" id="Layer_1" xmlns="http://www.w3.org/2000/svg" xmlns:xlink="http://www.w3.org/1999/xlink" x="0px" y="0px" viewBox="0 0 50 50" enable-background="new 0 0 50 50" xml:space="preserve">
<g>
	<path fill="none" stroke="#006dfe" stroke-width="2" stroke-miterlimit="10" d="M21.017,34.147c-0.371,0.549-0.8,1.037-1.057,1.603
		c-0.332,0.732-0.518,1.53-0.783,2.292c-0.056,0.158-0.155,0.366-0.289,0.423c-1.475,0.624-3.008,0.914-4.604,0.631
		c-1.952-0.348-3.331-1.514-4.341-3.161c-0.651-1.062-1.451-1.978-2.522-2.63c-0.919-0.558-1.901-0.903-2.998-0.79
		c-0.187,0.021-0.378,0.058-0.553,0.125c-0.45,0.17-0.55,0.468-0.234,0.839c0.266,0.31,0.576,0.61,0.923,0.82
		c1.708,1.029,2.785,2.574,3.514,4.363c1.139,2.795,3.327,4.062,6.178,4.438c1.492,0.196,2.964,0.024,4.431-0.244
		c0.098-0.017,0.197-0.027,0.375-0.05c0,0.896-0.002,1.758,0,2.616c0.003,0.984,0.013,1.97,0.015,2.955
		c1.383,0,5.507,0.021,9.207,0.04 M34.951,48.458c0,0,0.019-5.53,0.031-8.347c0.008-1.396-0.141-2.77-0.767-4.032
		c-0.339-0.685-0.805-1.306-1.176-1.896c1.425-0.301,2.938-0.546,4.41-0.944c2.978-0.804,5.55-2.276,7.371-4.856
		c1.484-2.101,2.176-4.488,2.455-7.008c0.194-1.772,0.263-3.548-0.062-5.319c-0.398-2.176-1.335-4.091-2.788-5.752
		c-0.209-0.238-0.247-0.428-0.147-0.732c0.854-2.609,0.589-5.179-0.36-7.704c-0.061-0.162-0.349-0.325-0.541-0.337
		c-1.178-0.077-2.324,0.176-3.373,0.665c-1.56,0.726-3.057,1.589-4.593,2.37c-0.232,0.118-0.553,0.206-0.793,0.146
		c-5.08-1.257-10.152-1.257-15.23,0.005c-0.228,0.056-0.546-0.007-0.747-0.134c-1.981-1.246-4.005-2.386-6.318-2.906
		c-1.972-0.441-2.201-0.304-2.693,1.628c-0.543,2.14-0.565,4.267,0.126,6.385c0.049,0.153-0.009,0.411-0.116,0.535
		c-2.257,2.599-3.18,5.634-3.046,9.043c0.076,1.925,0.3,3.821,0.896,5.658c1.038,3.208,2.974,5.494,5.659,6.97
		c0.896,0.493,1.875,0.895,2.931,1.21"/>
</g>
</svg>
