<?xml version="1.0" encoding="utf-8"?>
<!-- Generator: Adobe Illustrator 25.2.1, SVG Export Plug-In . SVG Version: 6.00 Build 0)  -->
<svg version="1.1" id="Layer_1" xmlns="http://www.w3.org/2000/svg" xmlns:xlink="http://www.w3.org/1999/xlink" x="0px" y="0px"
	 viewBox="0 0 50 50" style="enable-background:new 0 0 50 50;" xml:space="preserve">
<style type="text/css">
	.st0{fill:#006DFE;}
</style>
<path class="st0" d="M20.1,49c-3.2,0-6.3,0-9.5,0c-4.4,0-8.5-3.2-9.3-7.3c-0.1-0.4-0.1-0.8-0.1-1.2c0-6.3,0-12.7,0-19v-1
	c0-0.2,0-0.4,0-0.6l0.1-1.2h14.5L15.3,20c-2.6,7.2-1,12.4,5,15.9c4,2.3,9.2,1.8,12.9-1.4c4.1-3.5,5-8.1,2.9-14.5l-0.4-1.3h12.8
	l0.1,1.2c0,0.3,0,0.5,0,0.8l0,4.8c0,4.8,0,9.9,0,14.8c0,1.5-0.4,3.2-1.1,4.6C46.3,47.5,44,49,41,49c-2.9,0-5.8,0-8.7,0l0-2
	c2.9,0,5.8,0,8.7,0c2.2,0,3.9-1,4.8-2.9c0.5-1.2,0.9-2.5,0.9-3.8c0.1-4.9,0.1-9.9,0-14.8l0-4.8c0,0,0,0,0,0h-8.2
	c1.8,6.6,0.6,11.6-3.9,15.4c-4.4,3.7-10.5,4.3-15.2,1.5c-6.4-3.8-8.6-9.6-6.4-17H3.2v0.8c0,6.3,0,12.7,0,19c0,0.3,0,0.6,0.1,0.8
	c0.6,3.2,3.8,5.7,7.3,5.7c3.2,0,6.3,0,9.5,0L20.1,49z"/>
<path class="st0" d="M40.9,17.7c-1.7,0-3.5,0-5.2,0c-0.8,0-1.6-0.3-2.2-0.8c-4.6-3.9-11-3.9-15.6,0.1c-0.3,0.2-1,0.8-1.8,0.8
	c-3.8,0-7.5,0-11.3,0l-2.1,0c-0.1,0-0.3,0-0.5-0.1l-1.1-0.2v-0.9c0-0.6,0-1.2,0-1.7c0-1.2,0.1-2.5,0-3.6C0.8,5.5,5.7,2.2,9.3,1.7
	c0.7-0.1,1.4-0.1,2-0.1c2.9,0,5.9,0,8.8,0l0,2c-3.1,0-6.3,0-9.4,0c-0.4,0-0.7,0-1.1,0.1c-2.9,0.4-6.8,3-6.4,7.5
	c0.1,1.3,0.1,2.6,0.1,3.8c0,0.3,0,0.5,0,0.8l1.7,0c3.8,0,7.5,0,11.3,0c0.1,0,0.3-0.1,0.5-0.3c5.3-4.6,12.8-4.7,18.2-0.1
	c0.2,0.2,0.6,0.3,0.9,0.3c2.5,0,5.1,0,7.5,0l3.3,0c0-0.5,0-1,0-1.5c0-1.8,0.1-3.5-0.1-5.2c-0.3-3.3-2.7-5.4-6.1-5.4c0,0-0.1,0-0.1,0
	c-2.7,0-5.4,0.1-8.1,0.1l0-2c2.7,0,5.4,0,8.1-0.1c4.5-0.1,7.8,2.8,8.2,7.2c0.2,1.8,0.1,3.6,0.1,5.5c0,0.8,0,1.6,0,2.5v1l-5.3,0
	C42.5,17.7,41.7,17.7,40.9,17.7z M39.3,15c-1,0-1.9,0-2.9,0c-1.4,0-2.3-1-2.3-2.5c0-0.6,0-1.3,0-1.9l0-0.9l0-2.9
	c0-1.4,0.9-2.4,2.3-2.4c1.9,0,3.9,0,5.8,0c1.4,0,2.3,0.9,2.3,2.3c0,2.1,0,4.2,0,5.9c0,1.3-1,2.3-2.3,2.3C41.3,15,40.3,15,39.3,15z
	 M36.2,9.7l0,0.9c0,0.6,0,1.3,0,1.9c0,0.4,0.1,0.4,0.3,0.4c1.9,0,3.9,0,5.9,0c0.3,0,0.3-0.1,0.3-0.3c0-1.7,0-3.8,0-5.9
	c0-0.2,0-0.3-0.4-0.3c-1.9,0-3.9,0-5.8,0c-0.3,0-0.3,0-0.4,0.4L36.2,9.7z"/>
<path class="st0" d="M25.8,36.1c-1.8,0-3.5-0.5-5-1.3l1-1.8c1.3,0.7,2.7,1.1,4.1,1.1c4.7,0,8.4-3.8,8.4-8.6c0-4.7-3.8-8.4-8.5-8.5
	c0,0,0,0,0,0c-2.3,0-4.4,0.9-6,2.5c-1.6,1.6-2.5,3.8-2.5,6c0,0.8,0.1,1.6,0.3,2.4l-1.9,0.6c-0.3-1-0.4-1.9-0.4-2.9
	c0-2.8,1.1-5.5,3.1-7.4c2-2,4.6-3.1,7.4-3.1c0,0,0,0,0,0c5.8,0,10.5,4.7,10.5,10.4C36.3,31.4,31.7,36.1,25.8,36.1
	C25.8,36.1,25.8,36.1,25.8,36.1z"/>
</svg>
