<?xml version="1.0" encoding="utf-8"?>
<!-- Generator: Adobe Illustrator 16.0.0, SVG Export Plug-In . SVG Version: 6.00 Build 0)  -->
<!DOCTYPE svg PUBLIC "-//W3C//DTD SVG 1.1//EN" "http://www.w3.org/Graphics/SVG/1.1/DTD/svg11.dtd">
<svg version="1.1" id="Layer_1" xmlns="http://www.w3.org/2000/svg" xmlns:xlink="http://www.w3.org/1999/xlink" x="0px" y="0px" viewBox="0 0 50 50" enable-background="new 0 0 50 50" xml:space="preserve">
<path fill-rule="evenodd" clip-rule="evenodd" fill="none" stroke="#006dfe" stroke-width="2" stroke-miterlimit="10" d="M20.12,48
	c-3.153-0.003-6.306-0.007-9.459-0.015c-3.985-0.008-7.625-2.898-8.318-6.515c-0.064-0.338-0.099-0.687-0.099-1.029
	C2.237,33.765,2.239,27.089,2.24,20.414c0-0.235,0.021-0.471,0.037-0.788c4.11,0,8.086,0,12.12,0
	c-2.639,7.157-1.316,13.127,5.477,17.131c4.431,2.612,10.135,1.853,14.067-1.454c4.448-3.74,5.482-8.732,3.192-15.622
	c3.482,0,6.94,0,10.47,0c0.017,0.348,0.046,0.683,0.046,1.019c0.004,6.538,0.058,13.076-0.041,19.611
	c-0.022,1.406-0.379,2.904-0.972,4.179c-1.078,2.323-3.102,3.489-5.675,3.496c-2.913,0.006-5.826,0.011-8.739,0.013"/>
<path fill-rule="evenodd" clip-rule="evenodd" fill="none" stroke="#006dfe" stroke-width="2" stroke-miterlimit="10" d="
	M32.225,2.602c2.692-0.009,5.384-0.027,8.075-0.061c4.17-0.053,6.879,2.596,7.236,6.31c0.247,2.56,0.048,5.161,0.048,7.873
	c-0.655,0-1.269,0-1.88,0c-3.319,0-6.642,0.025-9.96-0.028c-0.525-0.008-1.151-0.243-1.549-0.584
	c-4.983-4.285-11.893-4.269-16.866,0.058c-0.311,0.271-0.766,0.527-1.156,0.53c-4.461,0.035-8.924,0.02-13.385,0.015
	c-0.136,0-0.27-0.038-0.55-0.08c0-1.813,0.124-3.644-0.024-5.452C1.808,6.188,6.077,3.156,9.486,2.646
	c0.409-0.06,0.828-0.062,1.241-0.062c3.13-0.001,6.262,0.006,9.392,0.014 M35.162,9.689c0,0.934,0.01,1.868-0.002,2.801
	c-0.012,0.887,0.444,1.419,1.289,1.441c1.968,0.051,3.94,0.047,5.91-0.003c0.781-0.02,1.299-0.514,1.31-1.335
	c0.024-1.971,0.035-3.942-0.009-5.912c-0.017-0.804-0.527-1.267-1.348-1.274c-1.938-0.016-3.874-0.025-5.81,0
	c-0.863,0.011-1.335,0.491-1.338,1.377C35.161,7.753,35.165,8.722,35.162,9.689z"/>
<path fill-rule="evenodd" clip-rule="evenodd" fill="none" stroke="#006dfe" stroke-width="2" stroke-miterlimit="10" d="
	M16.665,28.248c-0.246-0.842-0.38-1.732-0.382-2.652c-0.016-5.268,4.246-9.536,9.516-9.533c5.246,0.004,9.461,4.209,9.467,9.449
	c0.009,5.329-4.165,9.575-9.436,9.603c-1.667,0.008-3.238-0.42-4.607-1.178"/>
</svg>
