<?xml version="1.0" encoding="utf-8"?>
<!-- Generator: Adobe Illustrator 25.2.1, SVG Export Plug-In . SVG Version: 6.00 Build 0)  -->
<svg version="1.1" id="Layer_1" xmlns="http://www.w3.org/2000/svg" xmlns:xlink="http://www.w3.org/1999/xlink" x="0px" y="0px"
	 viewBox="0 0 48.6 44.5" style="enable-background:new 0 0 48.6 44.5;" xml:space="preserve">
<style type="text/css">
	.st0{fill:#006DFE;}
	.st1{fill:none;}
</style>
<g>
	<g>
		<g>
			<g>
				<g>
					<path class="st0" d="M11.3,44.5H1.8c-0.6,0-1-0.4-1-1V14.9c0-0.6,0.4-1,1-1h9.5c0.6,0,1,0.4,1,1v22.3c0,0.6-0.4,1-1,1
						s-1-0.4-1-1V15.9H2.8v26.6h8.5c0.6,0,1,0.4,1,1S11.9,44.5,11.3,44.5z"/>
				</g>
			</g>
		</g>
	</g>
	<g>
		<g>
			<g>
				<g>
					<path class="st0" d="M47.6,44.5h-9.5c-0.6,0-1-0.4-1-1s0.4-1,1-1h8.5V27.3c0-11.4-8.3-12.3-10.9-12.3c-3.6,0-5.9,1.2-8.5,4.5
						c-0.3,0.3-0.7,0.5-1.1,0.3c-0.4-0.1-0.7-0.5-0.7-0.9v-2.9H18v26.6h7.6V28c0-3.7,2-7.5,6.5-7.5c1.9,0,3.7,0.8,5,2.2
						c1.3,1.4,2,3.2,2,5.1l0,0.1l0,9.3c0,0.6-0.4,1-1,1s-1-0.4-1-1l0-9.5c0-1.4-0.5-2.7-1.4-3.7c-0.9-1-2.2-1.6-3.6-1.6
						c-3.3,0-4.4,2.8-4.4,5.5v15.5c0,0.6-0.4,1-1,1H17c-0.6,0-1-0.4-1-1V14.9c0-0.6,0.4-1,1-1h9.5c0.6,0,1,0.4,1,1v1.3
						c2.1-2,4.5-3.2,8.2-3.2c6.2,0,12.9,3.8,12.9,14.3v16.2C48.6,44.1,48.2,44.5,47.6,44.5z"/>
				</g>
			</g>
		</g>
	</g>
	<g>
		<g>
			<g>
				<g>
					<path class="st0" d="M8.6,11.7c-0.4,0-0.8-0.3-1-0.7c-0.2-0.5,0.1-1.1,0.7-1.2c1.7-0.5,2.8-2,2.9-3.8C11.1,3.7,9,1.9,6.7,2
						c0,0-0.1,0-0.1,0C4.2,1.9,2.1,3.7,2,6.1c0,1.6,1.1,3.1,2.7,3.6c0.5,0.2,0.8,0.8,0.6,1.3c-0.2,0.5-0.8,0.8-1.3,0.6
						c-2.4-0.8-4-3-4-5.5c0.2-3.5,3.1-6.2,6.6-6C10-0.1,13,2.5,13.2,6c-0.1,2.7-1.8,5-4.3,5.7C8.8,11.7,8.7,11.7,8.6,11.7z"/>
				</g>
			</g>
		</g>
	</g>
	<g>
		<g>
			<g>
				<g>
					<g>
						<path class="st1" d="M8.4,10.8"/>
					</g>
				</g>
			</g>
		</g>
	</g>
	<g>
		<g>
			<g>
				<g>
					<g>
						<path class="st1" d="M8.4,10.8"/>
					</g>
				</g>
			</g>
		</g>
	</g>
	<g>
		<g>
			<g>
				<g>
					<g>
						<path class="st1" d="M8.4,10.8"/>
					</g>
				</g>
			</g>
		</g>
	</g>
	<g>
		<g>
			<g>
				<g>
					<g>
						<path class="st1" d="M8.4,10.8"/>
					</g>
				</g>
			</g>
		</g>
	</g>
</g>
</svg>
