<?xml version="1.0" encoding="utf-8"?>
<!-- Generator: Adobe Illustrator 25.2.1, SVG Export Plug-In . SVG Version: 6.00 Build 0)  -->
<svg version="1.1" id="Layer_1" xmlns="http://www.w3.org/2000/svg" xmlns:xlink="http://www.w3.org/1999/xlink" x="0px" y="0px"
	 viewBox="0 0 50 50" style="enable-background:new 0 0 50 50;" xml:space="preserve">
<style type="text/css">
	.st0{fill:#006DFE;}
</style>
<g>
	<path class="st0" d="M18.4,43.8c-0.5,0-1.1,0-1.6,0c-4.3-0.3-8.3-1.6-11.9-3.9l-0.1-0.1l-2.4-2.1L5.4,38c2.2,0.2,4.2,0.1,6.2-0.5
		c1.3-0.4,2.4-0.8,3.5-1.5c-1.6-0.5-3-1.4-4.1-2.6c-0.9-0.9-1.9-2.6-2.1-3.7l-0.2-1.4l0.7,0.1C8.9,28,8.5,27.6,8,27
		c-1.4-1.7-2.1-3.8-2.1-6.1l0-1.7l1.5,0.8c0,0,0.1,0,0.1,0.1c-0.9-1.3-1.4-2.9-1.5-4.6c-0.1-1.9,0.3-3.7,1.3-5.3l1.7,1
		c-0.8,1.3-1.1,2.7-1,4.2c0.2,2.4,1.3,4.3,3.3,5.8l2.7,1.9L10.7,23c-0.9,0-1.8-0.2-2.6-0.5c0.2,1.2,0.7,2.3,1.5,3.2
		c1.1,1.4,2.5,2.2,4.3,2.7l3.9,0.9l-3.8,1c-0.8,0.2-1.6,0.3-2.4,0.3c0.3,0.5,0.6,1,1,1.4c1.4,1.5,3.2,2.3,5.4,2.4l2.7,0.1l-2.2,1.7
		c-1.9,1.5-4,2.5-6.3,3.2c-0.9,0.3-1.9,0.4-2.9,0.6c2.4,1,4.9,1.6,7.6,1.8c2.1,0.1,4.1,0,6.2-0.4c3.7-0.7,7-2.2,9.8-4.5
		c3.4-2.8,5.9-6.3,7.4-10.7c1-2.8,1.4-5.7,1.3-8.5c0-0.3,0.1-0.7,0.5-1.1c0.6-0.5,1.2-0.9,1.7-1.5c-0.5,0.1-1.1,0.2-1.7,0.3
		l-4.1,0.4l3.5-2.2c0.7-0.5,1.3-1,1.8-1.6c-0.8,0.3-1.7,0.6-2.6,0.8c-0.5,0.1-1,0-1.4-0.4c-2.7-2.7-7-3-10-0.6
		c-2.1,1.7-3,3.8-2.8,6.5c0,0.2,0.1,0.5,0.1,0.7l0.2,1.6l-1.2-0.1c-5-0.3-9.4-1.9-13.2-4.6l1.2-1.6c3.2,2.3,6.9,3.7,11,4.1
		c0,0,0,0,0,0c-0.2-3.4,1-6.1,3.5-8.2c3.7-3,9-2.8,12.5,0.5c1.6-0.4,3.1-1,4.4-1.8l0.3-0.1l0.3-0.1l1.3,0.4l-0.3,0.9
		c-0.3,0.9-0.7,1.7-1.3,2.5c0.1,0,0.3-0.1,0.4-0.1l3.4-1.1l-1.6,2.5c-1.1,1.6-2.4,3-3.9,4.1c0.1,3-0.4,5.9-1.4,8.8
		c-1.6,4.7-4.3,8.5-8,11.5c-3.1,2.5-6.7,4.2-10.7,4.9C21.8,43.6,20.1,43.8,18.4,43.8z M43.5,17.6C43.5,17.6,43.5,17.6,43.5,17.6
		C43.5,17.6,43.5,17.6,43.5,17.6z M40.2,10.8L40.2,10.8L40.2,10.8z"/>
</g>
</svg>
