<?xml version="1.0" encoding="utf-8"?>
<!-- Generator: Adobe Illustrator 16.0.0, SVG Export Plug-In . SVG Version: 6.00 Build 0)  -->
<!DOCTYPE svg PUBLIC "-//W3C//DTD SVG 1.1//EN" "http://www.w3.org/Graphics/SVG/1.1/DTD/svg11.dtd">
<svg version="1.1" id="Layer_1" xmlns="http://www.w3.org/2000/svg" xmlns:xlink="http://www.w3.org/1999/xlink" x="0px" y="0px" viewBox="0 0 50 50" enable-background="new 0 0 50 50" xml:space="preserve">
<g>
	<path fill-rule="evenodd" clip-rule="evenodd" fill="none" stroke="#006dfe" stroke-width="2" stroke-miterlimit="10" d="
		M12.923,15.142c3.665,2.622,7.902,4.106,12.732,4.441c-0.059-0.436-0.134-0.829-0.161-1.225c-0.199-2.996,0.842-5.482,3.174-7.371
		c3.37-2.728,8.266-2.428,11.321,0.648c0.136,0.135,0.247,0.171,0.433,0.13c1.769-0.386,3.438-1.026,5.004-1.933
		c0.032-0.019,0.065-0.035,0.099-0.052c0.003-0.001,0.009,0.002,0.034,0.01c-0.668,1.976-1.892,3.508-3.645,4.634
		c0.825-0.082,1.633-0.23,2.421-0.468c0.786-0.239,1.562-0.518,2.327-0.774c-0.012,0.018-0.039,0.065-0.07,0.111
		c-1.103,1.601-2.436,2.979-4,4.132c-0.079,0.058-0.127,0.11-0.121,0.221c0.131,3.044-0.337,6.001-1.338,8.873
		c-1.537,4.403-4.054,8.14-7.679,11.099c-2.998,2.445-6.418,3.995-10.214,4.725c-2.119,0.407-4.258,0.546-6.412,0.413
		c-4.138-0.256-7.957-1.501-11.463-3.713c-0.012-0.008-0.023-0.021-0.068-0.057c2.266,0.251,4.464,0.085,6.625-0.519
		c2.16-0.604,4.12-1.601,5.924-2.998c-2.411-0.101-4.43-0.993-6.062-2.725c-0.854-0.905-1.721-2.417-1.85-3.183
		c1.262,0.233,2.509,0.192,3.748-0.146c-1.965-0.452-3.6-1.438-4.865-3.006c-1.27-1.573-1.884-3.382-1.885-5.439
		c1.2,0.65,2.455,1.006,3.824,1.06c-2.26-1.627-3.541-3.788-3.735-6.548c-0.12-1.7,0.269-3.296,1.122-4.782"/>
</g>
</svg>
