<?xml version="1.0" encoding="utf-8"?>
<!-- Generator: Adobe Illustrator 16.0.0, SVG Export Plug-In . SVG Version: 6.00 Build 0)  -->
<!DOCTYPE svg PUBLIC "-//W3C//DTD SVG 1.1//EN" "http://www.w3.org/Graphics/SVG/1.1/DTD/svg11.dtd">
<svg version="1.1" id="Layer_1" xmlns="http://www.w3.org/2000/svg" xmlns:xlink="http://www.w3.org/1999/xlink" x="0px" y="0px"
	 width="600px" height="300px" viewBox="0 0 600 300" enable-background="new 0 0 600 300" xml:space="preserve">
<rect fill="#2E6D82" width="600" height="300"/>
<rect x="215" y="83" fill="#53CDEC" width="23" height="40"/>
<rect x="246" y="83" fill="#53CDEC" width="23" height="40"/>
<rect x="215" y="132" fill="#53CDEC" width="23" height="41"/>
<rect x="246" y="132" fill="#53CDEC" width="23" height="41"/>
<path fill="none" stroke="#53CDEC" stroke-width="2" stroke-miterlimit="10" d="M404,225h-6c0-44,0-84.088,0-128.798
	c0-28.457-22.049-50.868-49.021-50.868C348.812,45.334,195,45,195,45v14h6c0,55,0,110,0,166h-6v17h6.165l0,0
	c27.255,0,54.463,0,81.673,0l0,0H290v-17h-6c0-56,0-142,0-142s28.459,0,40.809,0c20.047,0,36.063,0.999,36.063,52.091
	c0.172,30.035,0.116,60.909,0.096,89.909H355v17h5.958l0,0c12.036,0,25.771,0,37.809,0l0,0H404V225z"/>
</svg>
