<?xml version="1.0" encoding="utf-8"?>
<!-- Generator: Adobe Illustrator 16.0.0, SVG Export Plug-In . SVG Version: 6.00 Build 0)  -->
<!DOCTYPE svg PUBLIC "-//W3C//DTD SVG 1.1//EN" "http://www.w3.org/Graphics/SVG/1.1/DTD/svg11.dtd">
<svg version="1.1" id="Layer_1" xmlns="http://www.w3.org/2000/svg" xmlns:xlink="http://www.w3.org/1999/xlink" x="0px" y="0px"
	 width="300px" height="300px" viewBox="0 0 300 300" enable-background="new 0 0 300 300" xml:space="preserve">
<path fill="#EC1C24" d="M72.507,129.934c-0.88,15.266,9.834,31.404,16.355,31.086c10.21-0.497,7.843-12.511,7.538-18.784
	c-0.508-10.443,3.941-46.542,11.878-44.886c5.621,1.174,14.109-1.15,20.006-3.524c15.228-6.13,25.225-10.187,22.897-6.166
	c-1.65,2.85-6.764,9.269-12.035,19.67c-4.046,7.985-13.713,34.934-16.812,46.722c-3.961,15.062-9.004,32.497,2.133,50.596
	c7.045,11.446,10.878,14.824,22.458,22.017c20.917,12.989,44.738,7.574,33.201,14.501c-13.475,8.088-24.863,22.589-30.406,18.114
	c-3.039-2.454-40.845-28.464-69.829-56.837C54.401,177.49,24.868,143.539,41.121,95.504c6.05-17.881,16.659-28.729,21.481-32.056
	c4.749-3.277,11.034-6.104,10.615-3.562c-3.352,20.285,4.134,29.196,10.299,35.464C88.595,100.514,74.359,97.833,72.507,129.934z"/>
<path fill="#EC1C24" d="M226.335,156.621c-6.604,7.71-9.396,13.42-7.489,17.883c2.719,6.363,4.316,11.582,3.82,20.016
	c-0.312,5.31,21.001-15.449,25.118-20.176c12.921-14.821,34.769-56.446,5.031-101.044c-2.435-3.65-5.396-5.195-8.979-5.221
	c-35.702-0.267-49.42,32.03-54.044,38.564c-7.443,10.522-13.136,29.659-3.49,45.967s9.398,29.559,5.026,41.333
	c-6.502,17.515-20.555,21.092-20.516,14.128c0.025-4.778,15.756-6.079,10.682-12.01c-5.978-6.984-13.498-14.666-25.101-5.725
	c-13.429,10.348-11.437,17.533-13.127,22.584c-1.196,3.575-2.725,7.359,6.742,11.763c8.056,3.746,23.27,10.962,33.93,9.467
	c9.27-1.299,15.32-8.537,24.882-17.746c14.079-13.559,12.99-29.479,5.186-47.131C190.586,116.301,272.958,102.226,226.335,156.621z"
	/>
<path fill="#EC1C24" d="M131.223,137.926c-4.082,12.734-10.996,33.631-10.569,43.674c0.523,12.33,5.973,21.101,10.859,27.447
	c8.935,11.609,8.815,0.156,15.207-13.484c3.443-7.344,12.136-13.384,23.387-11.133c8.112,1.623,13.952,16.946,17.089-0.609
	c2.297-12.857,0.951-24.026-5.876-28.993c-2.582-1.878-5.948-2.871-10.196-2.731c-12.251,0.402-15.556,7.6-23.724,5.733
	s11.095-16.635,18.948-14.707c7.852,1.931,16.041,9.452,12.583-2.323c-3.968-13.504,4.208-22.898,0-21.725
	c-9.836,2.743-27.069,10.75-24.023,1.038c2.902-9.257,11.212-25.964,17.708-26.871c5.318-0.743,6.814,21.46,13.207,12.619
	c5.682-7.862,12.737-25.631,28.837-34.879c5.854-3.362,11.088-6.594,30.054-5.546c7.944,0.438-36.449-34.591-79.97,10.053
	C138.854,102.046,132.6,133.633,131.223,137.926z"/>
<rect x="50.294" y="67.041" fill="none" width="107.758" height="17.821"/>
<text transform="matrix(1 0 0 1 76.1338 77.6851)" fill="#F6921E" font-family="'AvenirNextCondensed-Bold'" font-size="14.0796">PRESENCE</text>
<rect x="47.559" y="84.276" fill="none" width="107.757" height="17.82"/>
<text transform="matrix(1 0 0 1 95.9248 92.2593)" fill="#F6921E" font-family="'AvenirNextCondensed-Bold'" font-size="10.5597">OF</text>
</svg>
