<svg xmlns="http://www.w3.org/2000/svg" viewBox="0 0 88 88"><defs><style>.cls-1{fill:#5a498e;}.cls-2{isolation:isolate;}.cls-3{fill:#fff;}</style></defs><title>Q2</title><g id="Layer_2" data-name="Layer 2"><g id="Layer_1-2" data-name="Layer 1"><g id="Page-1"><g id="FAQ"><g id="Question-1"><g id="Question"><g id="Group"><circle id="Oval" class="cls-1" cx="44" cy="44" r="44"/><g id="Q1" class="cls-2"><g class="cls-2"><path class="cls-3" d="M44.42,42.53c0,7.21-3.35,12.58-8.82,13.81a17.49,17.49,0,0,1,5.56,4c1.89,1.89,3.26,4.57,5.47,4.57a6.83,6.83,0,0,0,2.31-.51l.33.56A6.55,6.55,0,0,1,45.69,66,9.31,9.31,0,0,1,38,62.47c-2.13-2.26-3.59-5.8-4.91-5.8h-.19c-7.35,0-11.59-5.8-11.59-14.14s4.24-14.15,11.59-14.15C40,28.38,44.42,34.23,44.42,42.53ZM28.62,55.35l.14-.19c-2.64-2.12-4.29-6.65-4.29-12.63s1.65-10.66,4.43-12.69l-.19-.14c-3.86,1.89-6.31,7-6.31,12.83C22.4,48.56,24.52,53.46,28.62,55.35ZM40.08,42.53c0-7.64-2.69-13.16-7.22-13.16-4.71,0-7.26,5.52-7.26,13.16s2.55,13.15,7.26,13.15C37.39,55.68,40.08,50.26,40.08,42.53ZM35.17,57l0,0c1,1.27,2.26,3.49,3.49,4.71a11,11,0,0,0,6,3.44l0,0c-1.74-.8-2.87-2.88-4.24-4.25C38.76,59.36,37.06,57.71,35.17,57Zm1.75-27.3-.19.14c2.78,2,4.43,6.6,4.43,12.69S39.51,53,36.87,55.16l.14.19c4-1.89,6.23-6.79,6.23-12.82C43.24,36.73,40.79,31.59,36.92,29.7Z"/><path class="cls-3" d="M65.72,35.55c0,6.55-4.29,8.48-7.49,10a12.17,12.17,0,0,0-6.6,6.89H65.06l1.09-3.54h1.13L65.21,56H50.31l-.1-.14v-.61c0-5,3.68-8.35,7.31-10.61,2.55-1.79,3.87-5.43,3.87-8.63s-1.47-6.37-5-6.37a5.56,5.56,0,0,0-4.06,2v5.23h-.94l0-5.61a8,8,0,0,1,6.42-2.92C63.55,28.38,65.72,31.26,65.72,35.55ZM64.31,55l.47-1.51H51.3c0,.38-.19,1-.24,1.51Zm-4.76-10.8c2.64-1.64,5-4,5-8.53,0-3.21-1.22-6-5.51-6.36l-.1.09c2.78.9,3.54,3.35,3.54,6.7a10.73,10.73,0,0,1-3.11,8Z"/></g></g></g></g></g></g></g></g></g></svg>