<svg xmlns="http://www.w3.org/2000/svg" viewBox="0 0 88 88"><defs><style>.cls-1{fill:#5a498e;}.cls-2{isolation:isolate;}.cls-3{fill:#fff;}</style></defs><title>Q4</title><g id="Layer_2" data-name="Layer 2"><g id="Layer_1-2" data-name="Layer 1"><g id="Page-1"><g id="FAQ"><g id="Question-1"><g id="Question"><g id="Group"><circle id="Oval" class="cls-1" cx="44" cy="44" r="44"/><g id="Q1" class="cls-2"><g class="cls-2"><path class="cls-3" d="M45,42.53c0,7.21-3.34,12.58-8.81,13.81a17.49,17.49,0,0,1,5.56,4c1.89,1.89,3.25,4.57,5.47,4.57a6.88,6.88,0,0,0,2.31-.51l.33.56A6.55,6.55,0,0,1,46.26,66a9.32,9.32,0,0,1-7.74-3.54c-2.12-2.26-3.58-5.8-4.9-5.8h-.19c-7.35,0-11.6-5.8-11.6-14.14s4.25-14.15,11.6-14.15C40.6,28.38,45,34.23,45,42.53ZM29.19,55.35l.14-.19C26.69,53,25,48.51,25,42.53s1.65-10.66,4.43-12.69l-.19-.14c-3.86,1.89-6.32,7-6.32,12.83C23,48.56,25.09,53.46,29.19,55.35ZM40.65,42.53c0-7.64-2.69-13.16-7.22-13.16-4.71,0-7.26,5.52-7.26,13.16s2.55,13.15,7.26,13.15C38,55.68,40.65,50.26,40.65,42.53ZM35.74,57l-.05,0c1,1.27,2.27,3.49,3.49,4.71a11,11,0,0,0,6,3.44l0,0c-1.75-.8-2.88-2.88-4.24-4.25C39.32,59.36,37.63,57.71,35.74,57Zm1.75-27.3-.19.14c2.78,2,4.43,6.6,4.43,12.69S40.08,53,37.44,55.16l.14.19c4-1.89,6.22-6.79,6.22-12.82C43.8,36.73,41.35,31.59,37.49,29.7Z"/><path class="cls-3" d="M64.73,55v1H57.1V55h1.6V45.59H49.46V45.4l13-17.11h.19V44.6h3.11v1H62.66V55Zm-6-10.37V34.89L51.25,44.6ZM59.83,55h1.7v-24l-1.7,2.4Z"/></g></g></g></g></g></g></g></g></g></svg>