<svg xmlns="http://www.w3.org/2000/svg" viewBox="0 0 88 88"><defs><style>.cls-1{fill:#5a498e;}.cls-2{isolation:isolate;}.cls-3{fill:#fff;}</style></defs><title>Q5</title><g id="Layer_2" data-name="Layer 2"><g id="Layer_1-2" data-name="Layer 1"><g id="Page-1"><g id="FAQ"><g id="Question-1"><g id="Question"><g id="Group"><circle id="Oval" class="cls-1" cx="44" cy="44" r="44"/><g id="Q1" class="cls-2"><g class="cls-2"><path class="cls-3" d="M43.57,42.53c0,7.21-3.35,12.58-8.82,13.81a17.49,17.49,0,0,1,5.56,4c1.89,1.89,3.26,4.57,5.47,4.57a6.83,6.83,0,0,0,2.31-.51l.33.56A6.55,6.55,0,0,1,44.84,66a9.31,9.31,0,0,1-7.73-3.54c-2.13-2.26-3.59-5.8-4.91-5.8H32c-7.35,0-11.6-5.8-11.6-14.14S24.66,28.38,32,28.38C39.18,28.38,43.57,34.23,43.57,42.53ZM27.77,55.35l.14-.19c-2.64-2.12-4.29-6.65-4.29-12.63s1.65-10.66,4.43-12.69l-.19-.14c-3.86,1.89-6.31,7-6.31,12.83C21.55,48.56,23.67,53.46,27.77,55.35ZM39.23,42.53c0-7.64-2.69-13.16-7.22-13.16-4.71,0-7.26,5.52-7.26,13.16S27.3,55.68,32,55.68C36.54,55.68,39.23,50.26,39.23,42.53ZM34.32,57l0,0c1,1.27,2.26,3.49,3.49,4.71a11,11,0,0,0,6,3.44l0,0c-1.74-.8-2.87-2.88-4.24-4.25C37.91,59.36,36.21,57.71,34.32,57Zm1.75-27.3-.19.14c2.78,2,4.43,6.6,4.43,12.69S38.66,53,36,55.16l.14.19c4-1.89,6.23-6.79,6.23-12.82C42.39,36.73,39.94,31.59,36.07,29.7Z"/><path class="cls-3" d="M57.19,37.62c5.14,0,8.11,3.63,8.11,9.24,0,4.91-3.11,9.86-9.9,9.86a9.9,9.9,0,0,1-6.79-3.07l.56-.66c1.46,1.37,3,2.74,5.57,2.74,4.38,0,6.22-3.59,6.22-7.64s-1.13-6.89-4.72-6.89c-2.12,0-3.15,1.18-5,2.08l-.75-1.18,2.92-13,.1-.1a12.23,12.23,0,0,0,4.85.85c2,0,6.42-.42,7.78-1.32l.52.8c-1.79,2-5.51,4.29-9,4.29a5.82,5.82,0,0,1-3.53-.89,1.6,1.6,0,0,1-.38-.24l-1.65,6.7a9.15,9.15,0,0,1,5-1.56Zm-5.66,4.43a9.1,9.1,0,0,1,4.95-1.88c3.82,0,5.61,3,5.61,7.92a9.43,9.43,0,0,1-2.26,6.51l.19.28A9.25,9.25,0,0,0,64.17,47c0-5.1-2.83-8.25-7-8.25a9.3,9.3,0,0,0-5.28,1.74Zm13-12a25.55,25.55,0,0,1-6.13.89,12.49,12.49,0,0,1-2.87-.28l-1.18-.33-.28,1.18,1.41.61a7,7,0,0,0,2.45.33,12.64,12.64,0,0,0,6.65-2.26Z"/></g></g></g></g></g></g></g></g></g></svg>