<?xml version="1.0" encoding="utf-8"?>
<!-- Generator: Adobe Illustrator 19.1.0, SVG Export Plug-In . SVG Version: 6.00 Build 0)  -->
<svg version="1.1" id="Layer_1" xmlns="http://www.w3.org/2000/svg" xmlns:xlink="http://www.w3.org/1999/xlink" x="0px" y="0px"
	 viewBox="0 0 358.7 196.7" style="enable-background:new 0 0 358.7 196.7;" xml:space="preserve">
<style type="text/css">
	.st0{clip-path:url(#SVGID_2_);fill:#FFFFFF;}
	.st1{fill:none;stroke:#989898;stroke-miterlimit:10;}
	.st2{clip-path:url(#SVGID_4_);fill:#989898;}
	.st3{clip-path:url(#SVGID_6_);fill:#FFFFFF;}
	.st4{clip-path:url(#SVGID_8_);fill:#FFFFFF;}
	.st5{clip-path:url(#SVGID_10_);fill:#FFFFFF;}
	.st6{clip-path:url(#SVGID_12_);fill:#FFFFFF;}
	.st7{clip-path:url(#SVGID_14_);fill:#FFFFFF;}
	.st8{fill:#989898;}
	.st9{font-family:'Dosis-Medium';}
	.st10{font-size:25.3352px;}
	.st11{clip-path:url(#SVGID_16_);fill:#FFFFFF;}
	.st12{clip-path:url(#SVGID_18_);fill:#FFFFFF;}
	.st13{clip-path:url(#SVGID_20_);fill:#FFFFFF;}
	.st14{clip-path:url(#SVGID_22_);fill:#FFFFFF;}
	.st15{clip-path:url(#SVGID_24_);fill:#FFFFFF;}
	.st16{clip-path:url(#SVGID_26_);fill:#FFFFFF;}
	.st17{clip-path:url(#SVGID_28_);fill:#FFFFFF;}
	.st18{clip-path:url(#SVGID_30_);fill:#989898;}
	.st19{clip-path:url(#SVGID_32_);fill:#FFFFFF;}
</style>
<g>
	<defs>
		<path id="SVGID_1_" d="M28.2,124c26.7,74.5,122.2,58.1,129.8,56.3c58.3-13.9,94.2-61.7,80.3-106.7c-13.7-45-71.5-70.2-129.2-56.3
			C51.3,31.3,15,79,28.2,124z"/>
	</defs>
	<clipPath id="SVGID_2_">
		<use xlink:href="#SVGID_1_"  style="overflow:visible;"/>
	</clipPath>
	<rect x="20.5" y="8.6" class="st0" width="225.8" height="179.6"/>
</g>
<path class="st1" d="M28.2,124c26.7,74.5,122.2,58.1,129.8,56.3c58.3-13.9,94.2-61.7,80.3-106.7c-13.7-45-71.5-70.2-129.2-56.3
	C51.3,31.3,15,79,28.2,124z"/>
<g>
	<defs>
		<path id="SVGID_3_" d="M37.6,119.8c16.7,58.5,93.2,53.6,93.2,53.6c7.2-0.4,16.8-0.9,24.1-2.7c52.7-12.6,85.1-55.7,72.6-96.4
			C215.2,33.6,163,10.8,110.8,23.4C58.6,36,26,79.1,37.6,119.8z"/>
	</defs>
	<clipPath id="SVGID_4_">
		<use xlink:href="#SVGID_3_"  style="overflow:visible;"/>
	</clipPath>
	<rect x="30.3" y="15" class="st2" width="205" height="163.5"/>
</g>
<g>
	<defs>
		<path id="SVGID_5_" d="M39.8,118.2c7.6,25.9,32.2,44.4,62.7,50.7c1.3-4.4,3.2-9.2,16.6-8c13.4,1.2,15,5.9,15,10.1
			c6.6-0.5,13.3-1.5,20.1-3.1c51.3-12.2,83-54.3,70.8-93.9C212.8,34.2,162,12,111.2,24.2C60.3,36.5,28.3,78.5,39.8,118.2z"/>
	</defs>
	<clipPath id="SVGID_6_">
		<use xlink:href="#SVGID_5_"  style="overflow:visible;"/>
	</clipPath>
	<rect x="32.5" y="15.9" class="st3" width="200.1" height="160"/>
</g>
<path class="st1" d="M39.8,118.2c7.6,25.9,32.2,44.4,62.7,50.7c1.3-4.4,3.2-9.2,16.6-8c13.4,1.2,15,5.9,15,10.1
	c6.6-0.5,13.3-1.5,20.1-3.1c51.3-12.2,83-54.3,70.8-93.9C212.8,34.2,162,12,111.2,24.2C60.3,36.5,28.3,78.5,39.8,118.2z"/>
<g>
	<defs>
		<path id="SVGID_7_" d="M54.3,111c9.7,33,52.3,51.4,95.1,41.2c42.7-10.2,69-45.1,58.8-78.1c-10.1-33-52.4-51.4-94.6-41.2
			C71.3,43.1,44.7,78.1,54.3,111z"/>
	</defs>
	<clipPath id="SVGID_8_">
		<use xlink:href="#SVGID_7_"  style="overflow:visible;"/>
	</clipPath>
	<rect x="47.4" y="25.1" class="st4" width="168" height="134.9"/>
</g>
<path class="st1" d="M54.3,111c9.7,33,52.3,51.4,95.1,41.2c42.7-10.2,69-45.1,58.8-78.1c-10.1-33-52.4-51.4-94.6-41.2
	C71.3,43.1,44.7,78.1,54.3,111z"/>
<g>
	<defs>
		<path id="SVGID_9_" d="M69,105c7.7,26.2,41.6,40.9,75.6,32.8c33.9-8.1,54.8-35.9,46.8-62.1c-8-26.2-41.6-40.9-75.2-32.8
			C82.5,51,61.4,78.8,69,105z"/>
	</defs>
	<clipPath id="SVGID_10_">
		<use xlink:href="#SVGID_9_"  style="overflow:visible;"/>
	</clipPath>
	<rect x="62.5" y="35.7" class="st5" width="135.6" height="109.3"/>
</g>
<path class="st1" d="M69,105c7.7,26.2,41.6,40.9,75.6,32.8c33.9-8.1,54.8-35.9,46.8-62.1c-8-26.2-41.6-40.9-75.2-32.8
	C82.5,51,61.4,78.8,69,105z"/>
<g>
	<defs>
		<path id="SVGID_11_" d="M91.5,94.8c4.7,16.1,25.5,25.1,46.4,20.1c20.8-5,33.7-22.1,28.7-38.1c-4.9-16.1-25.6-25.1-46.2-20.1
			C99.8,61.7,86.8,78.7,91.5,94.8z"/>
	</defs>
	<clipPath id="SVGID_12_">
		<use xlink:href="#SVGID_11_"  style="overflow:visible;"/>
	</clipPath>
	<rect x="85.5" y="50.3" class="st6" width="87.2" height="71"/>
</g>
<path class="st1" d="M91.5,94.8c4.7,16.1,25.5,25.1,46.4,20.1c20.8-5,33.7-22.1,28.7-38.1c-4.9-16.1-25.6-25.1-46.2-20.1
	C99.8,61.7,86.8,78.7,91.5,94.8z"/>
<g>
	<defs>
		<path id="SVGID_13_" d="M94.6,94.1c4.3,14.8,23.4,23,42.6,18.5c19.1-4.6,30.9-20.2,26.3-35c-4.5-14.8-23.4-23-42.3-18.5
			C102.2,63.7,90.3,79.3,94.6,94.1z"/>
	</defs>
	<clipPath id="SVGID_14_">
		<use xlink:href="#SVGID_13_"  style="overflow:visible;"/>
	</clipPath>
	<rect x="88.8" y="52.9" class="st7" width="80.7" height="65.9"/>
</g>
<path class="st1" d="M94.6,94.1c4.3,14.8,23.4,23,42.6,18.5c19.1-4.6,30.9-20.2,26.3-35c-4.5-14.8-23.4-23-42.3-18.5
	C102.2,63.7,90.3,79.3,94.6,94.1z"/>
<line class="st1" x1="83.1" y1="126.2" x2="71.8" y2="137.4"/>
<line class="st1" x1="172.4" y1="36.9" x2="162.8" y2="46.6"/>
<line class="st1" x1="87.7" y1="57.3" x2="77.5" y2="50.5"/>
<line class="st1" x1="193.9" y1="126.2" x2="180.3" y2="117.1"/>
<line class="st1" x1="52.3" y1="96.4" x2="67.3" y2="93.4"/>
<line class="st1" x1="189.4" y1="69.7" x2="205.8" y2="66.9"/>
<line class="st1" x1="126.4" y1="139.7" x2="126.4" y2="155"/>
<line class="st1" x1="128.1" y1="29.9" x2="128.1" y2="40.3"/>
<line class="st1" x1="144.2" y1="112.6" x2="156.6" y2="134.1"/>
<line class="st1" x1="106.9" y1="46" x2="113.7" y2="58.4"/>
<line class="st1" x1="139.7" y1="56.1" x2="146.4" y2="41.5"/>
<line class="st1" x1="103.2" y1="136.4" x2="112.5" y2="114.9"/>
<line class="st1" x1="160" y1="65.2" x2="178.8" y2="56.3"/>
<line class="st1" x1="70.9" y1="109.7" x2="93.3" y2="99.1"/>
<path class="st1" d="M192.9,91.6c-0.2,0-24.9-3.4-24.9-3.4"/>
<path class="st1" d="M92.6,79.5c-0.1,0-20.3-3.4-20.3-3.4"/>
<text transform="matrix(0.8751 -0.4839 0.4839 0.8751 116.2924 103.374)" class="st8 st9 st10">403</text>
<g>
	<g>
		<defs>
			<path id="SVGID_15_" d="M207.6,90.1c0,0-3.2-9.6-5.9-9.6c-2.7,0-1.1,15.3-0.9,15.9"/>
		</defs>
		<clipPath id="SVGID_16_">
			<use xlink:href="#SVGID_15_"  style="overflow:visible;"/>
		</clipPath>
		
			<rect x="194.4" y="75.9" transform="matrix(0.9834 0.1814 -0.1814 0.9834 19.5023 -35.4605)" class="st11" width="18.4" height="25.9"/>
	</g>
	<path class="st1" d="M207.6,90.1c0,0-3.2-9.6-5.9-9.6c-2.7,0-1.1,15.3-0.9,15.9"/>
	<g>
		<defs>
			<path id="SVGID_17_" d="M264.5,130.7c-3.3,6.4-11.3,3.3-11.8,2.5c-0.5-0.8,0.5-2.7,2.8-3.8C263.9,125.2,267.8,124.3,264.5,130.7z
				"/>
		</defs>
		<clipPath id="SVGID_18_">
			<use xlink:href="#SVGID_17_"  style="overflow:visible;"/>
		</clipPath>
		
			<rect x="248.1" y="120.1" transform="matrix(0.9834 0.1814 -0.1814 0.9834 27.8919 -44.8561)" class="st12" width="22" height="19.8"/>
	</g>
	<path class="st1" d="M264.5,130.7c-3.3,6.4-11.3,3.3-11.8,2.5c-0.5-0.8,0.5-2.7,2.8-3.8C263.9,125.2,267.8,124.3,264.5,130.7z"/>
	<g>
		<defs>
			<path id="SVGID_19_" d="M225.6,131.8c-1,2.8-6,1.9-10,0.7c-4-1.2-0.1-4.6,4.6-3.8c2.6,0.9,5.2-3.2,5.2-5.8
				c0.1-2.7,3.4,0.4,3.4,0.4C228.5,124.4,226.7,129,225.6,131.8z"/>
		</defs>
		<clipPath id="SVGID_20_">
			<use xlink:href="#SVGID_19_"  style="overflow:visible;"/>
		</clipPath>
		
			<rect x="209.7" y="116" transform="matrix(0.9834 0.1814 -0.1814 0.9834 26.7785 -38.0503)" class="st13" width="23.3" height="22.6"/>
	</g>
	<path class="st1" d="M225.6,131.8c-1,2.8-6,1.9-10,0.7c-4-1.2-0.1-4.6,4.6-3.8c2.6,0.9,5.2-3.2,5.2-5.8c0.1-2.7,3.4,0.4,3.4,0.4
		C228.5,124.4,226.7,129,225.6,131.8z"/>
	<g>
		<defs>
			<path id="SVGID_21_" d="M316.8,47.8c-2,5.8-3.9,6.7-2.1,15.5c1.7,8.8,5.3,11.8,14.9,20.6c9.6,8.8,3.7,25.2,0.9,30
				c-2.8,4.8-12.6,14.6-35.4,10.4c-22.8-4.2-2.5-6.2-2.5-6.2s-1.6-0.9,5.6,0.4c7.2,1.3,19.8,1.7,26.2-6.7c0.1-0.2,0.3-0.4,0.4-0.6
				c9.1-15.8,1.2-24.1-6-30.3C311.4,74.5,304.2,54.8,316.8,47.8z"/>
		</defs>
		<clipPath id="SVGID_22_">
			<use xlink:href="#SVGID_21_"  style="overflow:visible;"/>
		</clipPath>
		
			<rect x="285.8" y="42.9" transform="matrix(0.9834 0.1814 -0.1814 0.9834 21.0872 -55.4874)" class="st14" width="56" height="89.2"/>
	</g>
	<path class="st1" d="M316.8,47.8c-2,5.8-3.9,6.7-2.1,15.5s5.3,11.8,14.9,20.6c9.6,8.8,3.7,25.2,0.9,30
		c-2.8,4.8-12.6,14.6-35.4,10.4c-22.8-4.2-2.5-6.2-2.5-6.2s-1.6-0.9,5.6,0.4c7.2,1.3,19.8,1.7,26.2-6.7c0.1-0.2,0.3-0.4,0.4-0.6
		c9.1-15.8,1.2-24.1-6-30.3C311.4,74.5,304.2,54.8,316.8,47.8z"/>
	<g>
		<defs>
			<path id="SVGID_23_" d="M267.7,131.4c-0.2,0-0.3,0-0.4,0c-7.6-0.5-44.5-7.3-47.5-8.4c-3-1.1-4.1,0.4-14.9,0.3
				c-10.8-0.1-13.7-3.4-14.4-4.2c-0.7-0.8-2-1.9-2.9-5.1c-0.9-3.2,2.5-7.3,4.7-8.8c2.2-1.5,11.2-11.4,15-15.3
				c3.8-3.9,7.2-2.9,8.5-2.7c1.4,0.3,4.5,2.6,14.5-2.9c10-5.5,26.7-9.1,45.6-0.6c17.7,8,22.2,25.6,22.5,31.7c0,0.6,0.1,1.1,0,1.8
				c-0.8,13.1-17.2,18-20.5,19.2c-3.3,1.2-2.2,8-6.9,8.3c-4.8,0.3-10.8-1.4-11.2-3.7c-0.4-2.4,3.7-4.7,7.4-4.5
				c3.7,0.3,3.2-2.3,2.2-3.4C268.9,132.7,268.4,132.1,267.7,131.4z"/>
		</defs>
		<clipPath id="SVGID_24_">
			<use xlink:href="#SVGID_23_"  style="overflow:visible;"/>
		</clipPath>
		
			<rect x="184.1" y="71.6" transform="matrix(0.9834 0.1814 -0.1814 0.9834 23.6755 -42.4915)" class="st15" width="120.1" height="73.2"/>
	</g>
	<path class="st1" d="M267.7,131.4c-0.2,0-0.3,0-0.4,0c-7.6-0.5-44.5-7.3-47.5-8.4c-3-1.1-4.1,0.4-14.9,0.3
		c-10.8-0.1-13.7-3.4-14.4-4.2c-0.7-0.8-2-1.9-2.9-5.1c-0.9-3.2,2.5-7.3,4.7-8.8c2.2-1.5,11.2-11.4,15-15.3c3.8-3.9,7.2-2.9,8.5-2.7
		c1.4,0.3,4.5,2.6,14.5-2.9c10-5.5,26.7-9.1,45.6-0.6c17.7,8,22.2,25.6,22.5,31.7c0,0.6,0.1,1.1,0,1.8c-0.8,13.1-17.2,18-20.5,19.2
		c-3.3,1.2-2.2,8-6.9,8.3c-4.8,0.3-10.8-1.4-11.2-3.7c-0.4-2.4,3.7-4.7,7.4-4.5c3.7,0.3,3.2-2.3,2.2-3.4
		C268.9,132.7,268.4,132.1,267.7,131.4z"/>
	<g>
		<defs>
			<path id="SVGID_25_" d="M239.5,121.6c-0.4,1.5-1.5,5-3.5,12.8c-1.9,7.8-8.5,6.5-9.9,5c-1.4-1.5-0.3-3.2,5-4.7
				c1.8-2.6,4.2-9.7,5-13.7"/>
		</defs>
		<clipPath id="SVGID_26_">
			<use xlink:href="#SVGID_25_"  style="overflow:visible;"/>
		</clipPath>
		
			<rect x="222" y="115.5" transform="matrix(0.9834 0.1814 -0.1814 0.9834 27.5819 -39.9886)" class="st16" width="20.7" height="30.5"/>
	</g>
	<path class="st1" d="M239.5,121.6c-0.4,1.5-1.5,5-3.5,12.8c-1.9,7.8-8.5,6.5-9.9,5c-1.4-1.5-0.3-3.2,5-4.7c1.8-2.6,4.2-9.7,5-13.7"
		/>
	<g>
		<defs>
			<path id="SVGID_27_" d="M222.9,99.2c1.1-2.4,6.4-13.8,2.3-18.1c-4.2-4.3-8.9,12.6-8.9,12.6"/>
		</defs>
		<clipPath id="SVGID_28_">
			<use xlink:href="#SVGID_27_"  style="overflow:visible;"/>
		</clipPath>
		
			<rect x="212.1" y="75.1" transform="matrix(0.9834 0.1814 -0.1814 0.9834 19.9109 -38.7303)" class="st17" width="19.2" height="28.7"/>
	</g>
	<path class="st1" d="M222.9,99.2c1.1-2.4,6.4-13.8,2.3-18.1c-4.2-4.3-8.9,12.6-8.9,12.6"/>
	<g>
		<defs>
			
				<ellipse id="SVGID_29_" transform="matrix(-0.1814 0.9834 -0.9834 -0.1814 347.5105 -73.4121)" cx="204.3" cy="107.9" rx="2.6" ry="2.5"/>
		</defs>
		<clipPath id="SVGID_30_">
			<use xlink:href="#SVGID_29_"  style="overflow:visible;"/>
		</clipPath>
		
			<rect x="196.8" y="100.4" transform="matrix(0.9834 0.1814 -0.1814 0.9834 22.9729 -35.2781)" class="st18" width="15.1" height="15.1"/>
	</g>
	<g>
		<defs>
			<path id="SVGID_31_" d="M188,109.9c0.7,0.1,3.7,0.7,4.5,3.7c0.7,3-0.7,5.1-1.8,5.6C189.4,117.9,186.2,114.5,188,109.9z"/>
		</defs>
		<clipPath id="SVGID_32_">
			<use xlink:href="#SVGID_31_"  style="overflow:visible;"/>
		</clipPath>
		
			<rect x="182" y="105.4" transform="matrix(0.9834 0.1814 -0.1814 0.9834 23.9596 -32.5555)" class="st19" width="15.8" height="18.6"/>
	</g>
	<path class="st1" d="M188,109.9c0.7,0.1,3.7,0.7,4.5,3.7c0.7,3-0.7,5.1-1.8,5.6C189.4,117.9,186.2,114.5,188,109.9z"/>
	<path class="st1" d="M277.1,108c-3.1-1-14,3.7-14,10.5c0,6.8,3.2,11.7,4.7,12.9"/>
	<path class="st1" d="M219.1,130.3c-1.1-0.2-3-0.2-4.4,1.7"/>
	<path class="st1" d="M230.8,137.2c-1.1-0.2-2.7,0.3-4.1,2.2"/>
	<path class="st1" d="M256.3,130.9c-1.5,0.1-2.2,1.5-2.6,2.7"/>
	<path class="st1" d="M265.6,138.8c-2.9-0.7-4.4,1-5.7,2.6"/>
	<path class="st1" d="M259.1,131.9c-1.1-0.2-2.5,0.8-2.8,2.5"/>
	<path class="st1" d="M267.6,140.9c-1.2-1.2-5.1,0.3-5.4,2"/>
</g>
</svg>
