<?xml version="1.0" encoding="utf-8"?>
<!-- Generator: Adobe Illustrator 19.1.0, SVG Export Plug-In . SVG Version: 6.00 Build 0)  -->
<svg version="1.1" id="Layer_1" xmlns="http://www.w3.org/2000/svg" xmlns:xlink="http://www.w3.org/1999/xlink" x="0px" y="0px"
	 viewBox="0 0 437.3 196.7" style="enable-background:new 0 0 437.3 196.7;" xml:space="preserve">
<style type="text/css">
	.st0{fill:none;stroke:#046B99;stroke-miterlimit:10;}
	.st1{clip-path:url(#SVGID_2_);enable-background:new    ;}
	.st2{clip-path:url(#SVGID_4_);}
	.st3{clip-path:url(#SVGID_6_);fill:#FFFFFF;}
	.st4{clip-path:url(#SVGID_6_);fill:none;stroke:#046B99;stroke-miterlimit:10;}
	.st5{fill:none;stroke:#D8D8D8;stroke-miterlimit:10;}
	.st6{clip-path:url(#SVGID_8_);enable-background:new    ;}
	.st7{clip-path:url(#SVGID_10_);}
	.st8{clip-path:url(#SVGID_12_);fill:#F7F9F8;}
	.st9{clip-path:url(#SVGID_12_);fill:none;stroke:#D8D8D8;stroke-miterlimit:10;}
	.st10{clip-path:url(#SVGID_14_);enable-background:new    ;}
	.st11{clip-path:url(#SVGID_16_);}
	.st12{clip-path:url(#SVGID_18_);fill:#FFFFFF;}
	.st13{clip-path:url(#SVGID_18_);fill:none;stroke:#046B99;stroke-miterlimit:10;}
	.st14{clip-path:url(#SVGID_20_);}
	.st15{clip-path:url(#SVGID_22_);fill:#FFFFFF;}
	.st16{clip-path:url(#SVGID_24_);fill:none;stroke:#046B99;stroke-miterlimit:10;}
	.st17{clip-path:url(#SVGID_26_);}
	.st18{clip-path:url(#SVGID_28_);fill:#046B99;}
	.st19{clip-path:url(#SVGID_30_);fill:#046B99;}
	.st20{fill:none;stroke:#FFFFFF;stroke-miterlimit:10;}
	.st21{clip-path:url(#SVGID_32_);fill:#FFFFFF;}
	.st22{clip-path:url(#SVGID_34_);fill:#FFFFFF;}
	.st23{clip-path:url(#SVGID_36_);fill:#FFFFFF;}
	.st24{clip-path:url(#SVGID_38_);fill:#FFFFFF;}
	.st25{clip-path:url(#SVGID_40_);fill:#FFFFFF;}
	.st26{clip-path:url(#SVGID_42_);fill:#FFFFFF;}
	.st27{clip-path:url(#SVGID_44_);fill:#FFFFFF;}
	.st28{clip-path:url(#SVGID_46_);fill:#FFFFFF;}
	.st29{clip-path:url(#SVGID_48_);fill:#FFFFFF;}
	.st30{clip-path:url(#SVGID_50_);fill:#FFFFFF;}
	.st31{clip-path:url(#SVGID_52_);fill:#FFFFFF;}
	.st32{clip-path:url(#SVGID_54_);fill:#FFFFFF;}
	.st33{clip-path:url(#SVGID_56_);fill:#046B99;}
	.st34{clip-path:url(#SVGID_58_);fill:#FFFFFF;}
	.st35{fill:#046B99;}
	.st36{font-family:'Dosis-Medium';}
	.st37{font-size:25.3352px;}
</style>
<ellipse class="st0" cx="198.7" cy="105.3" rx="97.5" ry="81.5"/>
<g>
	<defs>
		<ellipse id="SVGID_1_" cx="198.7" cy="105.3" rx="97.5" ry="81.5"/>
	</defs>
	<clipPath id="SVGID_2_">
		<use xlink:href="#SVGID_1_"  style="overflow:visible;"/>
	</clipPath>
	<g class="st1">
		<g>
			<defs>
				<rect id="SVGID_3_" x="100.3" y="23" width="196" height="164"/>
			</defs>
			<clipPath id="SVGID_4_">
				<use xlink:href="#SVGID_3_"  style="overflow:visible;"/>
			</clipPath>
			<g class="st2">
				<defs>
					<rect id="SVGID_5_" x="100.3" y="23" width="196" height="164"/>
				</defs>
				<clipPath id="SVGID_6_">
					<use xlink:href="#SVGID_5_"  style="overflow:visible;"/>
				</clipPath>
				<rect x="96.2" y="18.8" class="st3" width="205" height="173"/>
				<ellipse class="st4" cx="198.7" cy="105.3" rx="97.5" ry="81.5"/>
			</g>
		</g>
	</g>
</g>
<ellipse class="st5" cx="198.7" cy="105.2" rx="89" ry="74.4"/>
<g>
	<defs>
		<ellipse id="SVGID_7_" cx="198.7" cy="105.2" rx="89" ry="74.4"/>
	</defs>
	<clipPath id="SVGID_8_">
		<use xlink:href="#SVGID_7_"  style="overflow:visible;"/>
	</clipPath>
	<g class="st6">
		<g>
			<defs>
				<rect id="SVGID_9_" x="109.3" y="30" width="179" height="150"/>
			</defs>
			<clipPath id="SVGID_10_">
				<use xlink:href="#SVGID_9_"  style="overflow:visible;"/>
			</clipPath>
			<g class="st7">
				<defs>
					<rect id="SVGID_11_" x="109.3" y="30" width="179" height="150"/>
				</defs>
				<clipPath id="SVGID_12_">
					<use xlink:href="#SVGID_11_"  style="overflow:visible;"/>
				</clipPath>
				<rect x="104.7" y="25.8" class="st8" width="188" height="158.8"/>
				<ellipse class="st9" cx="198.7" cy="105.2" rx="89" ry="74.4"/>
			</g>
		</g>
	</g>
</g>
<ellipse class="st0" cx="198.7" cy="105" rx="88.5" ry="74"/>
<g>
	<defs>
		<ellipse id="SVGID_13_" cx="198.7" cy="105" rx="88.5" ry="74"/>
	</defs>
	<clipPath id="SVGID_14_">
		<use xlink:href="#SVGID_13_"  style="overflow:visible;"/>
	</clipPath>
	<g class="st10">
		<g>
			<defs>
				<rect id="SVGID_15_" x="109.3" y="31" width="178" height="148"/>
			</defs>
			<clipPath id="SVGID_16_">
				<use xlink:href="#SVGID_15_"  style="overflow:visible;"/>
			</clipPath>
			<g class="st11">
				<defs>
					<rect id="SVGID_17_" x="109.3" y="31" width="178" height="148"/>
				</defs>
				<clipPath id="SVGID_18_">
					<use xlink:href="#SVGID_17_"  style="overflow:visible;"/>
				</clipPath>
				<rect x="105.2" y="26" class="st12" width="187.1" height="158"/>
				<ellipse class="st13" cx="198.7" cy="105" rx="88.5" ry="74"/>
			</g>
			<g class="st11">
				<defs>
					<ellipse id="SVGID_19_" cx="198.7" cy="140.3" rx="72.5" ry="60.6"/>
				</defs>
				<clipPath id="SVGID_20_">
					<use xlink:href="#SVGID_19_"  style="overflow:visible;"/>
				</clipPath>
				<g class="st14">
					<defs>
						<rect id="SVGID_21_" x="109.3" y="31" width="178" height="148"/>
					</defs>
					<clipPath id="SVGID_22_">
						<use xlink:href="#SVGID_21_"  style="overflow:visible;"/>
					</clipPath>
					<rect x="121.2" y="74.7" class="st15" width="155" height="131.2"/>
				</g>
			</g>
			<g class="st11">
				<defs>
					<rect id="SVGID_23_" x="109.3" y="31" width="178" height="148"/>
				</defs>
				<clipPath id="SVGID_24_">
					<use xlink:href="#SVGID_23_"  style="overflow:visible;"/>
				</clipPath>
				<ellipse class="st16" cx="198.7" cy="140.3" rx="72.5" ry="60.6"/>
			</g>
			<g class="st11">
				<defs>
					<ellipse id="SVGID_25_" cx="198.7" cy="146.3" rx="72.5" ry="60.6"/>
				</defs>
				<clipPath id="SVGID_26_">
					<use xlink:href="#SVGID_25_"  style="overflow:visible;"/>
				</clipPath>
				<g class="st17">
					<defs>
						<rect id="SVGID_27_" x="109.3" y="31" width="178" height="148"/>
					</defs>
					<clipPath id="SVGID_28_">
						<use xlink:href="#SVGID_27_"  style="overflow:visible;"/>
					</clipPath>
					<rect x="121.2" y="80.7" class="st18" width="155" height="131.2"/>
				</g>
			</g>
		</g>
	</g>
</g>
<g>
	<defs>
		<path id="SVGID_29_" d="M15.2,116.1c7.2,24.5,30.8,43.3,60.8,49.5c0.5-3.1,1.2-11.5,15.6-10c14.4,1.5,12.1,8.6,12.6,11.6
			c6.9-0.4,16.1-0.9,23-2.5c50.3-12,81.3-53.2,69.3-92.1C184.7,33.8,134.8,12,85,24C35.2,36,3.8,77.2,15.2,116.1z"/>
	</defs>
	<clipPath id="SVGID_30_">
		<use xlink:href="#SVGID_29_"  style="overflow:visible;"/>
	</clipPath>
	<rect x="7.8" y="15.7" class="st19" width="196.3" height="156.5"/>
</g>
<path class="st20" d="M15.2,116.1c7.2,24.5,30.8,43.3,60.8,49.5c0.5-3.1,1.2-11.5,15.6-10s12.1,8.6,12.6,11.6
	c6.9-0.4,16.1-0.9,23-2.5c50.3-12,81.3-53.2,69.3-92.1C184.7,33.8,134.8,12,85,24C35.2,36,3.8,77.2,15.2,116.1z"/>
<g>
	<defs>
		<path id="SVGID_31_" d="M11.8,108.6c7.6,25.9,32.2,44.4,62.7,50.7c1.3-4.4,3.2-9.2,16.6-8c13.4,1.2,15,5.9,15,10.1
			c6.6-0.5,13.3-1.5,20.1-3.1c51.3-12.2,83-54.3,70.8-93.9c-12.1-39.6-63-61.8-113.8-49.6C32.2,26.9,0.2,69,11.8,108.6z"/>
	</defs>
	<clipPath id="SVGID_32_">
		<use xlink:href="#SVGID_31_"  style="overflow:visible;"/>
	</clipPath>
	<rect x="4.4" y="6.3" class="st21" width="200.1" height="160"/>
</g>
<path class="st0" d="M11.8,108.6c7.6,25.9,32.2,44.4,62.7,50.7c1.3-4.4,3.2-9.2,16.6-8s15,5.9,15,10.1c6.6-0.5,13.3-1.5,20.1-3.1
	c51.3-12.2,83-54.3,70.8-93.9c-12.1-39.6-63-61.8-113.8-49.6C32.2,26.9,0.2,69,11.8,108.6z"/>
<g>
	<defs>
		<path id="SVGID_33_" d="M26.3,101.5c9.7,33,52.3,51.4,95.1,41.2c42.7-10.2,69-45.1,58.8-78.1c-10.1-33-52.4-51.4-94.6-41.2
			C43.3,33.6,16.7,68.5,26.3,101.5z"/>
	</defs>
	<clipPath id="SVGID_34_">
		<use xlink:href="#SVGID_33_"  style="overflow:visible;"/>
	</clipPath>
	<rect x="19.3" y="15.6" class="st22" width="168" height="134.9"/>
</g>
<path class="st0" d="M26.3,101.5c9.7,33,52.3,51.4,95.1,41.2c42.7-10.2,69-45.1,58.8-78.1c-10.1-33-52.4-51.4-94.6-41.2
	C43.3,33.6,16.7,68.5,26.3,101.5z"/>
<g>
	<defs>
		<path id="SVGID_35_" d="M41,95.4c7.7,26.2,41.6,40.9,75.6,32.8c33.9-8.1,54.8-35.9,46.8-62.1c-8-26.2-41.6-40.9-75.2-32.8
			C54.5,41.5,33.3,69.2,41,95.4z"/>
	</defs>
	<clipPath id="SVGID_36_">
		<use xlink:href="#SVGID_35_"  style="overflow:visible;"/>
	</clipPath>
	<rect x="34.4" y="26.1" class="st23" width="135.6" height="109.3"/>
</g>
<path class="st0" d="M41,95.4c7.7,26.2,41.6,40.9,75.6,32.8c33.9-8.1,54.8-35.9,46.8-62.1c-8-26.2-41.6-40.9-75.2-32.8
	C54.5,41.5,33.3,69.2,41,95.4z"/>
<g>
	<defs>
		<path id="SVGID_37_" d="M63.5,85.3c4.7,16.1,25.5,25.1,46.4,20.1c20.8-5,33.7-22.1,28.7-38.1c-4.9-16.1-25.6-25.1-46.2-20.1
			C71.8,52.1,58.8,69.2,63.5,85.3z"/>
	</defs>
	<clipPath id="SVGID_38_">
		<use xlink:href="#SVGID_37_"  style="overflow:visible;"/>
	</clipPath>
	<rect x="57.5" y="40.8" class="st24" width="87.2" height="71"/>
</g>
<path class="st0" d="M63.5,85.3c4.7,16.1,25.5,25.1,46.4,20.1c20.8-5,33.7-22.1,28.7-38.1c-4.9-16.1-25.6-25.1-46.2-20.1
	C71.8,52.1,58.8,69.2,63.5,85.3z"/>
<g>
	<defs>
		<path id="SVGID_39_" d="M66.6,84.5c4.3,14.8,23.4,23,42.6,18.5c19.1-4.6,30.9-20.2,26.3-35c-4.5-14.8-23.4-23-42.3-18.5
			C74.2,54.1,62.3,69.8,66.6,84.5z"/>
	</defs>
	<clipPath id="SVGID_40_">
		<use xlink:href="#SVGID_39_"  style="overflow:visible;"/>
	</clipPath>
	<rect x="60.7" y="43.3" class="st25" width="80.7" height="65.9"/>
</g>
<path class="st0" d="M66.6,84.5c4.3,14.8,23.4,23,42.6,18.5c19.1-4.6,30.9-20.2,26.3-35c-4.5-14.8-23.4-23-42.3-18.5
	C74.2,54.1,62.3,69.8,66.6,84.5z"/>
<line class="st0" x1="55.1" y1="116.6" x2="43.7" y2="127.9"/>
<line class="st0" x1="144.4" y1="27.4" x2="134.8" y2="37"/>
<line class="st0" x1="59.6" y1="47.7" x2="49.5" y2="40.9"/>
<line class="st0" x1="165.9" y1="116.6" x2="152.3" y2="107.6"/>
<line class="st0" x1="24.3" y1="86.9" x2="39.3" y2="83.9"/>
<line class="st0" x1="161.4" y1="60.1" x2="177.7" y2="57.3"/>
<line class="st0" x1="98.3" y1="130.2" x2="98.3" y2="145.5"/>
<line class="st0" x1="100" y1="20.4" x2="100" y2="30.8"/>
<line class="st0" x1="116.1" y1="103.1" x2="128.6" y2="124.5"/>
<line class="st0" x1="78.9" y1="36.4" x2="85.6" y2="48.8"/>
<line class="st0" x1="111.6" y1="46.6" x2="118.4" y2="31.9"/>
<line class="st0" x1="75.2" y1="126.8" x2="84.5" y2="105.3"/>
<line class="st0" x1="132" y1="55.6" x2="150.8" y2="46.8"/>
<line class="st0" x1="42.8" y1="100.1" x2="65.3" y2="89.5"/>
<path class="st0" d="M164.9,82.1c-0.2,0-24.9-3.4-24.9-3.4"/>
<path class="st0" d="M64.6,69.9c-0.1,0-20.3-3.4-20.3-3.4"/>
<g>
	<defs>
		<path id="SVGID_41_" d="M303.9,146.4c0,0-5.5-8.5-8.1-7.9c-2.6,0.6,2.7,15.1,3.1,15.7"/>
	</defs>
	<clipPath id="SVGID_42_">
		<use xlink:href="#SVGID_41_"  style="overflow:visible;"/>
	</clipPath>
	
		<rect x="290.5" y="133.3" transform="matrix(0.9976 -6.975719e-02 6.975719e-02 0.9976 -9.4685 21.2619)" class="st26" width="18.4" height="25.9"/>
</g>
<path class="st0" d="M303.9,146.4c0,0-5.5-8.5-8.1-7.9c-2.6,0.6,2.7,15.1,3.1,15.7"/>
<g>
	<defs>
		<path id="SVGID_43_" d="M369.1,171.5c-1.6,7-10.1,6-10.8,5.4c-0.7-0.6-0.2-2.8,1.7-4.4C367.1,166.3,370.8,164.4,369.1,171.5z"/>
	</defs>
	<clipPath id="SVGID_44_">
		<use xlink:href="#SVGID_43_"  style="overflow:visible;"/>
	</clipPath>
	
		<rect x="352.8" y="162.3" transform="matrix(0.9976 -6.975628e-02 6.975628e-02 0.9976 -11.1253 25.7937)" class="st27" width="22" height="19.8"/>
</g>
<path class="st0" d="M369.1,171.5c-1.7,7-10.1,6-10.8,5.4c-0.7-0.6-0.2-2.8,1.7-4.4C367.1,166.3,370.8,164.4,369.1,171.5z"/>
<g>
	<defs>
		<path id="SVGID_45_" d="M331.8,182.3c-0.3,2.9-5.3,3.3-9.5,3.2c-4.2-0.1-1.3-4.5,3.5-4.8c2.8,0.2,4.2-4.4,3.6-6.9
			c-0.6-2.6,3.4-0.4,3.4-0.4C332.7,174.3,332.1,179.3,331.8,182.3z"/>
	</defs>
	<clipPath id="SVGID_46_">
		<use xlink:href="#SVGID_45_"  style="overflow:visible;"/>
	</clipPath>
	
		<rect x="314.9" y="167.7" transform="matrix(0.9976 -6.975666e-02 6.975666e-02 0.9976 -11.6923 23.2134)" class="st28" width="23.3" height="22.6"/>
</g>
<path class="st0" d="M331.8,182.3c-0.3,2.9-5.3,3.3-9.5,3.2c-4.2-0.1-1.3-4.5,3.5-4.8c2.8,0.2,4.2-4.4,3.6-6.9
	c-0.6-2.6,3.4-0.4,3.4-0.4C332.7,174.3,332.1,179.3,331.8,182.3z"/>
<g>
	<defs>
		<path id="SVGID_47_" d="M399.1,78.2c-0.5,6.1-2.1,7.5,1.8,15.6c3.9,8.1,8.1,10.1,19.6,16.2c11.5,6.2,9.9,23.5,8.4,28.9
			c-1.5,5.3-8.6,17.2-31.7,18.9c-23.1,1.6-4-5.4-4-5.4s-1.8-0.5,5.5-1c7.3-0.5,19.6-3.4,23.7-13.1c0.1-0.2,0.2-0.4,0.3-0.7
			c4.8-17.6-4.8-23.7-13.4-27.9C400.6,105.4,388.7,88.1,399.1,78.2z"/>
	</defs>
	<clipPath id="SVGID_48_">
		<use xlink:href="#SVGID_47_"  style="overflow:visible;"/>
	</clipPath>
	
		<rect x="378.1" y="72.8" transform="matrix(0.9976 -6.975735e-02 6.975735e-02 0.9976 -7.1984 28.616)" class="st29" width="56" height="89.2"/>
</g>
<path class="st0" d="M399.1,78.2c-0.5,6.1-2.1,7.5,1.8,15.6s8.1,10.1,19.6,16.2s9.9,23.5,8.4,28.9c-1.5,5.3-8.6,17.2-31.7,18.9
	c-23.1,1.6-4-5.4-4-5.4s-1.8-0.5,5.5-1c7.3-0.5,19.6-3.4,23.7-13.1c0.1-0.2,0.2-0.4,0.3-0.7c4.8-17.6-4.8-23.7-13.4-27.9
	C400.6,105.4,388.7,88.1,399.1,78.2z"/>
<g>
	<defs>
		<path id="SVGID_49_" d="M372.4,171.3c-0.1,0-0.3,0.1-0.4,0.1c-7.4,1.5-44.9,4.1-48.1,3.7c-3.2-0.4-3.8,1.4-14.4,4
			s-14.1,0.1-15-0.5c-0.9-0.6-2.4-1.3-4.1-4.2c-1.7-2.9,0.6-7.7,2.3-9.7c1.8-2,8-13.8,10.7-18.6c2.7-4.7,6.2-4.6,7.6-4.7
			c1.4-0.1,5.1,1.4,13.3-6.4c8.3-7.8,23.5-15.5,44-11.9c19.2,3.3,27.9,19.3,29.7,25.1c0.2,0.5,0.3,1.1,0.5,1.7
			c2.5,12.9-12.2,21.8-15.1,23.7c-2.9,1.9-0.1,8.3-4.7,9.8s-10.8,1.4-11.8-0.8c-1-2.2,2.4-5.5,6-6.2c3.6-0.7,2.5-3,1.3-3.9
			C373.9,172.3,373.2,171.9,372.4,171.3z"/>
	</defs>
	<clipPath id="SVGID_50_">
		<use xlink:href="#SVGID_49_"  style="overflow:visible;"/>
	</clipPath>
	
		<rect x="283.7" y="118.2" transform="matrix(0.9976 -6.975649e-02 6.975649e-02 0.9976 -9.959 24.3552)" class="st30" width="120.1" height="73.2"/>
</g>
<path class="st0" d="M372.4,171.3c-0.1,0-0.3,0.1-0.4,0.1c-7.4,1.5-44.9,4.1-48.1,3.7s-3.8,1.4-14.4,4c-10.5,2.6-14.1,0.1-15-0.5
	c-0.9-0.6-2.4-1.3-4.1-4.2c-1.7-2.9,0.6-7.7,2.3-9.7c1.8-2,8-13.8,10.7-18.6s6.2-4.6,7.6-4.7s5.1,1.4,13.3-6.4
	c8.3-7.8,23.5-15.5,44-11.9c19.2,3.3,27.9,19.3,29.7,25.1c0.2,0.5,0.3,1.1,0.5,1.7c2.5,12.9-12.2,21.8-15.1,23.7s-0.1,8.3-4.7,9.8
	c-4.6,1.5-10.8,1.4-11.8-0.8c-1-2.2,2.4-5.5,6-6.2s2.5-3,1.3-3.9C373.9,172.3,373.2,171.9,372.4,171.3z"/>
<g>
	<defs>
		<path id="SVGID_51_" d="M342.6,169c0,1.5-0.2,5.2-0.2,13.2c0.1,8-6.6,8.5-8.3,7.3c-1.7-1.1-1.1-3.1,3.7-5.8
			c1.1-2.9,1.7-10.4,1.4-14.5"/>
	</defs>
	<clipPath id="SVGID_52_">
		<use xlink:href="#SVGID_51_"  style="overflow:visible;"/>
	</clipPath>
	
		<rect x="327.7" y="164.3" transform="matrix(0.9976 -6.975656e-02 6.975656e-02 0.9976 -11.7039 24.0171)" class="st31" width="20.7" height="30.5"/>
</g>
<path class="st0" d="M342.6,169c0,1.5-0.2,5.2-0.2,13.2c0.1,8-6.6,8.5-8.3,7.3c-1.7-1.1-1.1-3.1,3.7-5.8c1.1-2.9,1.7-10.4,1.4-14.5"
	/>
<g>
	<defs>
		<path id="SVGID_53_" d="M320.9,151.4c0.5-2.6,2.8-15-2.3-18.1c-5.1-3.1-5.5,14.5-5.5,14.5"/>
	</defs>
	<clipPath id="SVGID_54_">
		<use xlink:href="#SVGID_53_"  style="overflow:visible;"/>
	</clipPath>
	
		<rect x="307.8" y="127.9" transform="matrix(0.9976 -6.975637e-02 6.975637e-02 0.9976 -9.1511 22.4834)" class="st32" width="19.2" height="28.7"/>
</g>
<path class="st0" d="M320.9,151.4c0.5-2.6,2.8-15-2.3-18.1c-5.1-3.1-5.5,14.5-5.5,14.5"/>
<g>
	<defs>
		
			<ellipse id="SVGID_55_" transform="matrix(6.977076e-02 0.9976 -0.9976 6.977076e-02 447.9453 -151.4214)" cx="305.2" cy="164.5" rx="2.6" ry="2.5"/>
	</defs>
	<clipPath id="SVGID_56_">
		<use xlink:href="#SVGID_55_"  style="overflow:visible;"/>
	</clipPath>
	
		<rect x="297.6" y="156.9" transform="matrix(0.9976 -6.975602e-02 6.975602e-02 0.9976 -10.7297 21.6876)" class="st33" width="15.1" height="15.1"/>
</g>
<g>
	<defs>
		<path id="SVGID_57_" d="M289.9,170.5c0.8-0.1,3.8-0.3,5.2,2.4c1.5,2.7,0.6,5.1-0.3,5.9C293.2,177.9,289.3,175.4,289.9,170.5z"/>
	</defs>
	<clipPath id="SVGID_58_">
		<use xlink:href="#SVGID_57_"  style="overflow:visible;"/>
	</clipPath>
	
		<rect x="285" y="165.3" transform="matrix(0.9976 -6.975692e-02 6.975692e-02 0.9976 -11.4664 20.8584)" class="st34" width="15.8" height="18.6"/>
</g>
<path class="st0" d="M289.9,170.5c0.8-0.1,3.8-0.3,5.2,2.4c1.5,2.7,0.6,5.1-0.3,5.9C293.2,177.9,289.3,175.4,289.9,170.5z"/>
<path class="st0" d="M375.7,146.4c-3.2-0.2-12.6,7.1-10.9,13.7c1.7,6.6,6,10.5,7.8,11.4"/>
<path class="st0" d="M325.1,182.4c-1.1,0.1-3,0.6-3.9,2.7"/>
<path class="st0" d="M338.1,186.2c-1.1,0.1-2.5,1-3.4,3.1"/>
<path class="st0" d="M361.3,173.8c-1.4,0.5-1.7,2-1.8,3.2"/>
<path class="st0" d="M372.2,179c-3,0-4,2.1-4.9,4"/>
<path class="st0" d="M364.2,174c-1.1,0.1-2.2,1.4-2.1,3.1"/>
<path class="st0" d="M374.7,180.7c-1.4-0.8-4.9,1.6-4.8,3.3"/>
<text transform="matrix(0.8751 -0.4839 0.4839 0.8751 87.2235 91.5001)" class="st35 st36 st37">404</text>
</svg>
