<svg version="1.1" id="Layer_1" xmlns="http://www.w3.org/2000/svg" xmlns:xlink="http://www.w3.org/1999/xlink" x="0px" y="0px"
	 width="25px" height="25px" viewBox="0 0 25 25" enable-background="new 0 0 25 25" xml:space="preserve">
<g>
	<path fill-rule="evenodd" clip-rule="evenodd" fill="#181616" d="M12.5,0.444c-6.825,0-12.361,5.535-12.361,12.361
		c0,5.462,3.542,10.095,8.453,11.73c0.619,0.114,0.846-0.269,0.846-0.596c0-0.294-0.012-1.267-0.017-2.302
		c-3.438,0.749-4.165-1.458-4.165-1.458c-0.562-1.428-1.373-1.809-1.373-1.809c-1.121-0.768,0.086-0.75,0.086-0.75
		c1.24,0.087,1.895,1.274,1.895,1.274c1.101,1.889,2.891,1.343,3.596,1.026c0.112-0.799,0.431-1.345,0.785-1.653
		C7.5,17.957,4.612,16.898,4.612,12.16c0-1.349,0.483-2.451,1.274-3.317C5.758,8.531,5.335,7.274,6.006,5.57
		c0,0,1.038-0.331,3.4,1.269c0.986-0.275,2.043-0.413,3.094-0.418c1.051,0.005,2.109,0.143,3.097,0.418
		c2.36-1.6,3.396-1.269,3.396-1.269c0.673,1.704,0.25,2.961,0.121,3.272c0.793,0.867,1.273,1.969,1.273,3.317
		c0,4.748-2.893,5.793-5.645,6.099c0.443,0.384,0.837,1.137,0.837,2.29c0,1.653-0.015,2.984-0.015,3.392
		c0,0.329,0.225,0.715,0.851,0.594c4.91-1.637,8.446-6.269,8.446-11.729C24.861,5.979,19.327,0.444,12.5,0.444z"/>
	<path fill="#181616" d="M4.821,18.193c-0.027,0.062-0.124,0.078-0.212,0.037c-0.09-0.04-0.139-0.124-0.11-0.186
		c0.026-0.063,0.124-0.081,0.212-0.039C4.8,18.047,4.852,18.13,4.821,18.193L4.821,18.193z M4.668,18.081"/>
	<path fill="#181616" d="M5.322,18.751c-0.059,0.055-0.174,0.029-0.253-0.057c-0.08-0.086-0.096-0.201-0.036-0.257
		c0.061-0.055,0.172-0.03,0.253,0.056C5.368,18.581,5.383,18.696,5.322,18.751L5.322,18.751z M5.203,18.625"/>
	<path fill="#181616" d="M5.809,19.463c-0.076,0.053-0.199,0.003-0.276-0.106c-0.076-0.109-0.076-0.242,0.001-0.295
		c0.077-0.052,0.199-0.005,0.277,0.104C5.887,19.276,5.887,19.41,5.809,19.463L5.809,19.463z M5.809,19.463"/>
	<path fill="#181616" d="M6.476,20.152c-0.068,0.073-0.212,0.053-0.317-0.049c-0.108-0.1-0.138-0.242-0.07-0.315
		c0.068-0.075,0.213-0.054,0.319,0.047C6.517,19.935,6.549,20.078,6.476,20.152L6.476,20.152z M6.476,20.152"/>
	<path fill="#181616" d="M7.398,20.55c-0.03,0.098-0.169,0.141-0.309,0.101c-0.14-0.044-0.231-0.156-0.203-0.254
		c0.029-0.098,0.168-0.144,0.308-0.101C7.334,20.34,7.426,20.453,7.398,20.55L7.398,20.55z M7.398,20.55"/>
	<path fill="#181616" d="M8.409,20.624c0.004,0.102-0.115,0.187-0.261,0.189c-0.148,0.004-0.267-0.08-0.27-0.181
		c0-0.103,0.116-0.187,0.263-0.188C8.29,20.441,8.409,20.523,8.409,20.624L8.409,20.624z M8.409,20.624"/>
	<path fill="#181616" d="M9.352,20.464c0.017,0.101-0.086,0.202-0.232,0.229c-0.143,0.025-0.276-0.035-0.294-0.135
		c-0.019-0.102,0.085-0.204,0.229-0.23C9.201,20.305,9.332,20.362,9.352,20.464L9.352,20.464z M9.352,20.464"/>
</g>
</svg>
