<?xml version="1.0" encoding="utf-8"?>
<!-- Generator: Adobe Illustrator 19.1.0, SVG Export Plug-In . SVG Version: 6.00 Build 0)  -->
<svg version="1.1" id="Layer_1" xmlns="http://www.w3.org/2000/svg" xmlns:xlink="http://www.w3.org/1999/xlink" x="0px" y="0px"
	 viewBox="-4.5 13.5 25 25" width="25px" height="25px" style="enable-background:new -4.5 13.5 25 25;" xml:space="preserve">
<g>
	<path d="M18.9,14H-2.9C-3.5,14-4,14.5-4,15.1v21.8c0,0.6,0.5,1.1,1.1,1.1h21.8c0.6,0,1.1-0.5,1.1-1.1V15.1C20,14.5,19.5,14,18.9,14
		z M12.2,26c0,2.3-1.9,4.2-4.2,4.2S3.8,28.3,3.8,26s1.9-4.2,4.2-4.2S12.2,23.7,12.2,26z M17,35H-1V24.5h2c-0.1,0.5-0.2,1-0.2,1.5
		c0,4,3.2,7.2,7.2,7.2s7.2-3.2,7.2-7.2c0-0.5-0.1-1-0.2-1.5h2V35z M17,21.5h-4.5V17H17V21.5z"/>
</g>
</svg>
