<svg version="1.1" id="Layer_1" xmlns="http://www.w3.org/2000/svg" xmlns:xlink="http://www.w3.org/1999/xlink" x="0px" y="0px"
	 width="25px" height="25px" viewBox="0 0 25 25" enable-background="new 0 0 25 25" xml:space="preserve">
<g>
	<path fill-rule="evenodd" clip-rule="evenodd" d="M24.746,12.5c0,3.467-0.001,6.934,0,10.4c0,0.459-0.126,0.87-0.43,1.218
		c-0.354,0.405-0.809,0.623-1.343,0.624c-6.986,0.005-13.972,0.006-20.958-0.002c-0.966-0.001-1.662-0.746-1.743-1.549
		c-0.01-0.1-0.02-0.2-0.02-0.3c0-6.938,0-13.875,0-20.812c0-0.874,0.508-1.548,1.333-1.761c0.15-0.038,0.308-0.061,0.462-0.061
		c6.965-0.003,13.931-0.003,20.897-0.003c0.86,0,1.579,0.57,1.76,1.404c0.032,0.143,0.039,0.294,0.039,0.441
		C24.746,5.566,24.746,9.033,24.746,12.5z M21.152,21.128c0-0.063,0-0.11,0-0.158c0-0.755,0.002-1.509-0.001-2.264
		c-0.007-1.647-0.01-3.296-0.03-4.943c-0.004-0.386-0.059-0.772-0.119-1.153c-0.097-0.619-0.27-1.215-0.592-1.759
		c-0.402-0.68-0.974-1.154-1.719-1.419c-0.667-0.237-1.354-0.31-2.059-0.291c-0.374,0.009-0.737,0.063-1.097,0.168
		c-0.901,0.264-1.621,0.775-2.134,1.569c-0.031,0.047-0.059,0.097-0.087,0.146c-0.011-0.003-0.021-0.006-0.031-0.01
		c-0.002-0.042-0.005-0.083-0.005-0.125c-0.002-0.438-0.002-0.875-0.002-1.312c0-0.161-0.002-0.164-0.158-0.164
		c-1.063,0-2.126,0-3.189,0c-0.152,0-0.156,0.005-0.156,0.156c0,3.805,0,7.606-0.003,11.41c0,0.126,0.039,0.152,0.157,0.152
		c1.107-0.005,2.215-0.003,3.322-0.003c0.174,0,0.172,0,0.174-0.176c0.006-2.054,0.011-4.107,0.023-6.16
		c0.001-0.409,0.077-0.81,0.216-1.195c0.208-0.572,0.58-0.979,1.178-1.15c0.345-0.098,0.695-0.126,1.055-0.086
		c0.617,0.069,1.062,0.372,1.312,0.944c0.193,0.437,0.26,0.906,0.263,1.378c0.011,2.094,0.006,4.188,0.007,6.282
		c0,0.163,0.001,0.163,0.165,0.163c1.119,0,2.238,0,3.357,0C21.044,21.128,21.088,21.128,21.152,21.128z M3.87,21.128
		c0.059,0,0.102,0,0.144,0c1.12,0,2.239-0.002,3.359,0.004c0.129,0,0.15-0.045,0.15-0.159c-0.002-3.796-0.002-7.592-0.002-11.387
		c0-0.173,0-0.174-0.175-0.174c-1.099,0-2.199,0-3.298,0c-0.177,0-0.178,0-0.178,0.175c0,3.792,0,7.584,0,11.375
		C3.87,21.01,3.87,21.058,3.87,21.128z M3.582,5.721C3.573,6.895,4.5,7.857,5.697,7.851c1.209-0.007,2.123-0.927,2.13-2.123
		C7.833,4.545,6.872,3.61,5.699,3.603C4.542,3.596,3.564,4.57,3.582,5.721z"/>
</g>
</svg>
