<?xml version="1.0" encoding="utf-8"?>
<!-- Generator: Adobe Illustrator 19.1.0, SVG Export Plug-In . SVG Version: 6.00 Build 0)  -->
<svg version="1.1" id="Layer_1" xmlns="http://www.w3.org/2000/svg" xmlns:xlink="http://www.w3.org/1999/xlink" x="0px" y="0px"
	 viewBox="0 0 960 560" style="enable-background:new 0 0 960 560;" xml:space="preserve">
<style type="text/css">
	.st0{fill:none;stroke:#59585E;stroke-miterlimit:10;}
	.st1{fill:#59585E;}
	.st2{fill:none;stroke:#59585E;stroke-width:2;stroke-miterlimit:10;}
</style>
<circle class="st0" cx="582.3" cy="335.2" r="209.5"/>
<circle class="st0" cx="582.3" cy="335.2" r="175.9"/>
<circle class="st0" cx="582.3" cy="335.2" r="143"/>
<circle class="st0" cx="582.3" cy="330.9" r="110.3"/>
<circle class="st0" cx="582.3" cy="330.9" r="78.4"/>
<circle class="st0" cx="582.3" cy="330.9" r="50.9"/>
<circle class="st1" cx="582.3" cy="330.9" r="25.9"/>
<circle class="st1" cx="512.3" cy="210.9" r="19.1"/>
<circle class="st1" cx="603.3" cy="403.9" r="15.2"/>
<circle class="st1" cx="432.3" cy="240.9" r="11.6"/>
<circle class="st1" cx="552.3" cy="289.9" r="8"/>
<circle class="st1" cx="612.3" cy="128.9" r="9.2"/>
<circle class="st1" cx="637.3" cy="233.9" r="9.2"/>
<circle class="st1" cx="720.3" cy="225.9" r="15"/>
<ellipse transform="matrix(0.9851 -0.1718 0.1718 0.9851 -28.0526 127.0919)" class="st2" cx="720.2" cy="225.6" rx="25.2" ry="3.6"/>
<polyline class="st0" points="582,331.5 324,331.5 317,306.2 308.5,331.1 299,286 284.3,366.2 275,331.5 -140,331.5 "/>
</svg>
