<svg xmlns="http://www.w3.org/2000/svg" width="30" height="30"><defs><style>path,circle{fill:#fff}</style></defs><path class="st0" d="M15 3.5c3.7 0 4.2 0 5.6.1 1.4.1 2.1.3 2.6.5.7.3 1.1.6 1.6 1 .5.5.8 1 1 1.6.2.5.4 1.2.5 2.6.1 1.5.1 1.9.1 5.6s0 4.2-.1 5.6c-.1 1.4-.3 2.1-.5 2.6-.3.7-.6 1.1-1 1.6-.5.5-1 .8-1.6 1-.5.2-1.2.4-2.6.5-1.5.1-1.9.1-5.6.1s-4.2 0-5.6-.1c-1.4-.1-2.1-.3-2.6-.5-.7-.3-1.1-.6-1.6-1-.5-.5-.8-1-1-1.6-.2-.5-.4-1.2-.5-2.6-.1-1.5-.1-1.9-.1-5.6s0-4.2.1-5.6c0-1.3.2-2.1.4-2.5.3-.7.6-1.1 1-1.6.5-.5 1-.8 1.6-1 .5-.3 1.3-.5 2.7-.6 1.4 0 1.9-.1 5.6-.1M15 1c-3.8 0-4.3 0-5.8.1s-2.5.3-3.4.7c-.9.3-1.7.8-2.4 1.6-.8.7-1.3 1.5-1.6 2.4-.4.9-.6 1.9-.7 3.4-.1 1.5-.1 2-.1 5.8s0 4.3.1 5.8.3 2.5.6 3.4c.4.9.8 1.7 1.6 2.5s1.6 1.3 2.5 1.6c.9.3 1.9.6 3.4.6 1.5.1 2 .1 5.8.1s4.3 0 5.8-.1 2.5-.3 3.4-.6c.9-.4 1.7-.8 2.5-1.6s1.3-1.6 1.6-2.5c.3-.9.6-1.9.6-3.4.1-1.5.1-2 .1-5.8s0-4.3-.1-5.8-.3-2.5-.6-3.4c-.4-.9-.8-1.7-1.6-2.5S25.1 2 24.2 1.7c-.9-.3-1.9-.6-3.4-.6-1.5-.1-2-.1-5.8-.1z"/><path class="st0" d="M15 7.8c-4 0-7.2 3.2-7.2 7.2s3.2 7.2 7.2 7.2 7.2-3.2 7.2-7.2S19 7.8 15 7.8zm0 11.9c-2.6 0-4.7-2.1-4.7-4.7s2.1-4.7 4.7-4.7 4.7 2.1 4.7 4.7-2.1 4.7-4.7 4.7z"/><circle class="st0" cx="22.5" cy="7.5" r="1.7" fill="#fff"/></svg>
