<?xml version="1.0" encoding="utf-8"?>
<!-- Generator: Adobe Illustrator 22.1.0, SVG Export Plug-In . SVG Version: 6.00 Build 0)  -->
<svg version="1.1" id="レイヤー_1" xmlns="http://www.w3.org/2000/svg" xmlns:xlink="http://www.w3.org/1999/xlink" x="0px"
	 y="0px" width="94px" height="60px" viewBox="0 0 94 60" style="enable-background:new 0 0 94 60;" xml:space="preserve">
<style type="text/css">
	.st0{fill:#CF0037;}
</style>
<g>
	<g>
		<path class="st0" d="M5.6,56.6H3.4V59H2.7v-6.3h2.9c1.9,0,2.6,0.8,2.6,2C8.2,55.8,7.4,56.6,5.6,56.6z M5.6,53.3H3.4V56h2.2
			c1.2,0,1.9-0.4,1.9-1.4C7.5,53.7,6.8,53.3,5.6,53.3z"/>
		<path class="st0" d="M13.6,56.2l2.3,2.8H15L13,56.3h-2.2V59H10v-6.3h3c1.6,0,2.4,0.7,2.4,1.8C15.4,55.4,14.8,56.1,13.6,56.2z
			 M13,53.3h-2.3v2.5h2.2c1.2,0,1.7-0.5,1.7-1.3C14.7,53.7,14.2,53.3,13,53.3z"/>
		<path class="st0" d="M20.4,59.1c-2.5,0-3.5-1.2-3.5-3.3c0-2.1,1-3.3,3.5-3.3c2.5,0,3.5,1.2,3.5,3.3C23.9,57.9,23,59.1,20.4,59.1z
			 M20.4,53.2c-2,0-2.7,0.8-2.7,2.6c0,1.8,0.8,2.6,2.7,2.6c2,0,2.7-0.8,2.7-2.6C23.2,54,22.4,53.2,20.4,53.2z"/>
		<path class="st0" d="M26.6,53.4v2.1h3.8v0.6h-3.8V59h-0.7v-6.3h5.2l0,0.7H26.6z"/>
		<path class="st0" d="M38.3,58.3l0,0.7h-5.4v-6.3H38l0,0.7h-4.5v2.1h3.9V56h-3.9v2.3H38.3z"/>
		<path class="st0" d="M42.1,59.1c-1,0-1.8-0.2-2.5-0.6l0.1-0.7c0.7,0.4,1.4,0.6,2.4,0.6c1.3,0,2-0.6,2-1.3c0-1.7-4.4-0.5-4.4-2.8
			c0-0.9,0.7-1.8,2.6-1.8c0.8,0,1.6,0.1,2.2,0.4l-0.1,0.6c-0.7-0.3-1.4-0.4-2.1-0.4c-1.4,0-1.9,0.6-1.9,1.1c0,1.6,4.4,0.4,4.4,2.8
			C44.8,58.2,43.9,59.1,42.1,59.1z"/>
		<path class="st0" d="M48.4,59.1c-1,0-1.8-0.2-2.5-0.6l0.1-0.7c0.7,0.4,1.4,0.6,2.4,0.6c1.3,0,2-0.6,2-1.3c0-1.7-4.4-0.5-4.4-2.8
			c0-0.9,0.7-1.8,2.6-1.8c0.8,0,1.6,0.1,2.2,0.4l-0.1,0.6c-0.7-0.3-1.4-0.4-2.1-0.4c-1.4,0-1.9,0.6-1.9,1.1c0,1.6,4.4,0.4,4.4,2.8
			C51.2,58.2,50.2,59.1,48.4,59.1z"/>
		<path class="st0" d="M53.1,52.7h0.7V59h-0.7V52.7z"/>
		<path class="st0" d="M59.5,59.1c-2.5,0-3.5-1.2-3.5-3.3c0-2.1,1-3.3,3.5-3.3c2.5,0,3.5,1.2,3.5,3.3C63,57.9,62,59.1,59.5,59.1z
			 M59.5,53.2c-2,0-2.7,0.8-2.7,2.6c0,1.8,0.8,2.6,2.7,2.6c2,0,2.7-0.8,2.7-2.6C62.2,54,61.5,53.2,59.5,53.2z"/>
		<path class="st0" d="M70.8,59l-4.7-4.9l-0.4-0.5l0,0l0,0.7V59H65v-6.3h0.7l4.5,4.8l0.5,0.5l0,0l0-0.7l0-4.5h0.6V59H70.8z"/>
		<path class="st0" d="M78.7,57.4h-4.4L73.5,59h-0.8l3.4-6.3H77l3.4,6.3h-0.8L78.7,57.4z M76.3,53.8l-1.6,3h3.7l-1.5-3l-0.3-0.6h0
			L76.3,53.8z"/>
		<path class="st0" d="M87,58.3l0,0.7h-5.1v-6.3h0.7v5.6H87z"/>
		<path class="st0" d="M90.5,59.1c-1,0-1.8-0.2-2.5-0.6l0.1-0.7c0.7,0.4,1.4,0.6,2.4,0.6c1.3,0,2-0.6,2-1.3c0-1.7-4.4-0.5-4.4-2.8
			c0-0.9,0.7-1.8,2.6-1.8c0.8,0,1.6,0.1,2.2,0.4l-0.1,0.6c-0.7-0.3-1.4-0.4-2.1-0.4c-1.4,0-1.9,0.6-1.9,1.1c0,1.6,4.4,0.4,4.4,2.8
			C93.2,58.2,92.3,59.1,90.5,59.1z"/>
	</g>
	<g>
		<g>
			<path class="st0" d="M18.5,45.5c-0.3-0.7-2.3-6.4-3.3-9.4c0,0-0.3-1.2-1.1-1.2c-0.2,0-1.8,0-1.8,0s-0.9-0.1-1.4,1.3
				c-1.1,2.9-3.1,8.6-3.4,9.3C7.1,44.4,4,34.7,4,34.7H0.8l5,15.3h3c0,0,3.8-10.1,4.2-11c0.4,1,4,11,4,11H20l5.1-15.3H22
				C22,34.7,18.8,44.4,18.5,45.5z"/>
			<path class="st0" d="M29.8,46.4v-2.9c0.4,0,8.8,0,8.8,0v-2.7c0,0-8.3,0-8.8,0v-2.6c0,0,0-0.8,0.9-0.8c1.8,0,7.6,0,10.2,0
				c1.1,0,1.3-2.7,1.3-2.7s-12,0-12.1,0c-3.6,0-3.4,3.1-3.4,3.1v9c0,0,0,3.2,3.5,3.2c0.4,0,12.1,0,12.1,0s0.1-2.6-1.3-2.7
				c-2.6,0-8.3,0-10.3,0C29.6,47.3,29.8,46.4,29.8,46.4z"/>
		</g>
		<path class="st0" d="M85.7,36.2c0,0-0.6-1.5-2.2-1.5l-2.5,0c-1.6,0-2.2,1.5-2.2,1.5L72.1,50h3.6l1.4-2.9l10.2,0l1.4,2.9h3.6
			L85.7,36.2z M78,44.7c0,0,2.1-4.7,3.2-6.8c0.2-0.3,0.4-0.7,1-0.7c0.6,0,0.8,0.4,1,0.7c1.1,2,3.2,6.8,3.2,6.8L78,44.7z"/>
		<g>
			<path class="st0" d="M47.2,46.4c0-2.8,0-11.8,0-11.8h-3v12.2c0,0-0.2,3.1,3,3.1c0.4,0,10.2,0,10.2,0s0.1-2.7-1.3-2.7
				c-2.1,0-6.2,0-8,0C47.6,47.3,47.2,46.9,47.2,46.4z"/>
		</g>
		<path class="st0" d="M61.8,46.4c0-2.8,0-11.8,0-11.8h-3v12.2c0,0-0.2,3.1,3,3.1c0.4,0,8.7,0,8.7,0s0.6-1.1,1.3-2.6
			c-2.1,0-7.2,0-9,0C62.2,47.3,61.8,46.9,61.8,46.4z"/>
		<g>
			<path class="st0" d="M75.1,20c-4.3-0.4-10.7,2.7-12.1,3.3c-3.1,1.3-5.8,2.4-9.2,2.8C45.2,27,40.7,21.3,37.9,19
				c-1.1-0.9-2.1-1.8-3.4-2.3c-0.7-0.3-1.4-0.5-2.1-0.4c-0.2,0-0.8,0.1-0.8,0.4c0,0.3,0.7,0.2,1.6,0.9c0.9,0.7,1.8,1.4,2.5,2.2
				c1.1,1.2,2.5,2.6,3.6,3.8c5.8,5.6,9.3,5.7,10.9,5.9c7.4,0.7,13.1-2.8,18.3-4.9c6-2.5,9.4-1.9,11.1,1.1c0.3,0.5,0.6,0.2,0.5-0.6
				C80,22.5,78.3,20.3,75.1,20z"/>
			<path class="st0" d="M25.9,27.9c-1-1.1-2.4-1.6-3.9-1.8c-1.6-0.3-3.3-0.2-4.9-0.1c-0.7,0-1.6,0.2-2.3,0.1c-0.9-0.2-0.8-1-0.6-1.7
				c0.1-0.3,0.4-0.7,0.4-1c0-0.2-0.1-0.3-0.2-0.5c-0.1-0.1-0.1-0.2-0.2-0.2c-0.1-0.1-0.2-0.1-0.1-0.3c0.1-0.2,0.1-0.4,0.3-0.5
				c0.1-0.1,0.3-0.2,0.4-0.4c0-0.2-0.1-0.3-0.3-0.4c-0.2-0.1-0.8-0.6-0.5-0.8c0.3-0.3,0.5-0.7,0.6-1.1c0-0.4-0.1-0.7-0.5-0.9
				c-0.4-0.2-0.8-0.6-0.9-1c0-0.2,0.7-0.6,0.9-0.7c0.4-0.3,2.8-2,3.3-2.9c0.5-0.8,0.4-1.9,0.5-2.8c0.5-2.3,3-3.6,3.3-3.8
				C21.6,6.7,21.8,6.4,22,6c1.3-1.7,3.4-2.2,5.5-2.1c3.1,0.1,5.8,2,8.3,3.8c2.7,1.9,5.4,3.8,8.3,5.6c8,4.9,12.9,2,18.7-0.6
				C70,9.5,72,10.4,74,12.5c0.3,0.4,0.5-0.1,0.3-0.9c-0.5-1.7-2.3-3.7-5.7-3.6c-3.3,0.1-8.6,2.7-8.6,2.7c-3,1.3-6.7,3.7-13.9,0
				c-2.5-1.3-4.8-3.1-7.2-4.7c-2.4-1.7-4.7-3.4-7.5-4.3c-2.7-1-5.6-1-8.2,0.2c-1.3,0.6-2.5,1.6-3,3C20.1,5,20,5.2,19.9,5.4
				c0,0.1-0.1,0.1-0.2,0.2c-0.1,0.1-1.4,0.7-2.2,1.6c-1,1-1.4,2.4-1.8,3.8c-0.1,0.4-0.2,0.9-0.3,1.3c-0.1,0.5-0.2,0.8-0.6,1.2
				c-0.7,0.7-3.1,2.2-3.4,2.5c-0.2,0.1-0.5,0.3-0.7,0.5c-0.4,0.6,0.2,1.4,0.6,1.8c0.2,0.2,0.6,0.4,0.7,0.8c0,0.3-0.2,0.6-0.4,0.8
				c-0.1,0.1-0.3,0.2-0.3,0.4c0,0.2,0,0.4,0,0.5c0.1,0.4,0.4,0.7,0.7,0.9c-0.5,0.2-1.4,1.2-0.7,1.7c0.4,0.3,0.4,0.6,0.3,1
				c-0.1,0.5-0.2,0.9-0.2,1.4c0,0.8,0.3,1.6,1,1.9c0.8,0.4,1.8,0.3,2.7,0.3c3.4-0.1,7.2-1,10,1.3c1.1,0.9,1.9,2.6,2.1,2.9
				c0.1,0.2,0.5,0.2,0.4-0.1C27.4,30.6,26.9,29,25.9,27.9z"/>
			<path class="st0" d="M44.1,20.7c4.1,2.1,8.3,4,19.6-1.2l0,0c0,0,0,0,0.1,0c7.3-3.4,11.1-4,13.6-0.4c0.2,0.3,0.6,0.2,0.4-0.8
				c-0.6-2.8-2.4-4.2-5.2-4.5c-3.3-0.3-8.3,2-8.3,2c-8.8,4-10.8,3.9-14.1,3.3c-5.5-0.9-11.9-6.4-14.1-8.1c-2.1-1.7-4.7-3.5-7.5-3.1
				c-0.7,0.1-1.3,0.3-1.9,0.6c-0.2,0.1-1.1,0.6-1,0.9c0.1,0.2,0.4,0.2,0.6,0.1c0.4-0.1,0.7-0.1,1.1-0.2c1.6-0.2,3.9,0.3,6.7,2.7
				C37.6,15.2,40.7,18.9,44.1,20.7z"/>
		</g>
	</g>
</g>
</svg>
