<svg xmlns="http://www.w3.org/2000/svg" viewBox="0 0 330 36" width="330" height="36" fill="#4d4398">
<path d="M201.41,17.47C201.41,5.22,205.28,0,214.35,0a15.87,15.87,0,0,1,7.26,1.71l.55.33-.77,2.75-.93-.52a13.26,13.26,0,0,0-6.11-1.49c-6,0-9.94,2.5-9.94,14.69,0,13.08,3.84,15.71,10,15.71a12.34,12.34,0,0,0,6.16-1.62l.86-.48.92,2.54-.59.35a15.4,15.4,0,0,1-7.44,2C205.28,36,201.41,30.46,201.41,17.47Z"/>
<path d="M225.48,18c0-13.09,3.31-18,12.23-18s12.15,4.7,12.15,18-3.29,18-12.15,18S225.48,31.11,225.48,18Zm21.42,0c0-12.91-3-15.18-9.19-15.18S228.48,5.05,228.48,18s3.11,15.22,9.23,15.22S246.9,30.82,246.9,18Z"/>
<polygon points="256.57 35.43 256.57 0.49 259.52 0.49 259.52 32.56 274.97 32.56 274.77 35.43 256.57 35.43"/>
<path d="M277.45,18c0-13.09,3.32-18,12.24-18s12.14,4.7,12.14,18-3.29,18-12.14,18S277.45,31.11,277.45,18Zm21.43,0c0-12.91-3-15.18-9.19-15.18S280.45,5.05,280.45,18s3.11,15.22,9.24,15.22S298.88,30.82,298.88,18Z"/>
<path d="M308.54,35.43V.49h9.75c6,0,8.95,3,8.95,9.26,0,5.37-2.16,8.47-6.43,9.24l9,16.44h-3.59l-8.61-16.11h-6.07V35.43Zm3-32.17V16.59h6.53c4.47,0,6.21-1.91,6.21-6.8,0-4.7-1.68-6.53-6-6.53Z"/>
<rect x="0.19" y="0.49" width="2.96" height="34.93"/>
<polygon points="10.91 35.42 10.91 0.49 13.86 0.49 13.86 32.55 29.32 32.55 29.1 35.42 10.91 35.42"/>
<polygon points="34 35.42 34 0.49 36.96 0.49 36.96 32.55 52.41 32.55 52.21 35.42 34 35.42"/>
<path d="M56.13,23.41V.49h2.95v23c0,6.78,2.51,9.67,8.39,9.67s8.35-3,8.35-9.67V.49h3V23.41C78.77,31.76,75,36,67.47,36S56.13,31.76,56.13,23.41Z"/>
<polygon points="86.58 35.42 86.58 0.49 89.74 0.49 100.42 30.52 100.82 29.31 111.13 0.49 114.2 0.49 114.2 35.42 111.38 35.42 111.38 7.94 101.58 35.42 99.16 35.42 89.4 8.19 89.4 35.42 86.58 35.42"/>
<rect x="123.29" y="0.49" width="2.96" height="34.93"/>
<polygon points="135.31 35.42 135.31 0.49 138.27 0.49 154.7 29.39 154.69 28.97 154.64 0.49 157.47 0.49 157.47 35.42 155.09 35.42 138.22 5.99 138.22 6.46 138.22 35.42 135.31 35.42"/>
<polygon points="162.74 25.66 163.72 22.89 177.34 22.89 171.77 6.29 170.55 2.35 171.15 0.49 172.8 0.49 184.77 35.42 181.54 35.42 178.26 25.66 162.74 25.66"/>
</svg>
