<?xml version="1.0" encoding="UTF-8"?>
<svg width="602px" height="66px" viewBox="0 0 602 66" version="1.1" xmlns="http://www.w3.org/2000/svg" xmlns:xlink="http://www.w3.org/1999/xlink">
    <!-- Generator: Sketch 61 (89581) - https://sketch.com -->
    <title>Illumina Color</title>
    <desc>Created with Sketch.</desc>
    <g id="Page-1" stroke="none" stroke-width="1" fill="none" fill-rule="evenodd">
        <g id="1-PC-Top-Page-Copy" transform="translate(-419.000000, -306.000000)" fill="#FFFFFF">
            <g id="Illumina-Color" transform="translate(419.000000, 306.000000)">
                <path d="M390.457976,66 C374.016773,66 367,55.8398621 367,32.0226305 C367,9.57810227 374.017944,0 390.457976,0 C395.111611,0 400.647469,1.32410151 403.6175,3.14370386 L404.598138,3.74470607 L403.20978,8.77439517 L401.533206,7.82606821 C399.187643,6.50670834 395.047173,5.09251576 390.457976,5.09251576 C379.640501,5.09251576 372.435099,9.67293496 372.435099,32.0226305 C372.435099,56.0105609 379.393291,60.8304327 390.622002,60.8304327 C394.591416,60.8304327 398.242153,59.8560267 401.774558,57.8503152 L403.328112,56.9719274 L405,61.6305835 L403.93735,62.2825583 C400.250293,64.5419473 394.963988,66 390.457976,66" id="Fill-1"></path>
                <path d="M433.58115,66 C417.119656,66 411,57.034754 411,32.9199849 C411,8.92375667 417.119656,0 433.58115,0 C450.13334,0 456,8.61555041 456,32.9199849 C456,57.034754 449.922112,66 433.58115,66 M433.58115,5.09251576 C422.029225,5.09251576 416.5349,9.25448569 416.5349,32.9199849 C416.5349,56.5119888 422.275061,60.8304327 433.58115,60.8304327 C444.832343,60.8304327 450.541477,56.5119888 450.541477,32.9199849 C450.541477,9.25448569 445.072213,5.09251576 433.58115,5.09251576" id="Fill-2"></path>
                <polyline id="Fill-3" points="501.621426 65 468 65 468 1 473.461257 1 473.461257 59.7450313 502 59.7450313 501.621426 65"></polyline>
                <path d="M528.582348,66 C512.119981,66 506,57.034754 506,32.9199849 C506,8.92375667 512.119981,0 528.582348,0 C545.130642,0 551,8.61555041 551,32.9199849 C551,57.034754 544.92537,66 528.582348,66 M528.582348,5.09251576 C517.03697,5.09251576 511.536387,9.25448569 511.536387,32.9199849 C511.536387,56.5119888 517.276852,60.8304327 528.582348,60.8304327 C539.835331,60.8304327 545.544767,56.5119888 545.544767,32.9199849 C545.544767,9.25448569 540.075213,5.09251576 528.582348,5.09251576" id="Fill-4"></path>
                <path d="M602,65 L595.412675,65 L579.634863,35.5013509 L568.496748,35.5013509 L568.496748,65 L563,65 L563,1 L580.875988,1 C591.920456,1 597.286809,6.54987231 597.286809,17.9634702 C597.286809,27.8018802 593.325167,33.4855842 585.501459,34.8925941 L602,65 M568.496748,6.08679078 L568.496748,30.491543 L580.471763,30.491543 C588.672432,30.491543 591.865927,27.0012584 591.865927,18.0475591 C591.865927,9.43969059 588.786231,6.08679078 580.875988,6.08679078 L568.496748,6.08679078" id="Fill-5"></path>
                <polygon id="Fill-6" points="0 65 5 65 5 1 0 1"></polygon>
                <polyline id="Fill-7" points="52.5962619 65 19 65 19 1 24.4504637 1 24.4504637 59.7490096 53 59.7490096 52.5962619 65"></polyline>
                <polyline id="Fill-8" points="95.6214394 65 62 65 62 1 67.4670366 1 67.4670366 59.7490096 96 59.7490096 95.6214394 65"></polyline>
                <path d="M122.543897,66 C108.911178,66 102,58.247587 102,42.9558368 L102,1 L107.353119,1 L107.353119,43.0398834 C107.353119,55.4598434 111.897359,60.7595156 122.543897,60.7595156 C132.990264,60.7595156 137.646881,55.2964852 137.646881,43.0398834 L137.646881,1 L143,1 L143,42.9558368 C143,58.247587 136.119258,66 122.543897,66" id="Fill-9"></path>
                <polyline id="Fill-10" points="207.998829 65 202.887614 65 202.887614 14.6404902 185.15055 65 180.772185 65 163.105362 15.1120367 163.105362 65 158 65 158.001171 1 163.708265 1 183.056193 56.0121811 183.776165 53.8108408 202.450948 1 208 1 207.998829 65"></polyline>
                <polyline id="Fill-11" points="229.998907 65 225 65 225 1 230 1 229.998907 65"></polyline>
                <polyline id="Fill-12" points="287 65 282.703155 65 252.244696 11.0730867 252.255202 11.9367988 252.255202 65 247 65 247 1 252.345084 1 282.009776 53.9482765 281.988765 53.1864564 281.903552 1 287 1 287 65"></polyline>
                <polyline id="Fill-13" points="337 65 331.13612 65 325.175975 47.1203303 297 47.1203303 298.778534 42.0316561 323.513662 42.0316561 313.395386 11.6299382 311.187186 4.41338072 312.270742 1 315.269011 1 337 65"></polyline>
            </g>
        </g>
    </g>
</svg>