<?xml version="1.0" encoding="utf-8"?>
<!-- Generator: Adobe Illustrator 21.1.0, SVG Export Plug-In . SVG Version: 6.00 Build 0)  -->
<svg version="1.1" id="レイヤー_1" xmlns="http://www.w3.org/2000/svg" xmlns:xlink="http://www.w3.org/1999/xlink" x="0px"
	 y="0px" width="184px" height="16px" viewBox="0 0 184 16" style="enable-background:new 0 0 184 16;" xml:space="preserve">
<style type="text/css">
	.st0{fill:#5A498E;}
</style>
<g>
	<g>
		<path class="st0" d="M10.6,13.3L8.4,4.9h0l-2.2,8.4H4.7l-3.3-12h1.8l2.3,9h0l2.3-9H9l2.3,8.9h0l2.3-8.9h1.8l-3.3,12H10.6z"/>
		<path class="st0" d="M25.9,13.3V8.1h-4.9v5.2h-1.7v-12h1.7v5.2h4.9V1.3h1.7v12H25.9z"/>
		<path class="st0" d="M40.1,13.3l-1.3-3.5h-4.3l-1.3,3.5h-1.8l4.5-12h1.6l4.5,12H40.1z M38.1,8.2l-1.5-4.6h0l-1.5,4.6H38.1z"/>
		<path class="st0" d="M46.8,13.3V2.9h-2.3V1.3h6.3v1.6h-2.3v10.4H46.8z"/>
		<path class="st0" d="M56.3,3.1c0,0.6-0.1,1.9-1.7,2.2v-1c0.2-0.1,0.6-0.2,0.6-0.9V3.3h-0.6v-2h1.7V3.1z"/>
		<path class="st0" d="M60.4,9.7c0,0.4,0.2,2.2,1.9,2.2c1.1,0,1.9-0.8,1.9-2c0-1.3-1.1-1.6-1.9-2c-1.6-0.6-2-0.8-2.5-1.3
			C59.2,6.1,59,5.2,59,4.3c0-1.4,1.1-3.2,3.3-3.2c2,0,3.4,1.3,3.4,3.3H64c0-1.3-1-1.7-1.7-1.7c-1,0-1.6,0.9-1.6,1.6
			c0,1.1,1.1,1.5,1.6,1.6C63.8,6.5,66,7,66,9.9c0,2.1-1.5,3.6-3.7,3.6c-1.6,0-3.7-1.1-3.7-3.8H60.4z"/>
	</g>
	<g>
		<path class="st0" d="M93.9,6.8V8h-4.7v5c0,0.6,0.2,0.6,1.5,0.6c1.3,0,1.7-0.1,1.8-0.5c0.1-0.3,0.2-1.1,0.2-2.3l1.2,0.4
			c-0.1,2.1-0.3,2.9-0.7,3.3c-0.4,0.3-1.1,0.4-2.5,0.4c-2.4,0-2.8-0.2-2.8-1.3V8h-2.3c0,3.9-1.4,5.9-4.9,7.2l-0.8-1.1
			c3.3-1.1,4.4-2.5,4.5-6H80V6.8h6.2V1.1h1.3v5.7H93.9z M83.3,6.1c-0.6-1.3-1.2-2.4-1.9-3.4l1.1-0.6c0.7,0.9,1.3,2.1,1.9,3.4
			L83.3,6.1z M89.1,5.6c0.8-1.1,1.5-2.4,2-3.7l1.3,0.5c-0.7,1.5-1.5,2.8-2.2,3.7L89.1,5.6z"/>
		<path class="st0" d="M106.3,2.6c-0.1-0.5-0.1-1.2-0.2-2h1.2c0,0.8,0.1,1.3,0.2,1.8c0,0.1,0,0.1,0,0.1h2.3l0-0.1
			c-0.4-0.5-0.8-0.9-1.3-1.3l1-0.5c0.5,0.3,0.9,0.7,1.4,1.3l-0.9,0.6h2.3v1h-4.5c0.3,1.4,0.6,2.2,1.1,3.2c0.5-0.7,0.9-1.6,1.3-2.5
			l1,0.5c-0.5,1.1-1,2.1-1.6,3c0.5,0.6,1.3,1.3,1.5,1.3c0.2,0,0.3-0.3,0.5-1.8l1,0.5c-0.3,1.9-0.6,2.7-1.2,2.7
			c-0.6,0-1.6-0.7-2.6-1.8c-0.7,0.7-1.4,1.3-2.2,1.9l-0.8-0.8c1-0.6,1.6-1.1,2.4-2c-0.7-1.1-1.2-2.5-1.5-4.2h-5.9v1.6
			c0,3-0.3,4.4-1.4,5.7l-1-0.9c0.9-1.1,1.2-2.2,1.2-4.6V2.6H106.3z M98.4,14.2c0.8-0.9,1.4-1.9,1.8-3.1l1.1,0.4
			c-0.4,1.4-1.1,2.6-1.8,3.5L98.4,14.2z M106.2,4.6v0.9h-5.1V4.6H106.2z M105.8,9.4h-3.4v0.7h-1V6.3h4.4V9.4z M103.6,10.8v2.3
			c0,0.6,0.2,0.7,2.1,0.7c1.5,0,2.1-0.1,2.3-0.3c0.2-0.2,0.2-0.6,0.3-1.4l1.2,0.3c-0.1,1.2-0.2,1.8-0.6,2.1
			c-0.4,0.3-1.2,0.4-3.2,0.4c-1.5,0-2.3-0.1-2.6-0.2c-0.4-0.2-0.6-0.5-0.6-1.1v-2.9H103.6z M102.5,8.5h2.4V7.2h-2.4V8.5z M106,12.9
			c-0.5-0.7-1.1-1.4-1.8-2l0.9-0.6c0.6,0.5,1.2,1.2,1.8,1.9L106,12.9z M111.6,14.4c-0.9-1.3-1.7-2.4-2.5-3.1l1-0.6
			c0.9,0.8,1.7,1.8,2.5,2.9L111.6,14.4z"/>
		<path class="st0" d="M130.4,2.4v1.1h-11.4v1.7h2.6V3.9h1.2v1.2h3.3V3.9h1.1v1.2h3.3v1h-3.3v2.2h-5.6V6.2h-2.6v1
			c0,4.3-0.3,5.9-1.7,8.1l-0.9-1c1.1-1.6,1.4-3.3,1.4-7V2.4h5.6V0.7h1.3v1.7H130.4z M130,15.1c-2-0.3-3.7-0.9-5.1-1.6
			c-1.5,0.8-3.1,1.4-5.4,1.8l-0.7-1.1c1.9-0.3,3.7-0.8,5-1.4c-1.1-0.7-2-1.6-2.7-2.5h-1.4v-1h8.4l0.6,0.5c-0.7,1-1.8,2.2-2.8,2.9
			c1.2,0.5,2.9,0.9,4.8,1.1L130,15.1z M122.5,10.3c0.6,0.8,1.5,1.5,2.4,2c0.9-0.6,1.7-1.3,2.2-2H122.5z M122.8,7.5h3.3V6.2h-3.3V7.5
			z"/>
		<path class="st0" d="M146.7,4.6c0,3.9-0.2,7-0.5,8.5c-0.2,1.1-0.7,1.5-1.7,1.5c-0.9,0-1.9-0.2-2.8-0.5l-0.1-1.4
			c0.8,0.4,1.8,0.6,2.3,0.6l0.2,0c0.5,0,0.7-0.2,0.8-0.8c0.2-1.3,0.4-3.8,0.5-6.6h-3.8c-0.2,4-2.1,7.1-5.2,8.9l-0.9-1.1
			c2.9-1.5,4.6-4.3,4.8-7.8h-4.5V4.6h4.6V1.3h1.3v3.2H146.7z"/>
		<path class="st0" d="M163.3,5.9l0.7,0.7c-1.2,4.2-3.9,7-8,8.3l-0.8-1.2c3.6-0.9,6.3-3.3,7.2-6.6h-9.8V5.9H163.3z M162.6,2.1v1.3
			H154V2.1H162.6z"/>
		<path class="st0" d="M182.7,7.3v1.4h-13V7.3H182.7z"/>
	</g>
</g>
</svg>
