<?xml version="1.0" encoding="utf-8"?>
<!-- Generator: Adobe Illustrator 22.1.0, SVG Export Plug-In . SVG Version: 6.00 Build 0)  -->
<svg version="1.1" id="レイヤー_1" xmlns="http://www.w3.org/2000/svg" xmlns:xlink="http://www.w3.org/1999/xlink" x="0px"
	 y="0px" width="22px" height="24px" viewBox="0 0 22 24" style="enable-background:new 0 0 22 24;" xml:space="preserve">
<style type="text/css">
	.st0{fill:#58498E;}
</style>
<g>
	<path class="st0" d="M11.2,21c-0.8,0-1.3-0.6-1.3-0.6l-0.3-0.3C7.3,17.4,4.1,13.7,4.1,10c0-3.8,3.2-7,7-7c4,0,6.9,2.9,6.9,7
		c0,2.8-1.8,6.3-5.4,10.4C12.5,20.5,11.9,21,11.2,21z M11.1,4.2c-3.1,0-5.8,2.7-5.8,5.8c0,3.3,3,6.7,5.2,9.3l0.3,0.3
		c0.1,0.1,0.3,0.2,0.4,0.2c0.2,0,0.4-0.1,0.4-0.2c3.4-3.9,5.1-7.1,5.1-9.6C16.7,7.1,15,4.2,11.1,4.2z"/>
	<path class="st0" d="M11,13.4c-1.9,0-3.5-1.6-3.5-3.5S9.1,6.4,11,6.4s3.5,1.6,3.5,3.5S13,13.4,11,13.4z M11,7.6
		c-1.3,0-2.3,1-2.3,2.3s1,2.3,2.3,2.3s2.3-1,2.3-2.3S12.3,7.6,11,7.6z"/>
</g>
</svg>
