<?xml version="1.0" encoding="utf-8"?>
<!-- Generator: Adobe Illustrator 21.1.0, SVG Export Plug-In . SVG Version: 6.00 Build 0)  -->
<svg version="1.1" id="レイヤー_1" xmlns="http://www.w3.org/2000/svg" xmlns:xlink="http://www.w3.org/1999/xlink" x="0px"
	 y="0px" width="84px" height="34px" viewBox="0 0 84 34" style="enable-background:new 0 0 84 34;" xml:space="preserve">
<style type="text/css">
	.st0{fill:#5A498E;}
</style>
<g>
	<g>
		<path class="st0" d="M23,10.4l-1.7-6.7h0l-1.7,6.7h-1.2l-2.7-9.6H17L18.9,8h0l1.9-7.2h1L23.6,8h0l1.9-7.2H27l-2.7,9.6H23z"/>
		<path class="st0" d="M35.3,10.4V6.2h-4v4.2H30V0.8h1.4v4.1h4V0.8h1.4v9.6H35.3z"/>
		<path class="st0" d="M46.8,10.4l-1.1-2.8h-3.5l-1.1,2.8h-1.5l3.7-9.6h1.3l3.7,9.6H46.8z M45.2,6.3L44,2.6h0l-1.2,3.7H45.2z"/>
		<path class="st0" d="M52.2,10.4V2.1h-1.8V0.8h5.1v1.3h-1.8v8.3H52.2z"/>
		<path class="st0" d="M59.8,2.2c0,0.5-0.1,1.5-1.4,1.8V3.2c0.2-0.1,0.5-0.2,0.5-0.7V2.4h-0.5V0.8h1.4V2.2z"/>
		<path class="st0" d="M63.1,7.5c0,0.3,0.1,1.7,1.6,1.7c0.9,0,1.5-0.6,1.5-1.6c0-1.1-0.9-1.3-1.5-1.6c-1.3-0.5-1.6-0.7-2-1.1
			C62.2,4.6,62,3.9,62,3.2c0-1.1,0.9-2.6,2.7-2.6c1.6,0,2.8,1.1,2.8,2.7H66c0-1.1-0.8-1.4-1.4-1.4c-0.8,0-1.3,0.8-1.3,1.3
			c0,0.9,0.9,1.2,1.3,1.3c1.2,0.5,3,0.8,3,3.1c0,1.7-1.2,2.9-3,2.9c-1.3,0-3-0.9-3-3H63.1z"/>
	</g>
	<g>
		<path class="st0" d="M11.9,26.6v0.9H8.1v4c0,0.5,0.1,0.5,1.2,0.5c1,0,1.4-0.1,1.5-0.4c0.1-0.2,0.2-0.9,0.2-1.9l1,0.3
			c-0.1,1.7-0.2,2.4-0.6,2.6c-0.3,0.2-0.9,0.3-2,0.3c-1.9,0-2.3-0.1-2.3-1v-4.5H5.3c0,3.1-1.1,4.7-4,5.8l-0.7-0.9
			c2.7-0.8,3.6-2,3.6-4.9H0.7v-0.9h5V22h1.1v4.6H11.9z M3.4,26c-0.5-1.1-1-2-1.5-2.8l0.9-0.5c0.5,0.8,1.1,1.7,1.6,2.8L3.4,26z
			 M8,25.6c0.6-0.9,1.2-1.9,1.6-3l1,0.4c-0.6,1.2-1.2,2.3-1.8,3L8,25.6z"/>
		<path class="st0" d="M21.9,23.2c-0.1-0.4-0.1-0.9-0.2-1.6h1c0,0.6,0.1,1.1,0.1,1.5c0,0.1,0,0.1,0,0.1h1.8l0-0.1
			c-0.3-0.4-0.7-0.7-1-1l0.8-0.4c0.4,0.3,0.7,0.6,1.1,1.1l-0.7,0.5h1.9V24H23c0.2,1.1,0.5,1.8,0.9,2.6c0.4-0.6,0.8-1.3,1-2l0.8,0.4
			c-0.4,0.9-0.8,1.7-1.3,2.4c0.4,0.5,1,1.1,1.2,1.1c0.2,0,0.3-0.2,0.4-1.5l0.8,0.4c-0.2,1.5-0.5,2.2-1,2.2c-0.5,0-1.3-0.6-2.1-1.5
			c-0.5,0.6-1.1,1.1-1.8,1.5L21.4,29c0.8-0.5,1.3-0.9,1.9-1.6c-0.6-0.8-1-2-1.2-3.4h-4.8v1.3c0,2.4-0.3,3.5-1.1,4.6l-0.8-0.7
			c0.7-0.9,0.9-1.8,0.9-3.7v-2.3H21.9z M15.5,32.5c0.6-0.7,1.1-1.6,1.4-2.5l0.9,0.3c-0.4,1.1-0.9,2.1-1.5,2.8L15.5,32.5z M21.8,24.8
			v0.7h-4.1v-0.7H21.8z M21.5,28.6h-2.7v0.6H18v-3h3.5V28.6z M19.7,29.8v1.9c0,0.5,0.2,0.6,1.7,0.6c1.2,0,1.7-0.1,1.8-0.2
			c0.1-0.2,0.2-0.5,0.2-1.1l0.9,0.3c-0.1,1-0.2,1.5-0.5,1.7c-0.3,0.2-0.9,0.3-2.6,0.3c-1.2,0-1.8-0.1-2.1-0.1
			c-0.4-0.1-0.5-0.4-0.5-0.9v-2.3H19.7z M18.8,27.9h1.9v-1.1h-1.9V27.9z M21.7,31.4c-0.4-0.6-0.9-1.1-1.4-1.6l0.8-0.5
			c0.5,0.4,1,0.9,1.5,1.5L21.7,31.4z M26.2,32.7c-0.7-1.1-1.4-1.9-2-2.5l0.8-0.5c0.7,0.7,1.4,1.4,2,2.4L26.2,32.7z"/>
		<path class="st0" d="M41.3,23v0.8h-9.1v1.4h2.1v-1h0.9v1h2.6v-1h0.9v1h2.6v0.8h-2.6v1.8h-4.5v-1.8h-2.1v0.8c0,3.5-0.3,4.7-1.4,6.5
			l-0.7-0.8c0.9-1.3,1.1-2.7,1.1-5.7V23h4.5v-1.4h1V23H41.3z M40.9,33.2c-1.6-0.3-3-0.7-4.1-1.3c-1.2,0.7-2.5,1.1-4.3,1.5L32,32.5
			c1.5-0.2,3-0.6,4-1.1c-0.9-0.6-1.6-1.2-2.1-2h-1.1v-0.8h6.7L40,29c-0.5,0.8-1.4,1.8-2.3,2.4c0.9,0.4,2.3,0.7,3.8,0.9L40.9,33.2z
			 M34.9,29.4c0.5,0.6,1.2,1.2,1.9,1.6c0.8-0.5,1.4-1,1.7-1.6H34.9z M35.2,27.1h2.6v-1.1h-2.6V27.1z"/>
		<path class="st0" d="M54.4,24.8c0,3.1-0.2,5.6-0.4,6.8c-0.2,0.8-0.6,1.2-1.4,1.2c-0.7,0-1.5-0.2-2.2-0.4l-0.1-1.2
			c0.6,0.3,1.4,0.5,1.9,0.5l0.2,0c0.4,0,0.5-0.2,0.6-0.6c0.2-1,0.3-3,0.4-5.3h-3c-0.2,3.2-1.7,5.7-4.2,7.2l-0.8-0.9
			c2.4-1.2,3.7-3.4,3.9-6.3h-3.6v-1h3.7v-2.6h1v2.6H54.4z"/>
		<path class="st0" d="M67.7,25.8l0.6,0.5c-1,3.4-3.1,5.7-6.4,6.7l-0.7-0.9c2.9-0.7,5-2.7,5.8-5.3h-7.9v-1H67.7z M67.2,22.8v1h-6.9
			v-1H67.2z"/>
		<path class="st0" d="M83.3,26.9V28H72.8v-1.1H83.3z"/>
	</g>
</g>
</svg>
