<?xml version="1.0" encoding="utf-8"?>
<!-- Generator: Adobe Illustrator 22.1.0, SVG Export Plug-In . SVG Version: 6.00 Build 0)  -->
<svg version="1.1" id="レイヤー_1" xmlns="http://www.w3.org/2000/svg" xmlns:xlink="http://www.w3.org/1999/xlink" x="0px"
	 y="0px" width="22px" height="24px" viewBox="0 0 22 24" style="enable-background:new 0 0 22 24;" xml:space="preserve">
<style type="text/css">
	.st0{fill:#58498E;}
</style>
<path class="st0" d="M15.2,13.2c0-0.2,0-0.5,0-0.7V6.2c0.3-0.2,0.4-0.5,0.4-0.9c0-0.6-0.5-1.1-1.1-1.1h-0.2
	c-0.3-0.2-0.8-0.3-1.3-0.4V1.8c0-0.1,0-0.1,0-0.2c-0.1-0.3-0.5-0.8-1.9-0.8c-1.4,0-1.8,0.5-1.9,0.8c0,0.1,0,0.1,0,0.2v2.1
	C8.6,4,8.1,4.1,7.8,4.3H7.6c-0.6,0-1.1,0.5-1.1,1.1c0,0.3,0.2,0.7,0.4,0.9v6.3c0,0.2,0,0.5,0,0.7l-1.1,8c-0.1,0.5,0.2,1,0.7,1.2
	c0.1,0,1.7,0.8,4.6,0.8c2.9,0,4.5-0.7,4.6-0.8c0.5-0.2,0.7-0.7,0.7-1.2L15.2,13.2z M13.9,11H8.1l0-2.4h5.9V11z M8.3,5.4
	C8.4,5.3,8.8,5.1,9.7,5c0.3,0,0.5-0.3,0.5-0.6V2.1C10.4,2.1,10.6,2,11,2c0.4,0,0.6,0,0.7,0.1v2.3C11.7,4.7,12,5,12.3,5
	c0.9,0.1,1.3,0.3,1.4,0.4c0.1,0.1,0.2,0.1,0.3,0.1c-0.1,0.1-0.1,0.3-0.1,0.4v1.5H8.1l0-1.4c0-0.2,0-0.3-0.1-0.5c0,0,0,0,0,0
	C8.1,5.5,8.2,5.5,8.3,5.4z M11,22c-2.5,0-3.9-0.6-4.1-0.6c0,0,0,0,0,0l1.1-8c0-0.2,0.1-0.6,0.1-0.8l0-0.3h5.9v0.3
	c0,0.2,0,0.6,0.1,0.8l1.1,7.9C14.9,21.4,13.5,22,11,22z"/>
</svg>
