<?xml version="1.0" encoding="utf-8"?>
<!-- Generator: Adobe Illustrator 21.1.0, SVG Export Plug-In . SVG Version: 6.00 Build 0)  -->
<svg version="1.1" id="レイヤー_1" xmlns="http://www.w3.org/2000/svg" xmlns:xlink="http://www.w3.org/1999/xlink" x="0px"
	 y="0px" width="12px" height="13px" viewBox="0 0 12 13" style="enable-background:new 0 0 12 13;" xml:space="preserve">
<style type="text/css">
	.st0{fill:#FFFFFF;}
</style>
<path class="st0" d="M11.3,3.2c-0.4,0.2-0.8,0.3-1.2,0.3c0.4-0.3,0.8-0.7,0.9-1.2c-0.4,0.2-0.9,0.4-1.4,0.5C9.2,2.5,8.6,2.2,8,2.2
	c-1.2,0-2.2,1-2.2,2.2c0,0.2,0,0.3,0.1,0.5C4.1,4.8,2.5,3.9,1.5,2.6C1.3,2.9,1.2,3.3,1.2,3.7c0,0.7,0.4,1.4,1,1.8
	c-0.4,0-0.7-0.1-1-0.3c0,0,0,0,0,0c0,1,0.7,1.9,1.7,2.1C2.7,7.4,2.5,7.4,2.3,7.4c-0.1,0-0.3,0-0.4,0c0.3,0.9,1.1,1.5,2,1.5
	C3.2,9.5,2.3,9.8,1.3,9.8c-0.2,0-0.3,0-0.5,0c1,0.6,2.1,1,3.3,1c4,0,6.1-3.3,6.1-6.1c0-0.1,0-0.2,0-0.3C10.6,4.1,11,3.7,11.3,3.2z"
	/>
</svg>
