<svg xmlns="http://www.w3.org/2000/svg" viewBox="0 0 25.85 24.22"><path d="M8.52 1c1 5.51 1.84 6.33 7.35 7.34-5.51 1-6.33 1.84-7.35 7.35-1-5.51-1.83-6.33-7.34-7.35C6.69 7.33 7.51 6.51 8.52 1m0-1a1 1 0 0 0-1 .82C6.6 5.93 6.11 6.42 1 7.36a1 1 0 0 0 0 2c5.11.94 5.6 1.43 6.54 6.54a1 1 0 1 0 2 0c.94-5.11 1.43-5.6 6.54-6.54a1 1 0 1 0 0-2C11 6.42 10.48 5.93 9.54.82a1 1 0 0 0-1-.82zM20 13.66c.65 3.5 1.17 4 4.67 4.67C21.18 19 20.63 19.5 20 23c-.64-3.5-1.16-4-4.67-4.67 3.51-.65 4-1.17 4.67-4.67m0-1a1 1 0 0 0-1 .82c-.57 3.08-.78 3.3-3.87 3.87a1 1 0 0 0 0 2c3.09.57 3.3.79 3.87 3.87a1 1 0 0 0 2 0c.57-3.08.78-3.3 3.87-3.87a1 1 0 0 0 0-2c-3.09-.57-3.3-.79-3.87-3.87a1 1 0 0 0-1-.82z" fill="#fff"/></svg>
