<svg xmlns="http://www.w3.org/2000/svg" viewBox="0 0 25.01 25.37"><defs><style>.cls-1{fill:none;stroke:#5a498e;stroke-miterlimit:10}</style></defs><path class="cls-1" d="M12.05 15.75c-.94-3.6-5.22-6.35-9.27-5.85l-1.45.21a.77.77 0 0 0-.63.39.76.76 0 0 0-.17.72l.22 1.31a7.87 7.87 0 0 0 7.13 6.06 8.8 8.8 0 0 0 1.92 0l.7-.08 1.18-.21"/><path stroke-linecap="round" stroke-linejoin="round" fill="none" stroke="#5a498e" d="M16.93 7.95l-4.88 7.8v9.12"/><path class="cls-1" d="M12.38 14.79a9.76 9.76 0 0 0 3-.16 11.78 11.78 0 0 0 2.45-.76C22.12 12 25 7.71 24.45 3.3l-.27-1.66a1.09 1.09 0 0 0-.51-.86 1 1 0 0 0-1-.23l-1.88.32c-5.35 1-9.34 5.67-9.1 10.62a11.71 11.71 0 0 0 .31 1.85z"/></svg>
