<svg xmlns="http://www.w3.org/2000/svg" viewBox="0 0 25.01 25.37"><defs><style>.cls-1,.cls-2{fill:none;stroke:#fff;}.cls-1{stroke-miterlimit:10;}.cls-2{stroke-linecap:round;stroke-linejoin:round;}</style></defs><title>nav--freshers--hover.svg</title><g id="レイヤー_2" data-name="レイヤー 2"><g id="レイヤー_1-2" data-name="レイヤー 1"><g id="レイヤー_1-2-2" data-name="レイヤー 1-2"><path class="cls-1" d="M12.05,15.75c-.94-3.6-5.22-6.35-9.27-5.85l-1.45.21a.77.77,0,0,0-.63.39.76.76,0,0,0-.17.72l.22,1.31a7.87,7.87,0,0,0,7.13,6.06,8.8,8.8,0,0,0,1.92,0l.7-.08,1.18-.21"/><polyline class="cls-2" points="16.93 7.95 12.05 15.75 12.05 24.87"/><path class="cls-1" d="M12.38,14.79a9.76,9.76,0,0,0,3-.16,11.78,11.78,0,0,0,2.45-.76C22.12,12,25,7.71,24.45,3.3l-.27-1.66a1.09,1.09,0,0,0-.51-.86,1,1,0,0,0-1-.23L20.79.87c-5.35,1-9.34,5.67-9.1,10.62A11.71,11.71,0,0,0,12,13.34Z"/></g></g></g></svg>