<svg xmlns="http://www.w3.org/2000/svg" viewBox="0 0 21.58 25.5"><g stroke="#fff" stroke-linecap="round" stroke-linejoin="round"><path d="M5.88 10.62C4.81 8.67 3.61 6.39.5 4.91l2.34-.71.31-1.85 1.91.7 1.28-1.47C9.24 4.77 9.43 6.67 9.15 10m4.93 2.33c1.69-1.45 3.6-3.13 7-3.41l-1.89-1.49.36-1.85h-2l-.68-1.82C13 5.68 12 7.28 11.12 10.45" fill="none"/><path d="M8.65 1.58l.48-.84 1.38.7L12.14.5l.98 1.51h1.75l-.11 1.01M10.36 17C10 14 15 14.25 15 14.25a7.5 7.5 0 0 0-4.56.39C10.27 13 12.05 12 12.05 12a5.3 5.3 0 0 0-2.81 2.34 4.15 4.15 0 0 0-1.4-3.25A1.86 1.86 0 0 1 8 13.72l-.12.12a9.45 9.45 0 0 0-3.56-2c1.33.7 3.79 2.15 3 4a3.74 3.74 0 0 0-.39 2.25 1.92 1.92 0 0 0 2.41 1A1.78 1.78 0 0 0 10.36 17zM8.2 19.69C7.64 21.91 6.87 24 5 25m-1.12-5.61c1 .25 3.34 2.05 2.83 3.85" fill="#fff"/></g></svg>
