<?xml version="1.0" encoding="UTF-8"?>
<svg width="920px" height="518px" viewBox="0 0 920 518" version="1.1" xmlns="http://www.w3.org/2000/svg" xmlns:xlink="http://www.w3.org/1999/xlink">
    <!-- Generator: Sketch 61 (89581) - https://sketch.com -->
    <title>Video 1</title>
    <desc>Created with Sketch.</desc>
    <g id="Page-1" stroke="none" stroke-width="1" fill="none" fill-rule="evenodd">
        <g id="3-PC-Kurokami-LP-ver1" transform="translate(-260.000000, -1034.000000)">
            <g id="Video-section" transform="translate(0.000000, 674.000000)">
                <g id="Video-1" transform="translate(260.000000, 360.000000)">
                    <rect id="Rectangle" fill="#D4D6DA" x="0.196010956" y="0.382208365" width="919" height="517"></rect>
                    <g id="Play-button" transform="translate(380.196011, 177.382208)">
                        <g id="Group-Copy-2">
                            <path d="M150.206628,40.0919495 C143.007865,27.759241 133.243202,17.994623 120.91007,10.7962598 C108.574736,3.59826376 95.1089955,0 80.5025699,0 C65.8976129,0 52.4293028,3.59826376 40.0947023,10.7962598 C27.7608362,17.9935216 17.9961736,27.7581396 10.7974105,40.0919495 C3.59828017,52.4264937 0,65.896211 0,80.5 C0,95.103789 3.59938157,108.572038 10.796309,120.907316 C17.9947051,133.237455 27.7593676,143.004643 40.0932338,150.20374 C52.4278342,157.401369 65.8965115,161 80.5011014,161 C95.1056913,161 108.575837,157.401369 120.909703,150.20374 C133.242835,143.007213 143.007131,133.240025 150.205159,120.907316 C157.402087,108.572038 161,95.1026876 161,80.5 C161.000367,65.896211 157.402087,52.4246581 150.206628,40.0919495 Z" id="Path" stroke="#FFFFFF" stroke-width="2" fill-rule="nonzero"></path>
                            <polygon id="Rectangle" fill="#FFFFFF" transform="translate(74.948276, 80.500000) rotate(-45.000000) translate(-74.948276, -80.500000) " points="92.1531966 49.9655172 105.482759 111.034483 44.4137931 97.7049207"></polygon>
                        </g>
                    </g>
                </g>
            </g>
        </g>
    </g>
</svg>