<?xml version="1.0" encoding="UTF-8"?>
<svg width="38px" height="40px" viewBox="0 0 38 40" version="1.1" xmlns="http://www.w3.org/2000/svg" xmlns:xlink="http://www.w3.org/1999/xlink">
    <!-- Generator: Sketch 61 (89581) - https://sketch.com -->
    <title>Stars</title>
    <desc>Created with Sketch.</desc>
    <g id="Page-1" stroke="none" stroke-width="1" fill="none" fill-rule="evenodd">
        <g id="3-PC-MyNavi" transform="translate(-401.000000, -2446.000000)" fill="#FFFFFF">
            <g id="Campaign" transform="translate(165.000000, 2335.000000)">
                <g id="Stars" transform="translate(236.000000, 111.000000)">
                    <path d="M18.9693246,10.9675017 C16.7923499,10.9675017 14.9830928,10.2135254 13.6436025,8.83912744 L12.8330243,7.84790967 C11.6704844,6.1575944 11.0305542,3.83957263 11.0305542,1.03249828 C11.0305542,0.462341657 10.5692712,0 9.9998788,0 C9.43048637,0 8.96920336,0.462341657 8.96920336,1.03249828 C8.96920336,3.83981545 8.32903077,6.15808005 7.16673333,7.84839532 L6.35663988,8.83888462 C5.01714964,10.2132826 3.20789247,10.9675017 1.03067544,10.9675017 C0.461283012,10.9675017 0,11.4298434 0,12 C0,12.5701566 0.461283012,13.0324983 1.03067544,13.0324983 C3.20789247,13.0324983 5.01690725,13.7867174 6.35663988,15.1611154 L7.16673333,16.1516047 C8.32903077,17.8419199 8.96920336,20.1601845 8.96920336,22.9675017 C8.96920336,23.5376583 9.43048637,24 9.9998788,24 C10.5692712,24 11.0305542,23.5376583 11.0305542,22.9675017 C11.0305542,20.1604274 11.6704844,17.8424056 12.8330243,16.1520903 L13.6436025,15.1608726 C14.9830928,13.7864746 16.7923499,13.0324983 18.9693246,13.0324983 C19.538717,13.0324983 20,12.5701566 20,12 C20,11.4298434 19.538717,10.9675017 18.9693246,10.9675017" id="Fill-1"></path>
                    <path d="M37.330061,21.8546886 C35.9150275,21.8546886 34.7390103,21.3834534 33.8683416,20.5244547 L33.3414658,19.9049435 C32.5858149,18.8484965 32.1698603,17.3997329 32.1698603,15.6453114 C32.1698603,15.2889635 31.8700263,15 31.4999212,15 C31.1298161,15 30.8299822,15.2889635 30.8299822,15.6453114 C30.8299822,17.3998847 30.41387,18.8488 29.6583767,19.9052471 L29.1318159,20.5243029 C28.2611473,21.3833016 27.0851301,21.8546886 25.669939,21.8546886 C25.299834,21.8546886 25,22.1436521 25,22.5 C25,22.8563479 25.299834,23.1453114 25.669939,23.1453114 C27.0851301,23.1453114 28.2609897,23.6166984 29.1318159,24.4756971 L29.6583767,25.0947529 C30.41387,26.1512 30.8299822,27.6001153 30.8299822,29.3546886 C30.8299822,29.7110365 31.1298161,30 31.4999212,30 C31.8700263,30 32.1698603,29.7110365 32.1698603,29.3546886 C32.1698603,27.6002671 32.5858149,26.1515035 33.3414658,25.0950565 L33.8683416,24.4755453 C34.7390103,23.6165466 35.9150275,23.1453114 37.330061,23.1453114 C37.700166,23.1453114 38,22.8563479 38,22.5 C38,22.1436521 37.700166,21.8546886 37.330061,21.8546886" id="Fill-1-Copy"></path>
                    <path d="M19.5877298,35.0620377 C18.71694,35.0620377 17.9932371,34.7827872 17.457441,34.2737509 L17.1332097,33.9066332 C16.6681938,33.2805905 16.4122217,32.4220639 16.4122217,31.3824068 C16.4122217,31.1712377 16.2277085,31 15.9999515,31 C15.7721945,31 15.5876813,31.1712377 15.5876813,31.3824068 C15.5876813,32.4221539 15.3316123,33.2807704 14.8666933,33.9068131 L14.542656,34.273661 C14.0068599,34.7826973 13.283157,35.0620377 12.4122702,35.0620377 C12.1845132,35.0620377 12,35.2332753 12,35.4444444 C12,35.6556136 12.1845132,35.8268512 12.4122702,35.8268512 C13.283157,35.8268512 14.0067629,36.1061916 14.542656,36.6152279 L14.8666933,36.9820758 C15.3316123,37.6081185 15.5876813,38.466735 15.5876813,39.5064821 C15.5876813,39.7176512 15.7721945,39.8888889 15.9999515,39.8888889 C16.2277085,39.8888889 16.4122217,39.7176512 16.4122217,39.5064821 C16.4122217,38.466825 16.6681938,37.6082984 17.1332097,36.9822557 L17.457441,36.615138 C17.9932371,36.1061017 18.71694,35.8268512 19.5877298,35.8268512 C19.8154868,35.8268512 20,35.6556136 20,35.4444444 C20,35.2332753 19.8154868,35.0620377 19.5877298,35.0620377" id="Fill-1-Copy-4"></path>
                </g>
            </g>
        </g>
    </g>
</svg>