<?xml version="1.0" encoding="UTF-8"?>
<svg width="32px" height="32px" viewBox="0 0 32 32" version="1.1" xmlns="http://www.w3.org/2000/svg" xmlns:xlink="http://www.w3.org/1999/xlink">
    <!-- Generator: Sketch 61 (89581) - https://sketch.com -->
    <title>Stars</title>
    <desc>Created with Sketch.</desc>
    <defs>
        <linearGradient x1="-84.8785065%" y1="50%" x2="75.5410734%" y2="50%" id="linearGradient-1">
            <stop stop-color="#FFC79B" offset="0%"></stop>
            <stop stop-color="#FFA1A2" offset="27.805449%"></stop>
            <stop stop-color="#FFA1CF" offset="51.8258407%"></stop>
            <stop stop-color="#EDB4FB" offset="84.9243016%"></stop>
            <stop stop-color="#85E0FF" offset="100%"></stop>
        </linearGradient>
    </defs>
    <g id="Page-1" stroke="none" stroke-width="1" fill="none" fill-rule="evenodd">
        <g id="3-PC-MyNavi" transform="translate(-996.000000, -2536.000000)" fill="url(#linearGradient-1)">
            <g id="Campaign-Info" transform="translate(165.000000, 2425.000000)">
                <g id="Stars" transform="translate(831.000000, 111.000000)">
                    <path d="M25.4999212,17 C25.8700263,17 26.1698603,17.2889635 26.1698603,17.6453114 C26.1698603,19.3997329 26.5858149,20.8484965 27.3414658,21.9049435 L27.3414658,21.9049435 L27.8683416,22.5244547 C28.7390103,23.3834534 29.9150275,23.8546886 31.330061,23.8546886 C31.700166,23.8546886 32,24.1436521 32,24.5 C32,24.8563479 31.700166,25.1453114 31.330061,25.1453114 C29.9150275,25.1453114 28.7390103,25.6165466 27.8683416,26.4755453 L27.8683416,26.4755453 L27.3414658,27.0950565 C26.5858149,28.1515035 26.1698603,29.6002671 26.1698603,31.3546886 C26.1698603,31.7110365 25.8700263,32 25.4999212,32 C25.1298161,32 24.8299822,31.7110365 24.8299822,31.3546886 C24.8299822,29.6001153 24.41387,28.1512 23.6583767,27.0947529 L23.6583767,27.0947529 L23.1318159,26.4756971 C22.2609897,25.6166984 21.0851301,25.1453114 19.669939,25.1453114 C19.299834,25.1453114 19,24.8563479 19,24.5 C19,24.1436521 19.299834,23.8546886 19.669939,23.8546886 C21.0851301,23.8546886 22.2611473,23.3833016 23.1318159,22.5243029 L23.1318159,22.5243029 L23.6583767,21.9052471 C24.41387,20.8488 24.8299822,19.3998847 24.8299822,17.6453114 C24.8299822,17.2889635 25.1298161,17 25.4999212,17 Z M8.99989092,0 C9.51234411,0 9.92749882,0.40454895 9.92749882,0.903435995 C9.92749882,3.35962605 10.503436,5.3878951 11.5497218,6.86692096 L11.5497218,6.86692096 L12.2792423,7.73423651 C13.4847835,8.93683476 15.1131149,9.59656401 17.0723921,9.59656401 C17.5848453,9.59656401 18,10.001113 18,10.5 C18,10.998887 17.5848453,11.403436 17.0723921,11.403436 C15.1131149,11.403436 13.4847835,12.0631652 12.2792423,13.2657635 L12.2792423,13.2657635 L11.5497218,14.133079 C10.503436,15.6121049 9.92749882,17.640374 9.92749882,20.096564 C9.92749882,20.5954511 9.51234411,21 8.99989092,21 C8.48743773,21 8.07228302,20.5954511 8.07228302,20.096564 C8.07228302,17.6401615 7.4961277,15.61168 6.45005999,14.1326541 L6.45005999,14.1326541 L5.72097589,13.265976 C4.51521652,12.0633777 2.88710323,11.403436 0.927607897,11.403436 C0.41515471,11.403436 0,10.998887 0,10.5 C0,10.001113 0.41515471,9.59656401 0.927607897,9.59656401 C2.88710323,9.59656401 4.51543468,8.93662228 5.72097589,7.73402404 L5.72097589,7.73402404 L6.45005999,6.86734591 C7.4961277,5.38832005 8.07228302,3.35983852 8.07228302,0.903435995 C8.07228302,0.40454895 8.48743773,0 8.99989092,0 Z" id="Combined-Shape"></path>
                </g>
            </g>
        </g>
    </g>
</svg>