<svg height="95" viewBox="0 0 83 95" width="83" xmlns="http://www.w3.org/2000/svg" xmlns:xlink="http://www.w3.org/1999/xlink"><mask id="a" fill="#fff"><path d="m.35265708.03459445h34.82121612v67.97400855h-34.82121612z" fill="#fff" fill-rule="evenodd"/></mask><g fill="none" fill-rule="evenodd" transform="translate(1 1)"><path d="m9.53036293 13.8679385h11.33119027v-12.83560972c0-.56075122-.4546244-1.01537561-1.0153756-1.01537561h-9.3004391c-.56075118 0-1.01537557.45462439-1.01537557 1.01537561z" stroke="#564685" stroke-width="2.032185"/><path d="m3.51928195 19.7150966-.65110244 42.7748488-2.82670244 19.5746634c-.26818536 2.4079317 1.61628293 4.5161268 4.04142439 4.5161268h22.22783414c2.4237073 0 4.3081756-2.1081951 4.0399903-4.5161268l-2.8267025-19.5746634-.6511024-42.7748488c-.010039-.5994732-.2825269-1.1645268-.7457561-1.5431415l-5.2647512-4.3038731h-11.33262443l-5.26331707 4.3038731c-.46466342.3786147-.73715122.9436683-.74719025 1.5431415z" stroke="#564685" stroke-linejoin="round" stroke-width="2.032185"/><path d="m6.35541951 18.5266712 6.17830249-2.2487414 3.5251317-1.283561 6.174-2.2473073 2.5728585 7.0588683c1.1917756 3.312878-.0674049 7.0115414-3.0332195 8.908917-.0243805.0157756-.0358537.038722-.0573659.0559317-.0487609.0372878-.0932195.0803122-.1348097.1276391-.0401561.0444585-.0760098.0903512-.1061269.1405463-.030117.0501951-.0559317.1032585-.0760097.1591902-.0200781.0559318-.0344195.1147318-.0458927.1735318-.0071707.0573658-.0086049.1161658-.0057366.1749658.0028683.0631024.010039.1247707.0258147.186439.0057365.0258147.0014341.0516293.010039.0760098l11.8689951 35.0290244c.1850049.5105561-.0803122 1.0770439-.5923024 1.2620488-.5119903.1850048-1.0770439-.0803122-1.2620488-.5908683l-13.4193073-34.4639708c-.0100391-.0243805-.0301171-.0415902-.0415903-.0631024-.0286829-.0588-.0659707-.1147317-.1061268-.1649268-.0329854-.0444586-.0702732-.0860488-.1104293-.1262049-.0473268-.038722-.0989561-.0745756-.1520195-.1046927-.0501951-.0272488-.1018244-.0530634-.1563219-.0731415-.0559317-.0172097-.1132976-.030117-.1720976-.0387219-.0631024-.010039-.1262049-.0143415-.1893073-.0114732-.0272488.0014342-.048761-.0086049-.0760098-.0057366-3.4921463.4560586-6.8337073-1.5675219-8.04986339-4.8732292zm-4.1748-11.46599998c-.11042927-.32124878-.38721951-.55788293-.71994146-.61811707-.3341561-.0616683-.67548293.06310244-.89060488.32411707-.21799024.26101463-.27679024.61811707-.1548878.93506341l3.85355122 10.58686827 2.89123902 7.9394342c1.4112 3.8764975 5.19734639 6.370478 9.31621459 6.1367122l13.1726342 33.8286439c.5765268 1.4398829 2.1870732 2.1669951 3.6456 1.6478341 1.4527902-.539239 2.2186244-2.1311414 1.7353171-3.6025756l-11.6438342-34.3635805c3.2870634-2.4925463 4.5749268-6.830839 3.1823707-10.7130732l-2.8926731-7.9394341-3.8506829-10.58543414c-.1835708-.47900488-.7156391-.72137561-1.1975122-.54497561-.4804391.17496585-.734283.70416585-.5664878 1.18747317l3.5308682 9.70199998-1.764.6439317-3.5323024-9.70343412c-.1764-.48760976-.715639-.74001951-1.2032488-.56218537-.4876097.1764-.7400195.71563903-.5621853 1.20324878l3.5323024 9.70486831-1.7625659.6410634-3.5337365-9.70343415c-.1104293-.32124878-.3857854-.55644878-.7185074-.61811707-.3341561-.06023415-.6754829.06453659-.8906048.32411707-.2179903.26101464-.2767903.61955122-.1548878.93649756l3.5323024 9.70343419-1.764.6424975-3.53230244-9.70343412c-.11042927-.32268293-.38578537-.55788293-.71850732-.61955122-.3341561-.06023415-.67548293.06453658-.89060488.32555122-.21799024.25958048-.27679024.61811707-.1548878.93506341l3.53086834 9.70343411-1.76400005.6439317-3.53230244-9.70486825c-.17783414-.48617561-.71563902-.73858536-1.20324878-.56075122-.48760975.17783415-.73858536.71707317-.56075122 1.20468293l3.53230244 9.70200004-1.764.6424975-3.53230244-9.70343413z" fill="#564685" mask="url(#a)" transform="translate(46.326829 18.366057)"/><path d="m60.302442 44.109639c-.4775708.1835708-.7199415.715639-.5449757 1.1960781.1749659.4818731.7027317.7342829 1.1874732.5664878l7.0574342-2.5685561c.4775707-.1821366.7213756-.7170732.5464097-1.1960781-.1749658-.4818731-.7041658-.7342829-1.1874732-.5664878z" fill="#564685"/><path d="m20.5091834 71.9900176v12.358039c0 1.5029854.5105561 2.9615122 1.449922 4.1332097l1.0770439 1.3466635c1.254878 1.5675219 3.1551219 2.4810731 5.1643609 2.4810731h18.5635903c2.009239 0 3.9094829-.9135512 5.1657951-2.4810731l1.0770439-1.3480976c.9379317-1.1716976 1.449922-2.6302244 1.449922-4.1317756v-12.358039z" fill="#fff"/><path d="m20.5091834 71.9900176v12.358039c0 1.5029854.5105561 2.9615122 1.449922 4.1332097l1.0770439 1.3466635c1.254878 1.5675219 3.1551219 2.4810731 5.1643609 2.4810731h18.5635903c2.009239 0 3.9094829-.9135512 5.1657951-2.4810731l1.0770439-1.3480976c.9379317-1.1716976 1.449922-2.6302244 1.449922-4.1317756v-12.358039z" stroke="#564685" stroke-linejoin="round" stroke-width="2.032185"/><path d="m54.456718 76.922764h-33.947678" fill="#fff"/><path d="m54.456718 76.922764h-33.947678" stroke="#564685" stroke-linejoin="round" stroke-width="2.032185"/><g transform="translate(21.562195 64.642886)"><path d="m19.1370439 7.40464098h-15.6221561c-1.86582439 0-3.38028292-1.51445854-3.38028292-3.37884878 0-1.86725854 1.51445853-3.38171708 3.38028292-3.38171708h9.5040878" fill="#fff"/><path d="m19.1370439 7.40464098h-15.6221561c-1.86582439 0-3.38028292-1.51445854-3.38028292-3.37884878 0-1.86725854 1.51445853-3.38171708 3.38028292-3.38171708h9.5040878" stroke="#564685" stroke-linecap="round" stroke-linejoin="round" stroke-width="2.032185"/></g><g transform="translate(26.24878 48.867276)"><path d="m.73227512 15.9884371s-1.176-6.90254637 6.49094634-8.19758051c7.66694634-1.29503415 5.56161954-7.33565854 5.56161954-7.33565854s7.8175317 2.73204878 7.6683805 11.50615605" fill="#fff"/><path d="m.73227512 15.9884371s-1.176-6.90254637 6.49094634-8.19758051c7.66694634-1.29503415 5.56161954-7.33565854 5.56161954-7.33565854s7.8175317 2.73204878 7.6683805 11.50615605" stroke="#564685" stroke-linecap="round" stroke-linejoin="round" stroke-width="2.032185"/></g><g transform="translate(34.469512 60.340447)"><path d="m.26625951 11.70708h13.46519999c3.0576 0 5.537239-2.47963902 5.537239-5.53723902s-2.479639-5.53867317-5.537239-5.53867317h-7.87202926" fill="#fff"/><path d="m.26625951 11.70708h13.46519999c3.0576 0 5.537239-2.47963902 5.537239-5.53723902s-2.479639-5.53867317-5.537239-5.53867317h-7.87202926" stroke="#564685" stroke-linecap="round" stroke-linejoin="round" stroke-width="2.032185"/></g><g stroke="#564685" stroke-width="2.032185"><path d="m26.857719 18.769707h-23.323522" stroke-linejoin="round"/><path d="m27.010456 31.010433h-23.647639"/><path d="m27.332565 52.021251h-24.291571"/></g></g></svg>