<svg height="230" viewBox="0 0 230 230" width="230" xmlns="http://www.w3.org/2000/svg" xmlns:xlink="http://www.w3.org/1999/xlink"><defs><circle id="a" cx="110" cy="110" r="110"/><filter id="b" height="107.3%" width="107.3%" x="-3.6%" y="-3.2%"><feOffset dx="0" dy="1" in="SourceAlpha" result="shadowOffsetOuter1"/><feGaussianBlur in="shadowOffsetOuter1" result="shadowBlurOuter1" stdDeviation="2.5"/><feColorMatrix in="shadowBlurOuter1" type="matrix" values="0 0 0 0 0.660112023   0 0 0 0 0.59149313   0 0 0 0 0.856476367  0 0 0 0.589024257 0"/></filter></defs><g fill="none" fill-rule="evenodd" transform="translate(5 4)"><use fill="#000" filter="url(#b)" xlink:href="#a"/><use fill="#fff" fill-rule="evenodd" xlink:href="#a"/><path d="m172.80413 42.3792968c18.36375 16.8352476 29.87715 41.0225393 29.87715 67.8986932 0 50.860945-41.230897 92.09094-92.091842 92.09094-50.8600423 0-92.0909395-41.229995-92.0909395-92.09094 0-27.2661581 11.8499699-51.7648509 30.6807631-68.6269316" stroke="#947bb4" stroke-dasharray=".64068 3.844981" stroke-linecap="round" stroke-width="1.91843"/><g transform="translate(60.007324 11.891892)"><path d="m9.66027686 20.6065152c-3.48493664.305902-5.88342489.0613609-7.18463634-2.7837984-.62353476-1.5051462-.95650773-3.0644342-.07309163-4.4667106l-.29146415-.1263313c-1.20826778 1.9301604-1.43566395 4.0010899-.39162675 6.1568418 1.41130009 3.0635318 4.46310115 3.3414604 7.89299349 2.9272746 3.72045412-.4701326 6.44740352.1543045 7.78561192 3.162792.6424845 1.6314773.4692302 3.448842-.6136087 4.9052604l.2544671.2355175c1.9698645-2.2243317 2.2703524-4.1499803 1.0792295-6.7785718-1.5583857-3.3522889-4.8285593-3.6112678-8.45787444-3.2322742zm-.45028052-11.87423131.79769136-.40245513 3.3152919 6.55929684-.7976914.4024552-.732721-1.4491995c-1.5186816-2.7350707-4.13824947-3.7782055-6.74698894-2.4589467-2.35697942 1.1902204-2.91012964 3.3360462-1.70005713 5.99983.97184795 2.1927489 2.93449352 2.6565649 6.20196001 2.279376 3.90182966-.379896 7.38857096-.3212422 9.44055076 3.7375991 1.8859445 3.8233238.4466711 7.0068702-4.0462081 9.2781249-2.3199824 1.1721732-4.3539149 1.2894807-5.97185676.6966264-.5089343-.1967157-1.00072365-.4502805-1.41942137-.7381352l1.26421446 2.5004556-.79769135.4033575-3.93792427-7.7919285.79769135-.4024552.71377133 1.4122025c1.31835641 2.6096418 3.7655724 5.7408511 8.54901341 3.3234131 2.6087395-1.3183564 3.4714012-3.754744 2.3885622-6.1658653-1.0449396-2.3380298-3.4623775-2.9814166-6.92926681-2.63942-3.5941229.3591416-6.82639713.3555322-8.62120267-3.1961796-1.66666959-3.2972445-1.0467443-7.1142518 3.33785102-9.3295598 2.10251227-1.06298684 4.42700652-.87258767 6.08555486.4286238l.0541419.0171449z" fill="#564685"/><path d="m9.66027686 20.6065152c-3.48493664.305902-5.88342489.0613609-7.18463634-2.7837984-.62353476-1.5051462-.95650773-3.0644342-.07309163-4.4667106l-.29146415-.1263313c-1.20826778 1.9301604-1.43566395 4.0010899-.39162675 6.1568418 1.41130009 3.0635318 4.46310115 3.3414604 7.89299349 2.9272746 3.72045412-.4701326 6.44740352.1543045 7.78561192 3.162792.6424845 1.6314773.4692302 3.448842-.6136087 4.9052604l.2544671.2355175c1.9698645-2.2243317 2.2703524-4.1499803 1.0792295-6.7785718-1.5583857-3.3522889-4.8285593-3.6112678-8.45787444-3.2322742zm-.45028052-11.87423131.79769136-.40245513 3.3152919 6.55929684-.7976914.4024552-.732721-1.4491995c-1.5186816-2.7350707-4.13824947-3.7782055-6.74698894-2.4589467-2.35697942 1.1902204-2.91012964 3.3360462-1.70005713 5.99983.97184795 2.1927489 2.93449352 2.6565649 6.20196001 2.279376 3.90182966-.379896 7.38857096-.3212422 9.44055076 3.7375991 1.8859445 3.8233238.4466711 7.0068702-4.0462081 9.2781249-2.3199824 1.1721732-4.3539149 1.2894807-5.97185676.6966264-.5089343-.1967157-1.00072365-.4502805-1.41942137-.7381352l1.26421446 2.5004556-.79769135.4033575-3.93792427-7.7919285.79769135-.4024552.71377133 1.4122025c1.31835641 2.6096418 3.7655724 5.7408511 8.54901341 3.3234131 2.6087395-1.3183564 3.4714012-3.754744 2.3885622-6.1658653-1.0449396-2.3380298-3.4623775-2.9814166-6.92926681-2.63942-3.5941229.3591416-6.82639713.3555322-8.62120267-3.1961796-1.66666959-3.2972445-1.0467443-7.1142518 3.33785102-9.3295598 2.10251227-1.06298684 4.42700652-.87258767 6.08555486.4286238l.0541419.0171449z" stroke="#564685" stroke-width=".5"/><path d="m29.895649 25.4981499 1.4167143-.360044-5.3726859-21.09280011-1.4167142.36004395zm-12.3290236-15.1714759.3022925-5.06407677 14.4820684-3.68887131 2.6872453 4.30248004-.786863.20032521-2.3299084-3.55532118-5.0370058 1.28316414 5.3726859 21.09280007 1.7316399-.4412568.2003252.7868629-6.7686457 1.724421-.2003252-.7868629 1.7316399-.4412569-5.3726858-21.0928001-4.8799942 1.24346005-.3456061 4.23660735z" fill="#564685"/><path d="m29.895649 25.4981499 1.4167143-.360044-5.3726859-21.09280011-1.4167142.36004395zm-12.3290236-15.1714759.3022925-5.06407677 14.4820684-3.68887131 2.6872453 4.30248004-.786863.20032521-2.3299084-3.55532118-5.0370058 1.28316414 5.3726859 21.09280007 1.7316399-.4412568.2003252.7868629-6.7686457 1.724421-.2003252-.7868629 1.7316399-.4412569-5.3726858-21.0928001-4.8799942 1.24346005-.3456061 4.23660735z" stroke="#564685" stroke-width=".5"/><path d="m45.3566038 22.8941929-.3916267-21.76416023-1.4618326.0261686.3916268 21.76416023zm11.9049118-4.275409-.8049103 4.8881154-15.3086355.2743192-.0144378-.8112268 1.7866842-.0324852-.3916267-21.76325791-1.7857819.0315828-.0153402-.81303157 14.6986362-.2634908 1.3057233 4.85021607-.8527357.01624258-1.2100725-4.04079396-8.7294866.15701164.1723519 9.58222225 6.5376401-.1164052-.0460207-2.51760054.853638-.01534022.1046745 5.84642786-.8527357.0153403-.0451183-2.5166982-6.5367377.1173075.2039347 11.3689065 9.2573705-.1660353.6984311-4.0750839z" fill="#564685"/><path d="m45.3566038 22.8941929-.3916267-21.76416023-1.4618326.0261686.3916268 21.76416023zm11.9049118-4.275409-.8049103 4.8881154-15.3086355.2743192-.0144378-.8112268 1.7866842-.0324852-.3916267-21.76325791-1.7857819.0315828-.0153402-.81303157 14.6986362-.2634908 1.3057233 4.85021607-.8527357.01624258-1.2100725-4.04079396-8.7294866.15701164.1723519 9.58222225 6.5376401-.1164052-.0460207-2.51760054.853638-.01534022.1046745 5.84642786-.8527357.0153403-.0451183-2.5166982-6.5367377.1173075.2039347 11.3689065 9.2573705-.1660353.6984311-4.0750839z" stroke="#564685" stroke-width=".5"/><path d="m76.5111433 4.18237516-.0577514.06948216c1.8236813 1.46905149 2.1864323 4.01372299 1.6684744 6.22812858-.554955 2.3714173-2.3028375 4.67245-4.9404527 4.7229825l.0324852.2156655c2.9597597.3600439 5.8058214-.9339486 6.7217227-4.847509.7309163-3.12308799-1.1541259-5.39885448-3.4244782-6.38874974zm-5.2797421 10.43856734c2.9660763.6948217 5.2391357-1.3580605 5.9420786-4.3629385.7309163-3.12308801-.4223072-5.85364686-3.3883835-6.54666378l-1.8272907-.38621256-2.5437691 10.87080054zm-6.5953915 9.297977 1.4230308.332973 4.9503787-21.14874682-1.4230309-.33297297zm4.3485007 1.0178686-.184985.7904724-7.0366484-1.6468175.184985-.7904724 1.7397612.4069669 4.9494763-21.14964914-1.7388588-.40696697.1940086-.83017651 7.5509969 1.76683219c4.9106746 1.10810518 7.19366 3.64375303 6.2416641 7.71612983-.9628243 4.1111785-3.9965781 6.0278034-8.898229 4.8799941l-2.7675558-.6469963-2.2107962 9.4477698z" fill="#564685"/><path d="m76.5111433 4.18237516-.0577514.06948216c1.8236813 1.46905149 2.1864323 4.01372299 1.6684744 6.22812858-.554955 2.3714173-2.3028375 4.67245-4.9404527 4.7229825l.0324852.2156655c2.9597597.3600439 5.8058214-.9339486 6.7217227-4.847509.7309163-3.12308799-1.1541259-5.39885448-3.4244782-6.38874974zm-5.2797421 10.43856734c2.9660763.6948217 5.2391357-1.3580605 5.9420786-4.3629385.7309163-3.12308801-.4223072-5.85364686-3.3883835-6.54666378l-1.8272907-.38621256-2.5437691 10.87080054zm-6.5953915 9.297977 1.4230308.332973 4.9503787-21.14874682-1.4230309-.33297297zm4.3485007 1.0178686-.184985.7904724-7.0366484-1.6468175.184985-.7904724 1.7397612.4069669 4.9494763-21.14964914-1.7388588-.40696697.1940086-.83017651 7.5509969 1.76683219c4.9106746 1.10810518 7.19366 3.64375303 6.2416641 7.71612983-.9628243 4.1111785-3.9965781 6.0278034-8.898229 4.8799941l-2.7675558-.6469963-2.2107962 9.4477698z" stroke="#564685" stroke-width=".5"/><path d="m89.4606337 33.2246569-.0027071.0893342c2.8568901.6442891 5.3979521-.4620113 7.0059679-3.42899 1.1541259-2.1295832.8040079-4.9828638-.8464191-7.1873434l.0757988-.1389644c1.0810342.0884319 3.9433384-.5269816 5.2680118-2.9705881.983578-1.8146576 1.114421-3.6401436-.990798-5.5044313l-.0532396.0162426c.9068776 1.5755307.1452806 3.6464601-.5351029 4.9025533-1.381522 2.548281-3.7556464 3.42899-5.9068864 3.4831319 1.6269655 1.8299978 2.8036504 4.4089592 1.2326316 7.3055534-.964629 1.7803676-2.8614019 3.2810019-5.247257 3.4335018zm-5.7552889-5.3781001c.4574994 1.7388589 1.4726609 3.2828067 3.1474518 4.1905867 2.4084143 1.3048209 5.6361767-.1506951 7.018601-2.6998784 1.5881638-2.9317865-.1768637-5.4232184-1.549362-6.8895628l.4159906-.7688156c2.716121.0721893 4.5388999-.7913748 5.8437208-3.1997891.4917894-.9077799 2.258622-3.8341522-1.0927649-5.6506145-1.9545243-1.058475-3.2620523-.7282092-4.4468586.2093489l-1.3625723 2.5130887-.6632389-.3591416 1.5854567-2.8442569c1.2966996-1.0584751 3.4894485-1.2696287 5.4439727-.2102513 5.0261773 2.72334 5.1155113 5.3916356 3.7917413 7.8343397-1.116227 2.0601011-3.1393308 3.0418751-5.0749054 3.0310467 1.4843917 1.8435333 2.0718318 4.5091218.6145111 7.1963671-2.3651007 4.3629385-6.0693122 5.200334-10.6767919 2.7034879-2.2333553-1.2109749-3.3829693-3.0075852-3.8377617-4.8348759z" fill="#564685"/><path d="m89.4606337 33.2246569-.0027071.0893342c2.8568901.6442891 5.3979521-.4620113 7.0059679-3.42899 1.1541259-2.1295832.8040079-4.9828638-.8464191-7.1873434l.0757988-.1389644c1.0810342.0884319 3.9433384-.5269816 5.2680118-2.9705881.983578-1.8146576 1.114421-3.6401436-.990798-5.5044313l-.0532396.0162426c.9068776 1.5755307.1452806 3.6464601-.5351029 4.9025533-1.381522 2.548281-3.7556464 3.42899-5.9068864 3.4831319 1.6269655 1.8299978 2.8036504 4.4089592 1.2326316 7.3055534-.964629 1.7803676-2.8614019 3.2810019-5.247257 3.4335018zm-5.7552889-5.3781001c.4574994 1.7388589 1.4726609 3.2828067 3.1474518 4.1905867 2.4084143 1.3048209 5.6361767-.1506951 7.018601-2.6998784 1.5881638-2.9317865-.1768637-5.4232184-1.549362-6.8895628l.4159906-.7688156c2.716121.0721893 4.5388999-.7913748 5.8437208-3.1997891.4917894-.9077799 2.258622-3.8341522-1.0927649-5.6506145-1.9545243-1.058475-3.2620523-.7282092-4.4468586.2093489l-1.3625723 2.5130887-.6632389-.3591416 1.5854567-2.8442569c1.2966996-1.0584751 3.4894485-1.2696287 5.4439727-.2102513 5.0261773 2.72334 5.1155113 5.3916356 3.7917413 7.8343397-1.116227 2.0601011-3.1393308 3.0418751-5.0749054 3.0310467 1.4843917 1.8435333 2.0718318 4.5091218.6145111 7.1963671-2.3651007 4.3629385-6.0693122 5.200334-10.6767919 2.7034879-2.2333553-1.2109749-3.3829693-3.0075852-3.8377617-4.8348759z" stroke="#564685" stroke-width=".5"/></g></g></svg>