<svg height="230" viewBox="0 0 230 230" width="230" xmlns="http://www.w3.org/2000/svg" xmlns:xlink="http://www.w3.org/1999/xlink"><defs><circle id="a" cx="110" cy="110" r="110"/><filter id="b" height="107.3%" width="107.3%" x="-3.6%" y="-3.2%"><feOffset dx="0" dy="1" in="SourceAlpha" result="shadowOffsetOuter1"/><feGaussianBlur in="shadowOffsetOuter1" result="shadowBlurOuter1" stdDeviation="2.5"/><feColorMatrix in="shadowBlurOuter1" type="matrix" values="0 0 0 0 0.660112023   0 0 0 0 0.59149313   0 0 0 0 0.856476367  0 0 0 0.589024257 0"/></filter></defs><g fill="none" fill-rule="evenodd" transform="translate(5 4)"><use fill="#000" filter="url(#b)" xlink:href="#a"/><use fill="#fff" fill-rule="evenodd" xlink:href="#a"/><path d="m172.80413 43.3461172c18.36375 16.8352477 29.87715 41.0225394 29.87715 67.8986938 0 50.860944-41.230897 92.090939-92.091842 92.090939-50.8600423 0-92.0909395-41.229995-92.0909395-92.090939 0-27.2661586 11.8499699-51.7648514 30.6807631-68.6269321" stroke="#947bb4" stroke-dasharray=".64068 3.844981" stroke-linecap="round" stroke-width="1.91843"/><g transform="translate(60.90969 9.249249)"><path d="m9.72930784 21.4108841c-3.47862008.3672628-5.88162015.1669376-7.23426646-2.6547602-.64970336-1.4943177-1.01155204-3.0481916-.15340218-4.4658082l-.29326888-.1200147c-1.17397788 1.9509148-1.36347469 4.0254538-.28063576 6.1640607 1.4663444 3.0364608 4.52175493 3.2593452 7.94442833 2.7847008 3.71233281-.5369077 6.45011061.0388017 7.84246101 3.0229253.6713601 1.6197466.5296887 3.4398184-.5269816 4.9160888l.258979.2301033c1.9301604-2.2586216 2.1963583-4.1896843.9583124-6.7966191-1.6179418-3.3252179-4.8917249-3.5237383-8.51562586-3.0806767zm-.66143411-11.86520769.78957006-.41689299 3.43079471 6.49974068-.7895701.416893-.7579872-1.4365663c-1.5683118-2.7079997-4.20592693-3.7033092-6.79120489-2.3380297-2.33442028 1.2317293-2.84967114 3.3874811-1.59267561 6.0296081 1.01155204 2.1756039 2.98231891 2.6033253 6.24256647 2.168385 3.89551303-.4493782 7.38315683-.45389 9.50732583 3.5679543 1.9545243 3.7890339.5720999 6.998749-3.8801728 9.3494118-2.2983257 1.213682-4.329551 1.3679865-5.95922364.8049103-.51254376-.1885944-1.00794257-.4313308-1.43295685-.7137713l1.30933274 2.4778964-.78957005.4177954-4.0768886-7.721544.78957006-.416893.73903757 1.4004717c1.36527943 2.5852779 3.86753974 5.6722713 8.60766717 3.170011 2.5861803-1.3652795 3.4037237-3.8179097 2.279376-6.2082766-1.0873508-2.3190801-3.5165195-2.9191533-6.97709224-2.5157958-3.58690398.4250143-6.8191782.4782539-8.67714935-3.0409727-1.72532337-3.2674665-1.17488024-7.0943997 3.17091336-9.3882136 2.08175785-1.0999838 4.41076393-.9519959 6.09187133.3185352l.0550444.0171449z" fill="#564685"/><path d="m9.72930784 21.4108841c-3.47862008.3672628-5.88162015.1669376-7.23426646-2.6547602-.64970336-1.4943177-1.01155204-3.0481916-.15340218-4.4658082l-.29326888-.1200147c-1.17397788 1.9509148-1.36347469 4.0254538-.28063576 6.1640607 1.4663444 3.0364608 4.52175493 3.2593452 7.94442833 2.7847008 3.71233281-.5369077 6.45011061.0388017 7.84246101 3.0229253.6713601 1.6197466.5296887 3.4398184-.5269816 4.9160888l.258979.2301033c1.9301604-2.2586216 2.1963583-4.1896843.9583124-6.7966191-1.6179418-3.3252179-4.8917249-3.5237383-8.51562586-3.0806767zm-.66143411-11.86520769.78957006-.41689299 3.43079471 6.49974068-.7895701.416893-.7579872-1.4365663c-1.5683118-2.7079997-4.20592693-3.7033092-6.79120489-2.3380297-2.33442028 1.2317293-2.84967114 3.3874811-1.59267561 6.0296081 1.01155204 2.1756039 2.98231891 2.6033253 6.24256647 2.168385 3.89551303-.4493782 7.38315683-.45389 9.50732583 3.5679543 1.9545243 3.7890339.5720999 6.998749-3.8801728 9.3494118-2.2983257 1.213682-4.329551 1.3679865-5.95922364.8049103-.51254376-.1885944-1.00794257-.4313308-1.43295685-.7137713l1.30933274 2.4778964-.78957005.4177954-4.0768886-7.721544.78957006-.416893.73903757 1.4004717c1.36527943 2.5852779 3.86753974 5.6722713 8.60766717 3.170011 2.5861803-1.3652795 3.4037237-3.8179097 2.279376-6.2082766-1.0873508-2.3190801-3.5165195-2.9191533-6.97709224-2.5157958-3.58690398.4250143-6.8191782.4782539-8.67714935-3.0409727-1.72532337-3.2674665-1.17488024-7.0943997 3.17091336-9.3882136 2.08175785-1.0999838 4.41076393-.9519959 6.09187133.3185352l.0550444.0171449z" stroke="#564685" stroke-width=".5"/><path d="m30.0493219 25.9403993 1.4094954-.3862125-5.7498748-20.98812571-1.4094953.38531018zm-12.5979287-14.944982.2111536-5.06858862 14.4107816-3.94694792 2.7648487 4.25284992-.7832535.21386069-2.393074-3.51200762-5.012642 1.37249836 5.7498748 20.98993039 1.7226163-.4719373.214763.7832535-6.7361605 1.845338-.2138607-.7832535 1.7226163-.4728396-5.7489724-20.98902808-4.8556303 1.33008716-.2698074 4.24111912z" fill="#564685"/><path d="m30.0493219 25.9403993 1.4094954-.3862125-5.7498748-20.98812571-1.4094953.38531018zm-12.5979287-14.944982.2111536-5.06858862 14.4107816-3.94694792 2.7648487 4.25284992-.7832535.21386069-2.393074-3.51200762-5.012642 1.37249836 5.7498748 20.98993039 1.7226163-.4719373.214763.7832535-6.7361605 1.845338-.2138607-.7832535 1.7226163-.4728396-5.7489724-20.98902808-4.8556303 1.33008716-.2698074 4.24111912z" stroke="#564685" stroke-width=".5"/><path d="m45.4679558 23.0623037-.7679133-21.74972244-1.4609302.05143485.7679133 21.74972239zm11.8264059-4.4802461-.7200879 4.9007485-15.2987095.5396148-.0279733-.8112269 1.7857819-.0631656-.7679133-21.74972239-1.7848795.06406797-.0297781-.8121292 14.6896126-.51886032 1.3896433 4.82675456-.8527357.02977807-1.2795547-4.01733246-8.72317.30770673.3374848 9.57680804 6.5331283-.2310056-.0893342-2.51579584.8518333-.02977807.2066417 5.84281841-.8518333.0297781-.0893342-2.5157958-6.5322259.2310056.4006504 11.3616876 9.2519564-.3266564.6271442-4.0850099z" fill="#564685"/><path d="m45.4679558 23.0623037-.7679133-21.74972244-1.4609302.05143485.7679133 21.74972239zm11.8264059-4.4802461-.7200879 4.9007485-15.2987095.5396148-.0279733-.8112269 1.7857819-.0631656-.7679133-21.74972239-1.7848795.06406797-.0297781-.8121292 14.6896126-.51886032 1.3896433 4.82675456-.8527357.02977807-1.2795547-4.01733246-8.72317.30770673.3374848 9.57680804 6.5331283-.2310056-.0893342-2.51579584.8518333-.02977807.2066417 5.84281841-.8518333.0297781-.0893342-2.5157958-6.5322259.2310056.4006504 11.3616876 9.2519564-.3266564.6271442-4.0850099z" stroke="#564685" stroke-width=".5"/><path d="m76.2752649 3.7988697-.0559467.07038453c1.8489475 1.43746869 2.2577192 3.97582363 1.7794654 6.19835057-.5134462 2.3822456-2.2207222 4.7148612-4.8583374 4.810512l.036997.2165677c2.9660763.305902 5.7895788-1.038623 6.6359979-4.9675236.675872-3.13662344-1.2506789-5.3790024-3.5381762-6.3282912zm-5.0938548 10.5333158c2.9769047.641582 5.2147718-1.452809 5.8644752-4.46941776.675872-3.13572108-.5269816-5.84552552-3.5038863-6.48710759l-1.8345097-.35282502-2.3515652 10.91501647zm-6.4302586 9.4134798 1.4284451.3086091 4.5749945-21.23717867-1.4293474-.3086091zm4.3656457.9411675-.1705471.7940819-7.0655241-1.5213887.1705471-.7940819 1.7469802.3762865 4.5740921-21.23717863-1.7460778-.37628653.1795708-.83378598 7.5816773 1.63328206c4.9305266 1.01967333 7.2595327 3.51561708 6.3788237 7.60423638-.8897326 4.1283235-3.8891965 6.0990904-8.8116018 5.0388106l-2.7783843-.5991709-2.0438585 9.4883762z" fill="#564685"/><path d="m76.2752649 3.7988697-.0559467.07038453c1.8489475 1.43746869 2.2577192 3.97582363 1.7794654 6.19835057-.5134462 2.3822456-2.2207222 4.7148612-4.8583374 4.810512l.036997.2165677c2.9660763.305902 5.7895788-1.038623 6.6359979-4.9675236.675872-3.13662344-1.2506789-5.3790024-3.5381762-6.3282912zm-5.0938548 10.5333158c2.9769047.641582 5.2147718-1.452809 5.8644752-4.46941776.675872-3.13572108-.5269816-5.84552552-3.5038863-6.48710759l-1.8345097-.35282502-2.3515652 10.91501647zm-6.4302586 9.4134798 1.4284451.3086091 4.5749945-21.23717867-1.4293474-.3086091zm4.3656457.9411675-.1705471.7940819-7.0655241-1.5213887.1705471-.7940819 1.7469802.3762865 4.5740921-21.23717863-1.7460778-.37628653.1795708-.83378598 7.5816773 1.63328206c4.9305266 1.01967333 7.2595327 3.51561708 6.3788237 7.60423638-.8897326 4.1283235-3.8891965 6.0990904-8.8116018 5.0388106l-2.7783843-.5991709-2.0438585 9.4883762z" stroke="#564685" stroke-width=".5"/><path d="m95.4259032 24.8996106c2.6168607-.1570116 5.3257628-.8969516 7.1674918-4.2781161 1.291285-2.3714173 1.504243-4.921503-1.515073-6.9283645l-.108283.0315828c1.695545 1.7830748 1.266921 3.8991225-.081213 6.3752142-1.1965374 2.195456-3.0175116 3.9613858-5.5107482 4.6381602zm-.8265671 9.9016597.9565077-.9267296-9.9711418-5.4295349c-.1867897.2598813-.5387124.6560199-.7814488 1.0205757zm8.8684509-13.7935633c-2.63942 4.8457043-6.5899773 4.5470212-9.5677844 4.3710599-3.209715-.165133-5.7823599.7390375-7.6538665 2.4327781l9.936852 5.4105852 2.225234-2.1774086.8364931.4547924-4.400838 4.4297136-11.0169838-6.0007325-.0126331-.1425738.2472482-.4529876c2.0122757-3.6960902 6.0801407-4.6895949 9.6760683-4.9016509 2.6042276-.2995854 5.04242-2.4517278 6.3328032-4.8222427 1.253386-2.3010328 1.482587-5.2950824-1.0963746-6.700066-1.0819366-.5883424-2.4661657-.6199252-3.8152025-.1344525l-2.1079265 3.8702469-.6966263-.379896 2.2947161-4.1301282c1.7641251-.6659459 3.6870666-.7940819 5.9177148.4205025 4.183368 2.2793759 4.629136 5.2788398 2.901106 8.4524602z" fill="#564685"/><path d="m95.4259032 24.8996106c2.6168607-.1570116 5.3257628-.8969516 7.1674918-4.2781161 1.291285-2.3714173 1.504243-4.921503-1.515073-6.9283645l-.108283.0315828c1.695545 1.7830748 1.266921 3.8991225-.081213 6.3752142-1.1965374 2.195456-3.0175116 3.9613858-5.5107482 4.6381602zm-.8265671 9.9016597.9565077-.9267296-9.9711418-5.4295349c-.1867897.2598813-.5387124.6560199-.7814488 1.0205757zm8.8684509-13.7935633c-2.63942 4.8457043-6.5899773 4.5470212-9.5677844 4.3710599-3.209715-.165133-5.7823599.7390375-7.6538665 2.4327781l9.936852 5.4105852 2.225234-2.1774086.8364931.4547924-4.400838 4.4297136-11.0169838-6.0007325-.0126331-.1425738.2472482-.4529876c2.0122757-3.6960902 6.0801407-4.6895949 9.6760683-4.9016509 2.6042276-.2995854 5.04242-2.4517278 6.3328032-4.8222427 1.253386-2.3010328 1.482587-5.2950824-1.0963746-6.700066-1.0819366-.5883424-2.4661657-.6199252-3.8152025-.1344525l-2.1079265 3.8702469-.6966263-.379896 2.2947161-4.1301282c1.7641251-.6659459 3.6870666-.7940819 5.9177148.4205025 4.183368 2.2793759 4.629136 5.2788398 2.901106 8.4524602z" stroke="#564685" stroke-width=".5"/></g></g></svg>