<?xml version="1.0" encoding="UTF-8"?>
<svg width="260px" height="260px" viewBox="0 0 260 260" version="1.1" xmlns="http://www.w3.org/2000/svg" xmlns:xlink="http://www.w3.org/1999/xlink">
    <!-- Generator: Sketch 61 (89581) - https://sketch.com -->
    <title>Group</title>
    <desc>Created with Sketch.</desc>
    <defs>
        <linearGradient x1="-1.11022302e-14%" y1="50%" x2="100%" y2="50%" id="linearGradient-1">
            <stop stop-color="#FFC79B" offset="0%"></stop>
            <stop stop-color="#FFA1A2" offset="27.805449%"></stop>
            <stop stop-color="#FFA1CF" offset="51.8258407%"></stop>
            <stop stop-color="#EDB4FB" offset="74.9225228%"></stop>
            <stop stop-color="#85E0FF" offset="100%"></stop>
        </linearGradient>
        <circle id="path-2" cx="120" cy="120" r="120"></circle>
        <filter x="-6.7%" y="-5.0%" width="113.3%" height="113.3%" filterUnits="objectBoundingBox" id="filter-3">
            <feMorphology radius="2" operator="dilate" in="SourceAlpha" result="shadowSpreadOuter1"></feMorphology>
            <feOffset dx="0" dy="4" in="shadowSpreadOuter1" result="shadowOffsetOuter1"></feOffset>
            <feGaussianBlur stdDeviation="4" in="shadowOffsetOuter1" result="shadowBlurOuter1"></feGaussianBlur>
            <feComposite in="shadowBlurOuter1" in2="SourceAlpha" operator="out" result="shadowBlurOuter1"></feComposite>
            <feColorMatrix values="0 0 0 0 0.660112023   0 0 0 0 0.59149313   0 0 0 0 0.856476367  0 0 0 0.589024257 0" type="matrix" in="shadowBlurOuter1"></feColorMatrix>
        </filter>
        <linearGradient x1="0.0131959198%" y1="49.9868041%" x2="99.9868041%" y2="49.9868041%" id="linearGradient-4">
            <stop stop-color="#FFC79B" offset="0%"></stop>
            <stop stop-color="#FFA1A2" offset="27.805449%"></stop>
            <stop stop-color="#FFA1CF" offset="51.8258407%"></stop>
            <stop stop-color="#EDB4FB" offset="74.9225228%"></stop>
            <stop stop-color="#7CE3FF" offset="99.9868032%"></stop>
        </linearGradient>
    </defs>
    <g id="Page-1" stroke="none" stroke-width="1" fill="none" fill-rule="evenodd">
        <g id="3-PC-MyNavi" transform="translate(-875.000000, -2875.000000)">
            <g id="Campaign-Info" transform="translate(165.000000, 2425.000000)">
                <g id="Campaign-Steps-" transform="translate(150.000000, 456.000000)">
                    <g id="Step-3" transform="translate(570.000000, 0.000000)">
                        <g id="Group">
                            <g id="Oval-Copy-5">
                                <use fill="black" fill-opacity="1" filter="url(#filter-3)" xlink:href="#path-2"></use>
                                <circle stroke="url(#linearGradient-1)" stroke-width="2" fill="#FFFFFF" fill-rule="evenodd" cx="120" cy="120" r="121"></circle>
                            </g>
                            <path d="M121.431591,221.51577 C122.009405,221.504763 122.48674,221.964251 122.497747,222.542066 C122.508754,223.119881 122.049266,223.597216 121.471451,223.608223 L121.471451,223.608223 L120.461375,223.622527 C119.88348,223.627888 119.410657,223.163758 119.405296,222.585863 C119.399935,222.007968 119.864065,221.535146 120.441959,221.529784 L120.441959,221.529784 Z M115.337461,221.448595 C115.667928,221.462205 115.998626,221.474193 116.329546,221.484559 C116.907183,221.502653 117.360781,221.985588 117.342687,222.563225 C117.324593,223.140861 116.841658,223.59446 116.264022,223.576365 C115.926237,223.565785 115.588676,223.553547 115.251347,223.539655 C114.673917,223.515876 114.225095,223.028499 114.248874,222.451068 C114.272654,221.873638 114.760031,221.424816 115.337461,221.448595 Z M126.543517,221.288564 C127.120026,221.24822 127.620085,221.682868 127.66043,222.259378 C127.700774,222.835887 127.266126,223.335946 126.689616,223.376291 L126.689616,223.376291 L125.681318,223.441854 C125.104438,223.476509 124.608692,223.036949 124.574037,222.460069 C124.539382,221.88319 124.978942,221.387443 125.555821,221.352788 C125.885308,221.332995 126.214542,221.311586 126.543517,221.288564 Z M110.096395,221.101512 L110.210494,221.105917 L111.194774,221.192211 C111.770727,221.23984 112.199019,221.745354 112.15139,222.321308 C112.103761,222.897261 111.598247,223.325553 111.022293,223.277924 L111.022293,223.277924 L110.01741,223.189824 C109.441955,223.136505 109.01868,222.626784 109.071998,222.051329 C109.125317,221.475874 109.635039,221.052599 110.210494,221.105917 Z M131.682271,220.795368 C132.255926,220.725289 132.777776,221.133518 132.847855,221.707173 C132.917934,222.280828 132.509705,222.802677 131.93605,222.872757 C131.601891,222.913578 131.267409,222.952754 130.932614,222.990282 C130.358291,223.054659 129.840522,222.641266 129.776146,222.066943 C129.711769,221.49262 130.125162,220.974851 130.699485,220.910475 C131.027393,220.873719 131.354991,220.835349 131.682271,220.795368 Z M104.980349,220.487832 L105.094068,220.498133 C105.420703,220.545541 105.747684,220.591337 106.075,220.635517 C106.647726,220.712821 107.049345,221.239775 106.97204,221.812501 C106.894736,222.385227 106.367782,222.786846 105.795056,222.709541 L105.795056,222.709541 L104.79346,222.569264 C104.221533,222.486253 103.825188,221.955322 103.908199,221.383395 C103.991209,220.811468 104.522141,220.415122 105.094068,220.498133 Z M136.779475,220.038059 C137.348721,219.938309 137.891049,220.318911 137.990799,220.888157 C138.09055,221.457403 137.709948,221.999731 137.140702,222.099482 L137.140702,222.099482 L136.144979,222.268846 C135.574765,222.362909 135.036263,221.976913 134.9422,221.4067 C134.848136,220.836486 135.234132,220.297984 135.804346,220.203921 L135.804346,220.203921 Z M98.7863388,220.44837 C98.8989633,219.88153 99.4497776,219.513316 100.016617,219.625941 L100.016617,219.625941 L100.989008,219.814089 C101.556947,219.921033 101.930656,220.468134 101.823712,221.036072 C101.716768,221.604011 101.169667,221.97772 100.601729,221.870776 C100.270335,221.808374 99.9393444,221.74433 99.6087676,221.678648 C99.0419282,221.566023 98.6737143,221.015209 98.7863388,220.44837 Z M141.835874,219.01548 C142.399144,218.886181 142.960582,219.237984 143.089881,219.801254 C143.21918,220.364524 142.867377,220.925962 142.304107,221.055261 C141.975749,221.130636 141.646941,221.204382 141.317693,221.276495 C140.753156,221.400143 140.195272,221.042731 140.071624,220.478194 C139.947976,219.913657 140.305388,219.355772 140.869925,219.232125 C141.192343,219.161507 141.514329,219.089291 141.835874,219.01548 Z M93.7437644,219.254042 C93.8856503,218.69381 94.4548292,218.354674 95.0150609,218.49656 L95.0150609,218.49656 L95.9740877,218.734344 C96.5357116,218.870615 96.8805287,219.43637 96.744258,219.997994 C96.6079874,220.559618 96.042232,220.904435 95.4806081,220.768164 C95.1536842,220.688841 94.8272271,220.607897 94.5012463,220.525338 C93.9410146,220.383452 93.6018784,219.814274 93.7437644,219.254042 Z M146.8327,217.730104 C147.388442,217.571543 147.9675,217.893522 148.126061,218.449264 C148.284622,219.005006 147.962643,219.584064 147.4069,219.742625 C147.082837,219.835085 146.758258,219.925933 146.433171,220.015166 C145.875865,220.16814 145.300069,219.840365 145.147094,219.283059 C144.99412,218.725753 145.321895,218.149957 145.879201,217.996982 L145.879201,217.996982 Z M88.7443816,217.791141 C88.9153362,217.239085 89.5014521,216.930141 90.0535079,217.101096 L90.0535079,217.101096 L91.0015169,217.389454 C91.5552626,217.554853 91.8700796,218.137835 91.7046804,218.691581 C91.5392811,219.245326 90.956299,219.560143 90.4025533,219.394744 L90.4025533,219.394744 L89.4344265,219.100267 C88.8823706,218.929312 88.573427,218.343197 88.7443816,217.791141 Z M151.751553,216.186568 C152.298251,215.999184 152.893342,216.290465 153.080726,216.837163 C153.26811,217.38386 152.976829,217.978951 152.430131,218.166335 C152.111377,218.275591 151.792039,218.383258 151.472126,218.489335 C150.923576,218.671222 150.331438,218.373983 150.149551,217.825432 C149.967663,217.276881 150.264902,216.684744 150.813453,216.502856 C151.126719,216.398984 151.439422,216.293553 151.751553,216.186568 Z M83.8340305,216.071268 C84.0335549,215.528883 84.6349911,215.25094 85.1773758,215.450464 L85.1773758,215.450464 L86.1087507,215.787786 C86.6531113,215.981855 86.9370789,216.58047 86.7430101,217.124831 C86.5489413,217.669191 85.950326,217.953159 85.4059654,217.75909 C85.0883142,217.645845 84.771267,217.531018 84.454834,217.414613 C83.9124493,217.215088 83.6345061,216.613652 83.8340305,216.071268 Z M156.583338,214.388048 C157.119503,214.172368 157.728994,214.432172 157.944675,214.968337 C158.160355,215.504502 157.900551,216.113993 157.364386,216.329674 L157.364386,216.329674 L156.424723,216.702206 C155.886423,216.912501 155.279567,216.646599 155.069272,216.108299 C154.858978,215.569998 155.124879,214.963142 155.66318,214.752848 L155.66318,214.752848 Z M79.0304162,214.102278 C79.2578792,213.571004 79.8729568,213.324717 80.4042305,213.552179 L80.4042305,213.552179 L81.3136546,213.936181 C81.8471746,214.158324 82.0995955,214.77091 81.8774524,215.30443 C81.6553094,215.83795 81.0427234,216.090371 80.5092034,215.868228 L80.5092034,215.868228 L79.5805144,215.476092 C79.0492406,215.248629 78.8029533,214.633551 79.0304162,214.102278 Z M161.310126,212.34191 C161.834326,212.098589 162.456525,212.326286 162.699847,212.850486 C162.943169,213.374686 162.715472,213.996885 162.191272,214.240207 C161.885805,214.381997 161.579617,214.522266 161.272718,214.661007 C160.74611,214.899073 160.12622,214.665163 159.888154,214.138555 C159.650089,213.611947 159.883999,212.992056 160.410607,212.753991 L160.410607,212.753991 Z M74.3443512,211.890831 C74.5990397,211.372059 75.2260537,211.157976 75.7448263,211.412665 C76.0402982,211.557725 76.3365018,211.701316 76.633427,211.843431 C77.1547145,212.092932 77.3750414,212.717779 77.1255408,213.239067 C76.8760403,213.760354 76.2511931,213.980681 75.7299056,213.73118 L75.7299056,213.73118 L74.8225179,213.291306 C74.3037453,213.036618 74.0896628,212.409604 74.3443512,211.890831 Z M165.923012,210.053051 C166.433855,209.782809 167.067049,209.977854 167.337291,210.488697 C167.607533,210.99954 167.412488,211.632735 166.901645,211.902977 L166.901645,211.902977 L166.006489,212.370824 C165.492974,212.635954 164.861758,212.4346 164.596627,211.921085 C164.331497,211.407571 164.532851,210.776355 165.046366,210.511224 L165.046366,210.511224 Z M69.7605955,209.429371 C70.0418754,208.924522 70.679159,208.743283 71.1840083,209.024563 L71.1840083,209.024563 L72.0514524,209.502208 C72.5590839,209.778435 72.7466743,210.413878 72.4704472,210.92151 C72.1942201,211.429141 71.5587771,211.616731 71.0511456,211.340504 L71.0511456,211.340504 L70.1654039,210.852784 C69.6605546,210.571504 69.4793157,209.93422 69.7605955,209.429371 Z M170.412902,207.526526 C170.909035,207.230142 171.551496,207.39207 171.84788,207.888203 C172.144264,208.384336 171.982336,209.026798 171.486203,209.323181 L171.486203,209.323181 L170.616139,209.837086 C170.117078,210.128514 169.476261,209.960194 169.184834,209.461133 C168.893406,208.962073 169.061726,208.321256 169.560787,208.029829 L169.560787,208.029829 Z M65.311867,206.734433 C65.618913,206.244827 66.264727,206.096833 66.7543329,206.403879 L66.7543329,206.403879 L67.594319,206.924861 C68.0869524,207.227025 68.2413578,207.871337 67.9391931,208.36397 C67.6370284,208.856603 66.9927172,209.011009 66.5000838,208.708844 L66.5000838,208.708844 L65.6424209,208.176898 C65.152815,207.869852 65.004821,207.224038 65.311867,206.734433 Z M174.770514,204.767556 C175.250621,204.44586 175.900611,204.574276 176.222308,205.054383 C176.544005,205.53449 176.415588,206.18448 175.935481,206.506176 C175.655205,206.693976 175.373996,206.88038 175.091865,207.06538 C174.60858,207.382282 173.9599,207.247401 173.642999,206.764116 C173.326097,206.280831 173.460978,205.632151 173.944263,205.31525 L173.944263,205.31525 Z M61.0023228,203.80871 C61.3342914,203.335648 61.9868979,203.221268 62.4599603,203.553237 C62.7294863,203.742375 62.9999462,203.930176 63.2713301,204.116631 C63.7476593,204.443895 63.8685007,205.095336 63.5412369,205.571665 C63.213973,206.047994 62.5625321,206.168836 62.0862029,205.841572 C61.8091198,205.651201 61.5329807,205.459457 61.2577957,205.266347 C60.7847333,204.934379 60.6703542,204.281772 61.0023228,203.80871 Z M178.971429,201.792713 C179.434292,201.446665 180.090044,201.541363 180.436091,202.004226 C180.782139,202.467089 180.687442,203.12284 180.224579,203.468888 L180.224579,203.468888 L179.413773,204.068832 C178.947506,204.41028 178.292724,204.309094 177.951277,203.842828 C177.609829,203.376561 177.711014,202.721779 178.177281,202.380331 L178.177281,202.380331 Z M56.8496061,200.664133 C57.2055625,200.208846 57.8632052,200.128323 58.3184921,200.484279 L58.3184921,200.484279 L59.0993823,201.088604 C59.5581671,201.440041 59.64519,202.096855 59.2937534,202.55564 C58.9423168,203.014425 58.2855026,203.101448 57.8267178,202.750011 L57.8267178,202.750011 L57.0294599,202.133019 C56.5741729,201.777063 56.4936496,201.11942 56.8496061,200.664133 Z M183.015008,198.603823 C183.459418,198.234377 184.119179,198.295147 184.488626,198.739557 C184.858072,199.183968 184.797302,199.843729 184.352892,200.213175 L184.352892,200.213175 L183.571945,200.855871 C183.123894,201.220894 182.464768,201.153586 182.099745,200.705535 C181.734722,200.257484 181.80203,199.598358 182.250081,199.233335 L182.250081,199.233335 Z M52.8592775,197.304756 C53.2382692,196.868458 53.8991926,196.822001 54.3354912,197.200993 L54.3354912,197.200993 L55.0872151,197.847468 C55.5272508,198.222114 55.5802594,198.882544 55.2056131,199.32258 C54.8309669,199.762615 54.1705367,199.815624 53.7305011,199.440978 L53.7305011,199.440978 L52.9630409,198.78097 C52.5267423,198.401978 52.4802859,197.741055 52.8592775,197.304756 Z M186.885625,195.213933 C187.310442,194.822115 187.972456,194.848866 188.364274,195.273683 C188.756092,195.6985 188.729341,196.360514 188.304524,196.752332 L188.304524,196.752332 L187.557587,197.434433 C187.128909,197.822024 186.467193,197.788717 186.079602,197.360039 C185.692011,196.931362 185.725318,196.269645 186.153996,195.882054 L186.153996,195.882054 Z M49.0489472,193.745251 C49.4499358,193.329078 50.1123755,193.31677 50.5285477,193.717758 L50.5285477,193.717758 L51.2436586,194.399999 C51.663772,194.796857 51.6826246,195.459143 51.2857671,195.879256 C50.8889096,196.29937 50.2266238,196.318222 49.8065104,195.921365 L49.8065104,195.921365 L49.0764395,195.224851 C48.6602673,194.823862 48.6479585,194.161423 49.0489472,193.745251 Z M190.529797,191.677503 C190.934185,191.264633 191.596703,191.257757 192.009573,191.662145 C192.422443,192.066533 192.429319,192.729051 192.024931,193.141921 L192.024931,193.141921 L191.314608,193.860005 C190.906157,194.268856 190.243603,194.26918 189.834752,193.860729 C189.425901,193.452278 189.425577,192.789724 189.834028,192.380873 L189.834028,192.380873 Z M45.4959468,190.0689 C45.9174628,189.673532 46.5796777,189.69473 46.9750451,190.116246 L46.9750451,190.116246 L47.654887,190.833911 C48.0544005,191.2515 48.0397477,191.913892 47.6221592,192.313405 C47.2045706,192.712918 46.5421786,192.698266 46.1426652,192.280677 L46.1426652,192.280677 L45.4486007,191.547998 C45.0532332,191.126482 45.0744308,190.464267 45.4959468,190.0689 Z M194.033363,187.911458 C194.415992,187.478345 195.077281,187.437421 195.510393,187.82005 C195.943506,188.202679 195.98443,188.863968 195.601801,189.29708 C195.378755,189.549555 195.154459,189.800925 194.928922,190.051181 C194.542025,190.480484 193.880363,190.514861 193.45106,190.127963 C193.021756,189.741065 192.98738,189.079404 193.374277,188.650101 L193.374277,188.650101 Z M42.073296,186.145053 C42.5146173,185.771922 43.1748613,185.827201 43.5479922,186.268522 C43.7605544,186.51993 43.974359,186.770289 44.1893974,187.019588 C44.5668703,187.457201 44.5181169,188.117959 44.0805037,188.495432 C43.6428904,188.872905 42.9821325,188.824152 42.6046596,188.386538 L42.6046596,188.386538 L41.9498265,187.619749 C41.5766956,187.178428 41.6319747,186.518184 42.073296,186.145053 Z M197.346313,183.960567 C197.706097,183.508298 198.364395,183.433324 198.816664,183.793108 C199.268932,184.152892 199.343906,184.811191 198.984122,185.263459 L198.984122,185.263459 L198.352061,186.049978 C197.98782,186.498665 197.328812,186.567122 196.880125,186.202882 C196.431438,185.838641 196.362981,185.179633 196.727221,184.730946 L196.727221,184.730946 Z M38.859496,182.052756 C39.3194582,181.702862 39.9759765,181.792089 40.3258708,182.252052 L40.3258708,182.252052 L40.9285766,183.036261 C41.2830104,183.492734 41.2002911,184.150104 40.7438178,184.504538 C40.2873445,184.858972 39.6299744,184.776253 39.2755406,184.319779 C39.0691053,184.053912 38.8639891,183.787026 38.6602005,183.519131 C38.3103062,183.059169 38.3995339,182.40265 38.859496,182.052756 Z M200.448808,179.846987 C200.784772,179.376754 201.438324,179.267907 201.908557,179.603871 C202.37879,179.939835 202.487637,180.593387 202.151673,181.063621 L202.151673,181.063621 L201.559476,181.883847 C201.218857,182.350719 200.564255,182.453067 200.097383,182.112448 C199.630511,181.771829 199.528162,181.117228 199.868782,180.650356 L199.868782,180.650356 Z M35.8630626,177.803095 C36.3404591,177.47739 36.9915015,177.600361 37.3172064,178.077757 C37.5031757,178.350339 37.6904992,178.621996 37.8791693,178.89272 C38.2096004,179.366858 38.0931033,180.01909 37.6189657,180.349521 C37.1448282,180.679952 36.4925964,180.563455 36.1621652,180.089317 L36.1621652,180.089317 L35.5884005,179.257239 C35.2626956,178.779843 35.385666,178.1288 35.8630626,177.803095 Z M203.339182,175.571588 C203.650342,175.084587 204.29738,174.942039 204.784381,175.253199 C205.271383,175.564359 205.413931,176.211396 205.102771,176.698398 C204.921783,176.981667 204.739389,177.264035 204.555598,177.545494 C204.239621,178.029384 203.5912,178.165504 203.107311,177.849526 C202.623421,177.533549 202.4873,176.885128 202.803278,176.401238 C202.983284,176.125576 203.161921,175.849022 203.339182,175.571588 Z M33.0855029,173.396575 C33.5791218,173.096023 34.2229245,173.252534 34.5234766,173.746153 C34.6952092,174.028202 34.8683459,174.309394 35.0428794,174.589717 C35.3483344,175.080317 35.1982446,175.725647 34.7076445,176.031102 C34.2170444,176.336557 33.5717143,176.186467 33.2662593,175.695867 C33.0880527,175.409644 32.911272,175.122535 32.7359245,174.834548 C32.4353724,174.34093 32.591884,173.697127 33.0855029,173.396575 Z M206.000337,171.158536 C206.285837,170.656061 206.924617,170.480168 207.427092,170.765668 C207.929567,171.051168 208.10546,171.689948 207.81996,172.192423 L207.81996,172.192423 L207.315581,173.069894 C207.02508,173.569494 206.384576,173.739002 205.884976,173.448501 C205.385376,173.157999 205.215868,172.517496 205.50637,172.017896 L205.50637,172.017896 Z M30.5435698,168.85839 C31.0520997,168.583821 31.6869273,168.773483 31.961497,169.282013 C32.1184107,169.572632 32.2767727,169.862462 32.4365764,170.151491 C32.7162114,170.657253 32.5328992,171.293943 32.0271369,171.573579 C31.5213747,171.853214 30.8846845,171.669901 30.6050494,171.164139 L30.6050494,171.164139 L30.1199472,170.276317 C29.8453776,169.767787 30.0350398,169.13296 30.5435698,168.85839 Z M208.426962,166.617212 C208.685994,166.100594 209.314782,165.89178 209.831399,166.150811 C210.348017,166.409843 210.556831,167.038631 210.2978,167.555249 L210.2978,167.555249 L209.840108,168.456804 C209.575925,168.970806 208.945082,169.173326 208.431079,168.909143 C207.917076,168.644961 207.714557,168.014117 207.978739,167.500115 L207.978739,167.500115 Z M28.2392365,164.191419 C28.7613488,163.943649 29.3854616,164.166048 29.6332314,164.68816 L29.6332314,164.68816 L30.0613906,165.578888 C30.3143614,166.0985 30.0982058,166.724802 29.5785935,166.977773 C29.0589812,167.230744 28.4326789,167.014588 28.179708,166.494976 C28.0324634,166.19253 27.8867238,165.889339 27.7424953,165.585414 C27.4947255,165.063301 27.7171241,164.439189 28.2392365,164.191419 Z M210.610119,161.965465 C210.841979,161.436096 211.459077,161.194916 211.988447,161.426776 C212.517817,161.658635 212.758996,162.275733 212.527137,162.805103 L212.527137,162.805103 L212.116292,163.730468 C211.879134,164.257485 211.259648,164.492464 210.732631,164.255307 C210.205613,164.018149 209.970635,163.398663 210.207792,162.871646 L210.207792,162.871646 Z M26.1795188,159.407298 C26.7138346,159.187075 27.3255085,159.441699 27.5457305,159.976015 L27.5457305,159.976015 L27.9273976,160.88903 C28.1529613,161.421113 27.9044783,162.035306 27.3723953,162.26087 C26.8403124,162.486434 26.2261186,162.237951 26.000555,161.705868 L26.000555,161.705868 L25.6108017,160.773509 C25.3905797,160.239193 25.645203,159.62752 26.1795188,159.407298 Z M212.539444,157.230742 C212.743596,156.690082 213.347386,156.417289 213.888045,156.621441 C214.428705,156.825593 214.701499,157.429383 214.497346,157.970042 L214.497346,157.970042 L214.13595,158.912818 C213.926392,159.451406 213.3199,159.718137 212.781313,159.508579 C212.242725,159.299021 211.975994,158.692529 212.185552,158.153942 L212.185552,158.153942 Z M24.371754,154.520831 C24.9168395,154.328807 25.5143843,154.615021 25.7064076,155.160106 C25.8159151,155.470959 25.926968,155.781227 26.0395613,156.090902 C26.2370372,156.634036 25.9568261,157.234419 25.4136922,157.431895 C24.8705583,157.629371 24.2701754,157.349159 24.0726995,156.806026 L24.0726995,156.806026 L23.7324783,155.855484 C23.540455,155.310399 23.8266685,154.712854 24.371754,154.520831 Z M214.234513,152.360082 C214.41013,151.809492 214.998838,151.505516 215.549428,151.681133 C216.100019,151.85675 216.403995,152.445457 216.228378,152.996048 L216.228378,152.996048 L215.916266,153.957867 C215.73513,154.506667 215.1434,154.804717 214.594601,154.623581 C214.045801,154.442444 213.747751,153.850715 213.928888,153.301915 L213.928888,153.301915 Z M22.8217467,149.54658 C23.3761212,149.383301 23.9578944,149.700346 24.1211735,150.254721 C24.2143708,150.57115 24.3091405,150.887059 24.4054783,151.202441 C24.574311,151.755149 24.2631183,152.340074 23.7104098,152.508907 C23.1577013,152.677739 22.5727765,152.366547 22.4039438,151.813838 L22.4039438,151.813838 L22.1136058,150.846007 C21.9503267,150.291632 22.2673722,149.709859 22.8217467,149.54658 Z M215.670617,147.41531 C215.817261,146.856305 216.389302,146.52202 216.948307,146.668664 C217.507313,146.815308 217.841598,147.387349 217.694954,147.946354 C217.609563,148.271865 217.522557,148.596885 217.433942,148.921405 C217.281705,149.478913 216.706343,149.80745 216.148835,149.655213 C215.591327,149.502976 215.26279,148.927614 215.415027,148.370106 L215.415027,148.370106 Z M21.5334315,144.496835 C22.0955795,144.362743 22.659994,144.70975 22.7940865,145.271898 L22.7940865,145.271898 L23.028399,146.232837 C23.1681174,146.793613 22.8267827,147.361476 22.2660065,147.501194 C21.7052303,147.640913 21.1373672,147.299578 20.9976488,146.738802 C20.9162672,146.412167 20.8365058,146.08506 20.7583686,145.75749 C20.624276,145.195342 20.9712836,144.630928 21.5334315,144.496835 Z M216.848045,142.396498 C216.965317,141.830601 217.519134,141.466919 218.08503,141.584191 C218.650926,141.701462 219.014608,142.255279 218.897337,142.821175 C218.828804,143.151885 218.758628,143.482166 218.686814,143.812011 C218.563869,144.376701 218.00643,144.734807 217.441739,144.611862 C216.877048,144.488916 216.518943,143.931477 216.641888,143.366787 L216.641888,143.366787 Z M20.510685,139.388405 C21.0790592,139.283802 21.6246154,139.659763 21.7292189,140.228137 C21.7889438,140.552659 21.8502743,140.876789 21.9132069,141.20052 C22.023489,141.76782 21.653003,142.317108 21.0857032,142.42739 C20.5184034,142.537673 19.9691148,142.167187 19.8588327,141.599887 L19.8588327,141.599887 L19.6709536,140.606939 C19.5663502,140.038565 19.9423107,139.493009 20.510685,139.388405 Z M218.837682,136.464384 L218.951309,136.475642 C219.522517,136.563466 219.914376,137.097718 219.826551,137.668925 C219.775184,138.003017 219.722161,138.336745 219.667485,138.670098 C219.573947,139.240398 219.035801,139.62689 218.465501,139.533352 C217.895201,139.439814 217.508709,138.901667 217.602247,138.331367 C217.655792,138.004904 217.70772,137.678073 217.758026,137.350884 C217.845851,136.779676 218.380102,136.387817 218.951309,136.475642 Z M19.753622,134.222033 C20.3266716,134.147164 20.8519133,134.55102 20.9267822,135.124069 C20.9695433,135.451365 21.0139187,135.778331 21.0599053,136.104957 C21.1404774,136.677233 20.7418731,137.20647 20.1695976,137.287042 C19.597322,137.367615 19.0680844,136.96901 18.9875122,136.396735 L18.9875122,136.396735 L18.851586,135.395193 C18.7767172,134.822144 19.1805724,134.296902 19.753622,134.222033 Z M219.441077,131.298564 L219.555135,131.303924 C220.130123,131.36206 220.549115,131.875308 220.49098,132.450296 C220.457028,132.786098 220.421421,133.121598 220.384161,133.456787 C220.320313,134.031169 219.802925,134.445038 219.228544,134.38119 C218.654162,134.317342 218.240292,133.799954 218.30414,133.225573 C218.340633,132.897275 218.375509,132.568671 218.408763,132.239769 C218.466899,131.664781 218.980147,131.245789 219.555135,131.303924 Z M19.2664519,129.036339 C19.8426034,128.991167 20.3462859,129.421611 20.391458,129.997763 L20.391458,129.997763 L20.4736891,130.983977 C20.5245584,131.559654 20.0991181,132.06757 19.5234416,132.118439 C18.947765,132.169308 18.4398492,131.743868 18.3889799,131.168191 L18.3889799,131.168191 L18.3050286,130.161346 C18.2598564,129.585194 18.6903003,129.081512 19.2664519,129.036339 Z M219.891284,126.117005 C220.468498,126.145549 220.913283,126.636613 220.884739,127.213828 C220.868139,127.549521 220.849898,127.884972 220.83002,128.220174 C220.795807,128.79708 220.300398,129.23702 219.723492,129.202808 C219.146586,129.168596 218.706645,128.673186 218.740858,128.09628 L218.740858,128.09628 L218.794461,127.110461 C218.823005,126.533247 219.314069,126.088461 219.891284,126.117005 Z M19.0469856,123.870079 C19.6246893,123.854279 20.1058187,124.309792 20.1216183,124.887496 L20.1216183,124.887496 L20.1535287,125.876797 C20.1749933,126.454318 19.7242207,126.939892 19.1466997,126.961357 C18.5691788,126.982821 18.083605,126.532049 18.0621404,125.954528 L18.0621404,125.954528 L18.0295682,124.944711 C18.0137686,124.367008 18.4692819,123.885878 19.0469856,123.870079 Z M219.962369,120.918329 C220.540288,120.917471 221.009482,121.385269 221.010343,121.963188 L221.010343,121.963188 L221.006923,122.973869 C221.002147,123.551769 220.529796,124.016379 219.951896,124.011603 C219.373996,124.006828 218.909387,123.534477 218.914162,122.956577 L218.914162,122.956577 L218.917513,121.966307 C218.916652,121.388388 219.38445,120.919193 219.962369,120.918329 Z M19.0887779,118.708141 C19.6665436,118.72148 20.1241024,119.200664 20.110764,119.77843 L20.110764,119.77843 L20.0927419,120.769429 C20.0850622,121.347298 19.6103815,121.809527 19.0325128,121.801847 C18.4546442,121.794168 17.9924147,121.319487 18.0000943,120.741618 C18.0045778,120.404249 18.0107101,120.067082 18.0184891,119.730128 C18.0318275,119.152362 18.5110121,118.694803 19.0887779,118.708141 Z M219.773296,115.788448 C220.350441,115.758539 220.842556,116.202162 220.872465,116.779307 C220.889885,117.115467 220.905661,117.45187 220.919788,117.788507 C220.94402,118.365918 220.495579,118.853646 219.918167,118.877878 C219.340756,118.90211 218.853028,118.453669 218.828796,117.876258 L218.828796,117.876258 L218.782437,116.887617 C218.752528,116.310471 219.196151,115.818357 219.773296,115.788448 Z M19.2802448,113.521144 L19.3944049,113.52347 C19.9707357,113.566296 20.4032271,114.068221 20.3604015,114.644552 C20.3359409,114.973733 20.3130966,115.303179 20.291871,115.632882 C20.2547427,116.209608 19.7571155,116.647038 19.1803897,116.60991 C18.6036639,116.572782 18.1662338,116.075155 18.2033621,115.498429 C18.2250306,115.161845 18.2483518,114.825522 18.2733232,114.489466 C18.3161488,113.913136 18.8180742,113.480644 19.3944049,113.52347 Z M219.31857,110.618595 C219.893423,110.559134 220.407636,110.976942 220.467097,111.551795 C220.501729,111.886604 220.534714,112.221715 220.566051,112.557118 C220.619811,113.132532 220.196928,113.642578 219.621514,113.696339 C219.0461,113.750099 218.536054,113.327216 218.482293,112.751802 L218.482293,112.751802 L218.385371,111.767122 C218.32591,111.192269 218.743718,110.678057 219.31857,110.618595 Z M19.853469,108.34267 L19.9673572,108.350881 C20.5407119,108.423376 20.9467388,108.946941 20.8742437,109.520295 L20.8742437,109.520295 L20.7548468,110.503908 C20.6880621,111.077956 20.1685647,111.489174 19.5945168,111.42239 C19.0204689,111.355605 18.6092508,110.836108 18.6760355,110.26206 L18.6760355,110.26206 L18.7979426,109.257767 C18.8704377,108.684413 19.3940024,108.278386 19.9673572,108.350881 Z M218.594272,105.45615 C219.165269,105.366965 219.700451,105.757551 219.789636,106.328547 C219.841588,106.661164 219.891898,106.994142 219.940562,107.327474 C220.02405,107.899331 219.628148,108.430594 219.056291,108.514082 C218.484433,108.59757 217.953171,108.201668 217.869683,107.62981 L217.869683,107.62981 L217.721874,106.651514 C217.632689,106.080517 218.023275,105.545334 218.594272,105.45615 Z M19.5921348,104.062343 C19.6942609,103.493519 20.2381739,103.115185 20.8069985,103.217311 C21.3758231,103.319437 21.754157,103.86335 21.652031,104.432174 L21.652031,104.432174 L21.4819989,105.407208 C21.3855614,105.977024 20.8454557,106.360774 20.2756391,106.264336 C19.7058225,106.167899 19.3220729,105.627793 19.4185105,105.057977 C19.4747435,104.725715 19.5326194,104.393834 19.5921348,104.062343 Z M217.602038,100.336722 C218.167613,100.21791 218.722418,100.580083 218.84123,101.145658 L218.84123,101.145658 L219.044042,102.135699 C219.157187,102.702434 218.78948,103.253586 218.222744,103.366731 C217.656008,103.479876 217.104856,103.112169 216.991711,102.545433 C216.927109,102.221848 216.860905,101.898672 216.793103,101.575915 C216.674291,101.01034 217.036463,100.455534 217.602038,100.336722 Z M20.6514902,98.9309507 C20.7829892,98.3681904 21.3457976,98.018584 21.908558,98.1500831 C22.4713183,98.2815822 22.8209246,98.8443906 22.6894255,99.4071509 C22.6143805,99.7283117 22.5409283,100.049918 22.4690726,100.371961 C22.3432192,100.93601 21.7839422,101.291239 21.2198925,101.165385 C20.6558427,101.039532 20.3006145,100.480255 20.4264679,99.9162051 C20.4998461,99.5873389 20.5748548,99.2589176 20.6514902,98.9309507 Z M216.346267,95.2846406 C216.904876,95.1364953 217.477813,95.469242 217.625959,96.0278511 C217.71232,96.3534901 217.797063,96.6796214 217.880184,97.0062352 C218.022718,97.5663024 217.68424,98.1358731 217.124173,98.2784069 C216.564106,98.4209408 215.994535,98.0824631 215.852001,97.5223959 C215.770606,97.2025654 215.687623,96.8832078 215.603056,96.5643326 C215.454911,96.0057235 215.787658,95.4327859 216.346267,95.2846406 Z M21.9815953,93.8419008 C22.1422813,93.2867692 22.7225662,92.9670078 23.2776978,93.1276938 C23.8328295,93.2883798 24.1525909,93.8686647 23.9919049,94.4237964 L23.9919049,94.4237964 L23.7212707,95.3766624 C23.5661678,95.9333798 22.9891235,96.2589527 22.4324061,96.1038498 C21.8756887,95.948747 21.5501158,95.3717026 21.7052186,94.8149852 L21.7052186,94.8149852 Z M214.828172,90.3039882 C215.378284,90.1268758 215.967815,90.429251 216.144927,90.9793623 C216.248233,91.3002289 216.349941,91.6216556 216.450046,91.9436326 C216.621625,92.4954947 216.313345,93.0819596 215.761483,93.2535387 C215.209621,93.4251178 214.623156,93.1168374 214.451577,92.5649753 C214.353551,92.2496893 214.253957,91.9349419 214.152798,91.6207431 C213.975686,91.0706318 214.278061,90.4811006 214.828172,90.3039882 Z M23.5772218,88.8243722 C23.7666987,88.2783964 24.3629011,87.9893969 24.9088769,88.1788739 C25.4548528,88.3683508 25.7438523,88.9645531 25.5543753,89.510529 L25.5543753,89.510529 L25.2349,90.4462082 C25.0509054,90.9940559 24.4576299,91.2890172 23.9097822,91.1050226 C23.3619344,90.9210279 23.0669732,90.3277525 23.2509678,89.7799047 C23.3581347,89.4608129 23.4668877,89.1422988 23.5772218,88.8243722 Z M213.051929,85.4090054 C213.592042,85.2034124 214.196557,85.4745949 214.40215,86.0147085 C214.521956,86.3294501 214.640194,86.6448192 214.75686,86.9608057 C214.957027,87.5029534 214.679797,88.1047187 214.13765,88.3048861 C213.595502,88.5050535 212.993737,88.2278236 212.793569,87.6856758 L212.793569,87.6856758 L212.446226,86.7592265 C212.240633,86.2191129 212.511815,85.6145983 213.051929,85.4090054 Z M25.434295,83.893423 C25.6520477,83.358096 26.2625394,83.1006512 26.7978663,83.3184038 C27.3331933,83.5361565 27.5906381,84.1466482 27.3728854,84.6819751 L27.3728854,84.6819751 L27.0048505,85.5999025 C26.7924704,86.1373836 26.1845879,86.40093 25.6471068,86.18855 C25.1096258,85.97617 24.8460793,85.3682874 25.0584594,84.8308064 L25.0584594,84.8308064 Z M211.024986,80.6183426 C211.553656,80.3848913 212.171477,80.6242132 212.404928,81.1528829 L212.404928,81.1528829 L212.808243,82.0787292 C213.036392,82.6097084 212.7909,83.2251039 212.259921,83.4532535 C211.728942,83.6814032 211.113546,83.4359113 210.885397,82.9049321 L210.885397,82.9049321 L210.490446,81.9982847 C210.256994,81.4696149 210.496316,80.8517938 211.024986,80.6183426 Z M27.5222497,79.1176523 C27.7673478,78.5942804 28.3903157,78.3686948 28.9136876,78.6137929 C29.4370595,78.8588909 29.662645,79.4818588 29.417547,80.0052307 C29.2778167,80.3036047 29.1395718,80.6026878 29.002818,80.9024699 C28.7629622,81.4282649 28.1422796,81.6600644 27.6164846,81.4202086 C27.0906896,81.1803528 26.8588901,80.5596703 27.0987459,80.0338753 L27.0987459,80.0338753 Z M208.770709,75.9766433 C209.286632,75.7162322 209.915976,75.923366 210.176387,76.4392897 L210.176387,76.4392897 L210.626961,77.3431533 C210.882207,77.8616519 210.668798,78.4888956 210.1503,78.7441413 C209.631801,78.999387 209.004557,78.7859784 208.749312,78.2674798 L208.749312,78.2674798 L208.308062,77.3823217 C208.047651,76.8663981 208.254785,76.2370544 208.770709,75.9766433 Z M29.8733141,74.4191827 C30.1452608,73.9092453 30.7791031,73.7163157 31.2890405,73.9882624 C31.7989779,74.2602091 31.9919075,74.8940514 31.7199608,75.4039888 L31.7199608,75.4039888 L31.2591767,76.2784944 C30.9923281,76.791118 30.360441,76.9903581 29.8478174,76.7235095 C29.3351937,76.4566609 29.1359537,75.8247738 29.4028022,75.3121502 C29.558158,75.0137073 29.7149975,74.716048 29.8733141,74.4191827 Z M206.253818,71.4118829 C206.755505,71.1249997 207.394767,71.2991321 207.68165,71.8008184 L207.68165,71.8008184 L208.178242,72.6793528 C208.460116,73.1838705 208.279628,73.8213671 207.77511,74.1032411 C207.270592,74.3851152 206.633096,74.2046268 206.351222,73.7001091 L206.351222,73.7001091 L205.864883,72.8397144 C205.578,72.3380281 205.752132,71.6987662 206.253818,71.4118829 Z M32.4667314,69.8460122 C32.7647514,69.3508605 33.4077441,69.1910536 33.9028959,69.4890735 C34.3980476,69.7870935 34.5578545,70.4300862 34.2598346,70.925238 L34.2598346,70.925238 L33.7541608,71.77494 C33.4610827,72.2730327 32.819712,72.4392299 32.3216192,72.1461517 C31.8235265,71.8530736 31.6573293,71.2117029 31.9504075,70.7136101 L31.9504075,70.7136101 Z M203.505869,66.9877155 C203.992013,66.6752172 204.63944,66.8159848 204.951938,67.3021288 L204.951938,67.3021288 L205.493982,68.1546576 C205.80163,68.643885 205.654432,69.2898807 205.165204,69.5975293 C204.675977,69.9051779 204.029981,69.7579792 203.722332,69.2687517 L203.722332,69.2687517 L203.191455,68.4337854 C202.878957,67.9476414 203.019725,67.3002139 203.505869,66.9877155 Z M35.297695,65.4070765 C35.6209653,64.928028 36.2713732,64.8017447 36.7504217,65.125015 C37.2294703,65.4482853 37.3557535,66.0986932 37.0324832,66.5777418 L37.0324832,66.5777418 L36.4827605,67.401163 C36.1642683,67.8834014 35.5151479,68.0161439 35.0329095,67.6976518 C34.5506711,67.3791596 34.4179285,66.7300392 34.7364207,66.2478007 C34.9221175,65.9666318 35.1092115,65.6863869 35.297695,65.4070765 Z M200.536427,62.7167869 C201.005781,62.3795965 201.659615,62.4867367 201.996806,62.9560913 L201.996806,62.9560913 L202.583296,63.7810849 C202.915803,64.253769 202.802167,64.9065054 202.329483,65.2390124 C201.856799,65.5715195 201.204062,65.4578835 200.871555,64.9851995 C200.681419,64.7149067 200.489939,64.4455588 200.297122,64.177166 C199.959932,63.7078113 200.067072,63.0539773 200.536427,62.7167869 Z M38.3530586,61.1225999 C38.7006504,60.6608954 39.3567148,60.5683888 39.8184193,60.9159807 C40.2801238,61.2635726 40.3726304,61.9196369 40.0250385,62.3813414 L40.0250385,62.3813414 L39.4338456,63.1747757 C39.0908488,63.639904 38.435734,63.7389112 37.9706056,63.3959144 C37.5054773,63.0529176 37.4064701,62.3978028 37.7494669,61.9326744 L37.7494669,61.9326744 Z M197.359087,58.6150498 C197.810481,58.2541705 198.46896,58.3275479 198.829839,58.7789428 L198.829839,58.7789428 L199.457543,59.5721206 C199.813927,60.0270729 199.734021,60.684791 199.279069,61.041175 C198.824117,61.3975589 198.166399,61.3176535 197.810015,60.8627012 L197.810015,60.8627012 L197.195194,60.0858022 C196.834314,59.6344074 196.907692,58.9759291 197.359087,58.6150498 Z M41.6272914,56.9994896 C41.9982501,56.5563408 42.6582146,56.4978193 43.1013634,56.868778 C43.5445121,57.2397368 43.6030336,57.8997013 43.2320749,58.34285 L43.2320749,58.34285 L42.6008442,59.1045481 C42.2342903,59.5513471 41.5749374,59.6163985 41.1281384,59.2498445 C40.6813394,58.8832905 40.616288,58.2239376 40.982842,57.7771387 C41.1963727,57.5168623 41.4111921,57.2576426 41.6272914,56.9994896 Z M193.962274,54.667644 C194.394469,54.2839787 195.055854,54.3233193 195.439519,54.7555138 L195.439519,54.7555138 L196.107214,55.5152111 C196.486579,55.9511854 196.440688,56.6121483 196.004713,56.991513 C195.568739,57.3708777 194.907776,57.3249865 194.528412,56.8890122 L194.528412,56.8890122 L193.874404,56.1448889 C193.490739,55.7126944 193.53008,55.0513094 193.962274,54.667644 Z M45.1139521,53.0463388 C45.5072896,52.6229279 46.1693949,52.5985486 46.5928058,52.991886 C47.0162168,53.3852235 47.0405961,54.0473289 46.6472586,54.4707398 L46.6472586,54.4707398 L45.9770874,55.1993477 C45.5879596,55.6266307 44.9261279,55.6575615 44.498845,55.2684337 C44.071562,54.8793059 44.0406312,54.2174742 44.429759,53.7901912 L44.429759,53.7901912 Z M190.375798,50.9095718 C190.787711,50.5042093 191.450244,50.5095196 191.855606,50.9214328 L191.855606,50.9214328 L192.560167,51.6444923 C192.961438,52.060392 192.94958,52.7228399 192.53368,53.1241112 C192.11778,53.5253825 191.455332,53.5135239 191.054061,53.0976243 L191.054061,53.0976243 L190.363937,52.3893802 C189.958574,51.9774671 189.963885,51.3149343 190.375798,50.9095718 Z M76.5004813,21.6938075 L80.363212,29.3362109 L79.0060513,30.0209322 L78.0887183,28.2061472 C76.4755022,25.3008247 73.7586615,24.2850194 71.0897386,25.6347133 C68.6825712,26.8502776 68.0840823,29.0138976 69.3615306,31.8260265 C70.307036,33.9593395 72.150857,34.5788373 75.851541,34.1516826 L76.5358247,34.0908068 C81.7874485,33.6705523 84.5113082,34.6017601 86.4213416,38.3798577 C88.5394367,42.6738142 86.93824,46.311341 81.8856959,48.8655193 C79.4117082,50.1155037 77.0986777,50.3506653 75.1496279,49.6364398 C74.9946594,49.5765406 74.8416259,49.5121756 74.6916105,49.4438641 L74.4689864,49.3385018 L74.3615357,49.282973 L75.4450745,51.4249057 L74.0880622,52.1110872 L69.5460042,43.1237659 L70.9031889,42.4390325 L71.8048075,44.2228922 C73.8472981,48.2659333 76.5550925,49.8553682 80.7645661,47.7279998 C83.4433395,46.3742509 84.3822256,43.8900986 83.2442896,41.3562936 C82.2521556,39.136415 80.0247984,38.2990675 76.3036099,38.6059741 L75.2845728,38.6989842 C70.4317956,39.1000472 67.9562323,38.3076599 66.2857326,35.0019351 C64.2200275,30.9152614 65.4674084,26.7718296 70.0473716,24.4578124 C71.9885736,23.4763806 74.1214887,23.430858 75.8319114,24.246942 L76.0624744,24.3635598 L76.1795357,24.429973 L75.1433118,22.3785333 L76.5004813,21.6938075 Z M48.7609818,49.3162177 C49.1754253,48.9134427 49.8379119,48.9229019 50.2406869,49.3373454 C50.643462,49.7517889 50.6340028,50.4142755 50.2195593,50.8170505 L50.2195593,50.8170505 L49.5132234,51.5103261 C49.1027846,51.9171813 48.4402369,51.9142761 48.0333817,51.5038373 C47.6265266,51.0933984 47.6294317,50.4308507 48.0398706,50.0239955 L48.0398706,50.0239955 Z M172.551486,25.97386 C177.548977,28.6816569 178.608495,31.5488327 176.797762,34.8901104 C175.772989,36.7814253 174.003348,37.9712579 172.032296,38.2670564 L171.774105,38.3005529 L171.552536,38.319973 L171.564459,38.3360281 C173.023785,40.4283811 173.326066,43.0330112 172.196026,45.5171063 L172.069457,45.7827693 L171.931852,46.0473369 C169.302548,50.897654 165.120358,51.9273908 159.914679,49.1063738 C157.696222,47.903477 156.288371,46.1074737 155.672457,43.9539397 L155.593375,43.658082 L155.528331,43.3967425 L156.971866,43.018085 L157.041208,43.2816411 C157.554733,45.2334382 158.678645,46.7817723 160.340957,47.6827881 C162.740153,48.9826152 166.131112,47.6074181 167.627894,44.8473596 C168.95703,42.3937437 168.22744,40.1403737 166.174671,37.8614744 L165.844144,37.5043425 L166.471124,36.345587 L166.638538,36.3500365 C169.504196,36.4262002 171.3129,35.5207281 172.631752,33.2426531 L172.960709,32.6450518 C173.045751,32.4856555 173.120335,32.3383985 173.191043,32.1878515 C173.654832,31.2003804 173.844244,30.2919741 173.643151,29.444496 C173.436806,28.5748862 172.817299,27.8216013 171.684278,27.2075003 C169.904323,26.2435633 168.613521,26.3174889 167.303319,27.2794345 L167.174536,27.375973 L165.586423,30.3072319 L164.380418,29.6541845 L166.24443,26.3102091 L166.310186,26.2317215 C167.878501,24.9515311 170.407811,24.8119603 172.551486,25.97386 Z M186.599455,47.3392918 C186.989992,46.9132969 187.651923,46.8845528 188.077918,47.2750902 C188.325603,47.5021597 188.572168,47.7304514 188.817601,47.9599562 C189.23972,48.3546795 189.261929,49.0168612 188.867206,49.4389805 C188.472483,49.8610998 187.810301,49.8833086 187.388182,49.4885852 L187.388182,49.4885852 L186.663657,48.8177545 C186.237662,48.4272171 186.208918,47.7652868 186.599455,47.3392918 Z M169.612536,37.456973 L169.419524,37.5107073 C169.08235,37.5962262 168.735835,37.6611173 168.381317,37.7055924 L167.997536,37.744973 L168.021136,37.7724932 C169.90837,40.1187076 170.46307,42.710788 169.152679,45.3470813 L169.020027,45.6023377 C168.088616,47.3213968 166.514297,48.6392455 164.653023,49.2036785 L164.547536,49.232973 L164.694586,49.2365098 C166.994111,49.2477712 168.947481,48.0525091 170.307444,45.7098579 L170.456097,45.4448446 C171.616002,43.3045969 171.322869,40.4353687 169.729837,38.1410635 L169.554188,37.8975045 L169.449191,37.7572599 L169.612536,37.456973 Z M67.2505357,29.070973 L67.1656041,29.3267055 C66.6882295,30.8609525 66.818841,32.4236262 67.5860144,34.0077875 C68.8508299,36.7533429 71.3349356,37.5417191 75.5761614,37.0834697 L75.9146553,37.0447151 C80.4809799,36.4676947 83.2770295,37.4749926 84.6960006,40.6656775 C85.2840927,42.1590349 85.2632391,43.7541049 84.6449753,45.159028 L84.6115357,45.227973 L84.7137314,45.0823031 C85.9331758,43.2618302 86.027715,41.5541282 85.0970726,39.3596102 L84.980481,39.0938929 C83.553057,36.0233194 80.8549678,35.2201412 76.0248674,35.7244904 C71.427503,36.1280394 69.2457206,35.4385797 67.9112722,32.5203168 C67.388343,31.2580216 67.1436169,30.1689731 67.2371234,29.1846146 L67.2505357,29.070973 Z M100.880286,14.3762943 L104.115157,19.5555641 L102.706273,19.9142478 L100.164536,16.034973 L95.1215357,17.319973 L100.848536,39.801973 L102.7382,39.3205146 L103.091313,40.7075172 L95.1787657,42.7233656 L94.8256595,41.3363899 L96.7145357,40.853973 L90.9875357,18.371973 L86.1165357,19.613973 L85.740515,24.2361535 L84.3316395,24.5948351 L84.6955288,18.4988742 L100.880286,14.3762943 Z M138.450589,14.0745139 L146.951564,16.0636371 C152.560199,17.3292388 155.022559,20.2904828 153.966162,24.8094605 C152.873201,29.4763122 149.423952,31.5159452 144.227384,30.4028445 L143.931377,30.3364682 L141.177536,29.691973 L138.889536,39.467973 L141.046049,39.9733907 L140.719971,41.3667764 L132.512524,39.4459516 L132.838607,38.0525411 L134.735536,38.495973 L140.011536,15.954973 L138.11482,15.5112905 L138.450589,14.0745139 Z M93.5625357,17.716973 L92.5455357,17.975973 L98.2725357,40.456973 L99.2895357,40.198973 L93.5625357,17.716973 Z M126.135377,12.8375376 L127.705857,18.671215 L126.219689,18.6995229 L124.898536,14.290973 L115.855536,14.452973 L116.033536,24.360973 L122.620536,24.243973 L122.570508,21.498139 L124.047218,21.4716019 L124.171173,28.3948852 L122.695556,28.4214307 L122.645536,25.675973 L116.060536,25.793973 L116.272536,37.650973 L125.873536,37.477973 L126.635879,33.0331711 L128.251843,33.0062384 L127.283728,38.8854739 L110.0834,39.1936908 L110.057944,37.7634194 L112.006536,37.727973 L111.589536,14.530973 L109.641695,14.565927 L109.614672,13.1336912 L126.135377,12.8375376 Z M141.577536,16.321973 L136.301536,38.861973 L137.322536,39.101973 L142.599536,16.560973 L141.577536,16.321973 Z M114.247536,14.482973 L113.197536,14.500973 L113.614536,37.698973 L114.664536,37.679973 L114.247536,14.482973 Z M175.114536,29.333973 L175.140218,29.4668556 C175.359562,30.7902413 174.940974,32.315767 174.119181,33.8329229 C173.199429,35.5294483 171.838408,36.6645422 170.210121,37.2657479 L170.052536,37.319973 L170.068466,37.3210992 C171.750107,37.3693393 174.084875,36.3178214 175.235003,34.4330148 L175.362348,34.2118543 C176.337436,32.4128623 176.357139,30.8957585 175.187104,29.4220691 L175.114536,29.333973 Z M150.030536,18.452973 L150.068554,18.5056598 C151.174051,20.088345 151.466654,22.267304 150.951943,24.4678291 C150.383977,26.8948436 148.883364,28.836879 146.886196,29.5438106 L146.794536,29.572973 L146.836405,29.5710315 C149.506256,29.4038814 151.524709,27.7730489 152.331455,24.716367 L152.39948,24.4429604 C152.972006,21.9966511 152.012061,19.8506024 150.113745,18.5098586 L150.030536,18.452973 Z M144.165536,16.921973 L141.513536,28.254973 L143.231723,28.6575533 C146.085994,29.326184 148.487928,27.5210094 149.326305,24.3423328 L149.386235,24.101374 C150.164152,20.7774595 148.921184,18.1156031 146.117694,17.3441346 L145.898971,17.2885401 L144.165536,16.921973 Z" id="Combined-Shape" fill="url(#linearGradient-4)" fill-rule="nonzero"></path>
                        </g>
                    </g>
                </g>
            </g>
        </g>
    </g>
</svg>