<svg height="230" viewBox="0 0 230 230" width="230" xmlns="http://www.w3.org/2000/svg" xmlns:xlink="http://www.w3.org/1999/xlink"><defs><circle id="a" cx="110" cy="110" r="110"/><filter id="b" height="107.3%" width="107.3%" x="-3.6%" y="-3.2%"><feOffset dx="0" dy="1" in="SourceAlpha" result="shadowOffsetOuter1"/><feGaussianBlur in="shadowOffsetOuter1" result="shadowBlurOuter1" stdDeviation="2.5"/><feColorMatrix in="shadowBlurOuter1" type="matrix" values="0 0 0 0 0.660112023   0 0 0 0 0.59149313   0 0 0 0 0.856476367  0 0 0 0.589024257 0"/></filter></defs><g fill="none" fill-rule="evenodd" transform="translate(5 4)"><use fill="#000" filter="url(#b)" xlink:href="#a"/><use fill="#fff" fill-rule="evenodd" xlink:href="#a"/><path d="m172.80413 43.0399574c18.36375 16.8352476 29.87715 41.0225394 29.87715 67.8986936 0 50.860945-41.230897 92.090939-92.091842 92.090939-50.8600423 0-92.0909395-41.229994-92.0909395-92.090939 0-27.2661584 11.8499699-51.7648512 30.6807631-68.6269319" stroke="#947bb4" stroke-dasharray=".64068 3.844981" stroke-linecap="round" stroke-width="1.91843"/><g transform="translate(60.90969 12.552553)"><path d="m9.62761122 20.2820245c-3.48674137.2779286-5.88252252.0153402-7.16117483-2.8397451-.611804-1.509658-.93304622-3.0725555-.03880173-4.467613l-.28965942-.1272336c-1.22270563 1.919332-1.46724675 3.9884567-.43945213 6.1532323 1.3869362 3.0725554 4.43603017 3.374848 7.8686296 2.9877331 3.72406359-.4412569 6.44469639.204837 7.75854099 3.2232505.6298513 1.6368915.4421592 3.4515491-.6524105 4.9007486l.2526625.2364198c1.9870094-2.2080891 2.3037398-4.1310305 1.132469-6.7677433-1.5313147-3.3640197-4.7987812-3.6491673-8.43080348-3.2990493zm-.35643448-11.87513371.80039846-.39704094 3.2620523 6.58456305-.7994961.3961386-.7209903-1.4546136c-1.4970248-2.7477038-4.10756899-3.80978834-6.72713685-2.5121863-2.36419835 1.1721731-2.93449352 3.3125847-1.74698015 5.9853922.95470299 2.2008701 2.9137391 2.679124 6.18391269 2.3281037 3.90453671-.3492156 7.38947341-.2634908 9.40896801 3.8106907 1.855264 3.838664.3916267 7.0095774-4.1192998 9.2447374-2.3281037 1.1532235-4.3620362 1.2560932-5.9754662.6506057-.50712957-.2021299-.99621182-.4574994-1.41310481-.7498659l1.24346004 2.5094792-.80039845.3961386-3.87566102-7.8208042.80130081-.3961386.70204058 1.418519c1.29760199 2.6195679 3.71955174 5.7697268 8.52104005 3.3901882 2.6195679-1.297602 3.4993745-3.727673 2.43729-6.1460133-1.0259899-2.3452487-3.438916-3.0084875-6.90761007-2.6944642-3.59592763.3320706-6.82729949.3022925-8.59413169-3.2620523-1.64050099-3.3107801-.99079762-7.1214708 3.41094265-9.3024889 2.1097312-1.04493952 4.43332308-.83739539 6.08014061.4764492l.0550443.0180473z" fill="#564685"/><path d="m9.62761122 20.2820245c-3.48674137.2779286-5.88252252.0153402-7.16117483-2.8397451-.611804-1.509658-.93304622-3.0725555-.03880173-4.467613l-.28965942-.1272336c-1.22270563 1.919332-1.46724675 3.9884567-.43945213 6.1532323 1.3869362 3.0725554 4.43603017 3.374848 7.8686296 2.9877331 3.72406359-.4412569 6.44469639.204837 7.75854099 3.2232505.6298513 1.6368915.4421592 3.4515491-.6524105 4.9007486l.2526625.2364198c1.9870094-2.2080891 2.3037398-4.1310305 1.132469-6.7677433-1.5313147-3.3640197-4.7987812-3.6491673-8.43080348-3.2990493zm-.35643448-11.87513371.80039846-.39704094 3.2620523 6.58456305-.7994961.3961386-.7209903-1.4546136c-1.4970248-2.7477038-4.10756899-3.80978834-6.72713685-2.5121863-2.36419835 1.1721731-2.93449352 3.3125847-1.74698015 5.9853922.95470299 2.2008701 2.9137391 2.679124 6.18391269 2.3281037 3.90453671-.3492156 7.38947341-.2634908 9.40896801 3.8106907 1.855264 3.838664.3916267 7.0095774-4.1192998 9.2447374-2.3281037 1.1532235-4.3620362 1.2560932-5.9754662.6506057-.50712957-.2021299-.99621182-.4574994-1.41310481-.7498659l1.24346004 2.5094792-.80039845.3961386-3.87566102-7.8208042.80130081-.3961386.70204058 1.418519c1.29760199 2.6195679 3.71955174 5.7697268 8.52104005 3.3901882 2.6195679-1.297602 3.4993745-3.727673 2.43729-6.1460133-1.0259899-2.3452487-3.438916-3.0084875-6.90761007-2.6944642-3.59592763.3320706-6.82729949.3022925-8.59413169-3.2620523-1.64050099-3.3107801-.99079762-7.1214708 3.41094265-9.3024889 2.1097312-1.04493952 4.43332308-.83739539 6.08014061.4764492l.0550443.0180473z" stroke="#5a498e" stroke-width=".5"/><path d="m29.8392512 25.3287758 1.4194213-.3501179-5.2021387-21.1361137-1.4203237.34921556zm-12.2072043-15.2716385.3438013-5.062272 14.5118465-3.57156375 2.6529554 4.32323445-.7886677.19400864-2.3019351-3.57336849-5.0478342 1.24255768 5.2030411 21.13611367 1.7352494-.4259166.194911.7877653-6.7830835 1.6693767-.194911-.7886677 1.7352493-.4259167-5.2021387-21.13791837-4.8899201 1.20375595-.379896 4.23390024z" fill="#564685"/><path d="m29.8392512 25.3287758 1.4194213-.3501179-5.2021387-21.1361137-1.4203237.34921556zm-12.2072043-15.2716385.3438013-5.062272 14.5118465-3.57156375 2.6529554 4.32323445-.7886677.19400864-2.3019351-3.57336849-5.0478342 1.24255768 5.2030411 21.13611367 1.7352494-.4259166.194911.7877653-6.7830835 1.6693767-.194911-.7886677 1.7352493-.4259167-5.2021387-21.13791837-4.8899201 1.20375595-.379896 4.23390024z" stroke="#5a498e" stroke-width=".5"/><path d="m45.3107636 22.8763261-.3546297-21.76416028-1.4618326.02346151.3546298 21.76416027zm11.9121307-4.255557-.8130316 4.887213-15.3086354.2499553-.0135355-.8130315 1.7875866-.0288757-.3546298-21.76416028-1.7866842.0288757-.0135355-.8121292 14.6986362-.23912693 1.2985044 4.85292317-.8536381.01353548-1.2028535-4.04169633-8.730389.14167143.1561093 9.58312456 6.5376401-.1064791-.0406065-2.51760056.8527357-.01353549.0947484 5.84733025-.8527357.0135355-.0406064-2.5176005-6.5376401.1064791.184985 11.3689065 9.2582729-.1506951.7047477-4.0723768z" fill="#564685"/><path d="m45.3107636 22.8763261-.3546297-21.76416028-1.4618326.02346151.3546298 21.76416027zm11.9121307-4.255557-.8130316 4.887213-15.3086354.2499553-.0135355-.8130315 1.7875866-.0288757-.3546298-21.76416028-1.7866842.0288757-.0135355-.8121292 14.6986362-.23912693 1.2985044 4.85292317-.8536381.01353548-1.2028535-4.04169633-8.730389.14167143.1561093 9.58312456 6.5376401-.1064791-.0406065-2.51760056.8527357-.01353549.0947484 5.84733025-.8527357.0135355-.0406064-2.5176005-6.5376401.1064791.184985 11.3689065 9.2582729-.1506951.7047477-4.0723768z" stroke="#5a498e" stroke-width=".5"/><path d="m76.5965974 4.38179799-.0577514.06948217c1.8119505 1.48439171 2.1548495 4.03267267 1.6188442 6.24256644-.5730023 2.3678078-2.3398345 4.6553051-4.9792544 4.6832784l.0306804.2165678c2.9570527.3835055 5.8139428-.8879279 6.7614268-4.7951717.7561826-3.11677145-1.1108122-5.40787816-3.3739456-6.41672311zm-5.3618575 10.39886321c2.9588574.7173808 5.2490618-1.317454 5.9763686-4.3169178.7561825-3.11677145-.3762866-5.85725633-3.3360463-6.57463712l-1.8245836-.40065041-2.6312986 10.85185083zm-6.6720926 9.2456398 1.4203238.3447038 5.1200234-21.1126522-1.4203237-.34380137zm4.3412818 1.0530609-.1913015.7886677-7.0240153-1.7036666.1903992-.7895701 1.7370541.4214049 5.1191211-21.11174984-1.7361518-.42140482.2012276-.82837179 7.536559 1.82819308c4.9034557 1.1469069 7.1674914 3.70150443 6.1812056 7.76575987-.9944071 4.1039596-4.0444034 5.997123-8.9379331 4.810512l-2.7621416-.6695554-2.2874973 9.4306248z" fill="#564685"/><path d="m76.5965974 4.38179799-.0577514.06948217c1.8119505 1.48439171 2.1548495 4.03267267 1.6188442 6.24256644-.5730023 2.3678078-2.3398345 4.6553051-4.9792544 4.6832784l.0306804.2165678c2.9570527.3835055 5.8139428-.8879279 6.7614268-4.7951717.7561826-3.11677145-1.1108122-5.40787816-3.3739456-6.41672311zm-5.3618575 10.39886321c2.9588574.7173808 5.2490618-1.317454 5.9763686-4.3169178.7561825-3.11677145-.3762866-5.85725633-3.3360463-6.57463712l-1.8245836-.40065041-2.6312986 10.85185083zm-6.6720926 9.2456398 1.4203238.3447038 5.1200234-21.1126522-1.4203237-.34380137zm4.3412818 1.0530609-.1913015.7886677-7.0240153-1.7036666.1903992-.7895701 1.7370541.4214049 5.1191211-21.11174984-1.7361518-.42140482.2012276-.82837179 7.536559 1.82819308c4.9034557 1.1469069 7.1674914 3.70150443 6.1812056 7.76575987-.9944071 4.1039596-4.0444034 5.997123-8.9379331 4.810512l-2.7621416-.6695554-2.2874973 9.4306248z" stroke="#5a498e" stroke-width=".5"/><path d="m87.7791653 32.2278134 1.2551908.6830909 10.1579316-18.6519007-1.5204863-.194911zm12.8027657-18.6121966.036095.0189497-10.7480792 19.7320325 2.7549228 1.4997319-.4177954.7670109-8.3324456-4.5379975.4177953-.7661085 2.649346 1.4419805 9.7031392-17.8145052-3.734892-.3618487.416893-.7670109z" fill="#564685"/><path d="m87.7791653 32.2278134 1.2551908.6830909 10.1579316-18.6519007-1.5204863-.194911zm12.8027657-18.6121966.036095.0189497-10.7480792 19.7320325 2.7549228 1.4997319-.4177954.7670109-8.3324456-4.5379975.4177953-.7661085 2.649346 1.4419805 9.7031392-17.8145052-3.734892-.3618487.416893-.7670109z" stroke="#5a498e" stroke-width=".5"/></g></g></svg>