<?xml version="1.0" encoding="UTF-8"?>
<svg width="234px" height="300px" viewBox="0 0 234 300" version="1.1" xmlns="http://www.w3.org/2000/svg" xmlns:xlink="http://www.w3.org/1999/xlink">
    <!-- Generator: Sketch 63.1 (92452) - https://sketch.com -->
    <title>Group 4</title>
    <desc>Created with Sketch.</desc>
    <defs>
        <polygon id="path-1" points="0.0002 0.2671 233.178 0.2671 233.178 273 0.0002 273"></polygon>
        <polygon id="path-3" points="-5.68434189e-14 299.35825 233.178 299.35825 233.178 0.00025 -5.68434189e-14 0.00025"></polygon>
    </defs>
    <g id="Page-1" stroke="none" stroke-width="1" fill="none" fill-rule="evenodd">
        <g id="3-PC-MyNavi" transform="translate(-603.000000, -2812.000000)">
            <g id="phase-2-campaign" transform="translate(165.000000, 2365.000000)">
                <g id="Campaign-steps" transform="translate(160.666667, 446.000000)">
                    <g id="Step-2" transform="translate(278.000000, 1.000000)">
                        <g id="Group-4" transform="translate(-0.000000, -0.000250)">
                            <g id="Group-3" transform="translate(0.000000, 26.358250)">
                                <mask id="mask-2" fill="white">
                                    <use xlink:href="#path-1"></use>
                                </mask>
                                <g id="Clip-2"></g>
                                <path d="M226.5952,273.0001 L6.5832,273.0001 C2.9482,273.0001 0.0002,270.0531 0.0002,266.4171 L0.0002,6.8501 C0.0002,3.2141 2.9482,0.2671 6.5832,0.2671 L226.5952,0.2671 C230.2302,0.2671 233.1782,3.2141 233.1782,6.8501 L233.1782,266.4171 C233.1782,270.0531 230.2302,273.0001 226.5952,273.0001" id="Fill-1" fill="#FFFFFF" mask="url(#mask-2)"></path>
                            </g>
                            <mask id="mask-4" fill="white">
                                <use xlink:href="#path-3"></use>
                            </mask>
                            <g id="Clip-5"></g>
                            <path d="M14.714,285.51225 L218.463,285.51225 L218.463,40.76025 L14.714,40.76025 L14.714,285.51225 Z" id="Stroke-4" stroke="#1A5BA6" stroke-width="2.126" stroke-linecap="round" stroke-dasharray="0.709,4.252"></path>
                            <path d="M167.1626,66.63375 C136.8536,36.32475 87.7146,36.32475 57.4066,66.63375 C47.0586,56.28575 36.7106,45.93775 26.3626,35.58975 C73.8156,-11.86325 150.7526,-11.86325 198.2066,35.58975 C187.8586,45.93875 177.5106,56.28575 167.1626,66.63375" id="Fill-6" fill="#FFFFFF"></path>
                            <g id="STEP-2" transform="translate(56.630292, 16.200750)">
                                <path d="M10.6827077,24.056 C6.82970773,24.5 4.16470773,24.303 2.63770773,21.19 C1.90070773,19.541 1.48370773,17.823 2.41970773,16.243 L2.09370773,16.112 C0.813707731,18.287 0.623707731,20.589 1.84670773,22.947 C3.50370773,26.297 6.89370773,26.512 10.6817077,25.949 C14.7897077,25.315 17.8297077,25.923 19.4047077,29.216 C20.1657077,31.004 20.0287077,33.023 18.8717077,34.67 L19.1617077,34.923 C21.2777077,32.399 21.5517077,30.256 20.1517077,27.38 C18.3237077,23.713 14.6927077,23.526 10.6827077,24.056 L10.6827077,24.056 Z M9.82370773,10.913 L10.6947077,10.443 L14.5657077,17.61 L13.6947077,18.08 L12.8387077,16.496 C11.0737077,13.512 8.13970773,12.437 5.28770773,13.977 C2.71370773,15.368 2.16570773,17.761 3.58670773,20.676 C4.73170773,23.077 6.91970773,23.531 10.5287077,23.014 C14.8407077,22.474 18.7057077,22.432 21.1027077,26.867 C23.3087077,31.046 21.8107077,34.618 16.9017077,37.27 C14.3667077,38.639 12.1177077,38.831 10.3057077,38.224 C9.73570773,38.021 9.18370773,37.756 8.70970773,37.45 L10.1867077,40.182 L9.31570773,40.652 L4.71570773,32.139 L5.58670773,31.668 L6.42070773,33.212 C7.96170773,36.064 10.7687077,39.458 15.9947077,36.634 C18.8457077,35.094 19.7257077,32.368 18.4537077,29.73 C17.2257077,27.171 14.5267077,26.532 10.6967077,27.016 C6.72470773,27.524 3.14370773,27.618 1.04570773,23.737 C-0.900292269,20.134 -0.330292269,15.887 4.46070773,13.298 C6.75770773,12.058 9.33970773,12.198 11.2157077,13.587 L11.2777077,13.606 L9.82370773,10.913 Z" id="Fill-7" fill="#1A5BA6"></path>
                                <path d="M10.6827077,24.056 C6.82970773,24.5 4.16470773,24.303 2.63770773,21.19 C1.90070773,19.541 1.48370773,17.823 2.41970773,16.243 L2.09370773,16.112 C0.813707731,18.287 0.623707731,20.589 1.84670773,22.947 C3.50370773,26.297 6.89370773,26.512 10.6817077,25.949 C14.7897077,25.315 17.8297077,25.923 19.4047077,29.216 C20.1657077,31.004 20.0287077,33.023 18.8717077,34.67 L19.1617077,34.923 C21.2777077,32.399 21.5517077,30.256 20.1517077,27.38 C18.3237077,23.713 14.6927077,23.526 10.6827077,24.056 Z M9.82370773,10.913 L10.6947077,10.443 L14.5657077,17.61 L13.6947077,18.08 L12.8387077,16.496 C11.0737077,13.512 8.13970773,12.437 5.28770773,13.977 C2.71370773,15.368 2.16570773,17.761 3.58670773,20.676 C4.73170773,23.077 6.91970773,23.531 10.5287077,23.014 C14.8407077,22.474 18.7057077,22.432 21.1027077,26.867 C23.3087077,31.046 21.8107077,34.618 16.9017077,37.27 C14.3667077,38.639 12.1177077,38.831 10.3057077,38.224 C9.73570773,38.021 9.18370773,37.756 8.70970773,37.45 L10.1867077,40.182 L9.31570773,40.652 L4.71570773,32.139 L5.58670773,31.668 L6.42070773,33.212 C7.96170773,36.064 10.7687077,39.458 15.9947077,36.634 C18.8457077,35.094 19.7257077,32.368 18.4537077,29.73 C17.2257077,27.171 14.5267077,26.532 10.6967077,27.016 C6.72470773,27.524 3.14370773,27.618 1.04570773,23.737 C-0.900292269,20.134 -0.330292269,15.887 4.46070773,13.298 C6.75770773,12.058 9.33970773,12.198 11.2157077,13.587 L11.2777077,13.606 L9.82370773,10.913 Z" id="Stroke-8" stroke="#1A5BA6" stroke-width="0.283"></path>
                                <path d="M33.2334077,28.8685 L34.7924077,28.4255 L28.1924077,5.2225 L26.6334077,5.6655 L33.2334077,28.8685 Z M19.1084077,12.4375 L19.2884077,6.8185 L35.2174077,2.2875 L38.3294077,6.9715 L37.4624077,7.2175 L34.7724077,3.3495 L29.2314077,4.9265 L35.8314077,28.1295 L37.7354077,27.5875 L37.9824077,28.4535 L30.5364077,30.5715 L30.2904077,29.7055 L32.1944077,29.1635 L25.5944077,5.9605 L20.2274077,7.4875 L19.9734077,12.1915 L19.1084077,12.4375 Z" id="Fill-9" fill="#1A5BA6"></path>
                                <path d="M33.2334077,28.8685 L34.7924077,28.4255 L28.1924077,5.2225 L26.6334077,5.6655 L33.2334077,28.8685 Z M19.1084077,12.4375 L19.2884077,6.8185 L35.2174077,2.2875 L38.3294077,6.9715 L37.4624077,7.2175 L34.7724077,3.3495 L29.2314077,4.9265 L35.8314077,28.1295 L37.7354077,27.5875 L37.9824077,28.4535 L30.5364077,30.5715 L30.2904077,29.7055 L32.1944077,29.1635 L25.5944077,5.9605 L20.2274077,7.4875 L19.9734077,12.1915 L19.1084077,12.4375 Z" id="Stroke-10" stroke="#1A5BA6" stroke-width="0.283"></path>
                                <path d="M50.2901077,25.513 L49.2101077,1.418 L47.5921077,1.492 L48.6711077,25.585 L50.2901077,25.513 Z M63.3491077,20.424 L62.6031077,25.863 L45.6551077,26.621 L45.6141077,25.723 L47.5931077,25.634 L46.5131077,1.539 L44.5351077,1.628 L44.4951077,0.729 L60.7681077,5.68434189e-14 L62.3581077,5.333 L61.4141077,5.376 L59.9541077,0.937 L50.2891077,1.37 L50.7651077,11.979 L58.0021077,11.655 L57.8771077,8.867 L58.8211077,8.826 L59.1101077,15.298 L58.1671077,15.341 L58.0421077,12.554 L50.8051077,12.878 L51.3681077,25.465 L61.6181077,25.005 L62.2701077,20.472 L63.3491077,20.424 Z" id="Fill-11" fill="#1A5BA6"></path>
                                <path d="M50.2901077,25.513 L49.2101077,1.418 L47.5921077,1.492 L48.6711077,25.585 L50.2901077,25.513 Z M63.3491077,20.424 L62.6031077,25.863 L45.6551077,26.621 L45.6141077,25.723 L47.5931077,25.634 L46.5131077,1.539 L44.5351077,1.628 L44.4951077,0.729 L60.7681077,5.68434189e-14 L62.3581077,5.333 L61.4141077,5.376 L59.9541077,0.937 L50.2891077,1.37 L50.7651077,11.979 L58.0021077,11.655 L57.8771077,8.867 L58.8211077,8.826 L59.1101077,15.298 L58.1671077,15.341 L58.0421077,12.554 L50.8051077,12.878 L51.3681077,25.465 L61.6181077,25.005 L62.2701077,20.472 L63.3491077,20.424 Z" id="Stroke-12" stroke="#1A5BA6" stroke-width="0.283"></path>
                                <path d="M85.2588077,4.0863 L85.1958077,4.1653 C87.2468077,5.7573 87.6998077,8.5693 87.1708077,11.0333 C86.6028077,13.6733 84.7118077,16.2583 81.7888077,16.3653 L81.8288077,16.6053 C85.1158077,16.9433 88.2448077,15.4523 89.1818077,11.0983 C89.9288077,7.6223 87.7938077,5.1383 85.2588077,4.0863 L85.2588077,4.0863 Z M79.6178077,15.7613 C82.9168077,16.4703 85.3958077,14.1493 86.1138077,10.8063 C86.8628077,7.3313 85.5288077,4.3283 82.2298077,3.6193 L80.1968077,3.2283 L77.5948077,15.3253 L79.6178077,15.7613 Z M72.4948077,26.1953 L74.0788077,26.5363 L79.1398077,3.0013 L77.5568077,2.6603 L72.4948077,26.1953 Z M77.3338077,27.2363 L77.1458077,28.1163 L69.3148077,26.4323 L69.5038077,25.5523 L71.4398077,25.9693 L76.5008077,2.4333 L74.5658077,2.0173 L74.7638077,1.0933 L83.1658077,2.9003 C88.6298077,4.0293 91.2118077,6.7933 90.2378077,11.3243 C89.2528077,15.8993 85.9308077,18.0843 80.4758077,16.9113 L77.3958077,16.2493 L75.1348077,26.7633 L77.3338077,27.2363 Z" id="Fill-13" fill="#1A5BA6"></path>
                                <path d="M85.2588077,4.0863 L85.1958077,4.1653 C87.2468077,5.7573 87.6998077,8.5693 87.1708077,11.0333 C86.6028077,13.6733 84.7118077,16.2583 81.7888077,16.3653 L81.8288077,16.6053 C85.1158077,16.9433 88.2448077,15.4523 89.1818077,11.0983 C89.9288077,7.6223 87.7938077,5.1383 85.2588077,4.0863 Z M79.6178077,15.7613 C82.9168077,16.4703 85.3958077,14.1493 86.1138077,10.8063 C86.8628077,7.3313 85.5288077,4.3283 82.2298077,3.6193 L80.1968077,3.2283 L77.5948077,15.3253 L79.6178077,15.7613 Z M72.4948077,26.1953 L74.0788077,26.5363 L79.1398077,3.0013 L77.5568077,2.6603 L72.4948077,26.1953 Z M77.3338077,27.2363 L77.1458077,28.1163 L69.3148077,26.4323 L69.5038077,25.5523 L71.4398077,25.9693 L76.5008077,2.4333 L74.5658077,2.0173 L74.7638077,1.0933 L83.1658077,2.9003 C88.6298077,4.0293 91.2118077,6.7933 90.2378077,11.3243 C89.2528077,15.8993 85.9308077,18.0843 80.4758077,16.9113 L77.3958077,16.2493 L75.1348077,26.7633 L77.3338077,27.2363 Z" id="Stroke-14" stroke="#1A5BA6" stroke-width="0.283"></path>
                                <path d="M105.620208,26.7044 C108.585208,26.4924 111.644208,25.6174 113.686208,21.7604 C115.118208,19.0564 115.327208,16.1624 111.878208,13.9284 L111.755208,13.9664 C113.702208,15.9644 113.243208,18.3684 111.748208,21.1914 C110.421208,23.6964 108.382208,25.7224 105.565208,26.5214 L105.620208,26.7044 Z M104.815208,37.9374 L105.886208,36.8754 L94.5142077,30.8524 C94.3062077,31.1504 93.9132077,31.6034 93.6412077,32.0204 L104.815208,37.9374 Z M114.683208,22.1854 C111.757208,27.7134 107.274208,27.4284 103.897208,27.2674 C100.257208,27.1224 97.3542077,28.1824 95.2552077,30.1254 L106.589208,36.1274 L109.082208,33.6294 L110.036208,34.1344 L105.107208,39.2124 L92.5422077,32.5584 L92.5252077,32.3964 L92.8002077,31.8804 C95.0312077,27.6654 99.6282077,26.4834 103.700208,26.1964 C106.647208,25.8224 109.383208,23.3504 110.814208,20.6464 C112.204208,18.0214 112.425208,14.6254 109.481208,13.0674 C108.249208,12.4144 106.680208,12.3974 105.157208,12.9664 L102.819208,17.3804 L102.024208,16.9594 L104.569208,12.2484 C106.560208,11.4694 108.738208,11.2994 111.283208,12.6464 C116.056208,15.1734 116.599208,18.5674 114.683208,22.1854 L114.683208,22.1854 Z" id="Fill-15" fill="#1A5BA6"></path>
                                <path d="M105.620208,26.7044 C108.585208,26.4924 111.644208,25.6174 113.686208,21.7604 C115.118208,19.0564 115.327208,16.1624 111.878208,13.9284 L111.755208,13.9664 C113.702208,15.9644 113.243208,18.3684 111.748208,21.1914 C110.421208,23.6964 108.382208,25.7224 105.565208,26.5214 L105.620208,26.7044 Z M104.815208,37.9374 L105.886208,36.8754 L94.5142077,30.8524 C94.3062077,31.1504 93.9132077,31.6034 93.6412077,32.0204 L104.815208,37.9374 Z M114.683208,22.1854 C111.757208,27.7134 107.274208,27.4284 103.897208,27.2674 C100.257208,27.1224 97.3542077,28.1824 95.2552077,30.1254 L106.589208,36.1274 L109.082208,33.6294 L110.036208,34.1344 L105.107208,39.2124 L92.5422077,32.5584 L92.5252077,32.3964 L92.8002077,31.8804 C95.0312077,27.6654 99.6282077,26.4834 103.700208,26.1964 C106.647208,25.8224 109.383208,23.3504 110.814208,20.6464 C112.204208,18.0214 112.425208,14.6254 109.481208,13.0674 C108.249208,12.4144 106.680208,12.3974 105.157208,12.9664 L102.819208,17.3804 L102.024208,16.9594 L104.569208,12.2484 C106.560208,11.4694 108.738208,11.2994 111.283208,12.6464 C116.056208,15.1734 116.599208,18.5674 114.683208,22.1854 Z" id="Stroke-16" stroke="#1A5BA6" stroke-width="0.283"></path>
                            </g>
                            <g id="Mobile-Retweet-Icon" transform="translate(102.801200, 67.427550)">
                                <line x1="0.6231" y1="6.2833" x2="27.3191" y2="6.2833" id="Stroke-17" stroke="#1A5BA6" stroke-width="1.417" stroke-linecap="round"></line>
                                <line x1="0.6231" y1="41.3478" x2="27.3191" y2="41.3478" id="Stroke-18" stroke="#1A5BA6" stroke-width="1.417" stroke-linecap="round"></line>
                                <line x1="12.0254" y1="44.4894" x2="15.1484" y2="44.4894" id="Stroke-19" stroke="#1A5BA6" stroke-width="1.417" stroke-linecap="round"></line>
                                <path d="M9.4014,3.3126 C9.4014,3.7046 9.0844,4.0216 8.6924,4.0216 C8.3004,4.0216 7.9834,3.7046 7.9834,3.3126 C7.9834,2.9206 8.3004,2.6046 8.6924,2.6046 C9.0844,2.6046 9.4014,2.9206 9.4014,3.3126" id="Fill-20" fill="#1A5BA6"></path>
                                <polyline id="Stroke-21" stroke="#1A5BA6" stroke-width="1.417" stroke-linecap="round" stroke-linejoin="round" points="17.6797 28.9239 7.4067 28.9239 7.4067 20.1929"></polyline>
                                <polyline id="Stroke-22" stroke="#1A5BA6" stroke-width="1.417" stroke-linecap="round" stroke-linejoin="round" points="4.6778 22.6095 7.4068 19.8805 10.1358 22.6095"></polyline>
                                <polyline id="Stroke-23" stroke="#1A5BA6" stroke-width="1.417" stroke-linecap="round" stroke-linejoin="round" points="9.6397 18.087 19.9127 18.087 19.9127 26.819"></polyline>
                                <polyline id="Stroke-24" stroke="#1A5BA6" stroke-width="1.417" stroke-linecap="round" stroke-linejoin="round" points="22.6416 24.4024 19.9126 27.1314 17.1836 24.4024"></polyline>
                                <path d="M22.5,47.631 L4.818,47.631 C2.157,47.631 -2.48689958e-13,45.474 -2.48689958e-13,42.812 L-2.48689958e-13,4.819 C-2.48689958e-13,2.158 2.157,-7.10542736e-14 4.818,-7.10542736e-14 L22.5,-7.10542736e-14 C25.162,-7.10542736e-14 27.319,2.158 27.319,4.819 L27.319,42.812 C27.319,45.474 25.162,47.631 22.5,47.631 Z" id="Stroke-25" stroke="#1A5BA6" stroke-width="1.417" stroke-linecap="round"></path>
                            </g>
                        </g>
                    </g>
                </g>
            </g>
        </g>
    </g>
</svg>