<svg height="300" viewBox="0 0 234 300" width="234" xmlns="http://www.w3.org/2000/svg" xmlns:xlink="http://www.w3.org/1999/xlink"><mask id="a" fill="#fff"><path d="m0 .2671h233.1775v272.7329h-233.1775z" fill="#fff" fill-rule="evenodd"/></mask><g fill="none" fill-rule="evenodd" transform="translate(.666667 -.00025)"><path d="m226.5945 273.0001h-220.012c-3.635 0-6.583-2.947-6.583-6.583v-259.567c0-3.636 2.948-6.583 6.583-6.583h220.012c3.636 0 6.583 2.947 6.583 6.583v259.567c0 3.636-2.947 6.583-6.583 6.583" fill="#fff" mask="url(#a)" transform="translate(0 26.35825)"/><path d="m14.715 285.51225h203.748v-244.752h-203.748z" stroke="#1a5ba6" stroke-dasharray=".709 4.252" stroke-linecap="round" stroke-width="2.126"/><path d="m168.6287 66.63375c-30.309-30.309-79.448-30.309-109.757 0l-31.044-31.044c47.453-47.453 124.391-47.453 171.845 0-10.349 10.348-20.696 20.696-31.044 31.044" fill="#fff"/><g transform="translate(60.616558 16.29615)"><path d="m10.5677417 22.7282c-3.86200003.342-6.52000003.073-7.96500003-3.079-.692-1.667-1.063-3.396-.085-4.95l-.323-.14c-1.337 2.141-1.587 4.436-.428 6.824 1.567 3.394 4.948 3.699 8.75000003 3.237 4.122-.524 7.145.166 8.63 3.499.714 1.807.523 3.821-.677 5.436l.284.261c2.18-2.466 2.511-4.601 1.189-7.513-1.729-3.714-5.353-3.998-9.375-3.575zm-.509-13.158.884-.447 3.678 7.266-.883.447-.813-1.606c-1.685-3.03-4.58900003-4.183-7.48000003-2.719-2.609 1.321-3.221 3.698-1.878 6.65 1.079 2.429 3.255 2.942 6.87400003 2.521 4.325-.424 8.19-.362 10.465 4.134 2.095 4.235.502 7.765-4.476 10.285-2.569 1.301-4.823 1.433-6.61600003.778-.565-.218-1.109-.498-1.574-.817l1.402 2.77-.883.447-4.371-8.631.884-.447.793 1.565c1.464 2.891 4.17700003 6.358 9.47700003 3.676 2.889-1.464 3.842-4.165 2.641-6.835-1.16-2.591-3.84-3.302-7.681-2.92-3.98300003.402-7.56500003.399-9.55700003-3.534-1.85-3.654-1.166-7.883 3.691-10.343 2.329-1.179 4.907-.97 6.74400003.47l.061.019z" fill="#1a5ba6"/><path d="m10.5677417 22.7282c-3.86200003.342-6.52000003.073-7.96500003-3.079-.692-1.667-1.063-3.396-.085-4.95l-.323-.14c-1.337 2.141-1.587 4.436-.428 6.824 1.567 3.394 4.948 3.699 8.75000003 3.237 4.122-.524 7.145.166 8.63 3.499.714 1.807.523 3.821-.677 5.436l.284.261c2.18-2.466 2.511-4.601 1.189-7.513-1.729-3.714-5.353-3.998-9.375-3.575zm-.509-13.158.884-.447 3.678 7.266-.883.447-.813-1.606c-1.685-3.03-4.58900003-4.183-7.48000003-2.719-2.609 1.321-3.221 3.698-1.878 6.65 1.079 2.429 3.255 2.942 6.87400003 2.521 4.325-.424 8.19-.362 10.465 4.134 2.095 4.235.502 7.765-4.476 10.285-2.569 1.301-4.823 1.433-6.61600003.778-.565-.218-1.109-.498-1.574-.817l1.402 2.77-.883.447-4.371-8.631.884-.447.793 1.565c1.464 2.891 4.17700003 6.358 9.47700003 3.676 2.889-1.464 3.842-4.165 2.641-6.835-1.16-2.591-3.84-3.302-7.681-2.92-3.98300003.402-7.56500003.399-9.55700003-3.534-1.85-3.654-1.166-7.883 3.691-10.343 2.329-1.179 4.907-.97 6.74400003.47l.061.019z" stroke="#1a5ba6" stroke-width=".283"/><path d="m32.9935417 28.1335 1.569-.401-5.97-23.367-1.57.401zm-13.674-16.801.331-5.611 16.043-4.099 2.982 4.765-.871.223-2.586-3.938-5.58 1.426 5.97 23.366 1.918-.489.223.871-7.498 1.916-.223-.872 1.918-.489-5.97-23.368-5.405 1.382-.38 4.695z" fill="#1a5ba6"/><path d="m32.9935417 28.1335 1.569-.401-5.97-23.367-1.57.401zm-13.674-16.801.331-5.611 16.043-4.099 2.982 4.765-.871.223-2.586-3.938-5.58 1.426 5.97 23.366 1.918-.489.223.871-7.498 1.916-.223-.872 1.918-.489-5.97-23.368-5.405 1.382-.38 4.695z" stroke="#1a5ba6" stroke-width=".283"/><path d="m50.1244417 25.235-.45-24.119-1.62.03.45 24.119zm13.19-4.748-.889 5.419-16.964.316-.017-.9 1.98-.037-.45-24.119-1.98.037-.016-.9 16.289-.303 1.451 5.374-.946.017-1.343-4.476-9.675.18.198 10.62 7.244-.135-.051-2.79.945-.018.12 6.481-.944.017-.052-2.79-7.245.135.235 12.599 10.26-.191.77-4.516z" fill="#1a5ba6"/><path d="m50.1244417 25.235-.45-24.119-1.62.03.45 24.119zm13.19-4.748-.889 5.419-16.964.316-.017-.9 1.98-.037-.45-24.119-1.98.037-.016-.9 16.289-.303 1.451 5.374-.946.017-1.343-4.476-9.675.18.198 10.62 7.244-.135-.051-2.79.945-.018.12 6.481-.944.017-.052-2.79-7.245.135.235 12.599 10.26-.191.77-4.516z" stroke="#1a5ba6" stroke-width=".283"/><path d="m85.6634417 4.736-.065.077c2.008 1.647 2.386 4.471 1.791 6.92-.638 2.624-2.598 5.158-5.523 5.188l.033.24c3.278.427 6.446-.981 7.498-5.31.841-3.455-1.228-5.996-3.734-7.115zm-5.952 11.521c3.28.798 5.819-1.456 6.628-4.779.84-3.455-.412-6.492-3.693-7.29l-2.022-.445-2.925 12.025zm-7.402 10.244 1.576.382 5.69-23.396-1.575-.383zm4.811 1.17-.212.875-7.784-1.894.213-.875 1.924.469 5.689-23.397-1.924-.467.224-.919 8.352 2.031c5.434 1.275 7.941 4.108 6.845 8.612-1.106 4.549-4.487 6.645-9.91 5.325l-3.062-.744-2.541 10.451z" fill="#1a5ba6"/><path d="m85.6634417 4.736-.065.077c2.008 1.647 2.386 4.471 1.791 6.92-.638 2.624-2.598 5.158-5.523 5.188l.033.24c3.278.427 6.446-.981 7.498-5.31.841-3.455-1.228-5.996-3.734-7.115zm-5.952 11.521c3.28.798 5.819-1.456 6.628-4.779.84-3.455-.412-6.492-3.693-7.29l-2.022-.445-2.925 12.025zm-7.402 10.244 1.576.382 5.69-23.396-1.575-.383zm4.811 1.17-.212.875-7.784-1.894.213-.875 1.924.469 5.689-23.397-1.924-.467.224-.919 8.352 2.031c5.434 1.275 7.941 4.108 6.845 8.612-1.106 4.549-4.487 6.645-9.91 5.325l-3.062-.744-2.541 10.451z" stroke="#1a5ba6" stroke-width=".283"/><path d="m97.0463417 35.0622 1.432.759 11.2640003-21.275-1.725-.201zm14.2640003-21.264.04.021-11.9190003 22.507 3.1420003 1.664-.464.874-9.5030003-5.032.463-.875 3.022 1.6 10.7600003-20.319-4.239-.362.463-.875z" fill="#1a5ba6"/><path d="m97.0463417 35.0622 1.432.759 11.2640003-21.275-1.725-.201zm14.2640003-21.264.04.021-11.9190003 22.507 3.1420003 1.664-.464.874-9.5030003-5.032.463-.875 3.022 1.6 10.7600003-20.319-4.239-.362.463-.875z" stroke="#1a5ba6" stroke-width=".283"/></g><path d="m131.4539 82.43545c.028.396.028.792.028 1.187 0 12.077-9.191 25.991-25.99 25.991-5.175 0-9.982-1.499-14.027-4.101.735.085 1.442.113 2.206.113 4.27 0 8.201-1.442 11.341-3.903-4.016-.084-7.381-2.715-8.541-6.334.565.084 1.131.141 1.725.141.82 0 1.64-.114 2.404-.311-4.186-.848-7.325-4.525-7.325-8.965v-.113c1.216.679 2.63 1.103 4.129 1.159-2.461-1.64-4.072-4.439-4.072-7.607 0-1.696.452-3.252 1.244-4.61 4.496 5.543 11.256 9.163 18.835 9.559-.142-.679-.227-1.386-.227-2.093 0-5.034 4.073-9.134 9.135-9.134 2.63 0 5.006 1.103 6.674 2.884 2.065-.395 4.044-1.159 5.798-2.206-.679 2.121-2.121 3.904-4.016 5.034 1.838-.198 3.619-.707 5.26-1.414-1.244 1.81-2.8 3.422-4.581 4.723" fill="#1a5ba6"/></g></svg>