<?xml version="1.0" encoding="UTF-8"?>
<svg width="234px" height="300px" viewBox="0 0 234 300" version="1.1" xmlns="http://www.w3.org/2000/svg" xmlns:xlink="http://www.w3.org/1999/xlink">
    <!-- Generator: Sketch 63.1 (92452) - https://sketch.com -->
    <title>Group 5</title>
    <desc>Created with Sketch.</desc>
    <defs>
        <polygon id="path-1" points="0.0001 0.2671 233.178 0.2671 233.178 273 0.0001 273"></polygon>
        <polygon id="path-3" points="-5.68434189e-14 299.35825 233.178 299.35825 233.178 0.00025 -5.68434189e-14 0.00025"></polygon>
    </defs>
    <g id="Page-1" stroke="none" stroke-width="1" fill="none" fill-rule="evenodd">
        <g id="3-PC-MyNavi" transform="translate(-881.000000, -2812.000000)">
            <g id="phase-2-campaign" transform="translate(165.000000, 2365.000000)">
                <g id="Campaign-steps" transform="translate(160.666667, 446.000000)">
                    <g id="Step-3" transform="translate(556.000000, 1.000000)">
                        <g id="Group-5" transform="translate(0.000000, -0.000250)">
                            <g id="Group-3" transform="translate(0.000000, 26.358250)">
                                <mask id="mask-2" fill="white">
                                    <use xlink:href="#path-1"></use>
                                </mask>
                                <g id="Clip-2"></g>
                                <path d="M226.5951,273.0001 L6.5831,273.0001 C2.9481,273.0001 0.0001,270.0531 0.0001,266.4171 L0.0001,6.8501 C0.0001,3.2141 2.9481,0.2671 6.5831,0.2671 L226.5951,0.2671 C230.2311,0.2671 233.1781,3.2141 233.1781,6.8501 L233.1781,266.4171 C233.1781,270.0531 230.2311,273.0001 226.5951,273.0001" id="Fill-1" fill="#FFFFFF" mask="url(#mask-2)"></path>
                            </g>
                            <mask id="mask-4" fill="white">
                                <use xlink:href="#path-3"></use>
                            </mask>
                            <g id="Clip-5"></g>
                            <path d="M14.714,285.51225 L218.463,285.51225 L218.463,40.76025 L14.714,40.76025 L14.714,285.51225 Z" id="Stroke-4" stroke="#1A5BA6" stroke-width="2.126" stroke-linecap="round" stroke-dasharray="0.709,4.252"></path>
                            <path d="M167.1625,66.63375 C136.8535,36.32475 87.7145,36.32475 57.4065,66.63375 C47.0585,56.28575 36.7105,45.93875 26.3625,35.58975 C73.8155,-11.86325 150.7525,-11.86325 198.2065,35.58975 L167.1625,66.63375 Z" id="Fill-6" fill="#FFFFFF"></path>
                            <g id="STEP-3" transform="translate(58.139093, 16.251550)">
                                <path d="M10.613307,23.2581 C6.75530697,23.6401 4.09330697,23.4001 2.61630697,20.2631 C1.90630697,18.6041 1.51630697,16.8781 2.47830697,15.3141 L2.15430697,15.1781 C0.840306969,17.3321 0.613306969,19.6301 1.79930697,22.0071 C3.40030697,25.3831 6.78730697,25.6531 10.583307,25.1511 C14.700307,24.5831 17.730307,25.2401 19.251307,28.5581 C19.983307,30.3581 19.814307,32.3731 18.631307,34.0021 L18.918307,34.2591 C21.072307,31.7701 21.381307,29.6311 20.027307,26.7341 C18.259307,23.0381 14.633307,22.7921 10.613307,23.2581 L10.613307,23.2581 Z M9.96530697,10.1041 L10.843307,9.6481 L14.599307,16.8751 L13.721307,17.3321 L12.891307,15.7351 C11.174307,12.7221 8.25830697,11.6001 5.38330697,13.0941 C2.78730697,14.4441 2.20030697,16.8271 3.57430697,19.7651 C4.67930697,22.1831 6.86130697,22.6721 10.476307,22.2131 C14.797307,21.7431 18.662307,21.7641 20.986307,26.2361 C23.125307,30.4491 21.570307,33.9961 16.619307,36.5701 C14.062307,37.8981 11.810307,38.0541 10.009307,37.4171 C9.44330697,37.2051 8.89430697,36.9321 8.42730697,36.6171 L9.85930697,39.3721 L8.98030697,39.8281 L4.51930697,31.2431 L5.39730697,30.7871 L6.20730697,32.3441 C7.70130697,35.2191 10.451307,38.6581 15.722307,35.9191 C18.597307,34.4251 19.521307,31.7131 18.293307,29.0561 C17.105307,26.4781 14.418307,25.7951 10.580307,26.2171 C6.60130697,26.6621 3.01830697,26.6971 0.984306969,22.7841 C-0.903693031,19.1511 -0.265693031,14.9131 4.56630697,12.4031 C6.88330697,11.1991 9.46230697,11.3801 11.316307,12.8001 L11.377307,12.8201 L9.96530697,10.1041 Z" id="Fill-7" fill="#1A5BA6"></path>
                                <path d="M10.613307,23.2581 C6.75530697,23.6401 4.09330697,23.4001 2.61630697,20.2631 C1.90630697,18.6041 1.51630697,16.8781 2.47830697,15.3141 L2.15430697,15.1781 C0.840306969,17.3321 0.613306969,19.6301 1.79930697,22.0071 C3.40030697,25.3831 6.78730697,25.6531 10.583307,25.1511 C14.700307,24.5831 17.730307,25.2401 19.251307,28.5581 C19.983307,30.3581 19.814307,32.3731 18.631307,34.0021 L18.918307,34.2591 C21.072307,31.7701 21.381307,29.6311 20.027307,26.7341 C18.259307,23.0381 14.633307,22.7921 10.613307,23.2581 Z M9.96530697,10.1041 L10.843307,9.6481 L14.599307,16.8751 L13.721307,17.3321 L12.891307,15.7351 C11.174307,12.7221 8.25830697,11.6001 5.38330697,13.0941 C2.78730697,14.4441 2.20030697,16.8271 3.57430697,19.7651 C4.67930697,22.1831 6.86130697,22.6721 10.476307,22.2131 C14.797307,21.7431 18.662307,21.7641 20.986307,26.2361 C23.125307,30.4491 21.570307,33.9961 16.619307,36.5701 C14.062307,37.8981 11.810307,38.0541 10.009307,37.4171 C9.44330697,37.2051 8.89430697,36.9321 8.42730697,36.6171 L9.85930697,39.3721 L8.98030697,39.8281 L4.51930697,31.2431 L5.39730697,30.7871 L6.20730697,32.3441 C7.70130697,35.2191 10.451307,38.6581 15.722307,35.9191 C18.597307,34.4251 19.521307,31.7131 18.293307,29.0561 C17.105307,26.4781 14.418307,25.7951 10.580307,26.2171 C6.60130697,26.6621 3.01830697,26.6971 0.984306969,22.7841 C-0.903693031,19.1511 -0.265693031,14.9131 4.56630697,12.4031 C6.88330697,11.1991 9.46230697,11.3801 11.316307,12.8001 L11.377307,12.8201 L9.96530697,10.1041 Z" id="Stroke-8" stroke="#1A5BA6" stroke-width="0.283"></path>
                                <path d="M33.076207,28.431 L34.642207,28.013 L28.418207,4.712 L26.853207,5.13 L33.076207,28.431 Z M19.221207,11.78 L19.491207,6.165 L35.488207,1.892 L38.523207,6.624 L37.653207,6.856 L35.025207,2.948 L29.461207,4.434 L35.685207,27.735 L37.597207,27.224 L37.830207,28.093 L30.353207,30.09 L30.121207,29.221 L32.033207,28.71 L25.809207,5.409 L20.419207,6.849 L20.090207,11.547 L19.221207,11.78 Z" id="Fill-9" fill="#1A5BA6"></path>
                                <path d="M33.076207,28.431 L34.642207,28.013 L28.418207,4.712 L26.853207,5.13 L33.076207,28.431 Z M19.221207,11.78 L19.491207,6.165 L35.488207,1.892 L38.523207,6.624 L37.653207,6.856 L35.025207,2.948 L29.461207,4.434 L35.685207,27.735 L37.597207,27.224 L37.830207,28.093 L30.353207,30.09 L30.121207,29.221 L32.033207,28.71 L25.809207,5.409 L20.419207,6.849 L20.090207,11.547 L19.221207,11.78 Z" id="Stroke-10" stroke="#1A5BA6" stroke-width="0.283"></path>
                                <path d="M50.205107,25.345 L49.510107,1.235 L47.891107,1.282 L48.586107,25.392 L50.205107,25.345 Z M63.346107,20.464 L62.512107,25.891 L45.553107,26.38 L45.527107,25.481 L47.506107,25.423 L46.811107,1.313 L44.832107,1.369 L44.807107,0.47 L61.090107,2.84217094e-14 L62.596107,5.36 L61.650107,5.387 L60.262107,0.925 L50.590107,1.203 L50.896107,11.82 L58.139107,11.611 L58.058107,8.822 L59.002107,8.794 L59.189107,15.272 L58.244107,15.299 L58.164107,12.51 L50.922107,12.719 L51.285107,25.315 L61.541107,25.019 L62.266107,20.495 L63.346107,20.464 Z" id="Fill-11" fill="#1A5BA6"></path>
                                <path d="M50.205107,25.345 L49.510107,1.235 L47.891107,1.282 L48.586107,25.392 L50.205107,25.345 Z M63.346107,20.464 L62.512107,25.891 L45.553107,26.38 L45.527107,25.481 L47.506107,25.423 L46.811107,1.313 L44.832107,1.369 L44.807107,0.47 L61.090107,2.84217094e-14 L62.596107,5.36 L61.650107,5.387 L60.262107,0.925 L50.590107,1.203 L50.896107,11.82 L58.139107,11.611 L58.058107,8.822 L59.002107,8.794 L59.189107,15.272 L58.244107,15.299 L58.164107,12.51 L50.922107,12.719 L51.285107,25.315 L61.541107,25.019 L62.266107,20.495 L63.346107,20.464 Z" id="Stroke-12" stroke="#1A5BA6" stroke-width="0.283"></path>
                                <path d="M85.485307,4.47 L85.421307,4.547 C87.447307,6.172 87.855307,8.992 87.286307,11.448 C86.675307,14.077 84.744307,16.632 81.820307,16.694 L81.857307,16.933 C85.138307,17.324 88.291307,15.884 89.297307,11.543 C90.099307,8.08 88.004307,5.562 85.485307,4.47 L85.485307,4.47 Z M79.658307,16.054 C82.947307,16.816 85.462307,14.535 86.234307,11.203 C87.037307,7.74 85.752307,4.716 82.463307,3.954 L80.437307,3.531 L77.642307,15.586 L79.658307,16.054 Z M72.369307,26.374 L73.947307,26.741 L79.384307,3.286 L77.806307,2.921 L72.369307,26.374 Z M77.191307,27.492 L76.988307,28.369 L69.185307,26.56 L69.388307,25.684 L71.317307,26.131 L76.754307,2.677 L74.826307,2.23 L75.039307,1.309 L83.412307,3.25 C88.858307,4.467 91.395307,7.272 90.348307,11.787 C89.291307,16.347 85.933307,18.479 80.498307,17.218 L77.428307,16.507 L75.000307,26.985 L77.191307,27.492 Z" id="Fill-13" fill="#1A5BA6"></path>
                                <path d="M85.485307,4.47 L85.421307,4.547 C87.447307,6.172 87.855307,8.992 87.286307,11.448 C86.675307,14.077 84.744307,16.632 81.820307,16.694 L81.857307,16.933 C85.138307,17.324 88.291307,15.884 89.297307,11.543 C90.099307,8.08 88.004307,5.562 85.485307,4.47 Z M79.658307,16.054 C82.947307,16.816 85.462307,14.535 86.234307,11.203 C87.037307,7.74 85.752307,4.716 82.463307,3.954 L80.437307,3.531 L77.642307,15.586 L79.658307,16.054 Z M72.369307,26.374 L73.947307,26.741 L79.384307,3.286 L77.806307,2.921 L72.369307,26.374 Z M77.191307,27.492 L76.988307,28.369 L69.185307,26.56 L69.388307,25.684 L71.317307,26.131 L76.754307,2.677 L74.826307,2.23 L75.039307,1.309 L83.412307,3.25 C88.858307,4.467 91.395307,7.272 90.348307,11.787 C89.291307,16.347 85.933307,18.479 80.498307,17.218 L77.428307,16.507 L75.000307,26.985 L77.191307,27.492 Z" id="Stroke-14" stroke="#1A5BA6" stroke-width="0.283"></path>
                                <path d="M99.376907,36.3157 L99.374907,36.4167 C102.618907,37.1157 105.487907,35.8347 107.276907,32.4547 C108.562907,30.0287 108.134907,26.7977 106.239907,24.3187 L106.323907,24.1597 C107.549907,24.2487 110.786907,23.5187 112.261907,20.7357 C113.355907,18.6677 113.483907,16.5977 111.077907,14.5077 L111.017907,14.5267 C112.062907,16.3027 111.222907,18.6587 110.464907,20.0887 C108.927907,22.9927 106.245907,24.0167 103.808907,24.1007 C105.673907,26.1577 107.034907,29.0667 105.286907,32.3677 C104.212907,34.3957 102.079907,36.1177 99.376907,36.3157 L99.376907,36.3157 Z M92.794907,30.2847 C93.333907,32.2497 94.499907,33.9877 96.408907,34.9987 C99.151907,36.4517 102.794907,34.7647 104.331907,31.8627 C106.101907,28.5217 104.073907,25.7167 102.501907,24.0707 L102.964907,23.1957 C106.042907,23.2477 108.099907,22.2487 109.552907,19.5047 C110.099907,18.4707 112.069907,15.1347 108.251907,13.1137 C106.024907,11.9347 104.546907,12.3227 103.213907,13.3987 L101.696907,16.2617 L100.941907,15.8617 L102.708907,12.6227 C104.165907,11.4087 106.647907,11.1437 108.874907,12.3237 C114.601907,15.3557 114.731907,18.3787 113.257907,21.1617 C112.015907,23.5067 109.733907,24.6417 107.540907,24.6507 C109.242907,26.7237 109.937907,29.7387 108.315907,32.8007 C105.683907,37.7707 101.493907,38.7597 96.245907,35.9807 C93.700907,34.6327 92.378907,32.6097 91.843907,30.5447 L92.794907,30.2847 Z" id="Fill-15" fill="#1A5BA6"></path>
                                <path d="M99.376907,36.3157 L99.374907,36.4167 C102.618907,37.1157 105.487907,35.8347 107.276907,32.4547 C108.562907,30.0287 108.134907,26.7977 106.239907,24.3187 L106.323907,24.1597 C107.549907,24.2487 110.786907,23.5187 112.261907,20.7357 C113.355907,18.6677 113.483907,16.5977 111.077907,14.5077 L111.017907,14.5267 C112.062907,16.3027 111.222907,18.6587 110.464907,20.0887 C108.927907,22.9927 106.245907,24.0167 103.808907,24.1007 C105.673907,26.1577 107.034907,29.0667 105.286907,32.3677 C104.212907,34.3957 102.079907,36.1177 99.376907,36.3157 Z M92.794907,30.2847 C93.333907,32.2497 94.499907,33.9877 96.408907,34.9987 C99.151907,36.4517 102.794907,34.7647 104.331907,31.8627 C106.101907,28.5217 104.073907,25.7167 102.501907,24.0707 L102.964907,23.1957 C106.042907,23.2477 108.099907,22.2487 109.552907,19.5047 C110.099907,18.4707 112.069907,15.1347 108.251907,13.1137 C106.024907,11.9347 104.546907,12.3227 103.213907,13.3987 L101.696907,16.2617 L100.941907,15.8617 L102.708907,12.6227 C104.165907,11.4087 106.647907,11.1437 108.874907,12.3237 C114.601907,15.3557 114.731907,18.3787 113.257907,21.1617 C112.015907,23.5067 109.733907,24.6417 107.540907,24.6507 C109.242907,26.7237 109.937907,29.7387 108.315907,32.8007 C105.683907,37.7707 101.493907,38.7597 96.245907,35.9807 C93.700907,34.6327 92.378907,32.6097 91.843907,30.5447 L92.794907,30.2847 Z" id="Stroke-16" stroke="#1A5BA6" stroke-width="0.283"></path>
                            </g>
                            <g id="Mail-Icon" transform="translate(79.853000, 78.076550)" stroke="#1A5BA6" stroke-linecap="round" stroke-linejoin="round" stroke-width="1.417">
                                <path d="M15.3857,9.273 L15.3857,1.417 C15.3857,0.634 16.0197,1.27897692e-13 16.8027,1.27897692e-13 L55.9537,1.27897692e-13 C56.7377,1.27897692e-13 57.3717,0.634 57.3717,1.417 L57.3717,26.802 C57.3717,27.585 56.7377,28.22 55.9537,28.22 L16.8027,28.22 C16.0197,28.22 15.3857,27.585 15.3857,26.802 L15.3857,15.656" id="Stroke-17"></path>
                                <polyline id="Stroke-18" points="51.5712 5.1343 36.3792 18.2503 15.7632 0.4523"></polyline>
                                <line x1="4.0761" y1="6.8765" x2="11.9801" y2="6.8765" id="Stroke-19"></line>
                                <line x1="-4.68958206e-13" y1="12.3941" x2="21.665" y2="12.3941" id="Stroke-20"></line>
                                <line x1="7.8437" y1="18.1714" x2="15.0147" y2="18.1714" id="Stroke-21"></line>
                                <line x1="1.91846539e-13" y1="22.4312" x2="8.859" y2="22.4312" id="Stroke-22"></line>
                                <line x1="42.1806" y1="13.2417" x2="56.1266" y2="27.1877" id="Stroke-23"></line>
                                <line x1="16.6308" y1="27.188" x2="30.5088" y2="13.31" id="Stroke-24"></line>
                            </g>
                        </g>
                    </g>
                </g>
            </g>
        </g>
    </g>
</svg>