<svg height="71" viewBox="0 0 57 71" width="57" xmlns="http://www.w3.org/2000/svg"><g fill="#564685" fill-rule="evenodd"><path d="m34.4228107 68.7234322h-26.31371704c-3.02174634 0-5.48130732-2.4581268-5.48130732-5.4813073v-1.097122h37.27633166v1.097122c0 3.0231805-2.4581268 5.4813073-5.4813073 5.4813073m6.5784293-29.6022146c-.6052098 0-1.097122.4919122-1.097122 1.0971219v19.7338537h-37.27633166v-48.2403805h18.38001956c.6037756 0 1.0942536-.4904781 1.0942536-1.097122 0-.6037756-.490478-1.09568777-1.0942536-1.09568777h-18.38001956v-1.09568781c0-3.02318049 2.45956098-5.48274146 5.48130732-5.48274146h26.31371704c.6066439 0 1.097122-.49047805 1.097122-1.09568781 0-.6066439-.4904781-1.09712195-1.097122-1.09712195h-26.31371704c-4.23073171 0-7.67268293 3.44338537-7.67268293 7.67555122v54.81880978c0 4.2307317 3.44195122 7.6741171 7.67268293 7.6741171h26.31371704c4.2321659 0 7.6755513-3.4433854 7.6755513-7.6741171v-23.0237854c0-.6052097-.4904781-1.0971219-1.097122-1.0971219"/><path d="m23.459479 64.3383863h-4.3856195c-.6052097 0-1.0956878.4904781-1.0956878 1.0956878 0 .6066439.4904781 1.097122 1.0956878 1.097122h4.3856195c.6052098 0 1.097122-.4904781 1.097122-1.097122 0-.6052097-.4919122-1.0956878-1.097122-1.0956878"/><path d="m13.91208 5.45420195c-.2036488.20364878-.3212488.48760976-.3212488.77587317 0 .28826342.1176.57079025.3212488.77587317.2050829.20364878.4876098.31981464.7758732.31981464.2896975 0 .5707902-.11616586.7758731-.31981464.205083-.20508292.3212488-.48760975.3212488-.77587317 0-.28969756-.1161658-.57222439-.3212488-.77587317-.2050829-.20508293-.4861756-.32124878-.7758731-.32124878-.2882634 0-.5707903.11616585-.7758732.32124878"/><path d="m45.2573561 17.2271093c-.1634927-2.3892878-2.0895512-4.3124781-4.4774049-4.4774049-1.3538341-.0932195-2.6445658.362839-3.6326927 1.2864293-.9752195.9092487-1.5359707 2.1971122-1.5359707 3.5294341 0 .7687024.6252878 1.3939902 1.3939902 1.3939902.7687025 0 1.3925561-.6252878 1.3925561-1.3939902 0-.5722244.2308976-1.1028585.6496683-1.4943805.4187708-.3900878.9651805-.5822634 1.5417074-.5435414 1.0067707.0702731 1.8213658.8834341 1.8902048 1.8902048.0688391 1.0196781-.598039 1.920322-1.5890341 2.1426147-1.0856488.2423707-1.8414439 1.1846048-1.8414439 2.2932v2.5083219c0 .7687025.6224195 1.3925561 1.3925561 1.3925561.7687024 0 1.3911219-.6238536 1.3911219-1.3925561v-2.1712975c2.1583903-.6439318 3.5824976-2.6775513 3.4247415-4.9635805"/><path d="m41.4254605 28.3327083c-.2595805-.2595805-.6195512-.4072976-.9852585-.4072976-.3657074 0-.724244.1477171-.9838244.4072976-.2595805.2595805-.4072976.6181171-.4072976.9852585 0 .3671415.1477171.7256781.4072976.9852586.2595804.2595805.618117.4072975.9838244.4072975.3657073 0 .725678-.147717.9852585-.4072975s.4072975-.6181171.4072975-.9852586c0-.3671414-.147717-.725678-.4072975-.9852585"/><path d="m31.7745161 8.12644683c-2.4982829 0-4.5290341 2.03218537-4.5290341 4.52903417v16.4467902c0 2.4968488 2.0307512 4.5276 4.5290341 4.5276 1.1301073 0 2.0508293.9192878 2.0508293 2.0493951v2.7263122l4.1748-4.1748c.3872195-.3872195.9035122-.6009073 1.4499219-.6009073h10.6040781c2.4968487 0 4.5290341-2.0307512 4.5290341-4.5276v-16.4467902c0-2.4968488-2.0321854-4.52903417-4.5290341-4.52903417zm1.0971219 33.53177557c-.1233365 0-.2466731-.0229463-.3657073-.0717073-.3556683-.1477171-.588-.4947805-.588-.8805658v-5.026683c0-.078878-.0645366-.1434146-.1434146-.1434146-3.5495122 0-6.4350146-2.8869366-6.4350146-6.4335805v-16.4467902c0-3.54807807 2.8855024-6.43501466 6.4350146-6.43501466h18.2796293c3.548078 0 6.4350146 2.88693659 6.4350146 6.43501466v16.4467902c0 3.5466439-2.8869366 6.4335805-6.4350146 6.4335805h-10.6040781l-5.9058146 5.8441463c-.1821366.1821366-.4259415.2782244-.6726147.2782244z" stroke="#5a498e" stroke-width=".5"/></g></svg>