<?xml version="1.0" encoding="UTF-8"?>
<svg width="260px" height="260px" viewBox="0 0 260 260" version="1.1" xmlns="http://www.w3.org/2000/svg" xmlns:xlink="http://www.w3.org/1999/xlink">
    <!-- Generator: Sketch 61 (89581) - https://sketch.com -->
    <title>Group 3</title>
    <desc>Created with Sketch.</desc>
    <defs>
        <linearGradient x1="-1.11022302e-14%" y1="50%" x2="100%" y2="50%" id="linearGradient-1">
            <stop stop-color="#FFC79B" offset="0%"></stop>
            <stop stop-color="#FFA1A2" offset="27.805449%"></stop>
            <stop stop-color="#FFA1CF" offset="51.8258407%"></stop>
            <stop stop-color="#EDB4FB" offset="74.9225228%"></stop>
            <stop stop-color="#85E0FF" offset="100%"></stop>
        </linearGradient>
        <circle id="path-2" cx="120" cy="120" r="120"></circle>
        <filter x="-6.7%" y="-5.0%" width="113.3%" height="113.3%" filterUnits="objectBoundingBox" id="filter-3">
            <feMorphology radius="2" operator="dilate" in="SourceAlpha" result="shadowSpreadOuter1"></feMorphology>
            <feOffset dx="0" dy="4" in="shadowSpreadOuter1" result="shadowOffsetOuter1"></feOffset>
            <feGaussianBlur stdDeviation="4" in="shadowOffsetOuter1" result="shadowBlurOuter1"></feGaussianBlur>
            <feComposite in="shadowBlurOuter1" in2="SourceAlpha" operator="out" result="shadowBlurOuter1"></feComposite>
            <feColorMatrix values="0 0 0 0 0.660112023   0 0 0 0 0.59149313   0 0 0 0 0.856476367  0 0 0 0.589024257 0" type="matrix" in="shadowBlurOuter1"></feColorMatrix>
        </filter>
        <linearGradient x1="-1.11022302e-14%" y1="50%" x2="100%" y2="50%" id="linearGradient-4">
            <stop stop-color="#FFC79B" offset="0%"></stop>
            <stop stop-color="#FFA1A2" offset="27.805449%"></stop>
            <stop stop-color="#FFA1CF" offset="51.8258407%"></stop>
            <stop stop-color="#EDB4FB" offset="74.9225228%"></stop>
            <stop stop-color="#85E0FF" offset="100%"></stop>
        </linearGradient>
    </defs>
    <g id="Page-1" stroke="none" stroke-width="1" fill="none" fill-rule="evenodd">
        <g id="3-PC-MyNavi" transform="translate(-590.000000, -2876.000000)">
            <g id="Campaign-Info" transform="translate(165.000000, 2425.000000)">
                <g id="Campaign-Steps-" transform="translate(150.000000, 456.000000)">
                    <g id="Step-2" transform="translate(285.000000, 1.000000)">
                        <g id="Group-3" transform="translate(0.000000, 0.000000)">
                            <g id="Oval-Copy-4">
                                <use fill="black" fill-opacity="1" filter="url(#filter-3)" xlink:href="#path-2"></use>
                                <circle stroke="url(#linearGradient-1)" stroke-width="2" fill="#FFFFFF" fill-rule="evenodd" cx="120" cy="120" r="121"></circle>
                            </g>
                            <path d="M122.574399,220.756021 C123.152214,220.745014 123.629549,221.204502 123.640556,221.782317 C123.651563,222.360132 123.192074,222.837467 122.61426,222.848474 L122.61426,222.848474 L121.604183,222.862778 C121.026289,222.868139 120.553466,222.404009 120.548105,221.826114 C120.542743,221.248219 121.006873,220.775397 121.584768,220.770035 L121.584768,220.770035 Z M116.48027,220.688846 C116.810737,220.702456 117.141435,220.714444 117.472355,220.72481 C118.049991,220.742904 118.50359,221.225839 118.485496,221.803476 C118.467402,222.381112 117.984467,222.834711 117.40683,222.816617 C117.069046,222.806036 116.731485,222.793798 116.394156,222.779906 C115.816726,222.756127 115.367903,222.26875 115.391683,221.691319 C115.415463,221.113889 115.90284,220.665067 116.48027,220.688846 Z M127.686325,220.528815 C128.262835,220.488471 128.762894,220.923119 128.803238,221.499629 C128.843583,222.076138 128.408935,222.576197 127.832425,222.616542 L127.832425,222.616542 L126.824127,222.682105 C126.247247,222.71676 125.7515,222.2772 125.716845,221.70032 C125.68219,221.123441 126.12175,220.627694 126.69863,220.593039 C127.028117,220.573246 127.357351,220.551837 127.686325,220.528815 Z M111.239204,220.341763 L111.353302,220.346168 L112.337582,220.432462 C112.913536,220.480091 113.341828,220.985605 113.294199,221.561559 C113.24657,222.137512 112.741056,222.565804 112.165102,222.518175 L112.165102,222.518175 L111.160219,222.430075 C110.584764,222.376756 110.161489,221.867035 110.214807,221.29158 C110.268126,220.716125 110.777848,220.29285 111.353302,220.346168 Z M132.82508,220.035619 C133.398735,219.96554 133.920585,220.373769 133.990664,220.947424 C134.060743,221.521079 133.652514,222.042929 133.078859,222.113008 C132.7447,222.153829 132.410218,222.193006 132.075422,222.230533 C131.5011,222.29491 130.983331,221.881517 130.918955,221.307194 C130.854578,220.732871 131.267971,220.215102 131.842294,220.150726 C132.170202,220.11397 132.4978,220.0756 132.82508,220.035619 Z M106.123158,219.728083 L106.236876,219.738384 C106.563512,219.785792 106.890493,219.831588 107.217809,219.875768 C107.790535,219.953072 108.192154,220.480026 108.114849,221.052752 C108.037545,221.625478 107.510591,222.027097 106.937865,221.949793 L106.937865,221.949793 L105.936269,221.809515 C105.364342,221.726504 104.967997,221.195573 105.051007,220.623646 C105.134018,220.051719 105.664949,219.655374 106.236876,219.738384 Z M137.922283,219.27831 C138.491529,219.17856 139.033858,219.559162 139.133608,220.128408 C139.233358,220.697654 138.852757,221.239983 138.283511,221.339733 L138.283511,221.339733 L137.287788,221.509097 C136.717574,221.60316 136.179072,221.217164 136.085008,220.646951 C135.990945,220.076737 136.376941,219.538235 136.947155,219.444172 L136.947155,219.444172 Z M99.9291476,219.688621 C100.041772,219.121781 100.592586,218.753567 101.159426,218.866192 L101.159426,218.866192 L102.131817,219.05434 C102.699756,219.161284 103.073465,219.708385 102.966521,220.276323 C102.859577,220.844262 102.312476,221.217971 101.744538,221.111027 C101.413143,221.048625 101.082153,220.984581 100.751576,220.918899 C100.184737,220.806274 99.8165231,220.25546 99.9291476,219.688621 Z M142.978683,218.255731 C143.541953,218.126432 144.103391,218.478235 144.23269,219.041505 C144.361989,219.604775 144.010186,220.166213 143.446916,220.295512 C143.118558,220.370887 142.78975,220.444633 142.460502,220.516746 C141.895965,220.640394 141.33808,220.282982 141.214433,219.718445 C141.090785,219.153908 141.448197,218.596023 142.012734,218.472376 C142.335152,218.401758 142.657138,218.329542 142.978683,218.255731 Z M94.8865732,218.494293 C95.0284592,217.934061 95.597638,217.594925 96.1578697,217.736811 L96.1578697,217.736811 L97.1168965,217.974595 C97.6785205,218.110866 98.0233375,218.676621 97.8870668,219.238245 C97.7507962,219.799869 97.1850409,220.144686 96.6234169,220.008415 C96.2964931,219.929092 95.970036,219.848148 95.6440551,219.76559 C95.0838234,219.623704 94.7446872,219.054525 94.8865732,218.494293 Z M147.975509,216.970355 C148.531251,216.811794 149.110308,217.133773 149.268869,217.689515 C149.427431,218.245257 149.105452,218.824315 148.549709,218.982876 C148.225646,219.075336 147.901066,219.166184 147.57598,219.255417 C147.018674,219.408391 146.442878,219.080616 146.289903,218.52331 C146.136929,217.966004 146.464704,217.390208 147.02201,217.237233 L147.02201,217.237233 Z M89.8871904,217.031392 C90.0581451,216.479336 90.6442609,216.170392 91.1963168,216.341347 L91.1963168,216.341347 L92.1443257,216.629705 C92.6980714,216.795104 93.0128884,217.378086 92.8474892,217.931832 C92.68209,218.485577 92.0991078,218.800394 91.5453622,218.634995 L91.5453622,218.634995 L90.5772353,218.340518 C90.0251794,218.169563 89.7162358,217.583448 89.8871904,217.031392 Z M152.894362,215.426819 C153.44106,215.239435 154.036151,215.530716 154.223535,216.077414 C154.410919,216.624111 154.119638,217.219202 153.57294,217.406586 C153.254186,217.515842 152.934848,217.62351 152.614935,217.729586 C152.066384,217.911473 151.474247,217.614234 151.292359,217.065683 C151.110472,216.517132 151.407711,215.924995 151.956262,215.743107 C152.269527,215.639235 152.582231,215.533804 152.894362,215.426819 Z M84.9768393,215.311519 C85.1763638,214.769134 85.7777999,214.491191 86.3201847,214.690715 L86.3201847,214.690715 L87.2515595,215.028037 C87.7959201,215.222106 88.0798877,215.820721 87.8858189,216.365082 C87.6917502,216.909442 87.0931348,217.19341 86.5487742,216.999341 C86.231123,216.886096 85.9140758,216.771269 85.5976428,216.654864 C85.0552581,216.45534 84.7773149,215.853903 84.9768393,215.311519 Z M157.726146,213.628299 C158.262312,213.412619 158.871803,213.672423 159.087484,214.208588 C159.303164,214.744753 159.04336,215.354244 158.507195,215.569925 L158.507195,215.569925 L157.567532,215.942457 C157.029231,216.152752 156.422375,215.88685 156.212081,215.34855 C156.001786,214.810249 156.267688,214.203393 156.805988,213.993099 L156.805988,213.993099 Z M80.173225,213.342529 C80.400688,212.811255 81.0157656,212.564968 81.5470393,212.792431 L81.5470393,212.792431 L82.4564634,213.176432 C82.9899834,213.398575 83.2424043,214.011161 83.0202613,214.544681 C82.7981182,215.078202 82.1855322,215.330622 81.6520122,215.108479 L81.6520122,215.108479 L80.7233232,214.716343 C80.1920494,214.48888 79.9457621,213.873802 80.173225,213.342529 Z M162.452935,211.582161 C162.977135,211.33884 163.599334,211.566537 163.842656,212.090737 C164.085978,212.614937 163.858281,213.237136 163.33408,213.480458 C163.028614,213.622248 162.722426,213.762517 162.415527,213.901258 C161.888919,214.139324 161.269028,213.905414 161.030963,213.378806 C160.792897,212.852198 161.026807,212.232307 161.553415,211.994242 L161.553415,211.994242 Z M75.4871601,211.131082 C75.7418485,210.61231 76.3688625,210.398227 76.8876351,210.652916 C77.183107,210.797976 77.4793106,210.941567 77.7762358,211.083682 C78.2975233,211.333183 78.5178502,211.95803 78.2683496,212.479318 C78.0188491,213.000605 77.3940019,213.220932 76.8727144,212.971431 L76.8727144,212.971431 L75.9653267,212.531557 C75.4465541,212.276869 75.2324716,211.649855 75.4871601,211.131082 Z M167.065821,209.293302 C167.576664,209.02306 168.209858,209.218105 168.4801,209.728948 C168.750342,210.239791 168.555297,210.872986 168.044454,211.143228 L168.044454,211.143228 L167.149297,211.611075 C166.635783,211.876205 166.004567,211.674851 165.739436,211.161336 C165.474306,210.647822 165.67566,210.016606 166.189175,209.751475 L166.189175,209.751475 Z M70.9034044,208.669622 C71.1846842,208.164773 71.8219678,207.983534 72.3268171,208.264814 L72.3268171,208.264814 L73.1942612,208.742459 C73.7018927,209.018686 73.8894831,209.654129 73.613256,210.161761 C73.3370289,210.669392 72.701586,210.856982 72.1939544,210.580755 L72.1939544,210.580755 L71.3082127,210.093035 C70.8033634,209.811755 70.6221245,209.174472 70.9034044,208.669622 Z M171.555711,206.766777 C172.051844,206.470393 172.694305,206.632321 172.990689,207.128454 C173.287073,207.624587 173.125145,208.267049 172.629012,208.563433 L172.629012,208.563433 L171.758947,209.077337 C171.259887,209.368765 170.61907,209.200445 170.327643,208.701384 C170.036215,208.202324 170.204535,207.561507 170.703595,207.27008 L170.703595,207.27008 Z M66.4546758,205.974684 C66.7617219,205.485078 67.4075358,205.337084 67.8971417,205.64413 L67.8971417,205.64413 L68.7371279,206.165112 C69.2297613,206.467276 69.3841666,207.111588 69.0820019,207.604221 C68.7798372,208.096854 68.1355261,208.25126 67.6428927,207.949095 L67.6428927,207.949095 L66.7852297,207.417149 C66.2956238,207.110103 66.1476298,206.464289 66.4546758,205.974684 Z M175.913323,204.007808 C176.39343,203.686111 177.04342,203.814527 177.365117,204.294634 C177.686813,204.774741 177.558397,205.424731 177.07829,205.746427 C176.798014,205.934227 176.516805,206.120631 176.234674,206.305631 C175.751389,206.622533 175.102709,206.487652 174.785808,206.004367 C174.468906,205.521082 174.603787,204.872402 175.087072,204.555501 L175.087072,204.555501 Z M62.1451316,203.048961 C62.4771002,202.575899 63.1297067,202.461519 63.6027691,202.793488 C63.8722951,202.982626 64.142755,203.170427 64.4141389,203.356882 C64.8904681,203.684146 65.0113095,204.335587 64.6840457,204.811916 C64.3567818,205.288245 63.7053409,205.409087 63.2290117,205.081823 C62.9519287,204.891452 62.6757895,204.699708 62.4006045,204.506599 C61.9275421,204.17463 61.813163,203.522023 62.1451316,203.048961 Z M180.114238,201.032964 C180.577101,200.686916 181.232853,200.781614 181.5789,201.244477 C181.924948,201.70734 181.83025,202.363091 181.367387,202.709139 L181.367387,202.709139 L180.556582,203.309083 C180.090315,203.650531 179.435533,203.549345 179.094085,203.083079 C178.752637,202.616812 178.853823,201.96203 179.32009,201.620582 L179.32009,201.620582 Z M57.9924149,199.904384 C58.3483713,199.449097 59.006014,199.368574 59.4613009,199.72453 L59.4613009,199.72453 L60.2421911,200.328855 C60.7009759,200.680292 60.7879988,201.337106 60.4365622,201.795891 C60.0851257,202.254676 59.4283114,202.341699 58.9695266,201.990262 L58.9695266,201.990262 L58.1722687,201.37327 C57.7169817,201.017314 57.6364584,200.359671 57.9924149,199.904384 Z M184.157816,197.844074 C184.602227,197.474628 185.261988,197.535398 185.631434,197.979808 C186.000881,198.424219 185.940111,199.08398 185.4957,199.453426 L185.4957,199.453426 L184.714754,200.096123 C184.266703,200.461145 183.607577,200.393837 183.242554,199.945786 C182.877531,199.497736 182.944839,198.838609 183.39289,198.473587 L183.39289,198.473587 Z M54.0020864,196.545008 C54.381078,196.108709 55.0420014,196.062252 55.4783,196.441244 L55.4783,196.441244 L56.2300239,197.087719 C56.6700596,197.462365 56.7230682,198.122795 56.348422,198.562831 C55.9737757,199.002866 55.3133456,199.055875 54.8733099,198.681229 L54.8733099,198.681229 L54.1058497,198.021221 C53.6695511,197.642229 53.6230947,196.981306 54.0020864,196.545008 Z M188.028434,194.454184 C188.453251,194.062366 189.115265,194.089117 189.507083,194.513934 C189.898901,194.938751 189.87215,195.600765 189.447333,195.992583 L189.447333,195.992583 L188.700395,196.674685 C188.271718,197.062275 187.610001,197.028968 187.222411,196.60029 C186.83482,196.171613 186.868127,195.509896 187.296805,195.122305 L187.296805,195.122305 Z M50.191756,192.985502 C50.5927446,192.569329 51.2551844,192.557021 51.6713565,192.958009 L51.6713565,192.958009 L52.3864674,193.64025 C52.8065808,194.037108 52.8254334,194.699394 52.4285759,195.119507 C52.0317184,195.539621 51.3694326,195.558473 50.9493192,195.161616 L50.9493192,195.161616 L50.2192483,194.465102 C49.8030761,194.064113 49.7907674,193.401674 50.191756,192.985502 Z M191.672606,190.917754 C192.076994,190.504884 192.739512,190.498008 193.152382,190.902396 C193.565252,191.306784 193.572128,191.969302 193.16774,192.382172 L193.16774,192.382172 L192.457417,193.100256 C192.048966,193.509107 191.386412,193.509431 190.977561,193.10098 C190.56871,192.692529 190.568386,192.029975 190.976837,191.621125 L190.976837,191.621125 Z M46.6387556,189.309151 C47.0602716,188.913783 47.7224865,188.934981 48.117854,189.356497 L48.117854,189.356497 L48.7976959,190.074162 C49.1972093,190.491751 49.1825565,191.154143 48.764968,191.553656 C48.3473795,191.95317 47.6849874,191.938517 47.285474,191.520928 L47.285474,191.520928 L46.5914095,190.788249 C46.196042,190.366733 46.2172396,189.704518 46.6387556,189.309151 Z M195.176172,187.151709 C195.558801,186.718596 196.22009,186.677672 196.653202,187.060301 C197.086314,187.44293 197.127239,188.104219 196.74461,188.537331 C196.521564,188.789806 196.297268,189.041176 196.071731,189.291432 C195.684833,189.720735 195.023172,189.755112 194.593868,189.368214 C194.164565,188.981317 194.130189,188.319655 194.517086,187.890352 L194.517086,187.890352 Z M43.2161048,185.385304 C43.6574261,185.012173 44.3176701,185.067452 44.690801,185.508773 C44.9033632,185.760181 45.1171678,186.01054 45.3322062,186.259839 C45.7096792,186.697452 45.6609257,187.35821 45.2233125,187.735683 C44.7856992,188.113156 44.1249413,188.064403 43.7474684,187.626789 L43.7474684,187.626789 L43.0926353,186.86 C42.7195044,186.418679 42.7747836,185.758435 43.2161048,185.385304 Z M198.489122,183.200818 C198.848906,182.748549 199.507204,182.673576 199.959472,183.033359 C200.411741,183.393143 200.486715,184.051442 200.126931,184.50371 L200.126931,184.50371 L199.49487,185.290229 C199.130629,185.738916 198.471621,185.807373 198.022934,185.443133 C197.574247,185.078892 197.50579,184.419884 197.87003,183.971197 L197.87003,183.971197 Z M40.0023049,181.293007 C40.462267,180.943113 41.1187854,181.03234 41.4686796,181.492303 L41.4686796,181.492303 L42.0713855,182.276512 C42.4258193,182.732985 42.3430999,183.390355 41.8866266,183.744789 C41.4301533,184.099223 40.7727833,184.016504 40.4183495,183.56003 C40.2119141,183.294163 40.006798,183.027277 39.8030093,182.759382 C39.4531151,182.29942 39.5423427,181.642901 40.0023049,181.293007 Z M201.591617,179.087238 C201.927581,178.617005 202.581133,178.508158 203.051366,178.844122 C203.521599,179.180086 203.630446,179.833638 203.294482,180.303872 L203.294482,180.303872 L202.702285,181.124098 C202.361665,181.59097 201.707064,181.693318 201.240192,181.352699 C200.77332,181.01208 200.670971,180.357479 201.01159,179.890607 L201.01159,179.890607 Z M37.0058714,177.043346 C37.4832679,176.717641 38.1343103,176.840612 38.4600152,177.318008 C38.6459845,177.59059 38.833308,177.862247 39.0219781,178.132971 C39.3524092,178.607109 39.2359121,179.259341 38.7617746,179.589772 C38.287637,179.920203 37.6354052,179.803706 37.304974,179.329568 L37.304974,179.329568 L36.7312093,178.49749 C36.4055044,178.020094 36.5284748,177.369051 37.0058714,177.043346 Z M204.481991,174.811839 C204.793151,174.324838 205.440189,174.18229 205.92719,174.49345 C206.414192,174.80461 206.55674,175.451647 206.24558,175.938649 C206.064591,176.221918 205.882198,176.504286 205.698407,176.785745 C205.38243,177.269635 204.734009,177.405755 204.250119,177.089777 C203.766229,176.7738 203.630109,176.125379 203.946087,175.641489 C204.126093,175.365827 204.30473,175.089273 204.481991,174.811839 Z M34.2283117,172.636826 C34.7219306,172.336274 35.3657334,172.492785 35.6662855,172.986404 C35.8380181,173.268453 36.0111547,173.549645 36.1856882,173.829968 C36.4911432,174.320568 36.3410534,174.965898 35.8504533,175.271353 C35.3598532,175.576808 34.7145231,175.426718 34.4090681,174.936118 C34.2308615,174.649895 34.0540808,174.362786 33.8787333,174.074799 C33.5781812,173.581181 33.7346928,172.937378 34.2283117,172.636826 Z M207.143146,170.398787 C207.428646,169.896312 208.067426,169.720419 208.569901,170.005919 C209.072375,170.291419 209.248268,170.930199 208.962769,171.432674 L208.962769,171.432674 L208.45839,172.310145 C208.167888,172.809745 207.527385,172.979253 207.027785,172.688752 C206.528185,172.398251 206.358677,171.757747 206.649178,171.258147 L206.649178,171.258147 Z M31.6863786,168.098641 C32.1949085,167.824072 32.8297361,168.013734 33.1043058,168.522264 C33.2612195,168.812883 33.4195816,169.102713 33.5793852,169.391742 C33.8590203,169.897504 33.675708,170.534194 33.1699458,170.81383 C32.6641836,171.093465 32.0274933,170.910152 31.7478582,170.40439 L31.7478582,170.40439 L31.262756,169.516568 C30.9881864,169.008039 31.1778487,168.373211 31.6863786,168.098641 Z M209.569771,165.857463 C209.828802,165.340845 210.45759,165.132031 210.974208,165.391062 C211.490826,165.650094 211.69964,166.278882 211.440608,166.7955 L211.440608,166.7955 L210.982917,167.697055 C210.718734,168.211057 210.087891,168.413577 209.573888,168.149395 C209.059885,167.885212 208.857365,167.254369 209.121548,166.740366 L209.121548,166.740366 Z M29.3820453,163.43167 C29.9041576,163.1839 30.5282704,163.406299 30.7760402,163.928411 L30.7760402,163.928411 L31.2041994,164.819139 C31.4571702,165.338751 31.2410146,165.965053 30.7214023,166.218024 C30.2017901,166.470995 29.5754877,166.254839 29.3225168,165.735227 C29.1752722,165.432781 29.0295326,165.12959 28.8853041,164.825665 C28.6375343,164.303552 28.8599329,163.67944 29.3820453,163.43167 Z M211.752928,161.205716 C211.984788,160.676347 212.601886,160.435167 213.131256,160.667027 C213.660626,160.898886 213.901805,161.515984 213.669946,162.045354 L213.669946,162.045354 L213.2591,162.970719 C213.021943,163.497736 212.402457,163.732715 211.875439,163.495558 C211.348422,163.2584 211.113443,162.638914 211.3506,162.111897 L211.3506,162.111897 Z M27.3223276,158.647549 C27.8566434,158.427326 28.4683173,158.68195 28.6885393,159.216266 L28.6885393,159.216266 L29.0702065,160.129281 C29.2957701,160.661364 29.0472871,161.275557 28.5152042,161.501121 C27.9831212,161.726685 27.3689274,161.478202 27.1433638,160.946119 L27.1433638,160.946119 L26.7536105,160.01376 C26.5333885,159.479444 26.7880118,158.867771 27.3223276,158.647549 Z M213.682253,156.470993 C213.886405,155.930333 214.490194,155.65754 215.030854,155.861692 C215.571514,156.065844 215.844307,156.669634 215.640155,157.210294 L215.640155,157.210294 L215.278759,158.153069 C215.069201,158.691657 214.462709,158.958388 213.924122,158.74883 C213.385534,158.539272 213.118803,157.93278 213.32836,157.394193 L213.32836,157.394193 Z M25.5145628,153.761082 C26.0596483,153.569058 26.6571931,153.855272 26.8492164,154.400357 C26.9587239,154.71121 27.0697768,155.021478 27.1823701,155.331153 C27.3798461,155.874287 27.0996349,156.47467 26.556501,156.672146 C26.0133671,156.869622 25.4129842,156.589411 25.2155083,156.046277 L25.2155083,156.046277 L24.8752871,155.095735 C24.6832638,154.55065 24.9694773,153.953105 25.5145628,153.761082 Z M215.377322,151.600333 C215.552939,151.049743 216.141647,150.745767 216.692237,150.921384 C217.242828,151.097001 217.546804,151.685708 217.371187,152.236299 L217.371187,152.236299 L217.059075,153.198118 C216.877939,153.746918 216.286209,154.044968 215.73741,153.863832 C215.18861,153.682695 214.89056,153.090966 215.071696,152.542166 L215.071696,152.542166 Z M23.9645555,148.786831 C24.5189301,148.623552 25.1007033,148.940597 25.2639823,149.494972 C25.3571796,149.811401 25.4519494,150.12731 25.5482871,150.442692 C25.7171199,150.9954 25.4059271,151.580325 24.8532186,151.749158 C24.3005101,151.917991 23.7155854,151.606798 23.5467526,151.054089 L23.5467526,151.054089 L23.2564146,150.086258 C23.0931355,149.531883 23.410181,148.95011 23.9645555,148.786831 Z M216.813426,146.655561 C216.96007,146.096556 217.532111,145.762271 218.091116,145.908915 C218.650121,146.055559 218.984406,146.6276 218.837763,147.186605 C218.752371,147.512116 218.665366,147.837136 218.57675,148.161656 C218.424513,148.719164 217.849152,149.047701 217.291644,148.895464 C216.734136,148.743227 216.405599,148.167865 216.557836,147.610357 L216.557836,147.610357 Z M22.6762404,143.737086 C23.2383884,143.602994 23.8028028,143.950001 23.9368954,144.512149 L23.9368954,144.512149 L24.1712078,145.473088 C24.3109262,146.033864 23.9695915,146.601727 23.4088153,146.741445 C22.8480391,146.881164 22.280176,146.539829 22.1404576,145.979053 C22.059076,145.652418 21.9793146,145.325311 21.9011774,144.997741 C21.7670849,144.435593 22.1140924,143.871179 22.6762404,143.737086 Z M217.990854,141.636749 C218.108126,141.070853 218.661943,140.70717 219.227839,140.824442 C219.793735,140.941713 220.157417,141.49553 220.040146,142.061426 C219.971612,142.392136 219.901437,142.722417 219.829623,143.052262 C219.706678,143.616952 219.149238,143.975058 218.584548,143.852113 C218.019857,143.729167 217.661751,143.171728 217.784697,142.607038 L217.784697,142.607038 Z M21.6534938,138.628656 C22.2218681,138.524053 22.7674243,138.900014 22.8720277,139.468388 C22.9317526,139.79291 22.9930831,140.117041 23.0560157,140.440771 C23.1662978,141.008071 22.7958118,141.557359 22.228512,141.667641 C21.6612122,141.777924 21.1119236,141.407438 21.0016415,140.840138 L21.0016415,140.840138 L20.8137624,139.84719 C20.709159,139.278816 21.0851195,138.73326 21.6534938,138.628656 Z M219.980491,135.704635 L220.094118,135.715893 C220.665326,135.803718 221.057185,136.337969 220.96936,136.909176 C220.917992,137.243268 220.864969,137.576996 220.810294,137.910349 C220.716756,138.480649 220.178609,138.867141 219.60831,138.773603 C219.03801,138.680065 218.651518,138.141918 218.745056,137.571618 C218.798601,137.245155 218.850528,136.918324 218.900835,136.591135 C218.98866,136.019927 219.522911,135.628068 220.094118,135.715893 Z M20.8964308,133.462284 C21.4694804,133.387415 21.9947221,133.791271 22.069591,134.36432 C22.1123522,134.691616 22.1567275,135.018582 22.2027141,135.345208 C22.2832863,135.917484 21.8846819,136.446721 21.3124064,136.527293 C20.7401308,136.607866 20.2108932,136.209261 20.130321,135.636986 L20.130321,135.636986 L19.9943949,134.635445 C19.919526,134.062395 20.3233813,133.537153 20.8964308,133.462284 Z M220.583886,130.538815 L220.697944,130.544175 C221.272932,130.602311 221.691924,131.115559 221.633788,131.690547 C221.599836,132.026349 221.564229,132.361849 221.52697,132.697038 C221.463122,133.27142 220.945734,133.685289 220.371352,133.621441 C219.79697,133.557593 219.383101,133.040206 219.446949,132.465824 C219.483442,132.137526 219.518318,131.808922 219.551572,131.48002 C219.609707,130.905032 220.122956,130.48604 220.697944,130.544175 Z M20.4092607,128.27659 C20.9854123,128.231418 21.4890947,128.661862 21.5342668,129.238014 L21.5342668,129.238014 L21.6164979,130.224228 C21.6673673,130.799905 21.2419269,131.307821 20.6662504,131.35869 C20.0905738,131.409559 19.5826581,130.984119 19.5317888,130.408442 L19.5317888,130.408442 L19.4478374,129.401597 C19.4026652,128.825445 19.8331091,128.321763 20.4092607,128.27659 Z M221.034092,125.357256 C221.611307,125.3858 222.056092,125.876865 222.027548,126.454079 C222.010948,126.789772 221.992707,127.125223 221.972828,127.460425 C221.938616,128.037331 221.443207,128.477271 220.866301,128.443059 C220.289394,128.408847 219.849454,127.913437 219.883667,127.336531 L219.883667,127.336531 L219.93727,126.350712 C219.965814,125.773498 220.456878,125.328712 221.034092,125.357256 Z M20.1897944,123.11033 C20.7674981,123.09453 21.2486275,123.550043 21.2644271,124.127747 L21.2644271,124.127747 L21.2963375,125.117048 C21.3178022,125.694569 20.8670295,126.180143 20.2895085,126.201608 C19.7119876,126.223072 19.2264138,125.7723 19.2049492,125.194779 L19.2049492,125.194779 L19.172377,124.184962 C19.1565774,123.607259 19.6120907,123.126129 20.1897944,123.11033 Z M221.105178,120.15858 C221.683097,120.157722 222.152291,120.62552 222.153152,121.203439 L222.153152,121.203439 L222.149731,122.21412 C222.144956,122.79202 221.672605,123.25663 221.094705,123.251854 C220.516805,123.247079 220.052195,122.774728 220.056971,122.196828 L220.056971,122.196828 L220.060322,121.206558 C220.059461,120.628639 220.527259,120.159444 221.105178,120.15858 Z M20.2315867,117.948393 C20.8093524,117.961731 21.2669112,118.440916 21.2535728,119.018681 L21.2535728,119.018681 L21.2355507,120.00968 C21.227871,120.587549 20.7531903,121.049778 20.1753217,121.042098 C19.597453,121.034419 19.1352235,120.559738 19.1429031,119.981869 C19.1473867,119.6445 19.1535189,119.307333 19.1612979,118.970379 C19.1746363,118.392613 19.6538209,117.935054 20.2315867,117.948393 Z M220.916105,115.028699 C221.49325,114.99879 221.985365,115.442413 222.015274,116.019558 C222.032694,116.355718 222.048469,116.692121 222.062597,117.028758 C222.086828,117.606169 221.638388,118.093897 221.060976,118.118129 C220.483565,118.142361 219.995837,117.69392 219.971605,117.116509 L219.971605,117.116509 L219.925246,116.127868 C219.895337,115.550722 220.33896,115.058608 220.916105,115.028699 Z M20.4230536,112.761395 L20.5372137,112.763721 C21.1135445,112.806547 21.5460359,113.308472 21.5032103,113.884803 C21.4787497,114.213984 21.4559054,114.54343 21.4346798,114.873134 C21.3975515,115.449859 20.8999243,115.887289 20.3231985,115.850161 C19.7464727,115.813033 19.3090426,115.315406 19.3461709,114.73868 C19.3678395,114.402096 19.3911606,114.065773 19.416132,113.729717 C19.4589576,113.153387 19.960883,112.720895 20.5372137,112.763721 Z M220.461379,109.858847 C221.036232,109.799385 221.550445,110.217193 221.609906,110.792046 C221.644538,111.126856 221.677523,111.461966 221.70886,111.797369 C221.76262,112.372783 221.339737,112.882829 220.764323,112.93659 C220.188909,112.99035 219.678863,112.567467 219.625102,111.992053 L219.625102,111.992053 L219.52818,111.007373 C219.468719,110.43252 219.886527,109.918308 220.461379,109.858847 Z M20.9962778,107.582921 L21.110166,107.591132 C21.6835207,107.663627 22.0895476,108.187192 22.0170525,108.760546 L22.0170525,108.760546 L21.8976556,109.744159 C21.8308709,110.318207 21.3113735,110.729425 20.7373256,110.662641 C20.1632777,110.595856 19.7520596,110.076359 19.8188443,109.502311 L19.8188443,109.502311 L19.9407514,108.498018 C20.0132465,107.924664 20.5368113,107.518637 21.110166,107.591132 Z M219.737081,104.696401 C220.308077,104.607216 220.84326,104.997802 220.932445,105.568798 C220.984397,105.901415 221.034706,106.234393 221.083371,106.567725 C221.166859,107.139582 220.770957,107.670845 220.1991,107.754333 C219.627242,107.837821 219.09598,107.441919 219.012492,106.870061 L219.012492,106.870061 L218.864683,105.891765 C218.775498,105.320768 219.166084,104.785585 219.737081,104.696401 Z M20.7349436,103.302594 C20.8370697,102.73377 21.3809827,102.355436 21.9498073,102.457562 C22.5186319,102.559688 22.8969658,103.103601 22.7948398,103.672426 L22.7948398,103.672426 L22.6248078,104.647459 C22.5283702,105.217276 21.9882645,105.601025 21.4184479,105.504588 C20.8486313,105.40815 20.4648817,104.868044 20.5613193,104.298228 C20.6175523,103.965966 20.6754282,103.634085 20.7349436,103.302594 Z M218.744847,99.5769734 C219.310422,99.4581613 219.865227,99.820334 219.984039,100.385909 L219.984039,100.385909 L220.186851,101.37595 C220.299996,101.942685 219.932288,102.493838 219.365553,102.606982 C218.798817,102.720127 218.247665,102.35242 218.13452,101.785684 C218.069918,101.462099 218.003714,101.138923 217.935911,100.816166 C217.817099,100.250591 218.179272,99.6957855 218.744847,99.5769734 Z M21.794299,98.1712017 C21.925798,97.6084414 22.4886065,97.2588351 23.0513668,97.3903342 C23.6141271,97.5218332 23.9637334,98.0846416 23.8322343,98.647402 C23.7571894,98.9685627 23.6837372,99.290169 23.6118815,99.6122118 C23.486028,100.176261 22.926751,100.53149 22.3627013,100.405636 C21.7986516,100.279783 21.4434233,99.7205058 21.5692767,99.1564561 C21.6426549,98.8275899 21.7176636,98.4991686 21.794299,98.1712017 Z M217.489076,94.5248916 C218.047685,94.3767463 218.620622,94.709493 218.768768,95.2681021 C218.855128,95.5937412 218.939871,95.9198724 219.022993,96.2464862 C219.165527,96.8065534 218.827049,97.3761241 218.266982,97.518658 C217.706914,97.6611918 217.137344,97.3227141 216.99481,96.7626469 C216.913415,96.4428164 216.830432,96.1234589 216.745865,95.8045837 C216.59772,95.2459746 216.930466,94.6730369 217.489076,94.5248916 Z M23.1244041,93.0821519 C23.2850901,92.5270202 23.865375,92.2072588 24.4205067,92.3679448 C24.9756383,92.5286309 25.2953997,93.1089158 25.1347137,93.6640474 L25.1347137,93.6640474 L24.8640795,94.6169134 C24.7089767,95.1736308 24.1319323,95.4992037 23.5752149,95.3441009 C23.0184975,95.188998 22.6929246,94.6119537 22.8480274,94.0552363 L22.8480274,94.0552363 Z M215.970981,89.5442392 C216.521092,89.3671268 217.110624,89.6695021 217.287736,90.2196133 C217.391042,90.5404799 217.492749,90.8619067 217.592855,91.1838836 C217.764434,91.7357457 217.456154,92.3222107 216.904292,92.4937897 C216.35243,92.6653688 215.765965,92.3570885 215.594386,91.8052264 C215.49636,91.4899403 215.396766,91.175193 215.295607,90.8609941 C215.118495,90.3108829 215.42087,89.7213516 215.970981,89.5442392 Z M24.7200306,88.0646233 C24.9095076,87.5186474 25.5057099,87.2296479 26.0516857,87.4191249 C26.5976616,87.6086019 26.8866611,88.2048042 26.6971841,88.7507801 L26.6971841,88.7507801 L26.3777088,89.6864592 C26.1937142,90.234307 25.6004387,90.5292682 25.052591,90.3452736 C24.5047432,90.161279 24.209782,89.5680035 24.3937766,89.0201558 C24.5009436,88.701064 24.6096965,88.3825498 24.7200306,88.0646233 Z M214.194738,84.6492564 C214.734851,84.4436634 215.339366,84.714846 215.544959,85.2549596 C215.664764,85.5697011 215.783003,85.8850702 215.899669,86.2010567 C216.099836,86.7432045 215.822606,87.3449698 215.280458,87.5451371 C214.738311,87.7453045 214.136545,87.4680746 213.936378,86.9259269 L213.936378,86.9259269 L213.589034,85.9994776 C213.383441,85.459364 213.654624,84.8548494 214.194738,84.6492564 Z M26.5771039,83.133674 C26.7948565,82.598347 27.4053482,82.3409022 27.9406751,82.5586549 C28.4760021,82.7764075 28.7334469,83.3868992 28.5156943,83.9222262 L28.5156943,83.9222262 L28.1476593,84.8401536 C27.9352792,85.3776346 27.3273967,85.6411811 26.7899156,85.428801 C26.2524346,85.216421 25.9888881,84.6085385 26.2012682,84.0710574 L26.2012682,84.0710574 Z M212.167795,79.8585936 C212.696465,79.6251424 213.314286,79.8644642 213.547737,80.393134 L213.547737,80.393134 L213.951051,81.3189802 C214.179201,81.8499594 213.933709,82.465355 213.40273,82.6935046 C212.871751,82.9216542 212.256355,82.6761623 212.028206,82.1451831 L212.028206,82.1451831 L211.633255,81.2385357 C211.399803,80.709866 211.639125,80.0920448 212.167795,79.8585936 Z M28.6650586,78.3579033 C28.9101566,77.8345314 29.5331245,77.6089459 30.0564964,77.8540439 C30.5798683,78.0991419 30.8054538,78.7221099 30.5603558,79.2454818 C30.4206256,79.5438558 30.2823806,79.8429389 30.1456268,80.1427209 C29.905771,80.6685159 29.2850884,80.9003154 28.7592935,80.6604597 C28.2334985,80.4206039 28.0016989,79.7999213 28.2415547,79.2741263 L28.2415547,79.2741263 Z M209.913517,75.2168943 C210.429441,74.9564832 211.058785,75.1636171 211.319196,75.6795407 L211.319196,75.6795407 L211.76977,76.5834043 C212.025016,77.1019029 211.811607,77.7291466 211.293109,77.9843923 C210.77461,78.2396381 210.147366,78.0262295 209.892121,77.5077309 L209.892121,77.5077309 L209.450871,76.6225728 C209.19046,76.1066491 209.397594,75.4773054 209.913517,75.2168943 Z M31.0161229,73.6594337 C31.2880696,73.1494963 31.9219119,72.9565667 32.4318493,73.2285134 C32.9417867,73.5004601 33.1347163,74.1343024 32.8627696,74.6442398 L32.8627696,74.6442398 L32.4019855,75.5187454 C32.1351369,76.031369 31.5032498,76.2306091 30.9906262,75.9637605 C30.4780025,75.696912 30.2787625,75.0650249 30.5456111,74.5524012 C30.7009669,74.2539583 30.8578063,73.956299 31.0161229,73.6594337 Z M207.396627,70.652134 C207.898313,70.3652508 208.537575,70.5393831 208.824459,71.0410695 L208.824459,71.0410695 L209.321051,71.9196038 C209.602925,72.4241216 209.422437,73.0616181 208.917919,73.3434922 C208.413401,73.6253662 207.775904,73.4448779 207.49403,72.9403601 L207.49403,72.9403601 L207.007692,72.0799655 C206.720808,71.5782791 206.894941,70.9390172 207.396627,70.652134 Z M33.6095402,69.0862633 C33.9075602,68.5911115 34.5505529,68.4313046 35.0457047,68.7293246 C35.5408565,69.0273445 35.7006634,69.6703373 35.4026434,70.165489 L35.4026434,70.165489 L34.8969696,71.015191 C34.6038915,71.5132838 33.9625208,71.6794809 33.464428,71.3864028 C32.9663353,71.0933246 32.8001381,70.4519539 33.0932163,69.9538612 L33.0932163,69.9538612 Z M204.648677,66.2279666 C205.134821,65.9154682 205.782249,66.0562358 206.094747,66.5423798 L206.094747,66.5423798 L206.636791,67.3949086 C206.944439,67.8841361 206.79724,68.5301318 206.308013,68.8377804 C205.818785,69.145429 205.17279,68.9982302 204.865141,68.5090027 L204.865141,68.5090027 L204.334264,67.6740364 C204.021766,67.1878924 204.162533,66.5404649 204.648677,66.2279666 Z M36.4405038,64.6473275 C36.7637741,64.168279 37.414182,64.0419958 37.8932306,64.3652661 C38.3722791,64.6885364 38.4985623,65.3389443 38.175292,65.8179928 L38.175292,65.8179928 L37.6255693,66.641414 C37.3070772,67.1236524 36.6579567,67.256395 36.1757183,66.9379028 C35.6934799,66.6194106 35.5607373,65.9702902 35.8792295,65.4880518 C36.0649263,65.2068828 36.2520203,64.9266379 36.4405038,64.6473275 Z M201.679235,61.9570379 C202.14859,61.6198475 202.802424,61.7269877 203.139614,62.1963424 L203.139614,62.1963424 L203.726105,63.0213359 C204.058612,63.49402 203.944976,64.1467564 203.472292,64.4792635 C202.999608,64.8117705 202.346871,64.6981346 202.014364,64.2254505 C201.824228,63.9551577 201.632748,63.6858098 201.439931,63.417417 C201.102741,62.9480624 201.209881,62.2942284 201.679235,61.9570379 Z M39.4958674,60.362851 C39.8434593,59.9011464 40.4995236,59.8086399 40.9612281,60.1562317 C41.4229327,60.5038236 41.5154392,61.159888 41.1678474,61.6215925 L41.1678474,61.6215925 L40.5766545,62.4150267 C40.2336577,62.8801551 39.5785428,62.9791623 39.1134145,62.6361655 C38.6482861,62.2931687 38.5492789,61.6380538 38.8922757,61.1729255 L38.8922757,61.1729255 Z M198.501895,57.8553008 C198.95329,57.4944216 199.611768,57.567799 199.972648,58.0191938 L199.972648,58.0191938 L200.600352,58.8123716 C200.956736,59.267324 200.87683,59.925042 200.421878,60.281426 C199.966925,60.63781 199.309207,60.5579046 198.952823,60.1029522 L198.952823,60.1029522 L198.338002,59.3260533 C197.977123,58.8746584 198.0505,58.2161801 198.501895,57.8553008 Z M42.7701002,56.2397406 C43.141059,55.7965919 43.8010235,55.7380703 44.2441722,56.1090291 C44.6873209,56.4799878 44.7458424,57.1399523 44.3748837,57.583101 L44.3748837,57.583101 L43.7436531,58.3447991 C43.3770991,58.7915981 42.7177462,58.8566495 42.2709472,58.4900955 C41.8241482,58.1235416 41.7590968,57.4641887 42.1256508,57.0173897 C42.3391815,56.7571134 42.5540009,56.4978937 42.7701002,56.2397406 Z M195.105083,53.9078951 C195.537277,53.5242297 196.198663,53.5635704 196.582328,53.9957648 L196.582328,53.9957648 L197.250023,54.7554622 C197.629388,55.1914365 197.583497,55.8523993 197.147522,56.231764 C196.711548,56.6111287 196.050585,56.5652376 195.67122,56.1292632 L195.67122,56.1292632 L195.017213,55.38514 C194.633548,54.9529455 194.672888,54.2915604 195.105083,53.9078951 Z M46.2567609,52.2865898 C46.6500984,51.8631789 47.3122038,51.8387996 47.7356147,52.2321371 C48.1590256,52.6254746 48.1834049,53.28758 47.7900674,53.7109909 L47.7900674,53.7109909 L47.1198962,54.4395987 C46.7307684,54.8668817 46.0689367,54.8978125 45.6416538,54.5086847 C45.2143708,54.1195569 45.18344,53.4577252 45.5725678,53.0304423 L45.5725678,53.0304423 Z M191.518607,50.1498228 C191.93052,49.7444603 192.593053,49.7497707 192.998415,50.1616838 L192.998415,50.1616838 L193.702976,50.8847434 C194.104247,51.300643 194.092388,51.963091 193.676489,52.3643623 C193.260589,52.7656336 192.598141,52.753775 192.19687,52.3378753 L192.19687,52.3378753 L191.506746,51.6296312 C191.101383,51.2177181 191.106694,50.5551853 191.518607,50.1498228 Z M49.9037906,48.5564688 C50.3182342,48.1536937 50.9807207,48.1631529 51.3834957,48.5775964 C51.7862708,48.99204 51.7768116,49.6545265 51.3623681,50.0573016 L51.3623681,50.0573016 L50.6560322,50.7505772 C50.2455934,51.1574323 49.5830457,51.1545272 49.1761905,50.7440883 C48.7693354,50.3336494 48.7722405,49.6711017 49.1826794,49.2642466 L49.1826794,49.2642466 Z M77.3143748,19.6802331 L81.3116773,27.2532395 L79.9679435,27.962731 L79.018945,26.1636986 C77.3531547,23.287383 74.6188326,22.3207272 71.9736349,23.7176501 C69.5893532,24.9756882 69.0293552,27.1502352 70.3562022,29.9392105 C71.3401579,32.0554613 73.1941513,32.6414797 76.8877177,32.148775 L77.5711085,32.0756952 C82.8166335,31.5617458 85.5558684,32.4435552 87.5329798,36.1869908 C89.7281521,40.4425441 88.1917477,44.1091554 83.1850374,46.7525442 C80.7340616,48.0468365 78.4260693,48.3238998 76.4625339,47.6454119 C76.3048936,47.5874069 76.1497245,47.5252441 75.9979596,47.4593123 L75.7729821,47.3576364 L75.6689347,47.3050901 L76.7903261,49.4275401 L75.4467787,50.1384686 L70.7444748,41.2324009 L72.0882247,40.5229009 L73.0217221,42.2918728 C75.1373078,46.2979224 77.8721944,47.8381842 82.0434171,45.6362424 C84.6979921,44.2348565 85.592413,41.7335012 84.4104006,39.2205387 C83.3467385,36.9519813 80.9985272,36.174125 77.0780502,36.6310875 C71.7887427,37.2578206 69.1469802,36.5950781 67.3388074,33.1701757 C65.2001414,29.1199092 66.3727457,24.955799 70.9117426,22.5600079 C72.8340523,21.5442751 74.9666737,21.4602832 76.6932772,22.2455105 L76.9261486,22.3579688 L77.0419347,22.4200901 L75.9707007,20.389693 L77.3143748,19.6802331 Z M176.286461,23.5472006 C180.703177,25.9537202 181.670333,29.2630154 179.560387,33.1380441 C178.029398,35.9487836 176.014449,37.4118329 173.472349,37.9176783 C172.361324,38.1387581 171.394667,38.1750813 169.813456,38.1004128 L168.869289,38.0483846 C165.921916,37.8967487 163.419238,38.5830538 161.464812,40.0208805 L161.201707,40.2215978 L161.008935,40.3780901 L171.326935,45.9960901 L173.754622,43.6212189 L175.163754,44.387349 L169.962235,49.6229972 L157.635688,42.9089716 L157.60901,42.6078939 L157.641284,42.4531596 L157.91087,41.9592466 C159.869787,38.3611631 163.575295,36.7717675 168.674941,36.4714582 C171.247607,36.1755035 173.894996,34.0703932 175.37512,31.3513123 C176.911781,28.5302297 176.658937,25.7036986 174.288289,24.4122012 C173.262439,23.854358 171.94547,23.779485 170.615064,24.1932736 L170.444935,24.2500901 L168.065972,28.6181008 L166.825119,27.941418 L169.461951,23.1955361 L169.604034,23.0728403 C171.862863,22.2201468 173.99529,22.2996619 176.286461,23.5472006 Z M187.742264,46.5795429 C188.132801,46.1535479 188.794731,46.1248038 189.220726,46.5153412 C189.468412,46.7424107 189.714976,46.9707025 189.96041,47.2002072 C190.382529,47.5949305 190.404738,48.2571123 190.010015,48.6792315 C189.615291,49.1013508 188.95311,49.1235596 188.53099,48.7288363 L188.53099,48.7288363 L187.806465,48.0580055 C187.38047,47.6674681 187.351726,47.0055379 187.742264,46.5795429 Z M159.885935,41.4720901 L159.459634,42.0105364 L159.359935,42.1410901 L169.599935,47.7190901 L170.232935,47.1060901 L159.885935,41.4720901 Z M68.1959347,27.2220901 L68.116005,27.4798116 C67.6662504,29.0220689 67.8251429,30.5826107 68.6209627,32.1544316 C69.935931,34.8774275 72.4349385,35.6197946 76.6735,35.0846403 L77.0029837,35.0409666 C81.5589357,34.3820479 84.3728994,35.3391556 85.8493765,38.5041958 C86.4637618,39.9864829 86.470975,41.5815862 85.8776379,42.9978237 L85.8449347,43.0680901 L85.9453602,42.9197565 C87.1323151,41.0780496 87.1964221,39.3687001 86.2265969,37.1910816 L86.1052606,36.9274813 C84.623547,33.8822416 81.9145567,33.1287421 77.0893597,33.718638 C72.498195,34.2033602 70.305671,33.5538147 68.9186881,30.6600597 C68.3733771,29.4058445 68.109147,28.3210123 68.1848972,27.335252 L68.1959347,27.2220901 Z M101.5561,11.9343 L104.884564,17.0540952 L103.481927,17.4370733 L100.870935,13.6050901 L95.8529347,14.9790901 L101.981935,37.3510901 L103.861522,36.8369087 L104.240047,38.2174106 L96.3651544,40.3746986 L95.9882157,38.9941803 L97.8669347,38.4780901 L91.7389347,16.1070901 L86.8929347,17.4350901 L86.5991109,22.061152 L85.1967659,22.4472816 L85.4509694,16.3453106 L101.5561,11.9343 Z M139.11684,10.9600189 L147.652185,12.7987542 C153.283451,13.9633462 155.799574,16.8817876 154.822274,21.4188192 C153.812277,26.1051683 150.399493,28.2062559 145.18273,27.1859345 L144.885519,27.1248432 L142.119935,26.5280901 L140.005935,36.3460901 L142.170975,36.8118849 L141.870374,38.2115077 L133.629296,36.4369922 L133.929888,35.0374104 L135.834935,35.4480901 L140.710935,12.8130901 L138.806109,12.4028117 L139.11684,10.9600189 Z M94.3019347,15.4060901 L93.2899347,15.6820901 L99.4189347,38.0530901 L100.429935,37.7760901 L94.3019347,15.4060901 Z M177.690935,26.1580901 L177.763586,26.3188011 C178.430152,27.9057173 178.039226,29.7742868 176.746943,32.1477965 C175.596259,34.2591193 174.019938,35.8572444 172.08479,36.7786669 L171.978935,36.8260901 L172.062236,36.8134006 C174.676752,36.3779053 176.549656,35.1888042 177.971357,32.7338502 L178.127481,32.4558423 C179.42311,30.0764494 179.44565,28.0441661 177.884666,26.3572494 L177.690935,26.1580901 Z M126.803285,9.95334492 L128.474854,15.7593342 L126.988716,15.8112311 L125.592935,11.4280901 L116.555935,11.7470901 L116.903935,21.6490901 L123.485935,21.4170901 L123.389288,18.6724786 L124.863721,18.6209359 L125.108427,25.5400334 L123.634072,25.5915734 L123.536935,22.8470901 L116.955935,23.0790901 L117.372935,34.9280901 L126.967935,34.5900901 L127.652409,30.1342231 L129.267271,30.0773513 L128.401109,35.9722418 L111.211664,36.5785464 L111.162351,35.148468 L113.108935,35.0790901 L112.291935,11.8970901 L110.345009,11.9677346 L110.292532,10.5365308 L126.803285,9.95334492 Z M142.282935,13.1510901 L137.407935,35.7850901 L138.432935,36.0060901 L143.309935,13.3720901 L142.282935,13.1510901 Z M114.947935,11.8040901 L113.898935,11.8400901 L114.716935,35.0220901 L115.764935,34.9860901 L114.947935,11.8040901 Z M150.772935,15.1310901 L150.81323,15.1846614 C151.946596,16.7482591 152.278315,18.9220926 151.803122,21.1303932 C151.277568,23.5688176 149.811029,25.5376821 147.825889,26.2791696 L147.736935,26.3100901 L147.777136,26.3073838 C150.444346,26.0917319 152.433932,24.4250789 153.186369,21.3549855 L153.249535,21.0804539 C153.778886,18.6238153 152.780538,16.4945839 150.858237,15.1875241 L150.772935,15.1310901 Z M144.882935,13.7050901 L142.430935,25.0860901 L144.156841,25.4585957 C147.021521,26.0759911 149.392617,24.2267979 150.174725,21.0339729 L150.230387,20.7920092 C150.949527,17.4555443 149.658936,14.8152034 146.842696,14.0922563 L146.623061,14.0404474 L144.882935,13.7050901 Z" id="STEP-2" fill="url(#linearGradient-4)"></path>
                        </g>
                    </g>
                </g>
            </g>
        </g>
    </g>
</svg>